<svg width="173" height="202" viewBox="0 0 173 202" fill="none" xmlns="http://www.w3.org/2000/svg">
<g clip-path="url(#clip0_320_7505)">
<path d="M26.9697 96.3292L28.303 99.2243C28.3411 99.3157 28.4173 99.3843 28.5011 99.4223L31.3961 100.756C31.7161 100.9 31.7161 101.35 31.3961 101.495L28.5011 102.828C28.4097 102.866 28.3411 102.942 28.303 103.026L26.9697 105.921C26.825 106.241 26.3755 106.241 26.2307 105.921L24.8975 103.026C24.8594 102.934 24.7832 102.866 24.6994 102.828L21.8044 101.495C21.4844 101.35 21.4844 100.9 21.8044 100.756L24.6994 99.4223C24.7908 99.3843 24.8594 99.3081 24.8975 99.2243L26.2307 96.3292C26.3755 96.0092 26.825 96.0092 26.9697 96.3292Z" fill="white"/>
<path d="M26.7183 96.4738L27.9372 99.1174C28.082 99.4222 28.242 99.6126 28.5543 99.7574L30.0628 100.451L30.8323 100.801C30.9237 100.847 31.1903 100.908 31.2513 100.992C31.4798 101.312 30.558 101.563 30.398 101.632L28.7143 102.401C28.4096 102.538 28.181 102.637 28.0134 102.95C27.7696 103.407 27.5791 103.894 27.3658 104.359L27.0078 105.136C26.9392 105.288 26.863 105.586 26.7411 105.707C26.4364 106.02 26.2535 105.288 26.1621 105.098L25.3926 103.422C25.2479 103.102 25.1412 102.744 24.8212 102.561C24.4251 102.332 23.9756 102.172 23.5642 101.982C23.0918 101.769 22.5281 101.593 22.1014 101.312C21.6748 101.03 22.1624 100.893 22.429 100.771L24.2803 99.9174C24.6384 99.7498 24.9812 99.6507 25.1717 99.2774C25.4383 98.767 25.6593 98.2184 25.9031 97.6928L26.3068 96.8242C26.3297 96.7785 26.5354 96.1767 26.7183 96.4662C26.9163 96.7785 27.4115 96.489 27.2135 96.1767C26.8554 95.6053 26.1926 95.7424 25.9259 96.2909C25.6593 96.8395 25.4155 97.4109 25.1565 97.967C25.0041 98.3022 24.8517 98.9346 24.547 99.1708C24.4251 99.2622 24.2346 99.3155 24.0975 99.3765L23.1909 99.7955C22.6957 100.024 22.1624 100.222 21.69 100.489C21.1567 100.786 21.1567 101.456 21.69 101.753C22.17 102.02 22.6957 102.218 23.1909 102.447L24.0975 102.866C24.2346 102.927 24.4251 102.98 24.547 103.071C24.8517 103.308 25.0041 103.94 25.1565 104.275C25.4155 104.831 25.6593 105.403 25.9259 105.951C26.1926 106.5 26.8706 106.645 27.2135 106.066C27.4496 105.669 27.6096 105.205 27.8001 104.793C28.0363 104.29 28.2267 103.696 28.5238 103.224C28.7067 102.934 29.2019 102.82 29.499 102.683L31.2894 101.86C31.7465 101.654 32.1731 101.197 31.7617 100.694C31.6246 100.527 31.4265 100.458 31.236 100.374L30.2609 99.925L29.1943 99.4374C29.0267 99.3612 28.7905 99.3003 28.6457 99.186C28.501 99.0717 28.4553 98.8889 28.3791 98.7289L27.922 97.7308L27.2135 96.1995C27.0611 95.8643 26.5659 96.1538 26.7183 96.489V96.4738Z" fill="#2B63A8"/>
<path d="M26.8097 96.4204L28.0287 99.064C28.1658 99.3612 28.3106 99.5288 28.6077 99.6659L30.1162 100.359L30.8857 100.71C30.9923 100.763 31.2209 100.809 31.3047 100.9C31.7237 101.334 30.6419 101.639 30.4514 101.723L28.7677 102.492C28.4782 102.622 28.2649 102.713 28.1049 103.003C27.8611 103.46 27.6706 103.948 27.4573 104.412L27.0992 105.189C27.0231 105.357 26.9545 105.624 26.8326 105.761C26.4212 106.248 26.1698 105.365 26.0707 105.151L25.3013 103.475C25.1641 103.178 25.0651 102.82 24.768 102.652C24.3718 102.424 23.9223 102.264 23.5109 102.073C23.0386 101.852 22.49 101.677 22.0482 101.403C21.8958 101.312 21.5377 101.251 21.911 100.892C22.0101 100.793 22.2539 100.733 22.3834 100.679L24.2347 99.8259C24.5775 99.6659 24.9051 99.5745 25.088 99.224C25.3546 98.7136 25.5755 98.1651 25.8193 97.6394L26.2231 96.7709C26.2612 96.6871 26.2917 96.5652 26.3526 96.4966C26.4364 96.3976 26.4517 95.8262 26.8174 96.4128C26.9393 96.6109 27.2516 96.428 27.1297 96.2299C26.8097 95.7271 26.2536 95.8719 26.025 96.3442C25.7508 96.8928 25.5146 97.4642 25.2556 98.0203C25.0956 98.3631 24.9356 99.026 24.608 99.2621C24.2194 99.5364 23.6785 99.6888 23.2519 99.8869C22.7567 100.115 22.2158 100.306 21.751 100.58C21.2863 100.854 21.2939 101.395 21.751 101.662C22.2081 101.929 22.7643 102.127 23.2519 102.355C23.6785 102.553 24.2194 102.706 24.608 102.98C24.9356 103.209 25.0956 103.879 25.2556 104.222C25.5146 104.778 25.7584 105.349 26.025 105.898C26.2536 106.37 26.8174 106.523 27.1297 106.012C27.3659 105.624 27.5259 105.151 27.7164 104.74C27.9525 104.229 28.143 103.65 28.4401 103.17C28.6382 102.858 29.1334 102.736 29.4534 102.591L31.2437 101.769C31.6323 101.586 32.0513 101.22 31.6932 100.763C31.5713 100.603 31.3656 100.542 31.1904 100.458L30.2152 100.009C29.7048 99.7726 29.0572 99.5897 28.6001 99.2621C28.4325 99.1478 28.3792 98.9422 28.2954 98.7669L27.8382 97.7689L27.1297 96.2376C27.0307 96.0243 26.7183 96.2071 26.8174 96.4204H26.8097Z" fill="white"/>
<path d="M26.566 96.5651L27.4573 98.5079C27.6707 98.9802 27.8383 99.5287 28.2878 99.8259C28.7906 100.153 29.4229 100.359 29.9639 100.611C30.2229 100.725 30.4743 100.854 30.7333 100.961C30.9771 101.068 31.2209 101.045 30.9085 101.228C30.0629 101.723 28.9887 101.898 28.1887 102.485C27.8154 102.759 27.663 103.239 27.4802 103.65C27.2288 104.222 26.9545 104.786 26.726 105.357C26.7641 105.258 26.6117 105.631 26.6117 105.631C26.5736 105.631 26.4822 105.41 26.4669 105.38C26.406 105.266 26.3679 105.136 26.3146 105.014C26.0403 104.374 25.7279 103.742 25.4461 103.109C24.9966 102.111 23.6862 101.868 22.7567 101.449C22.5967 101.38 22.2386 101.258 22.1168 101.121L22.0406 101.083C22.1396 101.083 22.2386 101.045 22.3301 100.991C22.391 100.969 22.452 100.946 22.5129 100.915C23.1833 100.626 23.8309 100.306 24.4937 100.009C24.9509 99.803 25.2175 99.5897 25.4384 99.1326C25.7432 98.5155 26.0022 97.8831 26.2917 97.2584C26.3908 97.0527 26.4898 96.8394 26.5812 96.6337C26.6041 96.5804 26.6345 96.5347 26.6498 96.4737C26.7184 96.2147 26.5507 96.5118 26.5584 96.5499C26.5812 96.8927 27.1831 96.7632 27.3202 96.6032C27.564 96.3213 27.3431 95.9556 27.084 95.7728C26.7793 95.5595 26.3908 95.5823 26.0936 95.7957C25.6746 96.1004 25.4994 96.7404 25.2937 97.1898C25.0804 97.6698 24.9051 98.1726 24.6766 98.6374C24.4176 99.1859 23.8081 99.3154 23.29 99.5364C22.7719 99.7573 22.2234 99.963 21.7282 100.237C21.3778 100.435 21.073 100.725 21.1035 101.159C21.134 101.593 21.5073 101.86 21.873 102.05C22.3758 102.302 22.9015 102.515 23.4271 102.729C23.6862 102.835 23.9528 102.927 24.1966 103.056C24.5166 103.231 24.6385 103.46 24.7756 103.795C24.9585 104.267 25.1642 104.725 25.3699 105.189C25.5756 105.654 25.7508 106.264 26.2308 106.5C27.2897 107.025 27.724 105.372 28.0135 104.709C28.303 104.047 28.4554 103.285 29.1487 102.995C29.7734 102.729 30.3905 102.447 31.0076 102.165C31.4495 101.959 32.0589 101.708 32.0894 101.136C32.1199 100.565 31.5866 100.329 31.1447 100.131C30.5276 99.8487 29.8953 99.5973 29.2782 99.323C28.8287 99.1173 28.6382 98.8964 28.4401 98.4545C28.2878 98.1193 28.1354 97.7841 27.9754 97.4489L27.5031 96.428C27.4116 96.2299 27.3355 95.9709 27.1145 95.8795C26.7107 95.7271 26.4593 96.1461 26.5126 96.4889C26.5736 96.847 27.1221 96.6946 27.0612 96.3366L26.9317 96.5423L27.0917 96.8851L27.2516 97.2279L27.6402 98.0736C27.8383 98.5079 27.9983 99.1402 28.3716 99.4602C28.7449 99.7802 29.2401 99.9173 29.6743 100.093C29.9639 100.207 30.2457 100.344 30.5352 100.473C30.7638 100.58 31.1066 100.656 31.2895 100.816C31.7847 101.251 31.1981 101.449 30.8933 101.586C30.5886 101.723 30.2991 101.86 29.9943 101.997C29.522 102.21 28.9811 102.378 28.5392 102.652C28.1354 102.904 27.9526 103.361 27.7773 103.788C27.5488 104.321 27.3355 104.862 27.0917 105.395C26.9774 105.646 26.8174 106.126 26.4593 105.997C26.2308 105.913 26.0936 105.441 26.0022 105.25C25.766 104.747 25.5299 104.237 25.3318 103.719C25.2023 103.376 25.0651 103.018 24.7756 102.774C24.4328 102.492 23.9681 102.355 23.5567 102.188C23.0462 101.974 22.4672 101.784 21.9949 101.494C21.6596 101.289 21.5301 101.045 21.9263 100.786C22.2006 100.603 22.5358 100.489 22.8405 100.359C23.5795 100.047 24.6842 99.8106 25.1032 99.0564C25.3165 98.6678 25.4384 98.2336 25.6213 97.8298C25.7356 97.5784 25.8498 97.327 25.9641 97.0756C26.086 96.8089 26.1927 96.4051 26.4593 96.2452C26.6422 96.1309 27.1831 96.2299 26.7641 95.9556C26.665 95.8947 26.5507 95.849 26.4288 95.8795C26.2003 95.9404 26.1546 96.169 26.0708 96.3518C25.8575 96.847 25.6213 97.327 25.4003 97.8222C25.1794 98.3174 24.9966 99.0564 24.5471 99.3611C24.0976 99.6659 23.5262 99.8335 23.0462 100.054C22.6272 100.245 22.0177 100.397 21.6749 100.702C20.9283 101.365 22.1091 101.807 22.5967 102.012C23.1072 102.233 23.6328 102.439 24.1357 102.675C24.3871 102.789 24.6309 102.889 24.7909 103.117C24.928 103.315 25.0042 103.582 25.1032 103.795C25.3394 104.313 25.5908 104.831 25.8194 105.357C25.926 105.608 26.0174 105.905 26.246 106.081C26.9621 106.629 27.3355 105.296 27.5335 104.877C27.7926 104.321 27.983 103.666 28.3259 103.155C28.6306 102.698 29.4153 102.5 29.8953 102.287C30.2914 102.104 30.7028 101.959 31.0914 101.761C31.3428 101.631 31.6475 101.433 31.6552 101.113C31.6552 100.74 31.3276 100.595 31.0304 100.481C30.421 100.23 29.8267 99.9325 29.2249 99.6583C28.9353 99.5211 28.5697 99.4145 28.3716 99.1478C28.2116 98.9269 28.1202 98.6374 28.0059 98.3936L27.0307 96.2756C26.8783 95.9404 26.3831 96.2299 26.5355 96.5651H26.566Z" fill="#2B63A8"/>
<path d="M84.7188 2.07297L85.3055 3.34538C85.4198 3.58919 85.6103 3.77967 85.8465 3.88634L87.1189 4.47302C87.9799 4.86922 87.9799 6.09591 87.1189 6.4921L85.8465 7.07878C85.6027 7.19307 85.4122 7.38355 85.3055 7.61974L84.7188 8.89215C84.3226 9.75312 83.096 9.75312 82.6998 8.89215L82.1131 7.61974C81.9988 7.37593 81.8083 7.18545 81.5721 7.07878L80.2997 6.4921C79.4387 6.09591 79.4387 4.86922 80.2997 4.47302L81.5721 3.88634C81.8159 3.77205 82.0064 3.58157 82.1131 3.34538L82.6998 2.07297C83.096 1.212 84.3226 1.212 84.7188 2.07297Z" fill="white"/>
<path d="M84.4751 2.21751L84.8637 3.06324C85.016 3.4061 85.1532 3.74134 85.4579 3.97754C85.7246 4.18326 86.0675 4.30516 86.3723 4.44231C86.6542 4.57184 87.0351 4.68612 87.2561 4.90708C87.6066 5.26518 87.5456 5.88234 87.1266 6.16425C86.8675 6.33949 86.5323 6.44616 86.2503 6.5833C85.9456 6.72045 85.6103 6.84235 85.3665 7.07093C85.0999 7.32236 84.9779 7.67285 84.8256 8.00047C84.696 8.29 84.5817 8.60239 84.4141 8.86906C84.1551 9.2805 83.576 9.39478 83.195 9.0824C82.9436 8.8843 82.8293 8.4881 82.6998 8.21381C82.5627 7.91666 82.4484 7.58904 82.2655 7.31475C81.8769 6.73569 81.0388 6.55283 80.4445 6.25568C80.0178 6.04234 79.7969 5.55471 80.0331 5.10518C80.2007 4.79279 80.5664 4.6785 80.8712 4.53374C81.2064 4.38136 81.5798 4.25183 81.8922 4.04611C82.2655 3.79468 82.4103 3.39848 82.5931 3.0099C82.7379 2.6899 82.8598 2.27846 83.0884 2.00417C83.4998 1.51654 84.216 1.6994 84.4751 2.22513C84.6427 2.55275 85.1303 2.26322 84.9703 1.9356C84.4446 0.899386 82.9665 0.914624 82.456 1.95083C82.2884 2.2937 82.136 2.6518 81.976 3.00228C81.816 3.35277 81.6255 3.5661 81.275 3.73373C80.4979 4.09183 79.4693 4.37374 79.3855 5.38709C79.294 6.4614 80.2769 6.80426 81.0769 7.16998C81.4426 7.3376 81.7398 7.47475 81.9303 7.87095C82.0979 8.23667 82.2655 8.60239 82.4331 8.96811C82.8674 9.89765 84.1246 10.1796 84.8103 9.32621C85.2827 8.73953 85.3132 7.6957 86.0218 7.32998C86.6923 6.99474 87.6447 6.79664 87.957 6.03472C88.1932 5.4709 88.0332 4.79279 87.5532 4.41183C87.218 4.14516 86.7608 4.0004 86.3723 3.82516C86.2199 3.75658 86.0599 3.69563 85.9151 3.61182C85.6941 3.48229 85.5875 3.27657 85.4884 3.048L84.9779 1.94322C84.8256 1.60797 84.3303 1.8975 84.4827 2.23274L84.4751 2.21751Z" fill="#2B63A8"/>
<path d="M83.926 0.785231L85.0536 3.24602C85.2364 3.64218 85.5564 3.96216 85.9526 4.14501L87.2249 4.73164L87.9943 5.08209C88.101 5.13542 88.3296 5.18113 88.4134 5.27255C88.8324 5.70681 87.7505 6.01155 87.5601 6.09536L85.8764 6.86483C85.5869 6.99434 85.3736 7.08577 85.2136 7.37527C84.9698 7.83238 84.7793 8.31997 84.566 8.7847L84.2079 9.56179C84.1317 9.7294 84.0632 9.99605 83.9413 10.1332C83.5299 10.6208 83.2785 9.73702 83.1794 9.5237L82.4099 7.84762C82.2728 7.5505 82.1738 7.19243 81.8766 7.02482C81.4805 6.79626 81.031 6.63627 80.6196 6.44581C80.1472 6.22487 79.5987 6.04964 79.1568 5.77538C79.0045 5.68395 78.6464 5.62301 79.0197 5.26493C79.1187 5.16589 79.3625 5.10494 79.492 5.05162L81.3433 4.19834C81.6862 4.03835 82.0138 3.94693 82.1966 3.59647C82.4633 3.08603 82.6842 2.5375 82.928 2.01182L83.3318 1.1433C83.3699 1.0595 83.4004 0.937602 83.4613 0.869035C83.5451 0.769994 83.5603 0.198603 83.926 0.785231C84.0479 0.983313 84.3603 0.800468 84.2384 0.602386C83.9184 0.0995625 83.3623 0.244315 83.1337 0.716664C82.8594 1.2652 82.6233 1.83659 82.3642 2.39274C82.2042 2.73558 82.0443 3.39839 81.7167 3.63457C81.3281 3.90883 80.7872 4.0612 80.3606 4.25929H80.3377C78.8216 4.96019 78.8216 6.01917 80.3377 6.71246H80.3606C80.7872 6.91816 81.3281 7.07815 81.7167 7.3448C82.0443 7.57335 82.2042 8.24378 82.3642 8.58662C82.6233 9.14277 82.8671 9.71416 83.1337 10.2627C83.3623 10.735 83.926 10.8874 84.2384 10.377C84.4746 9.98843 84.6346 9.51608 84.825 9.10468C85.0612 8.59424 85.2517 8.01523 85.5488 7.53526C85.7469 7.2229 86.2421 7.101 86.562 6.95625L88.3524 6.13345C88.741 5.9506 89.16 5.58491 88.8019 5.1278C88.68 4.96781 88.4743 4.90686 88.2991 4.82306L87.3239 4.37356C86.8135 4.13739 86.1659 3.95455 85.7088 3.62695C85.5412 3.51267 85.4878 3.30697 85.404 3.13174L84.9469 2.13371L84.2384 0.602386C84.1394 0.389067 83.827 0.571912 83.926 0.785231Z" fill="white"/>
<path d="M83.6822 0.922399L84.406 2.49944C84.6726 3.07083 84.886 3.70317 85.3888 4.11457C85.8688 4.50311 86.5239 4.70882 87.0801 4.96785C87.3391 5.08974 87.5905 5.21164 87.8572 5.32592C88.0705 5.41734 88.3295 5.38687 88.0781 5.56971C87.7582 5.79065 87.2706 5.92016 86.9201 6.08015C86.3944 6.32395 85.7088 6.51441 85.2593 6.89534C84.7793 7.29912 84.5812 8.09145 84.3298 8.6476C84.2003 8.92949 84.0632 9.21137 83.9413 9.49326C83.8955 9.5923 83.8498 9.82848 83.7737 9.89704C83.667 9.99608 83.7356 9.98847 83.6365 9.83609C83.3546 9.40946 83.1946 8.83807 82.9813 8.38095C82.768 7.92384 82.5928 7.25341 82.1966 6.90296C81.7395 6.49155 80.9777 6.28585 80.4139 6.04968C80.0863 5.91254 79.7587 5.78303 79.4463 5.61542C79.4768 5.63066 79.1721 5.45543 79.1721 5.47067C79.1644 5.50114 79.3778 5.40972 79.3778 5.40972C80.0482 5.18116 80.6805 4.82309 81.3205 4.53359C81.8462 4.29741 82.2499 4.12981 82.5242 3.59651C82.8823 2.91084 83.1718 2.17946 83.4918 1.47093C83.5756 1.28809 83.6746 1.10524 83.7508 0.91478C83.8651 0.625275 83.6518 0.853832 83.7203 0.998584C83.8955 1.37189 84.4822 1.09763 84.5355 0.785265C84.6041 0.396719 84.1698 0.0691217 83.827 0.0234105C83.3165 -0.0451564 83.0042 0.343389 82.7985 0.754791C82.5242 1.29571 82.2652 1.85948 82.0366 2.42325C81.9376 2.66705 81.869 2.92608 81.7395 3.15463C81.5414 3.49747 81.1757 3.62698 80.8253 3.77173C80.071 4.07648 78.9054 4.51835 78.9054 5.50876C78.9054 6.49917 80.071 6.93343 80.8253 7.24579C81.1224 7.36769 81.4805 7.48958 81.6786 7.75623C81.8385 7.96955 81.9071 8.24382 81.9985 8.48761C82.2347 9.08948 82.509 9.68372 82.7985 10.2627C82.9889 10.6437 83.2784 11.017 83.7508 11.0017C84.3146 10.9865 84.5584 10.4303 84.7564 9.98847C85.0536 9.31803 85.2974 8.61713 85.6326 7.96955C85.9297 7.39816 86.6306 7.25341 87.1868 6.99438C87.7429 6.73535 88.6114 6.51441 89.0228 5.99635C89.3809 5.54685 89.1828 4.9907 88.7105 4.72405C88.1315 4.39645 87.4763 4.14504 86.8592 3.90125C86.5316 3.77173 86.0287 3.6346 85.8002 3.33748C85.5945 3.07083 85.4878 2.65181 85.3431 2.34707L84.7945 1.15857C84.6803 0.907162 84.5736 0.450049 84.3146 0.297678C83.9032 0.0538846 83.5832 0.510997 83.6441 0.876687C83.7051 1.24238 84.2536 1.08239 84.1927 0.724317L84.0632 0.930017L84.2231 1.27285L84.4593 1.78329L84.8479 2.62895C85.0688 3.10892 85.2136 3.68031 85.6783 3.96982C86.1125 4.24408 86.6154 4.38884 87.0801 4.59454C87.3848 4.72405 87.682 4.8688 87.9867 5.01356C88.0857 5.05927 88.3448 5.12783 88.421 5.21164L88.6038 5.6078C88.5276 5.70684 88.4286 5.78303 88.3143 5.84398C87.7886 6.17158 87.1334 6.40013 86.5697 6.65154C86.1659 6.83439 85.6783 6.94867 85.3812 7.2915C85.0612 7.64957 84.9088 8.17525 84.726 8.61713C84.6041 8.90663 84.4746 9.18852 84.3603 9.47041C84.2612 9.70658 84.0784 10.3618 83.7813 10.4151C83.3013 10.5065 82.8899 9.0971 82.7528 8.79235C82.5547 8.3581 82.4328 7.86289 82.1738 7.45911C81.5948 6.56774 80.2006 6.73535 79.5987 5.8516C78.9587 4.89928 80.9091 4.38122 81.4652 4.10695C82.3795 3.66507 82.5852 2.57562 82.9737 1.70711C83.1032 1.42522 83.2251 0.930017 83.4613 0.724317C83.5908 0.60242 83.6213 0.640513 83.7737 0.594801C84.0784 0.503379 84.1393 0.571946 83.9489 0.381482C83.7127 0.152926 83.4232 0.259585 83.2861 0.518616C82.7832 1.46332 82.5166 2.56039 81.9452 3.46699C81.6557 3.9241 80.81 4.13742 80.3453 4.35074C80.0634 4.48026 79.7815 4.60977 79.4996 4.73929C79.2787 4.83833 79.0197 4.89928 78.8292 5.05927C77.9607 5.79065 79.4387 6.27824 79.9415 6.49155C80.5053 6.72773 81.2367 6.92581 81.7243 7.2915C81.93 7.44387 82.0061 7.67243 82.1052 7.90098C82.2423 8.22096 82.3947 8.53332 82.5394 8.8533C82.7299 9.27232 82.8899 9.73705 83.1185 10.1408C83.2708 10.4151 83.5146 10.6665 83.8498 10.5599C84.1851 10.4532 84.2993 10.0647 84.4212 9.76753C84.6879 9.11995 84.985 8.47238 85.2897 7.84766C85.4193 7.58862 85.5183 7.38292 85.7697 7.23817C86.0516 7.07818 86.3716 6.95629 86.6687 6.81915C87.1106 6.61345 87.5525 6.42299 88.0019 6.23252C88.2991 6.11063 88.6952 5.92778 88.7486 5.56971C88.8171 5.16593 88.4514 4.98308 88.1391 4.86119C87.4534 4.5793 86.7601 4.25932 86.0973 3.9241C85.3964 3.58127 85.1907 2.93369 84.886 2.27088L84.1393 0.65575C83.987 0.320534 83.4918 0.610038 83.6441 0.945254L83.6822 0.922399Z" fill="#2B63A8"/>
<path d="M147.457 110.561L148.044 111.833C148.158 112.077 148.349 112.267 148.585 112.374L149.858 112.961C150.719 113.357 150.719 114.584 149.858 114.98L148.585 115.566C148.341 115.681 148.151 115.871 148.044 116.107L147.457 117.38C147.061 118.241 145.835 118.241 145.438 117.38L144.852 116.107C144.737 115.864 144.547 115.673 144.311 115.566L143.038 114.98C142.177 114.584 142.177 113.357 143.038 112.961L144.311 112.374C144.555 112.26 144.745 112.069 144.852 111.833L145.438 110.561C145.835 109.7 147.061 109.7 147.457 110.561Z" fill="white"/>
<path d="M147.206 110.705L147.595 111.551C147.747 111.894 147.884 112.229 148.189 112.465C148.456 112.671 148.798 112.793 149.103 112.93C149.385 113.06 149.766 113.174 149.987 113.395C150.337 113.753 150.277 114.37 149.857 114.652C149.598 114.827 149.263 114.934 148.981 115.071C148.676 115.208 148.341 115.33 148.097 115.559C147.831 115.81 147.709 116.161 147.556 116.488C147.427 116.778 147.313 117.09 147.145 117.357C146.886 117.768 146.307 117.883 145.926 117.57C145.675 117.372 145.56 116.976 145.431 116.702C145.294 116.404 145.179 116.077 144.996 115.803C144.608 115.223 143.77 115.041 143.175 114.743C142.749 114.53 142.528 114.043 142.764 113.593C142.932 113.281 143.297 113.166 143.602 113.022C143.937 112.869 144.311 112.74 144.623 112.534C144.996 112.282 145.141 111.886 145.324 111.498C145.469 111.178 145.591 110.766 145.819 110.492C146.231 110.004 146.947 110.187 147.206 110.713C147.374 111.041 147.861 110.751 147.701 110.423C147.175 109.387 145.697 109.402 145.187 110.439C145.019 110.781 144.867 111.14 144.707 111.49C144.547 111.841 144.356 112.054 144.006 112.222C143.229 112.58 142.2 112.862 142.116 113.875C142.025 114.949 143.008 115.292 143.808 115.658C144.174 115.825 144.471 115.963 144.661 116.359C144.829 116.724 144.996 117.09 145.164 117.456C145.598 118.385 146.855 118.667 147.541 117.814C148.014 117.227 148.044 116.183 148.753 115.818C149.423 115.483 150.376 115.284 150.688 114.523C150.924 113.959 150.764 113.281 150.284 112.9C149.949 112.633 149.492 112.488 149.103 112.313C148.951 112.244 148.791 112.183 148.646 112.1C148.425 111.97 148.318 111.764 148.219 111.536L147.709 110.431C147.556 110.096 147.061 110.385 147.214 110.721L147.206 110.705Z" fill="#2B63A8"/>
<path d="M146.665 109.265L147.792 111.726C147.975 112.122 148.295 112.442 148.691 112.625L149.963 113.212L150.733 113.562C150.84 113.616 151.068 113.661 151.152 113.753C151.571 114.187 150.489 114.492 150.299 114.576L148.615 115.345C148.325 115.475 148.112 115.566 147.952 115.856C147.708 116.313 147.518 116.8 147.305 117.265L146.946 118.042C146.87 118.21 146.802 118.476 146.68 118.613C146.268 119.101 146.017 118.217 145.918 118.004L145.148 116.328C145.011 116.031 144.912 115.673 144.615 115.505C144.219 115.276 143.77 115.117 143.358 114.926C142.886 114.705 142.337 114.53 141.895 114.256C141.743 114.164 141.385 114.103 141.758 113.745C141.857 113.646 142.101 113.585 142.231 113.532L144.082 112.679C144.425 112.519 144.752 112.427 144.935 112.077C145.202 111.566 145.423 111.018 145.667 110.492L146.07 109.624C146.108 109.54 146.139 109.418 146.2 109.349C146.284 109.25 146.299 108.679 146.665 109.265C146.786 109.464 147.099 109.281 146.977 109.083C146.657 108.58 146.101 108.725 145.872 109.197C145.598 109.745 145.362 110.317 145.103 110.873C144.943 111.216 144.783 111.879 144.455 112.115C144.067 112.389 143.526 112.541 143.099 112.74H143.076C141.56 113.44 141.56 114.499 143.076 115.193H143.099C143.526 115.398 144.067 115.558 144.455 115.825C144.783 116.054 144.943 116.724 145.103 117.067C145.362 117.623 145.606 118.194 145.872 118.743C146.101 119.215 146.665 119.368 146.977 118.857C147.213 118.469 147.373 117.996 147.564 117.585C147.8 117.074 147.99 116.495 148.287 116.015C148.485 115.703 148.981 115.581 149.301 115.436L151.091 114.614C151.479 114.431 151.898 114.065 151.54 113.608C151.419 113.448 151.213 113.387 151.038 113.303L150.062 112.854C149.552 112.618 148.904 112.435 148.447 112.107C148.28 111.993 148.226 111.787 148.143 111.612L147.685 110.614L146.977 109.083C146.878 108.869 146.566 109.052 146.665 109.265Z" fill="white"/>
<path d="M146.413 109.41L147.137 110.987C147.404 111.558 147.617 112.191 148.12 112.602C148.6 112.991 149.255 113.196 149.811 113.456C150.07 113.577 150.322 113.699 150.588 113.814C150.802 113.905 151.061 113.875 150.809 114.057C150.489 114.278 150.002 114.408 149.651 114.568C149.125 114.812 148.44 115.002 147.99 115.383C147.51 115.787 147.312 116.579 147.061 117.135C146.931 117.417 146.794 117.699 146.672 117.981C146.627 118.08 146.581 118.316 146.505 118.385C146.398 118.484 146.467 118.476 146.368 118.324C146.086 117.897 145.926 117.326 145.712 116.869C145.499 116.412 145.324 115.741 144.928 115.391C144.471 114.979 143.709 114.774 143.145 114.537C142.817 114.4 142.49 114.271 142.177 114.103C142.208 114.118 141.903 113.943 141.903 113.958C141.895 113.989 142.109 113.897 142.109 113.897C142.779 113.669 143.412 113.311 144.052 113.021C144.577 112.785 144.981 112.617 145.255 112.084C145.613 111.399 145.903 110.667 146.223 109.959C146.307 109.776 146.406 109.593 146.482 109.402C146.596 109.113 146.383 109.342 146.451 109.486C146.627 109.86 147.213 109.585 147.267 109.273C147.335 108.884 146.901 108.557 146.558 108.511C146.048 108.443 145.735 108.831 145.53 109.242C145.255 109.783 144.996 110.347 144.768 110.911C144.669 111.155 144.6 111.414 144.471 111.642C144.272 111.985 143.907 112.115 143.556 112.259C142.802 112.564 141.636 113.006 141.636 113.996C141.636 114.987 142.802 115.421 143.556 115.733C143.853 115.855 144.211 115.977 144.41 116.244C144.57 116.457 144.638 116.731 144.73 116.975C144.966 117.577 145.24 118.171 145.53 118.75C145.72 119.131 146.009 119.505 146.482 119.489C147.046 119.474 147.289 118.918 147.487 118.476C147.785 117.806 148.028 117.105 148.364 116.457C148.661 115.886 149.362 115.741 149.918 115.482C150.474 115.223 151.342 115.002 151.754 114.484C152.112 114.035 151.914 113.478 151.441 113.212C150.862 112.884 150.207 112.633 149.59 112.389C149.263 112.259 148.76 112.122 148.531 111.825C148.326 111.559 148.219 111.139 148.074 110.835L147.526 109.646C147.411 109.395 147.305 108.938 147.046 108.785C146.634 108.542 146.314 108.999 146.375 109.364C146.436 109.73 146.985 109.57 146.924 109.212L146.794 109.418L146.954 109.761L147.19 110.271L147.579 111.117C147.8 111.597 147.945 112.168 148.409 112.457C148.844 112.732 149.346 112.877 149.811 113.082C150.116 113.212 150.413 113.356 150.718 113.501C150.817 113.547 151.076 113.616 151.152 113.699L151.335 114.095C151.259 114.195 151.16 114.271 151.045 114.332C150.52 114.659 149.864 114.888 149.301 115.139C148.897 115.322 148.409 115.436 148.112 115.779C147.792 116.137 147.64 116.663 147.457 117.105C147.335 117.394 147.206 117.676 147.091 117.958C146.992 118.194 146.809 118.849 146.512 118.903C146.032 118.994 145.621 117.585 145.484 117.28C145.286 116.846 145.164 116.351 144.905 115.947C144.326 115.055 142.932 115.223 142.33 114.339C141.69 113.387 143.64 112.869 144.196 112.595C145.11 112.153 145.316 111.063 145.705 110.195C145.834 109.913 145.956 109.418 146.192 109.212C146.322 109.09 146.352 109.128 146.505 109.082C146.809 108.991 146.87 109.06 146.68 108.869C146.444 108.641 146.154 108.747 146.017 109.006C145.514 109.951 145.248 111.048 144.676 111.955C144.387 112.412 143.541 112.625 143.076 112.838C142.794 112.968 142.513 113.097 142.231 113.227C142.01 113.326 141.751 113.387 141.56 113.547C140.692 114.278 142.17 114.766 142.673 114.979C143.236 115.215 143.968 115.413 144.455 115.779C144.661 115.932 144.737 116.16 144.836 116.389C144.973 116.709 145.126 117.021 145.27 117.341C145.461 117.76 145.621 118.225 145.849 118.629C146.002 118.903 146.246 119.154 146.581 119.048C146.916 118.941 147.03 118.552 147.152 118.255C147.419 117.608 147.716 116.96 148.021 116.335C148.15 116.076 148.249 115.871 148.501 115.726C148.783 115.566 149.103 115.444 149.4 115.307C149.842 115.101 150.283 114.911 150.733 114.72C151.03 114.598 151.426 114.415 151.48 114.057C151.548 113.654 151.182 113.471 150.87 113.349C150.184 113.067 149.491 112.747 148.828 112.412C148.127 112.069 147.922 111.421 147.617 110.759L146.87 109.143C146.718 108.808 146.223 109.098 146.375 109.433L146.413 109.41Z" fill="#2B63A8"/>
<path d="M91.6206 185.299C107.744 185.299 120.815 182.543 120.815 179.143C120.815 175.743 107.744 172.987 91.6206 172.987C75.497 172.987 62.4263 175.743 62.4263 179.143C62.4263 182.543 75.497 185.299 91.6206 185.299Z" fill="#2A4850"/>
<path d="M92.0168 121.234C108.565 121.234 121.981 117.223 121.981 112.275C121.981 107.327 108.565 103.315 92.0168 103.315C75.4683 103.315 62.0531 107.327 62.0531 112.275C62.0531 117.223 75.4683 121.234 92.0168 121.234Z" fill="#997C3A"/>
<path d="M121.691 112.275C121.638 114.994 117.973 116.556 115.878 117.387C111.475 119.131 106.69 119.939 102.005 120.434C96.0852 121.059 90.0894 121.112 84.1622 120.632C79.233 120.236 74.2276 119.497 69.527 117.889C67.8814 117.326 66.2358 116.648 64.7883 115.672C63.8207 115.025 62.7922 114.156 62.4494 112.998C61.6875 110.431 64.9254 108.641 66.7843 107.749C70.9136 105.784 75.6142 104.915 80.1168 104.328C85.9221 103.574 91.8265 103.422 97.6699 103.757C102.828 104.054 108.039 104.709 113.006 106.18C114.812 106.713 116.617 107.361 118.263 108.282C119.39 108.907 120.586 109.7 121.257 110.835C121.524 111.277 121.676 111.757 121.684 112.275C121.684 112.64 122.263 112.64 122.255 112.275C122.202 109.54 119.025 107.902 116.876 106.964C112.457 105.037 107.559 104.176 102.797 103.628C96.3976 102.889 89.899 102.828 83.4842 103.399C78.395 103.848 73.1915 104.633 68.3994 106.454C66.0606 107.338 62.5027 108.801 61.8399 111.558C61.2228 114.134 63.9274 115.977 65.8701 116.99C69.9689 119.124 74.7228 120.046 79.2482 120.678C85.5031 121.554 91.8646 121.729 98.1651 121.333C103.559 120.998 109.037 120.282 114.187 118.598C116.838 117.729 120.586 116.427 121.904 113.699C122.118 113.25 122.232 112.777 122.247 112.282C122.247 111.917 121.684 111.917 121.676 112.282L121.691 112.275Z" fill="#2B63A8"/>
<path d="M113.57 174.335L102.523 175.92C96.23 176.819 89.8532 176.865 83.5451 176.05L69.7327 174.267C65.4206 173.711 62.1446 170.115 61.9922 165.764L60.5142 122.743H123.512L121.173 166.023C120.945 170.252 117.76 173.733 113.57 174.335Z" fill="#997C3A"/>
<path d="M113.494 174.054C105.403 175.212 97.3423 176.651 89.1219 176.255C85.4421 176.072 81.7852 175.532 78.1359 175.059C75.3399 174.701 72.5287 174.381 69.7403 173.977C65.413 173.353 62.4265 169.749 62.2665 165.452C62.1979 163.616 62.137 161.78 62.0761 159.944L61.3371 138.345L60.9942 128.365L60.8723 124.891C60.8495 124.304 60.9485 123.558 60.8038 122.986C60.7885 122.91 60.8038 122.819 60.7961 122.743L60.5066 123.032H123.504L123.215 122.743L122.263 140.418L120.975 164.226C120.945 164.827 120.922 165.422 120.876 166.024C120.602 170.138 117.531 173.414 113.478 174.061C113.113 174.122 113.273 174.671 113.631 174.61C116.754 174.114 119.459 172.08 120.716 169.155C121.242 167.936 121.409 166.671 121.485 165.361L121.95 156.767L123.413 129.645L123.786 122.743C123.794 122.59 123.649 122.453 123.497 122.453H60.5219C60.3695 122.453 60.2324 122.583 60.2324 122.743L60.6895 136.09L61.4666 158.611L61.6875 165.102C61.8018 168.385 63.1122 171.402 65.9767 173.208C68.5213 174.823 71.9573 174.831 74.8676 175.212C77.7779 175.592 80.6501 175.958 83.5375 176.331C89.998 177.154 96.5119 177.063 102.957 176.141C106.218 175.676 109.479 175.204 112.739 174.739L113.646 174.61C114.012 174.556 113.852 174.008 113.494 174.061V174.054Z" fill="#2B63A8"/>
<path d="M118.811 113.06C112.373 110.782 102.759 109.342 92.0167 109.342C81.2745 109.342 71.6523 110.789 65.2223 113.06H56.8495V119.825H56.9409C56.9409 125.615 72.6427 130.316 92.0167 130.316C111.391 130.316 127.092 125.622 127.092 119.825V113.06H118.811Z" fill="#997C3A"/>
<path d="M118.887 112.785C109.692 109.563 99.4754 108.892 89.8074 109.075C84.6192 109.174 79.431 109.593 74.3189 110.484C72.1019 110.873 69.9002 111.345 67.7289 111.962C66.5785 112.29 65.5576 112.778 64.3691 112.778H56.842C56.6896 112.778 56.5525 112.907 56.5525 113.067V119.832C56.5525 119.985 56.682 120.122 56.842 120.122H56.9334L56.6439 119.832C56.7125 123.718 61.9921 125.752 64.971 126.819C71.8658 129.295 79.3853 130.155 86.6686 130.483C94.9195 130.856 103.307 130.468 111.421 128.86C114.507 128.251 117.585 127.458 120.503 126.262C122.438 125.462 124.449 124.48 125.919 122.956C127.009 121.828 127.382 120.632 127.382 119.101V113.059C127.382 112.907 127.253 112.77 127.093 112.77H118.811C118.446 112.77 118.446 113.341 118.811 113.341H127.093L126.803 113.052V117.981C126.803 119.291 126.94 120.541 126.201 121.684C125.173 123.268 123.352 124.297 121.691 125.097C119.169 126.316 116.442 127.116 113.722 127.763C106.172 129.554 98.3097 130.102 90.5617 130.011C83.126 129.919 75.5608 129.241 68.3765 127.268C65.6186 126.514 62.8149 125.569 60.3922 124.023C58.9295 123.093 57.2534 121.706 57.2229 119.817C57.2229 119.665 57.0934 119.528 56.9334 119.528H56.842L57.1315 119.817V113.052L56.842 113.341H63.5311C64.4224 113.341 65.1233 113.379 65.969 113.098C67.8965 112.458 69.8697 111.947 71.8581 111.528C82.2117 109.342 93.1367 109.105 103.643 110.21C108.747 110.743 113.882 111.627 118.735 113.334C119.085 113.456 119.23 112.907 118.887 112.785Z" fill="#2B63A8"/>
<path d="M92.0168 123.284C111.389 123.284 127.093 118.587 127.093 112.793C127.093 106.999 111.389 102.302 92.0168 102.302C72.6449 102.302 56.941 106.999 56.941 112.793C56.941 118.587 72.6449 123.284 92.0168 123.284Z" fill="#72531C"/>
<path d="M126.811 112.793C126.757 115.978 122.499 117.814 120.053 118.796C114.888 120.861 109.258 121.813 103.757 122.4C96.7936 123.139 89.7312 123.2 82.7526 122.629C76.9625 122.156 71.081 121.288 65.5728 119.383C63.6529 118.72 61.7331 117.92 60.0494 116.77C58.9294 116.008 57.741 114.987 57.3524 113.631C56.4839 110.622 60.2398 108.519 62.434 107.475C67.2717 105.167 72.7723 104.146 78.052 103.46C84.9011 102.569 91.8568 102.386 98.744 102.79C104.801 103.14 110.918 103.917 116.747 105.662C118.857 106.294 120.96 107.056 122.879 108.138C124.19 108.877 125.561 109.807 126.331 111.14C126.628 111.65 126.795 112.206 126.811 112.801C126.811 113.166 127.39 113.166 127.382 112.801C127.329 109.601 123.565 107.696 121.059 106.607C115.825 104.336 110.035 103.338 104.397 102.698C96.9993 101.86 89.4874 101.799 82.0746 102.455C76.1321 102.98 70.0525 103.895 64.4377 106.013C61.7026 107.041 57.5048 108.748 56.7429 111.97C56.0268 114.987 59.2418 117.143 61.5198 118.309C66.3271 120.785 71.881 121.859 77.1911 122.59C84.482 123.604 91.9101 123.809 99.2544 123.345C105.502 122.956 111.855 122.126 117.828 120.198C119.908 119.528 121.996 118.713 123.855 117.547C125.089 116.77 126.346 115.779 126.994 114.439C127.245 113.921 127.374 113.372 127.382 112.801C127.382 112.435 126.818 112.435 126.811 112.801V112.793Z" fill="#2B63A8"/>
<path d="M100.954 61.0248C100.71 60.5448 100.23 60.141 99.7808 59.8743C98.5693 59.1505 97.0683 59.1962 95.7426 59.5314C94.3254 59.8895 93.0073 60.5753 91.7654 61.3448C91.453 61.5353 91.7425 62.0305 92.0549 61.8401C94.1654 60.5372 98.0588 58.579 100.185 60.941C100.299 61.0705 100.367 61.1467 100.459 61.3219C100.627 61.6496 101.122 61.36 100.954 61.0324V61.0248Z" fill="#2B63A8"/>
<path d="M103.445 47.7914C103.186 47.281 102.675 46.862 102.188 46.5877C100.854 45.8411 99.2392 45.9782 97.8298 46.4049C96.2756 46.8772 94.8357 47.7 93.4948 48.599C93.1901 48.8047 93.4796 49.2999 93.7843 49.0942C95.6128 47.8676 97.8069 46.5877 100.085 46.6258C101.045 46.641 102.005 46.961 102.66 47.6848C102.782 47.8143 102.858 47.9057 102.949 48.0809C103.117 48.4085 103.612 48.119 103.445 47.7914Z" fill="#2B63A8"/>
<path d="M102.424 81.1149C99.7497 79.9188 96.527 80.7111 94.6986 82.9815C93.5786 84.368 92.9311 86.067 92.4968 87.7735C92.4054 88.1316 92.9539 88.284 93.0453 87.9259C93.6624 85.488 94.7976 82.8291 97.1974 81.6787C98.4697 81.0692 99.9477 81.0159 101.304 81.3511C101.517 81.4044 101.73 81.4654 101.944 81.5416C102.005 81.5644 102.066 81.5873 102.127 81.6101C102.073 81.5873 102.218 81.6482 102.127 81.6101C102.462 81.7625 102.751 81.2673 102.416 81.1149H102.424Z" fill="#2B63A8"/>
<path d="M84.6879 84.7645C84.6879 84.7645 84.6879 84.7416 84.6879 84.734C84.6575 84.8483 84.6879 84.7493 84.6879 84.7112C84.7108 84.5969 84.7337 84.4826 84.7565 84.3759C84.8479 84.0254 84.9698 83.6978 85.1375 83.3854C85.6403 82.4559 86.4937 81.8387 87.5527 81.7016C88.6118 81.5644 89.5795 81.8235 90.5242 82.1511C90.8747 82.273 91.0195 81.7244 90.6766 81.6025C89.1604 81.0692 87.3089 80.7644 85.8918 81.7092C85.0613 82.2578 84.5203 83.134 84.246 84.0864C84.1851 84.3073 84.1317 84.5359 84.1089 84.7721C84.0708 85.1378 84.6422 85.1378 84.6803 84.7721L84.6879 84.7645Z" fill="#2B63A8"/>
<path d="M84.4059 76.5363C84.8935 76.5591 85.3507 76.6506 85.8383 76.7801C86.8288 77.0392 87.7736 77.4887 88.505 78.2125C88.7641 78.4716 89.1755 78.0677 88.9088 77.8087C87.7507 76.6734 86.0135 76.0334 84.4059 75.9725C84.0402 75.9572 84.0402 76.5287 84.4059 76.5439V76.5363Z" fill="#2B63A8"/>
<path d="M83.7584 48.3627C84.505 47.7228 85.6325 47.2199 86.6382 46.9761C89.2132 46.359 91.6283 47.4333 93.472 49.2236C93.7387 49.4826 94.1424 49.0789 93.8758 48.8198C91.9331 46.9457 89.4113 45.8105 86.6915 46.3819C85.503 46.6333 84.2764 47.1666 83.347 47.9589C83.0651 48.1951 83.4765 48.5989 83.7508 48.3627H83.7584Z" fill="#2B63A8"/>
<path d="M92.3147 43.7614C90.6461 41.0338 87.3927 40.0357 84.3374 40.1576C84.0479 40.1652 83.7583 40.188 83.4764 40.2261C83.1107 40.2795 83.2707 40.8281 83.6288 40.7747C83.484 40.7976 83.7812 40.7595 83.8345 40.7519C84.0555 40.729 84.2764 40.7214 84.4898 40.7138C85.2365 40.6985 85.9907 40.7442 86.7298 40.8661C88.7946 41.2242 90.6994 42.2147 91.8118 44.0433C92.0023 44.3557 92.4975 44.0662 92.3071 43.7538L92.3147 43.7614Z" fill="#2B63A8"/>
<path d="M67.6528 50.5723C67.6528 50.5723 81.8537 56.6291 84.1393 40.6987C84.1622 40.5235 69.0851 36.2114 67.6528 50.5723Z" fill="#819B4B"/>
<path d="M67.508 50.8159C72.0944 52.7586 78.1587 52.5301 81.4652 48.416C82.9965 46.5038 83.8193 44.1116 84.2536 41.727C84.3526 41.2013 84.6497 40.6299 84.1012 40.3709C83.8498 40.249 83.5374 40.2033 83.2631 40.1347C80.5814 39.51 77.633 39.449 74.9818 40.2261C73.0924 40.7823 71.3554 41.8184 70.0755 43.3345C68.3689 45.3686 67.6223 47.9666 67.348 50.5721C67.3099 50.9378 67.8813 50.9378 67.9194 50.5721C68.3537 46.4657 70.2354 42.6183 74.2657 41.0718C76.8026 40.0966 79.6748 40.0509 82.3261 40.5309C82.7222 40.5994 83.1108 40.6832 83.4993 40.7899C83.6212 40.8204 83.7355 40.8661 83.8574 40.8965C84.0174 40.9346 83.926 40.9575 83.926 40.8965C83.9031 40.668 83.766 41.1403 83.7812 41.1099C83.7126 41.2775 83.7126 41.5136 83.6746 41.6965C83.6136 42.0317 83.5374 42.3669 83.4612 42.6945C83.3165 43.304 83.1413 43.9059 82.9356 44.5001C82.5699 45.5362 82.0899 46.5343 81.4728 47.4485C79.5986 50.1912 76.5436 51.4711 73.2905 51.4254C71.9725 51.4101 70.6621 51.2044 69.3974 50.8616C68.9936 50.7549 68.5975 50.633 68.2013 50.4883C68.1099 50.4578 67.6604 50.2826 67.7899 50.3359C67.4547 50.1912 67.1652 50.6864 67.5004 50.8311L67.508 50.8159Z" fill="#2B63A8"/>
<path d="M82.6994 40.1879L73.3972 46.2903L72.0563 47.1741C71.7516 47.3721 72.0335 47.8674 72.3458 47.6693L81.6481 41.5668L82.9889 40.6831C83.2937 40.485 83.0118 39.9898 82.6994 40.1879Z" fill="#2B63A8"/>
<path d="M63.4929 31.8991C63.4929 31.8991 67.4393 49.7798 84.3829 41.0033C84.5734 40.9042 78.3414 23.3892 63.4929 31.8991Z" fill="#819B4B"/>
<path d="M63.2186 31.9753C64.4529 37.514 68.6354 43.0298 74.5779 43.6469C77.2596 43.9288 79.9642 43.2583 82.425 42.2298C82.7831 42.0775 83.1411 41.9251 83.4916 41.7575C83.743 41.6432 84.4058 41.4375 84.5506 41.2242C84.6496 41.0794 84.6572 41.0413 84.6496 40.8661C84.6496 40.5919 84.4515 40.249 84.3525 39.9976C83.1564 36.9883 81.2213 34.1085 78.6995 32.0591C76.8711 30.5811 74.715 29.5754 72.3609 29.3316C69.1763 29.004 66.0756 30.1011 63.3405 31.6401C63.0206 31.8229 63.3101 32.3181 63.63 32.1353C67.9802 29.6745 73.0466 28.8517 77.3815 31.7772C80.1013 33.6133 82.1279 36.4397 83.484 39.3957C83.6668 39.7919 83.842 40.1957 83.9868 40.6147C84.0096 40.6909 84.1011 40.8509 84.0858 40.9271C84.0858 40.9499 84.1163 40.9956 84.1087 41.0185C84.2153 40.7671 83.2859 41.2166 83.2097 41.2547C80.7489 42.4051 78.0443 43.2355 75.3017 43.1212C71.5229 42.9612 68.3993 40.7747 66.3575 37.6892C65.1918 35.9293 64.2395 33.8875 63.7748 31.8153C63.6986 31.4572 63.1425 31.6096 63.2263 31.9677L63.2186 31.9753Z" fill="#2B63A8"/>
<path d="M83.6288 40.2262L71.3553 35.3884L69.5802 34.6875C69.2373 34.5503 69.0926 35.1065 69.4278 35.236L81.7013 40.0738L83.4764 40.7747C83.8192 40.9118 83.964 40.3557 83.6288 40.2262Z" fill="#2B63A8"/>
<path d="M121.356 58.3814C121.356 58.3814 104.519 65.5657 101.807 46.6793C101.776 46.466 119.649 41.3616 121.356 58.3814Z" fill="#819B4B"/>
<path d="M121.211 58.1297C121.341 58.0764 120.906 58.244 120.83 58.2744C120.449 58.4116 120.061 58.5335 119.672 58.6478C118.4 59.0134 117.089 59.2725 115.764 59.3715C112.16 59.6534 108.503 58.7392 105.974 56.0194C104.168 54.0766 103.132 51.5397 102.53 48.9874C102.439 48.6065 102.355 48.218 102.287 47.8294C102.256 47.6466 102.218 47.4714 102.188 47.2885C102.172 47.2047 102.035 46.74 102.012 46.8619C102.012 46.8847 101.982 46.9152 102.104 46.8466C102.386 46.679 102.843 46.6333 103.163 46.5647C106.103 45.9095 109.303 45.841 112.221 46.6409C114.354 47.2276 116.32 48.3322 117.806 49.9931C119.863 52.2939 120.746 55.3642 121.066 58.3735C121.104 58.7392 121.676 58.7392 121.638 58.3735C121.112 53.3986 118.903 48.7132 114.088 46.679C110.842 45.3077 107.109 45.2467 103.681 45.8791C103.193 45.9705 101.974 46.0391 101.609 46.4581C101.342 46.7704 101.647 47.4942 101.715 47.8447C101.883 48.7665 102.096 49.6731 102.37 50.5645C102.774 51.8825 103.307 53.1624 104.016 54.3433C106.195 57.9545 109.905 59.8972 114.08 59.9886C116.564 60.0419 119.207 59.5848 121.501 58.6097C121.836 58.4649 121.546 57.9773 121.211 58.1145V58.1297Z" fill="#2B63A8"/>
<path d="M103.193 46.6104L114.225 53.8404L115.817 54.8841C116.122 55.0898 116.411 54.5946 116.107 54.3889L105.075 47.1589L103.483 46.1152C103.178 45.9095 102.888 46.4047 103.193 46.6104Z" fill="#2B63A8"/>
<path d="M119.253 39.4644C119.253 39.4644 115.977 54.3053 101.921 47.0143C101.761 46.9305 106.942 32.3944 119.253 39.4644Z" fill="#819B4B"/>
<path d="M118.979 39.3881C118.072 43.4716 115.124 47.7075 110.827 48.576C108.854 48.9722 106.804 48.6446 104.923 48.0047C104.306 47.799 103.704 47.5552 103.117 47.2809C102.98 47.22 102.287 46.9762 102.256 46.9457C102.188 46.8695 102.233 47.1514 102.218 46.9838C102.195 46.7933 102.401 46.4505 102.469 46.2829C103.407 43.9592 104.9 41.7498 106.82 40.1271C108.252 38.9157 109.997 38.0701 111.871 37.8644C114.431 37.5901 116.922 38.4662 119.124 39.7081C119.444 39.8909 119.733 39.3957 119.413 39.2129C115.695 37.1101 111.33 36.394 107.597 38.8396C105.151 40.4394 103.323 42.9612 102.142 45.6124C101.967 46.001 101.471 46.7933 101.73 47.2199C101.951 47.5856 103.041 47.8751 103.437 48.0428C104.077 48.317 104.74 48.5608 105.41 48.7513C106.431 49.0484 107.482 49.2541 108.541 49.2998C111.97 49.4598 114.956 47.8066 116.96 45.0868C118.148 43.4716 119.101 41.506 119.535 39.5405C119.611 39.1824 119.063 39.03 118.986 39.3881H118.979Z" fill="#2B63A8"/>
<path d="M102.683 46.877L112.869 42.862L114.339 42.283C114.674 42.1535 114.53 41.5973 114.187 41.7345L104.001 45.7494L102.53 46.3285C102.195 46.458 102.34 47.0141 102.683 46.877Z" fill="#2B63A8"/>
<path d="M121.356 92.4284C121.356 92.4284 104.519 99.6127 101.807 80.7263C101.776 80.513 119.649 75.4086 121.356 92.4284Z" fill="#819B4B"/>
<path d="M121.211 92.1768C121.341 92.1235 120.906 92.2911 120.83 92.3216C120.449 92.4587 120.061 92.5806 119.672 92.6949C118.4 93.0606 117.089 93.3196 115.764 93.4186C112.16 93.7005 108.503 92.7863 105.974 90.0665C104.168 88.1237 103.132 85.5868 102.53 83.0346C102.439 82.6536 102.355 82.2651 102.287 81.8765C102.256 81.6937 102.218 81.5185 102.188 81.3356C102.172 81.2518 102.035 80.7871 102.012 80.909C102.012 80.9318 101.982 80.9623 102.104 80.8937C102.386 80.7261 102.843 80.6804 103.163 80.6119C106.103 79.9567 109.303 79.8881 112.221 80.6881C114.354 81.2747 116.32 82.3794 117.806 84.0402C119.863 86.341 120.746 89.4113 121.066 92.4206C121.104 92.7863 121.676 92.7863 121.638 92.4206C121.112 87.4457 118.903 82.7603 114.088 80.7261C110.842 79.3548 107.109 79.2939 103.681 79.9262C103.193 80.0176 101.974 80.0862 101.609 80.5052C101.342 80.8176 101.647 81.5413 101.715 81.8918C101.883 82.8136 102.096 83.7202 102.37 84.6116C102.774 85.9296 103.307 87.2095 104.016 88.3904C106.195 92.0016 109.905 93.9443 114.08 94.0357C116.564 94.0891 119.207 93.632 121.501 92.6568C121.836 92.512 121.546 92.0244 121.211 92.1616V92.1768Z" fill="#2B63A8"/>
<path d="M103.193 80.6579L114.225 87.8879L115.817 88.9316C116.122 89.1373 116.411 88.6421 116.107 88.4364L105.075 81.2064L103.483 80.1627C103.178 79.957 102.888 80.4522 103.193 80.6579Z" fill="#2B63A8"/>
<path d="M120 73.207C120 73.207 116.579 88.7031 101.898 81.0922C101.731 81.0084 107.14 65.8246 120 73.207Z" fill="#819B4B"/>
<path d="M119.726 73.1307C118.773 77.4047 115.695 81.8311 111.208 82.7301C109.143 83.1415 107.003 82.8063 105.037 82.1358C104.397 81.9149 103.765 81.6635 103.148 81.3816C103.003 81.3207 102.279 81.0692 102.241 81.0235C102.165 80.9397 102.218 81.2292 102.195 81.054C102.165 80.8635 102.386 80.4902 102.454 80.3226C103.43 77.8999 104.999 75.5839 106.995 73.8926C108.496 72.6279 110.317 71.7365 112.282 71.5232C114.964 71.2337 117.562 72.1479 119.863 73.4507C120.183 73.6336 120.472 73.1383 120.152 72.9555C116.274 70.7614 111.718 70.0071 107.825 72.567C105.273 74.2354 103.361 76.8714 102.134 79.6293C101.952 80.0331 101.441 80.8483 101.708 81.2902C101.929 81.6635 103.079 81.9682 103.49 82.1435C104.161 82.4253 104.847 82.6768 105.547 82.8901C106.606 83.2024 107.711 83.4081 108.816 83.4615C112.389 83.6291 115.505 81.9073 117.592 79.0656C118.834 77.3819 119.825 75.3325 120.282 73.2755C120.358 72.9174 119.809 72.765 119.733 73.1231L119.726 73.1307Z" fill="#2B63A8"/>
<path d="M102.69 80.9397L113.326 76.7495L114.865 76.1476C115.2 76.0181 115.055 75.462 114.712 75.5991L104.077 79.7893L102.538 80.3912C102.203 80.5207 102.347 81.0768 102.69 80.9397Z" fill="#2B63A8"/>
<path d="M100.915 16.0225C100.915 16.0225 82.9431 19.4965 91.2778 36.6687C91.3692 36.8592 109.044 31.0843 100.915 16.0225Z" fill="#819B4B"/>
<path d="M100.839 15.7479C95.2775 16.8298 89.6474 20.8828 88.8855 26.7948C88.5427 29.4842 89.1369 32.204 90.1045 34.7029C90.2416 35.0609 90.394 35.419 90.5463 35.7695C90.653 36.0209 90.8435 36.6913 91.0492 36.8361C91.2015 36.9427 91.2396 36.9427 91.4149 36.9351C91.6815 36.9351 92.0167 36.7599 92.2605 36.6685C95.3003 35.5562 98.2335 33.6896 100.351 31.2288C101.883 29.4461 102.942 27.3053 103.246 24.9588C103.65 21.7818 102.645 18.6506 101.167 15.8698C100.991 15.5422 100.504 15.8317 100.671 16.1593C103.01 20.5552 103.696 25.6216 100.694 29.8727C98.7972 32.5621 95.8946 34.5276 92.9005 35.8076C92.4967 35.9752 92.0929 36.1428 91.6739 36.2723C91.5977 36.2952 91.4225 36.3866 91.3387 36.3713C91.2777 36.3561 91.2853 36.3713 91.3082 36.379C91.4072 36.4399 91.1101 35.6247 91.0492 35.48C89.9673 33.0116 89.2131 30.307 89.3807 27.5872C89.6169 23.7703 91.9101 20.6695 95.087 18.6887C96.8697 17.5764 98.9191 16.6926 100.991 16.2889C101.349 16.2203 101.197 15.6641 100.839 15.7403V15.7479Z" fill="#2B63A8"/>
<path d="M92.0397 35.9982L97.1974 23.839L97.9364 22.102C98.0812 21.7668 97.586 21.4773 97.4412 21.8125L92.2835 33.9717L91.5445 35.7087C91.3997 36.0439 91.8949 36.3334 92.0397 35.9982Z" fill="#2B63A8"/>
<path d="M61.7027 76.978C61.7027 76.978 73.001 91.3847 84.4669 76.1324C84.5964 75.9647 71.3859 62.8761 61.7027 76.978Z" fill="#819B4B"/>
<path d="M61.5047 77.1836C65.2988 81.9985 72.0183 85.0916 77.8922 82.3032C79.1188 81.7166 80.2463 80.9319 81.2748 80.0481C82.4481 79.0349 83.8271 77.7778 84.6042 76.4293C84.9622 75.8122 84.1089 75.3094 83.6671 74.9209C81.1987 72.7724 78.1589 71.0506 74.9286 70.4107C72.6811 69.9688 70.3499 70.1059 68.2167 70.9668C65.3673 72.1172 63.1884 74.3495 61.4514 76.8331C61.2381 77.1379 61.7333 77.4197 61.9466 77.1226C64.6969 73.1838 68.7119 70.2583 73.702 70.7992C76.9247 71.1497 79.9797 72.7267 82.5091 74.7075C82.8976 75.0123 83.2785 75.3323 83.6366 75.6675C83.7433 75.7665 84.1851 76.1017 84.1927 76.2312C84.1927 76.2312 83.2633 77.1912 83.1262 77.3512C82.5929 77.9759 82.0291 78.5701 81.4272 79.1339C80.4368 80.0634 79.3397 80.8938 78.1436 81.5338C74.5705 83.446 70.5556 83.1032 67.0891 81.1452C65.1464 80.0481 63.2951 78.5397 61.9009 76.7798C61.6723 76.4903 61.2686 76.9017 61.4971 77.1836H61.5047Z" fill="#2B63A8"/>
<path d="M83.5146 75.759L70.3574 76.7189L68.4604 76.856C68.0947 76.8789 68.0947 77.4579 68.4604 77.4274L81.6176 76.4675L83.5146 76.3304C83.8803 76.3075 83.8803 75.7285 83.5146 75.759Z" fill="#2B63A8"/>
<path d="M83.0803 64.7424C87.6582 64.7424 91.3693 61.0313 91.3693 56.4534C91.3693 51.8755 87.6582 48.1644 83.0803 48.1644C78.5024 48.1644 74.7913 51.8755 74.7913 56.4534C74.7913 61.0313 78.5024 64.7424 83.0803 64.7424Z" fill="#2B63A8"/>
<path d="M90.8436 54.5032C91.6131 57.7411 90.3636 61.1923 87.5829 63.0817C84.8402 64.9406 81.1452 64.9025 78.4406 62.9827C75.736 61.0628 74.4485 57.4592 75.3932 54.229C76.3379 50.9987 79.3244 48.6141 82.7146 48.4617C86.5163 48.2865 89.8761 50.8616 90.8436 54.5032C90.935 54.8613 91.4912 54.7089 91.3922 54.3509C90.4779 50.9149 87.5676 48.3322 84.0174 47.9284C80.4672 47.5246 76.8484 49.5283 75.317 52.8119C73.7857 56.0955 74.4866 60.0114 77.0388 62.5408C79.591 65.0702 83.4993 65.7253 86.7372 64.2169C90.4475 62.4875 92.3369 58.2896 91.3998 54.3509C91.316 53.9928 90.7598 54.1452 90.8512 54.5032H90.8436Z" fill="#2B63A8"/>
<path d="M84.0249 64.217C88.6027 64.217 92.3138 60.5059 92.3138 55.928C92.3138 51.3501 88.6027 47.639 84.0249 47.639C79.447 47.639 75.7359 51.3501 75.7359 55.928C75.7359 60.5059 79.447 64.217 84.0249 64.217Z" fill="#FCBC00"/>
<path d="M91.7882 53.9776C92.5577 57.2155 91.3082 60.6667 88.5275 62.5561C85.7848 64.415 82.0898 64.3769 79.3852 62.457C76.6806 60.5372 75.3931 56.9336 76.3378 53.7033C77.2825 50.4731 80.269 48.0885 83.6592 47.9361C87.4609 47.7609 90.8206 50.3359 91.7882 53.9776C91.8796 54.3357 92.4358 54.1833 92.3367 53.8252C91.4225 50.3893 88.5122 47.8066 84.962 47.4028C81.4117 46.999 77.7929 49.0027 76.2616 52.2863C74.7303 55.5699 75.4312 59.4858 77.9834 62.0152C80.5356 64.5445 84.4439 65.1997 87.6818 63.6912C91.392 61.9618 93.2814 57.764 92.3444 53.8252C92.2605 53.4672 91.7044 53.6195 91.7958 53.9776H91.7882Z" fill="#2B63A8"/>
<path d="M83.1717 101.342C87.7495 101.342 91.4606 97.6308 91.4606 93.0529C91.4606 88.475 87.7495 84.7639 83.1717 84.7639C78.5938 84.7639 74.8827 88.475 74.8827 93.0529C74.8827 97.6308 78.5938 101.342 83.1717 101.342Z" fill="#2B63A8"/>
<path d="M91.0187 94.6453C90.3101 97.8756 87.7503 100.42 84.4515 100.961C81.1526 101.502 77.7091 99.8031 76.1092 96.8319C74.5093 93.8606 74.9892 90.1352 77.2443 87.6668C79.4994 85.1984 83.0039 84.406 86.0742 85.5945C89.693 86.9887 91.7348 90.8742 91.0187 94.6453C90.9501 95.0034 91.4986 95.1558 91.5672 94.7977C92.23 91.3237 90.7825 87.7429 87.7808 85.8231C84.7791 83.9032 80.7031 84.0937 77.8767 86.3107C75.0502 88.5277 73.8693 92.4436 75.0654 95.8643C76.2615 99.285 79.4232 101.548 82.9811 101.632C87.1027 101.731 90.6911 98.7898 91.5672 94.7977C91.6434 94.4396 91.0948 94.2873 91.0187 94.6453Z" fill="#2B63A8"/>
<path d="M82.2574 100.298C86.8352 100.298 90.5463 96.5872 90.5463 92.0093C90.5463 87.4314 86.8352 83.7203 82.2574 83.7203C77.6795 83.7203 73.9684 87.4314 73.9684 92.0093C73.9684 96.5872 77.6795 100.298 82.2574 100.298Z" fill="#FCBC00"/>
<path d="M90.1045 93.6015C89.3959 96.8318 86.8361 99.3764 83.5373 99.9173C80.1927 100.466 76.7949 98.7593 75.195 95.788C73.5951 92.8168 74.0751 89.0913 76.3301 86.6229C78.5852 84.1545 82.0898 83.3622 85.16 84.5507C88.7788 85.9449 90.8206 89.8303 90.1045 93.6015C90.0359 93.9596 90.5844 94.112 90.653 93.7539C91.3158 90.2798 89.8683 86.6991 86.8666 84.7792C83.8649 82.8594 79.789 83.0498 76.9625 85.2668C74.136 87.4838 72.9551 91.3998 74.1512 94.8205C75.3474 98.2412 78.509 100.504 82.0669 100.588C86.1885 100.687 89.7769 97.746 90.653 93.7539C90.7292 93.3958 90.1807 93.2435 90.1045 93.6015Z" fill="#2B63A8"/>
<path d="M103.064 73.3438C106.926 73.3438 110.058 70.2126 110.058 66.35C110.058 62.4874 106.926 59.3562 103.064 59.3562C99.2012 59.3562 96.0699 62.4874 96.0699 66.35C96.0699 70.2126 99.2012 73.3438 103.064 73.3438Z" fill="#2B63A8"/>
<path d="M109.57 67.9803C108.854 70.6697 106.568 72.7343 103.772 73.0238C100.976 73.3133 98.2946 71.8124 97.0528 69.3212C95.811 66.8299 96.2985 63.6606 98.2718 61.6493C100.245 59.638 103.399 59.059 105.959 60.2932C108.831 61.6722 110.301 64.9024 109.57 67.9803C109.486 68.3384 110.035 68.4908 110.119 68.1327C110.819 65.1919 109.692 62.0912 107.193 60.3618C104.694 58.6324 101.19 58.6705 98.7289 60.4989C96.2681 62.3274 95.2015 65.55 96.0928 68.4603C96.9842 71.3706 99.6355 73.4428 102.66 73.618C106.126 73.8161 109.235 71.4468 110.119 68.1327C110.21 67.7746 109.661 67.6222 109.57 67.9803Z" fill="#2B63A8"/>
<path d="M102.02 73.4505C105.883 73.4505 109.014 70.3193 109.014 66.4567C109.014 62.5941 105.883 59.4629 102.02 59.4629C98.1575 59.4629 95.0262 62.5941 95.0262 66.4567C95.0262 70.3193 98.1575 73.4505 102.02 73.4505Z" fill="#FCBC00"/>
<path d="M108.526 68.0871C107.81 70.7765 105.524 72.8411 102.728 73.1306C99.9324 73.4201 97.2507 71.9193 96.0089 69.428C94.7671 66.9367 95.2547 63.7674 97.2279 61.7561C99.2163 59.7296 102.355 59.1658 104.915 60.4C107.787 61.779 109.258 65.0092 108.526 68.0871C108.442 68.4452 108.991 68.5976 109.075 68.2395C109.776 65.2987 108.648 62.198 106.149 60.4686C103.65 58.7392 100.146 58.7773 97.685 60.6057C95.2242 62.4342 94.1576 65.6568 95.049 68.5671C95.9403 71.4774 98.5916 73.5496 101.616 73.7248C105.083 73.9229 108.191 71.5536 109.075 68.2395C109.166 67.8814 108.618 67.7291 108.526 68.0871Z" fill="#2B63A8"/>
<path d="M92.0169 112.077C78.0825 112.077 66.6166 115.231 65.1539 119.276C71.5915 121.569 81.2366 123.025 92.0169 123.025C102.797 123.025 112.45 121.569 118.88 119.276C117.417 115.223 105.951 112.077 92.0169 112.077Z" fill="#3C2415"/>
<path d="M93.2054 123.162V95.8644C93.2054 91.4533 93.5863 86.9355 91.7807 82.791C90.6912 80.2997 89.1751 78.0675 88.3371 75.4543C87.7657 73.6792 87.4229 71.8127 87.5295 69.9385C87.6286 68.27 88.1086 66.632 88.9694 65.1998C89.9751 63.5237 91.4379 62.259 92.794 60.88C94.1501 59.5011 95.3081 57.9088 95.6585 55.9356C95.9328 54.3738 95.7347 52.873 95.1786 51.395C94.4853 49.5665 93.6396 47.8219 93.0758 45.9401C92.1921 43.0146 91.7197 39.9748 91.5598 36.9273C91.5369 36.5617 90.9655 36.5617 90.9884 36.9273C91.2322 41.5137 92.2378 45.9172 94.0434 50.1379C94.5996 51.433 95.1633 52.7358 95.2167 54.1681C95.2928 56.1642 94.5691 58.0002 93.2892 59.5087C92.1083 60.9029 90.6684 62.0381 89.518 63.4551C88.4362 64.7807 87.6362 66.3044 87.2477 67.9653C86.4401 71.4241 87.3696 75.0048 88.7866 78.1741C89.9522 80.7721 91.5674 83.0805 92.2302 85.8993C92.5273 87.1792 92.6492 88.4744 92.6492 89.7772C92.6492 91.2323 92.6492 92.6875 92.6492 94.1426V123.169C92.6492 123.535 93.2206 123.535 93.2206 123.169L93.2054 123.162Z" fill="#2B63A8"/>
<path d="M81.1376 91.8346L83.1339 96.3833C83.0958 96.4214 83.0653 96.3985 83.0348 96.3833C82.6691 96.2842 82.311 96.1852 81.9453 96.0937C81.8691 96.0709 81.8234 96.0328 81.7929 95.9642C81.1757 94.5394 80.5509 93.1223 79.9262 91.7051C79.8957 91.6365 79.8881 91.5679 79.9109 91.4917C79.9566 91.347 80.0024 91.2022 80.0252 91.0498C80.0481 90.9127 80.1014 90.8746 80.2386 90.9203C80.5357 91.0117 80.8405 91.0955 81.1452 91.1489C81.5262 91.2175 81.9148 91.2174 82.2881 91.0879C82.6615 90.9584 82.9434 90.7146 83.111 90.3489C83.1643 90.2422 83.1491 90.1965 83.0196 90.1584C82.151 89.9298 81.2824 89.6936 80.4214 89.465L80.17 89.3965C80.4138 89.1831 80.6348 88.985 80.8557 88.7946C80.909 88.7488 80.9624 88.7946 81.0081 88.7946C81.7091 88.9774 82.41 89.1679 83.111 89.3584C83.1567 89.3736 83.21 89.4117 83.2481 89.3736C83.2786 89.3355 83.2481 89.2822 83.2329 89.2365C83.0958 88.7717 82.7453 88.5203 82.3338 88.345C81.8386 88.1317 81.3129 88.0174 80.7948 87.8802C80.7414 87.865 80.6881 87.8498 80.5967 87.8269C80.8405 87.6136 81.0614 87.4155 81.2824 87.225C81.3205 87.1945 81.3586 87.2098 81.3891 87.225C83.0272 87.6593 84.6577 88.1012 86.2882 88.5355C86.3034 88.5964 86.2577 88.6041 86.2349 88.6269C86.0672 88.7793 85.8844 88.9241 85.7244 89.0841C85.6482 89.1603 85.5796 89.1679 85.4806 89.1374C85.0996 89.0307 84.711 88.9317 84.2996 88.8174C84.3377 88.9393 84.3758 89.046 84.4063 89.1603C84.4444 89.305 84.4672 89.4574 84.452 89.6098C84.452 89.7089 84.4824 89.7393 84.5739 89.7622C85.0082 89.8689 85.4425 89.9908 85.9072 90.1203C85.7549 90.2574 85.6101 90.3565 85.4958 90.4936C85.2977 90.7222 85.0844 90.7755 84.8101 90.6536C84.6653 90.5927 84.5129 90.5698 84.3605 90.5241C84.292 90.5089 84.2539 90.5089 84.2234 90.5774C83.8501 91.347 83.1948 91.7203 82.3719 91.8422C82.0062 91.8956 81.6405 91.8879 81.2824 91.8194C81.2519 91.8194 81.2138 91.8117 81.1833 91.8041C81.1757 91.8041 81.1681 91.8041 81.1452 91.8194L81.1376 91.8346Z" fill="white"/>
<path d="M83.3624 56.797L87.4768 59.5856C87.4692 59.6389 87.4235 59.6313 87.393 59.6389C87.0349 59.7532 86.6768 59.8599 86.3187 59.9742C86.2425 59.997 86.1815 59.9894 86.113 59.9437C84.8329 59.0751 83.5453 58.1989 82.2653 57.3303C82.1967 57.2846 82.1586 57.2389 82.1434 57.1627C82.1053 57.0179 82.0672 56.8732 82.0062 56.7284C81.9529 56.5989 81.9757 56.5455 82.1205 56.5074C82.4176 56.4236 82.7224 56.3398 83.0119 56.2179C83.37 56.0655 83.6977 55.8674 83.9491 55.5627C84.2005 55.2503 84.3072 54.8998 84.2539 54.496C84.2386 54.3741 84.2082 54.3436 84.0786 54.3817C83.2253 54.656 82.3643 54.915 81.511 55.1817L81.2595 55.2579C81.351 54.9455 81.4348 54.6636 81.5186 54.3817C81.5414 54.3207 81.6024 54.3207 81.6481 54.3055C82.3415 54.0922 83.0348 53.8788 83.7281 53.6579C83.7739 53.6426 83.8424 53.6579 83.8501 53.5969C83.8501 53.5512 83.7967 53.5207 83.7586 53.4902C83.3929 53.1702 82.9662 53.1474 82.5167 53.2159C81.9833 53.2998 81.4805 53.4826 80.9624 53.635C80.909 53.6502 80.8557 53.6655 80.7643 53.696C80.8557 53.3836 80.9395 53.1017 81.0233 52.8197C81.0386 52.774 81.0767 52.7664 81.1148 52.7588C82.73 52.2559 84.3453 51.7607 85.9606 51.2578C86.0063 51.2959 85.9758 51.334 85.9606 51.3645C85.8996 51.5854 85.8234 51.8064 85.7701 52.0274C85.7472 52.134 85.6939 52.1797 85.5872 52.2026C85.2063 52.3169 84.8253 52.4388 84.4215 52.5607C84.5205 52.6445 84.612 52.7131 84.6882 52.7893C84.8025 52.8959 84.8939 53.0102 84.9701 53.1398C85.0158 53.2236 85.0691 53.2312 85.1606 53.2083C85.5872 53.0712 86.0139 52.9417 86.4787 52.7969C86.4253 52.995 86.3491 53.155 86.3263 53.3302C86.2806 53.6274 86.1282 53.7874 85.831 53.8331C85.6787 53.856 85.5339 53.9245 85.3815 53.9626C85.3129 53.9779 85.2901 54.0083 85.2977 54.0845C85.3891 54.9379 85.031 55.6008 84.4063 56.1417C84.1243 56.3855 83.812 56.5684 83.4691 56.7055C83.4386 56.7208 83.4081 56.736 83.3777 56.7512C83.3777 56.7512 83.37 56.7665 83.3548 56.7817L83.3624 56.797Z" fill="white"/>
<path d="M101.152 66.7466L103.148 71.2953C103.11 71.3333 103.079 71.3105 103.049 71.2953C102.683 71.1962 102.325 71.0971 101.959 71.0057C101.883 70.9829 101.837 70.9448 101.807 70.8762C101.19 69.4514 100.565 68.0342 99.9401 66.6171C99.9096 66.5485 99.902 66.4799 99.9249 66.4037C99.9706 66.259 100.016 66.1142 100.039 65.9618C100.062 65.8247 100.115 65.7866 100.252 65.8323C100.55 65.9237 100.854 66.0075 101.159 66.0609C101.54 66.1294 101.929 66.1294 102.302 65.9999C102.675 65.8704 102.957 65.6266 103.125 65.2609C103.178 65.1542 103.163 65.1085 103.033 65.0704C102.165 64.8418 101.296 64.6056 100.435 64.377L100.184 64.3085C100.428 64.0951 100.649 63.897 100.87 63.7065C100.923 63.6608 100.976 63.7065 101.022 63.7065C101.723 63.8894 102.424 64.0799 103.125 64.2704C103.171 64.2856 103.224 64.3237 103.262 64.2856C103.293 64.2475 103.262 64.1942 103.247 64.1484C103.11 63.6837 102.759 63.4322 102.348 63.257C101.853 63.0437 101.327 62.9294 100.809 62.7922C100.755 62.777 100.702 62.7618 100.611 62.7389C100.854 62.5256 101.075 62.3275 101.296 62.137C101.334 62.1065 101.373 62.1217 101.403 62.137C103.041 62.5713 104.672 63.0132 106.302 63.4475C106.317 63.5084 106.272 63.5161 106.249 63.5389C106.081 63.6913 105.898 63.8361 105.738 63.9961C105.662 64.0723 105.594 64.0799 105.494 64.0494C105.114 63.9427 104.725 63.8437 104.314 63.7294C104.352 63.8513 104.39 63.958 104.42 64.0723C104.458 64.217 104.481 64.3694 104.466 64.5218C104.466 64.6208 104.496 64.6513 104.588 64.6742C105.022 64.7808 105.456 64.9027 105.921 65.0323C105.769 65.1694 105.624 65.2685 105.51 65.4056C105.312 65.6342 105.098 65.6875 104.824 65.5656C104.679 65.5047 104.527 65.4818 104.374 65.4361C104.306 65.4209 104.268 65.4209 104.237 65.4894C103.864 66.259 103.209 66.6323 102.386 66.7542C102.02 66.8075 101.654 66.7999 101.296 66.7314C101.266 66.7314 101.228 66.7237 101.197 66.7161C101.19 66.7161 101.182 66.7161 101.159 66.7314L101.152 66.7466Z" fill="white"/>
<path d="M150.207 185.794C162.737 185.794 172.895 183.945 172.895 181.664C172.895 179.384 162.737 177.535 150.207 177.535C137.677 177.535 127.519 179.384 127.519 181.664C127.519 183.945 137.677 185.794 150.207 185.794Z" fill="#273738"/>
<path d="M155.266 182.555C163.227 182.555 169.68 176.102 169.68 168.141C169.68 160.18 163.227 153.727 155.266 153.727C147.305 153.727 140.852 160.18 140.852 168.141C140.852 176.102 147.305 182.555 155.266 182.555Z" fill="#BF8B0A"/>
<path d="M168.812 164.103C170.442 169.756 168.454 175.981 163.692 179.501C158.93 183.02 152.394 183.173 147.48 179.935C142.566 176.697 140.097 170.396 141.583 164.637C143.069 158.877 148.112 154.588 154.024 154.062C160.675 153.476 166.861 157.757 168.812 164.103C168.918 164.454 169.475 164.302 169.36 163.951C167.562 158.115 162.336 153.872 156.218 153.468C150.101 153.064 144.082 156.767 141.697 162.504C139.351 168.141 140.821 174.861 145.339 178.99C149.857 183.119 156.668 184.011 162.115 181.161C168.301 177.924 171.28 170.617 169.36 163.959C169.261 163.608 168.705 163.753 168.812 164.111V164.103Z" fill="#2B63A8"/>
<path d="M153.003 181.703C160.964 181.703 167.418 175.249 167.418 167.288C167.418 159.328 160.964 152.874 153.003 152.874C145.042 152.874 138.589 159.328 138.589 167.288C138.589 175.249 145.042 181.703 153.003 181.703Z" fill="#FCBC00"/>
<path d="M166.549 163.25C168.179 168.903 166.191 175.128 161.429 178.647C156.668 182.167 150.131 182.32 145.217 179.082C140.25 175.806 137.835 169.543 139.32 163.784C140.806 158.024 145.85 153.735 151.762 153.209C158.413 152.623 164.599 156.904 166.549 163.25C166.656 163.601 167.212 163.448 167.098 163.098C165.3 157.262 160.073 153.019 153.956 152.615C147.747 152.204 141.819 155.914 139.435 161.651C137.05 167.387 138.559 174.008 143.076 178.137C147.594 182.266 154.405 183.158 159.852 180.308C166.039 177.07 169.018 169.764 167.098 163.106C166.999 162.755 166.442 162.9 166.549 163.258V163.25Z" fill="#2B63A8"/>
<path d="M151.152 167.943L157.94 173.276C157.917 173.368 157.849 173.352 157.795 173.368C157.163 173.52 156.523 173.665 155.891 173.817C155.754 173.848 155.654 173.832 155.54 173.741C153.422 172.073 151.304 170.404 149.179 168.743C149.072 168.659 149.011 168.568 148.981 168.431C148.927 168.172 148.882 167.913 148.798 167.661C148.722 167.433 148.775 167.334 149.019 167.288C149.552 167.181 150.085 167.067 150.596 166.892C151.236 166.679 151.83 166.374 152.295 165.863C152.767 165.353 152.988 164.751 152.95 164.05C152.935 163.837 152.881 163.776 152.66 163.829C151.144 164.195 149.621 164.545 148.105 164.903C147.975 164.934 147.845 164.964 147.663 165.01C147.861 164.477 148.036 163.997 148.219 163.517C148.257 163.41 148.371 163.418 148.455 163.403C149.682 163.113 150.916 162.824 152.142 162.534C152.219 162.519 152.34 162.534 152.356 162.443C152.371 162.359 152.272 162.306 152.219 162.245C151.632 161.65 150.885 161.551 150.101 161.612C149.163 161.688 148.264 161.955 147.358 162.161C147.259 162.184 147.167 162.207 147.007 162.245C147.206 161.719 147.381 161.239 147.564 160.759C147.594 160.683 147.663 160.675 147.724 160.66C150.588 159.99 153.453 159.319 156.317 158.649C156.386 158.725 156.325 158.786 156.31 158.839C156.173 159.212 156.02 159.586 155.898 159.959C155.837 160.134 155.738 160.21 155.563 160.249C154.885 160.393 154.207 160.561 153.498 160.729C153.658 160.889 153.803 161.018 153.94 161.163C154.123 161.353 154.276 161.567 154.382 161.81C154.451 161.963 154.535 161.986 154.695 161.948C155.449 161.757 156.211 161.589 157.033 161.399C156.912 161.727 156.767 162.008 156.706 162.306C156.592 162.816 156.31 163.075 155.784 163.121C155.517 163.144 155.258 163.243 154.992 163.296C154.877 163.319 154.824 163.357 154.824 163.494C154.885 164.987 154.184 166.084 153.034 166.953C152.523 167.341 151.952 167.623 151.342 167.821C151.289 167.837 151.228 167.859 151.175 167.882C151.16 167.882 151.152 167.905 151.129 167.936L151.152 167.943Z" fill="white"/>
<path d="M140.928 186.685C150.727 186.685 158.671 183.107 158.671 178.693C158.671 174.28 150.727 170.702 140.928 170.702C131.128 170.702 123.184 174.28 123.184 178.693C123.184 183.107 131.128 186.685 140.928 186.685Z" fill="#BF8B0A"/>
<path d="M158.389 178.693C158.344 180.788 156.584 182.297 154.915 183.28C152.447 184.742 149.582 185.504 146.771 185.954C140.577 186.944 133.317 186.624 127.649 183.676C125.935 182.784 123.961 181.413 123.535 179.387C123.108 177.36 124.647 175.646 126.194 174.579C128.456 173.017 131.191 172.179 133.865 171.654C137.233 170.991 140.714 170.838 144.128 171.12C147.541 171.402 151.038 172.096 154.093 173.657C156.035 174.648 158.329 176.278 158.382 178.693C158.389 179.059 158.961 179.059 158.953 178.693C158.908 176.621 157.391 175.052 155.761 173.962C153.239 172.286 150.177 171.425 147.228 170.93C143.495 170.305 139.656 170.244 135.907 170.739C132.791 171.151 129.599 171.928 126.849 173.497C125.119 174.488 123.268 175.989 122.948 178.076C122.643 180.042 123.877 181.733 125.348 182.883C127.611 184.659 130.498 185.603 133.279 186.197C136.989 186.99 140.852 187.157 144.63 186.799C148.188 186.457 151.876 185.679 155.007 183.889C156.934 182.792 158.908 181.078 158.961 178.693C158.969 178.328 158.397 178.328 158.389 178.693Z" fill="#2B63A8"/>
<path d="M140.928 183.981C150.727 183.981 158.671 180.403 158.671 175.989C158.671 171.575 150.727 167.997 140.928 167.997C131.128 167.997 123.184 171.575 123.184 175.989C123.184 180.403 131.128 183.981 140.928 183.981Z" fill="#FCBC00"/>
<path d="M158.389 175.989C158.344 178.084 156.584 179.592 154.915 180.575C152.447 182.038 149.582 182.8 146.771 183.249C140.577 184.24 133.317 183.92 127.649 180.971C125.935 180.08 123.961 178.709 123.535 176.682C123.108 174.656 124.647 172.941 126.194 171.875C128.456 170.313 131.191 169.475 133.865 168.949C137.233 168.286 140.714 168.134 144.128 168.416C147.541 168.698 151.038 169.391 154.093 170.953C156.035 171.943 158.329 173.574 158.382 175.989C158.389 176.354 158.961 176.354 158.953 175.989C158.908 173.917 157.391 172.347 155.761 171.258C153.239 169.582 150.177 168.721 147.228 168.225C143.495 167.601 139.656 167.54 135.907 168.035C132.791 168.446 129.599 169.223 126.849 170.793C125.119 171.783 123.268 173.284 122.948 175.372C122.643 177.337 123.877 179.029 125.348 180.179C127.611 181.954 130.498 182.899 133.279 183.493C136.989 184.285 140.852 184.453 144.63 184.095C148.188 183.752 151.876 182.975 155.007 181.185C156.934 180.088 158.908 178.373 158.961 175.989C158.969 175.623 158.397 175.623 158.389 175.989Z" fill="#2B63A8"/>
<path d="M140.433 177.817L147.221 179.729C147.221 179.805 147.152 179.821 147.114 179.851C146.611 180.194 146.101 180.529 145.598 180.872C145.491 180.948 145.4 180.963 145.293 180.933C143.175 180.331 141.057 179.737 138.932 179.143C138.825 179.112 138.757 179.059 138.703 178.96C138.604 178.769 138.513 178.579 138.399 178.411C138.292 178.251 138.315 178.16 138.513 178.038C138.939 177.771 139.366 177.497 139.762 177.177C140.257 176.781 140.699 176.339 140.989 175.768C141.278 175.196 141.355 174.64 141.179 174.091C141.126 173.932 141.065 173.901 140.89 174.015C139.686 174.83 138.475 175.638 137.263 176.446L136.913 176.682C136.974 176.187 137.027 175.745 137.081 175.303C137.096 175.204 137.187 175.173 137.256 175.128C138.231 174.472 139.214 173.817 140.189 173.162C140.25 173.124 140.356 173.093 140.356 173.017C140.356 172.949 140.257 172.933 140.197 172.911C139.579 172.636 138.932 172.819 138.284 173.139C137.515 173.52 136.806 174.046 136.082 174.518C136.006 174.571 135.93 174.625 135.808 174.701C135.869 174.213 135.923 173.764 135.976 173.322C135.983 173.253 136.037 173.223 136.09 173.185C138.368 171.661 140.646 170.137 142.924 168.614C143 168.652 142.962 168.72 142.954 168.766C142.916 169.109 142.863 169.459 142.833 169.802C142.817 169.962 142.749 170.054 142.612 170.145C142.071 170.496 141.537 170.861 140.966 171.242C141.134 171.311 141.278 171.372 141.423 171.44C141.614 171.532 141.789 171.646 141.926 171.806C142.017 171.905 142.094 171.89 142.223 171.806C142.825 171.395 143.427 170.998 144.082 170.556C144.044 170.861 143.983 171.136 143.991 171.395C143.998 171.844 143.808 172.149 143.373 172.362C143.153 172.469 142.954 172.644 142.741 172.773C142.65 172.834 142.612 172.88 142.642 172.987C142.993 174.16 142.619 175.28 141.827 176.362C141.469 176.849 141.05 177.268 140.577 177.634C140.532 177.665 140.494 177.703 140.448 177.741C140.44 177.748 140.433 177.771 140.425 177.802L140.433 177.817Z" fill="white"/>
<path d="M143.114 179.356C152.914 179.356 160.858 175.778 160.858 171.364C160.858 166.951 152.914 163.372 143.114 163.372C133.315 163.372 125.371 166.951 125.371 171.364C125.371 175.778 133.315 179.356 143.114 179.356Z" fill="#BF8B0A"/>
<path d="M160.576 171.364C160.53 173.459 158.77 174.968 157.102 175.95C154.634 177.413 151.769 178.175 148.958 178.625C142.764 179.615 135.503 179.295 129.835 176.347C128.121 175.455 126.148 174.084 125.721 172.057C125.294 170.031 126.833 168.317 128.38 167.25C130.643 165.688 133.378 164.85 136.052 164.325C139.419 163.662 142.901 163.509 146.314 163.791C149.727 164.073 153.224 164.766 156.279 166.328C158.222 167.319 160.515 168.949 160.568 171.364C160.576 171.73 161.147 171.73 161.14 171.364C161.094 169.292 159.578 167.722 157.948 166.633C155.426 164.957 152.363 164.096 149.415 163.601C145.682 162.976 141.842 162.915 138.094 163.41C134.978 163.822 131.785 164.599 129.035 166.168C127.306 167.159 125.454 168.66 125.135 170.747C124.83 172.713 126.064 174.404 127.534 175.554C129.797 177.329 132.684 178.274 135.465 178.868C139.175 179.661 143.038 179.828 146.817 179.47C150.375 179.127 154.062 178.35 157.193 176.56C159.121 175.463 161.094 173.749 161.147 171.364C161.155 170.998 160.584 170.998 160.576 171.364Z" fill="#2B63A8"/>
<path d="M143.114 176.652C152.914 176.652 160.858 173.074 160.858 168.66C160.858 164.246 152.914 160.668 143.114 160.668C133.315 160.668 125.371 164.246 125.371 168.66C125.371 173.074 133.315 176.652 143.114 176.652Z" fill="#FCBC00"/>
<path d="M160.576 168.66C160.53 170.755 158.77 172.263 157.102 173.246C154.634 174.709 151.769 175.471 148.958 175.92C142.764 176.911 135.503 176.591 129.835 173.642C128.121 172.751 126.148 171.38 125.721 169.353C125.294 167.327 126.833 165.612 128.38 164.546C130.643 162.984 133.378 162.146 136.052 161.62C139.419 160.957 142.901 160.805 146.314 161.087C149.727 161.369 153.224 162.062 156.279 163.624C158.222 164.614 160.515 166.245 160.568 168.66C160.576 169.025 161.147 169.025 161.14 168.66C161.094 166.588 159.578 165.018 157.948 163.929C155.426 162.253 152.363 161.392 149.415 160.896C145.682 160.272 141.842 160.211 138.094 160.706C134.978 161.117 131.785 161.894 129.035 163.464C127.306 164.454 125.454 165.955 125.135 168.043C124.83 170.008 126.064 171.7 127.534 172.85C129.797 174.625 132.684 175.57 135.465 176.164C139.175 176.956 143.038 177.124 146.817 176.766C150.375 176.423 154.062 175.646 157.193 173.856C159.121 172.759 161.094 171.044 161.147 168.66C161.155 168.294 160.584 168.294 160.576 168.66Z" fill="#2B63A8"/>
<path d="M142.619 170.488L149.407 172.4C149.407 172.476 149.339 172.492 149.301 172.522C148.798 172.865 148.287 173.2 147.784 173.543C147.678 173.619 147.586 173.634 147.48 173.604C145.362 173.002 143.244 172.408 141.118 171.813C141.012 171.783 140.943 171.73 140.89 171.631C140.791 171.44 140.699 171.25 140.585 171.082C140.478 170.922 140.501 170.831 140.699 170.709C141.126 170.442 141.552 170.168 141.949 169.848C142.444 169.452 142.886 169.01 143.175 168.438C143.465 167.867 143.541 167.311 143.366 166.762C143.312 166.602 143.251 166.572 143.076 166.686C141.872 167.501 140.661 168.309 139.45 169.117L139.099 169.353C139.16 168.857 139.214 168.416 139.267 167.974C139.282 167.875 139.374 167.844 139.442 167.799C140.417 167.143 141.4 166.488 142.375 165.833C142.436 165.795 142.543 165.764 142.543 165.688C142.543 165.62 142.444 165.604 142.383 165.582C141.766 165.307 141.118 165.49 140.471 165.81C139.701 166.191 138.993 166.717 138.269 167.189C138.193 167.242 138.117 167.296 137.995 167.372C138.056 166.884 138.109 166.435 138.162 165.993C138.17 165.924 138.223 165.894 138.277 165.856C140.554 164.332 142.832 162.808 145.11 161.285C145.187 161.323 145.148 161.391 145.141 161.437C145.103 161.78 145.049 162.13 145.019 162.473C145.004 162.633 144.935 162.725 144.798 162.816C144.257 163.166 143.724 163.532 143.152 163.913C143.32 163.982 143.465 164.043 143.609 164.111C143.8 164.203 143.975 164.317 144.112 164.477C144.204 164.576 144.28 164.561 144.409 164.477C145.011 164.065 145.613 163.669 146.268 163.227C146.23 163.532 146.169 163.806 146.177 164.065C146.185 164.515 145.994 164.82 145.56 165.033C145.339 165.14 145.141 165.315 144.927 165.444C144.836 165.505 144.798 165.551 144.828 165.658C145.179 166.831 144.806 167.951 144.013 169.033C143.655 169.52 143.236 169.939 142.764 170.305C142.718 170.335 142.68 170.374 142.634 170.412C142.627 170.419 142.619 170.442 142.611 170.473L142.619 170.488Z" fill="white"/>
<path d="M138.741 173.399C148.541 173.399 156.485 169.82 156.485 165.407C156.485 160.993 148.541 157.415 138.741 157.415C128.942 157.415 120.998 160.993 120.998 165.407C120.998 169.82 128.942 173.399 138.741 173.399Z" fill="#BF8B0A"/>
<path d="M156.203 165.406C156.157 167.502 154.397 169.01 152.729 169.993C150.261 171.456 147.396 172.217 144.585 172.667C138.391 173.657 131.13 173.337 125.462 170.389C123.748 169.498 121.775 168.126 121.348 166.1C120.922 164.073 122.46 162.359 124.007 161.292C126.27 159.731 129.005 158.893 131.679 158.367C135.046 157.704 138.528 157.552 141.941 157.834C145.354 158.116 148.851 158.809 151.906 160.371C153.849 161.361 156.142 162.991 156.195 165.406C156.203 165.772 156.774 165.772 156.767 165.406C156.721 163.334 155.205 161.765 153.575 160.675C151.053 158.999 147.99 158.138 145.042 157.643C141.309 157.018 137.469 156.958 133.721 157.453C130.605 157.864 127.413 158.641 124.662 160.211C122.933 161.201 121.081 162.702 120.762 164.789C120.457 166.755 121.691 168.446 123.161 169.597C125.424 171.372 128.312 172.316 131.092 172.911C134.802 173.703 138.665 173.871 142.444 173.513C146.002 173.17 149.689 172.393 152.82 170.602C154.748 169.505 156.721 167.791 156.774 165.406C156.782 165.041 156.211 165.041 156.203 165.406Z" fill="#2B63A8"/>
<path d="M138.741 170.694C148.541 170.694 156.485 167.116 156.485 162.702C156.485 158.288 148.541 154.71 138.741 154.71C128.942 154.71 120.998 158.288 120.998 162.702C120.998 167.116 128.942 170.694 138.741 170.694Z" fill="#FCBC00"/>
<path d="M156.203 162.702C156.157 164.797 154.397 166.305 152.729 167.288C150.261 168.751 147.396 169.513 144.585 169.962C138.391 170.953 131.13 170.633 125.462 167.684C123.748 166.793 121.775 165.422 121.348 163.395C120.922 161.369 122.46 159.654 124.007 158.588C126.27 157.026 129.005 156.188 131.679 155.662C135.046 154.999 138.528 154.847 141.941 155.129C145.354 155.411 148.851 156.104 151.906 157.666C153.849 158.656 156.142 160.287 156.195 162.702C156.203 163.067 156.774 163.067 156.767 162.702C156.721 160.63 155.205 159.06 153.575 157.971C151.053 156.295 147.99 155.434 145.042 154.938C141.309 154.314 137.469 154.253 133.721 154.748C130.605 155.159 127.413 155.937 124.662 157.506C122.933 158.496 121.081 159.997 120.762 162.085C120.457 164.05 121.691 165.742 123.161 166.892C125.424 168.667 128.312 169.612 131.092 170.206C134.802 170.998 138.665 171.166 142.444 170.808C146.002 170.465 149.689 169.688 152.82 167.898C154.748 166.801 156.721 165.086 156.774 162.702C156.782 162.336 156.211 162.336 156.203 162.702Z" fill="#2B63A8"/>
<path d="M138.246 164.53L145.034 166.442C145.034 166.519 144.966 166.534 144.927 166.564C144.425 166.907 143.914 167.242 143.411 167.585C143.305 167.661 143.213 167.677 143.107 167.646C140.989 167.044 138.871 166.45 136.745 165.856C136.639 165.825 136.57 165.772 136.517 165.673C136.418 165.483 136.326 165.292 136.212 165.124C136.105 164.964 136.128 164.873 136.326 164.751C136.753 164.485 137.179 164.21 137.576 163.89C138.071 163.494 138.513 163.052 138.802 162.481C139.092 161.909 139.168 161.353 138.993 160.805C138.939 160.645 138.878 160.614 138.703 160.729C137.499 161.544 136.288 162.351 135.077 163.159L134.726 163.395C134.787 162.9 134.841 162.458 134.894 162.016C134.909 161.917 135.001 161.887 135.069 161.841C136.044 161.186 137.027 160.53 138.002 159.875C138.063 159.837 138.17 159.807 138.17 159.731C138.17 159.662 138.071 159.647 138.01 159.624C137.393 159.35 136.745 159.532 136.098 159.852C135.328 160.233 134.62 160.759 133.896 161.231C133.82 161.285 133.743 161.338 133.622 161.414C133.683 160.927 133.736 160.477 133.789 160.035C133.797 159.967 133.85 159.936 133.903 159.898C136.181 158.374 138.459 156.851 140.737 155.327C140.813 155.365 140.775 155.434 140.768 155.479C140.73 155.822 140.676 156.173 140.646 156.516C140.631 156.676 140.562 156.767 140.425 156.858C139.884 157.209 139.351 157.574 138.779 157.955C138.947 158.024 139.092 158.085 139.236 158.153C139.427 158.245 139.602 158.359 139.739 158.519C139.831 158.618 139.907 158.603 140.036 158.519C140.638 158.108 141.24 157.712 141.895 157.27C141.857 157.574 141.796 157.849 141.804 158.108C141.812 158.557 141.621 158.862 141.187 159.075C140.966 159.182 140.768 159.357 140.554 159.487C140.463 159.548 140.425 159.593 140.455 159.7C140.806 160.873 140.433 161.993 139.64 163.075C139.282 163.563 138.863 163.982 138.391 164.347C138.345 164.378 138.307 164.416 138.261 164.454C138.254 164.462 138.246 164.485 138.238 164.515L138.246 164.53Z" fill="white"/>
<path d="M138.627 167.243C148.364 167.243 156.257 163.665 156.257 159.251C156.257 154.837 148.364 151.259 138.627 151.259C128.891 151.259 120.998 154.837 120.998 159.251C120.998 163.665 128.891 167.243 138.627 167.243Z" fill="#BF8B0A"/>
<path d="M155.967 159.251C155.921 161.338 154.177 162.847 152.516 163.837C150.07 165.292 147.221 166.062 144.425 166.511C138.269 167.502 131.054 167.174 125.432 164.233C123.725 163.342 121.767 161.963 121.348 159.944C120.929 157.925 122.445 156.211 123.992 155.137C126.232 153.575 128.959 152.737 131.61 152.211C134.955 151.548 138.414 151.396 141.804 151.678C145.194 151.96 148.668 152.653 151.701 154.215C153.643 155.213 155.906 156.843 155.959 159.251C155.967 159.616 156.538 159.616 156.531 159.251C156.485 157.186 154.984 155.609 153.354 154.52C150.855 152.851 147.815 151.983 144.874 151.487C141.172 150.863 137.355 150.802 133.629 151.297C130.536 151.708 127.359 152.485 124.632 154.055C122.91 155.045 121.074 156.546 120.754 158.634C120.449 160.592 121.676 162.283 123.139 163.441C125.378 165.216 128.258 166.161 131.016 166.755C134.704 167.547 138.543 167.715 142.292 167.357C145.827 167.014 149.491 166.237 152.6 164.447C154.519 163.342 156.477 161.635 156.531 159.251C156.538 158.885 155.967 158.885 155.959 159.251H155.967Z" fill="#2B63A8"/>
<path d="M138.627 164.53C148.364 164.53 156.257 160.952 156.257 156.539C156.257 152.125 148.364 148.547 138.627 148.547C128.891 148.547 120.998 152.125 120.998 156.539C120.998 160.952 128.891 164.53 138.627 164.53Z" fill="#FCBC00"/>
<path d="M155.967 156.538C155.921 158.626 154.177 160.134 152.516 161.125C150.07 162.58 147.221 163.349 144.425 163.799C138.269 164.789 131.054 164.462 125.432 161.521C123.725 160.63 121.767 159.251 121.348 157.232C120.929 155.213 122.445 153.499 123.992 152.424C126.232 150.863 128.959 150.025 131.61 149.499C134.955 148.836 138.414 148.684 141.804 148.966C145.194 149.247 148.668 149.941 151.701 151.503C153.643 152.501 155.906 154.131 155.959 156.538C155.967 156.904 156.538 156.904 156.531 156.538C156.485 154.474 154.984 152.897 153.354 151.807C150.855 150.139 147.815 149.27 144.874 148.775C141.172 148.15 137.355 148.089 133.629 148.585C130.536 148.996 127.359 149.773 124.632 151.343C122.91 152.333 121.074 153.834 120.754 155.921C120.449 157.879 121.676 159.571 123.139 160.729C125.378 162.504 128.258 163.448 131.016 164.043C134.704 164.835 138.543 165.003 142.292 164.645C145.827 164.302 149.491 163.525 152.6 161.734C154.519 160.63 156.477 158.923 156.531 156.538C156.538 156.173 155.967 156.173 155.959 156.538H155.967Z" fill="#2B63A8"/>
<path d="M138.132 158.374L144.874 160.287C144.874 160.363 144.813 160.378 144.768 160.409C144.265 160.751 143.762 161.087 143.259 161.429C143.153 161.506 143.061 161.521 142.954 161.49C140.852 160.889 138.741 160.294 136.639 159.7C136.532 159.67 136.463 159.616 136.41 159.517C136.319 159.327 136.22 159.136 136.105 158.969C135.999 158.809 136.022 158.717 136.22 158.595C136.646 158.329 137.065 158.054 137.461 157.734C137.957 157.338 138.391 156.896 138.68 156.325C138.97 155.754 139.039 155.198 138.871 154.649C138.818 154.489 138.764 154.459 138.589 154.573C137.393 155.388 136.189 156.196 134.993 157.003L134.643 157.239C134.704 156.744 134.757 156.302 134.81 155.86C134.825 155.761 134.917 155.731 134.985 155.685C135.953 155.03 136.928 154.375 137.903 153.72C137.964 153.681 138.071 153.651 138.063 153.575C138.063 153.506 137.964 153.491 137.903 153.468C137.294 153.194 136.646 153.377 136.006 153.697C135.237 154.078 134.544 154.603 133.82 155.076C133.744 155.129 133.667 155.182 133.546 155.258C133.606 154.771 133.66 154.321 133.713 153.88C133.721 153.811 133.774 153.78 133.827 153.742C136.09 152.219 138.353 150.695 140.616 149.171C140.692 149.209 140.654 149.278 140.646 149.324C140.608 149.666 140.555 150.017 140.524 150.36C140.509 150.52 140.44 150.611 140.303 150.703C139.762 151.053 139.229 151.419 138.673 151.8C138.84 151.868 138.985 151.929 139.13 151.998C139.32 152.089 139.488 152.203 139.633 152.363C139.724 152.462 139.8 152.447 139.922 152.363C140.517 151.952 141.118 151.556 141.766 151.114C141.728 151.419 141.667 151.693 141.675 151.952C141.682 152.402 141.492 152.706 141.065 152.92C140.844 153.026 140.646 153.201 140.433 153.331C140.341 153.392 140.303 153.438 140.334 153.544C140.676 154.718 140.311 155.837 139.526 156.919C139.176 157.407 138.757 157.826 138.284 158.192C138.239 158.222 138.2 158.26 138.162 158.298C138.155 158.306 138.147 158.329 138.14 158.359L138.132 158.374Z" fill="white"/>
<path d="M144.014 160.82C153.75 160.82 161.643 157.242 161.643 152.828C161.643 148.415 153.75 144.836 144.014 144.836C134.277 144.836 126.384 148.415 126.384 152.828C126.384 157.242 134.277 160.82 144.014 160.82Z" fill="#BF8B0A"/>
<path d="M161.353 152.828C161.308 154.916 159.563 156.424 157.902 157.414C155.457 158.87 152.607 159.639 149.811 160.089C143.655 161.079 136.441 160.751 130.818 157.811C129.112 156.919 127.154 155.54 126.735 153.521C126.316 151.502 127.832 149.788 129.378 148.714C131.618 147.152 134.346 146.314 136.997 145.789C140.341 145.126 143.8 144.973 147.19 145.255C150.581 145.537 154.055 146.23 157.087 147.792C159.03 148.79 161.292 150.421 161.346 152.828C161.353 153.194 161.925 153.194 161.917 152.828C161.871 150.763 160.37 149.186 158.74 148.097C156.241 146.429 153.201 145.56 150.261 145.065C146.558 144.44 142.741 144.379 139.016 144.874C135.923 145.286 132.746 146.063 130.018 147.632C128.296 148.623 126.46 150.124 126.14 152.211C125.836 154.169 127.062 155.86 128.525 157.018C130.765 158.793 133.645 159.738 136.403 160.332C140.09 161.125 143.93 161.292 147.678 160.934C151.213 160.591 154.877 159.814 157.986 158.024C159.906 156.919 161.864 155.213 161.917 152.828C161.925 152.462 161.353 152.462 161.346 152.828H161.353Z" fill="#2B63A8"/>
<path d="M144.014 158.116C153.75 158.116 161.643 154.538 161.643 150.124C161.643 145.71 153.75 142.132 144.014 142.132C134.277 142.132 126.384 145.71 126.384 150.124C126.384 154.538 134.277 158.116 144.014 158.116Z" fill="#FCBC00"/>
<path d="M161.353 150.124C161.308 152.211 159.563 153.72 157.902 154.71C155.457 156.165 152.607 156.935 149.811 157.384C143.655 158.375 136.441 158.047 130.818 155.106C129.112 154.215 127.154 152.836 126.735 150.817C126.316 148.798 127.832 147.084 129.378 146.01C131.618 144.448 134.346 143.61 136.997 143.084C140.341 142.421 143.8 142.269 147.19 142.551C150.581 142.833 154.055 143.526 157.087 145.088C159.03 146.086 161.292 147.716 161.346 150.124C161.353 150.489 161.925 150.489 161.917 150.124C161.871 148.059 160.37 146.482 158.74 145.393C156.241 143.724 153.201 142.856 150.261 142.36C146.558 141.736 142.741 141.675 139.016 142.17C135.923 142.581 132.746 143.358 130.018 144.928C128.296 145.918 126.46 147.419 126.14 149.507C125.836 151.465 127.062 153.156 128.525 154.314C130.765 156.089 133.645 157.034 136.403 157.628C140.09 158.42 143.93 158.588 147.678 158.23C151.213 157.887 154.877 157.11 157.986 155.319C159.906 154.215 161.864 152.508 161.917 150.124C161.925 149.758 161.353 149.758 161.346 150.124H161.353Z" fill="#2B63A8"/>
<path d="M143.526 151.952L150.268 153.864C150.268 153.941 150.207 153.956 150.162 153.986C149.659 154.329 149.156 154.664 148.653 155.007C148.546 155.083 148.455 155.099 148.348 155.068C146.246 154.466 144.135 153.872 142.033 153.278C141.926 153.247 141.857 153.194 141.804 153.095C141.713 152.905 141.614 152.714 141.499 152.546C141.393 152.386 141.415 152.295 141.614 152.173C142.04 151.907 142.459 151.632 142.855 151.312C143.351 150.916 143.785 150.474 144.074 149.903C144.364 149.331 144.432 148.775 144.265 148.227C144.211 148.067 144.158 148.036 143.983 148.151C142.787 148.966 141.583 149.773 140.387 150.581L140.037 150.817C140.097 150.322 140.151 149.88 140.204 149.438C140.219 149.339 140.311 149.309 140.379 149.263C141.347 148.608 142.322 147.952 143.297 147.297C143.358 147.259 143.465 147.229 143.457 147.153C143.457 147.084 143.358 147.069 143.297 147.046C142.688 146.772 142.04 146.954 141.4 147.274C140.631 147.655 139.937 148.181 139.214 148.653C139.138 148.707 139.061 148.76 138.939 148.836C139 148.349 139.054 147.899 139.107 147.457C139.115 147.389 139.168 147.358 139.221 147.32C141.484 145.796 143.747 144.273 146.009 142.749C146.086 142.787 146.048 142.856 146.04 142.901C146.002 143.244 145.949 143.595 145.918 143.938C145.903 144.098 145.834 144.189 145.697 144.28C145.156 144.631 144.623 144.997 144.067 145.377C144.234 145.446 144.379 145.507 144.524 145.576C144.714 145.667 144.882 145.781 145.027 145.941C145.118 146.04 145.194 146.025 145.316 145.941C145.91 145.53 146.512 145.134 147.16 144.692C147.122 144.996 147.061 145.271 147.068 145.53C147.076 145.979 146.886 146.284 146.459 146.497C146.238 146.604 146.04 146.779 145.827 146.909C145.735 146.97 145.697 147.015 145.728 147.122C146.07 148.295 145.705 149.415 144.92 150.497C144.57 150.985 144.151 151.404 143.678 151.769C143.632 151.8 143.594 151.838 143.556 151.876C143.549 151.884 143.541 151.907 143.533 151.937L143.526 151.952Z" fill="white"/>
<path d="M117.143 190.898C125.103 190.898 131.557 184.444 131.557 176.483C131.557 168.523 125.103 162.069 117.143 162.069C109.182 162.069 102.728 168.523 102.728 176.483C102.728 184.444 109.182 190.898 117.143 190.898Z" fill="#BF8B0A"/>
<path d="M130.864 179.859C129.409 185.534 124.579 189.892 118.705 190.532C112.831 191.172 107.048 187.988 104.443 182.678C101.837 177.367 102.919 170.762 107.086 166.549C111.254 162.336 117.851 161.155 123.222 163.723C129.241 166.595 132.388 173.398 130.856 179.851C130.772 180.209 131.321 180.361 131.405 180.003C132.814 174.038 130.437 167.707 125.325 164.263C120.213 160.82 113.303 161.003 108.374 164.675C103.445 168.347 101.243 174.975 103.109 180.887C104.976 186.799 110.279 190.822 116.351 191.165C123.36 191.553 129.683 186.753 131.412 180.003C131.504 179.645 130.955 179.493 130.864 179.851V179.859Z" fill="#2B63A8"/>
<path d="M115.627 189.016C123.588 189.016 130.041 182.563 130.041 174.602C130.041 166.641 123.588 160.188 115.627 160.188C107.666 160.188 101.213 166.641 101.213 174.602C101.213 182.563 107.666 189.016 115.627 189.016Z" fill="#FCBC00"/>
<path d="M129.348 177.977C127.893 183.653 123.062 188.011 117.189 188.651C111.315 189.291 105.532 186.106 102.927 180.796C100.313 175.471 101.403 168.881 105.57 164.667C109.753 160.439 116.335 159.274 121.706 161.841C127.725 164.713 130.871 171.517 129.34 177.969C129.256 178.328 129.805 178.48 129.889 178.122C131.298 172.156 128.921 165.825 123.809 162.382C118.697 158.938 111.787 159.121 106.858 162.793C101.898 166.488 99.7268 173.094 101.593 179.006C103.46 184.918 108.762 188.94 114.834 189.283C121.843 189.672 128.167 184.872 129.896 178.122C129.988 177.764 129.439 177.611 129.348 177.969V177.977Z" fill="#2B63A8"/>
<path d="M113.699 174.229L116.853 182.266C116.785 182.335 116.731 182.281 116.686 182.266C116.061 182.076 115.436 181.878 114.812 181.687C114.674 181.649 114.606 181.581 114.552 181.443C113.57 178.929 112.587 176.423 111.596 173.916C111.543 173.787 111.543 173.68 111.589 173.551C111.673 173.299 111.764 173.055 111.817 172.796C111.871 172.56 111.962 172.507 112.198 172.583C112.709 172.758 113.227 172.934 113.76 173.04C114.423 173.177 115.086 173.215 115.749 173.017C116.411 172.812 116.914 172.408 117.234 171.791C117.333 171.6 117.31 171.524 117.097 171.456C115.604 171.006 114.118 170.534 112.625 170.077C112.495 170.038 112.374 170 112.191 169.939C112.633 169.581 113.029 169.261 113.425 168.934C113.516 168.858 113.608 168.934 113.692 168.957C114.895 169.33 116.107 169.703 117.31 170.077C117.387 170.099 117.478 170.176 117.539 170.107C117.6 170.046 117.539 169.947 117.516 169.863C117.31 169.048 116.716 168.591 116.008 168.248C115.162 167.837 114.255 167.616 113.364 167.326C113.273 167.296 113.174 167.265 113.021 167.22C113.455 166.862 113.859 166.542 114.255 166.214C114.316 166.161 114.385 166.191 114.446 166.214C117.257 167.082 120.068 167.959 122.872 168.827C122.895 168.926 122.811 168.949 122.765 168.987C122.461 169.239 122.141 169.482 121.843 169.749C121.706 169.871 121.584 169.886 121.409 169.825C120.746 169.612 120.084 169.406 119.383 169.193C119.444 169.406 119.497 169.597 119.543 169.787C119.604 170.046 119.626 170.305 119.596 170.572C119.573 170.739 119.642 170.8 119.802 170.854C120.548 171.075 121.295 171.311 122.095 171.562C121.821 171.783 121.554 171.958 121.348 172.179C120.99 172.568 120.617 172.644 120.144 172.415C119.901 172.301 119.626 172.255 119.367 172.164C119.253 172.126 119.192 172.134 119.124 172.255C118.423 173.573 117.257 174.168 115.825 174.328C115.185 174.404 114.552 174.358 113.928 174.221C113.867 174.206 113.813 174.198 113.753 174.191C113.737 174.191 113.722 174.206 113.692 174.213L113.699 174.229Z" fill="white"/>
<path d="M27.1906 179.76L23.4118 182.282L6.61292 141.827L10.3993 139.305L27.1906 146.924V179.76Z" fill="#2B63A8"/>
<path d="M48.8503 189.489L45.0639 192.011L28.2726 143.938L32.0514 141.416L48.8503 149.034V189.489Z" fill="#2B63A8"/>
<path d="M70.5098 199.21L66.7233 201.732L49.9321 138.422L53.7109 135.9L70.5098 143.518V199.21Z" fill="#2B63A8"/>
<path d="M23.4118 182.281L6.61292 174.663V141.827L23.4118 149.446V182.281Z" fill="#6CA9AE"/>
<path d="M23.5033 182.434L6.51398 174.731V141.682L23.5033 149.384V182.434ZM6.70444 174.602L23.3129 182.137V149.506L6.70444 141.972V174.602Z" fill="#2B63A8"/>
<path d="M45.0637 192.011L28.2724 184.392V143.938L45.0637 151.556V192.011Z" fill="#6CA9AE"/>
<path d="M45.1628 192.155L28.1735 184.453V143.785L45.1628 151.488V192.155ZM28.3639 184.331L44.9723 191.866V151.617L28.3639 144.082V184.331Z" fill="#2B63A8"/>
<path d="M66.7231 201.732L49.9318 194.113V138.422L66.7231 146.04V201.732Z" fill="#6CA9AE"/>
<path d="M66.8222 201.884L49.8329 194.182V138.277L66.8222 145.979V201.884ZM50.0233 194.06L66.6318 201.595V146.109L50.0233 138.574V194.06Z" fill="#2B63A8"/>
<path d="M38.3366 175.6C34.3293 175.6 30.1848 175.273 25.9108 174.617C11.2756 172.37 0.449616 167.121 0.00012207 166.9L2.34663 162.108C2.84946 162.351 44.1572 182.076 71.7135 159.083L75.1266 163.182C65.291 171.395 52.7281 175.6 38.3366 175.6Z" fill="#68121F"/>
<path d="M67.9421 158.397L75.7359 166.823L79.3166 156.5L67.9421 158.397Z" fill="#68121F"/>
</g>
<defs>
<clipPath id="clip0_320_7505">
<rect width="172.895" height="201.884" fill="white"/>
</clipPath>
</defs>
</svg>
