<svg width="191" height="191" viewBox="0 0 191 191" fill="none" xmlns="http://www.w3.org/2000/svg">
<path d="M153.804 150.662L181.212 166.301C182.513 167.046 184.151 167.02 185.431 166.248L188.888 164.15C190.987 162.876 190.938 159.959 188.79 158.752L158.87 141.879L154.119 144.07C151.285 145.377 151.11 149.118 153.811 150.662H153.804Z" fill="#2A4850"/>
<path d="M103.473 181.036L3.70013 125.924L73.3642 93.076L173.13 148.194L103.473 181.036Z" fill="#2A4850"/>
<path d="M102.374 176.377L5.55432 120.078L75.2184 87.2297L174.844 141.517L102.374 176.377Z" fill="#2B63A8"/>
<path d="M174.844 141.516L75.0714 86.4046V3.84265L174.844 58.9609V141.516Z" fill="#2B63A8"/>
<path d="M175.194 142.09L174.669 141.8L74.7216 86.5893V3.26855L75.2463 3.55889L175.194 58.7695V142.09ZM75.4213 86.2132L174.488 140.942V59.1457L75.4213 4.41671V86.2132Z" fill="#2B63A8"/>
<path d="M13.4472 79.8058L15.4414 83.8969C15.5043 84.0223 15.6093 84.1213 15.7423 84.1807L20.0805 86.0613C20.5563 86.2658 20.5563 86.9059 20.0805 87.1104L15.7423 88.991C15.6093 89.0504 15.5043 89.1494 15.4414 89.2748L13.4472 93.3659C13.2303 93.8146 12.5515 93.8146 12.3346 93.3659L10.3404 89.2748C10.2774 89.1494 10.1725 89.0504 10.0395 88.991L5.70128 87.1104C5.22547 86.9059 5.22547 86.2658 5.70128 86.0613L10.0395 84.1807C10.1725 84.1213 10.2774 84.0223 10.3404 83.8969L12.3346 79.8058C12.5515 79.3571 13.2303 79.3571 13.4472 79.8058Z" fill="white"/>
<path d="M13.2232 79.9314L15.0495 83.6728C15.2524 84.0885 15.4623 84.3261 15.9102 84.524L18.1703 85.5006L19.3178 86.0021C19.4857 86.0747 19.8146 86.1473 19.9405 86.2727C20.5843 86.8995 18.9469 87.3285 18.6671 87.4538L16.1481 88.5426C15.7212 88.7274 15.3924 88.8461 15.1615 89.2618C14.7976 89.9019 14.5107 90.5948 14.1889 91.2546L13.6501 92.3566C13.5381 92.5942 13.4332 92.9637 13.2582 93.1682C12.6355 93.8743 12.2576 92.6139 12.1107 92.3038L10.9562 89.9349C10.7532 89.5192 10.6063 89.0111 10.1585 88.7735C9.56371 88.4568 8.89198 88.2259 8.26923 87.9553C7.55552 87.6452 6.74384 87.3944 6.07211 87.0051C5.8412 86.8732 5.29542 86.7874 5.8622 86.2727C6.01613 86.1341 6.37299 86.0483 6.56891 85.9691L9.3468 84.7616C9.85759 84.5372 10.3544 84.4119 10.6273 83.917C11.0261 83.1911 11.355 82.4257 11.7188 81.68L12.3206 80.4461C12.3976 80.2877 12.7754 79.2649 13.2232 79.938C13.4052 80.2085 13.86 79.9578 13.6781 79.6873C13.2023 78.9812 12.3836 79.1858 12.0337 79.8522C11.6279 80.6309 11.264 81.4293 10.8792 82.2211C10.6413 82.7028 10.4034 83.6464 9.90657 83.9764C9.32581 84.3591 8.51413 84.5834 7.87739 84.8606C7.14268 85.1773 6.32401 85.4478 5.62429 85.8372C4.92457 86.2265 4.93857 86.9721 5.62429 87.3548C6.31002 87.7376 7.14268 88.0147 7.87739 88.3314C8.51413 88.6086 9.3328 88.8329 9.90657 89.2157C10.4034 89.5456 10.6413 90.4826 10.8792 90.9709C11.264 91.7561 11.6279 92.5612 12.0337 93.3398C12.3766 93.9997 13.2162 94.2174 13.6781 93.5048C14.0349 92.9505 14.2728 92.2906 14.5527 91.7033C14.9026 90.9841 15.1895 90.1593 15.6303 89.4862C15.9242 89.0375 16.6729 88.8725 17.1557 88.6614L19.8356 87.5C20.4164 87.2493 21.0391 86.7412 20.5073 86.0945C20.3254 85.8768 20.0175 85.7844 19.7586 85.6656L18.3032 85.0321C17.5405 84.7022 16.5749 84.4383 15.8822 83.983C15.6303 83.818 15.5463 83.5277 15.4274 83.2769L14.7346 81.8648L13.6781 79.7005C13.5381 79.4101 13.0833 79.6609 13.2232 79.9512V79.9314Z" fill="#2B63A8"/>
<path d="M13.2163 79.9316L15.0426 83.6731C15.2455 84.0888 15.4624 84.3329 15.9102 84.5243L18.1703 85.5009L19.3178 86.0024C19.4858 86.075 19.8146 86.1475 19.9406 86.2729C20.5633 86.8932 18.947 87.3155 18.6671 87.4409L16.1481 88.5296C15.7213 88.7144 15.3924 88.8398 15.1545 89.2489C14.7907 89.889 14.5038 90.5818 14.1819 91.2417L13.6431 92.3436C13.5312 92.5812 13.4262 92.9507 13.2513 93.1553C12.6355 93.8481 12.2647 92.5944 12.1177 92.2908L10.9632 89.9219C10.7603 89.5062 10.6133 88.9981 10.1655 88.754C9.57076 88.4373 8.89903 88.2063 8.27628 87.9358C7.56256 87.6256 6.75089 87.3749 6.07916 86.9856C5.85525 86.8536 5.31647 86.7744 5.86924 86.2663C6.02318 86.1277 6.38704 86.042 6.57596 85.9628L9.35385 84.7552C9.86464 84.5309 10.3614 84.3989 10.6343 83.904C11.0332 83.1782 11.362 82.4127 11.7259 81.6671L12.3277 80.4331C12.3836 80.321 12.4326 80.1362 12.5166 80.0438C12.6355 79.9052 12.6635 79.1002 13.2163 79.9316C13.3982 80.2088 13.867 79.9514 13.6851 79.6743C13.2093 78.9616 12.3766 79.1662 12.0268 79.8393C11.6209 80.6179 11.2571 81.4163 10.8722 82.2082C10.6343 82.6899 10.3964 83.6335 9.90662 83.9568C9.32586 84.3395 8.51418 84.5639 7.87744 84.841C7.14273 85.1577 6.32406 85.4283 5.62434 85.8176C4.92462 86.2069 4.93162 86.9658 5.62434 87.3485C6.32406 87.7378 7.14273 88.0083 7.87744 88.3251C8.51418 88.6022 9.33285 88.8266 9.90662 89.2093C10.4034 89.5326 10.6413 90.4762 10.8722 90.9579C11.2571 91.7432 11.6209 92.5482 12.0268 93.3268C12.3766 93.9933 13.2163 94.2111 13.6851 93.4918C14.042 92.9375 14.2799 92.2777 14.5598 91.6904C14.9096 90.9711 15.1965 90.1463 15.6373 89.4732C15.9312 89.0311 16.6799 88.8596 17.1557 88.655L19.8356 87.4937C20.4234 87.2429 21.0462 86.7216 20.5074 86.075C20.3254 85.8506 20.0176 85.7648 19.7587 85.646L18.3033 85.0126C17.5406 84.6826 16.568 84.4187 15.8822 83.9634C15.6303 83.7984 15.5464 83.5147 15.4274 83.2639L14.7347 81.8518L13.6781 79.6875C13.5312 79.3906 13.0624 79.6479 13.2093 79.9448L13.2163 79.9316Z" fill="white"/>
<path d="M12.9854 80.0569L14.3218 82.7953C14.6297 83.4288 14.8676 84.1942 15.5113 84.6034C16.26 85.0719 17.2117 85.3622 18.0233 85.7185C18.4082 85.8835 18.786 86.0616 19.1709 86.22C19.6047 86.3916 19.9826 86.5565 19.4368 86.8667C19.0029 87.1042 18.4712 87.2494 18.0163 87.4474C17.1697 87.8103 16.1061 88.1138 15.3644 88.6417C14.8396 89.0178 14.6227 89.6843 14.3638 90.232C13.993 91.0238 13.6011 91.809 13.2443 92.6075C13.2093 92.6933 13.0133 93.1156 12.8034 93.0628C12.7125 93.043 12.5935 92.7526 12.5585 92.6801C12.4746 92.5151 12.4116 92.3369 12.3346 92.1654C11.9218 91.2614 11.46 90.3705 11.0331 89.4731C10.7602 88.8925 10.4384 88.5955 9.82962 88.3184C8.92698 87.9027 7.97537 87.5727 7.05873 87.1834C6.83482 87.091 6.26105 86.9129 6.10711 86.7215C5.83422 86.3916 6.41499 86.2926 6.70188 86.1738C7.70247 85.7647 8.68208 85.3094 9.66869 84.8871C10.3334 84.6033 10.6973 84.3328 11.0331 83.6993C11.488 82.8283 11.8798 81.9309 12.3066 81.0533C12.4536 80.7564 12.6005 80.466 12.7405 80.1691C12.7614 80.1229 12.7964 80.0107 12.8244 79.9843C13.0063 79.7864 12.7125 79.6346 12.9854 80.0569C13.1813 80.3538 13.6361 80.367 13.867 80.1031C14.1469 79.7798 13.846 79.3838 13.5451 79.1793C13.1393 78.9021 12.6215 78.9417 12.2227 79.2123C11.6279 79.628 11.376 80.5254 11.0891 81.1259C10.7672 81.7989 10.5083 82.5116 10.1655 83.178C9.75265 83.9963 8.80103 84.1876 7.98236 84.5176C7.21267 84.8211 6.41499 85.1048 5.68728 85.4876C4.42079 86.154 4.74266 87.223 5.9042 87.7773C6.6389 88.127 7.42259 88.424 8.18528 88.7209C8.58412 88.8793 8.99696 89.0112 9.3818 89.2026C9.90659 89.4731 10.1095 89.8295 10.3194 90.3376C10.5923 90.9908 10.8862 91.6243 11.1941 92.2643C11.481 92.8648 11.7399 93.749 12.4256 94.0658C13.881 94.7256 14.4898 92.4227 14.8676 91.5913C15.3084 90.6279 15.5603 89.5325 16.6659 89.0904C17.5965 88.7275 18.5061 88.325 19.4158 87.9291C20.0105 87.6717 20.9062 87.3484 20.9552 86.6093C21.0041 85.8703 20.2135 85.5733 19.6257 85.316C18.7021 84.9201 17.7574 84.5704 16.8268 84.1744C16.1411 83.8775 15.8192 83.5344 15.5113 82.8943C15.2804 82.4192 15.0495 81.9507 14.8186 81.4756L14.1119 80.0305C13.9999 79.7996 13.909 79.4366 13.6221 79.3311C13.1463 79.1463 12.8594 79.6214 12.9294 79.9975C12.9854 80.3076 13.4892 80.1757 13.4332 79.8655C13.4962 80.2153 13.846 80.6706 14.0069 81.0005L14.5947 82.2015C14.8886 82.8019 15.1195 83.6927 15.6653 84.1282C16.1831 84.544 16.9248 84.7419 17.5405 84.9795C17.9883 85.151 18.4292 85.3424 18.87 85.5338C19.2199 85.6855 19.7097 85.7977 20.0035 86.022C20.9552 86.7611 19.9616 87.1438 19.4088 87.3814C18.961 87.5793 18.5131 87.7707 18.0653 87.962C17.3586 88.2656 16.5469 88.4965 15.8892 88.8859C15.3084 89.229 15.0635 89.8559 14.8046 90.4299C14.4618 91.1822 14.1399 91.9476 13.783 92.6933C13.5801 93.1156 13.2443 93.8876 12.6075 93.5973C12.2227 93.4191 12.0337 92.8186 11.8658 92.4821C11.5089 91.7563 11.1521 91.0304 10.8512 90.2848C10.6623 89.8229 10.4734 89.3412 10.0605 89.0178C9.57073 88.6351 8.892 88.4569 8.31123 88.2326C7.52754 87.9291 6.6529 87.6519 5.93218 87.2296C4.42079 86.352 6.42199 85.6657 7.22667 85.3424C8.28324 84.9201 9.91359 84.5902 10.5153 83.574C10.8372 83.0329 11.0191 82.406 11.292 81.8385C11.46 81.4822 11.6279 81.1259 11.8028 80.7696C11.9848 80.3934 12.1737 79.7402 12.6005 79.5356C12.8314 79.4234 13.6011 79.7336 13.0553 79.397C12.9434 79.3311 12.8244 79.2717 12.6845 79.3113C12.4046 79.3838 12.3486 79.694 12.2507 79.9051C11.9358 80.598 11.5719 81.2842 11.2431 81.9771C10.9142 82.67 10.6203 83.7851 9.90659 84.2008C9.19288 84.6165 8.3952 84.8607 7.66049 85.1774C7.04474 85.4414 6.1491 85.6459 5.6383 86.0682C4.6447 86.8931 6.37301 87.4342 6.98176 87.6783C7.75145 87.9884 8.52814 88.2854 9.29084 88.6153C9.69667 88.7869 10.0745 88.9386 10.3334 89.295C10.5363 89.5721 10.6553 89.9482 10.8022 90.2584C11.1661 91.004 11.5509 91.7431 11.8868 92.4953C12.0337 92.8252 12.1597 93.2409 12.4816 93.4521C13.4192 94.0724 13.909 92.2643 14.1469 91.7827C14.5387 90.9842 14.8466 90.1 15.3294 89.3544C15.7702 88.6681 17.0017 88.3844 17.7365 88.0676C18.3242 87.8103 18.954 87.6057 19.5347 87.3286C19.8566 87.1768 20.2834 86.9327 20.2974 86.5433C20.3044 86.0946 19.8496 85.9363 19.4857 85.7977C18.5551 85.4348 17.6525 85.0125 16.7428 84.6166C16.274 84.412 15.7143 84.2536 15.3994 83.8445C15.1615 83.5278 15.0215 83.1319 14.8536 82.7821L13.3982 79.793C13.2582 79.5026 12.8034 79.7534 12.9434 80.0437L12.9854 80.0569Z" fill="#2B63A8"/>
<path d="M135.317 11.5238L137.311 15.6149C137.374 15.7403 137.479 15.8393 137.612 15.8987L141.951 17.7793C142.426 17.9838 142.426 18.6239 141.951 18.8285L137.612 20.7091C137.479 20.7685 137.374 20.8674 137.311 20.9928L135.317 25.0839C135.1 25.5327 134.422 25.5327 134.205 25.0839L132.211 20.9928C132.148 20.8674 132.043 20.7685 131.91 20.7091L127.571 18.8285C127.096 18.6239 127.096 17.9838 127.571 17.7793L131.91 15.8987C132.043 15.8393 132.148 15.7403 132.211 15.6149L134.205 11.5238C134.422 11.0751 135.1 11.0751 135.317 11.5238Z" fill="white"/>
<path d="M135.093 11.6491L136.92 15.3905C137.123 15.8062 137.333 16.0437 137.78 16.2417L140.04 17.2183L141.188 17.7198C141.356 17.7924 141.685 17.865 141.811 17.9903C142.455 18.6172 140.817 19.0461 140.537 19.1715L138.018 20.2603C137.591 20.445 137.263 20.5638 137.032 20.9795C136.668 21.6196 136.381 22.3124 136.059 22.9723L135.52 24.0743C135.408 24.3118 135.303 24.6813 135.128 24.8859C134.506 25.5919 134.128 24.3316 133.981 24.0215L132.826 21.6526C132.623 21.2368 132.477 20.7288 132.029 20.4912C131.434 20.1745 130.762 19.9435 130.139 19.673C129.426 19.3628 128.614 19.1121 127.942 18.7228C127.711 18.5908 127.166 18.505 127.732 17.9903C127.886 17.8518 128.243 17.766 128.439 17.6868L131.217 16.4792C131.728 16.2549 132.225 16.1295 132.498 15.6346C132.896 14.9088 133.225 14.1433 133.589 13.3977L134.191 12.1637C134.268 12.0054 134.646 10.9826 135.093 11.6557C135.275 11.9262 135.73 11.6754 135.548 11.4049C135.072 10.6989 134.254 10.9034 133.904 11.5699C133.498 12.3485 133.134 13.1469 132.749 13.9388C132.512 14.4205 132.274 15.3641 131.777 15.694C131.196 16.0767 130.384 16.3011 129.748 16.5782C129.013 16.895 128.194 17.1655 127.495 17.5548C126.795 17.9441 126.809 18.6898 127.495 19.0725C128.18 19.4552 129.013 19.7324 129.748 20.0491C130.384 20.3262 131.203 20.5506 131.777 20.9333C132.274 21.2632 132.512 22.2002 132.749 22.6885C133.134 23.4738 133.498 24.2788 133.904 25.0574C134.247 25.7173 135.086 25.9351 135.548 25.2224C135.905 24.6681 136.143 24.0083 136.423 23.421C136.773 22.7017 137.06 21.8769 137.501 21.2039C137.794 20.7551 138.543 20.5902 139.026 20.379L141.706 19.2177C142.287 18.9669 142.909 18.4588 142.378 17.8122C142.196 17.5944 141.888 17.502 141.629 17.3833L140.173 16.7498C139.411 16.4199 138.445 16.1559 137.752 15.7006C137.501 15.5356 137.417 15.2453 137.298 14.9946L136.605 13.5824L135.548 11.4181C135.408 11.1278 134.954 11.3785 135.093 11.6688V11.6491Z" fill="#2B63A8"/>
<path d="M135.086 11.6553L136.913 15.3967C137.116 15.8124 137.333 16.0566 137.78 16.2479L140.04 17.2245L141.188 17.726C141.356 17.7986 141.685 17.8712 141.811 17.9965C142.433 18.6168 140.817 19.0391 140.537 19.1645L138.018 20.2533C137.591 20.438 137.263 20.5634 137.025 20.9725C136.661 21.6126 136.374 22.3054 136.052 22.9653L135.513 24.0673C135.401 24.3048 135.296 24.6743 135.121 24.8789C134.506 25.5718 134.135 24.318 133.988 24.0145L132.833 21.6456C132.63 21.2299 132.483 20.7218 132.036 20.4776C131.441 20.1609 130.769 19.9299 130.146 19.6594C129.433 19.3493 128.621 19.0985 127.949 18.7092C127.725 18.5772 127.187 18.498 127.739 17.9899C127.893 17.8514 128.257 17.7656 128.446 17.6864L131.224 16.4789C131.735 16.2545 132.232 16.1225 132.504 15.6276C132.903 14.9018 133.232 14.1364 133.596 13.3907L134.198 12.1568C134.254 12.0446 134.303 11.8598 134.387 11.7675C134.506 11.6289 134.534 10.8238 135.086 11.6553C135.268 11.9324 135.737 11.6751 135.555 11.3979C135.079 10.6853 134.247 10.8898 133.897 11.5629C133.491 12.3415 133.127 13.14 132.742 13.9318C132.504 14.4135 132.267 15.3571 131.777 15.6804C131.196 16.0632 130.384 16.2875 129.748 16.5646C129.013 16.8814 128.194 17.1519 127.494 17.5412C126.795 17.9306 126.802 18.6894 127.494 19.0721C128.194 19.4614 129.013 19.732 129.748 20.0487C130.384 20.3259 131.203 20.5502 131.777 20.9329C132.274 21.2563 132.511 22.1999 132.742 22.6816C133.127 23.4668 133.491 24.2718 133.897 25.0505C134.247 25.7169 135.086 25.9347 135.555 25.2154C135.912 24.6611 136.15 24.0013 136.43 23.414C136.78 22.6948 137.067 21.8699 137.507 21.1969C137.801 20.7548 138.55 20.5832 139.026 20.3786L141.706 19.2173C142.294 18.9665 142.916 18.4453 142.377 17.7986C142.196 17.5742 141.888 17.4885 141.629 17.3697L140.173 16.7362C139.411 16.4063 138.438 16.1423 137.752 15.687C137.5 15.5221 137.416 15.2383 137.298 14.9876L136.605 13.5755L135.548 11.4111C135.401 11.1142 134.932 11.3715 135.079 11.6685L135.086 11.6553Z" fill="white"/>
<path d="M134.855 11.7805L136.192 14.519C136.5 15.1524 136.738 15.9179 137.381 16.327C138.13 16.7955 139.082 17.0858 139.893 17.4421C140.278 17.6071 140.656 17.7853 141.041 17.9436C141.475 18.1152 141.853 18.2802 141.307 18.5903C140.873 18.8279 140.341 18.973 139.886 19.171C139.04 19.5339 137.976 19.8374 137.234 20.3653C136.71 20.7415 136.493 21.4079 136.234 21.9556C135.863 22.7474 135.471 23.5327 135.114 24.3311C135.079 24.4169 134.883 24.8392 134.673 24.7864C134.583 24.7666 134.464 24.4763 134.429 24.4037C134.345 24.2387 134.282 24.0606 134.205 23.889C133.792 22.985 133.33 22.0942 132.903 21.1968C132.63 20.6161 132.308 20.3191 131.7 20.042C130.797 19.6263 129.845 19.2964 128.929 18.907C128.705 18.8147 128.131 18.6365 127.977 18.4451C127.704 18.1152 128.285 18.0162 128.572 17.8975C129.573 17.4883 130.552 17.033 131.539 16.6107C132.203 16.327 132.567 16.0564 132.903 15.423C133.358 14.552 133.75 13.6545 134.177 12.7769C134.324 12.48 134.471 12.1896 134.611 11.8927C134.632 11.8465 134.666 11.7343 134.694 11.708C134.876 11.51 134.583 11.3582 134.855 11.7805C135.051 12.0775 135.506 12.0907 135.737 11.8267C136.017 11.5034 135.716 11.1075 135.415 10.9029C135.009 10.6258 134.492 10.6654 134.093 10.9359C133.498 11.3516 133.246 12.249 132.959 12.8495C132.637 13.5226 132.378 14.2352 132.036 14.9017C131.623 15.7199 130.671 15.9113 129.852 16.2412C129.083 16.5447 128.285 16.8285 127.557 17.2112C126.291 17.8777 126.613 18.9466 127.774 19.5009C128.509 19.8506 129.293 20.1476 130.055 20.4445C130.454 20.6029 130.867 20.7349 131.252 20.9262C131.777 21.1968 131.98 21.5531 132.189 22.0612C132.462 22.7144 132.756 23.3479 133.064 23.988C133.351 24.5885 133.61 25.4727 134.296 25.7894C135.751 26.4493 136.36 24.1463 136.738 23.3149C137.178 22.3515 137.43 21.2561 138.536 20.814C139.467 20.4511 140.376 20.0486 141.286 19.6527C141.881 19.3953 142.776 19.072 142.825 18.333C142.874 17.5939 142.084 17.297 141.496 17.0396C140.572 16.6437 139.627 16.294 138.697 15.8981C138.011 15.6011 137.689 15.258 137.381 14.6179C137.15 14.1428 136.92 13.6743 136.689 13.1992L135.982 11.7541C135.87 11.5232 135.779 11.1603 135.492 11.0547C135.016 10.8699 134.729 11.345 134.799 11.7211C134.855 12.0313 135.359 11.8993 135.303 11.5892C135.366 11.9389 135.716 12.3942 135.877 12.7241L136.465 13.9251C136.759 14.5256 136.99 15.4164 137.535 15.8519C138.053 16.2676 138.795 16.4656 139.411 16.7031C139.858 16.8747 140.299 17.066 140.74 17.2574C141.09 17.4092 141.58 17.5213 141.874 17.7457C142.825 18.4847 141.832 18.8674 141.279 19.105C140.831 19.303 140.383 19.4943 139.935 19.6857C139.229 19.9892 138.417 20.2202 137.759 20.6095C137.178 20.9526 136.934 21.5795 136.675 22.1536C136.332 22.9058 136.01 23.6712 135.653 24.4169C135.45 24.8392 135.114 25.6112 134.478 25.3209C134.093 25.1427 133.904 24.5423 133.736 24.2057C133.379 23.4799 133.022 22.754 132.721 22.0084C132.532 21.5465 132.343 21.0648 131.931 20.7415C131.441 20.3587 130.762 20.1806 130.181 19.9562C129.398 19.6527 128.523 19.3755 127.802 18.9532C126.291 18.0756 128.292 17.3894 129.097 17.066C130.153 16.6437 131.784 16.3138 132.385 15.2976C132.707 14.7565 132.889 14.1296 133.162 13.5622C133.33 13.2058 133.498 12.8495 133.673 12.4932C133.855 12.1171 134.044 11.4638 134.471 11.2592C134.701 11.1471 135.471 11.4572 134.925 11.1207C134.813 11.0547 134.694 10.9953 134.555 11.0349C134.275 11.1075 134.219 11.4176 134.121 11.6288C133.806 12.3216 133.442 13.0079 133.113 13.7007C132.784 14.3936 132.49 15.5088 131.777 15.9245C131.063 16.3402 130.265 16.5843 129.531 16.9011C128.915 17.165 128.019 17.3696 127.508 17.7919C126.515 18.6167 128.243 19.1578 128.852 19.4019C129.622 19.7121 130.398 20.009 131.161 20.3389C131.567 20.5105 131.945 20.6623 132.203 21.0186C132.406 21.2957 132.525 21.6719 132.672 21.982C133.036 22.7276 133.421 23.4667 133.757 24.2189C133.904 24.5489 134.03 24.9646 134.352 25.1757C135.289 25.796 135.779 23.988 136.017 23.5063C136.409 22.7078 136.717 21.8236 137.199 21.078C137.64 20.3917 138.872 20.108 139.607 19.7913C140.194 19.5339 140.824 19.3294 141.405 19.0522C141.727 18.9004 142.153 18.6563 142.167 18.267C142.174 17.8183 141.72 17.6599 141.356 17.5213C140.425 17.1584 139.523 16.7361 138.613 16.3402C138.144 16.1356 137.584 15.9773 137.269 15.5681C137.032 15.2514 136.892 14.8555 136.724 14.5058L135.268 11.5166C135.128 11.2263 134.673 11.477 134.813 11.7673L134.855 11.7805Z" fill="#2B63A8"/>
<path d="M159.87 175.75L161.864 179.841C161.927 179.967 162.032 180.066 162.165 180.125L166.504 182.006C166.979 182.21 166.979 182.85 166.504 183.055L162.165 184.935C162.032 184.995 161.927 185.094 161.864 185.219L159.87 189.31C159.653 189.759 158.975 189.759 158.758 189.31L156.763 185.219C156.7 185.094 156.596 184.995 156.463 184.935L152.124 183.055C151.649 182.85 151.649 182.21 152.124 182.006L156.463 180.125C156.596 180.066 156.7 179.967 156.763 179.841L158.758 175.75C158.975 175.302 159.653 175.302 159.87 175.75Z" fill="white"/>
<path d="M159.646 175.876L161.473 179.617C161.676 180.033 161.885 180.27 162.333 180.468L164.593 181.445L165.741 181.946C165.909 182.019 166.238 182.092 166.364 182.217C167.007 182.844 165.37 183.273 165.09 183.398L162.571 184.487C162.144 184.672 161.816 184.79 161.585 185.206C161.221 185.846 160.934 186.539 160.612 187.199L160.073 188.301C159.961 188.538 159.856 188.908 159.681 189.112C159.059 189.818 158.681 188.558 158.534 188.248L157.379 185.879C157.176 185.463 157.029 184.955 156.582 184.718C155.987 184.401 155.315 184.17 154.692 183.9C153.979 183.589 153.167 183.339 152.495 182.949C152.264 182.817 151.719 182.732 152.285 182.217C152.439 182.078 152.796 181.993 152.992 181.913L155.77 180.706C156.281 180.481 156.778 180.356 157.05 179.861C157.449 179.135 157.778 178.37 158.142 177.624L158.744 176.39C158.821 176.232 159.199 175.209 159.646 175.882C159.828 176.153 160.283 175.902 160.101 175.631C159.625 174.925 158.807 175.13 158.457 175.796C158.051 176.575 157.687 177.374 157.302 178.165C157.064 178.647 156.827 179.591 156.33 179.921C155.749 180.303 154.937 180.528 154.301 180.805C153.566 181.122 152.747 181.392 152.047 181.781C151.348 182.171 151.362 182.916 152.047 183.299C152.733 183.682 153.566 183.959 154.301 184.276C154.937 184.553 155.756 184.777 156.33 185.16C156.827 185.49 157.064 186.427 157.302 186.915C157.687 187.7 158.051 188.505 158.457 189.284C158.8 189.944 159.639 190.162 160.101 189.449C160.458 188.895 160.696 188.235 160.976 187.648C161.326 186.928 161.613 186.103 162.053 185.43C162.347 184.982 163.096 184.817 163.579 184.606L166.259 183.444C166.84 183.193 167.462 182.685 166.93 182.039C166.749 181.821 166.441 181.729 166.182 181.61L164.726 180.976C163.964 180.646 162.998 180.382 162.305 179.927C162.053 179.762 161.969 179.472 161.851 179.221L161.158 177.809L160.101 175.645C159.961 175.354 159.506 175.605 159.646 175.895V175.876Z" fill="#2B63A8"/>
<path d="M159.639 175.882L161.466 179.624C161.669 180.039 161.886 180.283 162.333 180.475L164.593 181.451L165.741 181.953C165.909 182.026 166.238 182.098 166.364 182.223C166.986 182.844 165.37 183.266 165.09 183.391L162.571 184.48C162.144 184.665 161.816 184.79 161.578 185.199C161.214 185.84 160.927 186.532 160.605 187.192L160.066 188.294C159.954 188.532 159.849 188.901 159.674 189.106C159.059 189.799 158.688 188.545 158.541 188.241L157.386 185.873C157.183 185.457 157.036 184.949 156.589 184.705C155.994 184.388 155.322 184.157 154.699 183.886C153.986 183.576 153.174 183.325 152.502 182.936C152.278 182.804 151.74 182.725 152.292 182.217C152.446 182.078 152.81 181.993 152.999 181.913L155.777 180.706C156.288 180.481 156.785 180.349 157.057 179.855C157.456 179.129 157.785 178.363 158.149 177.618L158.751 176.384C158.807 176.272 158.856 176.087 158.94 175.994C159.059 175.856 159.087 175.051 159.639 175.882C159.821 176.159 160.29 175.902 160.108 175.625C159.632 174.912 158.8 175.117 158.45 175.79C158.044 176.568 157.68 177.367 157.295 178.159C157.057 178.64 156.82 179.584 156.33 179.907C155.749 180.29 154.937 180.514 154.301 180.792C153.566 181.108 152.747 181.379 152.047 181.768C151.348 182.157 151.355 182.916 152.047 183.299C152.747 183.688 153.566 183.959 154.301 184.276C154.937 184.553 155.756 184.777 156.33 185.16C156.827 185.483 157.064 186.427 157.295 186.908C157.68 187.694 158.044 188.499 158.45 189.277C158.8 189.944 159.639 190.162 160.108 189.442C160.465 188.888 160.703 188.228 160.983 187.641C161.333 186.922 161.62 186.097 162.06 185.424C162.354 184.982 163.103 184.81 163.579 184.606L166.259 183.444C166.847 183.193 167.469 182.672 166.931 182.026C166.749 181.801 166.441 181.715 166.182 181.597L164.726 180.963C163.964 180.633 162.991 180.369 162.305 179.914C162.053 179.749 161.97 179.465 161.851 179.215L161.158 177.802L160.101 175.638C159.954 175.341 159.486 175.598 159.632 175.895L159.639 175.882Z" fill="white"/>
<path d="M159.416 176.007L160.752 178.746C161.06 179.379 161.298 180.145 161.942 180.554C162.69 181.022 163.642 181.313 164.454 181.669C164.838 181.834 165.216 182.012 165.601 182.171C166.035 182.342 166.413 182.507 165.867 182.817C165.433 183.055 164.901 183.2 164.447 183.398C163.6 183.761 162.536 184.064 161.795 184.592C161.27 184.968 161.053 185.635 160.794 186.183C160.423 186.974 160.031 187.76 159.674 188.558C159.639 188.644 159.444 189.066 159.234 189.013C159.143 188.994 159.024 188.703 158.989 188.631C158.905 188.466 158.842 188.287 158.765 188.116C158.352 187.212 157.89 186.321 157.463 185.424C157.19 184.843 156.869 184.546 156.26 184.269C155.357 183.853 154.406 183.523 153.489 183.134C153.265 183.042 152.691 182.863 152.537 182.672C152.264 182.342 152.845 182.243 153.132 182.124C154.133 181.715 155.112 181.26 156.099 180.838C156.764 180.554 157.128 180.283 157.463 179.65C157.918 178.779 158.31 177.881 158.737 177.004C158.884 176.707 159.031 176.417 159.171 176.12C159.192 176.073 159.227 175.961 159.255 175.935C159.437 175.737 159.143 175.585 159.416 176.007C159.612 176.304 160.066 176.318 160.297 176.054C160.577 175.73 160.276 175.334 159.975 175.13C159.57 174.853 159.052 174.892 158.653 175.163C158.058 175.579 157.806 176.476 157.519 177.076C157.197 177.749 156.939 178.462 156.596 179.129C156.183 179.947 155.231 180.138 154.413 180.468C153.643 180.772 152.845 181.055 152.118 181.438C150.851 182.105 151.173 183.174 152.334 183.728C153.069 184.078 153.853 184.375 154.616 184.671C155.014 184.83 155.427 184.962 155.812 185.153C156.337 185.424 156.54 185.78 156.75 186.288C157.023 186.941 157.316 187.575 157.624 188.215C157.911 188.815 158.17 189.7 158.856 190.016C160.311 190.676 160.92 188.373 161.298 187.542C161.739 186.578 161.991 185.483 163.096 185.041C164.027 184.678 164.936 184.276 165.846 183.88C166.441 183.622 167.336 183.299 167.385 182.56C167.434 181.821 166.644 181.524 166.056 181.267C165.132 180.871 164.188 180.521 163.257 180.125C162.571 179.828 162.249 179.485 161.942 178.845C161.711 178.37 161.48 177.901 161.249 177.426L160.542 175.981C160.43 175.75 160.339 175.387 160.052 175.282C159.577 175.097 159.29 175.572 159.36 175.948C159.416 176.258 159.919 176.126 159.863 175.816C159.926 176.166 160.276 176.621 160.437 176.951L161.025 178.152C161.319 178.752 161.55 179.643 162.096 180.079C162.613 180.495 163.355 180.692 163.971 180.93C164.419 181.102 164.859 181.293 165.3 181.484C165.65 181.636 166.14 181.748 166.434 181.973C167.385 182.712 166.392 183.094 165.839 183.332C165.391 183.53 164.943 183.721 164.496 183.913C163.789 184.216 162.977 184.447 162.319 184.836C161.739 185.18 161.494 185.806 161.235 186.38C160.892 187.133 160.57 187.898 160.213 188.644C160.01 189.066 159.674 189.838 159.038 189.548C158.653 189.37 158.464 188.769 158.296 188.433C157.939 187.707 157.582 186.981 157.281 186.235C157.093 185.773 156.904 185.292 156.491 184.968C156.001 184.586 155.322 184.408 154.741 184.183C153.958 183.88 153.083 183.602 152.362 183.18C150.851 182.303 152.852 181.616 153.657 181.293C154.713 180.871 156.344 180.541 156.946 179.525C157.267 178.983 157.449 178.357 157.722 177.789C157.89 177.433 158.058 177.076 158.233 176.72C158.415 176.344 158.604 175.691 159.031 175.486C159.262 175.374 160.031 175.684 159.486 175.348C159.374 175.282 159.255 175.222 159.115 175.262C158.835 175.334 158.779 175.645 158.681 175.856C158.366 176.549 158.002 177.235 157.673 177.928C157.344 178.621 157.051 179.736 156.337 180.151C155.623 180.567 154.825 180.811 154.091 181.128C153.475 181.392 152.579 181.596 152.069 182.019C151.075 182.844 152.803 183.385 153.412 183.629C154.182 183.939 154.958 184.236 155.721 184.566C156.127 184.737 156.505 184.889 156.764 185.246C156.967 185.523 157.086 185.899 157.232 186.209C157.596 186.955 157.981 187.694 158.317 188.446C158.464 188.776 158.59 189.192 158.912 189.403C159.849 190.023 160.339 188.215 160.577 187.733C160.969 186.935 161.277 186.051 161.76 185.305C162.2 184.619 163.432 184.335 164.167 184.018C164.754 183.761 165.384 183.556 165.965 183.279C166.287 183.127 166.714 182.883 166.728 182.494C166.735 182.045 166.28 181.887 165.916 181.748C164.985 181.385 164.083 180.963 163.173 180.567C162.704 180.363 162.144 180.204 161.83 179.795C161.592 179.478 161.452 179.082 161.284 178.733L159.828 175.744C159.688 175.453 159.234 175.704 159.374 175.994L159.416 176.007Z" fill="#2B63A8"/>
<path d="M170.8 141.517L71.0341 86.4049V3.84302L170.8 58.9613V141.517Z" fill="white"/>
<path d="M171.857 139.808L161.9 134.311L138.004 121.114L109.274 105.244L84.3217 91.4595L76.149 86.946C74.8615 86.2334 73.595 85.4415 72.2655 84.8015C72.2096 84.7751 72.1536 84.7355 72.0906 84.7091L73.1332 86.4181V78.1699C73.1332 71.624 73.1332 65.0716 73.1332 58.5258V7.18852C73.1332 6.12614 73.2032 5.04397 73.1332 3.98819C73.1332 3.942 73.1332 3.89581 73.1332 3.84962L69.9775 5.55866L79.9345 11.0553L103.83 24.2525L132.56 40.1222L157.512 53.9067L165.685 58.4202C166.973 59.1328 168.239 59.9247 169.569 60.5648C169.624 60.5911 169.68 60.6307 169.743 60.6571L168.701 58.9481V67.1964C168.701 73.7422 168.701 80.2946 168.701 86.8405V131.355C168.701 134.687 168.589 138.033 168.701 141.365C168.701 141.411 168.701 141.457 168.701 141.503C168.701 144.05 172.899 144.057 172.899 141.503V60.8947C172.899 59.575 173.172 58.0573 171.808 57.2192C170.94 56.6914 170.016 56.2295 169.128 55.7412L153.888 47.3213L130.538 34.421L105.152 20.399L83.8109 8.61382L72.5874 2.41112L72.0906 2.13398C70.7192 1.37514 68.9349 2.34513 68.9349 3.84302V39.4492C68.9349 48.5157 68.9349 57.5756 68.9349 66.6421V84.4715C68.9349 85.7913 68.662 87.309 70.0264 88.147C70.8941 88.6749 71.8177 89.1368 72.7064 89.6251L87.9463 98.0449L111.296 110.945L136.682 124.967L158.023 136.752L169.247 142.955L169.743 143.232C172.08 144.526 174.194 141.101 171.864 139.814L171.857 139.808Z" fill="#2B63A8"/>
<path d="M100.548 173.803L0.782227 118.691L70.4393 85.8435L170.205 140.962L100.548 173.803Z" fill="white"/>
<path d="M100.947 173.163L90.9901 167.667L67.0947 154.469L38.3642 138.6L13.4122 124.815L5.2395 120.302L2.67852 118.89C2.2517 118.652 1.81087 118.335 1.34906 118.157C1.28608 118.131 1.2301 118.091 1.17413 118.065V119.345L8.10835 116.072L24.7617 108.22L44.8296 98.7572L62.2456 90.542L68.0043 87.8299C68.865 87.4208 69.9286 87.0843 70.7122 86.5564C70.7472 86.53 70.7892 86.5168 70.8312 86.5036H70.0335L79.9905 92.0003L103.886 105.197L132.616 121.067L157.568 134.852L165.741 139.365L168.302 140.777C168.729 141.015 169.17 141.332 169.632 141.51C169.695 141.536 169.751 141.576 169.806 141.602V140.322L162.872 143.595L146.219 151.447L126.151 160.91L108.735 169.125L102.976 171.837C102.088 172.259 101.122 172.622 100.268 173.11C100.233 173.13 100.191 173.15 100.149 173.163C99.2398 173.592 100.037 174.872 100.947 174.443L107.881 171.17L124.535 163.318L144.603 153.856L162.019 145.64L167.777 142.928C168.666 142.513 169.639 142.143 170.485 141.655C170.52 141.635 170.562 141.615 170.604 141.602C171.143 141.345 171.087 140.586 170.604 140.322L163.411 136.35L145.498 126.452L122.009 113.472L98.2392 100.341L79.4587 89.9679L73.5671 86.7148C72.6994 86.2331 71.8318 85.6722 70.9222 85.2565C70.1525 84.9068 69.1449 85.6326 68.4521 85.9559L62.0357 88.9781L39.8896 99.4237L15.6373 110.859L1.08316 117.722L0.383445 118.052C-0.155339 118.309 -0.0993619 119.068 0.383445 119.332L10.3405 124.828L34.2359 138.026L62.9663 153.895L87.9183 167.68C91.9347 169.897 95.8951 172.246 99.9815 174.344C100.037 174.377 100.093 174.41 100.156 174.437C101.031 174.918 101.829 173.638 100.954 173.157L100.947 173.163Z" fill="#2B63A8"/>
<path d="M109.043 164.235L20.5983 115.92L71.5588 91.8882L160.003 140.203L109.043 164.235Z" fill="#E0EBC5"/>
<path d="M109.176 164.018L100.352 159.201L79.1717 147.633L53.646 133.69L31.5908 121.641L24.3557 117.689L22.0747 116.442C21.7318 116.257 21.27 115.874 20.8781 115.788C20.8292 115.775 20.7732 115.729 20.7312 115.709V116.138L30.0515 111.743L49.6436 102.505L67.2415 94.2043L71.3769 92.2511C71.4538 92.2181 71.6148 92.1719 71.6708 92.1125C71.6568 92.1257 71.3979 92.0135 71.4748 92.1257C71.5658 92.2643 71.9576 92.3897 72.0976 92.4689L80.921 97.2924L96.9656 106.062L116.621 116.798L136.031 127.402L151.558 135.881L159.507 140.223L159.863 140.414V139.985L142.615 148.122L115.158 161.068L108.903 164.018C108.602 164.163 108.868 164.585 109.169 164.447L126.417 156.31L153.874 143.364L160.129 140.414C160.311 140.329 160.29 140.078 160.129 139.985L154.566 136.944L140.467 129.243L121.498 118.877L101.549 107.982L84.2517 98.533L73.49 92.6536C72.9652 92.3699 72.2935 91.8222 71.7057 91.677C71.118 91.5319 70.1174 92.2841 69.6346 92.5084L54.4717 99.6613L34.0958 109.269L21.109 115.392L20.4653 115.696C20.2834 115.782 20.3044 116.033 20.4653 116.125L29.2888 120.942L50.4693 132.509L75.995 146.452L98.0502 158.501L105.285 162.454C106.426 163.074 107.566 163.84 108.763 164.354C108.812 164.374 108.861 164.407 108.91 164.433C109.204 164.592 109.47 164.163 109.176 164.004V164.018Z" fill="#2B63A8"/>
<path d="M151.383 61.7985L97.8194 33.2792C95.9302 32.2696 93.6071 32.3158 91.7668 33.398L83.3352 38.3404L87.6595 79.6741L106.566 90.0867L102.787 98.8827L120.112 97.5432L149.242 119.2L153.349 116.29C155.917 114.475 157.421 111.625 157.421 108.596V71.6964C157.421 67.6184 155.126 63.8506 151.39 61.7919L151.383 61.7985Z" fill="#2B63A8"/>
<path d="M149.235 119.305L149.179 119.266L120.077 97.629L102.647 98.9751L102.703 98.8498L106.454 90.1198L87.5755 79.7204V79.6808L83.2443 38.2942L83.2932 38.2678L91.7249 33.3255C93.5931 32.2301 95.9512 32.1839 97.8684 33.2067L151.432 61.7259C155.175 63.7913 157.505 67.6119 157.505 71.703V108.603C157.505 111.638 155.966 114.535 153.398 116.356L149.242 119.305H149.235ZM120.133 97.4575L120.161 97.4773L149.242 119.094L153.293 116.224C155.819 114.429 157.331 111.579 157.331 108.596V71.6965C157.331 67.6647 155.035 63.8969 151.348 61.8645L97.7844 33.3453C95.9232 32.3555 93.6351 32.4017 91.8228 33.4641L83.4402 38.38L87.7505 79.6214L106.685 90.0472L106.657 90.1132L102.927 98.7838L120.14 97.4509L120.133 97.4575Z" fill="#2B63A8"/>
<path d="M149.368 69.1096L90.899 36.9018C87.1345 34.8298 82.4114 37.3901 82.4114 41.4944V82.1419C82.4114 84.0357 83.475 85.7844 85.2103 86.7346L101.318 95.6097L97.5394 104.406L114.864 103.066L143.686 118.942C147.45 121.014 152.173 118.454 152.173 114.35V73.7023C152.173 71.8085 151.11 70.0599 149.375 69.1096H149.368Z" fill="#DFFBFF"/>
<path d="M149.501 68.8985L143.294 65.4804L128.544 57.3575L111.121 47.7631L96.6648 39.7986L92.4035 37.4494C91.6128 37.0139 90.8151 36.5058 89.9405 36.2221C86.127 34.975 82.2156 37.7926 82.1456 41.501C82.1316 42.4248 82.1456 43.3486 82.1456 44.2724V77.6548C82.1456 79.0669 82.1456 80.4724 82.1456 81.8845C82.1526 84.1809 83.3351 86.0021 85.4203 87.1502L99.8275 95.0884L101.178 95.834L101.059 95.5569L97.2806 104.353C97.2176 104.498 97.3785 104.676 97.5324 104.663L108.42 103.818L114.165 103.376C114.347 103.363 114.529 103.343 114.711 103.337C114.913 103.323 114.788 103.317 114.739 103.304C114.962 103.376 115.186 103.548 115.382 103.66L137.325 115.742C139.509 116.943 141.664 118.329 143.945 119.371C146.527 120.552 149.704 119.761 151.362 117.55C152.209 116.422 152.425 115.142 152.425 113.802V74.9032C152.425 74.118 152.467 73.3195 152.292 72.5475C151.95 70.9968 150.914 69.7167 149.494 68.8919C149.207 68.7269 148.941 69.1492 149.228 69.3208C151.11 70.4095 151.894 72.1912 151.894 74.1906V112.548C151.894 113.142 151.908 113.743 151.894 114.337C151.838 117.306 149.137 119.721 145.953 119.404C144.736 119.286 143.763 118.711 142.741 118.151L138.802 115.98L116.502 103.693C116.026 103.429 115.396 102.914 114.844 102.822C114.543 102.776 114.137 102.875 113.836 102.901L111.317 103.093L98.4421 104.089L97.5185 104.161L97.7704 104.472L101.549 95.6757C101.591 95.5767 101.521 95.4447 101.43 95.3985L88.4291 88.239C86.3789 87.1106 83.8319 86.1209 82.9713 83.8641C82.5165 82.6764 82.6564 81.2907 82.6564 80.0435V42.3324C82.6564 42.0553 82.6564 41.7847 82.6564 41.5076C82.6914 39.5478 83.8319 37.7728 85.7212 36.915C87.6104 36.0571 89.6186 36.4926 91.3819 37.4626L94.7686 39.3301L107.867 46.5489L124.87 55.9124L140.334 64.4312L148.822 69.1096L149.214 69.3274C149.508 69.4857 149.773 69.0634 149.48 68.8985H149.501Z" fill="#2B63A8"/>
<path d="M63.6801 120.355L98.3162 140.117L124.269 127.118L90.7872 108.246L63.6801 120.355Z" fill="#2A4850"/>
<path d="M59.6635 120.005L94.2926 139.774L120.252 126.775L86.7706 107.903L59.6635 120.005Z" fill="#B0CDD0"/>
<path d="M59.5307 120.223L68.774 125.502L85.7072 135.169L91.9976 138.758L93.691 139.722C93.9429 139.867 94.1388 140.045 94.4327 139.992C94.7825 139.926 95.2024 139.61 95.5102 139.451L98.1972 138.105L106.398 133.994L115.039 129.666C116.733 128.821 118.475 128.029 120.126 127.118C120.21 127.072 120.294 127.033 120.371 126.993C120.546 126.907 120.532 126.657 120.371 126.564L111.044 121.305L94.3137 111.876L88.4431 108.563C87.9323 108.273 87.1136 107.54 86.4979 107.752C84.9095 108.299 83.3771 109.144 81.8517 109.83L73.3921 113.611L64.8066 117.445C63.1342 118.191 61.4129 118.883 59.7686 119.695C59.6846 119.735 59.6006 119.768 59.5237 119.807C59.2158 119.946 59.4817 120.368 59.7896 120.236L71.223 115.129L86.071 108.497C86.2739 108.405 86.5328 108.332 86.7148 108.207C87.0086 108.015 86.7847 108.293 86.6448 108.128C86.8197 108.326 87.2605 108.477 87.4915 108.609L92.5224 111.447L108.896 120.678L116.131 124.756L118.594 126.142C118.993 126.366 119.476 126.762 119.923 126.894C119.986 126.914 120.049 126.967 120.105 127V126.571L108.518 132.371L94.5306 139.372C94.4257 139.425 94.2507 139.478 94.1668 139.557C94.3697 139.366 94.4677 139.695 94.2927 139.497C94.0548 139.214 93.4111 138.996 93.0822 138.811L87.4775 135.611L70.8801 126.135L63.715 122.044C62.4835 121.338 61.259 120.493 59.9575 119.9C59.8945 119.873 59.8385 119.834 59.7826 119.801C59.4957 119.636 59.2298 120.065 59.5167 120.23L59.5307 120.223Z" fill="#2B63A8"/>
<path d="M83.5101 128.299L87.6104 130.503L103.431 120.678L99.3237 118.467L83.5101 128.299Z" fill="#DC6F5D"/>
<path d="M83.3772 128.51L87.4775 130.721C87.5545 130.76 87.6664 130.767 87.7434 130.721L101.584 122.116L103.557 120.889C103.718 120.79 103.739 120.559 103.557 120.46L99.4567 118.25C99.3797 118.21 99.2678 118.203 99.1908 118.25L85.3504 126.854L83.3772 128.081C83.0973 128.253 83.3562 128.682 83.6431 128.51L91.186 123.819L96.6228 120.44L98.4911 119.279C98.687 119.16 99.3028 118.909 99.4147 118.705C99.4777 118.586 99.2328 118.705 99.2188 118.692C99.2748 118.758 99.4287 118.804 99.5057 118.85L100.863 119.582L103.291 120.889V120.46L95.7482 125.152L90.3114 128.53L88.4431 129.692C88.2472 129.81 87.6315 130.061 87.5195 130.266C87.4565 130.384 87.7014 130.266 87.7154 130.279C87.6594 130.213 87.5055 130.167 87.4285 130.12L86.0711 129.388L83.6431 128.081C83.3492 127.923 83.0833 128.352 83.3772 128.51Z" fill="#2B63A8"/>
<path d="M77.4084 125.436L81.6627 127.633L92.8722 121.087L88.6179 118.89L77.4084 125.436Z" fill="#9CB2DB"/>
<path d="M77.2755 125.647L81.5298 127.844C81.6138 127.884 81.7118 127.89 81.7957 127.844L93.0052 121.298C93.1662 121.206 93.1802 120.962 93.0052 120.869L88.7509 118.672C88.667 118.633 88.569 118.626 88.485 118.672L77.2755 125.218C76.9887 125.383 77.2546 125.812 77.5414 125.647L83.671 122.064L87.5474 119.8C87.8623 119.616 88.3451 119.438 88.604 119.18C88.653 119.127 88.8839 119.068 88.618 119.101C88.3731 119.134 88.7789 119.253 88.9189 119.325L92.7393 121.298V120.869L86.6098 124.452L82.7334 126.716C82.4185 126.901 81.9357 127.079 81.6768 127.336C81.6278 127.389 81.3969 127.448 81.6628 127.415C81.9077 127.382 81.5018 127.264 81.3619 127.191L77.5414 125.218C77.2476 125.066 76.9817 125.495 77.2755 125.647Z" fill="#2B63A8"/>
<path d="M88.6669 131.156L92.7602 133.288L101.465 128.015L97.3714 125.884L88.6669 131.156Z" fill="#9CB2DB"/>
<path d="M88.534 131.368L92.6274 133.499C92.7044 133.539 92.8093 133.545 92.8933 133.499L101.598 128.233C101.759 128.134 101.78 127.897 101.598 127.804L97.5044 125.673C97.4275 125.633 97.3225 125.627 97.2385 125.673L88.534 130.939C88.2541 131.11 88.513 131.539 88.7999 131.368L97.5044 126.102H97.2385L101.332 128.233V127.804L92.6274 133.07H92.8933L88.7999 130.939C88.506 130.787 88.2401 131.209 88.534 131.368Z" fill="#2B63A8"/>
<path d="M55.1085 159.781L101.941 186.506L137.032 168.934L91.7668 143.41L55.1085 159.781Z" fill="#2A4850"/>
<path d="M54.6188 156.08L101.451 182.804L136.542 165.232L91.2771 139.715L54.6188 156.08Z" fill="#B0CDD0"/>
<path d="M54.4858 156.297L66.9408 163.404L89.7936 176.443L98.3582 181.333L100.695 182.666C100.975 182.824 101.262 183.075 101.591 183.015C102.081 182.923 102.682 182.468 103.116 182.25L106.811 180.402L117.824 174.886L136.353 165.608L136.682 165.443C136.857 165.357 136.843 165.107 136.682 165.014L124.136 157.941L101.521 145.192L93.5861 140.718C92.9564 140.362 92.3266 140.005 91.6969 139.656C91.403 139.491 91.284 139.458 90.9622 139.577C88.828 140.355 86.7638 141.451 84.6927 142.374L73.2173 147.502C67.0877 150.24 60.8952 152.886 54.8077 155.723C54.7027 155.77 54.5977 155.816 54.4928 155.862C54.1849 156.001 54.4508 156.423 54.7587 156.291L70.2505 149.369L90.3464 140.395C90.6193 140.269 90.9272 140.17 91.1861 140.019C91.5289 139.814 91.284 140.071 91.1581 139.926C91.389 140.197 92.0047 140.401 92.3196 140.58L99.1699 144.44L121.365 156.957L131.077 162.434L134.38 164.295C134.954 164.618 135.562 165.074 136.185 165.311C136.262 165.344 136.339 165.397 136.416 165.443V165.014L120.798 172.834L101.864 182.316C101.731 182.382 101.451 182.461 101.346 182.573C101.521 182.375 101.668 182.718 101.43 182.494C101.024 182.105 100.275 181.834 99.7856 181.557L92.2776 177.274L69.7467 164.42C64.8346 161.616 59.9856 158.66 54.9896 156.001C54.9126 155.961 54.8357 155.908 54.7517 155.869C54.4648 155.704 54.1989 156.132 54.4858 156.297Z" fill="#2B63A8"/>
<path d="M41.31 119.906C42.0727 120.263 42.9823 120.21 43.696 119.768L66.3039 105.765L67.4375 104.004L69.7046 82.3404C69.8025 81.4166 69.2917 80.5258 68.4171 80.1035L66.4929 79.1665C66.4929 79.0873 65.7722 79.3314 65.6952 79.371L58.712 82.7957L57.6204 83.8383L56.151 86.6163C55.9341 87.032 55.5912 87.3751 55.1644 87.6061L39.6726 96.0853C38.9029 96.5076 38.4271 97.2863 38.4271 98.1243C38.4271 102.169 38.6091 115.373 38.644 118.144C38.644 118.461 38.84 118.745 39.1408 118.884L41.31 119.9V119.906Z" fill="#2B63A8"/>
<path d="M41.1771 120.117C42.7585 120.751 43.836 119.979 45.0745 119.213L49.7836 116.297L62.2317 108.589L66.0381 106.234C66.4719 105.963 66.5629 105.858 66.8708 105.382C67.2626 104.769 67.6755 104.3 67.7524 103.607L68.9629 92.0268C69.2988 88.8133 69.7956 85.5733 69.9775 82.34C70.0475 81.1061 69.3338 80.2681 68.2282 79.727C67.7454 79.496 67.2626 79.2057 66.7658 79.0143C66.381 78.8625 66.1151 78.9417 65.7093 79.1067C64.0019 79.7798 62.3716 80.73 60.7343 81.535C60.0485 81.8715 59.2508 82.1553 58.6141 82.571C57.6835 83.1846 57.2706 83.9765 56.7878 84.8871C56.305 85.7977 55.9412 86.8535 55.0245 87.4012C54.6607 87.6189 54.2758 87.8103 53.905 88.0148L41.9118 94.5805C40.8762 95.1479 39.2669 95.7352 38.6021 96.7316C37.9374 97.728 38.1683 98.9487 38.1753 100.018C38.1823 101.298 38.1963 102.571 38.2103 103.852C38.2383 106.92 38.2803 109.995 38.3152 113.063C38.3292 114.225 38.3432 115.393 38.3642 116.554C38.3712 117.28 38.1543 118.461 38.805 118.982C39.4558 119.503 40.4214 119.774 41.1771 120.13C41.478 120.269 41.7439 119.847 41.443 119.701C40.6873 119.352 39.1199 118.976 38.91 118.085C38.7421 117.372 38.889 116.455 38.875 115.729C38.84 113.05 38.805 110.371 38.7771 107.699C38.7491 105.026 38.7141 102.34 38.7001 99.6614C38.6931 98.4077 38.5252 97.0813 39.8196 96.3027C40.1345 96.1179 40.4634 95.953 40.7853 95.7748L52.1697 89.5457C53.2123 88.9782 54.2828 88.4437 55.2974 87.8367C57.1307 86.7347 57.0747 84.2074 58.866 83.0197C59.4188 82.6568 60.1115 82.406 60.7133 82.1157L63.981 80.5122C64.5897 80.2153 65.1915 79.8721 65.8212 79.6082C66.1781 79.4564 66.311 79.4036 66.5909 79.5026C67.1227 79.6808 67.6615 80.0173 68.1653 80.2681C69.7746 81.0797 69.4388 82.4852 69.2918 83.8709L68.718 89.328L67.3886 102.037L67.2206 103.621C67.2067 103.726 67.2206 103.871 67.1857 103.97C67.1437 104.089 67.1927 103.865 67.0527 104.155C66.8428 104.564 66.5069 105.25 66.1851 105.567C65.6393 106.102 64.7087 106.484 64.0579 106.887L43.892 119.378C43.1503 119.84 42.3596 120.064 41.464 119.701C41.1561 119.576 40.8902 120.005 41.1981 120.13L41.1771 120.117Z" fill="#2B63A8"/>
<path d="M43.598 119.886L69.1308 106.53C69.6486 106.26 69.9635 105.752 69.9635 105.191V81.9637C69.9635 80.809 68.662 80.0699 67.5774 80.611L61.084 83.8707C60.7902 84.0225 60.5452 84.2534 60.3983 84.5372L58.67 87.7903C58.5301 88.0543 58.3061 88.2786 58.0333 88.4304L41.8697 97.2725C41.3729 97.5431 41.0651 98.0446 41.0651 98.5922C41.0651 101.865 41.0651 113.446 41.184 118.586C41.212 119.734 42.5275 120.447 43.5911 119.886H43.598Z" fill="#6CA9AE"/>
<path d="M43.731 120.097L63.9109 109.539L68.2492 107.269C69.2008 106.768 70.1454 106.372 70.2224 105.171C70.2854 104.175 70.2224 103.159 70.2224 102.156V83.3891C70.2224 82.3069 70.4323 81.0004 69.2148 80.3933C68.3961 79.9842 67.6684 80.2877 66.9337 80.6573L64.0439 82.109C62.6514 82.8084 60.7202 83.3759 59.9785 84.7748C59.3278 86.0087 58.817 87.7178 57.5085 88.437L46.4529 94.488C44.9835 95.293 43.5071 96.0848 42.0377 96.9031C41.4499 97.233 40.9531 97.6157 40.8272 98.302C40.6523 99.2324 40.7992 100.295 40.7992 101.238C40.7992 104.28 40.8062 107.322 40.8272 110.364C40.8342 111.941 40.8482 113.518 40.8622 115.089C40.8762 116.296 40.7152 117.669 40.9461 118.863C41.177 120.058 42.5765 120.612 43.717 120.104C44.0249 119.965 43.759 119.543 43.4511 119.675C42.2616 120.203 41.4849 119.332 41.4289 118.289C41.394 117.669 41.408 117.049 41.394 116.435C41.373 115.003 41.359 113.571 41.352 112.146C41.331 109.111 41.317 106.075 41.317 103.04C41.317 101.892 41.317 100.75 41.317 99.6019C41.317 98.7375 41.261 97.9391 42.1427 97.4112C43.3392 96.6919 44.6057 96.065 45.8372 95.392L56.9907 89.2883C57.3546 89.0903 57.7324 88.8989 58.0963 88.6812C58.663 88.3447 58.9009 87.896 59.1878 87.3549C59.6426 86.5036 60.0555 85.6194 60.5453 84.788C60.9091 84.1677 61.4759 83.95 62.1056 83.6332C63.8969 82.7358 65.6602 81.779 67.4795 80.9344C68.4941 80.4593 69.6136 80.842 69.6836 82.0166C69.7046 82.3399 69.6836 82.6698 69.6836 82.9932C69.6836 86.7676 69.6836 90.542 69.6836 94.3098V104.709C69.6836 105.343 69.6346 105.904 68.9769 106.306C68.816 106.405 68.641 106.484 68.4731 106.57L64.9605 108.404L43.9549 119.391L43.4511 119.655C43.1573 119.807 43.4231 120.236 43.717 120.084L43.731 120.097Z" fill="#2B63A8"/>
<path d="M51.218 111.532L33.704 121.094C32.5845 121.707 31.178 120.942 31.178 119.721V40.1681C31.178 38.6966 32.0107 37.3439 33.3542 36.6049L49.7556 27.6505C51.3719 26.7663 53.3941 27.8683 53.3941 29.6301V107.976C53.3941 109.447 52.5615 110.8 51.218 111.539V111.532Z" fill="#DFFBFF"/>
<path d="M51.0851 111.321L41.8768 116.349L35.9222 119.602C34.9986 120.11 33.1653 121.549 32.0668 120.836C31.374 120.387 31.437 119.695 31.437 119.021V54.1109C31.437 49.4985 31.388 44.8794 31.437 40.267C31.458 38.5712 32.4376 37.39 33.928 36.5718L38.5182 34.0643L49.5457 28.0398C50.3924 27.5779 51.337 27.3601 52.2187 27.954C52.8414 28.3763 53.1073 29.0164 53.1283 29.7158C53.1423 30.1975 53.1283 30.6792 53.1283 31.1609V107.579C53.1283 109.117 52.5266 110.463 51.0781 111.308C50.7913 111.473 51.0571 111.902 51.344 111.737C52.8904 110.833 53.6461 109.381 53.6531 107.698C53.6531 107.078 53.6531 106.458 53.6531 105.844V33.3516C53.6531 32.1111 53.7091 30.864 53.6531 29.63C53.5621 27.4921 51.2671 26.5617 49.4058 27.5515C47.9294 28.3367 46.474 29.1549 45.0046 29.9534L33.5852 36.1891C31.9758 37.0667 30.9542 38.3996 30.9122 40.201C30.9052 40.6233 30.9122 41.0456 30.9122 41.4745V119.371C30.9122 120.394 31.388 121.39 32.6125 121.536C33.7391 121.674 35.0686 120.632 35.9782 120.137L48.5522 113.268L51.344 111.743C51.6379 111.585 51.372 111.156 51.0781 111.314L51.0851 111.321Z" fill="#2B63A8"/>
<path d="M52.8203 112.1L35.3063 121.661C34.1868 122.275 32.7803 121.509 32.7803 120.289V40.7356C32.7803 39.2641 33.613 37.9114 34.9565 37.1724L51.3579 28.218C52.9742 27.3338 54.9964 28.4358 54.9964 30.1976V108.543C54.9964 110.015 54.1638 111.367 52.8203 112.106V112.1Z" fill="#DFFBFF"/>
<path d="M52.6875 111.882L43.4792 116.91L37.5246 120.163C36.6009 120.671 34.7677 122.11 33.6691 121.397C32.9764 120.949 33.0394 120.256 33.0394 119.583V54.6786C33.0394 50.0662 32.9904 45.4472 33.0394 40.8347C33.0604 39.1389 34.04 37.9578 35.5304 37.1395L40.1205 34.632L51.1481 28.6075C51.9948 28.1456 52.9394 27.9279 53.821 28.5217C54.4438 28.944 54.7097 29.5841 54.7307 30.2836C54.7447 30.7653 54.7307 31.247 54.7307 31.7287V108.147C54.7307 109.685 54.1289 111.031 52.6805 111.875C52.3936 112.04 52.6595 112.469 52.9464 112.304C54.4928 111.4 55.2485 109.949 55.2555 108.266C55.2555 107.646 55.2555 107.025 55.2555 106.412V33.9194C55.2555 32.6789 55.3114 31.4317 55.2555 30.1978C55.1645 28.0598 52.8694 27.1294 51.0082 28.1192C49.5318 28.9044 48.0763 29.7227 46.6069 30.5211L35.1875 36.7568C33.5782 37.6344 32.5566 38.9673 32.5146 40.7688C32.5076 41.1911 32.5146 41.6134 32.5146 42.0423V119.939C32.5146 120.962 32.9904 121.958 34.2149 122.103C35.3415 122.242 36.6709 121.199 37.5806 120.704L50.1545 113.835L52.9464 112.311C53.2403 112.153 52.9744 111.724 52.6805 111.882H52.6875Z" fill="#2B63A8"/>
<path d="M54.9966 112.496L37.4826 122.057C36.363 122.671 34.9566 121.905 34.9566 120.685V41.1317C34.9566 39.6602 35.7893 38.3075 37.1327 37.5685L53.5342 28.6141C55.1505 27.7299 57.1727 28.8319 57.1727 30.5937V108.939C57.1727 110.411 56.34 111.763 54.9966 112.502V112.496Z" fill="#DFFBFF"/>
<path d="M54.8636 112.284L45.6553 117.313L39.7007 120.566C38.7771 121.074 36.9438 122.512 35.8453 121.8C35.1525 121.351 35.2155 120.658 35.2155 119.985V55.081C35.2155 50.4686 35.1665 45.8495 35.2155 41.2371C35.2365 39.5413 36.2161 38.3601 37.7065 37.5419L42.2967 35.0344L53.3243 29.0099C54.1709 28.548 55.1155 28.3302 55.9972 28.9241C56.6199 29.3464 56.8858 29.9865 56.9068 30.6859C56.9208 31.1676 56.9068 31.6493 56.9068 32.131V108.55C56.9068 110.087 56.3051 111.433 54.8566 112.278C54.5698 112.443 54.8356 112.872 55.1225 112.707C56.6689 111.803 57.4246 110.351 57.4316 108.668C57.4316 108.048 57.4316 107.428 57.4316 106.814V34.3151C57.4316 33.0746 57.4876 31.8275 57.4316 30.5935C57.3406 28.4556 55.0456 27.5252 53.1843 28.515C51.7079 29.3002 50.2525 30.1184 48.7831 30.9169L37.3637 37.1526C35.7543 38.0302 34.7327 39.3631 34.6907 41.1645C34.6837 41.5868 34.6907 42.0091 34.6907 42.438V120.335C34.6907 121.358 35.1665 122.354 36.391 122.499C37.5176 122.638 38.8471 121.595 39.7567 121.1L52.3307 114.231L55.1225 112.707C55.4164 112.548 55.1505 112.119 54.8566 112.278L54.8636 112.284Z" fill="#2B63A8"/>
<path d="M56.5987 113.063L39.0848 122.625C37.9652 123.238 36.5588 122.473 36.5588 121.252V41.6991C36.5588 40.2276 37.3914 38.8749 38.7349 38.1359L55.1363 29.1815C56.7527 28.2973 58.7749 29.3993 58.7749 31.1611V109.507C58.7749 110.978 57.9422 112.331 56.5987 113.07V113.063Z" fill="#DFFBFF"/>
<path d="M56.4659 112.852L47.2576 117.88L41.303 121.133C40.3793 121.641 38.5461 123.08 37.4475 122.367C36.7548 121.919 36.8178 121.226 36.8178 120.553V55.642C36.8178 51.0296 36.7688 46.4106 36.8178 41.7981C36.8387 40.1023 37.8184 38.9211 39.3088 38.1029L43.8989 35.5954L54.9265 29.5709C55.7731 29.109 56.7178 28.8912 57.5994 29.4851C58.2222 29.9074 58.4881 30.5475 58.5091 31.2469C58.523 31.7286 58.5091 32.2103 58.5091 32.692V109.111C58.5091 110.648 57.9073 111.994 56.4589 112.839C56.172 113.004 56.4379 113.433 56.7248 113.268C58.2711 112.364 59.0268 110.912 59.0338 109.229C59.0338 108.609 59.0338 107.989 59.0338 107.375V34.8828C59.0338 33.6422 59.0898 32.3951 59.0338 31.1612C58.9429 29.0232 56.6478 28.0928 54.7865 29.0826C53.3101 29.8678 51.8547 30.6861 50.3853 31.4845L38.9659 37.7202C37.3565 38.5978 36.3349 39.9307 36.293 41.7321C36.286 42.1545 36.293 42.5768 36.293 43.0057V120.902C36.293 121.925 36.7688 122.922 37.9933 123.067C39.1198 123.205 40.4493 122.163 41.3589 121.668L53.9329 114.799L56.7248 113.274C57.0187 113.116 56.7528 112.687 56.4589 112.845L56.4659 112.852Z" fill="#2B63A8"/>
<path d="M132.724 85.3602C133.196 84.4419 132.682 83.2879 131.576 82.7826C130.47 82.2773 129.191 82.6121 128.719 83.5304C128.247 84.4487 128.761 85.6027 129.867 86.108C130.973 86.6133 132.252 86.2785 132.724 85.3602Z" fill="#2B63A8"/>
<path d="M118.59 78.9029C119.062 77.9846 118.548 76.8306 117.442 76.3253C116.336 75.82 115.057 76.1548 114.585 77.0731C114.114 77.9914 114.628 79.1455 115.734 79.6508C116.839 80.1561 118.118 79.8213 118.59 78.9029Z" fill="#2B63A8"/>
<path d="M104.457 72.4364C104.929 71.5181 104.415 70.364 103.309 69.8587C102.203 69.3534 100.924 69.6882 100.452 70.6065C99.9806 71.5249 100.495 72.6789 101.601 73.1842C102.707 73.6895 103.986 73.3547 104.457 72.4364Z" fill="#2B63A8"/>
<path d="M185.634 122.46L168.645 113.413L163.803 107.164L161.753 107.54L161.977 109.771L151.887 104.485C150.697 103.852 149.235 103.878 148.073 104.558L142.762 107.672L145.484 133.717L157.393 140.276L158.744 144.328L165.923 144.974L184.277 158.62L186.866 156.786C188.482 155.638 189.434 153.843 189.434 151.943V128.696C189.434 126.129 187.985 123.753 185.634 122.453V122.46Z" fill="#2B63A8"/>
<path d="M184.284 158.732L184.228 158.692L165.895 145.06L158.681 144.413L158.667 144.36L157.324 140.335L145.4 133.77V133.73L142.664 107.632L142.713 107.606L148.024 104.491C149.214 103.792 150.711 103.766 151.929 104.412L161.872 109.619L161.655 107.467L161.732 107.454L163.838 107.065L163.873 107.105L168.701 113.34L185.676 122.38C188.048 123.687 189.518 126.102 189.518 128.695V151.949C189.518 153.869 188.545 155.71 186.915 156.858L184.277 158.732H184.284ZM158.814 144.261L165.965 144.901L165.986 144.915L184.291 158.521L186.824 156.726C188.412 155.604 189.357 153.816 189.357 151.949V128.695C189.357 126.168 187.915 123.799 185.599 122.525L168.582 113.452L163.775 107.243L161.851 107.599L162.082 109.909L161.935 109.83L151.845 104.544C150.676 103.924 149.249 103.95 148.115 104.617L142.846 107.705L145.561 133.657L157.463 140.216L158.807 144.248L158.814 144.261Z" fill="#2B63A8"/>
<path d="M184.368 127.065L169.918 119.108L161.487 106.794L160.472 113.908L147.52 106.775C145.148 105.468 142.175 107.078 142.175 109.671V135.287C142.175 136.482 142.846 137.584 143.938 138.184L154.091 143.773L162.62 148.471L180.778 158.475C183.15 159.781 186.124 158.171 186.124 155.578V129.962C186.124 128.768 185.452 127.666 184.361 127.065H184.368Z" fill="#DFFBFF"/>
<path d="M184.501 126.854L172.312 120.137C171.612 119.754 170.926 119.345 170.219 118.982C169.961 118.85 170.177 118.995 170.107 118.923C169.947 118.738 169.828 118.514 169.688 118.309L165.37 112.001L161.718 106.669C161.613 106.511 161.27 106.504 161.235 106.729L160.22 113.842L160.605 113.697L148.745 107.164C148.206 106.867 147.66 106.517 147.08 106.306C145.533 105.752 143.742 106.234 142.72 107.461C141.699 108.688 141.916 110.239 141.916 111.684V133.816C141.916 135.611 141.951 137.313 143.805 138.402C147.157 140.368 150.634 142.163 154.042 144.037C157.198 145.773 160.353 147.515 163.502 149.25L177.371 156.891C178.63 157.584 179.939 158.528 181.324 158.99C184.011 159.88 186.369 157.795 186.383 155.314C186.404 150.939 186.383 146.571 186.383 142.196C186.383 138.145 186.474 134.087 186.383 130.035C186.355 128.695 185.69 127.574 184.494 126.861C184.207 126.689 183.941 127.118 184.228 127.29C186.075 128.392 185.858 130.18 185.858 131.929V153.434C185.858 154.879 186.117 156.588 184.955 157.716C183.794 158.845 182.185 158.93 180.813 158.211C180.309 157.947 179.813 157.663 179.316 157.386L165.727 149.903C162.725 148.247 159.724 146.597 156.722 144.941C153.223 143.014 149.718 141.088 146.219 139.154C144.47 138.191 142.462 137.406 142.434 135.162C142.42 133.796 142.434 132.43 142.434 131.064V110.259C142.434 109.672 142.434 109.104 142.664 108.537C143.413 106.729 145.659 106.108 147.409 107.006C151.355 109.025 155.189 111.288 159.066 113.426L160.339 114.126C160.472 114.198 160.703 114.139 160.724 113.981L161.739 106.867L161.256 106.927L168.918 118.118C169.177 118.494 169.422 119.028 169.786 119.332C170.177 119.655 170.765 119.873 171.213 120.117L178.581 124.175L184.235 127.29C184.529 127.448 184.795 127.026 184.501 126.861V126.854Z" fill="#2B63A8"/>
<path d="M173.886 137.306C174.183 136.728 173.857 136.002 173.158 135.682C172.459 135.363 171.651 135.572 171.355 136.149C171.058 136.726 171.385 137.453 172.084 137.773C172.783 138.092 173.59 137.883 173.886 137.306Z" fill="#2B63A8"/>
<path d="M164.977 133.238C165.273 132.661 164.947 131.934 164.248 131.615C163.549 131.295 162.742 131.504 162.445 132.082C162.149 132.659 162.475 133.386 163.174 133.705C163.873 134.025 164.68 133.816 164.977 133.238Z" fill="#2B63A8"/>
<path d="M156.073 129.167C156.37 128.59 156.044 127.863 155.345 127.544C154.645 127.225 153.838 127.434 153.542 128.011C153.245 128.588 153.572 129.315 154.271 129.634C154.97 129.954 155.777 129.745 156.073 129.167Z" fill="#2B63A8"/>
<path d="M110.386 161.18C110.386 165.397 106.37 168.966 100.821 170.187C100.639 170.227 100.275 170.299 100.275 170.299L96.8118 159.926L86.9038 167.871C86.9038 167.871 86.5889 167.653 86.442 167.535C84.2239 165.858 82.8734 163.628 82.8734 161.187C82.8734 155.967 89.0309 151.731 96.6299 151.731C104.229 151.731 110.386 155.961 110.386 161.187V161.18Z" fill="#9CB2DB"/>
<path d="M110.12 161.18C110.043 166.175 104.844 169.145 100.205 170.062L100.527 170.233L97.0636 159.86C97.0006 159.676 96.7767 159.629 96.6228 159.748L86.7148 167.693L87.0296 167.653C84.5176 165.878 82.6984 163.16 83.2232 160.104C83.65 157.623 85.5042 155.598 87.7014 154.284C92.8933 151.163 100.366 151.157 105.558 154.284C108.105 155.815 110.078 158.244 110.12 161.187C110.12 161.503 110.652 161.503 110.645 161.187C110.554 155.037 103.403 151.823 97.7423 151.513C91.9976 151.203 84.2028 153.592 82.7963 159.603C81.9987 163.008 83.9509 166.089 86.7707 168.082C86.8687 168.148 87.0086 168.109 87.0856 168.043L96.9936 160.098L96.5528 159.986L100.016 170.359C100.058 170.491 100.198 170.557 100.338 170.53C105.222 169.567 110.561 166.393 110.638 161.173C110.638 160.857 110.12 160.857 110.113 161.173L110.12 161.18Z" fill="#2B63A8"/>
<path d="M87.1348 169.066L96.2522 161.655L99.7438 171.441C98.1204 171.533 95.9863 171.514 93.5373 171.078C90.8433 170.596 88.6812 169.778 87.1348 169.066Z" fill="#DC6F5D"/>
<path d="M87.3236 169.244L95.2934 162.77L96.4409 161.833L96.0001 161.721L99.0579 170.28L99.4987 171.507L99.7506 171.197C95.4473 171.434 91.1441 170.636 87.2746 168.854C86.9737 168.716 86.7079 169.145 87.0087 169.283C90.9621 171.105 95.3564 171.936 99.7506 171.698C99.9116 171.692 100.058 171.547 100.003 171.388L96.9447 162.83L96.5039 161.603C96.4409 161.418 96.217 161.372 96.0631 161.49L88.0933 167.964L86.9458 168.901C86.6869 169.112 87.0647 169.455 87.3166 169.25L87.3236 169.244Z" fill="#2B63A8"/>
<path d="M80.7951 33.7743C90.6185 33.7743 98.582 26.2645 98.582 17.0006C98.582 7.73676 90.6185 0.226929 80.7951 0.226929C70.9717 0.226929 63.0082 7.73676 63.0082 17.0006C63.0082 26.2645 70.9717 33.7743 80.7951 33.7743Z" fill="#E0EBC5"/>
<path d="M98.3161 17.0005C98.2671 23.8762 93.6699 30.1779 86.7847 32.5336C79.8995 34.8893 72.0206 32.8701 67.3325 27.578C62.6444 22.286 61.9796 14.427 65.7861 8.47505C69.5716 2.54289 77.1076 -0.584852 84.3077 0.807456C92.4104 2.37133 98.2601 9.24049 98.3161 17.0005C98.3161 17.3172 98.8409 17.3172 98.8409 17.0005C98.7919 9.89375 94.0338 3.42051 86.9246 0.992217C79.8085 -1.44267 71.5938 0.715075 66.8147 6.24472C62.0356 11.7744 61.4339 19.6927 65.3313 25.7832C69.2287 31.8738 76.8487 35.0411 84.2167 33.7214C92.6483 32.2103 98.7849 25.0508 98.8409 17.0071C98.8409 16.6903 98.3161 16.6903 98.3161 17.0071V17.0005Z" fill="#2B63A8"/>
<path d="M76.0299 32.7715C85.4862 32.7715 93.152 25.5424 93.152 16.6247C93.152 7.70708 85.4862 0.477905 76.0299 0.477905C66.5736 0.477905 58.9078 7.70708 58.9078 16.6247C58.9078 25.5424 66.5736 32.7715 76.0299 32.7715Z" fill="#A5C661"/>
<path d="M92.8862 16.6249C92.8372 23.2301 88.429 29.2942 81.8097 31.5641C75.1973 33.8341 67.6263 31.9073 63.0992 26.8329C58.572 21.7586 57.9072 14.2098 61.5458 8.47557C65.1843 2.74137 72.3914 -0.2676 79.3187 1.03233C87.1555 2.50382 92.8302 9.12883 92.8862 16.6315C92.8862 16.9482 93.411 16.9482 93.411 16.6315C93.362 9.79529 88.7929 3.5596 81.9496 1.21709C75.1063 -1.12542 67.1925 0.926749 62.5814 6.23864C57.9702 11.5505 57.3685 19.2445 61.1539 25.1239C64.9254 30.9769 72.3355 34.0452 79.4586 32.7057C87.5194 31.1946 93.355 24.3386 93.411 16.6315C93.411 16.3147 92.8862 16.3147 92.8862 16.6315V16.6249Z" fill="#2B63A8"/>
<path d="M76.03 16.6237C78.6694 16.6237 80.8091 14.2012 80.8091 11.2129C80.8091 8.22453 78.6694 5.802 76.03 5.802C73.3906 5.802 71.2509 8.22453 71.2509 11.2129C71.2509 14.2012 73.3906 16.6237 76.03 16.6237Z" fill="white"/>
<path d="M70.9851 11.2129C71.013 13.3839 72.1326 15.6802 74.3577 16.5512C76.4359 17.3694 78.661 16.4984 79.9135 14.8224C81.3129 12.9484 81.4389 10.3221 80.3473 8.28973C79.3677 6.46191 77.3035 5.19498 75.0994 5.65028C72.4405 6.19797 71.013 8.82422 70.9851 11.2129C70.9851 11.5297 71.5028 11.5297 71.5098 11.2129C71.5378 9.28612 72.4825 7.22735 74.4277 6.38273C76.3729 5.53811 78.4371 6.38273 79.5426 7.973C80.7391 9.67544 80.8721 11.9916 79.9275 13.8194C79.0528 15.5152 77.1496 16.7624 75.0994 16.2675C72.7483 15.7 71.5378 13.3443 71.5098 11.2129C71.5098 10.8962 70.9781 10.8962 70.9851 11.2129Z" fill="#2B63A8"/>
<path d="M64.6526 23.8825C65.6812 20.5832 68.8019 17.9767 72.7903 17.4884C78.1012 16.8352 82.9432 20.2005 83.608 24.9977C83.7409 25.9611 83.6919 26.9113 83.496 27.8153L64.6596 23.8759L64.6526 23.8825Z" fill="white"/>
<path d="M64.9046 23.9487C66.339 19.5738 71.237 16.9409 75.9811 17.8317C80.7252 18.7226 84.1748 23.104 83.2372 27.7561L83.5591 27.5845L67.0527 24.1334L64.7226 23.6451C64.3938 23.5791 64.2538 24.0542 64.5827 24.1202L81.0891 27.5713L83.4191 28.0596C83.5521 28.086 83.713 28.0266 83.741 27.888C84.5037 24.1004 82.6774 20.3128 79.1158 18.4058C75.5543 16.4988 71.244 16.809 68.0533 18.9997C66.311 20.194 65.0375 21.8767 64.4008 23.8167C64.3028 24.1202 64.8066 24.2522 64.9046 23.9487Z" fill="#2B63A8"/>
<path d="M58.5861 113.769L41.0721 123.331C39.9526 123.945 38.5461 123.179 38.5461 121.958V42.4054C38.5461 40.9339 39.3788 39.5812 40.7223 38.8422L57.1237 29.8878C58.74 29.0036 60.7622 30.1056 60.7622 31.8674V110.213C60.7622 111.684 59.9296 113.037 58.5861 113.776V113.769Z" fill="#DFFBFF"/>
<path d="M58.4531 113.558L49.2448 118.586L43.2902 121.839C42.3666 122.347 40.5333 123.786 39.4347 123.073C38.742 122.625 38.805 121.932 38.805 121.259V56.3481C38.805 51.7356 38.756 47.1166 38.805 42.5042C38.826 40.8083 39.8056 39.6272 41.296 38.809L45.8862 36.3015L56.9137 30.2769C57.7604 29.815 58.705 29.5973 59.5867 30.1912C60.2094 30.6135 60.4753 31.2535 60.4963 31.953C60.5103 32.4347 60.4963 32.9164 60.4963 33.3981V109.817C60.4963 111.354 59.8945 112.7 58.4461 113.545C58.1592 113.71 58.4251 114.139 58.712 113.974C60.2584 113.07 61.0141 111.618 61.0211 109.935C61.0211 109.315 61.0211 108.695 61.0211 108.081V35.5888C61.0211 34.3483 61.0771 33.1011 61.0211 31.8672C60.9301 29.7293 58.635 28.7989 56.7738 29.7886C55.2974 30.5739 53.842 31.3921 52.3726 32.1905L40.9531 38.4262C39.3438 39.3039 38.3222 40.6368 38.2802 42.4382C38.2732 42.8605 38.2802 43.2828 38.2802 43.7117V121.608C38.2802 122.631 38.756 123.628 39.9805 123.773C41.1071 123.911 42.4365 122.869 43.3462 122.374L55.9201 115.505L58.712 113.98C59.0059 113.822 58.74 113.393 58.4461 113.551L58.4531 113.558Z" fill="#2B63A8"/>
<path d="M42.1567 47.2288L55.5773 39.8185L57.5016 38.7562C57.7955 38.5978 57.5296 38.1689 57.2357 38.3272L43.8151 45.7375L41.8908 46.7999C41.597 46.9582 41.8629 47.3872 42.1567 47.2288Z" fill="#2B63A8"/>
<path d="M42.1567 52.5275L55.5773 45.1172L57.5016 44.0549C57.7955 43.8965 57.5296 43.4676 57.2357 43.626L43.8151 51.0362L41.8908 52.0986C41.597 52.2569 41.8629 52.6859 42.1567 52.5275Z" fill="#2B63A8"/>
<path d="M42.1567 57.8196L55.5773 50.4094L57.5016 49.347C57.7955 49.1886 57.5296 48.7597 57.2357 48.9181L43.8151 56.3283L41.8908 57.3907C41.597 57.5491 41.8629 57.978 42.1567 57.8196Z" fill="#2B63A8"/>
<path d="M42.1567 63.1117L55.5773 55.7015L57.5016 54.6391C57.7955 54.4807 57.5296 54.0518 57.2357 54.2102L43.8151 61.6204L41.8908 62.6828C41.597 62.8412 41.8629 63.2701 42.1567 63.1117Z" fill="#2B63A8"/>
<path d="M42.1567 68.4102L55.5773 60.9999L57.5016 59.9376C57.7955 59.7792 57.5296 59.3503 57.2357 59.5086L43.8151 66.9189L41.8908 67.9813C41.597 68.1396 41.8629 68.5685 42.1567 68.4102Z" fill="#2B63A8"/>
<path d="M42.1567 73.7023L55.5773 66.292L57.5016 65.2297C57.7955 65.0713 57.5296 64.6424 57.2357 64.8008L43.8151 72.211L41.8908 73.2734C41.597 73.4318 41.8629 73.8607 42.1567 73.7023Z" fill="#2B63A8"/>
<path d="M42.1566 78.9944L55.5772 71.5842L57.5015 70.5218C57.7953 70.3634 57.5294 69.9345 57.2356 70.0929L43.8149 77.5031L41.8907 78.5655C41.5968 78.7239 41.8627 79.1528 42.1566 78.9944Z" fill="#2B63A8"/>
<path d="M42.1567 84.2932L55.5773 76.883L57.5016 75.8206C57.7955 75.6622 57.5296 75.2333 57.2357 75.3917L43.8151 82.8019L41.8908 83.8643C41.597 84.0227 41.8629 84.4516 42.1567 84.2932Z" fill="#2B63A8"/>
<path d="M42.1567 89.585L55.5773 82.1747L57.5016 81.1124C57.7955 80.954 57.5296 80.5251 57.2357 80.6834L43.8151 88.0937L41.8908 89.1561C41.597 89.3144 41.8629 89.7434 42.1567 89.585Z" fill="#2B63A8"/>
<path d="M42.1567 94.8773L55.5773 87.4671L57.5016 86.4047C57.7955 86.2463 57.5296 85.8174 57.2357 85.9758L43.8151 93.3861L41.8908 94.4484C41.597 94.6068 41.8629 95.0357 42.1567 94.8773Z" fill="#2B63A8"/>
<path d="M42.1567 100.176L55.5773 92.7659L57.5016 91.7035C57.7955 91.5452 57.5296 91.1163 57.2357 91.2746L43.8151 98.6849L41.8908 99.7473C41.597 99.9056 41.8629 100.335 42.1567 100.176Z" fill="#2B63A8"/>
<path d="M42.1567 105.468L55.5773 98.0579L57.5016 96.9955C57.7955 96.8372 57.5296 96.4083 57.2357 96.5666L43.8151 103.977L41.8908 105.039C41.597 105.198 41.8629 105.627 42.1567 105.468Z" fill="#2B63A8"/>
<path d="M42.1567 110.76L55.5773 103.35L57.5016 102.288C57.7955 102.129 57.5296 101.7 57.2357 101.859L43.8151 109.269L41.8908 110.331C41.597 110.49 41.8629 110.919 42.1567 110.76Z" fill="#2B63A8"/>
<path d="M42.1567 116.053L55.5773 108.642L57.5016 107.58C57.7955 107.422 57.5296 106.993 57.2357 107.151L43.8151 114.561L41.8908 115.624C41.597 115.782 41.8629 116.211 42.1567 116.053Z" fill="#2B63A8"/>
<path d="M47.1387 121.477C47.9014 121.833 48.811 121.78 49.5247 121.338L72.1327 107.336L73.2662 105.574L75.5333 83.9106C75.6313 82.9868 75.1205 82.096 74.2458 81.6736L72.3216 80.7366C72.3216 80.6575 71.6009 80.9016 71.5239 80.9412L64.5407 84.3659L63.4492 85.4085L61.9797 88.1865C61.7628 88.6022 61.42 88.9453 60.9931 89.1763L45.5014 97.6555C44.7317 98.0778 44.2559 98.8564 44.2559 99.6945C44.2559 103.739 44.4378 116.943 44.4728 119.715C44.4728 120.031 44.6687 120.315 44.9696 120.454L47.1387 121.47V121.477Z" fill="#2B63A8"/>
<path d="M47.0057 121.688C48.587 122.321 49.6646 121.549 50.9031 120.784L55.6122 117.867L68.0602 110.16L71.8667 107.804C72.3005 107.534 72.3915 107.428 72.6993 106.953C73.0912 106.339 73.504 105.871 73.581 105.178L74.7915 93.5974C75.1274 90.3838 75.6242 87.1439 75.8061 83.9106C75.8761 82.6766 75.1623 81.8386 74.0568 81.2975C73.574 81.0666 73.0912 80.7762 72.5944 80.5849C72.2095 80.4331 71.9436 80.5123 71.5378 80.6773C69.8305 81.3503 68.2001 82.3005 66.5628 83.1055C65.8771 83.4421 65.0794 83.7258 64.4427 84.1415C63.512 84.7552 63.0992 85.547 62.6164 86.4576C62.1336 87.3683 61.7697 88.424 60.8531 88.9717C60.4892 89.1895 60.1044 89.3808 59.7335 89.5854L47.7404 96.151C46.7048 96.7185 45.0954 97.3058 44.4307 98.3022C43.766 99.2986 43.9969 100.519 44.0039 101.588C44.0109 102.868 44.0248 104.142 44.0388 105.422C44.0668 108.49 44.1088 111.565 44.1438 114.634C44.1578 115.795 44.1718 116.963 44.1928 118.124C44.1998 118.85 43.9829 120.031 44.6336 120.553C45.2843 121.074 46.25 121.345 47.0057 121.701C47.3065 121.839 47.5724 121.417 47.2715 121.272C46.5158 120.922 44.9485 120.546 44.7386 119.655C44.5706 118.943 44.7176 118.025 44.7036 117.3C44.6686 114.621 44.6336 111.942 44.6056 109.269C44.5776 106.597 44.5426 103.911 44.5286 101.232C44.5216 99.9782 44.3537 98.6519 45.6482 97.8733C45.9631 97.6885 46.2919 97.5235 46.6138 97.3454L57.9982 91.1163C59.0408 90.5488 60.1114 90.0143 61.126 89.4072C62.9592 88.3053 62.9033 85.778 64.6946 84.5902C65.2473 84.2273 65.9401 83.9766 66.5418 83.6862L69.8095 82.0828C70.4183 81.7858 71.02 81.4427 71.6498 81.1787C72.0066 81.027 72.1396 80.9742 72.4195 81.0732C72.9512 81.2513 73.49 81.5879 73.9938 81.8386C75.6032 82.6502 75.2673 84.0558 75.1204 85.4415L74.5466 90.8985L73.2171 103.607L73.0492 105.191C73.0352 105.297 73.0492 105.442 73.0142 105.541C72.9722 105.66 73.0212 105.435 72.8813 105.726C72.6714 106.135 72.3355 106.821 72.0136 107.138C71.4678 107.672 70.5372 108.055 69.8865 108.457L49.7206 120.949C48.9789 121.411 48.1882 121.635 47.2925 121.272C46.9847 121.147 46.7188 121.575 47.0266 121.701L47.0057 121.688Z" fill="#2B63A8"/>
<path d="M49.4199 121.457L74.9527 108.101C75.4705 107.831 75.7854 107.323 75.7854 106.762V83.5346C75.7854 82.3799 74.4839 81.6408 73.3993 82.1819L66.9059 85.4417C66.612 85.5934 66.3671 85.8244 66.2202 86.1081L64.4919 89.3612C64.352 89.6252 64.128 89.8495 63.8552 90.0013L47.6916 98.8434C47.1948 99.114 46.887 99.6155 46.887 100.163C46.887 103.436 46.887 115.017 47.0059 120.157C47.0339 121.305 48.3494 122.018 49.4129 121.457H49.4199Z" fill="#6CA9AE"/>
<path d="M49.5528 121.668L69.7327 111.11L74.071 108.84C75.0226 108.339 75.9672 107.943 76.0442 106.742C76.1071 105.746 76.0442 104.729 76.0442 103.726V84.9599C76.0442 83.8777 76.2541 82.5712 75.0366 81.9641C74.2179 81.555 73.4902 81.8585 72.7555 82.2281L69.8656 83.6798C68.4732 84.3792 66.542 84.9467 65.8003 86.3456C65.1495 87.5795 64.6387 89.2886 63.3303 90.0078L52.2747 96.0588C50.8053 96.8638 49.3289 97.6556 47.8595 98.4739C47.2717 98.8038 46.7749 99.1865 46.649 99.8728C46.474 100.803 46.621 101.866 46.621 102.809C46.621 105.851 46.628 108.893 46.649 111.935C46.656 113.512 46.67 115.089 46.684 116.66C46.6979 117.867 46.537 119.24 46.7679 120.434C46.9988 121.628 48.3983 122.183 49.5388 121.675C49.8467 121.536 49.5808 121.114 49.2729 121.246C48.0834 121.774 47.3067 120.903 47.2507 119.86C47.2157 119.24 47.2297 118.619 47.2157 118.006C47.1947 116.574 47.1808 115.142 47.1738 113.717C47.1528 110.681 47.1388 107.646 47.1388 104.611C47.1388 103.462 47.1388 102.321 47.1388 101.173C47.1388 100.308 47.0828 99.5098 47.9644 98.982C49.161 98.2627 50.4274 97.6358 51.659 96.9628L62.8125 90.8591C63.1763 90.6611 63.5542 90.4697 63.918 90.252C64.4848 89.9155 64.7227 89.4668 65.0096 88.9257C65.4644 88.0744 65.8772 87.1902 66.3671 86.3588C66.7309 85.7385 67.2977 85.5208 67.9274 85.204C69.7187 84.3066 71.482 83.3498 73.3013 82.5052C74.3159 82.0301 75.4354 82.4128 75.5054 83.5874C75.5264 83.9107 75.5054 84.2406 75.5054 84.564V106.287C75.5054 106.92 75.4564 107.481 74.7987 107.883C74.6377 107.982 74.4628 108.062 74.2949 108.147L70.7823 109.982L49.7767 120.969L49.2729 121.232C48.979 121.384 49.2449 121.813 49.5388 121.661L49.5528 121.668Z" fill="#2B63A8"/>
</svg>
