<svg width="127" height="201" viewBox="0 0 127 201" fill="none" xmlns="http://www.w3.org/2000/svg">
<path d="M64.9724 200.6C83.3326 200.6 98.2165 197.64 98.2165 193.99C98.2165 190.339 83.3326 187.379 64.9724 187.379C46.6122 187.379 31.7283 190.339 31.7283 193.99C31.7283 197.64 46.6122 200.6 64.9724 200.6Z" fill="#2A4850"/>
<path d="M65.4234 131.804C84.2676 131.804 99.5438 127.497 99.5438 122.183C99.5438 116.87 84.2676 112.562 65.4234 112.562C46.5793 112.562 31.3031 116.87 31.3031 122.183C31.3031 127.497 46.5793 131.804 65.4234 131.804Z" fill="#997C3A"/>
<path d="M99.2143 122.183C99.1536 125.104 94.9807 126.781 92.595 127.673C87.5806 129.546 82.1325 130.413 76.7971 130.945C70.0563 131.616 63.2288 131.673 56.4793 131.158C50.8664 130.733 45.1666 129.939 39.8139 128.213C37.94 127.607 36.0661 126.879 34.4178 125.832C33.316 125.137 32.1449 124.204 31.7545 122.96C30.8869 120.203 34.574 118.281 36.6908 117.324C41.3928 115.213 46.7455 114.28 51.8727 113.65C58.4834 112.84 65.2068 112.677 71.8608 113.037C77.7341 113.356 83.668 114.059 89.3244 115.638C91.3805 116.211 93.4365 116.906 95.3104 117.896C96.5944 118.567 97.9564 119.418 98.7198 120.637C99.0235 121.111 99.197 121.627 99.2057 122.183C99.2057 122.576 99.865 122.576 99.8563 122.183C99.7956 119.246 96.1779 117.487 93.7315 116.481C88.6998 114.411 83.1215 113.487 77.6994 112.897C70.412 112.104 63.0119 112.038 55.7072 112.652C49.9121 113.135 43.9868 113.977 38.5299 115.933C35.8666 116.882 31.8152 118.453 31.0604 121.414C30.3577 124.179 33.4375 126.159 35.6497 127.247C40.3171 129.538 45.7305 130.528 50.8837 131.207C58.0062 132.148 65.2502 132.336 72.4247 131.911C78.5669 131.551 84.8045 130.782 90.6691 128.974C93.6881 128.041 97.9564 126.642 99.4572 123.713C99.7002 123.23 99.8303 122.723 99.8476 122.191C99.8476 121.799 99.2057 121.799 99.197 122.191L99.2143 122.183Z" fill="#2B63A8"/>
<path d="M89.9666 188.819L77.3873 190.521C70.2214 191.486 62.9601 191.535 55.7769 190.66L40.0484 188.745C35.1381 188.148 31.4077 184.287 31.2342 179.615L29.5511 133.416H101.297L98.6333 179.893C98.373 184.434 94.7467 188.173 89.9753 188.819H89.9666Z" fill="#997C3A"/>
<path d="M89.8796 188.524C80.6663 189.768 71.4878 191.314 62.127 190.889C57.9368 190.692 53.7726 190.112 49.6171 189.604C46.4332 189.22 43.232 188.876 40.0568 188.443C35.1292 187.772 31.7284 183.902 31.5462 179.288C31.4682 177.316 31.3988 175.344 31.3294 173.373L30.4879 150.179L30.0975 139.462L29.9587 135.731C29.9326 135.101 30.0454 134.299 29.8806 133.686C29.8632 133.604 29.8806 133.506 29.8719 133.424L29.5422 133.735H101.296L100.967 133.424L99.8823 152.404L98.4162 177.971C98.3815 178.617 98.3555 179.255 98.3034 179.901C97.9911 184.319 94.4949 187.837 89.8796 188.533C89.4632 188.598 89.6454 189.187 90.0531 189.122C93.61 188.59 96.6898 186.405 98.1212 183.264C98.7198 181.955 98.9107 180.597 98.9974 179.19L99.5266 169.961L101.192 140.836L101.617 133.424C101.626 133.26 101.461 133.113 101.288 133.113H29.5596C29.3861 133.113 29.2299 133.252 29.2299 133.424L29.7504 147.757L30.6353 171.941L30.8869 178.911C31.0171 182.438 32.5092 185.677 35.7712 187.616C38.6687 189.351 42.5814 189.359 45.8954 189.768C49.2094 190.177 52.48 190.57 55.768 190.971C63.1247 191.854 70.5421 191.756 77.8815 190.766C81.5946 190.267 85.3077 189.76 89.0207 189.261L90.0531 189.122C90.4695 189.064 90.2873 188.475 89.8796 188.533V188.524Z" fill="#2B63A8"/>
<path d="M95.9347 123.026C88.604 120.579 77.6557 119.033 65.4234 119.033C53.1911 119.033 42.234 120.588 34.912 123.026H25.3777V130.291H25.4819C25.4819 136.508 43.3618 141.556 65.4234 141.556C87.4849 141.556 105.365 136.516 105.365 130.291V123.026H95.9347Z" fill="#997C3A"/>
<path d="M96.0216 122.731C85.5504 119.27 73.9167 118.55 62.9076 118.747C56.9996 118.853 51.0917 119.303 45.2705 120.26C42.746 120.677 40.2388 121.185 37.7663 121.847C36.4563 122.199 35.2938 122.723 33.9404 122.723H25.3692C25.1956 122.723 25.0395 122.862 25.0395 123.034V130.299C25.0395 130.462 25.187 130.609 25.3692 130.609H25.4733L25.1436 130.299C25.2217 134.471 31.2337 136.655 34.6258 137.801C42.477 140.46 51.0396 141.384 59.3333 141.736C68.7288 142.137 78.2804 141.72 87.5197 139.993C91.0332 139.339 94.5381 138.488 97.8607 137.203C100.064 136.344 102.355 135.289 104.029 133.653C105.27 132.442 105.695 131.158 105.695 129.513V123.025C105.695 122.862 105.547 122.715 105.365 122.715H95.9348C95.5184 122.715 95.5184 123.328 95.9348 123.328H105.365L105.035 123.017V128.311C105.035 129.718 105.191 131.059 104.35 132.287C103.179 133.988 101.105 135.093 99.2141 135.952C96.3426 137.261 93.2368 138.12 90.1396 138.815C81.5423 140.738 72.5893 141.327 63.7664 141.229C55.2993 141.13 46.6846 140.402 38.5037 138.283C35.3632 137.473 32.1707 136.459 29.4119 134.798C27.7462 133.8 25.8376 132.311 25.8029 130.282C25.8029 130.119 25.6554 129.971 25.4733 129.971H25.3692L25.6988 130.282V123.017L25.3692 123.328H32.9861C34.0012 123.328 34.7993 123.369 35.7623 123.066C37.9571 122.379 40.2041 121.831 42.4684 121.381C54.2582 119.033 66.6987 118.779 78.6621 119.966C84.4746 120.538 90.3218 121.487 95.848 123.32C96.2471 123.451 96.4119 122.862 96.0216 122.731Z" fill="#2B63A8"/>
<path d="M65.4235 134.005C87.4826 134.005 105.365 128.961 105.365 122.739C105.365 116.518 87.4826 111.474 65.4235 111.474C43.3644 111.474 25.482 116.518 25.482 122.739C25.482 128.961 43.3644 134.005 65.4235 134.005Z" fill="#72531C"/>
<path d="M105.044 122.739C104.983 126.159 100.134 128.131 97.349 129.186C91.467 131.403 85.0559 132.426 78.7923 133.056C70.863 133.849 62.8209 133.915 54.8742 133.301C48.2809 132.794 41.5835 131.861 35.3112 129.816C33.125 129.104 30.9388 128.245 29.0216 127.01C27.7463 126.192 26.3929 125.095 25.9505 123.639C24.9615 120.408 29.2385 118.15 31.737 117.029C37.2458 114.55 43.5095 113.454 49.5215 112.717C57.3207 111.76 65.2413 111.564 73.0839 111.997C79.9808 112.374 86.9472 113.208 93.5838 115.082C95.9869 115.761 98.3813 116.579 100.568 117.741C102.06 118.534 103.621 119.532 104.497 120.964C104.836 121.512 105.027 122.109 105.044 122.747C105.044 123.14 105.703 123.14 105.695 122.747C105.634 119.311 101.348 117.266 98.4941 116.096C92.5341 113.658 85.9408 112.586 79.521 111.899C71.0972 110.999 62.5433 110.934 54.1021 111.637C47.3353 112.202 40.4124 113.184 34.0186 115.458C30.9041 116.562 26.124 118.395 25.2564 121.856C24.441 125.095 28.102 127.411 30.6959 128.662C36.1701 131.321 42.4945 132.475 48.5412 133.26C56.8436 134.348 65.3021 134.569 73.6651 134.07C80.779 133.653 88.0142 132.761 94.8158 130.691C97.1841 129.971 99.5612 129.096 101.678 127.844C103.083 127.01 104.515 125.946 105.252 124.506C105.539 123.95 105.686 123.361 105.695 122.747C105.695 122.355 105.053 122.355 105.044 122.747V122.739Z" fill="#2B63A8"/>
<path d="M75.5997 67.1479C75.3221 66.6325 74.7756 66.1989 74.2637 65.9126C72.8843 65.1353 71.1753 65.1844 69.6658 65.5444C68.0521 65.9289 66.5513 66.6652 65.1372 67.4915C64.7815 67.6961 65.1112 68.2279 65.4669 68.0233C67.87 66.6243 72.3031 64.5218 74.7235 67.0579C74.8537 67.197 74.9317 67.2788 75.0358 67.467C75.2267 67.8188 75.7906 67.5079 75.5997 67.1561V67.1479Z" fill="#2B63A8"/>
<path d="M78.4366 52.9289C78.1417 52.3807 77.5604 51.9308 77.0052 51.6363C75.487 50.8345 73.6478 50.9818 72.0429 51.4399C70.2731 51.9471 68.6334 52.8307 67.1066 53.7961C66.7596 54.017 67.0892 54.5488 67.4362 54.3279C69.5183 53.0107 72.0169 51.6363 74.6108 51.6772C75.7039 51.6935 76.797 52.0371 77.5431 52.8143C77.6819 52.9534 77.7686 53.0516 77.8727 53.2398C78.0636 53.5916 78.6275 53.2807 78.4366 52.9289Z" fill="#2B63A8"/>
<path d="M77.2742 88.7217C74.2291 87.4372 70.5594 88.2881 68.4773 90.7261C67.2021 92.2151 66.4647 94.0395 65.9702 95.8721C65.866 96.2566 66.4907 96.4202 66.5948 96.0357C67.2975 93.4177 68.5901 90.5625 71.3229 89.3271C72.7717 88.6726 74.4547 88.6153 75.9989 88.9753C76.2418 89.0326 76.4847 89.098 76.7276 89.1798C76.797 89.2044 76.8664 89.2289 76.9359 89.2535C76.8751 89.2289 77.04 89.2944 76.9359 89.2535C77.3176 89.4171 77.6472 88.8853 77.2655 88.7217H77.2742Z" fill="#2B63A8"/>
<path d="M57.0776 92.6403C57.0776 92.6403 57.0776 92.6158 57.0776 92.6076C57.0429 92.7303 57.0776 92.624 57.0776 92.5831C57.1036 92.4604 57.1297 92.3376 57.1557 92.2231C57.2598 91.8468 57.3986 91.495 57.5895 91.1595C58.162 90.1614 59.1337 89.4988 60.3395 89.3515C61.5454 89.2042 62.6472 89.4824 63.723 89.8342C64.122 89.9651 64.2869 89.376 63.8965 89.2451C62.1701 88.6725 60.0619 88.3452 58.4483 89.3597C57.5027 89.9487 56.8867 90.8896 56.5744 91.9122C56.505 92.1495 56.4443 92.3949 56.4183 92.6485C56.3749 93.0412 57.0256 93.0412 57.0689 92.6485L57.0776 92.6403Z" fill="#2B63A8"/>
<path d="M56.7567 83.805C57.3119 83.8295 57.8324 83.9277 58.3876 84.0668C59.5154 84.3449 60.5912 84.8276 61.424 85.6048C61.719 85.883 62.1874 85.4494 61.8838 85.1712C60.5651 83.9522 58.5872 83.265 56.7567 83.1995C56.3402 83.1832 56.3402 83.7968 56.7567 83.8131V83.805Z" fill="#2B63A8"/>
<path d="M56.0193 53.5503C56.8695 52.863 58.1535 52.3231 59.2986 52.0613C62.2309 51.3986 64.981 52.5521 67.0804 54.4747C67.3841 54.7529 67.8439 54.3193 67.5402 54.0411C65.328 52.0285 62.4564 50.8095 59.3593 51.4231C58.006 51.6931 56.6092 52.2658 55.5508 53.1166C55.2298 53.3703 55.6983 53.8039 56.0106 53.5503H56.0193Z" fill="#2B63A8"/>
<path d="M65.7619 48.6093C63.862 45.6804 60.1576 44.6087 56.6788 44.7396C56.3491 44.7478 56.0195 44.7723 55.6985 44.8132C55.2821 44.8705 55.4642 45.4595 55.872 45.4023C55.7072 45.4268 56.0455 45.3859 56.1062 45.3777C56.3578 45.3532 56.6094 45.345 56.8523 45.3368C57.7025 45.3205 58.5614 45.3695 59.4029 45.5004C61.7539 45.885 63.9228 46.9485 65.1894 48.912C65.4062 49.2474 65.9701 48.9366 65.7533 48.6011L65.7619 48.6093Z" fill="#2B63A8"/>
<path d="M37.6797 55.9147C37.6797 55.9147 53.8507 62.4188 56.4533 45.3119C56.4793 45.1237 39.3107 40.4931 37.6797 55.9147Z" fill="#819B4B"/>
<path d="M37.5147 56.1848C42.7373 58.271 49.6429 58.0256 53.408 53.6077C55.1518 51.5542 56.0887 48.9853 56.5832 46.4246C56.696 45.8601 57.0343 45.2465 56.4097 44.9683C56.1234 44.8374 55.7677 44.7883 55.4554 44.7147C52.4017 44.0438 49.0443 43.9784 46.0253 44.8129C43.8738 45.4101 41.8958 46.5228 40.4383 48.1508C38.495 50.3352 37.6448 53.125 37.3325 55.923C37.2891 56.3157 37.9398 56.3157 37.9832 55.923C38.4777 51.5133 40.6205 47.3818 45.2098 45.721C48.0987 44.6738 51.3693 44.6247 54.3883 45.1401C54.8395 45.2138 55.2819 45.3038 55.7243 45.4183C55.8632 45.451 55.9933 45.5001 56.1321 45.5328C56.3143 45.5737 56.2102 45.5983 56.2102 45.5328C56.1842 45.2874 56.028 45.7946 56.0453 45.7619C55.9673 45.9419 55.9673 46.1955 55.9239 46.3919C55.8545 46.7518 55.7677 47.1118 55.681 47.4636C55.5161 48.1181 55.3166 48.7644 55.0824 49.4025C54.666 50.5152 54.1194 51.5869 53.4167 52.5687C51.2826 55.5139 47.8037 56.8884 44.0993 56.8393C42.5985 56.8229 41.1063 56.602 39.6662 56.2339C39.2064 56.1193 38.7553 55.9884 38.3042 55.833C38.2001 55.8003 37.6882 55.6121 37.8357 55.6694C37.454 55.5139 37.1243 56.0457 37.506 56.2011L37.5147 56.1848Z" fill="#2B63A8"/>
<path d="M54.8136 44.7723L44.2209 51.3255L42.6941 52.2745C42.347 52.4872 42.668 53.019 43.0237 52.8063L53.6164 46.2531L55.1432 45.3041C55.4903 45.0914 55.1693 44.5596 54.8136 44.7723Z" fill="#2B63A8"/>
<path d="M32.9424 35.8709C32.9424 35.8709 37.4363 55.0722 56.7304 45.6475C56.9473 45.5411 49.8508 26.7325 32.9424 35.8709Z" fill="#819B4B"/>
<path d="M32.6304 35.9528C34.0358 41.9005 38.7986 47.8237 45.5654 48.4864C48.6191 48.7891 51.6989 48.0692 54.5011 46.9647C54.9088 46.8011 55.3166 46.6375 55.7156 46.4575C56.0019 46.3348 56.7567 46.1139 56.9215 45.8848C57.0343 45.7293 57.043 45.6884 57.0343 45.5003C57.0343 45.2057 56.8087 44.8376 56.6959 44.5676C55.3339 41.336 53.1304 38.2435 50.2588 36.0428C48.1767 34.4556 45.7216 33.3757 43.0409 33.1139C39.4146 32.7621 35.8837 33.9402 32.7692 35.5928C32.4048 35.7892 32.7345 36.3209 33.0989 36.1246C38.0525 33.482 43.8217 32.5985 48.758 35.7401C51.8551 37.7117 54.1627 40.747 55.7069 43.9213C55.9152 44.3467 56.1147 44.7803 56.2795 45.2303C56.3055 45.3121 56.4097 45.4839 56.3923 45.5657C56.3923 45.5903 56.427 45.6393 56.4183 45.6639C56.5398 45.3939 55.4814 45.8766 55.3946 45.9175C52.5925 47.1529 49.5127 48.0446 46.3896 47.9219C42.0866 47.7501 38.5297 45.4021 36.2047 42.0887C34.8773 40.1988 33.7929 38.0063 33.2637 35.781C33.1769 35.3965 32.5436 35.5601 32.6391 35.9446L32.6304 35.9528Z" fill="#2B63A8"/>
<path d="M55.872 44.8128L41.8959 39.6178L39.8745 38.8651C39.4841 38.7178 39.3193 39.3151 39.701 39.4541L53.6771 44.6492L55.6985 45.4019C56.0888 45.5492 56.2537 44.9519 55.872 44.8128Z" fill="#2B63A8"/>
<path d="M98.8322 64.3092C98.8322 64.3092 79.6595 72.0241 76.5711 51.7428C76.5364 51.5137 96.8889 46.0323 98.8322 64.3092Z" fill="#819B4B"/>
<path d="M98.6674 64.0389C98.8149 63.9816 98.3204 64.1616 98.2336 64.1943C97.7999 64.3416 97.3574 64.4725 96.915 64.5952C95.4662 64.9879 93.974 65.2661 92.4645 65.3724C88.361 65.6751 84.1968 64.6934 81.3166 61.7727C79.2605 59.6865 78.0807 56.9621 77.3953 54.2214C77.2912 53.8124 77.1958 53.3951 77.1177 52.9779C77.083 52.7815 77.0396 52.5934 77.0049 52.397C76.9876 52.307 76.8314 51.808 76.8054 51.9389C76.8054 51.9634 76.7707 51.9961 76.9095 51.9225C77.2305 51.7425 77.751 51.6934 78.1154 51.6198C81.4641 50.9162 85.1078 50.8426 88.4304 51.7016C90.8595 52.3316 93.0978 53.5178 94.7895 55.3013C97.1318 57.7721 98.1382 61.0691 98.5026 64.3007C98.5459 64.6934 99.1966 64.6934 99.1532 64.3007C98.5546 58.9584 96.0387 53.9269 90.5559 51.7425C86.8602 50.2699 82.6092 50.2044 78.7053 50.8835C78.1501 50.9817 76.762 51.0553 76.3456 51.5053C76.042 51.8407 76.389 52.6179 76.4671 52.9942C76.6579 53.9842 76.9008 54.9577 77.2131 55.9149C77.6729 57.3303 78.2802 58.7047 79.087 59.9728C81.5682 63.8507 85.7931 65.9369 90.5472 66.0351C93.3754 66.0924 96.3858 65.6015 98.9971 64.5543C99.3788 64.3989 99.0491 63.8753 98.6674 64.0225V64.0389Z" fill="#2B63A8"/>
<path d="M78.1503 51.6689L90.7123 59.4329L92.5254 60.5537C92.8724 60.7746 93.2021 60.2428 92.8551 60.0219L80.2931 52.2579L78.4799 51.1371C78.1329 50.9162 77.8033 51.448 78.1503 51.6689Z" fill="#2B63A8"/>
<path d="M96.4383 43.9948C96.4383 43.9948 92.7079 59.9318 76.7018 52.1023C76.5196 52.0124 82.4189 36.4026 96.4383 43.9948Z" fill="#819B4B"/>
<path d="M96.1259 43.913C95.0935 48.2982 91.7361 52.8469 86.8432 53.7796C84.5963 54.205 82.2626 53.8532 80.1198 53.166C79.417 52.9451 78.7317 52.6833 78.0637 52.3888C77.9075 52.3233 77.1181 52.0615 77.0834 52.0288C77.0053 51.947 77.0573 52.2497 77.04 52.0697C77.014 51.8652 77.2482 51.497 77.3263 51.3171C78.3934 48.8218 80.0937 46.4492 82.2799 44.7066C83.9109 43.4058 85.8976 42.4977 88.0317 42.2768C90.9466 41.9823 93.7835 42.9231 96.2907 44.2567C96.6551 44.453 96.9847 43.9212 96.6203 43.7249C92.3868 41.4669 87.4158 40.6978 83.1648 43.324C80.38 45.0421 78.2979 47.75 76.9532 50.5971C76.7537 51.0144 76.1898 51.8652 76.4848 52.3233C76.7363 52.716 77.9769 53.0269 78.4281 53.2069C79.1568 53.5014 79.9115 53.7632 80.675 53.9678C81.8375 54.2868 83.0347 54.5077 84.2406 54.5568C88.1445 54.7286 91.5453 52.9533 93.8269 50.0326C95.1802 48.2982 96.2647 46.1874 96.7592 44.0767C96.8459 43.6922 96.2213 43.5285 96.1345 43.913H96.1259Z" fill="#2B63A8"/>
<path d="M77.5691 51.9552L89.1681 47.6437L90.8424 47.0219C91.2241 46.8828 91.0593 46.2856 90.6689 46.4328L79.0699 50.7444L77.3956 51.3661C77.0138 51.5052 77.1787 52.1024 77.5691 51.9552Z" fill="#2B63A8"/>
<path d="M98.8322 100.871C98.8322 100.871 79.6595 108.586 76.5711 88.3046C76.5364 88.0755 96.8889 82.5941 98.8322 100.871Z" fill="#819B4B"/>
<path d="M98.6674 100.601C98.8149 100.544 98.3204 100.724 98.2336 100.756C97.7999 100.904 97.3574 101.035 96.915 101.157C95.4662 101.55 93.974 101.828 92.4645 101.934C88.361 102.237 84.1968 101.255 81.3166 98.3347C79.2605 96.2485 78.0807 93.5241 77.3953 90.7834C77.2912 90.3744 77.1958 89.9571 77.1177 89.5399C77.083 89.3435 77.0396 89.1554 77.0049 88.959C76.9876 88.869 76.8314 88.37 76.8054 88.5009C76.8054 88.5254 76.7707 88.5581 76.9095 88.4845C77.2305 88.3045 77.751 88.2554 78.1154 88.1818C81.4641 87.4782 85.1078 87.4046 88.4304 88.2636C90.8595 88.8936 93.0978 90.0798 94.7895 91.8634C97.1318 94.3341 98.1382 97.6311 98.5026 100.863C98.5459 101.255 99.1966 101.255 99.1532 100.863C98.5546 95.5204 96.0387 90.4889 90.5559 88.3045C86.8602 86.8319 82.6092 86.7664 78.7053 87.4455C78.1501 87.5437 76.762 87.6173 76.3456 88.0673C76.042 88.4027 76.389 89.1799 76.4671 89.5562C76.6579 90.5462 76.9008 91.5197 77.2131 92.4769C77.6729 93.8923 78.2802 95.2667 79.087 96.5348C81.5682 100.413 85.7931 102.499 90.5472 102.597C93.3754 102.654 96.3858 102.164 98.9971 101.116C99.3788 100.961 99.0491 100.437 98.6674 100.585V100.601Z" fill="#2B63A8"/>
<path d="M78.1503 88.2308L90.7123 95.9948L92.5254 97.1156C92.8724 97.3365 93.2021 96.8047 92.8551 96.5838L80.2931 88.8198L78.4799 87.699C78.1329 87.4781 77.8033 88.0099 78.1503 88.2308Z" fill="#2B63A8"/>
<path d="M97.2885 80.2296C97.2885 80.2296 93.3932 96.8702 76.6757 88.6972C76.4849 88.6072 82.6444 72.302 97.2885 80.2296Z" fill="#819B4B"/>
<path d="M96.976 80.1478C95.8916 84.7374 92.3868 89.4907 87.277 90.4561C84.9259 90.8979 82.4881 90.5379 80.2499 89.818C79.5212 89.5807 78.8011 89.3107 78.0984 89.008C77.9336 88.9426 77.1094 88.6726 77.066 88.6235C76.9793 88.5335 77.04 88.8444 77.014 88.6562C76.9793 88.4517 77.2309 88.0508 77.3089 87.8708C78.4194 85.2692 80.2065 82.7821 82.4795 80.9659C84.1885 79.6078 86.2619 78.6506 88.5002 78.4215C91.5539 78.1106 94.5122 79.0924 97.1322 80.4914C97.4966 80.6877 97.8262 80.1559 97.4619 79.9596C93.0461 77.6034 87.8582 76.7935 83.4251 79.5423C80.5188 81.334 78.3413 84.1647 76.9446 87.1263C76.7364 87.5599 76.1551 88.4353 76.4587 88.9099C76.7103 89.3107 78.0203 89.638 78.4888 89.8261C79.2522 90.1288 80.033 90.3988 80.8311 90.6279C82.037 90.9633 83.295 91.1842 84.5529 91.2415C88.6216 91.4215 92.1699 89.5725 94.5469 86.5209C95.961 84.7129 97.0888 82.5121 97.6094 80.3032C97.6961 79.9187 97.0715 79.7551 96.9847 80.1396L96.976 80.1478Z" fill="#2B63A8"/>
<path d="M77.5778 88.5334L89.6886 84.0337L91.4411 83.3874C91.8228 83.2483 91.6579 82.6511 91.2676 82.7983L79.1567 87.298L77.4043 87.9443C77.0226 88.0834 77.1874 88.6806 77.5778 88.5334Z" fill="#2B63A8"/>
<path d="M75.5563 18.8213C75.5563 18.8213 55.0911 22.5519 64.582 40.9924C64.6861 41.1969 84.813 34.9956 75.5563 18.8213Z" fill="#819B4B"/>
<path d="M75.4697 18.5268C69.1367 19.6885 62.7255 24.0409 61.858 30.3896C61.4676 33.2775 62.1443 36.1982 63.2461 38.8817C63.4022 39.2662 63.5757 39.6507 63.7492 40.0271C63.8707 40.297 64.0876 41.017 64.3218 41.1724C64.4953 41.287 64.5387 41.287 64.7382 41.2788C65.0419 41.2788 65.4236 41.0906 65.7012 40.9924C69.1627 39.798 72.5027 37.7936 74.9145 35.151C76.6582 33.2366 77.8641 30.9377 78.2111 28.4179C78.6709 25.0063 77.5258 21.6438 75.8427 18.6577C75.6432 18.3059 75.088 18.6168 75.2788 18.9686C77.9422 23.6891 78.723 29.1297 75.3049 33.6948C73.1447 36.5828 69.8394 38.6935 66.4299 40.068C65.9701 40.2479 65.5103 40.4279 65.0332 40.567C64.9464 40.5916 64.7469 40.6897 64.6515 40.6734C64.5821 40.657 64.5907 40.6734 64.6168 40.6816C64.7296 40.747 64.3912 39.8716 64.3218 39.7162C63.0899 37.0655 62.231 34.1611 62.4219 31.2404C62.6908 27.1416 65.3021 23.8119 68.9198 21.6847C70.9498 20.4903 73.2835 19.5413 75.6432 19.1077C76.0509 19.034 75.8774 18.4368 75.4697 18.5186V18.5268Z" fill="#2B63A8"/>
<path d="M65.4494 40.2725L71.3226 27.2153L72.1642 25.3499C72.329 24.99 71.7651 24.6791 71.6003 25.0391L65.727 38.0963L64.8855 39.9616C64.7207 40.3216 65.2846 40.6325 65.4494 40.2725Z" fill="#2B63A8"/>
<path d="M30.9039 84.2796C30.9039 84.2796 43.7695 99.7503 56.826 83.3715C56.9735 83.1915 41.9304 69.1361 30.9039 84.2796Z" fill="#819B4B"/>
<path d="M30.6784 84.5004C34.9988 89.6709 42.6505 92.9925 49.3392 89.9982C50.7359 89.3682 52.0199 88.5255 53.1911 87.5765C54.5271 86.4884 56.0973 85.1385 56.9822 83.6904C57.39 83.0278 56.4183 82.4878 55.9152 82.0706C53.1043 79.7634 49.6428 77.9145 45.9645 77.2273C43.4052 76.7528 40.7506 76.9 38.3215 77.8245C35.0769 79.0599 32.5957 81.457 30.6177 84.124C30.3748 84.4513 30.9387 84.754 31.1816 84.4349C34.3134 80.2052 38.8854 77.0636 44.5677 77.6445C48.2374 78.0208 51.7163 79.7144 54.5965 81.8415C55.0389 82.1687 55.4727 82.5123 55.8805 82.8723C56.0019 82.9787 56.5051 83.3386 56.5138 83.4777C56.5138 83.4777 55.4554 84.5086 55.2992 84.6804C54.6919 85.3512 54.0499 85.9894 53.3646 86.5948C52.2368 87.5929 50.9875 88.4846 49.6255 89.1719C45.5567 91.2253 40.9848 90.8572 37.0375 88.7546C34.8253 87.5765 32.7171 85.9566 31.1296 84.0668C30.8693 83.7559 30.4095 84.1977 30.6698 84.5004H30.6784Z" fill="#2B63A8"/>
<path d="M55.7419 82.9702L40.7595 84.0011L38.5993 84.1483C38.1829 84.1729 38.1829 84.7947 38.5993 84.7619L53.5817 83.7311L55.7419 83.5838C56.1583 83.5593 56.1583 82.9375 55.7419 82.9702Z" fill="#2B63A8"/>
<path d="M55.2474 71.1399C60.4603 71.1399 64.6863 67.1547 64.6863 62.2387C64.6863 57.3227 60.4603 53.3375 55.2474 53.3375C50.0345 53.3375 45.8086 57.3227 45.8086 62.2387C45.8086 67.1547 50.0345 71.1399 55.2474 71.1399Z" fill="#2B63A8"/>
<path d="M64.0877 60.1444C64.9639 63.6214 63.5412 67.3275 60.3746 69.3564C57.2081 71.3854 53.0439 71.3117 49.9642 69.2501C46.8844 67.1884 45.4183 63.3187 46.494 59.8498C47.5698 56.381 50.9705 53.8203 54.8311 53.6566C59.1601 53.4685 62.9859 56.2337 64.0877 60.1444C64.1918 60.5289 64.8251 60.3653 64.7123 59.9807C63.6713 56.291 60.3573 53.5176 56.3145 53.084C52.2718 52.6504 48.151 54.802 46.4073 58.3281C44.6635 61.8542 45.4616 66.0594 48.3679 68.7756C51.2741 71.4917 55.7246 72.1953 59.4117 70.5754C63.6366 68.7183 65.7881 64.2104 64.721 59.9807C64.6256 59.5962 63.9923 59.7598 64.0964 60.1444H64.0877Z" fill="#2B63A8"/>
<path d="M56.323 70.5753C61.536 70.5753 65.7619 66.5901 65.7619 61.6741C65.7619 56.7581 61.536 52.7729 56.323 52.7729C51.1101 52.7729 46.8842 56.7581 46.8842 61.6741C46.8842 66.5901 51.1101 70.5753 56.323 70.5753Z" fill="#FCBC00"/>
<path d="M65.1633 59.5799C66.0395 63.0569 64.6167 66.763 61.4502 68.792C58.2837 70.8209 54.1195 70.7473 51.0397 68.6856C47.96 66.6239 46.4938 62.7542 47.5696 59.2854C48.6453 55.8166 52.0461 53.2558 55.9066 53.0922C60.2356 52.904 64.0615 55.6693 65.1633 59.5799C65.2674 59.9644 65.9007 59.8008 65.7879 59.4163C64.7468 55.7266 61.4328 52.9531 57.3901 52.5195C53.3474 52.0859 49.2266 54.2376 47.4828 57.7637C45.7391 61.2898 46.5372 65.4949 49.4435 68.2111C52.3497 70.9273 56.8002 71.6309 60.4872 70.011C64.7121 68.1538 66.8636 63.646 65.7966 59.4163C65.7011 59.0318 65.0678 59.1954 65.1719 59.5799H65.1633Z" fill="#2B63A8"/>
<path d="M55.3515 110.443C60.5645 110.443 64.7904 106.458 64.7904 101.542C64.7904 96.6257 60.5645 92.6405 55.3515 92.6405C50.1386 92.6405 45.9127 96.6257 45.9127 101.542C45.9127 106.458 50.1386 110.443 55.3515 110.443Z" fill="#2B63A8"/>
<path d="M64.2871 103.251C63.4803 106.72 60.5653 109.453 56.8089 110.034C53.0524 110.615 49.1312 108.79 47.3093 105.599C45.4875 102.409 46.034 98.4082 48.602 95.7574C51.1699 93.1067 55.1606 92.2559 58.6567 93.5322C62.7775 95.0293 65.1026 99.2017 64.2871 103.251C64.209 103.636 64.8336 103.8 64.9117 103.415C65.6665 99.6844 64.0181 95.8393 60.6 93.7776C57.1819 91.7159 52.5406 91.9205 49.322 94.3012C46.1034 96.6819 44.7588 100.887 46.1208 104.56C47.4828 108.234 51.0831 110.664 55.1345 110.754C59.8279 110.86 63.914 107.702 64.9117 103.415C64.9984 103.031 64.3738 102.867 64.2871 103.251Z" fill="#2B63A8"/>
<path d="M54.3104 109.322C59.5233 109.322 63.7492 105.337 63.7492 100.421C63.7492 95.5048 59.5233 91.5197 54.3104 91.5197C49.0975 91.5197 44.8716 95.5048 44.8716 100.421C44.8716 105.337 49.0975 109.322 54.3104 109.322Z" fill="#FCBC00"/>
<path d="M63.2461 102.131C62.4393 105.6 59.5244 108.332 55.7679 108.913C52.0115 109.494 48.0902 107.669 46.2684 104.479C44.4465 101.288 44.9931 97.2874 47.561 94.6367C50.1289 91.986 54.1196 91.1352 57.6158 92.4114C61.7366 93.9086 64.0616 98.081 63.2461 102.131C63.168 102.515 63.7927 102.679 63.8707 102.294C64.6255 98.5637 62.9772 94.7185 59.5591 92.6569C56.141 90.5952 51.4996 90.7997 48.2811 93.1805C45.0625 95.5612 43.7178 99.7663 45.0798 103.44C46.4419 107.113 50.0422 109.543 54.0936 109.633C58.787 109.739 62.8731 106.581 63.8707 102.294C63.9575 101.91 63.3329 101.746 63.2461 102.131Z" fill="#2B63A8"/>
<path d="M78.0028 80.3768C82.4012 80.3768 85.9668 77.0143 85.9668 72.8664C85.9668 68.7186 82.4012 65.3561 78.0028 65.3561C73.6044 65.3561 70.0388 68.7186 70.0388 72.8664C70.0388 77.0143 73.6044 80.3768 78.0028 80.3768Z" fill="#2B63A8"/>
<path d="M85.4116 74.6171C84.5962 77.5051 81.9935 79.7222 78.8097 80.0331C75.6258 80.344 72.5721 78.7323 71.158 76.057C69.7439 73.3818 70.2991 69.9784 72.546 67.8185C74.793 65.6587 78.3846 65.0369 81.2995 66.3623C84.5701 67.8431 86.2445 71.3119 85.4116 74.6171C85.3162 75.0016 85.9408 75.1653 86.0363 74.7808C86.8344 71.6228 85.5504 68.293 82.7049 66.4359C79.8594 64.5788 75.8687 64.6197 73.0666 66.5832C70.2644 68.5467 69.0498 72.0073 70.0649 75.1325C71.0799 78.2578 74.0989 80.4831 77.5431 80.6712C81.4904 80.8839 85.0299 78.3396 86.0363 74.7808C86.1404 74.3962 85.5157 74.2326 85.4116 74.6171Z" fill="#2B63A8"/>
<path d="M76.8143 80.4911C81.2127 80.4911 84.7783 77.1286 84.7783 72.9807C84.7783 68.8328 81.2127 65.4703 76.8143 65.4703C72.4159 65.4703 68.8503 68.8328 68.8503 72.9807C68.8503 77.1286 72.4159 80.4911 76.8143 80.4911Z" fill="#FCBC00"/>
<path d="M84.223 74.7316C83.4075 77.6196 80.8049 79.8367 77.6211 80.1476C74.4372 80.4585 71.3835 78.8468 69.9694 76.1715C68.5553 73.4963 69.1105 70.0929 71.3574 67.933C73.6044 65.7732 77.196 65.1514 80.1109 66.4768C83.3815 67.9576 85.0559 71.4264 84.223 74.7316C84.1276 75.1161 84.7522 75.2798 84.8477 74.8953C85.6458 71.7373 84.3618 68.4075 81.5163 66.5504C78.6708 64.6933 74.6801 64.7342 71.878 66.6977C69.0758 68.6612 67.8612 72.1218 68.8763 75.247C69.8913 78.3723 72.9103 80.5976 76.3545 80.7857C80.3018 80.9985 83.8413 78.4541 84.8477 74.8953C84.9518 74.5107 84.3271 74.3471 84.223 74.7316Z" fill="#2B63A8"/>
<path d="M7.50635 62.975L9.22408 66.493C9.27613 66.5993 9.37156 66.6893 9.48434 66.7384L13.2148 68.3583C13.6225 68.5383 13.6225 69.0864 13.2148 69.2582L9.48434 70.8781C9.37156 70.9272 9.27613 71.0172 9.22408 71.1235L7.50635 74.6415C7.31549 75.026 6.73424 75.026 6.55206 74.6415L4.83433 71.1235C4.78228 71.0172 4.68685 70.9272 4.57407 70.8781L0.843649 69.2582C0.435906 69.0782 0.435906 68.5301 0.843649 68.3583L4.57407 66.7384C4.68685 66.6893 4.78228 66.5993 4.83433 66.493L6.55206 62.975C6.74292 62.5905 7.32417 62.5905 7.50635 62.975Z" fill="white"/>
<path d="M7.22896 63.1307L8.7992 66.3541C8.98139 66.7223 9.18092 66.9513 9.57999 67.1231L11.5233 67.9658L12.5123 68.3994C12.6424 68.4567 12.9634 68.5303 13.0501 68.6285C13.4232 69.0621 12.1653 69.3893 11.9484 69.4793L9.77952 70.4202C9.39781 70.5838 9.10284 70.6983 8.89463 71.0747C8.58232 71.631 8.33941 72.22 8.06179 72.7927L7.602 73.7418C7.50657 73.9299 7.41982 74.2817 7.26366 74.4372C6.82121 74.8871 6.56095 73.9381 6.4395 73.6927L5.44183 71.6474C5.25964 71.271 5.12951 70.8292 4.72177 70.6083C4.20992 70.3302 3.62867 70.1338 3.09947 69.9048C2.49219 69.643 1.77213 69.4302 1.20823 69.0866C0.644333 68.743 1.26896 68.514 1.63333 68.3585L4.02774 67.3195C4.48753 67.1231 4.9213 67.0004 5.16421 66.5586C5.51123 65.9369 5.78884 65.2742 6.10116 64.6361L6.62168 63.5725C6.66506 63.4907 6.94267 62.7135 7.22896 63.1389C7.45452 63.4743 8.01842 63.1634 7.79286 62.828C7.35041 62.1653 6.53492 62.3289 6.20526 62.9671C5.85824 63.6379 5.54593 64.3252 5.20759 65.0042C5.00806 65.4133 4.80852 66.1987 4.40945 66.485C3.93231 66.8204 3.1949 67.0086 2.65702 67.2459C2.01504 67.524 1.32969 67.7695 0.713736 68.0885C0.0544058 68.4321 0.0544058 69.2094 0.713736 69.553C1.32969 69.872 2.01504 70.1175 2.65702 70.3956C3.1949 70.6247 3.93231 70.8211 4.40945 71.1565C4.8172 71.4428 5.00806 72.2282 5.20759 72.6373C5.53725 73.3163 5.84957 74.0036 6.20526 74.6744C6.53492 75.3044 7.35909 75.4925 7.79286 74.8135C8.0965 74.339 8.3047 73.7663 8.54762 73.2672C8.85125 72.6537 9.09417 71.9337 9.47588 71.361C9.71879 71.001 10.3608 70.8538 10.7512 70.682L13.0588 69.6757C13.6227 69.4302 14.1693 68.9148 13.6574 68.3176C13.4926 68.1213 13.2237 68.0394 12.9894 67.9331L11.7315 67.3849L10.3521 66.7877C10.1352 66.6977 9.83157 66.6159 9.64072 66.4768C9.44986 66.3377 9.38045 66.1005 9.28502 65.9041L8.68642 64.6851L7.77551 62.8198C7.602 62.4598 7.0381 62.7707 7.21161 63.1307H7.22896Z" fill="#2B63A8"/>
<path d="M7.30716 63.0816L8.87741 66.305C9.05091 66.665 9.2331 66.8695 9.62349 67.0413L11.5668 67.884L12.5558 68.3176C12.6946 68.383 12.9809 68.4403 13.0936 68.5467C13.6315 69.0784 12.2348 69.4466 11.9919 69.553L9.82302 70.4938C9.44998 70.6574 9.17237 70.7556 8.97284 71.1156C8.66052 71.6719 8.41761 72.2609 8.14 72.8336L7.6802 73.7827C7.58477 73.9872 7.49802 74.3063 7.34186 74.4781C6.81266 75.0753 6.49167 73.9954 6.36154 73.7336L5.36387 71.6883C5.19036 71.3283 5.06023 70.8947 4.67851 70.682C4.16667 70.4038 3.58542 70.2075 3.05622 69.9784C2.44026 69.7084 1.73756 69.4957 1.16498 69.1603C0.965446 69.0457 0.50565 68.9803 0.982796 68.5467C1.11293 68.4239 1.42524 68.3503 1.59007 68.2849L3.98448 67.2459C4.42693 67.0577 4.85202 66.9431 5.08626 66.5177C5.43327 65.8959 5.71089 65.2333 6.0232 64.5951L6.54373 63.5316C6.5871 63.4334 6.63915 63.278 6.70856 63.1961C6.81266 63.0734 6.83869 62.3862 7.30716 63.098C7.46332 63.3352 7.87106 63.1143 7.70623 62.8771C7.29848 62.2635 6.57843 62.4353 6.27479 63.0162C5.92777 63.687 5.61546 64.3742 5.27712 65.0533C5.07758 65.4705 4.86937 66.2805 4.44428 66.5586C3.94978 66.8859 3.24707 67.0822 2.69185 67.3195C2.05855 67.5976 1.35584 67.8267 0.748561 68.1621C0.158634 68.4894 0.149959 69.1521 0.748561 69.4793C1.34716 69.8066 2.04987 70.0438 2.69185 70.322C3.2384 70.5592 3.94111 70.7556 4.44428 71.0828C4.86937 71.361 5.07758 72.1709 5.27712 72.5882C5.60678 73.2672 5.9191 73.9545 6.27479 74.6253C6.56975 75.198 7.29848 75.3862 7.70623 74.7644C8.00987 74.2899 8.21808 73.7172 8.46099 73.2181C8.76463 72.6046 9.00754 71.8928 9.38925 71.3119C9.64084 70.9274 10.2915 70.7801 10.6992 70.6083L13.0069 69.602C13.5101 69.3812 14.0479 68.9394 13.5881 68.383C13.432 68.1949 13.1631 68.1131 12.9375 68.0149L11.6796 67.4667C11.0202 67.1804 10.1874 66.9513 9.59746 66.5586C9.38058 66.4195 9.31118 66.1741 9.20707 65.9532L8.60847 64.7342L7.69755 62.8689C7.5761 62.6153 7.16835 62.8362 7.29848 63.0898L7.30716 63.0816Z" fill="white"/>
<path d="M7.02933 63.2368L8.18315 65.6012C8.46077 66.1657 8.66898 66.8284 9.24155 67.1883C9.88353 67.5892 10.699 67.8428 11.4104 68.1455C11.7401 68.2846 12.0697 68.4401 12.3994 68.5791C12.7291 68.7182 13.0501 68.7346 12.625 68.9718C11.5319 69.5772 10.1438 69.7818 9.1201 70.5017C8.65163 70.8372 8.45209 71.418 8.22653 71.9007C7.90554 72.5879 7.55853 73.2752 7.25489 73.9706C7.09005 74.3469 7.02065 74.3633 6.83847 74.0115C6.76906 73.8724 6.71701 73.717 6.64761 73.5697C6.29192 72.7925 5.89285 72.0234 5.52848 71.2462C4.95591 70.0354 3.2642 69.7409 2.067 69.2418C1.89349 69.1682 1.35562 69.0046 1.24284 68.8409L1.14741 68.8C1.26019 68.71 1.38164 68.6446 1.52913 68.62C1.6072 68.5955 1.67661 68.5628 1.75469 68.5382C2.61355 68.1864 3.45506 67.7937 4.31393 67.4338C4.90385 67.1802 5.23352 66.9347 5.51981 66.3784C5.9102 65.6339 6.24854 64.8567 6.62158 64.0958C6.74304 63.8422 6.87317 63.5886 6.99462 63.335C7.02065 63.2777 7.04668 63.2123 7.08138 63.155C7.20283 62.9177 6.99462 63.0241 7.038 63.2368C7.1074 63.6131 7.77541 63.4986 7.95759 63.2941C8.25256 62.9668 7.97494 62.5578 7.66263 62.3532C7.28091 62.0996 6.79509 62.1323 6.42205 62.386C5.89285 62.7541 5.66729 63.5313 5.40703 64.0713C5.12941 64.6522 4.90385 65.2657 4.61757 65.8384C4.27923 66.5175 3.48109 66.6729 2.79573 66.9511C2.11038 67.2292 1.42502 67.4665 0.791717 67.7937C0.349272 68.0228 -0.0324453 68.3664 0.00225633 68.8818C0.0369579 69.3973 0.514105 69.7081 0.9739 69.929C1.61588 70.2317 2.30124 70.4935 2.96057 70.7472C3.29891 70.8781 3.64592 70.9926 3.96691 71.1562C4.39201 71.3771 4.55684 71.6635 4.73035 72.0807C4.97326 72.6534 5.22484 73.2097 5.49378 73.766C5.76272 74.3224 5.9796 75.0669 6.59556 75.3532C7.93157 75.975 8.47812 73.9706 8.83381 73.1852C9.1895 72.3998 9.40638 71.4426 10.326 71.0744C11.1328 70.7553 11.9222 70.4117 12.7204 70.0599C13.2756 69.8227 14.0564 69.52 14.0998 68.8409C14.1432 68.1619 13.4491 67.8837 12.9026 67.6465C12.1044 67.3029 11.2889 67.0002 10.4908 66.6647C9.90956 66.4193 9.6493 66.133 9.38903 65.593C9.1895 65.1839 8.98997 64.7749 8.79043 64.3658L8.18315 63.1223C8.07037 62.8932 7.98362 62.5823 7.70601 62.4759C7.22019 62.296 6.91655 62.7787 6.98595 63.1632C7.05535 63.5477 7.67998 63.3841 7.61058 62.9995L7.52382 63.2204L7.72336 63.6377L7.92289 64.0549L8.42607 65.0858C8.68633 65.6094 8.88586 66.3784 9.36301 66.7629C9.84015 67.1474 10.4735 67.3111 11.02 67.5238C11.4017 67.671 11.7661 67.8265 12.1391 67.9901C12.4341 68.121 12.8679 68.211 13.1195 68.4155C13.8135 68.98 13.024 69.2418 12.6076 69.43C12.2259 69.6018 11.8355 69.7654 11.4538 69.929C10.8465 70.1908 10.1438 70.3872 9.57989 70.7226C9.05937 71.0253 8.84248 71.5735 8.60825 72.0889C8.31328 72.7352 8.03567 73.3979 7.72336 74.0442C7.57588 74.3551 7.32429 75.0014 6.84714 74.7887C6.5435 74.6496 6.37 74.126 6.23986 73.8642C5.93623 73.2424 5.63259 72.6288 5.37233 71.9907C5.20749 71.5817 5.03399 71.148 4.66962 70.8617C4.22717 70.5263 3.63725 70.3626 3.11672 70.1663C2.44872 69.9045 1.70263 69.6672 1.09536 69.3154C-0.0758223 68.6364 1.56383 68.1128 2.18846 67.8592C3.1254 67.4829 4.54816 67.1965 5.07736 66.2966C5.35497 65.8303 5.51113 65.2903 5.74537 64.7994C5.89285 64.4885 6.04033 64.1858 6.18781 63.8749C6.33529 63.5641 6.49145 63.0077 6.83847 62.8441C7.06403 62.7377 7.74071 62.8768 7.22886 62.5659C7.10741 62.4923 6.97727 62.4432 6.82979 62.4841C6.55218 62.5496 6.50013 62.8277 6.39602 63.0404C6.11841 63.6377 5.81477 64.2267 5.52848 64.824C5.24219 65.4212 5.00796 66.3293 4.41803 66.7056C3.82811 67.082 3.10805 67.2783 2.48342 67.5483C1.94554 67.7774 1.16476 67.9574 0.722314 68.3337C-0.205953 69.1191 1.30357 69.6263 1.90217 69.8718C2.5615 70.1418 3.23818 70.3954 3.88883 70.6817C4.2185 70.8208 4.53949 70.9435 4.75637 71.2299C4.92988 71.4671 5.03399 71.7944 5.16412 72.0562C5.46775 72.6943 5.79742 73.3161 6.09238 73.9624C6.23119 74.2651 6.34397 74.6251 6.63026 74.8296C7.51515 75.4677 7.98362 73.8479 8.21785 73.3733C8.54752 72.6943 8.79911 71.9007 9.24155 71.2789C9.64062 70.7144 10.6556 70.4772 11.2803 70.199C11.7921 69.9781 12.33 69.7981 12.8245 69.5609C13.1368 69.4136 13.5272 69.1764 13.5272 68.8082C13.5272 68.3746 13.1108 68.211 12.7551 68.0719C11.9656 67.761 11.1935 67.401 10.4127 67.0656C10.031 66.902 9.55387 66.7629 9.2936 66.4357C9.08539 66.1657 8.97262 65.8221 8.82513 65.5194L7.5672 62.9423C7.39369 62.5823 6.82979 62.8932 7.0033 63.2532L7.02933 63.2368Z" fill="#2B63A8"/>
<path d="M121.831 91.8224L123.028 94.2767C123.063 94.3504 123.132 94.4158 123.21 94.4485L125.813 95.5775C126.099 95.7003 126.099 96.0848 125.813 96.2075L123.21 97.3365C123.132 97.3692 123.063 97.4347 123.028 97.5083L121.831 99.9627C121.701 100.233 121.293 100.233 121.163 99.9627L119.966 97.5083C119.931 97.4347 119.862 97.3692 119.784 97.3365L117.181 96.2075C116.895 96.0848 116.895 95.7003 117.181 95.5775L119.784 94.4485C119.862 94.4158 119.931 94.3504 119.966 94.2767L121.163 91.8224C121.293 91.5524 121.701 91.5524 121.831 91.8224Z" fill="white"/>
<path d="M121.545 91.9694L122.638 94.211C122.959 94.8737 123.905 95.0782 124.573 95.3646L125.267 95.6673C125.327 95.6918 125.614 95.7737 125.64 95.8309C125.718 96.0027 124.989 96.2154 124.876 96.2645L123.367 96.919C123.089 97.0417 122.864 97.1317 122.716 97.4099C122.499 97.7944 122.326 98.2117 122.135 98.6044L121.814 99.267C121.762 99.3816 121.684 99.6679 121.58 99.7497C121.389 99.9052 121.25 99.3734 121.18 99.2343L120.486 97.8108C120.348 97.5326 120.252 97.2217 119.949 97.0581C119.593 96.8699 119.185 96.7309 118.812 96.5672C118.387 96.3872 117.884 96.24 117.493 95.9945C117.415 95.9455 117.294 95.9536 117.363 95.8309C117.407 95.7573 117.71 95.6837 117.788 95.6509L119.454 94.931C119.792 94.7837 120.105 94.6937 120.278 94.3665C120.521 93.9329 120.712 93.4665 120.929 93.0248L121.293 92.2884C121.293 92.2884 121.467 91.863 121.545 91.9857C121.77 92.3212 122.334 92.0103 122.109 91.6749C121.762 91.1513 121.102 91.2576 120.833 91.773C120.591 92.2394 120.374 92.7221 120.139 93.1966C120.001 93.4747 119.87 93.9901 119.619 94.1947C119.515 94.2765 119.333 94.3174 119.211 94.3665L118.396 94.7183C117.953 94.9146 117.476 95.0782 117.042 95.3073C116.522 95.5773 116.522 96.2154 117.042 96.4936C117.476 96.7145 117.945 96.8863 118.396 97.0826L119.211 97.4344C119.333 97.4835 119.515 97.5326 119.619 97.6062C119.879 97.8108 120.009 98.3262 120.139 98.6044C120.374 99.0789 120.591 99.5616 120.833 100.028C121.094 100.519 121.779 100.666 122.109 100.126C122.317 99.7906 122.464 99.3979 122.638 99.0461C122.846 98.6289 123.011 98.0971 123.289 97.7208C123.453 97.4917 123.879 97.3935 124.139 97.279L125.752 96.5836C126.204 96.3872 126.594 95.9455 126.186 95.4873C126.056 95.3401 125.874 95.2828 125.7 95.2091L124.824 94.8328L123.861 94.4156C123.714 94.3501 123.488 94.301 123.367 94.2029C123.254 94.1129 123.211 93.9574 123.15 93.8347L122.733 92.9839L122.1 91.683C121.927 91.3231 121.363 91.634 121.536 91.9939L121.545 91.9694Z" fill="#2B63A8"/>
<path d="M121.684 91.896L122.777 94.1377C122.898 94.3913 123.028 94.5304 123.297 94.6531L124.651 95.2422L125.345 95.5449C125.44 95.5858 125.64 95.6349 125.718 95.7085C126.091 96.0766 125.119 96.3384 124.954 96.4039L123.445 97.0584C123.185 97.1729 122.994 97.2466 122.846 97.492C122.629 97.8765 122.456 98.2938 122.265 98.6865L121.944 99.3491C121.875 99.4882 121.814 99.7173 121.71 99.8318C121.337 100.249 121.12 99.4964 121.024 99.3164L120.33 97.8929C120.209 97.6393 120.122 97.3366 119.853 97.1893C119.498 97.0011 119.09 96.862 118.717 96.6984C118.292 96.5102 117.797 96.363 117.398 96.1257C117.259 96.0439 116.938 96.003 117.268 95.6921C117.363 95.6103 117.58 95.5612 117.693 95.5121L119.359 94.7922C119.662 94.6613 119.966 94.5795 120.131 94.285C120.374 93.8514 120.565 93.385 120.782 92.9432L121.146 92.2069C121.181 92.1415 121.207 92.0269 121.259 91.9697C121.328 91.8879 121.345 91.4052 121.675 91.9042C121.788 92.0678 122.065 91.9206 121.953 91.7488C121.666 91.3234 121.163 91.4461 120.955 91.847C120.712 92.3133 120.495 92.796 120.261 93.2705C120.122 93.5568 119.975 94.1295 119.68 94.3259C119.333 94.5549 118.847 94.6858 118.457 94.8576C118.014 95.0458 117.528 95.2094 117.103 95.4467C116.678 95.6839 116.687 96.1339 117.103 96.363C117.52 96.5921 118.014 96.7557 118.457 96.952C118.838 97.1157 119.333 97.2547 119.68 97.4838C119.975 97.6802 120.122 98.2447 120.261 98.5392C120.495 99.0137 120.712 99.4964 120.955 99.9627C121.163 100.364 121.675 100.495 121.953 100.061C122.17 99.7337 122.308 99.3328 122.482 98.981C122.69 98.5474 122.864 98.0565 123.133 97.6556C123.306 97.3856 123.757 97.2875 124.043 97.1647L125.657 96.4693C126.004 96.3139 126.386 96.003 126.056 95.6185C125.943 95.4876 125.761 95.4303 125.605 95.3649L124.729 94.9885C124.269 94.7922 123.688 94.6286 123.271 94.3586C123.124 94.2604 123.072 94.0886 123.002 93.9413L122.586 93.0905L121.953 91.7897C121.866 91.6097 121.588 91.7651 121.675 91.9451L121.684 91.896Z" fill="white"/>
<path d="M121.406 92.0514L122.213 93.6959C122.412 94.1049 122.569 94.5794 122.985 94.8331C123.436 95.1112 124 95.2912 124.494 95.5039C124.72 95.6021 124.954 95.7085 125.188 95.8066C125.284 95.8475 125.388 95.8721 125.483 95.9212C125.527 95.8066 125.509 95.7903 125.449 95.8639C125.414 95.8884 125.379 95.9048 125.345 95.9212C124.581 96.3466 123.627 96.4938 122.898 96.9847C122.551 97.222 122.404 97.6392 122.239 97.9992C122.022 98.4655 121.692 98.9646 121.554 99.4636C121.545 99.5045 121.441 99.6436 121.571 99.6682C121.527 99.6682 121.467 99.5045 121.449 99.4718C121.397 99.3736 121.363 99.2673 121.319 99.1609C121.068 98.621 120.79 98.081 120.538 97.541C120.131 96.682 118.942 96.4693 118.092 96.1093C117.936 96.0439 117.684 95.8557 117.519 95.8312L117.45 95.7984C117.502 95.9212 117.58 95.9375 117.693 95.8394C117.754 95.823 117.814 95.7903 117.875 95.7739C118.474 95.5285 119.064 95.2585 119.662 95.0049C120.087 94.8249 120.33 94.6367 120.538 94.2358C120.807 93.7122 121.05 93.1723 121.302 92.6487C121.389 92.4687 121.475 92.2969 121.562 92.1169C121.588 92.0678 121.632 92.0187 121.632 91.9696C121.649 91.7569 121.423 92.0514 121.423 92.0514C121.423 92.1578 121.684 92.2478 121.762 92.2642C121.927 92.2887 122.1 92.2314 122.213 92.1087C122.464 91.8387 122.256 91.4788 121.987 91.307C121.692 91.1106 121.319 91.1351 121.024 91.3315C120.634 91.5933 120.469 92.1496 120.287 92.5423C120.105 92.935 119.931 93.3686 119.732 93.7695C119.506 94.2195 118.968 94.3176 118.526 94.4976C118.049 94.6858 117.554 94.8576 117.103 95.0949C116.765 95.2748 116.487 95.5366 116.504 95.9293C116.522 96.322 116.877 96.5675 117.233 96.7393C117.693 96.952 118.17 97.1402 118.647 97.3202C118.873 97.4101 119.107 97.4838 119.324 97.5983C119.602 97.7374 119.697 97.9174 119.81 98.1874C119.983 98.5882 120.165 98.9891 120.356 99.3818C120.547 99.7745 120.712 100.306 121.154 100.519C122.161 100.994 122.569 99.5863 122.855 98.9809C123.098 98.4573 123.237 97.8028 123.835 97.5574C124.399 97.3283 124.963 97.0911 125.527 96.8456C125.952 96.6657 126.507 96.4284 126.533 95.913C126.559 95.3976 126.073 95.1848 125.648 95.0049C125.093 94.7676 124.529 94.5549 123.965 94.3176C123.566 94.1458 123.41 93.974 123.237 93.6059C123.098 93.3195 122.959 93.0414 122.82 92.755L122.395 91.8878C122.3 91.6996 122.23 91.4706 122.005 91.3969C121.588 91.2497 121.319 91.6506 121.38 91.9942C121.449 92.3787 122.074 92.2151 122.005 91.8305L121.762 92.0596L121.901 92.346L122.039 92.6323L122.386 93.3523C122.569 93.7286 122.716 94.2604 123.054 94.5385C123.393 94.8167 123.852 94.9394 124.252 95.0949C124.503 95.193 124.755 95.2994 125.006 95.4139C125.206 95.5039 125.527 95.5694 125.683 95.7084C126.047 96.0112 125.562 96.1502 125.327 96.2566C125.058 96.3711 124.789 96.4857 124.52 96.6084C124.095 96.7884 123.61 96.9275 123.211 97.1647C122.811 97.402 122.664 97.7783 122.499 98.1465C122.291 98.5964 122.1 99.0546 121.883 99.5045C121.796 99.6845 121.675 100.069 121.406 99.9872C121.224 99.93 121.085 99.5127 121.024 99.3736C120.816 98.9482 120.608 98.5228 120.434 98.0892C120.313 97.7865 120.183 97.4756 119.914 97.2629C119.593 97.0093 119.168 96.8947 118.795 96.7556C118.335 96.5757 117.832 96.412 117.407 96.1748C117.146 96.0193 117.034 95.8803 117.346 95.6839C117.589 95.5366 117.884 95.4385 118.153 95.3321C118.838 95.0621 119.844 94.8576 120.226 94.2031C120.417 93.8759 120.53 93.4995 120.695 93.1641C120.799 92.9514 120.894 92.7387 120.998 92.526C121.111 92.3051 121.198 91.9942 121.415 91.8387C121.632 91.6833 122.083 91.7242 121.692 91.4869C121.588 91.4215 121.467 91.3888 121.337 91.4215C121.111 91.4788 121.059 91.6751 120.981 91.8551C120.79 92.2723 120.573 92.6814 120.374 93.0986C120.191 93.4913 120.018 94.1213 119.636 94.3749C119.255 94.6285 118.717 94.7758 118.292 94.964C117.91 95.1276 117.355 95.2585 117.042 95.5285C116.331 96.1421 117.389 96.5429 117.884 96.7475C118.344 96.9356 118.812 97.1156 119.272 97.312C119.48 97.402 119.697 97.4838 119.836 97.6638C119.957 97.8274 120.027 98.0565 120.122 98.2446C120.33 98.6782 120.556 99.1118 120.755 99.5536C120.859 99.7827 120.938 100.036 121.154 100.2C121.857 100.715 122.222 99.57 122.421 99.1609C122.647 98.6864 122.829 98.1301 123.132 97.7047C123.401 97.3283 124.095 97.1729 124.52 96.9847C124.972 96.7884 126.134 96.5429 126.134 95.9375C126.134 95.5857 125.813 95.4467 125.527 95.3403C124.98 95.1276 124.451 94.8821 123.922 94.6449C123.67 94.5385 123.349 94.4485 123.176 94.2358C123.028 94.0558 122.95 93.8022 122.846 93.5977L121.97 91.806C121.796 91.446 121.233 91.7569 121.406 92.1169V92.0514Z" fill="#2B63A8"/>
<path d="M96.3168 0.757587L97.8349 3.86645C97.8783 3.96463 97.9651 4.03826 98.0605 4.07916L101.357 5.51088C101.722 5.66632 101.722 6.14901 101.357 6.30446L98.0605 7.73617C97.9564 7.77708 97.8783 7.85889 97.8349 7.94888L96.3168 11.0577C96.1519 11.4014 95.6401 11.4014 95.4752 11.0577L93.957 7.94888C93.9137 7.85071 93.8269 7.77708 93.7315 7.73617L90.4348 6.30446C90.0705 6.14901 90.0705 5.66632 90.4348 5.51088L93.7315 4.07916C93.8356 4.03826 93.9137 3.95645 93.957 3.86645L95.4752 0.757587C95.6401 0.413975 96.1519 0.413975 96.3168 0.757587Z" fill="white"/>
<path d="M96.0304 0.912934L97.4185 3.75182C97.5833 4.07907 97.7655 4.2836 98.1212 4.43904L99.8389 5.18353L100.715 5.55987C100.819 5.60896 101.123 5.67441 101.192 5.7644C101.453 6.10801 100.403 6.37799 100.221 6.45162L98.3034 7.27793C97.9563 7.42519 97.6961 7.53155 97.5052 7.86698C97.2276 8.35785 97.0107 8.88145 96.7678 9.3805L96.3601 10.215C96.282 10.3786 96.1952 10.6977 96.0564 10.8286C95.7094 11.164 95.5012 10.3786 95.3971 10.1741L94.5209 8.37421C94.356 8.0306 94.2346 7.64608 93.8702 7.44973C93.4191 7.2043 92.9073 7.03249 92.4388 6.82796C91.9009 6.59889 91.2589 6.41072 90.7731 6.10801C90.2873 5.80531 90.8425 5.65804 91.1462 5.52715L93.2543 4.61085C93.662 4.43086 94.0524 4.3245 94.2693 3.92362C94.5729 3.37548 94.8245 2.78643 95.1021 2.22193L95.5619 1.28927C95.588 1.24018 95.8222 0.593866 96.0304 0.904753C96.256 1.24018 96.8199 0.929296 96.5943 0.593866C96.1866 -0.0197258 95.4318 0.127536 95.1282 0.716585C94.8245 1.30563 94.5469 1.91922 94.2519 2.51645C94.0784 2.87643 93.9049 3.55547 93.5579 3.80909C93.4191 3.90726 93.2022 3.96453 93.0461 4.02998L92.0137 4.47995C91.4498 4.72539 90.8425 4.9381 90.3046 5.22444C89.6974 5.54351 89.6974 6.26346 90.3046 6.58252C90.8512 6.86887 91.4498 7.08158 92.0137 7.32701L93.0461 7.77698C93.2022 7.84243 93.4191 7.8997 93.5579 7.99788C93.9049 8.25149 94.0784 8.93054 94.2519 9.29051C94.5469 9.88774 94.8245 10.5013 95.1282 11.0904C95.4318 11.6794 96.2039 11.8349 96.5943 11.2131C96.8632 10.7877 97.0454 10.2886 97.2623 9.84683C97.5312 9.30687 97.7481 8.66874 98.0865 8.1615C98.2947 7.85061 98.8586 7.72789 99.1969 7.58063L101.236 6.69706C101.756 6.47617 102.242 5.98529 101.774 5.44533C101.617 5.26535 101.392 5.19171 101.175 5.10172L100.064 4.61903L98.8499 4.09543C98.659 4.01362 98.3901 3.94817 98.2253 3.82545C98.0604 3.70273 98.0084 3.50638 97.9216 3.33458L97.4011 2.26284L96.5943 0.61841C96.4208 0.258436 95.8569 0.569322 96.0304 0.929296V0.912934Z" fill="#2B63A8"/>
<path d="M96.1345 0.855444L97.5225 3.69433C97.6787 4.0134 97.8435 4.19338 98.1819 4.34065L99.8996 5.08514L100.776 5.46147C100.897 5.51874 101.158 5.56783 101.253 5.666C101.73 6.13233 100.498 6.45958 100.281 6.54958L98.364 7.37588C98.0344 7.51496 97.7915 7.61314 97.6093 7.92402C97.3317 8.4149 97.1148 8.93849 96.8719 9.43755L96.4641 10.272C96.3774 10.452 96.2993 10.7384 96.1605 10.8856C95.692 11.4092 95.4057 10.4602 95.2929 10.2311L94.4167 8.43126C94.2606 8.11219 94.1478 7.72767 93.8095 7.54769C93.3583 7.30225 92.8465 7.13044 92.378 6.92591C91.8401 6.68866 91.2155 6.50049 90.7123 6.20597C90.5388 6.10779 90.1311 6.04234 90.5562 5.65782C90.669 5.55147 90.9466 5.48602 91.0941 5.42875L93.2022 4.51245C93.5926 4.34065 93.9656 4.24247 94.1738 3.86613C94.4775 3.31799 94.729 2.72894 95.0067 2.16444L95.4665 1.23178C95.5098 1.14179 95.5445 1.01089 95.6139 0.937256C95.7094 0.8309 95.7267 0.217308 96.1431 0.847263C96.2819 1.05997 96.6376 0.863625 96.4988 0.650913C96.1345 0.110952 95.5012 0.266396 95.2409 0.773632C94.9286 1.36268 94.6596 1.97627 94.3647 2.5735C94.1825 2.94166 94.0003 3.65342 93.6273 3.90704C93.1848 4.20157 92.5689 4.36519 92.0831 4.5779C91.5192 4.82334 90.9032 5.02787 90.374 5.32239C89.8448 5.61692 89.8535 6.19778 90.374 6.48413C90.9032 6.77865 91.5278 6.98318 92.0831 7.22862C92.5689 7.44133 93.1848 7.60495 93.6273 7.89948C94.0003 8.14492 94.1825 8.86486 94.3647 9.23302C94.6596 9.83025 94.9373 10.4438 95.2409 11.0329C95.5012 11.5401 96.1431 11.7037 96.4988 11.1556C96.7678 10.7384 96.9499 10.2311 97.1668 9.78934C97.4358 9.2412 97.6527 8.61943 97.991 8.10401C98.2166 7.76858 98.7805 7.63768 99.1448 7.48224L101.184 6.59866C101.626 6.40231 102.103 6.00962 101.695 5.51874C101.557 5.34694 101.322 5.28149 101.123 5.19149L100.012 4.7088C99.4311 4.45518 98.6937 4.25883 98.1732 3.90704C97.9823 3.78432 97.9216 3.56343 97.8262 3.37526L97.3056 2.30352L96.4988 0.659094C96.386 0.43002 96.0304 0.626369 96.1431 0.855444H96.1345Z" fill="white"/>
<path d="M95.8569 1.01087L96.8719 3.09709C97.1148 3.60432 97.3057 4.19337 97.8175 4.51244C98.3901 4.86423 99.1101 5.08512 99.7261 5.3551C100.021 5.47782 100.307 5.6169 100.602 5.73144C100.88 5.84598 101.158 5.82143 100.802 6.01778C99.8389 6.54956 98.6156 6.73773 97.7047 7.36769C97.2796 7.66221 97.1061 8.17763 96.8979 8.61941C96.6116 9.23301 96.2993 9.83842 96.0391 10.452C96.0824 10.3457 95.9089 10.7465 95.9089 10.7465C95.8655 10.7465 95.7614 10.5093 95.7441 10.4766C95.6747 10.3538 95.6313 10.2148 95.5706 10.0839C95.2583 9.39663 94.9026 8.71759 94.5816 8.03855C94.0697 6.96681 92.5776 6.70501 91.5192 6.25504C91.337 6.18141 90.9292 6.05051 90.7904 5.90325L90.7037 5.86234C90.8165 5.86234 90.9292 5.82143 91.0334 5.76417C91.1028 5.73962 91.1722 5.71508 91.2416 5.68235C92.005 5.37147 92.7424 5.02786 93.4972 4.70879C94.0177 4.48789 94.3213 4.25882 94.5729 3.76795C94.9199 3.10527 95.2149 2.42623 95.5446 1.75537C95.6573 1.53447 95.7701 1.3054 95.8742 1.0845C95.9002 1.02724 95.9349 0.978149 95.9523 0.912699C96.0304 0.634537 95.8395 0.953605 95.8482 0.994511C95.8742 1.36267 96.5596 1.22359 96.7157 1.05178C96.9933 0.749074 96.7418 0.356375 96.4468 0.160026C96.0998 -0.0690483 95.6573 -0.0445046 95.319 0.18457C94.8418 0.511819 94.6423 1.19904 94.4081 1.68173C94.1652 2.19715 93.9656 2.73711 93.7054 3.23617C93.4104 3.82522 92.7164 3.9643 92.1264 4.20155C91.5365 4.43881 90.9119 4.6597 90.348 4.95422C89.9489 5.16694 89.6019 5.47782 89.6366 5.94415C89.6713 6.41048 90.0964 6.69683 90.5128 6.90136C91.0854 7.17134 91.684 7.40041 92.2826 7.62949C92.5776 7.74402 92.8812 7.8422 93.1588 7.98128C93.5232 8.16945 93.662 8.41488 93.8182 8.77486C94.0264 9.28209 94.2606 9.77297 94.4948 10.272C94.7291 10.7711 94.9286 11.4256 95.4752 11.6792C96.681 12.2437 97.1755 10.4684 97.5052 9.7566C97.8349 9.04484 98.0084 8.22671 98.7978 7.91583C99.5092 7.62948 100.212 7.32678 100.915 7.02407C101.418 6.80318 102.112 6.5332 102.147 5.91961C102.181 5.30602 101.574 5.0524 101.071 4.83969C100.368 4.53698 99.648 4.267 98.9453 3.97248C98.4335 3.75158 98.2166 3.51433 97.991 3.03982C97.8175 2.67984 97.644 2.31987 97.4618 1.9599L96.9239 0.863611C96.8198 0.6509 96.7331 0.372738 96.4815 0.274563C96.0217 0.110939 95.7354 0.560906 95.7961 0.929061C95.8655 1.31358 96.4902 1.14995 96.4208 0.765437L96.2733 0.98633L96.4555 1.35448L96.6377 1.72264L97.0801 2.63076C97.3057 3.09709 97.4878 3.77613 97.9129 4.11974C98.338 4.46335 98.9019 4.61061 99.3964 4.79878C99.7261 4.9215 100.047 5.06876 100.377 5.20784C100.637 5.32238 101.027 5.40419 101.236 5.576C101.8 6.04233 101.132 6.25504 100.784 6.4023C100.437 6.54956 100.108 6.69683 99.7608 6.84409C99.2229 7.07316 98.607 7.25315 98.1038 7.54767C97.644 7.81765 97.4358 8.30853 97.2363 8.76667C96.976 9.33936 96.7331 9.92023 96.4555 10.4929C96.3253 10.7629 96.1432 11.2783 95.7354 11.1392C95.4752 11.0492 95.319 10.542 95.2149 10.3375C94.946 9.79751 94.677 9.24937 94.4515 8.69304C94.304 8.32489 94.1478 7.94037 93.8182 7.67857C93.4278 7.37587 92.8986 7.2286 92.4301 7.04862C91.8488 6.81954 91.1895 6.61501 90.6516 6.30413C90.2699 6.08323 90.1224 5.82143 90.5736 5.54327C90.8859 5.34692 91.2676 5.2242 91.6146 5.08512C92.4561 4.74969 93.714 4.49608 94.1912 3.68613C94.4341 3.26889 94.5729 2.80256 94.7811 2.36896C94.9113 2.09898 95.0414 1.829 95.1715 1.55902C95.3103 1.27267 95.4318 0.839068 95.7354 0.667262C95.9436 0.544544 96.5596 0.6509 96.0824 0.356375C95.9697 0.290926 95.8395 0.241838 95.7007 0.274563C95.4405 0.340013 95.3884 0.58545 95.293 0.781799C95.0501 1.31358 94.7811 1.829 94.5295 2.36078C94.2779 2.89256 94.0697 3.68613 93.5579 4.01338C93.046 4.34063 92.3954 4.52062 91.8488 4.75787C91.3717 4.96241 90.6777 5.12603 90.2873 5.45328C89.4371 6.16505 90.7818 6.63956 91.337 6.86045C91.9182 7.0977 92.5168 7.3186 93.0894 7.57222C93.3757 7.69493 93.6533 7.80129 93.8355 8.04673C93.9917 8.25944 94.0784 8.54578 94.1912 8.77486C94.4601 9.33118 94.7464 9.8875 95.0067 10.452C95.1281 10.722 95.2322 11.0411 95.4925 11.2292C96.308 11.8183 96.7331 10.3866 96.9586 9.93659C97.2536 9.33936 97.4705 8.63578 97.8609 8.08763C98.2079 7.59676 99.1015 7.38405 99.648 7.15497C100.099 6.95862 100.568 6.80318 101.01 6.59047C101.296 6.45139 101.643 6.23868 101.652 5.89506C101.652 5.49418 101.279 5.33874 100.941 5.21602C100.247 4.94604 99.5699 4.62698 98.8846 4.33245C98.5549 4.18519 98.1385 4.07065 97.9129 3.78431C97.7308 3.54705 97.6266 3.23617 97.4965 2.97437L96.3861 0.699987C96.2126 0.340013 95.6487 0.6509 95.8222 1.01087H95.8569Z" fill="#2B63A8"/>
<path d="M65.4237 121.97C49.5564 121.97 36.4999 125.357 34.8342 129.701C42.1649 132.164 53.148 133.726 65.4237 133.726C77.6994 133.726 88.6911 132.164 96.0131 129.701C94.3474 125.349 81.291 121.97 65.4237 121.97Z" fill="#3C2415"/>
<path d="M66.7769 133.874V104.56C66.7769 99.8234 67.2107 94.9719 65.1546 90.5213C63.9141 87.8461 62.1876 85.449 61.2334 82.6428C60.5827 80.7366 60.1923 78.7322 60.3138 76.7196C60.4265 74.9279 60.9731 73.169 61.9534 71.6309C63.0986 69.831 64.7642 68.4729 66.3085 66.9921C67.8527 65.5113 69.1713 63.8015 69.5704 61.6825C69.8827 60.0054 69.6572 58.3937 69.0239 56.8065C68.2344 54.843 67.2714 52.9695 66.6294 50.9487C65.6231 47.8072 65.0852 44.5428 64.903 41.2704C64.877 40.8777 64.2264 40.8777 64.2524 41.2704C64.53 46.1955 65.6752 50.9242 67.7312 55.4566C68.3645 56.8474 69.0065 58.2464 69.0672 59.7845C69.154 61.928 68.3298 63.8996 66.8724 65.5195C65.5277 67.0167 63.888 68.2357 62.578 69.7574C61.3461 71.1809 60.4352 72.8172 59.9928 74.6007C59.0732 78.3149 60.1316 82.1601 61.7452 85.5635C63.0725 88.3533 64.9117 90.8322 65.6665 93.8593C66.0048 95.2337 66.1436 96.6245 66.1436 98.0235C66.1436 99.5861 66.1436 101.149 66.1436 102.711V133.882C66.1436 134.275 66.7943 134.275 66.7943 133.882L66.7769 133.874Z" fill="#2B63A8"/>
<path d="M53.035 100.232L55.308 105.117C55.2646 105.158 55.2299 105.133 55.1952 105.117C54.7788 105.01 54.3711 104.904 53.9546 104.806C53.8679 104.781 53.8158 104.74 53.7811 104.667C53.0784 103.137 52.367 101.615 51.6557 100.093C51.621 100.02 51.6123 99.9461 51.6383 99.8643C51.6904 99.7089 51.7424 99.5534 51.7684 99.3898C51.7945 99.2425 51.8552 99.2016 52.0113 99.2507C52.3497 99.3489 52.6967 99.4389 53.0437 99.4961C53.4775 99.5698 53.9199 99.5698 54.345 99.4307C54.7701 99.2916 55.0911 99.0298 55.282 98.6371C55.3427 98.5226 55.3253 98.4735 55.1779 98.4326C54.1889 98.1871 53.1999 97.9335 52.2196 97.6881L51.9333 97.6145C52.2109 97.3854 52.4625 97.1727 52.7141 96.9681C52.7748 96.9191 52.8355 96.9681 52.8876 96.9681C53.6857 97.1645 54.4838 97.369 55.282 97.5735C55.334 97.5899 55.3947 97.6308 55.4381 97.5899C55.4728 97.549 55.4381 97.4917 55.4208 97.4427C55.2646 96.9436 54.8655 96.6736 54.3971 96.4855C53.8332 96.2564 53.2346 96.1337 52.6446 95.9864C52.5839 95.97 52.5232 95.9537 52.4191 95.9291C52.6967 95.7001 52.9483 95.4873 53.1999 95.2828C53.2433 95.2501 53.2866 95.2664 53.3213 95.2828C55.1865 95.7491 57.0431 96.2237 58.8996 96.69C58.917 96.7554 58.8649 96.7636 58.8389 96.7882C58.648 96.9518 58.4398 97.1072 58.2576 97.279C58.1709 97.3608 58.0928 97.369 57.98 97.3363C57.5462 97.2218 57.1038 97.1154 56.6353 96.9927C56.6787 97.1236 56.7221 97.2381 56.7568 97.3608C56.8002 97.5163 56.8262 97.6799 56.8088 97.8435C56.8088 97.9499 56.8435 97.9826 56.9476 98.0072C57.4421 98.1217 57.9366 98.2526 58.4658 98.3917C58.2923 98.5389 58.1275 98.6453 57.9974 98.7926C57.7718 99.038 57.5289 99.0953 57.2166 98.9644C57.0517 98.8989 56.8782 98.8744 56.7047 98.8253C56.6267 98.8089 56.5833 98.8089 56.5486 98.8825C56.1235 99.7088 55.3774 100.11 54.4405 100.241C54.024 100.298 53.6076 100.29 53.1999 100.216C53.1652 100.216 53.1218 100.208 53.0871 100.2C53.0784 100.2 53.0697 100.2 53.0437 100.216L53.035 100.232Z" fill="white"/>
<path d="M55.5683 62.6069L60.253 65.6013C60.2443 65.6585 60.1923 65.6503 60.1576 65.6585C59.7498 65.7812 59.3421 65.8958 58.9343 66.0185C58.8476 66.043 58.7782 66.0349 58.7001 65.9858C57.2426 65.0531 55.7765 64.1123 54.319 63.1796C54.241 63.1305 54.1976 63.0814 54.1802 62.9996C54.1369 62.8442 54.0935 62.6887 54.0241 62.5333C53.9633 62.3942 53.9894 62.3369 54.1542 62.296C54.4925 62.206 54.8396 62.1161 55.1692 61.9852C55.577 61.8215 55.95 61.6088 56.2363 61.2816C56.5226 60.9461 56.644 60.5698 56.5833 60.1362C56.566 60.0053 56.5313 59.9726 56.3838 60.0135C55.4121 60.308 54.4318 60.5862 53.4602 60.8725L53.1739 60.9543C53.278 60.6189 53.3734 60.3162 53.4688 60.0135C53.4949 59.948 53.5643 59.948 53.6163 59.9317C54.4058 59.7026 55.1953 59.4735 55.9847 59.2363C56.0368 59.2199 56.1148 59.2363 56.1235 59.1708C56.1235 59.1217 56.0628 59.089 56.0194 59.0563C55.603 58.7127 55.1172 58.6881 54.6053 58.7618C53.998 58.8517 53.4255 59.0481 52.8355 59.2117C52.7748 59.2281 52.7141 59.2444 52.61 59.2772C52.7141 58.9417 52.8095 58.639 52.9049 58.3363C52.9223 58.2872 52.9657 58.2791 53.0091 58.2709C54.8482 57.7309 56.6874 57.1991 58.5266 56.6592C58.5787 56.7001 58.544 56.741 58.5266 56.7737C58.4572 57.011 58.3704 57.2482 58.3097 57.4855C58.2837 57.6 58.223 57.6491 58.1015 57.6736C57.6677 57.7964 57.234 57.9273 56.7742 58.0582C56.887 58.1482 56.9911 58.2218 57.0778 58.3036C57.2079 58.4181 57.312 58.5409 57.3988 58.6799C57.4509 58.7699 57.5116 58.7781 57.6157 58.7536C58.1015 58.6063 58.5873 58.4672 59.1165 58.3118C59.0558 58.5245 58.969 58.6963 58.943 58.8845C58.891 59.2035 58.7175 59.3753 58.3791 59.4244C58.2056 59.449 58.0408 59.5226 57.8673 59.5635C57.7892 59.5799 57.7632 59.6126 57.7718 59.6944C57.8759 60.6107 57.4682 61.3225 56.7568 61.9033C56.4358 62.1651 56.0801 62.3615 55.6897 62.5088C55.655 62.5251 55.6203 62.5415 55.5856 62.5578C55.5856 62.5578 55.577 62.5742 55.5596 62.5906L55.5683 62.6069Z" fill="white"/>
<path d="M75.8252 73.2921L78.0982 78.1763C78.0548 78.2172 78.0201 78.1927 77.9854 78.1763C77.569 78.07 77.1612 77.9636 76.7448 77.8654C76.658 77.8409 76.606 77.8 76.5713 77.7264C75.8686 76.1965 75.1572 74.6748 74.4458 73.1531C74.4111 73.0794 74.4024 73.0058 74.4285 72.924C74.4805 72.7685 74.5326 72.6131 74.5586 72.4495C74.5846 72.3022 74.6453 72.2613 74.8015 72.3104C75.1398 72.4086 75.4869 72.4986 75.8339 72.5558C76.2676 72.6295 76.7101 72.6295 77.1352 72.4904C77.5603 72.3513 77.8813 72.0895 78.0721 71.6968C78.1329 71.5823 78.1155 71.5332 77.968 71.4923C76.979 71.2468 75.99 70.9932 75.0097 70.7478L74.7234 70.6742C75.001 70.4451 75.2526 70.2324 75.5042 70.0278C75.5649 69.9787 75.6257 70.0278 75.6777 70.0278C76.4759 70.2242 77.274 70.4287 78.0721 70.6332C78.1242 70.6496 78.1849 70.6905 78.2283 70.6496C78.263 70.6087 78.2283 70.5514 78.2109 70.5023C78.0548 70.0033 77.6557 69.7333 77.1872 69.5451C76.6233 69.3161 76.0247 69.1934 75.4348 69.0461C75.3741 69.0297 75.3133 69.0134 75.2092 68.9888C75.4869 68.7597 75.7384 68.547 75.99 68.3425C76.0334 68.3098 76.0768 68.3261 76.1115 68.3425C77.9767 68.8088 79.8332 69.2833 81.6898 69.7497C81.7071 69.8151 81.6551 69.8233 81.629 69.8478C81.4382 70.0115 81.23 70.1669 81.0478 70.3387C80.961 70.4205 80.883 70.4287 80.7702 70.396C80.3364 70.2814 79.894 70.1751 79.4255 70.0524C79.4689 70.1833 79.5122 70.2978 79.5469 70.4205C79.5903 70.576 79.6163 70.7396 79.599 70.9032C79.599 71.0096 79.6337 71.0423 79.7378 71.0668C80.2323 71.1814 80.7268 71.3123 81.256 71.4514C81.0825 71.5986 80.9177 71.705 80.7875 71.8522C80.562 72.0977 80.3191 72.155 80.0067 72.0241C79.8419 71.9586 79.6684 71.9341 79.4949 71.885C79.4168 71.8686 79.3734 71.8686 79.3387 71.9422C78.9136 72.7685 78.1676 73.1694 77.2306 73.3003C76.8142 73.3576 76.3978 73.3494 75.99 73.2758C75.9553 73.2758 75.912 73.2676 75.8773 73.2594C75.8686 73.2594 75.8599 73.2594 75.8339 73.2758L75.8252 73.2921Z" fill="white"/>
</svg>
