<svg width="171" height="185" viewBox="0 0 171 185" fill="none" xmlns="http://www.w3.org/2000/svg">
<path d="M70.3311 119.966L37.6208 101.219L30.1391 104.459L29.9713 104.37V112.105L22.0356 117.113V124.853L14.9832 128.66V136.399L6.95371 141.128V148.868L6.10352e-05 152.768V160.507L34.5265 179.738L67.8438 164.063L40.725 167.679L41.4801 168.103V159.684L49.5096 155.63V147.215L56.562 144.088V135.669L64.4977 131.34V122.996L64.6014 123.051L70.3311 119.966Z" fill="#2A4850"/>
<path d="M97.9237 87.7971L63.3578 68.7295L45.8527 79.848L45.6849 79.7596V87.4993L37.7541 92.507V100.247L30.7018 104.054V111.793L22.6673 116.522V124.262L15.7137 128.162V135.897L50.2401 155.132V146.717L56.4387 143.073L57.1938 143.492V135.078L65.2282 131.024V122.609L72.2806 119.477V111.063L80.2114 106.734V98.3898L80.315 98.4456L97.9237 87.7971Z" fill="#2A4850"/>
<path d="M142.774 47.2465L119.969 60.1056L113.025 63.6101V72.0293L105.094 76.2365V84.4183L97.9236 87.7972V96.4956L89.7263 100.358V108.089L83.0638 111.952V119.198L83.0934 120.264L77.2551 123.224V131.638L69.3243 135.846V144.027L62.1486 147.411V156.105L53.9562 159.972V167.698L47.2937 171.565V178.812L47.3233 179.873L106.753 148.472L142.523 129.795L142.774 47.2465Z" fill="#6CA9AE"/>
<path d="M142.681 47.0973L131.039 53.6595C127.313 55.7585 123.631 57.9506 119.851 59.9658C117.576 61.1758 115.241 62.2975 112.937 63.461C112.877 63.4889 112.843 63.5541 112.843 63.6099V70.9959C112.843 71.3356 112.838 71.6754 112.843 72.0151C112.843 71.815 113.011 71.8848 112.784 71.9546C112.596 72.0105 112.404 72.1547 112.231 72.2478L108.184 74.3933L105.001 76.0828C104.946 76.1107 104.907 76.1712 104.907 76.2317V83.1104C104.907 83.4455 104.794 83.9946 104.907 84.3158C104.966 84.4833 104.843 84.3204 104.971 84.2739C104.848 84.3158 104.734 84.3856 104.616 84.4414L100.91 86.1867L97.8201 87.6434C97.7609 87.6713 97.7263 87.7365 97.7263 87.7923V95.3459C97.7263 95.7135 97.7165 96.0859 97.7263 96.4582C97.7263 96.3093 97.904 96.3698 97.6967 96.3977C97.5339 96.421 97.3069 96.5792 97.1637 96.649L92.9688 98.627L89.6179 100.205C89.5586 100.233 89.5241 100.298 89.5241 100.354V106.925C89.5241 107.265 89.455 107.679 89.5241 108.014C89.5537 108.158 89.6475 107.926 89.5734 107.963C89.4501 108.019 89.3366 108.103 89.2181 108.168L85.8129 110.146L84.0905 111.146C83.7549 111.342 83.3206 111.514 83.0294 111.765C82.6593 112.082 82.8715 113.017 82.8715 113.455C82.8715 115.605 82.8369 117.764 82.8912 119.915C82.8912 119.956 82.8814 120.073 82.8962 120.119C82.9505 120.278 82.7925 120.259 82.9899 120.115C82.9653 120.133 82.9208 120.157 82.8912 120.166C82.6988 120.217 82.4964 120.366 82.3188 120.454L80.32 121.469L77.1566 123.075C77.0973 123.103 77.0628 123.168 77.0628 123.224V130.61C77.0628 130.949 77.0579 131.289 77.0628 131.629C77.0628 131.429 77.2306 131.499 77.0036 131.568C76.816 131.624 76.6236 131.768 76.4508 131.862L72.404 134.007L69.2208 135.696C69.1665 135.724 69.1271 135.785 69.1271 135.845V142.724C69.1271 143.059 69.0135 143.608 69.1271 143.929C69.1863 144.097 69.0629 143.934 69.1912 143.888C69.0678 143.929 68.9543 143.999 68.8359 144.055L65.1296 145.8L62.0451 147.257C61.9859 147.285 61.9513 147.35 61.9513 147.406V154.96C61.9513 155.327 61.9415 155.7 61.9513 156.072C61.9513 155.923 62.129 155.983 61.9217 156.011C61.7589 156.035 61.5318 156.193 61.3887 156.263L57.1938 158.241L53.8428 159.818C53.7836 159.846 53.7491 159.911 53.7491 159.967V164.938C53.7491 165.771 53.6701 166.641 53.7491 167.47C53.754 167.539 53.7491 167.609 53.7491 167.674C53.7491 167.628 53.9218 167.526 53.7737 167.581C53.5122 167.679 53.2506 167.884 53.0137 168.023L47.6097 171.16C47.2544 171.365 47.0915 171.407 47.0866 171.803C47.0767 172.687 47.0866 173.571 47.0866 174.46C47.0866 176.266 47.0669 178.067 47.1113 179.873C47.1113 180.008 47.2643 180.087 47.3876 180.022L51.2815 177.965L61.2061 172.719L74.3485 165.776L88.0287 158.548L99.5326 152.47L106.161 148.965C107.162 148.435 108.169 147.913 109.176 147.387L120.26 141.602L133.763 134.552L142.163 130.167L142.582 129.949C142.641 129.921 142.676 129.86 142.676 129.8L142.701 121.534L142.76 101.834L142.829 78.0235L142.893 57.434L142.913 50.6111C142.913 49.5547 143.031 48.4377 142.923 47.3859C142.923 47.344 142.923 47.2975 142.923 47.2509C142.923 47.0275 142.552 47.0275 142.552 47.2509L142.543 50.0154L142.518 57.434L142.483 68.1429L142.444 80.9416L142.404 94.4709L142.365 107.367L142.33 118.453L142.306 126.351V128.687C142.296 129.018 142.227 129.427 142.296 129.753C142.296 129.767 142.488 129.665 142.281 129.702C142.054 129.744 141.768 129.972 141.565 130.074L138.422 131.717L127.619 137.358L115.439 143.715L107.419 147.904C106.728 148.262 106.042 148.625 105.351 148.988L98.7726 152.465L88.3347 157.98L76.0363 164.477L63.9303 170.876L53.8873 176.182L47.97 179.31L47.1804 179.728L47.4567 179.877C47.4025 177.574 47.4321 175.265 47.4321 172.957C47.4321 172.636 47.5752 171.961 47.4321 171.658C47.363 171.509 47.3383 171.71 47.3827 171.691C47.5258 171.621 47.664 171.528 47.8022 171.449L51.4937 169.303L53.2901 168.261C53.4826 168.149 53.9021 168.005 54.0353 167.823C54.1686 167.642 54.0896 167.302 54.0896 167.102V160.94C54.0896 160.624 54.06 160.293 54.0896 159.977C54.0649 160.209 53.9366 160.093 54.1538 160.046C54.3265 160.009 54.5288 159.87 54.6917 159.795L62.1981 156.258C62.2573 156.23 62.2918 156.165 62.2918 156.109V149.002C62.2918 148.551 62.3461 148.067 62.2918 147.615C62.282 147.555 62.2918 147.481 62.2918 147.415C62.277 147.625 62.1783 147.546 62.4448 147.448C63.6934 146.978 64.8976 146.294 66.0969 145.726L69.3689 144.181C69.4281 144.153 69.4626 144.088 69.4626 144.032V136.734C69.4626 136.53 69.4774 136.32 69.4626 136.111C69.4429 135.85 69.5564 135.873 69.3738 135.994C69.6058 135.831 69.8969 135.715 70.1486 135.585L74.1807 133.449L77.3046 131.792C77.3589 131.764 77.3984 131.703 77.3984 131.643V123.777C77.3984 123.652 77.428 123.494 77.3984 123.373C77.349 123.163 77.502 123.279 77.3194 123.373C78.2571 122.926 79.175 122.432 80.1029 121.962L83.1429 120.422C83.1972 120.394 83.2367 120.329 83.2367 120.273C83.1824 117.969 83.212 115.661 83.212 113.352C83.212 113.031 83.3551 112.356 83.212 112.054C83.1429 111.905 83.1182 112.105 83.1627 112.086C83.3058 112.017 83.444 111.924 83.5822 111.844L87.2737 109.699L89.0701 108.656C89.2625 108.545 89.682 108.4 89.8153 108.219C89.9485 108.037 89.8696 107.698 89.8696 107.498V101.336C89.8696 101.019 89.84 100.689 89.8696 100.372C89.8449 100.605 89.7166 100.489 89.9337 100.442C90.1064 100.405 90.3088 100.265 90.4717 100.191L97.978 96.6537C98.0373 96.6257 98.0718 96.5606 98.0718 96.5047V89.398C98.0718 88.9465 98.1261 88.4625 98.0718 88.0111C98.0619 87.9506 98.0718 87.8761 98.0718 87.811C98.057 88.0204 97.9583 87.9413 98.2248 87.8435C99.4734 87.3735 100.678 86.6893 101.877 86.1215L105.149 84.5764C105.208 84.5485 105.243 84.4833 105.243 84.4275V77.1299C105.243 76.9251 105.257 76.7157 105.243 76.5063C105.223 76.2456 105.336 76.2689 105.154 76.3899C105.386 76.227 105.677 76.1107 105.929 75.9804L109.961 73.8395L113.085 72.1827C113.139 72.1547 113.178 72.0942 113.178 72.0337V65.3459C113.178 64.8339 113.292 64.187 113.178 63.6797C113.164 63.6146 112.991 63.7402 113.208 63.703C113.435 63.6611 113.706 63.4517 113.909 63.3493L116.436 62.0741C117.635 61.469 118.849 60.8873 120.033 60.2543C125.462 57.3502 130.767 54.2041 136.122 51.1836L142.834 47.3999C143.036 47.2835 142.854 46.981 142.646 47.0973H142.681Z" fill="#2B63A8"/>
<path d="M42.7289 104.668V112.408L77.2554 131.638V123.224L42.7289 104.668Z" fill="#2B63A8"/>
<path d="M34.7979 117.411V125.15L69.3194 144.385V135.966L34.7979 117.411Z" fill="#2B63A8"/>
<path d="M27.7457 128.958V136.697L62.2721 155.928V147.513L27.7457 128.958Z" fill="#2B63A8"/>
<path d="M19.711 141.426V149.165L54.2374 168.401V159.981L19.711 141.426Z" fill="#2B63A8"/>
<path d="M12.7575 153.065V160.805L47.2839 180.036V171.621L12.7575 153.065Z" fill="#2B63A8"/>
<path d="M133.615 155.802L142.681 162.518C142.651 162.63 142.552 162.611 142.483 162.63C141.634 162.82 140.786 163.002 139.937 163.197C139.754 163.239 139.621 163.211 139.473 163.1C136.645 161.001 133.817 158.902 130.984 156.812C130.841 156.705 130.757 156.589 130.723 156.421C130.654 156.095 130.585 155.769 130.481 155.458C130.382 155.169 130.446 155.048 130.777 154.988C131.488 154.853 132.198 154.708 132.884 154.494C133.743 154.224 134.533 153.838 135.155 153.2C135.781 152.558 136.082 151.8 136.033 150.92C136.018 150.655 135.944 150.58 135.648 150.645C133.625 151.106 131.596 151.548 129.568 151.995C129.395 152.032 129.222 152.069 128.981 152.125C129.247 151.46 129.484 150.85 129.726 150.25C129.78 150.115 129.928 150.129 130.042 150.105C131.685 149.738 133.324 149.379 134.967 149.012C135.071 148.989 135.229 149.012 135.253 148.9C135.278 148.798 135.145 148.723 135.066 148.653C134.276 147.904 133.284 147.783 132.238 147.862C130.989 147.955 129.79 148.29 128.576 148.546C128.448 148.574 128.319 148.602 128.112 148.649C128.374 147.983 128.615 147.378 128.852 146.773C128.892 146.675 128.981 146.666 129.069 146.648C132.894 145.8 136.719 144.958 140.539 144.116C140.633 144.209 140.554 144.283 140.524 144.358C140.341 144.828 140.139 145.293 139.976 145.773C139.897 145.996 139.769 146.084 139.532 146.136C138.624 146.322 137.726 146.531 136.773 146.741C136.985 146.936 137.183 147.108 137.361 147.285C137.602 147.527 137.81 147.797 137.953 148.1C138.047 148.295 138.16 148.323 138.377 148.272C139.389 148.034 140.401 147.82 141.496 147.578C141.333 147.993 141.146 148.346 141.057 148.723C140.904 149.37 140.524 149.691 139.823 149.747C139.468 149.775 139.117 149.901 138.762 149.971C138.609 150.003 138.535 150.05 138.54 150.222C138.619 152.097 137.681 153.484 136.147 154.573C135.461 155.057 134.705 155.416 133.891 155.662C133.817 155.686 133.743 155.714 133.669 155.742C133.649 155.751 133.644 155.774 133.615 155.811V155.802Z" fill="white"/>
<path d="M119.969 179.389C133.052 179.389 143.658 174.886 143.658 169.331C143.658 163.777 133.052 159.274 119.969 159.274C106.886 159.274 96.2803 163.777 96.2803 169.331C96.2803 174.886 106.886 179.389 119.969 179.389Z" fill="#BF8B0A"/>
<path d="M143.47 169.331C143.441 171.928 141.166 173.86 138.994 175.121C135.693 177.034 131.809 178.034 128.008 178.621C123.295 179.347 118.444 179.412 113.706 178.863C109.684 178.393 105.578 177.485 101.975 175.68C99.6658 174.521 97.0502 172.734 96.5419 170.137C96.0483 167.619 97.978 165.496 100.006 164.128C103.032 162.09 106.753 161.001 110.36 160.312C115.014 159.428 119.831 159.241 124.554 159.637C128.744 159.986 133.008 160.791 136.842 162.467C139.34 163.556 142.217 165.208 143.184 167.796C143.372 168.294 143.465 168.81 143.47 169.336C143.47 169.559 143.84 169.559 143.84 169.336C143.811 166.753 141.694 164.78 139.542 163.463C136.176 161.401 132.129 160.34 128.206 159.73C123.295 158.962 118.232 158.897 113.297 159.511C109.206 160.019 105.02 160.977 101.393 162.9C99.0983 164.114 96.5962 165.976 96.1619 168.587C95.7522 171.035 97.4401 173.124 99.3895 174.544C102.42 176.75 106.279 177.913 109.98 178.644C114.822 179.598 119.851 179.798 124.771 179.37C129.06 178.993 133.417 178.146 137.321 176.387C139.828 175.256 142.617 173.543 143.559 170.932C143.742 170.42 143.836 169.885 143.84 169.345C143.84 169.122 143.47 169.122 143.47 169.345V169.331Z" fill="#2B63A8"/>
<path d="M119.969 175.982C133.052 175.982 143.658 171.479 143.658 165.925C143.658 160.37 133.052 155.867 119.969 155.867C106.886 155.867 96.2803 160.37 96.2803 165.925C96.2803 171.479 106.886 175.982 119.969 175.982Z" fill="#FCBC00"/>
<path d="M143.47 165.925C143.441 168.522 141.166 170.453 138.994 171.714C135.693 173.627 131.809 174.628 128.008 175.214C123.295 175.94 118.444 176.005 113.706 175.456C109.684 174.986 105.578 174.079 101.975 172.273C99.6658 171.114 97.0502 169.327 96.5419 166.73C96.0483 164.212 97.978 162.09 100.006 160.721C103.032 158.683 106.753 157.594 110.36 156.905C115.014 156.021 119.831 155.835 124.554 156.23C128.744 156.579 133.008 157.384 136.842 159.06C139.34 160.149 142.217 161.801 143.184 164.389C143.372 164.887 143.465 165.403 143.47 165.929C143.47 166.153 143.84 166.153 143.84 165.929C143.811 163.346 141.694 161.373 139.542 160.056C136.176 157.994 132.129 156.933 128.206 156.323C123.295 155.555 118.232 155.49 113.297 156.105C109.206 156.612 105.02 157.571 101.393 159.493C99.0983 160.707 96.5962 162.569 96.1619 165.18C95.7522 167.628 97.4401 169.718 99.3895 171.137C102.42 173.343 106.279 174.507 109.98 175.237C114.822 176.192 119.851 176.392 124.771 175.963C129.06 175.586 133.417 174.739 137.321 172.98C139.828 171.849 142.617 170.137 143.559 167.526C143.742 167.014 143.836 166.478 143.84 165.939C143.84 165.715 143.47 165.715 143.47 165.939V165.925Z" fill="#2B63A8"/>
<path d="M119.308 168.228L128.374 170.639C128.374 170.742 128.285 170.755 128.23 170.793C127.554 171.221 126.878 171.644 126.207 172.073C126.064 172.166 125.945 172.189 125.797 172.147C122.97 171.388 120.142 170.639 117.309 169.89C117.166 169.853 117.072 169.783 117.008 169.662C116.88 169.424 116.756 169.187 116.598 168.968C116.455 168.768 116.48 168.652 116.746 168.494C117.314 168.154 117.881 167.809 118.414 167.414C119.081 166.916 119.663 166.353 120.048 165.641C120.438 164.924 120.532 164.221 120.3 163.537C120.231 163.332 120.152 163.295 119.915 163.444C118.306 164.468 116.692 165.482 115.078 166.502C114.94 166.59 114.807 166.674 114.609 166.795C114.688 166.176 114.762 165.617 114.836 165.054C114.851 164.929 114.984 164.891 115.073 164.836C116.376 164.012 117.684 163.188 118.992 162.36C119.076 162.308 119.214 162.276 119.209 162.178C119.209 162.085 119.081 162.076 118.997 162.043C118.173 161.699 117.314 161.927 116.445 162.332C115.414 162.811 114.476 163.467 113.509 164.072C113.405 164.137 113.302 164.203 113.139 164.305C113.218 163.691 113.292 163.128 113.361 162.569C113.371 162.481 113.45 162.439 113.519 162.397C116.559 160.479 119.604 158.557 122.639 156.644C122.738 156.686 122.688 156.775 122.678 156.84C122.624 157.277 122.555 157.71 122.515 158.148C122.496 158.352 122.407 158.464 122.219 158.58C121.494 159.023 120.778 159.483 120.023 159.958C120.245 160.047 120.443 160.116 120.635 160.205C120.887 160.321 121.119 160.47 121.306 160.666C121.425 160.791 121.528 160.777 121.696 160.666C122.496 160.149 123.305 159.646 124.174 159.097C124.124 159.483 124.04 159.828 124.045 160.154C124.055 160.717 123.804 161.098 123.226 161.368C122.93 161.508 122.664 161.717 122.382 161.89C122.259 161.964 122.21 162.029 122.249 162.164C122.713 163.635 122.219 165.05 121.158 166.418C120.685 167.028 120.122 167.558 119.49 168.024C119.431 168.065 119.377 168.112 119.322 168.159C119.308 168.168 119.308 168.191 119.288 168.233L119.308 168.228Z" fill="white"/>
<path d="M122.891 170.164C135.974 170.164 146.579 165.661 146.579 160.107C146.579 154.552 135.974 150.049 122.891 150.049C109.808 150.049 99.2018 154.552 99.2018 160.107C99.2018 165.661 109.808 170.164 122.891 170.164Z" fill="#BF8B0A"/>
<path d="M146.392 160.107C146.362 162.704 144.087 164.635 141.916 165.896C138.614 167.809 134.73 168.81 130.93 169.396C126.217 170.122 121.366 170.187 116.628 169.638C112.606 169.168 108.5 168.261 104.897 166.455C102.587 165.296 99.9717 163.509 99.4634 160.912C98.9551 158.315 100.9 156.272 102.928 154.904C105.953 152.865 109.674 151.776 113.282 151.087C117.936 150.203 122.752 150.017 127.475 150.412C131.665 150.761 135.929 151.567 139.764 153.242C142.261 154.331 145.138 155.983 146.106 158.571C146.293 159.069 146.387 159.586 146.392 160.111C146.392 160.335 146.762 160.335 146.762 160.111C146.732 157.528 144.615 155.555 142.463 154.238C139.098 152.176 135.051 151.115 131.127 150.505C126.217 149.738 121.153 149.672 116.218 150.287C112.127 150.794 107.942 151.753 104.315 153.675C102.02 154.89 99.5177 156.751 99.0834 159.362C98.6738 161.81 100.362 163.9 102.311 165.319C105.341 167.525 109.2 168.689 112.902 169.42C117.743 170.374 122.772 170.574 127.693 170.146C131.981 169.769 136.339 168.922 140.243 167.162C142.75 166.031 145.538 164.319 146.481 161.708C146.663 161.196 146.757 160.661 146.762 160.121C146.762 159.897 146.392 159.897 146.392 160.121V160.107Z" fill="#2B63A8"/>
<path d="M122.891 166.758C135.974 166.758 146.579 162.255 146.579 156.7C146.579 151.146 135.974 146.643 122.891 146.643C109.808 146.643 99.2018 151.146 99.2018 156.7C99.2018 162.255 109.808 166.758 122.891 166.758Z" fill="#FCBC00"/>
<path d="M146.392 156.7C146.362 159.297 144.087 161.229 141.916 162.49C138.614 164.403 134.73 165.403 130.93 165.99C126.217 166.716 121.366 166.781 116.628 166.232C112.606 165.762 108.5 164.854 104.897 163.048C102.587 161.889 99.9717 160.102 99.4634 157.505C98.9551 154.908 100.9 152.865 102.928 151.497C105.953 149.458 109.674 148.369 113.282 147.681C117.936 146.796 122.752 146.61 127.475 147.006C131.665 147.355 135.929 148.16 139.764 149.835C142.261 150.925 145.138 152.577 146.106 155.164C146.293 155.662 146.387 156.179 146.392 156.705C146.392 156.928 146.762 156.928 146.762 156.705C146.732 154.122 144.615 152.149 142.463 150.831C139.098 148.77 135.051 147.709 131.127 147.099C126.217 146.331 121.153 146.266 116.218 146.88C112.127 147.387 107.942 148.346 104.315 150.268C102.02 151.483 99.5177 153.345 99.0834 155.956C98.6738 158.404 100.362 160.493 102.311 161.913C105.341 164.119 109.2 165.282 112.902 166.013C117.743 166.967 122.772 167.167 127.693 166.739C131.981 166.362 136.339 165.515 140.243 163.756C142.75 162.625 145.538 160.912 146.481 158.301C146.663 157.789 146.757 157.254 146.762 156.714C146.762 156.491 146.392 156.491 146.392 156.714V156.7Z" fill="#2B63A8"/>
<path d="M122.229 159.004L131.295 161.415C131.295 161.517 131.206 161.531 131.152 161.568C130.476 161.997 129.8 162.42 129.128 162.848C128.985 162.941 128.867 162.965 128.719 162.923C125.891 162.164 123.063 161.415 120.23 160.665C120.087 160.628 119.994 160.558 119.929 160.437C119.801 160.2 119.678 159.963 119.52 159.744C119.377 159.544 119.401 159.427 119.668 159.269C120.235 158.93 120.803 158.585 121.336 158.19C122.002 157.692 122.584 157.128 122.969 156.416C123.359 155.7 123.453 154.997 123.221 154.313C123.152 154.108 123.073 154.071 122.836 154.22C121.227 155.243 119.614 156.258 118 157.277C117.862 157.366 117.728 157.45 117.531 157.571C117.61 156.952 117.684 156.393 117.758 155.83C117.773 155.704 117.906 155.667 117.995 155.611C119.298 154.787 120.605 153.964 121.913 153.135C121.997 153.084 122.135 153.051 122.13 152.954C122.13 152.861 122.002 152.851 121.918 152.819C121.094 152.474 120.235 152.702 119.367 153.107C118.335 153.587 117.398 154.243 116.43 154.848C116.327 154.913 116.223 154.978 116.06 155.081C116.139 154.466 116.213 153.903 116.282 153.345C116.292 153.256 116.371 153.214 116.44 153.172C119.48 151.255 122.525 149.333 125.56 147.42C125.659 147.462 125.61 147.55 125.6 147.616C125.546 148.053 125.476 148.486 125.437 148.923C125.417 149.128 125.328 149.24 125.141 149.356C124.415 149.798 123.7 150.259 122.945 150.734C123.167 150.822 123.364 150.892 123.557 150.98C123.808 151.097 124.04 151.246 124.228 151.441C124.346 151.567 124.45 151.553 124.618 151.441C125.417 150.925 126.227 150.422 127.095 149.873C127.046 150.259 126.962 150.603 126.967 150.929C126.977 151.492 126.725 151.874 126.148 152.144C125.852 152.284 125.585 152.493 125.304 152.665C125.18 152.74 125.131 152.805 125.171 152.94C125.634 154.41 125.141 155.825 124.08 157.194C123.606 157.803 123.043 158.334 122.412 158.799C122.353 158.841 122.298 158.888 122.244 158.934C122.229 158.943 122.229 158.967 122.209 159.009L122.229 159.004Z" fill="white"/>
<path d="M117.053 162.667C130.136 162.667 140.742 158.164 140.742 152.609C140.742 147.055 130.136 142.552 117.053 142.552C103.97 142.552 93.3641 147.055 93.3641 152.609C93.3641 158.164 103.97 162.667 117.053 162.667Z" fill="#BF8B0A"/>
<path d="M140.554 152.609C140.524 155.206 138.249 157.138 136.078 158.399C132.776 160.312 128.892 161.312 125.092 161.899C120.379 162.625 115.528 162.69 110.79 162.141C106.768 161.671 102.662 160.763 99.059 158.957C96.7494 157.799 94.1338 156.011 93.6254 153.414C93.1171 150.817 95.0616 148.774 97.0899 147.406C100.115 145.368 103.836 144.278 107.444 143.59C112.098 142.705 116.914 142.519 121.637 142.915C125.827 143.264 130.091 144.069 133.926 145.745C136.423 146.834 139.3 148.486 140.268 151.073C140.455 151.571 140.549 152.088 140.554 152.614C140.554 152.837 140.924 152.837 140.924 152.614C140.894 150.031 138.777 148.058 136.626 146.74C133.26 144.679 129.213 143.618 125.289 143.008C120.379 142.24 115.315 142.175 110.38 142.789C106.289 143.296 102.104 144.255 98.4767 146.177C96.1818 147.392 93.6797 149.254 93.2454 151.865C92.8358 154.313 94.5236 156.402 96.473 157.822C99.5032 160.028 103.363 161.191 107.064 161.922C111.905 162.876 116.934 163.076 121.855 162.648C126.143 162.271 130.501 161.424 134.405 159.665C136.912 158.534 139.7 156.821 140.643 154.21C140.825 153.698 140.919 153.163 140.924 152.623C140.924 152.4 140.554 152.4 140.554 152.623V152.609Z" fill="#2B63A8"/>
<path d="M117.053 159.26C130.136 159.26 140.742 154.757 140.742 149.203C140.742 143.648 130.136 139.145 117.053 139.145C103.97 139.145 93.3641 143.648 93.3641 149.203C93.3641 154.757 103.97 159.26 117.053 159.26Z" fill="#FCBC00"/>
<path d="M140.554 149.203C140.524 151.799 138.249 153.731 136.078 154.992C132.776 156.905 128.892 157.906 125.092 158.492C120.379 159.218 115.528 159.283 110.79 158.734C106.768 158.264 102.662 157.356 99.059 155.551C96.7494 154.392 94.1338 152.605 93.6254 150.008C93.1171 147.411 95.0616 145.368 97.0899 143.999C100.115 141.961 103.836 140.872 107.444 140.183C112.098 139.299 116.914 139.113 121.637 139.508C125.827 139.857 130.091 140.662 133.926 142.338C136.423 143.427 139.3 145.079 140.268 147.667C140.455 148.165 140.549 148.681 140.554 149.207C140.554 149.431 140.924 149.431 140.924 149.207C140.894 146.624 138.777 144.651 136.626 143.334C133.26 141.272 129.213 140.211 125.289 139.601C120.379 138.833 115.315 138.768 110.38 139.382C106.289 139.89 102.104 140.848 98.4767 142.771C96.1818 143.985 93.6797 145.847 93.2454 148.458C92.8358 150.906 94.5236 152.996 96.473 154.415C99.5032 156.621 103.363 157.785 107.064 158.515C111.905 159.469 116.934 159.669 121.855 159.241C126.143 158.864 130.501 158.017 134.405 156.258C136.912 155.127 139.7 153.414 140.643 150.804C140.825 150.292 140.919 149.756 140.924 149.216C140.924 148.993 140.554 148.993 140.554 149.216V149.203Z" fill="#2B63A8"/>
<path d="M116.386 151.506L125.452 153.917C125.452 154.019 125.363 154.033 125.309 154.071C124.633 154.499 123.957 154.922 123.286 155.35C123.142 155.443 123.024 155.467 122.876 155.425C120.048 154.666 117.22 153.917 114.388 153.168C114.244 153.13 114.151 153.061 114.086 152.94C113.958 152.702 113.835 152.465 113.677 152.246C113.534 152.046 113.558 151.93 113.825 151.771C114.392 151.432 114.96 151.087 115.493 150.692C116.159 150.194 116.742 149.631 117.127 148.919C117.516 148.202 117.61 147.499 117.378 146.815C117.309 146.61 117.23 146.573 116.993 146.722C115.384 147.746 113.771 148.76 112.157 149.78C112.019 149.868 111.885 149.952 111.688 150.073C111.767 149.454 111.841 148.895 111.915 148.332C111.93 148.206 112.063 148.169 112.152 148.113C113.455 147.29 114.763 146.466 116.07 145.637C116.154 145.586 116.292 145.554 116.288 145.456C116.288 145.363 116.159 145.354 116.075 145.321C115.251 144.977 114.392 145.205 113.524 145.609C112.492 146.089 111.555 146.745 110.587 147.35C110.484 147.415 110.38 147.48 110.217 147.583C110.296 146.968 110.37 146.405 110.439 145.847C110.449 145.758 110.528 145.717 110.597 145.675C113.637 143.757 116.682 141.835 119.717 139.922C119.816 139.964 119.767 140.053 119.757 140.118C119.703 140.555 119.634 140.988 119.594 141.426C119.574 141.63 119.486 141.742 119.298 141.858C118.573 142.3 117.857 142.761 117.102 143.236C117.324 143.324 117.521 143.394 117.714 143.483C117.965 143.599 118.197 143.748 118.385 143.943C118.503 144.069 118.607 144.055 118.775 143.943C119.574 143.427 120.384 142.924 121.252 142.375C121.203 142.761 121.119 143.106 121.124 143.431C121.134 143.995 120.882 144.376 120.305 144.646C120.009 144.786 119.742 144.995 119.461 145.167C119.337 145.242 119.288 145.307 119.328 145.442C119.792 146.913 119.298 148.327 118.237 149.696C117.763 150.305 117.201 150.836 116.569 151.301C116.51 151.343 116.455 151.39 116.401 151.436C116.386 151.446 116.386 151.469 116.366 151.511L116.386 151.506Z" fill="white"/>
<path d="M116.895 154.913C129.89 154.913 140.426 150.41 140.426 144.856C140.426 139.301 129.89 134.798 116.895 134.798C103.899 134.798 93.3638 139.301 93.3638 144.856C93.3638 150.41 103.899 154.913 116.895 154.913Z" fill="#BF8B0A"/>
<path d="M140.238 144.856C140.208 147.462 137.928 149.407 135.742 150.673C132.485 152.558 128.665 153.554 124.924 154.136C120.221 154.871 115.37 154.936 110.642 154.378C106.654 153.908 102.583 152.996 99.0145 151.194C96.7147 150.031 94.1336 148.248 93.6253 145.661C93.117 143.073 95.0367 141.03 97.0503 139.662C100.041 137.628 103.723 136.534 107.301 135.845C111.91 134.961 116.687 134.766 121.371 135.152C125.536 135.496 129.77 136.297 133.585 137.954C136.092 139.047 138.984 140.704 139.952 143.306C140.139 143.808 140.233 144.325 140.238 144.856C140.238 145.079 140.608 145.079 140.608 144.856C140.578 142.282 138.491 140.313 136.349 138.987C132.988 136.911 128.941 135.85 125.018 135.236C120.142 134.472 115.123 134.417 110.227 135.031C106.19 135.538 102.069 136.492 98.4963 138.382C96.1916 139.601 93.6796 141.472 93.2453 144.097C92.8357 146.559 94.5284 148.658 96.4827 150.082C99.4981 152.274 103.328 153.438 107.009 154.164C111.811 155.108 116.806 155.313 121.687 154.88C125.941 154.503 130.259 153.656 134.128 151.897C136.625 150.762 139.384 149.054 140.322 146.452C140.509 145.935 140.598 145.4 140.608 144.856C140.608 144.632 140.238 144.632 140.238 144.856Z" fill="#2B63A8"/>
<path d="M116.895 151.506C129.89 151.506 140.426 147.003 140.426 141.449C140.426 135.894 129.89 131.391 116.895 131.391C103.899 131.391 93.3638 135.894 93.3638 141.449C93.3638 147.003 103.899 151.506 116.895 151.506Z" fill="#FCBC00"/>
<path d="M140.238 141.449C140.208 144.055 137.928 146.001 135.742 147.266C132.485 149.151 128.665 150.147 124.924 150.729C120.221 151.464 115.37 151.53 110.642 150.971C106.654 150.501 102.583 149.589 99.0145 147.788C96.7147 146.624 94.1336 144.842 93.6253 142.254C93.117 139.666 95.0367 137.623 97.0503 136.255C100.041 134.221 103.723 133.127 107.301 132.439C111.91 131.554 116.687 131.359 121.371 131.745C125.536 132.09 129.77 132.89 133.585 134.547C136.092 135.641 138.984 137.297 139.952 139.899C140.139 140.402 140.233 140.918 140.238 141.449C140.238 141.672 140.608 141.672 140.608 141.449C140.578 138.875 138.491 136.907 136.349 135.58C132.988 133.504 128.941 132.443 125.018 131.829C120.142 131.066 115.123 131.01 110.227 131.624C106.19 132.131 102.069 133.086 98.4963 134.975C96.1916 136.194 93.6796 138.065 93.2453 140.69C92.8357 143.152 94.5284 145.251 96.4827 146.675C99.4981 148.867 103.328 150.031 107.009 150.757C111.811 151.702 116.806 151.907 121.687 151.474C125.941 151.097 130.259 150.25 134.128 148.49C136.625 147.355 139.384 145.647 140.322 143.045C140.509 142.529 140.598 141.993 140.608 141.449C140.608 141.225 140.238 141.225 140.238 141.449Z" fill="#2B63A8"/>
<path d="M116.233 143.753L125.24 146.163C125.24 146.266 125.156 146.28 125.102 146.317C124.43 146.745 123.759 147.169 123.093 147.597C122.95 147.69 122.831 147.713 122.683 147.671C119.875 146.913 117.062 146.163 114.249 145.414C114.106 145.377 114.012 145.307 113.948 145.186C113.82 144.949 113.696 144.711 113.539 144.493C113.395 144.293 113.425 144.176 113.687 144.018C114.254 143.678 114.817 143.334 115.345 142.938C116.006 142.44 116.584 141.877 116.968 141.165C117.358 140.448 117.452 139.745 117.22 139.061C117.151 138.857 117.072 138.819 116.84 138.968C115.241 139.992 113.637 141.007 112.038 142.026C111.9 142.114 111.767 142.198 111.574 142.319C111.653 141.7 111.727 141.142 111.801 140.579C111.816 140.453 111.944 140.416 112.038 140.36C113.336 139.536 114.634 138.712 115.927 137.884C116.006 137.833 116.144 137.8 116.144 137.702C116.144 137.609 116.016 137.6 115.937 137.567C115.118 137.223 114.264 137.451 113.405 137.856C112.384 138.335 111.451 138.992 110.489 139.597C110.385 139.662 110.286 139.727 110.123 139.829C110.202 139.215 110.276 138.652 110.345 138.093C110.355 138.005 110.429 137.963 110.498 137.921C113.519 136.004 116.539 134.082 119.559 132.169C119.658 132.211 119.609 132.299 119.599 132.364C119.545 132.802 119.476 133.234 119.441 133.672C119.421 133.877 119.332 133.988 119.145 134.105C118.424 134.547 117.714 135.008 116.964 135.482C117.186 135.571 117.383 135.641 117.571 135.729C117.822 135.845 118.054 135.994 118.237 136.19C118.355 136.315 118.459 136.302 118.627 136.19C119.421 135.673 120.226 135.171 121.089 134.621C121.04 135.008 120.956 135.352 120.961 135.678C120.971 136.241 120.719 136.623 120.147 136.893C119.856 137.032 119.589 137.242 119.308 137.414C119.184 137.488 119.135 137.553 119.179 137.688C119.643 139.159 119.15 140.574 118.099 141.942C117.63 142.552 117.072 143.082 116.44 143.548C116.381 143.59 116.327 143.636 116.273 143.683C116.258 143.692 116.258 143.715 116.238 143.757L116.233 143.753Z" fill="white"/>
<path d="M124.09 146.834C137.086 146.834 147.621 142.331 147.621 136.776C147.621 131.222 137.086 126.719 124.09 126.719C111.094 126.719 100.559 131.222 100.559 136.776C100.559 142.331 111.094 146.834 124.09 146.834Z" fill="#BF8B0A"/>
<path d="M147.433 136.776C147.404 139.383 145.124 141.328 142.937 142.594C139.68 144.479 135.86 145.475 132.119 146.057C127.416 146.792 122.565 146.857 117.837 146.299C113.849 145.828 109.778 144.916 106.21 143.115C103.91 141.952 101.329 140.169 100.821 137.582C100.312 134.994 102.232 132.951 104.246 131.582C107.236 129.549 110.918 128.455 114.496 127.766C119.105 126.882 123.883 126.686 128.566 127.073C132.731 127.417 136.966 128.218 140.781 129.874C143.288 130.968 146.18 132.625 147.147 135.227C147.335 135.729 147.428 136.246 147.433 136.776C147.433 137 147.803 137 147.803 136.776C147.774 134.203 145.686 132.234 143.544 130.908C140.184 128.832 136.137 127.771 132.213 127.156C127.337 126.393 122.318 126.337 117.423 126.952C113.386 127.459 109.265 128.413 105.692 130.303C103.387 131.522 100.875 133.393 100.441 136.018C100.031 138.48 101.724 140.579 103.678 142.003C106.693 144.195 110.523 145.358 114.205 146.084C119.007 147.029 124.001 147.234 128.882 146.801C133.136 146.424 137.454 145.577 141.324 143.818C143.821 142.682 146.58 140.974 147.517 138.373C147.705 137.856 147.794 137.321 147.803 136.776C147.803 136.553 147.433 136.553 147.433 136.776Z" fill="#2B63A8"/>
<path d="M124.09 143.426C137.086 143.426 147.621 138.924 147.621 133.369C147.621 127.815 137.086 123.312 124.09 123.312C111.094 123.312 100.559 127.815 100.559 133.369C100.559 138.924 111.094 143.426 124.09 143.426Z" fill="#FCBC00"/>
<path d="M147.433 133.369C147.404 135.975 145.124 137.921 142.937 139.187C139.68 141.072 135.86 142.068 132.119 142.649C127.416 143.385 122.565 143.45 117.837 142.891C113.849 142.421 109.778 141.509 106.21 139.708C103.91 138.544 101.329 136.762 100.821 134.174C100.312 131.587 102.232 129.544 104.246 128.175C107.236 126.141 110.918 125.048 114.496 124.359C119.105 123.475 123.883 123.279 128.566 123.665C132.731 124.01 136.966 124.81 140.781 126.467C143.288 127.561 146.18 129.218 147.147 131.819C147.335 132.322 147.428 132.839 147.433 133.369C147.433 133.593 147.803 133.593 147.803 133.369C147.774 130.795 145.686 128.827 143.544 127.5C140.184 125.425 136.137 124.364 132.213 123.749C127.337 122.986 122.318 122.93 117.423 123.544C113.386 124.052 109.265 125.006 105.692 126.895C103.387 128.115 100.875 129.986 100.441 132.611C100.031 135.073 101.724 137.172 103.678 138.596C106.693 140.788 110.523 141.951 114.205 142.677C119.007 143.622 124.001 143.827 128.882 143.394C133.136 143.017 137.454 142.17 141.324 140.411C143.821 139.275 146.58 137.567 147.517 134.965C147.705 134.449 147.794 133.914 147.803 133.369C147.803 133.146 147.433 133.146 147.433 133.369Z" fill="#2B63A8"/>
<path d="M123.429 135.673L132.436 138.084C132.436 138.186 132.352 138.2 132.297 138.238C131.626 138.666 130.955 139.089 130.289 139.517C130.146 139.61 130.027 139.634 129.879 139.592C127.071 138.833 124.258 138.084 121.445 137.335C121.302 137.297 121.208 137.228 121.144 137.107C121.016 136.869 120.892 136.632 120.734 136.413C120.591 136.213 120.621 136.097 120.882 135.938C121.45 135.599 122.012 135.254 122.541 134.859C123.202 134.361 123.779 133.798 124.164 133.086C124.554 132.369 124.648 131.666 124.416 130.982C124.347 130.777 124.268 130.74 124.036 130.889C122.437 131.913 120.833 132.927 119.234 133.947C119.096 134.035 118.963 134.119 118.77 134.24C118.849 133.621 118.923 133.062 118.997 132.499C119.012 132.373 119.14 132.336 119.234 132.28C120.532 131.457 121.83 130.633 123.123 129.804C123.202 129.753 123.34 129.721 123.34 129.623C123.34 129.53 123.212 129.521 123.133 129.488C122.314 129.144 121.46 129.372 120.601 129.776C119.579 130.256 118.647 130.912 117.684 131.517C117.581 131.582 117.482 131.647 117.319 131.75C117.398 131.135 117.472 130.572 117.541 130.014C117.551 129.925 117.625 129.884 117.694 129.842C120.715 127.924 123.735 126.002 126.755 124.089C126.854 124.131 126.805 124.22 126.795 124.285C126.74 124.722 126.671 125.155 126.637 125.592C126.617 125.797 126.528 125.909 126.341 126.025C125.62 126.467 124.909 126.928 124.159 127.403C124.381 127.491 124.579 127.561 124.766 127.65C125.018 127.766 125.25 127.915 125.433 128.11C125.551 128.236 125.655 128.222 125.822 128.11C126.617 127.594 127.421 127.091 128.285 126.542C128.236 126.928 128.152 127.273 128.157 127.598C128.167 128.162 127.915 128.543 127.342 128.813C127.051 128.953 126.785 129.162 126.503 129.334C126.38 129.409 126.331 129.474 126.375 129.609C126.839 131.08 126.346 132.494 125.294 133.863C124.826 134.472 124.268 135.003 123.636 135.468C123.577 135.51 123.523 135.557 123.468 135.603C123.454 135.613 123.454 135.636 123.434 135.678L123.429 135.673Z" fill="white"/>
<path d="M119.234 137.832C132.23 137.832 142.765 133.329 142.765 127.775C142.765 122.22 132.23 117.717 119.234 117.717C106.238 117.717 95.7029 122.22 95.7029 127.775C95.7029 133.329 106.238 137.832 119.234 137.832Z" fill="#BF8B0A"/>
<path d="M142.577 127.775C142.548 130.381 140.268 132.327 138.081 133.593C134.824 135.478 131.004 136.474 127.263 137.055C122.56 137.791 117.709 137.856 112.981 137.297C108.993 136.827 104.922 135.915 101.354 134.114C99.0539 132.95 96.4728 131.168 95.9645 128.58C95.4562 125.993 97.376 123.95 99.3895 122.581C102.38 120.547 106.062 119.454 109.64 118.765C114.249 117.881 119.027 117.685 123.71 118.071C127.875 118.416 132.11 119.216 135.925 120.873C138.432 121.967 141.324 123.624 142.291 126.225C142.478 126.728 142.572 127.245 142.577 127.775C142.577 127.999 142.947 127.999 142.947 127.775C142.918 125.201 140.83 123.233 138.688 121.906C135.327 119.831 131.281 118.77 127.357 118.155C122.481 117.392 117.462 117.336 112.566 117.95C108.529 118.458 104.409 119.412 100.836 121.301C98.5308 122.521 96.0188 124.392 95.5845 127.017C95.1749 129.479 96.8677 131.578 98.822 133.002C101.837 135.194 105.667 136.357 109.349 137.083C114.151 138.028 119.145 138.233 124.026 137.8C128.28 137.423 132.598 136.576 136.467 134.817C138.965 133.681 141.723 131.973 142.661 129.371C142.849 128.855 142.937 128.32 142.947 127.775C142.947 127.552 142.577 127.552 142.577 127.775Z" fill="#2B63A8"/>
<path d="M119.234 134.431C132.23 134.431 142.765 129.928 142.765 124.373C142.765 118.819 132.23 114.316 119.234 114.316C106.238 114.316 95.7029 118.819 95.7029 124.373C95.7029 129.928 106.238 134.431 119.234 134.431Z" fill="#FCBC00"/>
<path d="M142.577 124.373C142.548 126.98 140.268 128.925 138.081 130.191C134.824 132.076 131.004 133.072 127.263 133.653C122.56 134.389 117.709 134.454 112.981 133.895C108.993 133.425 104.922 132.513 101.354 130.712C99.0539 129.549 96.4728 127.766 95.9645 125.178C95.4562 122.591 97.376 120.548 99.3895 119.179C102.38 117.146 106.062 116.052 109.64 115.363C114.249 114.479 119.027 114.283 123.71 114.67C127.875 115.014 132.11 115.814 135.925 117.471C138.432 118.565 141.324 120.222 142.291 122.823C142.478 123.326 142.572 123.843 142.577 124.373C142.577 124.597 142.947 124.597 142.947 124.373C142.918 121.8 140.83 119.831 138.688 118.505C135.327 116.429 131.281 115.368 127.357 114.753C122.481 113.99 117.462 113.934 112.566 114.549C108.529 115.056 104.409 116.01 100.836 117.9C98.5308 119.119 96.0188 120.99 95.5845 123.615C95.1749 126.077 96.8677 128.176 98.822 129.6C101.837 131.792 105.667 132.955 109.349 133.681C114.151 134.626 119.145 134.831 124.026 134.398C128.28 134.021 132.598 133.174 136.467 131.415C138.965 130.279 141.723 128.571 142.661 125.97C142.849 125.453 142.937 124.918 142.947 124.373C142.947 124.15 142.577 124.15 142.577 124.373Z" fill="#2B63A8"/>
<path d="M118.577 126.677L127.584 129.088C127.584 129.19 127.5 129.204 127.446 129.241C126.775 129.67 126.104 130.093 125.437 130.521C125.294 130.614 125.176 130.638 125.028 130.596C122.22 129.837 119.407 129.088 116.594 128.339C116.45 128.301 116.357 128.232 116.292 128.111C116.164 127.873 116.041 127.636 115.883 127.417C115.74 127.217 115.769 127.101 116.031 126.942C116.598 126.603 117.161 126.258 117.689 125.863C118.35 125.365 118.928 124.801 119.313 124.089C119.703 123.373 119.796 122.67 119.564 121.986C119.495 121.781 119.416 121.744 119.184 121.893C117.585 122.917 115.982 123.931 114.383 124.95C114.244 125.039 114.111 125.123 113.919 125.244C113.998 124.625 114.072 124.066 114.146 123.503C114.16 123.377 114.289 123.34 114.383 123.284C115.681 122.46 116.978 121.637 118.271 120.808C118.35 120.757 118.489 120.725 118.489 120.627C118.489 120.534 118.36 120.524 118.281 120.492C117.462 120.147 116.608 120.375 115.75 120.78C114.728 121.26 113.795 121.916 112.833 122.521C112.729 122.586 112.631 122.651 112.468 122.754C112.547 122.139 112.621 121.576 112.69 121.018C112.7 120.929 112.774 120.887 112.843 120.846C115.863 118.928 118.883 117.006 121.904 115.093C122.002 115.135 121.953 115.223 121.943 115.289C121.889 115.726 121.82 116.159 121.785 116.596C121.766 116.801 121.677 116.913 121.489 117.029C120.769 117.471 120.058 117.932 119.308 118.407C119.53 118.495 119.727 118.565 119.915 118.653C120.167 118.77 120.399 118.919 120.581 119.114C120.7 119.24 120.803 119.226 120.971 119.114C121.766 118.598 122.57 118.095 123.434 117.546C123.384 117.932 123.3 118.277 123.305 118.602C123.315 119.165 123.064 119.547 122.491 119.817C122.2 119.957 121.933 120.166 121.652 120.338C121.529 120.413 121.479 120.478 121.524 120.613C121.988 122.084 121.494 123.498 120.443 124.867C119.974 125.476 119.416 126.007 118.785 126.472C118.726 126.514 118.671 126.561 118.617 126.607C118.602 126.617 118.602 126.64 118.582 126.682L118.577 126.677Z" fill="white"/>
<path d="M125.931 127.887C138.926 127.887 149.461 123.384 149.461 117.83C149.461 112.275 138.926 107.772 125.931 107.772C112.935 107.772 102.4 112.275 102.4 117.83C102.4 123.384 112.935 127.887 125.931 127.887Z" fill="#BF8B0A"/>
<path d="M149.274 117.83C149.244 120.436 146.964 122.381 144.778 123.647C141.521 125.532 137.701 126.528 133.96 127.11C129.257 127.845 124.406 127.91 119.678 127.352C115.69 126.882 111.619 125.97 108.05 124.168C105.751 123.005 103.17 121.222 102.661 118.635C102.153 116.047 104.073 114.004 106.086 112.636C109.077 110.602 112.759 109.508 116.337 108.819C120.946 107.935 125.723 107.74 130.407 108.126C134.572 108.47 138.806 109.271 142.621 110.928C145.128 112.021 148.02 113.678 148.988 116.28C149.175 116.782 149.269 117.299 149.274 117.83C149.274 118.053 149.644 118.053 149.644 117.83C149.614 115.256 147.527 113.287 145.385 111.961C142.024 109.885 137.977 108.824 134.054 108.21C129.178 107.446 124.159 107.391 119.263 108.005C115.226 108.512 111.105 109.466 107.532 111.356C105.228 112.575 102.716 114.446 102.281 117.071C101.872 119.533 103.564 121.632 105.519 123.056C108.534 125.248 112.364 126.412 116.045 127.138C120.847 128.082 125.842 128.287 130.723 127.854C134.977 127.477 139.295 126.63 143.164 124.871C145.661 123.736 148.42 122.028 149.358 119.426C149.545 118.909 149.634 118.374 149.644 117.83C149.644 117.606 149.274 117.606 149.274 117.83Z" fill="#2B63A8"/>
<path d="M125.931 124.48C138.926 124.48 149.461 119.977 149.461 114.423C149.461 108.868 138.926 104.365 125.931 104.365C112.935 104.365 102.4 108.868 102.4 114.423C102.4 119.977 112.935 124.48 125.931 124.48Z" fill="#FCBC00"/>
<path d="M149.274 114.423C149.244 117.029 146.964 118.974 144.778 120.24C141.521 122.125 137.701 123.121 133.96 123.703C129.257 124.438 124.406 124.503 119.678 123.945C115.69 123.475 111.619 122.563 108.05 120.761C105.751 119.598 103.17 117.815 102.661 115.228C102.153 112.64 104.073 110.597 106.086 109.229C109.077 107.195 112.759 106.101 116.337 105.412C120.946 104.528 125.723 104.333 130.407 104.719C134.572 105.063 138.806 105.864 142.621 107.521C145.128 108.614 148.02 110.271 148.988 112.873C149.175 113.375 149.269 113.892 149.274 114.423C149.274 114.646 149.644 114.646 149.644 114.423C149.614 111.849 147.527 109.88 145.385 108.554C142.024 106.478 137.977 105.417 134.054 104.803C129.178 104.039 124.159 103.984 119.263 104.598C115.226 105.105 111.105 106.059 107.532 107.949C105.228 109.168 102.716 111.039 102.281 113.664C101.872 116.126 103.564 118.225 105.519 119.649C108.534 121.841 112.364 123.005 116.045 123.731C120.847 124.675 125.842 124.88 130.723 124.447C134.977 124.07 139.295 123.223 143.164 121.464C145.661 120.329 148.42 118.621 149.358 116.019C149.545 115.502 149.634 114.967 149.644 114.423C149.644 114.199 149.274 114.199 149.274 114.423Z" fill="#2B63A8"/>
<path d="M125.275 116.727L134.281 119.137C134.281 119.24 134.197 119.254 134.143 119.291C133.472 119.719 132.801 120.143 132.134 120.571C131.991 120.664 131.873 120.687 131.725 120.645C128.917 119.887 126.104 119.137 123.291 118.388C123.147 118.351 123.054 118.281 122.99 118.16C122.861 117.923 122.738 117.685 122.58 117.467C122.437 117.266 122.466 117.15 122.728 116.992C123.296 116.652 123.858 116.308 124.386 115.912C125.048 115.414 125.625 114.851 126.01 114.139C126.4 113.422 126.494 112.719 126.262 112.035C126.192 111.831 126.114 111.793 125.882 111.942C124.283 112.966 122.679 113.981 121.08 115C120.941 115.088 120.808 115.172 120.616 115.293C120.695 114.674 120.769 114.116 120.843 113.553C120.858 113.427 120.986 113.39 121.08 113.334C122.378 112.51 123.676 111.686 124.969 110.858C125.048 110.807 125.186 110.774 125.186 110.676C125.186 110.583 125.057 110.574 124.978 110.541C124.159 110.197 123.305 110.425 122.447 110.83C121.425 111.309 120.492 111.966 119.53 112.571C119.426 112.636 119.328 112.701 119.165 112.803C119.244 112.189 119.318 111.626 119.387 111.067C119.397 110.979 119.471 110.937 119.54 110.895C122.56 108.978 125.581 107.056 128.601 105.143C128.7 105.185 128.65 105.273 128.64 105.338C128.586 105.776 128.517 106.208 128.482 106.646C128.463 106.851 128.374 106.962 128.186 107.079C127.466 107.521 126.755 107.982 126.005 108.456C126.227 108.545 126.424 108.615 126.612 108.703C126.864 108.819 127.096 108.968 127.278 109.164C127.397 109.289 127.5 109.275 127.668 109.164C128.463 108.647 129.267 108.145 130.131 107.595C130.081 107.982 129.997 108.326 130.002 108.652C130.012 109.215 129.761 109.597 129.188 109.867C128.897 110.006 128.63 110.216 128.349 110.388C128.226 110.462 128.176 110.527 128.221 110.662C128.685 112.133 128.191 113.548 127.14 114.916C126.671 115.526 126.114 116.056 125.482 116.522C125.423 116.564 125.368 116.61 125.314 116.657C125.299 116.666 125.299 116.689 125.279 116.731L125.275 116.727Z" fill="white"/>
<path d="M88.2216 184.699C98.8488 184.699 107.464 176.574 107.464 166.553C107.464 156.531 98.8488 148.406 88.2216 148.406C77.5944 148.406 68.9794 156.531 68.9794 166.553C68.9794 176.574 77.5944 184.699 88.2216 184.699Z" fill="#BF8B0A"/>
<path d="M106.728 170.848C104.799 178.085 98.1955 183.619 90.2943 184.424C82.3684 185.234 74.5758 181.171 71.0817 174.418C67.5876 167.665 69.0434 159.237 74.6942 153.884C80.3203 148.556 89.1197 147.08 96.3448 150.292C103.432 153.442 107.844 160.6 107.222 167.968C107.138 168.94 106.97 169.904 106.723 170.853C106.669 171.072 107.024 171.165 107.079 170.946C108.974 163.556 105.796 155.658 99.1035 151.381C92.4114 147.103 83.1333 147.262 76.5893 151.879C70.065 156.477 67.2224 164.686 69.6653 172.026C72.0983 179.333 79.2888 184.541 87.4023 184.871C95.417 185.197 103.027 180.631 106.126 173.659C106.516 172.78 106.832 171.877 107.074 170.951C107.133 170.732 106.773 170.639 106.718 170.858L106.728 170.848Z" fill="#2B63A8"/>
<path d="M86.188 182.33C96.8151 182.33 105.43 174.206 105.43 164.184C105.43 154.162 96.8151 146.038 86.188 146.038C75.5608 146.038 66.9457 154.162 66.9457 164.184C66.9457 174.206 75.5608 182.33 86.188 182.33Z" fill="#FCBC00"/>
<path d="M104.695 168.48C102.765 175.717 96.1617 181.25 88.2605 182.055C80.3347 182.865 72.542 178.802 69.0479 172.049C65.5538 165.296 67.0097 156.868 72.6605 151.516C78.2866 146.187 87.086 144.711 94.3111 147.923C101.536 151.134 105.81 158.231 105.188 165.599C105.104 166.571 104.936 167.535 104.69 168.484C104.635 168.703 104.991 168.796 105.045 168.577C106.94 161.187 103.762 153.289 97.0698 149.012C90.3777 144.735 81.0996 144.893 74.5556 149.51C68.0116 154.126 65.1886 162.318 67.6315 169.657C70.0745 176.996 77.2551 182.172 85.3685 182.502C93.3832 182.828 100.993 178.262 104.093 171.291C104.482 170.411 104.798 169.508 105.04 168.582C105.099 168.363 104.739 168.27 104.685 168.489L104.695 168.48Z" fill="#2B63A8"/>
<path d="M83.6165 163.709L87.8262 173.827C87.7374 173.911 87.6634 173.85 87.5992 173.827C86.7652 173.585 85.9361 173.338 85.102 173.101C84.9194 173.05 84.8256 172.966 84.7565 172.798C83.4487 169.638 82.131 166.478 80.8133 163.318C80.7492 163.16 80.7393 163.016 80.7985 162.857C80.9121 162.546 81.0305 162.229 81.1095 161.908C81.1786 161.61 81.297 161.54 81.6178 161.643C82.3038 161.866 82.9898 162.08 83.7004 162.224C84.5888 162.401 85.4721 162.448 86.3506 162.192C87.234 161.936 87.9052 161.429 88.3296 160.642C88.4579 160.405 88.4332 160.307 88.1421 160.223C86.1483 159.651 84.1594 159.064 82.1705 158.483C82.0027 158.431 81.8349 158.385 81.5931 158.315C82.1804 157.864 82.7084 157.459 83.2414 157.054C83.3599 156.961 83.4833 157.049 83.5918 157.082C85.2056 157.552 86.8145 158.022 88.4283 158.492C88.527 158.52 88.6504 158.618 88.7392 158.534C88.8182 158.455 88.7392 158.329 88.7096 158.231C88.4332 157.207 87.6436 156.63 86.6961 156.197C85.5708 155.685 84.3568 155.397 83.1724 155.043C83.044 155.006 82.9207 154.969 82.7183 154.908C83.3007 154.461 83.8337 154.052 84.3617 153.647C84.4456 153.582 84.5295 153.614 84.6184 153.642C88.3691 154.741 92.1198 155.839 95.8656 156.933C95.8952 157.058 95.7866 157.086 95.7274 157.133C95.3178 157.454 94.8934 157.757 94.4936 158.087C94.3061 158.241 94.1432 158.259 93.9162 158.189C93.0328 157.919 92.1445 157.663 91.2117 157.393C91.2907 157.663 91.3647 157.905 91.424 158.143C91.498 158.469 91.5325 158.799 91.493 159.129C91.4684 159.344 91.5523 159.423 91.7645 159.479C92.7614 159.758 93.7534 160.056 94.8243 160.367C94.4591 160.647 94.1087 160.865 93.8323 161.145C93.3536 161.629 92.8502 161.726 92.2185 161.438C91.8977 161.289 91.5276 161.233 91.1871 161.121C91.039 161.075 90.9502 161.084 90.8613 161.233C89.9237 162.89 88.3691 163.639 86.4592 163.844C85.6103 163.937 84.7664 163.881 83.9274 163.709C83.8485 163.695 83.7744 163.681 83.6955 163.672C83.6757 163.672 83.656 163.686 83.6116 163.704L83.6165 163.709Z" fill="white"/>
<path d="M42.7284 112.408L34.7976 117.411L69.3191 135.966L77.2548 131.638L42.7284 112.408Z" fill="white"/>
<path d="M42.6351 112.254L34.6994 117.262C34.5858 117.331 34.571 117.494 34.6994 117.564L39.7776 120.291L51.1088 126.379L62.8792 132.708L67.0494 134.952C67.7255 135.315 68.4065 135.766 69.1221 136.064C69.3097 136.143 69.3837 136.129 69.5762 136.031C70.272 135.678 70.9481 135.282 71.6292 134.91L76.9839 131.987L77.3491 131.787C77.4675 131.722 77.4675 131.55 77.3491 131.484L65.6231 124.95L47.0767 114.618L42.8226 112.249C42.6154 112.133 42.4328 112.435 42.6351 112.552L54.3611 119.086L72.9074 129.418L77.1615 131.787V131.484L72.9814 133.765L70.2375 135.263C69.971 135.412 69.6798 135.543 69.4232 135.706C69.1517 135.878 69.3146 135.706 69.4034 135.808C69.3097 135.701 69.053 135.622 68.9297 135.552L67.8143 134.952L64.0241 132.913L52.6387 126.793L41.0707 120.575L36.9843 118.379L35.6765 117.676C35.489 117.573 35.1978 117.336 34.9807 117.304C34.951 117.304 34.9165 117.266 34.8918 117.252V117.555L42.8276 112.547C43.025 112.421 42.8374 112.119 42.64 112.245L42.6351 112.254Z" fill="#2B63A8"/>
<path d="M34.7981 125.151L27.7458 128.958L62.2722 147.513L69.3196 144.386L34.7981 125.151Z" fill="white"/>
<path d="M34.7041 125.001L27.6518 128.808C27.5333 128.874 27.5333 129.046 27.6518 129.111L32.4981 131.713L43.3653 137.553L54.963 143.785L61.8229 147.471C61.9265 147.527 62.0647 147.639 62.1782 147.662C62.5483 147.741 63.1702 147.304 63.486 147.164L68.9986 144.716L69.4131 144.53C69.5415 144.474 69.5266 144.292 69.4131 144.227L57.6872 137.693L39.1408 127.361L34.8867 124.992C34.6794 124.876 34.4968 125.178 34.6992 125.295L46.4251 131.829L64.9715 142.161L69.2256 144.53V144.227L64.7099 146.233L62.4151 147.252C62.3608 147.276 62.2423 147.304 62.2029 147.346C62.1338 147.415 62.3953 147.397 62.3509 147.35C62.3164 147.313 62.2473 147.304 62.2078 147.271C61.5958 146.829 60.8013 146.517 60.135 146.154L56.103 143.99L44.836 137.935L33.7269 131.964L29.8282 129.87L28.5796 129.199C28.4118 129.111 28.1255 128.874 27.9281 128.85C27.9035 128.85 27.8689 128.818 27.8442 128.804V129.106L34.8966 125.299C35.1039 125.188 34.9163 124.885 34.7091 124.997L34.7041 125.001Z" fill="#2B63A8"/>
<path d="M27.7455 136.697L19.7111 141.426L54.2375 159.981L62.2719 155.928L27.7455 136.697Z" fill="white"/>
<path d="M27.652 136.548L19.6225 141.277C19.509 141.347 19.4991 141.509 19.6225 141.579L24.7008 144.307L36.0319 150.394L47.7628 156.7L51.9232 158.934C52.619 159.307 53.3099 159.744 54.0354 160.07C54.218 160.154 54.297 160.144 54.4895 160.056C55.1754 159.739 55.8466 159.372 56.5178 159.032L61.9958 156.267L62.3709 156.077C62.4943 156.016 62.4894 155.839 62.3709 155.774L50.645 149.24L32.0986 138.908L27.8445 136.539C27.6372 136.423 27.4546 136.725 27.657 136.841L39.3829 143.376L57.9293 153.708L62.1834 156.077V155.774L57.8947 157.938L55.1162 159.344C54.8596 159.474 54.5585 159.586 54.3167 159.744C54.0749 159.902 54.2328 159.725 54.3167 159.818C54.2081 159.702 53.9565 159.623 53.8183 159.549L52.6832 158.939L48.8584 156.882L37.4977 150.776L25.9839 144.586L21.8976 142.389L20.5898 141.686C20.4023 141.584 20.1111 141.347 19.8939 141.314C19.8643 141.314 19.8298 141.277 19.8051 141.263V141.565L27.8346 136.837C28.037 136.716 27.8494 136.418 27.6471 136.534L27.652 136.548Z" fill="#2B63A8"/>
<path d="M19.711 149.165L12.7573 153.065L47.2838 171.621L53.9561 167.698L19.711 149.165Z" fill="white"/>
<path d="M19.6175 149.016L12.6638 152.916C12.5454 152.981 12.5404 153.154 12.6638 153.219L24.3454 159.497L42.946 169.494L47.1902 171.774C47.2445 171.807 47.3185 171.807 47.3778 171.774L54.0501 167.851C54.1686 167.781 54.1735 167.618 54.0501 167.549L42.4081 161.247L24.0098 151.287L19.8099 149.016C19.6027 148.904 19.4151 149.207 19.6224 149.319L31.2645 155.62L49.6628 165.58L53.8626 167.851V167.549L49.6529 170.025L47.437 171.328C47.3975 171.351 47.2544 171.407 47.2396 171.444C47.2001 171.542 47.3136 171.402 47.3778 171.467C47.3432 171.435 47.284 171.421 47.2445 171.397C46.6326 170.96 45.8479 170.648 45.1816 170.29L41.1644 168.13L29.9073 162.08L18.7439 156.081L14.8452 153.987L13.6114 153.326C13.4386 153.233 13.1425 152.991 12.9451 152.967C12.9204 152.967 12.8859 152.935 12.8612 152.921V153.223L19.8149 149.323C20.0172 149.207 19.8346 148.904 19.6273 149.021L19.6175 149.016Z" fill="#2B63A8"/>
<path d="M78.499 45.0542V52.7939L113.025 72.0291V63.6099L78.499 45.0542Z" fill="#2B63A8"/>
<path d="M70.5683 57.8015V65.5412L105.095 84.7717V76.3572L70.5683 57.8015Z" fill="#2B63A8"/>
<path d="M63.5158 69.3483V77.088L98.0422 96.3185V87.904L63.5158 69.3483Z" fill="#2B63A8"/>
<path d="M55.4811 81.8167V89.5563L90.0075 108.787V100.372L55.4811 81.8167Z" fill="#2B63A8"/>
<path d="M48.5276 93.4563V101.191L83.054 120.427V112.012L48.5276 93.4563Z" fill="#2B63A8"/>
<path d="M142.775 47.2459L108.579 28.7972L78.499 45.0538L113.025 63.6095L142.775 47.2459Z" fill="white"/>
<path d="M142.868 47.0973L132.312 41.4007L114.486 31.7854L109.255 28.9651C109.038 28.8487 108.742 28.6021 108.485 28.6533C108.149 28.7231 107.745 29.0535 107.453 29.2117L92.0656 37.5285L78.6518 44.7795L78.4149 44.9052C78.2965 44.9704 78.2965 45.1426 78.4149 45.2077L88.8923 50.8391L106.807 60.4683L112.241 63.3864C112.448 63.4981 112.828 63.8099 113.084 63.782C113.366 63.7541 113.77 63.4144 114.002 63.284L129.119 54.9673L142.636 47.5301L142.873 47.3998C143.08 47.2881 142.893 46.9856 142.686 47.0973L131.35 53.3337L114.98 62.3393L113.198 63.3166C113.119 63.3585 113.006 63.4004 112.941 63.4609C113.07 63.3492 113.193 63.5214 112.922 63.3492C111.555 62.4835 110.02 61.7901 108.589 61.0222L91.2069 51.6815L83.1379 47.3439L80.3495 45.8453C79.8461 45.5754 79.3378 45.2356 78.8048 45.0169C78.7357 44.989 78.6666 44.9424 78.5975 44.9052V45.2077L89.9287 39.083L106.466 30.1426L108.332 29.1326C108.416 29.0861 108.603 29.0256 108.663 28.9558C108.559 29.0861 108.411 28.8627 108.628 29.0256C109.038 29.3374 109.6 29.5515 110.059 29.7982L112.774 31.2595L130.091 40.6049C134.217 42.8295 138.328 45.096 142.478 47.2881C142.547 47.3253 142.617 47.3625 142.691 47.3998C142.898 47.5115 143.085 47.209 142.878 47.0973H142.868Z" fill="#2B63A8"/>
<path d="M78.4986 52.7939L70.5677 57.8017L105.094 76.3574L113.025 72.0291L78.4986 52.7939Z" fill="white"/>
<path d="M78.4052 52.645L70.4694 57.6527C70.3559 57.7225 70.3411 57.8854 70.4694 57.9552L75.5477 60.6825L86.8789 66.77L98.6492 73.0995L102.819 75.3428C103.496 75.7058 104.177 76.1572 104.892 76.4551C105.08 76.5342 105.154 76.5202 105.346 76.4225C106.042 76.0688 106.718 75.6732 107.399 75.3009L112.754 72.3781L113.119 72.178C113.238 72.1129 113.238 71.9407 113.119 71.8755L101.393 65.3412L82.8468 55.0092L78.5927 52.6403C78.3854 52.524 78.2028 52.8265 78.4052 52.9428L90.1311 59.4771L108.677 69.8091L112.932 72.178V71.8755L108.752 74.156L106.008 75.6546C105.741 75.8035 105.45 75.9338 105.193 76.0967C104.922 76.2689 105.085 76.0967 105.174 76.1991C105.08 76.0921 104.823 76.0129 104.7 75.9431L103.584 75.3428L99.7942 73.3043L88.4088 67.1842L76.8407 60.9664L72.7544 58.7697L71.4466 58.0669C71.2591 57.9645 70.9679 57.7272 70.7507 57.6946C70.7211 57.6946 70.6866 57.6574 70.6619 57.6434V57.9459L78.5976 52.9382C78.7951 52.8125 78.6075 52.51 78.4101 52.6357L78.4052 52.645Z" fill="#2B63A8"/>
<path d="M70.5681 65.5414L63.5157 69.3484L98.0422 87.9041L105.095 84.7719L70.5681 65.5414Z" fill="white"/>
<path d="M70.4743 65.3925L63.4219 69.1995C63.3035 69.2647 63.3035 69.4369 63.4219 69.5021L68.2682 72.1037L79.1355 77.9445L90.7331 84.1763L97.593 87.8623C97.6966 87.9181 97.8348 88.0298 97.9483 88.0531C98.3185 88.1322 98.9403 87.6947 99.2561 87.5551L104.769 85.1071L105.183 84.9209C105.312 84.8651 105.297 84.6836 105.183 84.6184L93.4573 78.0841L74.911 67.7521L70.6569 65.3832C70.4496 65.2669 70.267 65.5694 70.4693 65.6857L82.1953 72.22L100.742 82.552L104.996 84.9209V84.6184L100.48 86.6243L98.1852 87.6435C98.1309 87.6668 98.0125 87.6947 97.973 87.7366C97.9039 87.8064 98.1655 87.7878 98.1211 87.7413C98.0865 87.704 98.0174 87.6947 97.9779 87.6622C97.366 87.22 96.5714 86.9082 95.9052 86.5452L91.8731 84.3811L80.6062 78.3261L69.4971 72.355L65.5983 70.2607L64.3497 69.5905C64.1819 69.5021 63.8957 69.2647 63.6983 69.2414C63.6736 69.2414 63.639 69.2088 63.6144 69.1949V69.4974L70.6667 65.6904C70.874 65.5787 70.6865 65.2762 70.4792 65.3879L70.4743 65.3925Z" fill="#2B63A8"/>
<path d="M63.5155 77.0878L55.4811 81.8163L90.0075 100.372L98.042 96.3183L63.5155 77.0878Z" fill="white"/>
<path d="M63.4221 76.9342L55.3926 81.6627C55.2791 81.7325 55.2692 81.8954 55.3926 81.9652L60.4709 84.6925L71.802 90.78L83.5329 97.0863L87.6932 99.3202C88.3891 99.6925 89.08 100.13 89.8055 100.456C89.9881 100.54 90.0671 100.53 90.2595 100.442C90.9455 100.125 91.6167 99.7577 92.2879 99.4179L97.7659 96.6534L98.141 96.4626C98.2644 96.4021 98.2594 96.2253 98.141 96.1601L86.415 89.6258L67.8687 79.2938L63.6146 76.9249C63.4073 76.8086 63.2247 77.1111 63.427 77.2274L75.153 83.7617L93.6993 94.0937L97.9534 96.4626V96.1601L93.6648 98.3242L90.8863 99.7297C90.6297 99.8601 90.3286 99.9718 90.0868 100.13C89.845 100.288 90.0029 100.111 90.0868 100.204C89.9782 100.088 89.7265 100.009 89.5883 99.9345L88.4533 99.3249L84.6285 97.2678L73.2678 91.1617L61.754 84.9718L57.6677 82.7751L56.3599 82.0723C56.1723 81.9699 55.8812 81.7325 55.664 81.7C55.6344 81.7 55.5999 81.6627 55.5752 81.6488V81.9513L63.6047 77.2228C63.807 77.1018 63.6195 76.8039 63.4172 76.9203L63.4221 76.9342Z" fill="#2B63A8"/>
<path d="M55.644 89.7051L48.6904 93.6052L83.2119 112.161L89.8842 108.238L55.644 89.7051Z" fill="white"/>
<path d="M55.5503 89.5562L48.5966 93.4563C48.4782 93.5215 48.4732 93.6937 48.5966 93.7588L60.2781 100.037L78.8788 110.034L83.123 112.315C83.1773 112.347 83.2513 112.347 83.3106 112.315L89.9829 108.391C90.1014 108.321 90.1063 108.158 89.9829 108.089L78.3409 101.787L59.9426 91.8274L55.7427 89.5562C55.5355 89.4445 55.3479 89.747 55.5552 89.8587L67.1973 96.1603L85.5956 106.12L89.7954 108.391V108.089L85.5857 110.565L83.3698 111.868C83.3303 111.891 83.1872 111.947 83.1724 111.984C83.1329 112.082 83.2464 111.942 83.3106 112.007C83.276 111.975 83.2168 111.961 83.1773 111.938C82.5654 111.5 81.7807 111.188 81.1144 110.83L77.0972 108.67L65.8401 102.62L54.6767 96.6211L50.778 94.5267L49.5442 93.8659C49.3714 93.7728 49.0753 93.5308 48.8779 93.5075C48.8532 93.5075 48.8187 93.4749 48.794 93.461V93.7635L55.7477 89.8634C55.95 89.747 55.7674 89.4445 55.5601 89.5609L55.5503 89.5562Z" fill="#2B63A8"/>
<path d="M48.5279 101.191L42.8327 104.794L77.3591 123.349L83.0938 120.264L48.5279 101.191Z" fill="white"/>
<path d="M48.4391 101.042L42.7439 104.645C42.6304 104.714 42.6156 104.877 42.7439 104.947L47.3583 107.428L57.8702 113.078L69.2852 119.212L76.5991 123.144C76.7916 123.247 76.9989 123.4 77.2062 123.47C77.4381 123.549 77.5516 123.452 77.7688 123.335L82.7336 120.659L83.1876 120.412C83.311 120.347 83.306 120.175 83.1876 120.11L71.511 113.669L52.9005 103.402L48.6266 101.047C48.4193 100.935 48.2318 101.233 48.4391 101.349L60.1157 107.791L78.7262 118.058L83 120.412V120.11L78.662 122.446L77.6109 123.014C77.5467 123.047 77.3888 123.098 77.3493 123.158C77.2555 123.289 77.3197 123.079 77.4579 123.196C77.3592 123.112 77.1963 123.056 77.0779 122.991L70.4647 119.435L59.3409 113.455L48.5723 107.665L44.8414 105.659L43.6372 105.012C43.4792 104.928 43.1979 104.7 43.0153 104.677C42.9907 104.677 42.9561 104.645 42.9364 104.635V104.938L48.6316 101.336C48.829 101.21 48.6414 100.907 48.444 101.033L48.4391 101.042Z" fill="#2B63A8"/>
<path d="M46.0645 39.8185L47.4711 42.704C47.5155 42.7925 47.5895 42.8623 47.6833 42.9042L50.7431 44.2306C51.0787 44.3748 51.0787 44.8263 50.7431 44.9706L47.6833 46.297C47.5895 46.3389 47.5155 46.4087 47.4711 46.4971L46.0645 49.3826C45.9115 49.6991 45.4328 49.6991 45.2798 49.3826L43.8733 46.4971C43.8289 46.4087 43.7549 46.3389 43.6611 46.297L40.6013 44.9706C40.2657 44.8263 40.2657 44.3748 40.6013 44.2306L43.6611 42.9042C43.7549 42.8623 43.8289 42.7925 43.8733 42.704L45.2798 39.8185C45.4328 39.5021 45.9115 39.5021 46.0645 39.8185Z" fill="white"/>
<path d="M45.9018 39.9071L47.1899 42.546C47.333 42.8392 47.4811 43.0067 47.7969 43.1463L49.391 43.8351L50.2003 44.1888C50.3188 44.24 50.5507 44.2912 50.6396 44.3797C51.0936 44.8218 49.9388 45.1243 49.7414 45.2127L47.9647 45.9806C47.6637 46.111 47.4317 46.1947 47.2689 46.4879C47.0122 46.9394 46.8099 47.4281 46.5829 47.8935L46.2029 48.6707C46.1239 48.8382 46.0499 49.0989 45.9265 49.2431C45.4873 49.7411 45.2208 48.8522 45.1171 48.6335L44.3028 46.9627C44.1597 46.6694 44.0561 46.3111 43.7402 46.1435C43.3207 45.9201 42.8469 45.7573 42.4077 45.5664C41.9043 45.3477 41.3319 45.1708 40.8581 44.8963C40.6952 44.8032 40.3103 44.7427 40.71 44.3797C40.8186 44.2819 41.0703 44.2214 41.2085 44.1656L43.1677 43.3139C43.528 43.1556 43.8784 43.0672 44.0709 42.7182C44.3522 42.2062 44.5841 41.6663 44.8408 41.1404L45.2652 40.2701C45.3195 40.1584 45.586 39.4371 45.9018 39.9118C46.0301 40.1026 46.3509 39.9257 46.2226 39.7349C45.887 39.2369 45.3096 39.3812 45.0628 39.8513C44.7766 40.4004 44.52 40.9636 44.2485 41.5221C44.0807 41.8618 43.9129 42.5273 43.5625 42.76C43.1529 43.03 42.5805 43.1882 42.1314 43.3837C41.6132 43.6071 41.0357 43.7979 40.5422 44.0725C40.0487 44.3471 40.0586 44.873 40.5422 45.1429C41.0259 45.4129 41.6132 45.6083 42.1314 45.8317C42.5805 46.0272 43.1579 46.1854 43.5625 46.4554C43.9129 46.6881 44.0807 47.3489 44.2485 47.6933C44.52 48.2472 44.7766 48.815 45.0628 49.3641C45.3047 49.8295 45.8969 49.9831 46.2226 49.4805C46.4743 49.0895 46.6421 48.6241 46.8395 48.2099C47.0863 47.7026 47.2886 47.1209 47.5995 46.6462C47.8068 46.3297 48.3349 46.2133 48.6754 46.0644L50.5655 45.2453C50.9752 45.0685 51.4144 44.7101 51.0393 44.254C50.911 44.1004 50.6939 44.0353 50.5113 43.9515L49.4847 43.5047C48.9468 43.272 48.2658 43.0858 47.7772 42.7647C47.5995 42.6483 47.5403 42.4436 47.4564 42.2667L46.9678 41.2707L46.2226 39.7442C46.1239 39.5394 45.8031 39.7163 45.9018 39.9211V39.9071Z" fill="#2B63A8"/>
<path d="M45.8972 39.9117L47.1853 42.5505C47.3284 42.8437 47.4814 43.0159 47.7972 43.1509L49.3913 43.8397L50.2007 44.1934C50.3191 44.2446 50.5511 44.2958 50.6399 44.3842C51.0791 44.8217 49.9391 45.1195 49.7417 45.208L47.965 45.9759C47.664 46.1062 47.432 46.1946 47.2642 46.4832C47.0076 46.9346 46.8053 47.4233 46.5783 47.8887L46.1982 48.6659C46.1193 48.8335 46.0453 49.0941 45.9219 49.2384C45.4876 49.7271 45.226 48.8428 45.1224 48.6287L44.3081 46.9579C44.165 46.6647 44.0613 46.3063 43.7455 46.1341C43.326 45.9107 42.8522 45.7478 42.413 45.557C41.9096 45.3383 41.3371 45.1614 40.8633 44.8868C40.7054 44.7938 40.3254 44.7379 40.7153 44.3796C40.8238 44.2818 41.0805 44.2213 41.2137 44.1655L43.173 43.3138C43.5333 43.1555 43.8837 43.0625 44.0761 42.7134C44.3574 42.2015 44.5894 41.6616 44.846 41.1357L45.2704 40.2654C45.3099 40.1863 45.3445 40.0559 45.4037 39.9908C45.4876 39.8931 45.5073 39.3253 45.8972 39.9117C46.0255 40.1071 46.3562 39.9256 46.2279 39.7302C45.8923 39.2275 45.305 39.3718 45.0582 39.8465C44.772 40.3957 44.5154 40.9588 44.2439 41.5173C44.0761 41.8571 43.9083 42.5226 43.5629 42.7506C43.1532 43.0206 42.5808 43.1788 42.1317 43.3743C41.6135 43.5977 41.0361 43.7885 40.5425 44.0631C40.049 44.3377 40.054 44.8729 40.5425 45.1428C41.0361 45.4174 41.6135 45.6082 42.1317 45.8316C42.5808 46.0271 43.1582 46.1853 43.5629 46.4553C43.9133 46.6833 44.0811 47.3488 44.2439 47.6886C44.5154 48.2424 44.772 48.8102 45.0582 49.3594C45.305 49.8294 45.8972 49.983 46.2279 49.4757C46.4795 49.0848 46.6473 48.6194 46.8448 48.2052C47.0915 47.6979 47.2939 47.1161 47.6048 46.6414C47.812 46.3296 48.3401 46.2086 48.6757 46.0643L50.5659 45.2452C50.9804 45.0684 51.4196 44.7007 51.0396 44.2446C50.9113 44.0863 50.6942 44.0258 50.5116 43.9421L49.4851 43.4953C48.9471 43.2626 48.2611 43.0764 47.7775 42.7553C47.5998 42.6389 47.5406 42.4388 47.4567 42.262L46.9681 41.266L46.2229 39.7395C46.1193 39.53 45.7886 39.7115 45.8923 39.921L45.8972 39.9117Z" fill="white"/>
<path d="M45.7391 39.9999L46.6817 41.9313C46.8988 42.3781 47.0666 42.918 47.5207 43.2066C48.0487 43.537 48.7199 43.7418 49.2924 43.9931C49.5638 44.1094 49.8303 44.2351 50.1018 44.3468C50.4077 44.4678 50.6742 44.5842 50.2893 44.8029C49.9833 44.9704 49.6083 45.0728 49.2875 45.2125C48.6903 45.4684 47.9402 45.6825 47.417 46.0548C47.0469 46.3201 46.8939 46.7902 46.7113 47.1765C46.4497 47.7349 46.1734 48.2888 45.9217 48.8519C45.897 48.9124 45.7588 49.2103 45.6108 49.173C45.5466 49.1591 45.4627 48.9543 45.438 48.9031C45.3788 48.7868 45.3344 48.6611 45.2801 48.5401C44.9889 47.9025 44.6632 47.2742 44.3622 46.6412C44.1697 46.2317 43.9427 46.0223 43.5133 45.8268C42.8767 45.5336 42.2055 45.3009 41.559 45.0263C41.4011 44.9611 40.9964 44.8355 40.8878 44.7005C40.6953 44.4678 41.105 44.398 41.3073 44.3142C42.013 44.0257 42.704 43.7045 43.3998 43.4067C43.8687 43.2066 44.1253 43.0157 44.3622 42.569C44.683 41.9546 44.9593 41.3217 45.2604 40.7027C45.364 40.4932 45.4676 40.2885 45.5663 40.079C45.5812 40.0465 45.6058 39.9673 45.6256 39.9487C45.7539 39.8091 45.5466 39.7021 45.7391 39.9999C45.8773 40.2093 46.1981 40.2187 46.3609 40.0325C46.5583 39.8044 46.3461 39.5252 46.1339 39.3809C45.8477 39.1855 45.4824 39.2134 45.2011 39.4042C44.7817 39.6974 44.604 40.3304 44.4016 40.7539C44.1746 41.2286 43.992 41.7312 43.7502 42.2013C43.459 42.7784 42.7878 42.9133 42.2104 43.1461C41.6676 43.3601 41.105 43.5603 40.5917 43.8302C39.6984 44.3003 39.9255 45.0542 40.7447 45.4452C41.2629 45.6918 41.8156 45.9012 42.3536 46.1107C42.6349 46.2224 42.926 46.3155 43.1975 46.4504C43.5676 46.6412 43.7107 46.8926 43.8588 47.2509C44.0513 47.7117 44.2585 48.1585 44.4757 48.6099C44.678 49.0334 44.8606 49.6571 45.3443 49.8805C46.3708 50.3459 46.8001 48.7216 47.0666 48.1352C47.3776 47.4557 47.5552 46.6831 48.335 46.3713C48.9914 46.1153 49.6329 45.8314 50.2745 45.5522C50.694 45.3707 51.3257 45.1426 51.3602 44.6214C51.3948 44.1001 50.8371 43.8907 50.4226 43.7092C49.7711 43.4299 49.1049 43.1833 48.4485 42.904C47.9648 42.6946 47.7378 42.4526 47.5207 42.0012C47.3578 41.6661 47.195 41.3356 47.0321 41.0005L46.5336 39.9813C46.4547 39.8184 46.3905 39.5624 46.1882 39.488C45.8526 39.3577 45.6502 39.6927 45.6996 39.958C45.7391 40.1768 46.0944 40.0837 46.0549 39.8649C46.0993 40.1116 46.3461 40.4327 46.4596 40.6654L46.8742 41.5125C47.0814 41.936 47.2443 42.5643 47.6292 42.8715C47.9945 43.1647 48.5176 43.3043 48.9519 43.4718C49.2677 43.5928 49.5786 43.7278 49.8896 43.8628C50.1363 43.9698 50.4818 44.0489 50.6891 44.2072C51.3602 44.7284 50.6594 44.9984 50.2696 45.1659C49.9537 45.3055 49.6379 45.4405 49.322 45.5755C48.8236 45.7896 48.2511 45.9524 47.7872 46.227C47.3776 46.469 47.2048 46.9112 47.0222 47.3161C46.7804 47.8466 46.5534 48.3865 46.3017 48.9124C46.1586 49.2103 45.9217 49.7548 45.4726 49.55C45.2011 49.4244 45.0679 49.0008 44.9495 48.7635C44.6978 48.2515 44.4461 47.7396 44.2339 47.2137C44.1006 46.8879 43.9674 46.5482 43.6762 46.3201C43.3307 46.0502 42.852 45.9245 42.4424 45.7663C41.8896 45.5522 41.2728 45.3567 40.7644 45.0589C39.6984 44.4399 41.1099 43.9559 41.6774 43.7278C42.4226 43.4299 43.5725 43.1972 43.997 42.4805C44.224 42.0989 44.3523 41.6568 44.5448 41.2565C44.6632 41.0052 44.7817 40.7539 44.905 40.5026C45.0333 40.2373 45.1666 39.7765 45.4676 39.6322C45.6305 39.5531 46.1734 39.7719 45.7884 39.5345C45.7095 39.488 45.6256 39.4461 45.5269 39.474C45.3295 39.5252 45.29 39.7439 45.2209 39.8929C44.9988 40.3815 44.7422 40.8656 44.5102 41.3542C44.2783 41.8429 44.071 42.6295 43.5676 42.9227C43.0642 43.2159 42.5016 43.3881 41.9834 43.6115C41.5491 43.7976 40.9174 43.9419 40.5572 44.2398C39.8564 44.8215 41.0753 45.2031 41.5047 45.3753C42.0476 45.5941 42.5954 45.8035 43.1333 46.0362C43.4196 46.1572 43.686 46.2643 43.8687 46.5156C44.0118 46.7111 44.0957 46.9763 44.1993 47.1951C44.4559 47.721 44.7274 48.2422 44.9643 48.7728C45.0679 49.0055 45.1567 49.2987 45.3837 49.4476C46.0451 49.8851 46.3905 48.6099 46.5583 48.2702C46.8347 47.707 47.0518 47.0834 47.3924 46.5575C47.7033 46.0734 48.5719 45.8733 49.0901 45.6499C49.5046 45.4684 49.9488 45.3241 50.3584 45.1287C50.5854 45.0216 50.8865 44.8494 50.8963 44.5748C50.9013 44.2584 50.5805 44.1467 50.3238 44.0489C49.6675 43.793 49.0308 43.4951 48.3893 43.2159C48.0586 43.0716 47.6638 42.9599 47.4417 42.6713C47.2739 42.4479 47.1752 42.1687 47.0568 41.922L46.0303 39.8138C45.9315 39.609 45.6108 39.7858 45.7095 39.9906L45.7391 39.9999Z" fill="#2B63A8"/>
<path d="M165.599 131.913L167.006 134.798C167.05 134.886 167.124 134.956 167.218 134.998L170.278 136.325C170.614 136.469 170.614 136.92 170.278 137.065L167.218 138.391C167.124 138.433 167.05 138.503 167.006 138.591L165.599 141.477C165.447 141.793 164.968 141.793 164.815 141.477L163.408 138.591C163.364 138.503 163.29 138.433 163.196 138.391L160.136 137.065C159.801 136.92 159.801 136.469 160.136 136.325L163.196 134.998C163.29 134.956 163.364 134.886 163.408 134.798L164.815 131.913C164.968 131.596 165.447 131.596 165.599 131.913Z" fill="white"/>
<path d="M165.442 132.001L166.73 134.64C166.873 134.933 167.021 135.101 167.337 135.24L168.931 135.929L169.74 136.283C169.859 136.334 170.091 136.385 170.18 136.474C170.634 136.916 169.479 137.218 169.281 137.307L167.505 138.075C167.204 138.205 166.972 138.289 166.809 138.582C166.552 139.033 166.35 139.522 166.123 139.987L165.743 140.765C165.664 140.932 165.59 141.193 165.467 141.337C165.027 141.835 164.761 140.946 164.657 140.727L163.843 139.057C163.7 138.763 163.596 138.405 163.28 138.237C162.861 138.014 162.387 137.851 161.948 137.66C161.444 137.442 160.872 137.265 160.398 136.99C160.235 136.897 159.85 136.837 160.25 136.474C160.359 136.376 160.61 136.315 160.749 136.259L162.708 135.408C163.068 135.25 163.418 135.161 163.611 134.812C163.892 134.3 164.124 133.76 164.381 133.234L164.805 132.364C164.86 132.252 165.126 131.531 165.442 132.006C165.57 132.196 165.891 132.02 165.763 131.829C165.427 131.331 164.85 131.475 164.603 131.945C164.317 132.494 164.06 133.057 163.789 133.616C163.621 133.956 163.453 134.621 163.103 134.854C162.693 135.124 162.12 135.282 161.671 135.478C161.153 135.701 160.576 135.892 160.082 136.166C159.589 136.441 159.599 136.967 160.082 137.237C160.566 137.507 161.153 137.702 161.671 137.926C162.12 138.121 162.698 138.279 163.103 138.549C163.453 138.782 163.621 139.443 163.789 139.787C164.06 140.341 164.317 140.909 164.603 141.458C164.845 141.923 165.437 142.077 165.763 141.574C166.014 141.183 166.182 140.718 166.38 140.304C166.626 139.797 166.829 139.215 167.14 138.74C167.347 138.424 167.875 138.307 168.215 138.158L170.106 137.339C170.515 137.162 170.954 136.804 170.579 136.348C170.451 136.194 170.234 136.129 170.051 136.045L169.025 135.599C168.487 135.366 167.806 135.18 167.317 134.859C167.14 134.742 167.08 134.537 166.996 134.361L166.508 133.365L165.763 131.838C165.664 131.633 165.343 131.81 165.442 132.015V132.001Z" fill="#2B63A8"/>
<path d="M165.437 132.006L166.725 134.645C166.868 134.938 167.021 135.11 167.337 135.245L168.931 135.934L169.74 136.287C169.859 136.339 170.091 136.39 170.18 136.478C170.619 136.916 169.479 137.214 169.281 137.302L167.505 138.07C167.204 138.2 166.972 138.289 166.804 138.577C166.547 139.029 166.345 139.517 166.118 139.983L165.738 140.76C165.659 140.927 165.585 141.188 165.462 141.332C165.027 141.821 164.766 140.937 164.662 140.723L163.848 139.052C163.705 138.759 163.601 138.4 163.285 138.228C162.866 138.005 162.392 137.842 161.953 137.651C161.449 137.432 160.877 137.255 160.403 136.981C160.245 136.888 159.865 136.832 160.255 136.474C160.364 136.376 160.62 136.315 160.753 136.259L162.713 135.408C163.073 135.25 163.423 135.156 163.616 134.807C163.897 134.295 164.129 133.756 164.386 133.23L164.81 132.359C164.85 132.28 164.884 132.15 164.943 132.085C165.027 131.987 165.047 131.419 165.437 132.006C165.565 132.201 165.896 132.02 165.768 131.824C165.432 131.322 164.845 131.466 164.598 131.941C164.312 132.49 164.055 133.053 163.784 133.611C163.616 133.951 163.448 134.617 163.103 134.845C162.693 135.115 162.12 135.273 161.671 135.468C161.153 135.692 160.576 135.882 160.082 136.157C159.589 136.432 159.594 136.967 160.082 137.237C160.576 137.511 161.153 137.702 161.671 137.926C162.12 138.121 162.698 138.279 163.103 138.549C163.453 138.777 163.621 139.443 163.784 139.783C164.055 140.336 164.312 140.904 164.598 141.453C164.845 141.923 165.437 142.077 165.768 141.57C166.019 141.179 166.187 140.713 166.384 140.299C166.631 139.792 166.834 139.21 167.144 138.735C167.352 138.424 167.88 138.303 168.215 138.158L170.106 137.339C170.52 137.162 170.959 136.795 170.579 136.339C170.451 136.18 170.234 136.12 170.051 136.036L169.025 135.589C168.487 135.357 167.801 135.17 167.317 134.849C167.14 134.733 167.08 134.533 166.996 134.356L166.508 133.36L165.763 131.833C165.659 131.624 165.328 131.806 165.432 132.015L165.437 132.006Z" fill="white"/>
<path d="M165.279 132.094L166.222 134.026C166.439 134.472 166.607 135.012 167.061 135.301C167.589 135.631 168.26 135.836 168.832 136.087C169.104 136.204 169.37 136.329 169.642 136.441C169.948 136.562 170.214 136.678 169.829 136.897C169.523 137.065 169.148 137.167 168.827 137.307C168.23 137.563 167.48 137.777 166.957 138.149C166.587 138.414 166.434 138.884 166.251 139.271C165.99 139.829 165.713 140.383 165.462 140.946C165.437 141.007 165.299 141.305 165.151 141.267C165.087 141.253 165.003 141.049 164.978 140.997C164.919 140.881 164.874 140.755 164.82 140.634C164.529 139.997 164.203 139.368 163.902 138.735C163.71 138.326 163.483 138.116 163.053 137.921C162.417 137.628 161.745 137.395 161.099 137.121C160.941 137.055 160.536 136.93 160.428 136.795C160.235 136.562 160.645 136.492 160.847 136.408C161.553 136.12 162.244 135.799 162.94 135.501C163.409 135.301 163.665 135.11 163.902 134.663C164.223 134.049 164.499 133.416 164.8 132.797C164.904 132.587 165.008 132.383 165.106 132.173C165.121 132.141 165.146 132.062 165.165 132.043C165.294 131.903 165.087 131.796 165.279 132.094C165.417 132.304 165.738 132.313 165.901 132.127C166.098 131.899 165.886 131.619 165.674 131.475C165.388 131.28 165.022 131.308 164.741 131.498C164.322 131.792 164.144 132.425 163.942 132.848C163.715 133.323 163.532 133.825 163.29 134.296C162.999 134.873 162.328 135.008 161.75 135.24C161.207 135.454 160.645 135.655 160.132 135.924C159.238 136.394 159.465 137.148 160.285 137.539C160.803 137.786 161.356 137.995 161.893 138.205C162.175 138.317 162.466 138.41 162.737 138.545C163.108 138.735 163.251 138.987 163.399 139.345C163.591 139.806 163.798 140.253 164.016 140.704C164.218 141.128 164.401 141.751 164.884 141.975C165.911 142.44 166.34 140.816 166.607 140.229C166.917 139.55 167.095 138.777 167.875 138.466C168.531 138.21 169.173 137.926 169.814 137.646C170.234 137.465 170.866 137.237 170.9 136.716C170.935 136.194 170.377 135.985 169.962 135.803C169.311 135.524 168.645 135.278 167.988 134.998C167.505 134.789 167.278 134.547 167.061 134.095C166.898 133.76 166.735 133.43 166.572 133.095L166.074 132.076C165.995 131.913 165.93 131.657 165.728 131.582C165.393 131.452 165.19 131.787 165.24 132.052C165.279 132.271 165.634 132.178 165.595 131.959C165.639 132.206 165.886 132.527 166 132.76L166.414 133.607C166.621 134.03 166.784 134.659 167.169 134.966C167.534 135.259 168.057 135.399 168.492 135.566C168.808 135.687 169.119 135.822 169.429 135.957C169.676 136.064 170.022 136.143 170.229 136.301C170.9 136.823 170.199 137.093 169.809 137.26C169.494 137.4 169.178 137.535 168.862 137.67C168.363 137.884 167.791 138.047 167.327 138.321C166.917 138.563 166.745 139.005 166.562 139.41C166.32 139.941 166.093 140.481 165.842 141.007C165.698 141.305 165.462 141.849 165.012 141.644C164.741 141.519 164.608 141.095 164.489 140.858C164.238 140.346 163.986 139.834 163.774 139.308C163.641 138.982 163.507 138.642 163.216 138.414C162.871 138.144 162.392 138.019 161.982 137.861C161.43 137.646 160.813 137.451 160.304 137.153C159.238 136.534 160.65 136.05 161.217 135.822C161.963 135.524 163.112 135.291 163.537 134.575C163.764 134.193 163.892 133.751 164.085 133.351C164.203 133.099 164.322 132.848 164.445 132.597C164.573 132.332 164.707 131.871 165.008 131.726C165.17 131.647 165.713 131.866 165.328 131.629C165.249 131.582 165.165 131.54 165.067 131.568C164.869 131.619 164.83 131.838 164.761 131.987C164.539 132.476 164.282 132.96 164.05 133.448C163.818 133.937 163.611 134.724 163.108 135.017C162.604 135.31 162.042 135.482 161.523 135.706C161.089 135.892 160.457 136.036 160.097 136.334C159.396 136.916 160.615 137.297 161.045 137.47C161.587 137.688 162.135 137.898 162.673 138.13C162.959 138.251 163.226 138.358 163.409 138.61C163.552 138.805 163.636 139.071 163.739 139.289C163.996 139.815 164.267 140.336 164.504 140.867C164.608 141.1 164.697 141.393 164.924 141.542C165.585 141.979 165.93 140.704 166.098 140.364C166.375 139.801 166.592 139.178 166.932 138.652C167.243 138.168 168.112 137.968 168.63 137.744C169.045 137.563 169.489 137.418 169.898 137.223C170.125 137.116 170.426 136.944 170.436 136.669C170.441 136.353 170.12 136.241 169.864 136.143C169.207 135.887 168.571 135.589 167.929 135.31C167.599 135.166 167.204 135.054 166.982 134.766C166.814 134.542 166.715 134.263 166.597 134.016L165.57 131.908C165.471 131.703 165.151 131.88 165.249 132.085L165.279 132.094Z" fill="#2B63A8"/>
<path d="M155.922 35.7739L157.328 38.6594C157.373 38.7478 157.447 38.8176 157.54 38.8595L160.6 40.1859C160.936 40.3302 160.936 40.7816 160.6 40.9259L157.54 42.2523C157.447 42.2942 157.373 42.364 157.328 42.4524L155.922 45.3379C155.769 45.6544 155.29 45.6544 155.137 45.3379L153.73 42.4524C153.686 42.364 153.612 42.2942 153.518 42.2523L150.458 40.9259C150.123 40.7816 150.123 40.3302 150.458 40.1859L153.518 38.8595C153.612 38.8176 153.686 38.7478 153.73 38.6594L155.137 35.7739C155.29 35.4574 155.769 35.4574 155.922 35.7739Z" fill="white"/>
<path d="M155.759 35.8624L157.047 38.5013C157.19 38.7945 157.338 38.962 157.654 39.1016L159.248 39.7904L160.057 40.1442C160.176 40.1954 160.408 40.2465 160.497 40.335C160.951 40.7771 159.796 41.0796 159.598 41.168L157.822 41.936C157.521 42.0663 157.289 42.15 157.126 42.4433C156.869 42.8947 156.667 43.3834 156.44 43.8488L156.06 44.626C155.981 44.7936 155.907 45.0542 155.783 45.1985C155.344 45.6964 155.078 44.8075 154.974 44.5888L154.16 42.918C154.017 42.6248 153.913 42.2664 153.597 42.0989C153.178 41.8755 152.704 41.7126 152.265 41.5218C151.761 41.303 151.189 41.1262 150.715 40.8516C150.552 40.7585 150.167 40.698 150.567 40.335C150.676 40.2372 150.927 40.1767 151.065 40.1209L153.025 39.2692C153.385 39.111 153.735 39.0225 153.928 38.6735C154.209 38.1615 154.441 37.6217 154.698 37.0958L155.122 36.2254C155.176 36.1137 155.443 35.3924 155.759 35.8671C155.887 36.0579 156.208 35.881 156.08 35.6902C155.744 35.1922 155.167 35.3365 154.92 35.8066C154.634 36.3558 154.377 36.9189 154.105 37.4774C153.938 37.8171 153.77 38.4827 153.419 38.7154C153.01 38.9853 152.437 39.1435 151.988 39.339C151.47 39.5624 150.893 39.7532 150.399 40.0278C149.906 40.3024 149.916 40.8283 150.399 41.0982C150.883 41.3682 151.47 41.5636 151.988 41.787C152.437 41.9825 153.015 42.1407 153.419 42.4107C153.77 42.6434 153.938 43.3043 154.105 43.6487C154.377 44.2025 154.634 44.7703 154.92 45.3195C155.162 45.7849 155.754 45.9384 156.08 45.4358C156.331 45.0449 156.499 44.5795 156.696 44.1653C156.943 43.658 157.146 43.0762 157.456 42.6015C157.664 42.285 158.192 42.1687 158.532 42.0197L160.422 41.2006C160.832 41.0238 161.271 40.6654 160.896 40.2093C160.768 40.0557 160.551 39.9906 160.368 39.9068L159.342 39.46C158.804 39.2273 158.123 39.0411 157.634 38.72C157.456 38.6037 157.397 38.3989 157.313 38.222L156.825 37.2261L156.08 35.6995C155.981 35.4948 155.66 35.6716 155.759 35.8764V35.8624Z" fill="#2B63A8"/>
<path d="M155.754 35.8624L157.042 38.5012C157.185 38.7944 157.338 38.9666 157.654 39.1016L159.248 39.7904L160.058 40.1441C160.176 40.1953 160.408 40.2465 160.497 40.3349C160.936 40.7724 159.796 41.0702 159.599 41.1587L157.822 41.9266C157.521 42.0569 157.289 42.1453 157.121 42.4339C156.865 42.8853 156.662 43.374 156.435 43.8394L156.055 44.6166C155.976 44.7842 155.902 45.0448 155.779 45.1891C155.345 45.6777 155.083 44.7935 154.979 44.5794L154.165 42.9086C154.022 42.6154 153.918 42.257 153.602 42.0848C153.183 41.8614 152.709 41.6985 152.27 41.5077C151.767 41.289 151.194 41.1121 150.72 40.8375C150.562 40.7445 150.182 40.6886 150.572 40.3302C150.681 40.2325 150.937 40.172 151.071 40.1162L153.03 39.2645C153.39 39.1062 153.741 39.0131 153.933 38.6641C154.214 38.1521 154.446 37.6123 154.703 37.0864L155.127 36.2161C155.167 36.1369 155.201 36.0066 155.261 35.9415C155.345 35.8437 155.364 35.2759 155.754 35.8624C155.882 36.0578 156.213 35.8763 156.085 35.6808C155.749 35.1782 155.162 35.3225 154.915 35.7972C154.629 36.3464 154.372 36.9095 154.101 37.468C153.933 37.8077 153.765 38.4733 153.42 38.7013C153.01 38.9713 152.438 39.1295 151.989 39.325C151.47 39.5484 150.893 39.7392 150.399 40.0138C149.906 40.2884 149.911 40.8236 150.399 41.0935C150.893 41.3681 151.47 41.5589 151.989 41.7823C152.438 41.9778 153.015 42.136 153.42 42.4059C153.77 42.634 153.938 43.2995 154.101 43.6393C154.372 44.1931 154.629 44.7609 154.915 45.3101C155.162 45.7801 155.754 45.9337 156.085 45.4264C156.336 45.0355 156.504 44.5701 156.702 44.1559C156.948 43.6486 157.151 43.0668 157.462 42.5921C157.669 42.2803 158.197 42.1593 158.533 42.015L160.423 41.1959C160.837 41.019 161.277 40.6514 160.897 40.1953C160.768 40.037 160.551 39.9765 160.369 39.8928L159.342 39.446C158.804 39.2133 158.118 39.0271 157.634 38.706C157.457 38.5896 157.398 38.3895 157.314 38.2126L156.825 37.2167L156.08 35.6902C155.976 35.4807 155.646 35.6622 155.749 35.8717L155.754 35.8624Z" fill="white"/>
<path d="M155.596 35.9508L156.539 37.8823C156.756 38.3291 156.924 38.8689 157.378 39.1575C157.906 39.4879 158.577 39.6927 159.149 39.944C159.421 40.0604 159.687 40.186 159.959 40.2977C160.265 40.4187 160.531 40.5351 160.146 40.7538C159.84 40.9214 159.465 41.0238 159.145 41.1634C158.547 41.4193 157.797 41.6334 157.274 42.0058C156.904 42.271 156.751 42.7411 156.568 43.1274C156.307 43.6859 156.03 44.2397 155.779 44.8028C155.754 44.8633 155.616 45.1612 155.468 45.124C155.404 45.11 155.32 44.9052 155.295 44.854C155.236 44.7377 155.191 44.612 155.137 44.491C154.846 43.8534 154.52 43.2251 154.219 42.5922C154.027 42.1826 153.8 41.9732 153.37 41.7777C152.734 41.4845 152.063 41.2518 151.416 40.9772C151.258 40.9121 150.853 40.7864 150.745 40.6514C150.552 40.4187 150.962 40.3489 151.164 40.2651C151.87 39.9766 152.561 39.6555 153.257 39.3576C153.726 39.1575 153.982 38.9667 154.219 38.5199C154.54 37.9055 154.816 37.2726 155.117 36.6536C155.221 36.4442 155.325 36.2394 155.423 36.03C155.438 35.9974 155.463 35.9183 155.483 35.8996C155.611 35.76 155.404 35.653 155.596 35.9508C155.734 36.1603 156.055 36.1696 156.218 35.9834C156.415 35.7554 156.203 35.4761 155.991 35.3319C155.705 35.1364 155.34 35.1643 155.058 35.3551C154.639 35.6483 154.461 36.2813 154.259 36.7048C154.032 37.1795 153.849 37.6822 153.607 38.1522C153.316 38.7293 152.645 38.8643 152.067 39.097C151.525 39.3111 150.962 39.5112 150.449 39.7811C149.555 40.2512 149.783 41.0051 150.602 41.3961C151.12 41.6427 151.673 41.8522 152.211 42.0616C152.492 42.1733 152.783 42.2664 153.055 42.4014C153.425 42.5922 153.568 42.8435 153.716 43.2019C153.908 43.6626 154.116 44.1094 154.333 44.5608C154.535 44.9844 154.718 45.608 155.201 45.8314C156.228 46.2968 156.657 44.6725 156.924 44.0861C157.235 43.4066 157.412 42.6341 158.192 42.3222C158.848 42.0663 159.49 41.7824 160.132 41.5031C160.551 41.3216 161.183 41.0936 161.217 40.5723C161.252 40.0511 160.694 39.8416 160.28 39.6601C159.628 39.3809 158.962 39.1342 158.306 38.855C157.822 38.6455 157.595 38.4035 157.378 37.9521C157.215 37.617 157.052 37.2866 156.889 36.9515L156.391 35.9322C156.312 35.7693 156.248 35.5134 156.045 35.4389C155.71 35.3086 155.507 35.6437 155.557 35.909C155.596 36.1277 155.951 36.0346 155.912 35.8159C155.956 36.0625 156.203 36.3837 156.317 36.6164L156.731 37.4634C156.938 37.8869 157.101 38.5152 157.486 38.8224C157.851 39.1156 158.375 39.2552 158.809 39.4228C159.125 39.5438 159.436 39.6787 159.747 39.8137C159.993 39.9207 160.339 39.9999 160.546 40.1581C161.217 40.6794 160.516 40.9493 160.127 41.1168C159.811 41.2565 159.495 41.3914 159.179 41.5264C158.681 41.7405 158.108 41.9034 157.644 42.178C157.235 42.42 157.062 42.8621 156.879 43.267C156.637 43.7976 156.41 44.3374 156.159 44.8633C156.016 45.1612 155.779 45.7057 155.33 45.501C155.058 45.3753 154.925 44.9518 154.807 44.7144C154.555 44.2025 154.303 43.6905 154.091 43.1646C153.958 42.8388 153.824 42.4991 153.533 42.271C153.188 42.0011 152.709 41.8754 152.299 41.7172C151.747 41.5031 151.13 41.3077 150.621 41.0098C149.555 40.3908 150.967 39.9068 151.534 39.6787C152.28 39.3809 153.43 39.1482 153.854 38.4315C154.081 38.0498 154.209 37.6077 154.402 37.2074C154.52 36.9561 154.639 36.7048 154.762 36.4535C154.89 36.1882 155.024 35.7274 155.325 35.5832C155.488 35.5041 156.03 35.7228 155.645 35.4854C155.567 35.4389 155.483 35.397 155.384 35.4249C155.187 35.4761 155.147 35.6949 155.078 35.8438C154.856 36.3325 154.599 36.8165 154.367 37.3052C154.135 37.7938 153.928 38.5804 153.425 38.8736C152.921 39.1668 152.359 39.339 151.84 39.5624C151.406 39.7485 150.774 39.8928 150.414 40.1907C149.713 40.7724 150.932 41.1541 151.362 41.3263C151.905 41.545 152.452 41.7544 152.99 41.9871C153.277 42.1082 153.543 42.2152 153.726 42.4665C153.869 42.662 153.953 42.9273 154.056 43.146C154.313 43.6719 154.584 44.1932 154.821 44.7237C154.925 44.9564 155.014 45.2496 155.241 45.3986C155.902 45.836 156.248 44.5608 156.415 44.2211C156.692 43.6579 156.909 43.0343 157.249 42.5084C157.56 42.0244 158.429 41.8243 158.947 41.6009C159.362 41.4194 159.806 41.2751 160.215 41.0796C160.442 40.9726 160.744 40.8004 160.753 40.5258C160.758 40.2093 160.438 40.0976 160.181 39.9999C159.525 39.7439 158.888 39.446 158.246 39.1668C157.916 39.0225 157.521 38.9108 157.299 38.6223C157.131 38.3989 157.032 38.1196 156.914 37.873L155.887 35.7647C155.789 35.5599 155.468 35.7368 155.567 35.9415L155.596 35.9508Z" fill="#2B63A8"/>
<path d="M119.865 1.35734L119.095 5.84384L117.255 16.5621L115.029 29.5236L113.094 40.7864L112.458 44.4957C112.359 45.0635 112.171 45.6778 112.157 46.2549C112.157 46.2782 112.147 46.3061 112.142 46.3294C112.102 46.5482 112.463 46.6459 112.497 46.4225L113.267 41.936L115.108 31.2177L117.334 18.2562L119.268 6.99339L119.905 3.28411C120.003 2.71632 120.191 2.10198 120.206 1.52488C120.206 1.50161 120.216 1.47369 120.221 1.45042C120.26 1.23168 119.9 1.13394 119.865 1.35734Z" fill="#2B63A8"/>
<path d="M105.233 6.27721L104.735 6.18878L95.9056 4.61106C94.9037 4.43421 93.9512 5.08112 93.813 6.0352L92.5299 15.0454C92.4115 15.8646 92.9445 16.6418 93.7834 16.8745L104.888 19.9787L107.197 6.53784L105.218 6.28186L105.233 6.27721Z" fill="#D65039"/>
<path d="M105.282 6.10949L98.0719 4.82032C97.2083 4.66673 96.0189 4.25718 95.1306 4.4573C93.8277 4.75051 93.6599 5.85352 93.5118 6.89137L92.4014 14.7148C92.2484 15.7899 92.6679 16.7207 93.8375 17.0651C94.8147 17.3537 95.8017 17.6143 96.7838 17.8889L104.853 20.1414C104.942 20.1647 105.065 20.1135 105.08 20.0204L107.103 8.26897L107.394 6.57955C107.409 6.49577 107.375 6.37942 107.266 6.36546L105.287 6.10949C105.055 6.07691 104.952 6.41666 105.188 6.44458L107.167 6.70055L107.039 6.48647L105.016 18.2379L104.725 19.9274L104.952 19.8064L98.5161 18.0099L94.7703 16.9627C93.7092 16.6649 92.5939 16.3531 92.7321 15.0127C92.969 12.6996 93.3884 10.3912 93.7191 8.08746L93.9412 6.54231C93.9905 6.19792 94.0103 5.84886 94.1929 5.53704C94.8789 4.35491 96.394 4.87151 97.4846 5.06698L105.198 6.44458C105.43 6.48647 105.529 6.15137 105.297 6.10949H105.282Z" fill="#2B63A8"/>
<path d="M120.043 1.40368C120.097 1.76205 116.885 18.9355 116.885 18.9355L101.773 16.5061L104.497 1.53865C104.655 0.672999 105.494 0.0679728 106.422 0.1564L120.048 1.40834L120.043 1.40368Z" fill="#DC6F5D"/>
<path d="M119.861 1.40355C119.915 2.00393 119.663 2.72996 119.559 3.31637C119.318 4.71724 119.061 6.11345 118.809 7.51432C118.247 10.6093 117.674 13.7042 117.097 16.7945C116.969 17.4926 116.835 18.1907 116.707 18.8888L116.934 18.7678L103.683 16.6363L101.822 16.3384L101.951 16.5525L104.231 4.00982C104.364 3.26983 104.497 2.52983 104.636 1.78984C104.823 0.807836 105.553 0.258659 106.619 0.347086C108.885 0.542556 111.15 0.761296 113.415 0.970728L120.043 1.58041C120.28 1.60368 120.28 1.25463 120.043 1.23135L106.812 0.0166481C105.706 -0.085741 104.621 0.272621 104.334 1.41286C104.211 1.89688 104.152 2.39952 104.063 2.89285L102.666 10.572L101.595 16.4641C101.581 16.5478 101.62 16.6595 101.724 16.6781L114.975 18.8097L116.835 19.1076C116.924 19.1215 117.043 19.0843 117.062 18.9866C118.015 13.9043 118.967 8.82211 119.861 3.73058C119.954 3.18606 120.048 2.64619 120.137 2.10166C120.171 1.88292 120.25 1.62695 120.231 1.40821C120.211 1.18947 119.841 1.18481 119.861 1.40821V1.40355Z" fill="#2B63A8"/>
<path d="M94.7455 19.8012C93.8917 19.8012 93.1021 20.0665 92.4605 20.5133C92.4655 20.4202 92.4753 20.3225 92.4753 20.2294C92.4753 17.3299 89.9831 14.9796 86.9085 14.9796C84.8554 14.9796 83.064 16.0314 82.1016 17.5905C80.932 16.1897 79.1208 15.2868 77.0875 15.2868C74.7235 15.2868 72.6705 16.5015 71.565 18.298C70.6422 17.5766 69.4577 17.1391 68.1647 17.1391C65.2283 17.1391 62.8446 19.387 62.8446 22.1562C62.8446 24.9253 65.2283 27.1732 68.1647 27.1732C68.6089 27.1732 94.2273 27.0196 94.2273 27.0196C94.3951 27.0429 94.5679 27.0569 94.7406 27.0569C96.8627 27.0569 98.59 25.4326 98.59 23.4267C98.59 21.4208 96.8676 19.7966 94.7406 19.7966L94.7455 19.8012Z" fill="#DFFBFF"/>
<path d="M94.7455 19.629C93.872 19.6523 93.0873 19.8897 92.3667 20.3644L92.6431 20.5133C92.806 18.1258 91.1625 15.8732 88.7789 15.096C86.183 14.2536 83.3452 15.3101 81.9387 17.5021L82.2299 17.4649C80.8283 15.8313 78.6519 14.9284 76.4212 15.1425C74.3139 15.3473 72.478 16.5015 71.3972 18.2049L71.6884 18.1677C69.3985 16.4364 66.0179 16.5992 64.0487 18.6982C62.2375 20.625 62.2129 23.5896 63.9945 25.5443C65.169 26.8335 66.8223 27.3501 68.5743 27.3408C69.7143 27.3361 70.8593 27.3268 71.9993 27.3222C76.0412 27.2989 80.088 27.2756 84.1299 27.2524C87.2884 27.2337 90.442 27.2151 93.6005 27.1965C93.8078 27.1965 94.0151 27.1826 94.2174 27.1965C95.4413 27.2524 96.5419 27.029 97.4746 26.2238C99.498 24.4692 99.0341 21.2347 96.5863 20.0525C96.0089 19.7733 95.3821 19.643 94.7405 19.629C94.5037 19.6244 94.5037 19.9734 94.7405 19.9781C97.978 20.0432 99.6658 23.8596 97.2131 25.9772C96.3445 26.7311 95.3278 26.894 94.1977 26.8475C93.9855 26.8382 93.7733 26.8475 93.561 26.8475C90.7973 26.8661 88.0386 26.88 85.2749 26.8987C79.5748 26.9312 73.8648 27.0615 68.1647 27.001C64.7989 26.9638 62.282 23.8782 63.2344 20.7972C64.261 17.4882 68.6088 16.2874 71.4318 18.4236C71.5255 18.4934 71.6538 18.4934 71.7229 18.3864C73.9635 14.8493 79.2244 14.5189 81.9733 17.7162C82.0522 17.8046 82.2052 17.7674 82.2644 17.679C83.5821 15.6219 86.2471 14.6352 88.6851 15.4357C90.9207 16.1711 92.4309 18.284 92.2779 20.5133C92.268 20.639 92.4457 20.7367 92.5543 20.6622C93.2156 20.2247 93.9361 19.992 94.7455 19.9734C94.9824 19.9688 94.9824 19.6197 94.7455 19.6244V19.629Z" fill="#2B63A8"/>
<path d="M128.531 4.4712C129.222 4.4712 129.854 4.68529 130.367 5.04365C130.367 4.96918 130.352 4.89006 130.352 4.8156C130.352 2.48392 132.361 0.589722 134.833 0.589722C136.487 0.589722 137.928 1.43676 138.703 2.69335C139.645 1.56707 141.101 0.84104 142.74 0.84104C144.64 0.84104 146.298 1.81839 147.186 3.2658C147.926 2.68404 148.884 2.33499 149.92 2.33499C152.284 2.33499 154.204 4.14542 154.204 6.3747C154.204 8.60399 152.284 10.4144 149.92 10.4144C149.56 10.4144 128.936 10.2888 128.936 10.2888C128.798 10.3074 128.664 10.3167 128.521 10.3167C126.809 10.3167 125.422 9.0089 125.422 7.39394C125.422 5.77899 126.809 4.4712 128.521 4.4712H128.531Z" fill="#DFFBFF"/>
<path d="M128.532 4.64329C129.183 4.66191 129.741 4.84341 130.279 5.19247C130.392 5.26693 130.565 5.1692 130.555 5.04354C130.436 3.29362 131.591 1.63212 133.333 1.01779C135.303 0.324333 137.469 1.10621 138.55 2.77702C138.604 2.86544 138.762 2.90268 138.841 2.81425C141.047 0.26383 145.227 0.519803 147.033 3.34946C147.103 3.45651 147.231 3.45651 147.325 3.3867C149.383 1.84621 152.492 2.45123 153.632 4.7131C154.678 6.78415 153.513 9.33457 151.204 10.0466C150.483 10.27 149.748 10.2375 149.003 10.2328C148.016 10.2281 147.029 10.2235 146.037 10.2142C140.682 10.1816 135.332 10.149 129.978 10.1165C129.124 10.1118 128.122 10.2328 127.342 9.90237C126.123 9.39042 125.422 8.12452 125.664 6.88654C125.921 5.5741 127.14 4.68052 128.527 4.64329C128.763 4.63864 128.763 4.28958 128.527 4.29424C126.345 4.35009 124.697 6.35133 125.408 8.35722C125.718 9.23218 126.434 9.94425 127.347 10.2747C127.92 10.4841 128.467 10.4655 129.069 10.4515C131.315 10.4003 133.575 10.4795 135.826 10.4934C139.182 10.512 142.533 10.5353 145.888 10.5539C146.989 10.5586 148.085 10.5679 149.185 10.5725C150.286 10.5772 151.278 10.5167 152.23 9.97683C154.362 8.76678 155.043 6.03485 153.676 4.06619C152.205 1.9486 149.136 1.58558 147.063 3.13538L147.354 3.17261C145.434 0.166095 140.943 -0.164342 138.579 2.56758L138.871 2.60482C137.706 0.8037 135.367 -0.0526453 133.235 0.682695C131.345 1.33892 130.052 3.14003 130.185 5.04354L130.461 4.89461C129.874 4.51298 129.242 4.31751 128.532 4.29889C128.295 4.28958 128.295 4.63864 128.532 4.64794V4.64329Z" fill="#2B63A8"/>
</svg>
