<svg width="39" height="43" viewBox="0 0 39 43" fill="none" xmlns="http://www.w3.org/2000/svg">
<path d="M20.7841 0.362962L20.7841 0.36297L38.2063 10.5578C38.4358 10.692 38.5314 10.7493 38.6002 10.8263C38.6632 10.8968 38.7108 10.9798 38.7398 11.0698C38.7716 11.1681 38.7727 11.2795 38.7727 11.5454V32.3028C38.7727 32.9937 38.407 33.629 37.8123 33.9762L37.8122 33.9762L29.9327 38.5854C29.6248 38.7655 29.3996 38.8971 29.2201 38.9812C29.04 39.0655 28.9202 39.0947 28.8212 39.0846C28.6292 39.0652 28.4546 38.9651 28.341 38.8092C28.2823 38.7288 28.247 38.6107 28.2289 38.4127C28.2107 38.2152 28.2106 37.9545 28.2106 37.5978V17.8723V17.8537C28.2107 17.6119 28.2107 17.4677 28.1683 17.3367C28.1309 17.2209 28.0697 17.1142 27.9886 17.0235C27.8968 16.9209 27.7724 16.8482 27.5636 16.7262L27.5475 16.7168L10.8884 6.98382C10.5855 6.80685 10.3642 6.67742 10.2054 6.56397C10.0462 6.45027 9.96293 6.36144 9.9229 6.27108C9.8454 6.09614 9.84533 5.89662 9.92271 5.72162C9.96268 5.63124 10.0459 5.54235 10.205 5.42854C10.3637 5.31498 10.585 5.18541 10.8878 5.00823L18.8263 0.36297L18.8263 0.362962C19.4322 0.00830667 20.1783 0.00830667 20.7841 0.362962Z" fill="#6AA393" stroke="black" stroke-width="0.193941"/>
<path d="M9.07433 12.0733L9.0751 12.0729C9.51413 11.8153 10.0623 11.8153 10.5013 12.0729L10.5014 12.073L23.2766 19.5449C23.5061 19.6791 23.6017 19.7363 23.6706 19.8134C23.7336 19.8839 23.7812 19.9669 23.8103 20.0569C23.842 20.1552 23.8431 20.2666 23.8431 20.5326V35.7548C23.8431 36.2552 23.5748 36.7199 23.1427 36.9743C23.1426 36.9744 23.1424 36.9744 23.1423 36.9745L15.9964 41.0829C15.6895 41.2594 15.4651 41.3883 15.2862 41.4704C15.1068 41.5528 14.9875 41.581 14.8888 41.5705C14.6977 41.5501 14.5241 41.4497 14.4112 41.2942C14.353 41.2138 14.3179 41.0964 14.2999 40.8998C14.2819 40.7038 14.2818 40.445 14.2818 40.091V26.1729L14.2818 26.1543C14.2819 25.9124 14.2819 25.7683 14.2395 25.6373C14.2021 25.5215 14.1408 25.4148 14.0597 25.324C13.9679 25.2214 13.8435 25.1487 13.6346 25.0267L13.6186 25.0173L1.89902 18.1721C1.59366 17.9938 1.3705 17.8633 1.21045 17.749C1.05 17.6345 0.966295 17.5451 0.926329 17.4543C0.848925 17.2785 0.84964 17.0781 0.928295 16.9028C0.968908 16.8123 1.05325 16.7235 1.21451 16.6101C1.37537 16.497 1.59946 16.3681 1.90608 16.1919L9.07433 12.0733Z" fill="#FDB956" stroke="black" stroke-width="0.193941"/>
<path d="M9.18343 38.429C9.08437 38.439 8.96461 38.4098 8.78455 38.3256C8.60498 38.2415 8.37982 38.1099 8.07194 37.9298L2.09751 34.4347C1.79484 34.2576 1.57368 34.1282 1.41497 34.0147C1.25591 33.9009 1.17274 33.8121 1.13275 33.7217C1.05535 33.5468 1.05535 33.3473 1.13275 33.1724C1.17274 33.082 1.25591 32.9932 1.41497 32.8794C1.57368 32.7659 1.79484 32.6364 2.09751 32.4594L8.07194 28.9643C8.37982 28.7842 8.60498 28.6526 8.78455 28.5685C8.96461 28.4842 9.08437 28.4551 9.18343 28.4651C9.37537 28.4845 9.54999 28.5846 9.66365 28.7405C9.72232 28.821 9.7576 28.9391 9.77577 29.137C9.79388 29.3345 9.79398 29.5953 9.79398 29.952V36.9421C9.79398 37.2988 9.79388 37.5596 9.77577 37.757C9.7576 37.955 9.72232 38.0731 9.66365 38.1536C9.54999 38.3095 9.37537 38.4096 9.18343 38.429Z" fill="#F47B20" stroke="black" stroke-width="0.193941"/>
</svg>
