<svg width="16" height="16" viewBox="0 0 16 16" fill="none" xmlns="http://www.w3.org/2000/svg">
<path d="M8.0188 7.99991C8.0188 6.52716 9.21271 5.33325 10.6855 5.33325C12.1582 5.33325 13.3521 6.52719 13.3521 7.99991C13.3521 9.47269 12.1582 10.6666 10.6855 10.6666C9.21267 10.6666 8.0188 9.47266 8.0188 7.99991Z" fill="#00BCFF"/>
<path d="M2.6853 13.3334C2.6853 11.8607 3.87921 10.6668 5.35196 10.6668L6.77305 9.9165L8.01861 10.6668V13.3334C8.01861 14.8062 6.82471 16.0001 5.35196 16.0001C3.87921 16.0001 2.6853 14.8062 2.6853 13.3334Z" fill="#00CF7F"/>
<path d="M8.01869 0L6.56763 2.52094L8.01869 5.33331H10.6479C12.1207 5.33331 13.3146 4.13941 13.3146 2.66666C13.3146 1.19391 12.1207 0 10.6479 0H8.01869Z" fill="#FF7361"/>
<path d="M2.64795 2.66666C2.64795 4.13941 3.84186 5.33331 5.31461 5.33331L6.7292 5.87969L8.01867 5.33331V0H5.31457C3.84186 0 2.64795 1.19391 2.64795 2.66666Z" fill="#FF4D12"/>
<path d="M2.6853 7.99994C2.6853 9.47272 3.87921 10.6666 5.35196 10.6666H8.01861V5.33325H5.35196C3.87921 5.33325 2.6853 6.52719 2.6853 7.99994Z" fill="#B659FF"/>
</svg>
