<svg width="53" height="43" viewBox="0 0 53 43" fill="none" xmlns="http://www.w3.org/2000/svg">
<path d="M26.5297 20.1301C26.7844 20.0473 27.0735 20.0444 27.7635 20.0444H46.5936C47.5079 20.0444 48.1763 20.0447 48.6826 20.0911C49.1901 20.1377 49.4933 20.2281 49.7005 20.3786C50.1017 20.6701 50.3604 21.1182 50.4123 21.6114C50.4391 21.866 50.3658 22.1739 50.1524 22.6367C49.9395 23.0984 49.6056 23.6774 49.1485 24.4692L39.7352 40.7768C39.3903 41.3744 39.2433 41.6233 39.0443 41.8025C38.862 41.9666 38.6473 42.0906 38.414 42.1664C38.1593 42.2491 37.8703 42.252 37.1803 42.252H18.3501C17.4358 42.252 16.7675 42.2518 16.2612 42.2054C15.7536 42.1588 15.4504 42.0683 15.2433 41.9179C14.842 41.6264 14.5833 41.1783 14.5315 40.6851C14.5047 40.4304 14.5779 40.1226 14.7914 39.6598C15.0042 39.1981 15.3381 38.6191 15.7952 37.8273L25.2086 21.5197C25.5535 20.9221 25.7005 20.6732 25.8995 20.494C26.0818 20.3299 26.2965 20.2059 26.5297 20.1301Z" fill="#FCBC00" stroke="black" stroke-width="0.5"/>
<path d="M20.708 10.8152C20.9627 10.7324 21.2517 10.7295 21.9417 10.7295H40.7719C41.6862 10.7295 42.3545 10.7297 42.8608 10.7762C43.3684 10.8228 43.6716 10.9132 43.8787 11.0637C44.2799 11.3552 44.5387 11.8032 44.5905 12.2965C44.6173 12.5511 44.544 12.8589 44.3306 13.3218C44.1178 13.7835 43.7838 14.3624 43.3268 15.1543L33.9134 31.4619C33.5685 32.0595 33.4215 32.3083 33.2225 32.4875C33.0402 32.6517 32.8255 32.7756 32.5922 32.8514C32.3376 32.9342 32.0485 32.9371 31.3585 32.9371H12.5283C11.6141 32.9371 10.9457 32.9369 10.4394 32.8904C9.93186 32.8438 9.62864 32.7534 9.4215 32.6029C9.02026 32.3114 8.76155 31.8634 8.70968 31.3701C8.68291 31.1155 8.75616 30.8077 8.96958 30.3448C9.18244 29.8831 9.51637 29.3042 9.97344 28.5123L19.3868 12.2047C19.7317 11.6071 19.8787 11.3583 20.0777 11.1791C20.26 11.0149 20.4747 10.891 20.708 10.8152Z" fill="#7CC6CA" stroke="black" stroke-width="0.5"/>
<path d="M13.7216 0.335651C13.9762 0.252905 14.2652 0.25 14.9552 0.25H33.784C34.6985 0.25 35.3671 0.250251 35.8734 0.296707C36.3811 0.343282 36.6844 0.433746 36.8915 0.584268C37.2928 0.87583 37.5515 1.32397 37.6033 1.81726C37.63 2.07193 37.5567 2.37979 37.3431 2.8427C37.1301 3.30443 36.7959 3.88348 36.3386 4.67539L26.9226 20.9784C26.5777 21.5757 26.4306 21.8245 26.2316 22.0036C26.0494 22.1677 25.8347 22.2916 25.6015 22.3674C25.3469 22.4501 25.0579 22.453 24.3681 22.453H5.54258C4.62821 22.453 3.95977 22.4527 3.45347 22.4063C2.94587 22.3597 2.64263 22.2693 2.43549 22.1188C2.03424 21.8273 1.77554 21.3792 1.7237 20.8859C1.69693 20.6313 1.77022 20.3234 1.98369 19.8606C2.19662 19.3989 2.53062 18.8199 2.9878 18.028L12.4004 1.72499C12.7454 1.12751 12.8924 0.878669 13.0914 0.699495L12.9241 0.513708L13.0914 0.699494C13.2736 0.535396 13.4883 0.411435 13.7216 0.335651Z" fill="#0932EC" stroke="black" stroke-width="0.5"/>
</svg>
