<svg width="100" height="100" viewBox="0 0 100 100" fill="none" xmlns="http://www.w3.org/2000/svg">
<g clip-path="url(#clip0_585_1229)">
<path d="M61.313 19.2729C65.1572 16.1676 66.0275 12.8481 66.0804 10.61C66.2097 5.16527 61.9103 1.18089 61.4195 0.744754C60.2038 -0.336498 58.3417 -0.227513 57.2603 0.988309C56.179 2.20413 56.288 4.06605 57.5038 5.1475C57.5314 5.17211 60.2552 7.72055 60.19 10.4704C60.1552 11.9354 59.3114 13.3155 57.6105 14.6895C53.7663 17.7948 52.896 21.1143 52.8431 23.3524C52.7136 28.7972 57.0132 32.7815 57.5038 33.2179C58.0665 33.7183 58.7689 33.9647 59.4683 33.9647C60.28 33.9647 61.088 33.6327 61.6689 32.9794C62.7501 31.7636 62.647 29.9067 61.4312 28.8255C60.6579 28.1223 58.6661 25.7897 58.7339 23.47C58.7767 22.0132 59.6202 20.6401 61.313 19.2729Z" fill="black"/>
<path d="M42.6206 19.2729C46.4648 16.1676 47.3351 12.8481 47.388 10.61C47.5173 5.16527 43.2179 1.18089 42.7271 0.744754C41.5116 -0.336498 39.6493 -0.227513 38.5679 0.988309C37.4866 2.20413 37.5956 4.06605 38.8114 5.1475C38.839 5.17211 41.5628 7.72055 41.4976 10.4704C41.4628 11.9354 40.6191 13.3155 38.9181 14.6895C35.0739 17.7948 34.2036 21.1143 34.1507 23.3524C34.0214 28.7972 38.3208 32.7815 38.8114 33.2179C39.3741 33.7183 40.0765 33.9647 40.7759 33.9647C41.5876 33.9647 42.3956 33.6327 42.9765 32.9794C44.0577 31.7636 43.9546 29.9067 42.7388 28.8255C41.9655 28.1223 39.9737 25.7897 40.0415 23.47C40.0843 22.0132 40.9278 20.6401 42.6206 19.2729Z" fill="black"/>
<path d="M84.7965 48.0759H81.3098V45.9153C81.3098 44.2884 79.9908 42.9692 78.3637 42.9692H3.17327C1.54632 42.9692 0.227173 44.2882 0.227173 45.9153V61.4638C0.227173 75.2027 7.83168 87.2834 19.2485 94.108H3.17503C1.54807 94.108 0.228931 95.427 0.228931 97.0541C0.228931 98.6813 1.54768 100 3.17503 100H78.3638C79.9908 100 81.31 98.6813 81.31 97.0541C81.31 95.427 79.991 94.108 78.3638 94.108H62.2886C68.7808 90.2271 74.04 84.6472 77.3689 78.0281H84.7967C93.0545 78.0281 99.7729 71.3097 99.7729 63.0519C99.7729 54.7941 93.0543 48.0759 84.7965 48.0759ZM75.4178 61.4638C75.4176 79.4638 59.874 94.108 40.7685 94.108C21.663 94.108 6.11937 79.4638 6.11937 61.4638V48.8614H75.4176V61.4638H75.4178ZM84.7965 72.1361H79.7269C80.7564 68.7457 81.3098 65.165 81.3098 61.4638V53.9677H84.7965C89.8055 53.9677 93.8807 58.0429 93.8807 63.0519C93.8807 68.0609 89.8055 72.1361 84.7965 72.1361Z" fill="black"/>
<path d="M23.9282 19.2731C27.7724 16.1678 28.6427 12.8483 28.6956 10.6102C28.8249 5.16545 24.5255 1.18107 24.0347 0.744937C22.819 -0.336315 20.9569 -0.22733 19.8755 0.988492C18.7942 2.20412 18.9032 4.06623 20.119 5.14768C20.1466 5.17229 22.8704 7.72073 22.8052 10.4705C22.7704 11.9356 21.9267 13.3157 20.2257 14.6897C16.3815 17.795 15.5112 21.1145 15.4583 23.3526C15.3292 28.7971 19.6286 32.7815 20.1192 33.2179C20.6806 33.7171 21.3796 33.9626 22.0761 33.9626C22.888 33.9626 23.6964 33.6288 24.2786 32.9743C25.3599 31.7585 25.2509 29.8966 24.0351 28.8151C24.0075 28.7905 21.2837 26.2421 21.3489 23.4922C21.3833 22.0272 22.2271 20.6469 23.9282 19.2731Z" fill="black"/>
</g>
<defs>
<clipPath id="clip0_585_1229">
<rect width="100" height="100" fill="white"/>
</clipPath>
</defs>
</svg>
