<svg width="55" height="59" viewBox="0 0 55 59" fill="none" xmlns="http://www.w3.org/2000/svg">
<path d="M18.5474 35.9178L18.4004 36.12L18.5474 35.9178C18.1461 35.6263 17.8874 35.1782 17.8355 34.685C17.8088 34.4304 17.882 34.1226 18.0954 33.6597C18.3083 33.198 18.6422 32.619 19.0993 31.8272L26.6622 18.7252C27.0072 18.1276 27.1542 17.8788 27.3532 17.6996C27.5354 17.5354 27.7502 17.4115 27.9834 17.3357C28.2381 17.2529 28.5271 17.25 29.2171 17.25H44.3459C45.2601 17.25 45.9285 17.2503 46.4348 17.2967C46.9423 17.3433 47.2456 17.4337 47.4527 17.5842L47.5993 17.3824L47.4527 17.5842C47.8539 17.8757 48.1126 18.3237 48.1645 18.817C48.1913 19.0716 48.118 19.3794 47.9046 19.8423C47.6918 20.304 47.3578 20.883 46.9008 21.6748L39.3378 34.7768C38.9929 35.3743 38.8459 35.6232 38.6469 35.8024C38.4646 35.9665 38.2499 36.0905 38.0166 36.1663C37.7619 36.2491 37.4729 36.252 36.7829 36.252H21.6542C20.7399 36.252 20.0715 36.2517 19.5653 36.2053C19.0577 36.1587 18.7545 36.0683 18.5474 35.9178Z" fill="#FCBC00" stroke="black" stroke-width="0.5"/>
<path d="M13.5474 27.9178L13.4004 28.12L13.5474 27.9178C13.1461 27.6263 12.8874 27.1782 12.8355 26.685C12.8088 26.4304 12.882 26.1226 13.0954 25.6597C13.3083 25.198 13.6422 24.619 14.0993 23.8272L21.6622 10.7252C22.0072 10.1276 22.1542 9.87877 22.3532 9.69957C22.5354 9.53544 22.7502 9.41146 22.9834 9.33567C23.2381 9.25291 23.5271 9.25 24.2171 9.25H39.3459C40.2601 9.25 40.9285 9.25025 41.4348 9.2967C41.9423 9.34326 42.2456 9.4337 42.4527 9.58419L42.5993 9.38245L42.4527 9.58419C42.8539 9.87569 43.1126 10.3237 43.1645 10.817C43.1913 11.0716 43.118 11.3794 42.9046 11.8423C42.6918 12.304 42.3578 12.883 41.9008 13.6748L34.3378 26.7768C33.9929 27.3743 33.8459 27.6232 33.6469 27.8024C33.4646 27.9665 33.2499 28.0905 33.0166 28.1663C32.7619 28.2491 32.4729 28.252 31.7829 28.252H16.6542C15.7399 28.252 15.0715 28.2517 14.5653 28.2053C14.0577 28.1587 13.7545 28.0683 13.5474 27.9178Z" fill="#7CC6CA" stroke="black" stroke-width="0.5"/>
<path d="M16.9833 0.335651C17.238 0.252905 17.527 0.25 18.2169 0.25H33.3443C34.2588 0.25 34.9274 0.250251 35.4337 0.296707C35.9414 0.343282 36.2447 0.433747 36.4518 0.584268C36.8531 0.87583 37.1118 1.32397 37.1636 1.81726C37.1903 2.07193 37.117 2.37979 36.9034 2.84271C36.6904 3.30443 36.3562 3.88349 35.8989 4.6754L28.334 17.7734C27.989 18.3707 27.842 18.6195 27.643 18.7986C27.4608 18.9627 27.2461 19.0866 27.0129 19.1624C26.7582 19.2451 26.4693 19.248 25.7795 19.248H10.6548C9.7404 19.248 9.07195 19.2478 8.56565 19.2013C8.05805 19.1547 7.75482 19.0643 7.54767 18.9138C7.14642 18.6223 6.88772 18.1742 6.83588 17.6809C6.80912 17.4263 6.8824 17.1185 7.09587 16.6556C7.3088 16.1939 7.6428 15.6149 8.09999 14.823L15.6622 1.72499C16.0071 1.12751 16.1542 0.878669 16.3531 0.699495C16.5354 0.535396 16.7501 0.411435 16.9833 0.335651Z" fill="#0932EC" stroke="black" stroke-width="0.5"/>
<path d="M4.988 48.282C5.653 48.282 6.25033 48.3613 6.78 48.52C7.30967 48.6763 7.75883 48.9026 8.1275 49.199C8.4985 49.493 8.782 49.8523 8.978 50.277C9.174 50.7016 9.272 51.1823 9.272 51.719H6.808C6.808 51.502 6.76367 51.3071 6.675 51.1345C6.58867 50.9618 6.465 50.816 6.304 50.697C6.143 50.5756 5.94817 50.4823 5.7195 50.417C5.49083 50.3516 5.23533 50.319 4.953 50.319C4.71967 50.319 4.49683 50.3423 4.2845 50.389C4.0745 50.4333 3.889 50.4998 3.728 50.5885C3.567 50.6771 3.43867 50.7868 3.343 50.9175C3.24967 51.0481 3.203 51.1998 3.203 51.3725C3.203 51.5475 3.245 51.6886 3.329 51.796C3.41533 51.9033 3.54483 51.992 3.7175 52.062C3.89017 52.132 4.106 52.1903 4.365 52.237C4.62633 52.2836 4.93317 52.3326 5.2855 52.384L5.639 52.4365C5.84667 52.4668 6.0625 52.5006 6.2865 52.538C6.5105 52.573 6.7345 52.6161 6.9585 52.6675C7.1825 52.7188 7.403 52.7806 7.62 52.853C7.837 52.9253 8.0435 53.014 8.2395 53.119C8.4355 53.224 8.61633 53.3476 8.782 53.49C8.94767 53.63 9.09 53.7945 9.209 53.9835C9.33033 54.1701 9.42483 54.3848 9.4925 54.6275C9.56017 54.8678 9.594 55.1396 9.594 55.443C9.594 55.9703 9.489 56.4381 9.279 56.8465C9.069 57.2525 8.768 57.5943 8.376 57.872C7.984 58.1473 7.508 58.3561 6.948 58.4985C6.39033 58.6408 5.76267 58.712 5.065 58.712C4.32067 58.712 3.66267 58.6315 3.091 58.4705C2.51933 58.3095 2.03983 58.0785 1.6525 57.7775C1.26517 57.4741 0.972334 57.1043 0.774 56.668C0.575667 56.2316 0.4765 55.737 0.4765 55.184H2.9405C2.9405 55.4173 2.98833 55.6273 3.084 55.814C3.182 55.9983 3.322 56.1546 3.504 56.283C3.686 56.409 3.90767 56.5058 4.169 56.5735C4.43033 56.6411 4.7255 56.675 5.0545 56.675C5.3345 56.675 5.59467 56.6505 5.835 56.6015C6.07533 56.5525 6.283 56.4801 6.458 56.3845C6.63533 56.2865 6.77417 56.1663 6.8745 56.024C6.97717 55.8793 7.0285 55.7125 7.0285 55.5235C7.0285 55.3345 6.98417 55.1828 6.8955 55.0685C6.80917 54.9541 6.67967 54.8608 6.507 54.7885C6.33667 54.7161 6.12317 54.659 5.8665 54.617C5.61217 54.5726 5.317 54.5283 4.981 54.484L4.512 54.4175C4.309 54.3895 4.09783 54.3603 3.8785 54.33C3.6615 54.2973 3.44333 54.2576 3.224 54.211C3.00467 54.162 2.78767 54.1036 2.573 54.036C2.36067 53.966 2.15767 53.882 1.964 53.784C1.77267 53.6836 1.59533 53.567 1.432 53.434C1.26867 53.2986 1.1275 53.1411 1.0085 52.9615C0.8895 52.7795 0.796167 52.573 0.7285 52.342C0.663167 52.1086 0.6305 51.845 0.6305 51.551C0.6305 51.1963 0.6795 50.8696 0.7775 50.571C0.877834 50.2723 1.019 50.0028 1.201 49.7625C1.38533 49.5198 1.60817 49.3063 1.8695 49.122C2.13083 48.9376 2.4225 48.7836 2.7445 48.66C3.0665 48.534 3.4165 48.4395 3.7945 48.3765C4.1725 48.3135 4.57033 48.282 4.988 48.282ZM18.0887 50.634H15.1277V58.502H12.5447V50.634H9.58372V48.492H18.0887V50.634ZM16.9835 58.502L20.2945 48.492H23.8435L27.1055 58.502H24.351L23.791 56.4545H20.2525L19.682 58.502H16.9835ZM23.2345 54.4105L22.0375 50.032L20.8195 54.4105H23.2345ZM29.1802 53.497C29.1802 53.9963 29.2304 54.4373 29.3307 54.82C29.4334 55.2003 29.5839 55.5188 29.7822 55.7755C29.9806 56.0298 30.2244 56.2223 30.5137 56.353C30.8031 56.4836 31.1356 56.549 31.5112 56.549C32.1062 56.549 32.5811 56.3716 32.9357 56.017C33.2904 55.66 33.5249 55.1233 33.6392 54.407H36.2012C36.1429 54.8526 36.0449 55.2691 35.9072 55.6565C35.7719 56.0415 35.6016 56.3938 35.3962 56.7135C35.1909 57.0308 34.9529 57.3143 34.6822 57.564C34.4139 57.8113 34.1152 58.0201 33.7862 58.1905C33.4596 58.3608 33.1049 58.4903 32.7222 58.579C32.3396 58.6676 31.9347 58.712 31.5077 58.712C31.0294 58.712 30.5744 58.656 30.1427 58.544C29.7134 58.4343 29.3156 58.2745 28.9492 58.0645C28.5852 57.8521 28.2562 57.5943 27.9622 57.291C27.6706 56.9876 27.4221 56.6435 27.2167 56.2585C27.0114 55.8711 26.8527 55.4465 26.7407 54.9845C26.6311 54.5201 26.5762 54.0243 26.5762 53.497C26.5762 52.9696 26.6311 52.475 26.7407 52.013C26.8527 51.5486 27.0114 51.124 27.2167 50.739C27.4221 50.3516 27.6706 50.0063 27.9622 49.703C28.2562 49.3996 28.5852 49.143 28.9492 48.933C29.3156 48.7206 29.7134 48.5596 30.1427 48.45C30.5744 48.338 31.0294 48.282 31.5077 48.282C32.1494 48.282 32.7374 48.3811 33.2717 48.5795C33.8084 48.7755 34.2786 49.059 34.6822 49.43C35.0882 49.801 35.4207 50.2525 35.6797 50.7845C35.9387 51.3165 36.1126 51.9173 36.2012 52.587H33.6392C33.5249 51.8683 33.2904 51.3316 32.9357 50.977C32.5811 50.6223 32.1062 50.445 31.5112 50.445C31.1356 50.445 30.8031 50.5103 30.5137 50.641C30.2244 50.7693 29.9806 50.9618 29.7822 51.2185C29.5839 51.4751 29.4334 51.7936 29.3307 52.174C29.2304 52.5543 29.1802 52.9953 29.1802 53.497ZM41.4876 53.504L45.9641 58.502H42.6951L39.4191 54.757V58.502H36.8361V48.492H39.4191V52.636L42.6111 48.492H45.6631L41.4876 53.504ZM49.2148 56.36H54.2793V58.502H46.2118V56.255L50.9333 50.634H46.3868V48.492H53.9293V50.739L49.2148 56.36Z" fill="#121212"/>
</svg>
