<svg width="600" height="600" viewBox="0 0 600 600" fill="none" xmlns="http://www.w3.org/2000/svg">
<g clip-path="url(#clip0_785_1394)">
<path d="M232.993 215.991V363.898C232.993 370.698 232.71 377.572 232.993 384.372C232.993 384.476 232.993 384.565 232.993 384.669C232.993 385.872 234.017 386.896 235.22 386.896H367.062C373.149 386.896 379.281 387.148 385.369 386.896C385.458 386.896 385.547 386.896 385.636 386.896C388.501 386.896 388.501 382.442 385.636 382.442H241.366C239.481 382.442 237.372 382.175 235.502 382.442C235.413 382.442 235.324 382.442 235.234 382.442L237.462 384.669V236.747C237.462 229.947 237.744 223.073 237.462 216.273C237.462 216.169 237.462 216.08 237.462 215.976C237.462 213.111 233.007 213.111 233.007 215.976L232.993 215.991Z" fill="#221F20"/>
<path d="M214.895 234.238H234.256C237.121 234.238 237.121 229.784 234.256 229.784H214.895C212.03 229.784 212.03 234.238 214.895 234.238Z" fill="#221F20"/>
<path d="M214.895 269.218H234.256C237.121 269.218 237.121 264.764 234.256 264.764H214.895C212.03 264.764 212.03 269.218 214.895 269.218Z" fill="#221F20"/>
<path d="M214.895 304.183H234.256C237.121 304.183 237.121 299.729 234.256 299.729H214.895C212.03 299.729 212.03 304.183 214.895 304.183Z" fill="#221F20"/>
<path d="M214.895 339.148H234.256C237.121 339.148 237.121 334.694 234.256 334.694H214.895C212.03 334.694 212.03 339.148 214.895 339.148Z" fill="#221F20"/>
<path d="M214.895 374.127H234.256C237.121 374.127 237.121 369.673 234.256 369.673H214.895C212.03 369.673 212.03 374.127 214.895 374.127Z" fill="#221F20"/>
<path d="M255.246 297.65V309.171C255.246 310.329 256.271 311.458 257.473 311.398C258.676 311.339 259.7 310.418 259.7 309.171V297.65C259.7 296.492 258.676 295.364 257.473 295.423C256.271 295.482 255.246 296.403 255.246 297.65Z" fill="#221F20"/>
<path d="M255.246 363.067V374.588C255.246 375.746 256.271 376.875 257.473 376.815C258.676 376.756 259.7 375.835 259.7 374.588V363.067C259.7 361.909 258.676 360.78 257.473 360.84C256.271 360.899 255.246 361.82 255.246 363.067Z" fill="#221F20"/>
<path d="M262.346 276.597C261.351 277.829 260.356 279.047 259.362 280.279L257.342 282.773C257.031 283.174 256.719 283.635 256.333 283.976L257.313 283.397H258.1L259.079 283.976C258.693 283.649 258.397 283.174 258.07 282.773L256.051 280.279C255.056 279.047 254.061 277.829 253.066 276.597C252.324 275.691 250.676 275.78 249.919 276.597C249.028 277.562 249.132 278.779 249.919 279.745C251.715 281.957 253.497 284.169 255.293 286.366C255.769 286.945 256.11 287.435 256.912 287.688C258.055 288.044 259.154 287.569 259.866 286.678L262.851 282.996C263.727 281.912 264.603 280.828 265.493 279.745C266.221 278.839 266.444 277.473 265.493 276.597C264.677 275.855 263.133 275.632 262.346 276.597Z" fill="#221F20"/>
<path d="M259.911 285.193V266.634C259.911 263.769 255.457 263.769 255.457 266.634V285.193C255.457 288.059 259.911 288.059 259.911 285.193Z" fill="#221F20"/>
<path d="M303.354 329.438H286.325L288.552 331.665V280.561L286.325 282.788H303.354L301.127 280.561V331.665C301.127 334.53 305.581 334.53 305.581 331.665V280.561C305.581 279.358 304.557 278.334 303.354 278.334H286.325C285.122 278.334 284.098 279.358 284.098 280.561V331.665C284.098 332.867 285.122 333.892 286.325 333.892H303.354C306.22 333.892 306.22 329.438 303.354 329.438Z" fill="#221F20"/>
<path d="M292.633 267.585V279.106C292.633 280.264 293.657 281.392 294.86 281.333C296.062 281.274 297.087 280.353 297.087 279.106V267.585C297.087 266.426 296.062 265.298 294.86 265.357C293.657 265.417 292.633 266.337 292.633 267.585Z" fill="#221F20"/>
<path d="M292.633 332.986V344.508C292.633 345.666 293.657 346.794 294.86 346.735C296.062 346.675 297.087 345.755 297.087 344.508V332.986C297.087 331.828 296.062 330.7 294.86 330.759C293.657 330.818 292.633 331.739 292.633 332.986Z" fill="#221F20"/>
<path d="M302.894 242.404C301.098 240.192 299.316 237.98 297.519 235.782C297.044 235.203 296.703 234.713 295.901 234.461C294.758 234.104 293.659 234.58 292.946 235.47L289.962 239.152C289.086 240.236 288.21 241.32 287.319 242.404C286.592 243.31 286.369 244.676 287.319 245.552C288.136 246.294 289.68 246.517 290.467 245.552C291.462 244.319 292.456 243.102 293.451 241.87L295.47 239.375C295.782 238.974 296.094 238.514 296.48 238.173L295.5 238.752H294.713L293.733 238.173C294.119 238.499 294.416 238.974 294.743 239.375L296.762 241.87C297.757 243.102 298.752 244.319 299.746 245.552C300.489 246.457 302.137 246.368 302.894 245.552C303.785 244.587 303.681 243.369 302.894 242.404Z" fill="#221F20"/>
<path d="M292.855 236.955V255.514C292.855 258.379 297.31 258.379 297.31 255.514V236.955C297.31 234.09 292.855 234.09 292.855 236.955Z" fill="#221F20"/>
<path d="M340.741 340.929H323.711L325.939 343.157V292.053L323.711 294.28H340.741L338.514 292.053V343.157C338.514 346.022 342.968 346.022 342.968 343.157V292.053C342.968 290.85 341.944 289.826 340.741 289.826H323.711C322.509 289.826 321.484 290.85 321.484 292.053V343.157C321.484 344.359 322.509 345.384 323.711 345.384H340.741C343.607 345.384 343.607 340.929 340.741 340.929Z" fill="#221F20"/>
<path d="M330.02 279.076V290.598C330.02 291.756 331.044 292.884 332.247 292.825C333.449 292.765 334.474 291.845 334.474 290.598V279.076C334.474 277.918 333.449 276.79 332.247 276.849C331.044 276.909 330.02 277.829 330.02 279.076Z" fill="#221F20"/>
<path d="M330.02 344.493V356.014C330.02 357.172 331.044 358.301 332.247 358.241C333.449 358.182 334.474 357.261 334.474 356.014V344.493C334.474 343.335 333.449 342.206 332.247 342.266C331.044 342.325 330.02 343.246 330.02 344.493Z" fill="#221F20"/>
<path d="M337.131 258.023C336.136 259.255 335.141 260.473 334.147 261.705L332.128 264.199C331.816 264.6 331.504 265.061 331.118 265.402L332.098 264.823H332.885L333.865 265.402C333.479 265.075 333.182 264.6 332.855 264.199L330.836 261.705C329.841 260.473 328.846 259.255 327.852 258.023C327.109 257.117 325.461 257.206 324.704 258.023C323.813 258.988 323.917 260.206 324.704 261.171C326.5 263.383 328.282 265.595 330.079 267.792C330.554 268.371 330.895 268.861 331.697 269.114C332.84 269.47 333.939 268.995 334.652 268.104L337.636 264.422C338.512 263.338 339.388 262.254 340.279 261.171C341.006 260.265 341.229 258.899 340.279 258.023C339.462 257.281 337.918 257.058 337.131 258.023Z" fill="#221F20"/>
<path d="M334.696 266.62V248.061C334.696 245.195 330.242 245.195 330.242 248.061V266.62C330.242 269.485 334.696 269.485 334.696 266.62Z" fill="#221F20"/>
<path d="M367.418 250.986V262.507C367.418 263.665 368.442 264.793 369.645 264.734C370.848 264.675 371.872 263.754 371.872 262.507V250.986C371.872 249.828 370.848 248.699 369.645 248.759C368.442 248.818 367.418 249.739 367.418 250.986Z" fill="#221F20"/>
<path d="M367.418 316.402V327.924C367.418 329.082 368.442 330.21 369.645 330.151C370.848 330.091 371.872 329.171 371.872 327.924V316.402C371.872 315.244 370.848 314.116 369.645 314.175C368.442 314.234 367.418 315.155 367.418 316.402Z" fill="#221F20"/>
<path d="M374.518 229.932C373.523 231.165 372.528 232.382 371.533 233.614L369.514 236.109C369.202 236.51 368.891 236.97 368.505 237.311L369.485 236.732H370.271L371.251 237.311C370.865 236.985 370.568 236.51 370.242 236.109L368.223 233.614C367.228 232.382 366.233 231.165 365.238 229.932C364.496 229.027 362.848 229.116 362.091 229.932C361.2 230.897 361.304 232.115 362.091 233.08C363.887 235.292 365.669 237.504 367.465 239.702C367.94 240.281 368.282 240.771 369.084 241.023C370.227 241.38 371.326 240.904 372.038 240.014L375.023 236.332C375.899 235.248 376.774 234.164 377.665 233.08C378.393 232.174 378.616 230.808 377.665 229.932C376.849 229.19 375.305 228.967 374.518 229.932Z" fill="#221F20"/>
<path d="M372.083 238.529V219.97C372.083 217.104 367.629 217.104 367.629 219.97V238.529C367.629 241.394 372.083 241.394 372.083 238.529Z" fill="#221F20"/>
<path d="M374.49 263.962H364.735C362.726 263.962 361.098 265.59 361.098 267.599V311.428C361.098 313.437 362.726 315.066 364.735 315.066H374.49C376.499 315.066 378.127 313.437 378.127 311.428V267.599C378.127 265.59 376.499 263.962 374.49 263.962Z" fill="url(#paint0_linear_785_1394)"/>
<path d="M261.932 310.626H252.949C250.727 310.626 248.926 312.428 248.926 314.65V357.706C248.926 359.929 250.727 361.73 252.949 361.73H261.932C264.154 361.73 265.955 359.929 265.955 357.706V314.65C265.955 312.428 264.154 310.626 261.932 310.626Z" fill="#C5D8E3"/>
</g>
<defs>
<linearGradient id="paint0_linear_785_1394" x1="361.098" y1="289.514" x2="378.127" y2="289.514" gradientUnits="userSpaceOnUse">
<stop stop-color="#9BCB9E"/>
<stop offset="1" stop-color="#78C1C4"/>
</linearGradient>
<clipPath id="clip0_785_1394">
<rect width="175.033" height="173.162" fill="white" transform="translate(212.738 213.838)"/>
</clipPath>
</defs>
</svg>
