<svg width="173" height="202" viewBox="0 0 173 202" fill="none" xmlns="http://www.w3.org/2000/svg">
<g clip-path="url(#clip0_434_8609)">
<path d="M26.9693 96.3747L28.3026 99.2697C28.3407 99.3612 28.4168 99.4297 28.5006 99.4678L31.3957 100.801C31.7157 100.946 31.7157 101.395 31.3957 101.54L28.5006 102.873C28.4092 102.911 28.3407 102.988 28.3026 103.071L26.9693 105.966C26.8246 106.286 26.3751 106.286 26.2303 105.966L24.8971 103.071C24.859 102.98 24.7828 102.911 24.699 102.873L21.8039 101.54C21.484 101.395 21.484 100.946 21.8039 100.801L24.699 99.4678C24.7904 99.4297 24.859 99.3535 24.8971 99.2697L26.2303 96.3747C26.3751 96.0547 26.8246 96.0547 26.9693 96.3747Z" fill="white"/>
<path d="M26.7178 96.5193L27.9367 99.163C28.0815 99.4677 28.2415 99.6582 28.5538 99.8029L30.0623 100.496L30.8318 100.847C30.9232 100.892 31.1898 100.953 31.2508 101.037C31.4794 101.357 30.5575 101.609 30.3975 101.677L28.7138 102.447C28.4091 102.584 28.1805 102.683 28.0129 102.995C27.7691 103.452 27.5787 103.94 27.3653 104.405L27.0073 105.182C26.9387 105.334 26.8625 105.631 26.7406 105.753C26.4359 106.065 26.253 105.334 26.1616 105.144L25.3921 103.467C25.2474 103.147 25.1407 102.789 24.8207 102.607C24.4246 102.378 23.9751 102.218 23.5637 102.028C23.0913 101.814 22.5276 101.639 22.1009 101.357C21.6743 101.075 22.1619 100.938 22.4285 100.816L24.2798 99.9629C24.6379 99.7953 24.9807 99.6963 25.1712 99.3229C25.4378 98.8125 25.6588 98.264 25.9026 97.7383L26.3064 96.8698C26.3292 96.8241 26.5349 96.2222 26.7178 96.5117C26.9158 96.8241 27.4111 96.5346 27.213 96.2222C26.8549 95.6508 26.1921 95.7879 25.9254 96.3365C25.6588 96.885 25.415 97.4564 25.156 98.0126C25.0036 98.3478 24.8512 98.9801 24.5465 99.2163C24.4246 99.3077 24.2341 99.361 24.097 99.422L23.1904 99.841C22.6952 100.07 22.1619 100.268 21.6895 100.534C21.1562 100.831 21.1562 101.502 21.6895 101.799C22.1695 102.066 22.6952 102.264 23.1904 102.492L24.097 102.911C24.2341 102.972 24.4246 103.026 24.5465 103.117C24.8512 103.353 25.0036 103.985 25.156 104.321C25.415 104.877 25.6588 105.448 25.9254 105.997C26.1921 106.545 26.8701 106.69 27.213 106.111C27.4491 105.715 27.6091 105.25 27.7996 104.839C28.0358 104.336 28.2262 103.742 28.5234 103.269C28.7062 102.98 29.2014 102.866 29.4985 102.728L31.2889 101.906C31.746 101.7 32.1726 101.243 31.7612 100.74C31.6241 100.572 31.426 100.504 31.2356 100.42L30.2604 99.9705L29.1938 99.4829C29.0262 99.4068 28.79 99.3458 28.6453 99.2315C28.5005 99.1172 28.4548 98.9344 28.3786 98.7744L27.9215 97.7764L27.213 96.2451C27.0606 95.9098 26.5654 96.1993 26.7178 96.5346V96.5193Z" fill="#2B63A8"/>
<path d="M26.8097 96.4659L28.0287 99.1096C28.1658 99.4067 28.3105 99.5743 28.6077 99.7115L30.1161 100.405L30.8856 100.755C30.9923 100.809 31.2208 100.854 31.3046 100.946C31.7236 101.38 30.6418 101.685 30.4513 101.768L28.7676 102.538C28.4781 102.667 28.2648 102.759 28.1048 103.048C27.861 103.505 27.6706 103.993 27.4573 104.458L27.0992 105.235C27.023 105.403 26.9544 105.669 26.8325 105.806C26.4211 106.294 26.1697 105.41 26.0707 105.197L25.3012 103.521C25.1641 103.224 25.065 102.866 24.7679 102.698C24.3717 102.469 23.9223 102.309 23.5109 102.119C23.0385 101.898 22.49 101.723 22.0481 101.448C21.8957 101.357 21.5377 101.296 21.911 100.938C22.01 100.839 22.2538 100.778 22.3833 100.725L24.2346 99.8714C24.5775 99.7114 24.905 99.62 25.0879 99.2696C25.3545 98.7591 25.5755 98.2106 25.8193 97.6849L26.2231 96.8164C26.2611 96.7326 26.2916 96.6107 26.3526 96.5421C26.4364 96.4431 26.4516 95.8717 26.8173 96.4583C26.9392 96.6564 27.2516 96.4736 27.1297 96.2755C26.8097 95.7727 26.2535 95.9174 26.025 96.3898C25.7507 96.9383 25.5145 97.5097 25.2555 98.0658C25.0955 98.4087 24.9355 99.0715 24.6079 99.3077C24.2194 99.5819 23.6785 99.7343 23.2518 99.9324C22.7566 100.161 22.2157 100.351 21.751 100.626C21.2862 100.9 21.2939 101.441 21.751 101.708C22.2081 101.974 22.7642 102.172 23.2518 102.401C23.6785 102.599 24.2194 102.751 24.6079 103.026C24.9355 103.254 25.0955 103.925 25.2555 104.267C25.5145 104.823 25.7583 105.395 26.025 105.943C26.2535 106.416 26.8173 106.568 27.1297 106.058C27.3658 105.669 27.5258 105.197 27.7163 104.785C27.9525 104.275 28.1429 103.696 28.4401 103.216C28.6381 102.904 29.1333 102.782 29.4533 102.637L31.2437 101.814C31.6322 101.631 32.0512 101.266 31.6932 100.809C31.5713 100.649 31.3656 100.588 31.1903 100.504L30.2152 100.054C29.7047 99.8181 29.0572 99.6353 28.6 99.3077C28.4324 99.1934 28.3791 98.9877 28.2953 98.8125L27.8382 97.8144L27.1297 96.2831C27.0306 96.0698 26.7183 96.2526 26.8173 96.4659H26.8097Z" fill="white"/>
<path d="M26.5657 96.6107L27.457 98.5534C27.6704 99.0257 27.838 99.5743 28.2875 99.8714C28.7903 100.199 29.4226 100.405 29.9635 100.656C30.2226 100.77 30.474 100.9 30.733 101.007C30.9768 101.113 31.2206 101.09 30.9082 101.273C30.0626 101.768 28.9884 101.944 28.1884 102.53C27.8151 102.805 27.6627 103.285 27.4799 103.696C27.2285 104.267 26.9542 104.831 26.7257 105.402C26.7638 105.303 26.6114 105.677 26.6114 105.677C26.5733 105.677 26.4819 105.456 26.4666 105.425C26.4057 105.311 26.3676 105.182 26.3143 105.06C26.04 104.42 25.7276 103.787 25.4458 103.155C24.9963 102.157 23.6859 101.913 22.7564 101.494C22.5964 101.426 22.2383 101.304 22.1164 101.167L22.0403 101.128C22.1393 101.128 22.2383 101.09 22.3298 101.037C22.3907 101.014 22.4517 100.991 22.5126 100.961C23.183 100.671 23.8306 100.351 24.4934 100.054C24.9505 99.8485 25.2172 99.6352 25.4381 99.1781C25.7429 98.561 26.0019 97.9287 26.2914 97.304C26.3904 97.0983 26.4895 96.8849 26.5809 96.6792C26.6038 96.6259 26.6342 96.5802 26.6495 96.5192C26.718 96.2602 26.5504 96.5573 26.5581 96.5954C26.5809 96.9383 27.1828 96.8087 27.3199 96.6488C27.5637 96.3669 27.3428 96.0012 27.0837 95.8183C26.779 95.605 26.3904 95.6279 26.0933 95.8412C25.6743 96.1459 25.4991 96.7859 25.2934 97.2354C25.0801 97.7153 24.9048 98.2182 24.6763 98.6829C24.4172 99.2314 23.8078 99.3609 23.2897 99.5819C22.7716 99.8028 22.2231 100.009 21.7279 100.283C21.3774 100.481 21.0727 100.77 21.1032 101.205C21.1337 101.639 21.507 101.906 21.8727 102.096C22.3755 102.347 22.9012 102.561 23.4268 102.774C23.6859 102.881 23.9525 102.972 24.1963 103.102C24.5163 103.277 24.6382 103.505 24.7753 103.841C24.9582 104.313 25.1639 104.77 25.3696 105.235C25.5753 105.7 25.7505 106.309 26.2305 106.545C27.2894 107.071 27.7237 105.418 28.0132 104.755C28.3027 104.092 28.4551 103.33 29.1484 103.041C29.7731 102.774 30.3902 102.492 31.0073 102.21C31.4492 102.005 32.0586 101.753 32.0891 101.182C32.1196 100.61 31.5863 100.374 31.1444 100.176C30.5273 99.8942 29.895 99.6428 29.2779 99.3686C28.8284 99.1629 28.6379 98.9419 28.4398 98.5001C28.2875 98.1648 28.1351 97.8296 27.9751 97.4944L27.5028 96.4735C27.4113 96.2754 27.3351 96.0164 27.1142 95.925C26.7104 95.7726 26.459 96.1916 26.5123 96.5345C26.5733 96.8925 27.1218 96.7402 27.0609 96.3821L26.9314 96.5878L27.0914 96.9306L27.2513 97.2735L27.6399 98.1191C27.838 98.5534 27.998 99.1857 28.3713 99.5057C28.7446 99.8257 29.2398 99.9628 29.674 100.138C29.9635 100.252 30.2454 100.389 30.5349 100.519C30.7635 100.626 31.1063 100.702 31.2892 100.862C31.7844 101.296 31.1977 101.494 30.893 101.631C30.5883 101.768 30.2988 101.906 29.994 102.043C29.5217 102.256 28.9808 102.424 28.5389 102.698C28.1351 102.949 27.9522 103.406 27.777 103.833C27.5485 104.366 27.3351 104.907 27.0914 105.441C26.9771 105.692 26.8171 106.172 26.459 106.042C26.2305 105.959 26.0933 105.486 26.0019 105.296C25.7657 104.793 25.5296 104.283 25.3315 103.764C25.202 103.422 25.0648 103.064 24.7753 102.82C24.4325 102.538 23.9678 102.401 23.5564 102.233C23.0459 102.02 22.4669 101.829 21.9945 101.54C21.6593 101.334 21.5298 101.09 21.926 100.831C22.2003 100.648 22.5355 100.534 22.8402 100.405C23.5792 100.092 24.6839 99.8562 25.1029 99.1019C25.3162 98.7134 25.4381 98.2791 25.621 97.8753C25.7353 97.6239 25.8495 97.3725 25.9638 97.1211C26.0857 96.8545 26.1924 96.4507 26.459 96.2907C26.6419 96.1764 27.1828 96.2754 26.7638 96.0012C26.6647 95.9402 26.5504 95.8945 26.4285 95.925C26.2 95.9859 26.1543 96.2145 26.0705 96.3973C25.8572 96.8925 25.621 97.3725 25.4 97.8677C25.1791 98.3629 24.9963 99.1019 24.5468 99.4067C24.0973 99.7114 23.5259 99.879 23.0459 100.1C22.6269 100.29 22.0174 100.443 21.6746 100.748C20.928 101.41 22.1088 101.852 22.5964 102.058C23.1069 102.279 23.6325 102.485 24.1354 102.721C24.3868 102.835 24.6306 102.934 24.7906 103.163C24.9277 103.361 25.0039 103.627 25.1029 103.841C25.3391 104.359 25.5905 104.877 25.8191 105.402C25.9257 105.654 26.0171 105.951 26.2457 106.126C26.9618 106.675 27.3351 105.342 27.5332 104.922C27.7923 104.366 27.9827 103.711 28.3256 103.201C28.6303 102.744 29.415 102.546 29.895 102.332C30.2911 102.149 30.7025 102.005 31.0911 101.807C31.3425 101.677 31.6472 101.479 31.6549 101.159C31.6549 100.786 31.3273 100.641 31.0301 100.527C30.4207 100.275 29.8264 99.9781 29.2245 99.7038C28.935 99.5667 28.5694 99.46 28.3713 99.1933C28.2113 98.9724 28.1199 98.6829 28.0056 98.4391L27.0304 96.3212C26.878 95.9859 26.3828 96.2754 26.5352 96.6107H26.5657Z" fill="#2B63A8"/>
<path d="M84.7187 2.11838L85.3053 3.39079C85.4196 3.6346 85.6101 3.82508 85.8463 3.93175L87.1187 4.51843C87.9797 4.91463 87.9797 6.14132 87.1187 6.53751L85.8463 7.12419C85.6025 7.23848 85.412 7.42896 85.3053 7.66515L84.7187 8.93756C84.3225 9.79853 83.0958 9.79853 82.6996 8.93756L82.1129 7.66515C81.9986 7.42134 81.8081 7.23086 81.5719 7.12419L80.2995 6.53751C79.4386 6.14132 79.4386 4.91463 80.2995 4.51843L81.5719 3.93175C81.8158 3.81746 82.0062 3.62698 82.1129 3.39079L82.6996 2.11838C83.0958 1.25741 84.3225 1.25741 84.7187 2.11838Z" fill="white"/>
<path d="M84.475 2.26298L84.8635 3.10871C85.0159 3.45157 85.1531 3.78682 85.4578 4.02301C85.7245 4.22873 86.0674 4.35064 86.3721 4.48778C86.654 4.61731 87.035 4.7316 87.256 4.95255C87.6064 5.31065 87.5455 5.92781 87.1264 6.20972C86.8674 6.38496 86.5321 6.49163 86.2502 6.62877C85.9455 6.76592 85.6102 6.88783 85.3664 7.1164C85.0997 7.36783 84.9778 7.71832 84.8254 8.04594C84.6959 8.33547 84.5816 8.64786 84.414 8.91453C84.1549 9.32597 83.5759 9.44026 83.1949 9.12787C82.9435 8.92977 82.8292 8.53357 82.6997 8.25928C82.5625 7.96213 82.4483 7.63451 82.2654 7.36022C81.8768 6.78116 81.0387 6.5983 80.4444 6.30115C80.0177 6.08781 79.7968 5.60018 80.033 5.15065C80.2006 4.83826 80.5663 4.72398 80.8711 4.57921C81.2063 4.42683 81.5797 4.2973 81.892 4.09158C82.2654 3.84015 82.4102 3.44395 82.593 3.05537C82.7378 2.73537 82.8597 2.32393 83.0883 2.04964C83.4997 1.56201 84.2159 1.74487 84.475 2.2706C84.6426 2.59822 85.1302 2.30869 84.9702 1.98107C84.4445 0.944857 82.9664 0.960096 82.4559 1.99631C82.2882 2.33917 82.1359 2.69727 81.9759 3.04775C81.8159 3.39824 81.6254 3.61157 81.2749 3.7792C80.4977 4.1373 79.4691 4.41921 79.3853 5.43256C79.2939 6.50687 80.2768 6.84973 81.0768 7.21545C81.4425 7.38307 81.7397 7.52022 81.9301 7.91642C82.0978 8.28214 82.2654 8.64786 82.433 9.01358C82.8673 9.94312 84.1245 10.225 84.8102 9.37168C85.2826 8.785 85.3131 7.74118 86.0217 7.37545C86.6921 7.04021 87.6445 6.84211 87.9569 6.08019C88.1931 5.51637 88.0331 4.83826 87.5531 4.4573C87.2179 4.19063 86.7607 4.04587 86.3721 3.87063C86.2197 3.80205 86.0597 3.7411 85.915 3.65729C85.694 3.52776 85.5874 3.32204 85.4883 3.09347L84.9778 1.98869C84.8254 1.65344 84.3302 1.94297 84.4826 2.27822L84.475 2.26298Z" fill="#2B63A8"/>
<path d="M83.9257 0.830702L85.0533 3.29149C85.2361 3.68766 85.5561 4.00763 85.9523 4.19048L87.2246 4.77711L87.994 5.12756C88.1007 5.18089 88.3292 5.2266 88.413 5.31802C88.8321 5.75228 87.7502 6.05702 87.5598 6.14083L85.8761 6.9103C85.5866 7.03981 85.3732 7.13124 85.2133 7.42074C84.9695 7.87785 84.779 8.36544 84.5657 8.83017L84.2076 9.60726C84.1314 9.77487 84.0629 10.0415 83.941 10.1787C83.5296 10.6662 83.2782 9.78249 83.1791 9.56917L82.4096 7.89309C82.2725 7.59597 82.1735 7.2379 81.8763 7.07029C81.4802 6.84173 81.0307 6.68174 80.6193 6.49128C80.1469 6.27034 79.5984 6.09512 79.1565 5.82085C79.0041 5.72942 78.6461 5.66848 79.0194 5.31041C79.1184 5.21136 79.3622 5.15042 79.4917 5.09709L81.343 4.24381C81.6859 4.08382 82.0135 3.9924 82.1963 3.64194C82.463 3.1315 82.6839 2.58297 82.9277 2.05729L83.3315 1.18877C83.3696 1.10497 83.4 0.983073 83.461 0.914506C83.5448 0.815465 83.56 0.244075 83.9257 0.830702C84.0476 1.02878 84.36 0.84594 84.2381 0.647857C83.9181 0.145034 83.362 0.289786 83.1334 0.762136C82.8591 1.31067 82.623 1.88206 82.3639 2.43822C82.2039 2.78105 82.0439 3.44386 81.7164 3.68004C81.3278 3.9543 80.7869 4.10668 80.3603 4.30476H80.3374C78.8213 5.00566 78.8213 6.06464 80.3374 6.75793H80.3603C80.7869 6.96363 81.3278 7.12362 81.7164 7.39027C82.0439 7.61882 82.2039 8.28926 82.3639 8.63209C82.623 9.18824 82.8668 9.75963 83.1334 10.3082C83.362 10.7805 83.9257 10.9329 84.2381 10.4224C84.4743 10.0339 84.6342 9.56155 84.8247 9.15015C85.0609 8.63971 85.2514 8.0607 85.5485 7.58073C85.7466 7.26837 86.2418 7.14647 86.5617 7.00172L88.3521 6.17892C88.7406 5.99607 89.1597 5.63038 88.8016 5.17327C88.6797 5.01328 88.474 4.95233 88.2988 4.86853L87.3236 4.41904C86.8132 4.18286 86.1656 4.00002 85.7085 3.67242C85.5409 3.55814 85.4875 3.35244 85.4037 3.17721L84.9466 2.17918L84.2381 0.647857C84.139 0.434538 83.8267 0.617383 83.9257 0.830702Z" fill="white"/>
<path d="M83.6819 0.96787L84.4057 2.54491C84.6723 3.1163 84.8857 3.74864 85.3885 4.16004C85.8684 4.54859 86.5236 4.75429 87.0798 5.01332C87.3388 5.13521 87.5902 5.25711 87.8569 5.37139C88.0702 5.46281 88.3292 5.43234 88.0778 5.61518C87.7578 5.83612 87.2703 5.96563 86.9198 6.12562C86.3941 6.36942 85.7085 6.55988 85.259 6.94081C84.779 7.34459 84.5809 8.13692 84.3295 8.69307C84.2 8.97496 84.0629 9.25685 83.941 9.53873C83.8952 9.63777 83.8495 9.87395 83.7733 9.94251C83.6667 10.0416 83.7353 10.0339 83.6362 9.88157C83.3543 9.45493 83.1943 8.88354 82.981 8.42642C82.7677 7.96931 82.5925 7.29888 82.1963 6.94843C81.7392 6.53703 80.9773 6.33132 80.4136 6.09515C80.086 5.95802 79.7584 5.8285 79.446 5.66089C79.4765 5.67613 79.1717 5.5009 79.1717 5.51614C79.1641 5.54661 79.3775 5.45519 79.3775 5.45519C80.0479 5.22664 80.6802 4.86856 81.3202 4.57906C81.8459 4.34288 82.2496 4.17528 82.5239 3.64198C82.882 2.95631 83.1715 2.22493 83.4915 1.5164C83.5753 1.33356 83.6743 1.15071 83.7505 0.960251C83.8648 0.670747 83.6515 0.899303 83.72 1.04406C83.8952 1.41736 84.4819 1.1431 84.5352 0.830736C84.6038 0.44219 84.1695 0.114593 83.8267 0.0688817C83.3162 0.00031475 83.0039 0.388861 82.7982 0.800262C82.5239 1.34118 82.2649 1.90495 82.0363 2.46872C81.9373 2.71252 81.8687 2.97155 81.7392 3.2001C81.5411 3.54294 81.1754 3.67245 80.825 3.8172C80.0707 4.12195 78.9051 4.56382 78.9051 5.55423C78.9051 6.54464 80.0707 6.9789 80.825 7.29126C81.1221 7.41316 81.4802 7.53506 81.6782 7.8017C81.8382 8.01502 81.9068 8.28929 81.9982 8.53308C82.2344 9.13495 82.5087 9.7292 82.7982 10.3082C82.9886 10.6891 83.2781 11.0624 83.7505 11.0472C84.3143 11.032 84.5581 10.4758 84.7561 10.0339C85.0533 9.36351 85.2971 8.6626 85.6323 8.01502C85.9294 7.44363 86.6303 7.29888 87.1865 7.03985C87.7426 6.78082 88.6111 6.55988 89.0225 6.04182C89.3806 5.59233 89.1825 5.03617 88.7102 4.76952C88.1312 4.44193 87.476 4.19051 86.8589 3.94672C86.5313 3.81721 86.0284 3.68007 85.7999 3.38295C85.5942 3.1163 85.4875 2.69728 85.3428 2.39254L84.7942 1.20404C84.68 0.952633 84.5733 0.49552 84.3143 0.343149C83.9029 0.0993558 83.5829 0.556468 83.6438 0.922159C83.7048 1.28785 84.2533 1.12786 84.1924 0.769788L84.0628 0.975488L84.2228 1.31832L84.459 1.82877L84.8476 2.67442C85.0685 3.15439 85.2133 3.72578 85.678 4.01529C86.1122 4.28956 86.6151 4.43431 87.0798 4.64001C87.3845 4.76952 87.6817 4.91428 87.9864 5.05903C88.0854 5.10474 88.3445 5.17331 88.4207 5.25711L88.6035 5.65327C88.5273 5.75232 88.4283 5.8285 88.314 5.88945C87.7883 6.21705 87.1331 6.4456 86.5694 6.69701C86.1656 6.87986 85.678 6.99414 85.3809 7.33697C85.0609 7.69504 84.9085 8.22072 84.7257 8.6626C84.6038 8.9521 84.4743 9.23399 84.36 9.51588C84.2609 9.75205 84.0781 10.4072 83.781 10.4606C83.301 10.552 82.8896 9.14257 82.7525 8.83783C82.5544 8.40357 82.4325 7.90836 82.1735 7.50458C81.5944 6.61321 80.2003 6.78082 79.5984 5.89707C78.9584 4.94475 80.9088 4.42669 81.4649 4.15242C82.3792 3.71055 82.5849 2.62109 82.9734 1.75258C83.1029 1.47069 83.2248 0.975488 83.461 0.769788C83.5905 0.647891 83.621 0.685984 83.7733 0.640272C84.0781 0.54885 84.139 0.617417 83.9486 0.426953C83.7124 0.198397 83.4229 0.305057 83.2858 0.564087C82.7829 1.50879 82.5163 2.60586 81.9449 3.51246C81.6554 3.96958 80.8097 4.1829 80.345 4.39621C80.0631 4.52573 79.7812 4.65524 79.4993 4.78476C79.2784 4.8838 79.0194 4.94475 78.8289 5.10474C77.9604 5.83612 79.4384 6.32371 79.9412 6.53703C80.505 6.7732 81.2364 6.97128 81.724 7.33697C81.9297 7.48934 82.0058 7.7179 82.1049 7.94646C82.242 8.26643 82.3944 8.5788 82.5391 8.89877C82.7296 9.31779 82.8896 9.78253 83.1182 10.1863C83.2705 10.4606 83.5143 10.712 83.8495 10.6053C84.1847 10.4987 84.299 10.1101 84.4209 9.813C84.6876 9.16542 84.9847 8.51785 85.2894 7.89313C85.419 7.6341 85.518 7.4284 85.7694 7.28364C86.0513 7.12365 86.3713 7.00176 86.6684 6.86462C87.1103 6.65892 87.5521 6.46846 88.0016 6.278C88.2988 6.1561 88.6949 5.97325 88.7483 5.61518C88.8168 5.2114 88.4511 5.02855 88.1388 4.90666C87.4531 4.62477 86.7598 4.30479 86.097 3.96958C85.3961 3.62674 85.1904 2.97917 84.8857 2.31635L84.139 0.701221C83.9867 0.366005 83.4915 0.65551 83.6438 0.990726L83.6819 0.96787Z" fill="#2B63A8"/>
<path d="M147.457 110.606L148.044 111.878C148.158 112.122 148.349 112.313 148.585 112.419L149.857 113.006C150.718 113.402 150.718 114.629 149.857 115.025L148.585 115.612C148.341 115.726 148.151 115.917 148.044 116.153L147.457 117.425C147.061 118.286 145.835 118.286 145.438 117.425L144.852 116.153C144.737 115.909 144.547 115.719 144.311 115.612L143.038 115.025C142.177 114.629 142.177 113.402 143.038 113.006L144.311 112.419C144.555 112.305 144.745 112.115 144.852 111.878L145.438 110.606C145.835 109.745 147.061 109.745 147.457 110.606Z" fill="white"/>
<path d="M147.206 110.751L147.594 111.596C147.747 111.939 147.884 112.275 148.189 112.511C148.455 112.716 148.798 112.838 149.103 112.976C149.385 113.105 149.766 113.219 149.987 113.44C150.337 113.798 150.276 114.416 149.857 114.697C149.598 114.873 149.263 114.979 148.981 115.116C148.676 115.254 148.341 115.376 148.097 115.604C147.831 115.856 147.709 116.206 147.556 116.534C147.427 116.823 147.313 117.136 147.145 117.402C146.886 117.814 146.307 117.928 145.926 117.616C145.674 117.418 145.56 117.021 145.431 116.747C145.293 116.45 145.179 116.122 144.996 115.848C144.608 115.269 143.77 115.086 143.175 114.789C142.749 114.576 142.528 114.088 142.764 113.638C142.932 113.326 143.297 113.212 143.602 113.067C143.937 112.915 144.311 112.785 144.623 112.579C144.996 112.328 145.141 111.932 145.324 111.543C145.469 111.223 145.591 110.812 145.819 110.537C146.231 110.05 146.947 110.233 147.206 110.758C147.374 111.086 147.861 110.796 147.701 110.469C147.175 109.433 145.697 109.448 145.187 110.484C145.019 110.827 144.867 111.185 144.707 111.535C144.547 111.886 144.356 112.099 144.006 112.267C143.229 112.625 142.2 112.907 142.116 113.92C142.025 114.995 143.008 115.337 143.808 115.703C144.173 115.871 144.471 116.008 144.661 116.404C144.829 116.77 144.996 117.136 145.164 117.501C145.598 118.431 146.855 118.713 147.541 117.859C148.014 117.273 148.044 116.229 148.753 115.863C149.423 115.528 150.375 115.33 150.688 114.568C150.924 114.004 150.764 113.326 150.284 112.945C149.949 112.678 149.492 112.534 149.103 112.358C148.951 112.29 148.791 112.229 148.646 112.145C148.425 112.015 148.318 111.81 148.219 111.581L147.709 110.476C147.556 110.141 147.061 110.431 147.214 110.766L147.206 110.751Z" fill="#2B63A8"/>
<path d="M146.664 109.311L147.792 111.772C147.975 112.168 148.295 112.488 148.691 112.671L149.963 113.257L150.733 113.608C150.839 113.661 151.068 113.707 151.152 113.798C151.571 114.232 150.489 114.537 150.299 114.621L148.615 115.39C148.325 115.52 148.112 115.611 147.952 115.901C147.708 116.358 147.518 116.846 147.304 117.31L146.946 118.087C146.87 118.255 146.802 118.522 146.68 118.659C146.268 119.146 146.017 118.263 145.918 118.049L145.148 116.373C145.011 116.076 144.912 115.718 144.615 115.55C144.219 115.322 143.769 115.162 143.358 114.971C142.886 114.751 142.337 114.575 141.895 114.301C141.743 114.21 141.385 114.149 141.758 113.791C141.857 113.692 142.101 113.631 142.231 113.577L144.082 112.724C144.425 112.564 144.752 112.473 144.935 112.122C145.202 111.612 145.423 111.063 145.666 110.537L146.07 109.669C146.108 109.585 146.139 109.463 146.2 109.395C146.284 109.296 146.299 108.724 146.664 109.311C146.786 109.509 147.099 109.326 146.977 109.128C146.657 108.625 146.101 108.77 145.872 109.242C145.598 109.791 145.362 110.362 145.103 110.918C144.943 111.261 144.783 111.924 144.455 112.16C144.067 112.434 143.526 112.587 143.099 112.785H143.076C141.56 113.486 141.56 114.545 143.076 115.238H143.099C143.526 115.444 144.067 115.604 144.455 115.87C144.783 116.099 144.943 116.769 145.103 117.112C145.362 117.668 145.606 118.24 145.872 118.788C146.101 119.261 146.664 119.413 146.977 118.903C147.213 118.514 147.373 118.042 147.563 117.63C147.8 117.12 147.99 116.541 148.287 116.061C148.485 115.749 148.981 115.627 149.301 115.482L151.091 114.659C151.479 114.476 151.898 114.111 151.54 113.653C151.418 113.493 151.213 113.433 151.038 113.349L150.062 112.899C149.552 112.663 148.904 112.48 148.447 112.153C148.28 112.038 148.226 111.833 148.142 111.657L147.685 110.659L146.977 109.128C146.878 108.915 146.565 109.098 146.664 109.311Z" fill="white"/>
<path d="M146.413 109.455L147.137 111.033C147.404 111.604 147.617 112.236 148.12 112.648C148.6 113.036 149.255 113.242 149.811 113.501C150.07 113.623 150.322 113.745 150.588 113.859C150.802 113.95 151.061 113.92 150.809 114.103C150.489 114.324 150.002 114.453 149.651 114.613C149.126 114.857 148.44 115.047 147.99 115.428C147.51 115.832 147.312 116.625 147.061 117.181C146.931 117.463 146.794 117.744 146.672 118.026C146.627 118.125 146.581 118.362 146.505 118.43C146.398 118.529 146.467 118.522 146.368 118.369C146.086 117.943 145.926 117.371 145.712 116.914C145.499 116.457 145.324 115.786 144.928 115.436C144.471 115.025 143.709 114.819 143.145 114.583C142.817 114.446 142.49 114.316 142.177 114.149C142.208 114.164 141.903 113.989 141.903 114.004C141.896 114.034 142.109 113.943 142.109 113.943C142.779 113.714 143.412 113.356 144.052 113.067C144.577 112.831 144.981 112.663 145.255 112.13C145.613 111.444 145.903 110.713 146.223 110.004C146.307 109.821 146.406 109.638 146.482 109.448C146.596 109.158 146.383 109.387 146.451 109.532C146.627 109.905 147.213 109.631 147.267 109.318C147.335 108.93 146.901 108.602 146.558 108.556C146.048 108.488 145.735 108.876 145.53 109.288C145.255 109.829 144.996 110.393 144.768 110.956C144.669 111.2 144.6 111.459 144.471 111.688C144.273 112.031 143.907 112.16 143.556 112.305C142.802 112.61 141.637 113.051 141.637 114.042C141.637 115.032 142.802 115.467 143.556 115.779C143.854 115.901 144.212 116.023 144.41 116.289C144.57 116.503 144.638 116.777 144.73 117.021C144.966 117.623 145.24 118.217 145.53 118.796C145.72 119.177 146.01 119.55 146.482 119.535C147.046 119.52 147.29 118.963 147.488 118.522C147.785 117.851 148.029 117.15 148.364 116.503C148.661 115.931 149.362 115.786 149.918 115.527C150.474 115.268 151.343 115.047 151.754 114.529C152.112 114.08 151.914 113.524 151.442 113.257C150.863 112.93 150.207 112.678 149.59 112.434C149.263 112.305 148.76 112.168 148.531 111.871C148.326 111.604 148.219 111.185 148.074 110.88L147.526 109.692C147.411 109.44 147.305 108.983 147.046 108.831C146.634 108.587 146.314 109.044 146.375 109.41C146.436 109.775 146.985 109.615 146.924 109.257L146.794 109.463L146.954 109.806L147.19 110.316L147.579 111.162C147.8 111.642 147.945 112.213 148.409 112.503C148.844 112.777 149.347 112.922 149.811 113.128C150.116 113.257 150.413 113.402 150.718 113.547C150.817 113.592 151.076 113.661 151.152 113.745L151.335 114.141C151.259 114.24 151.16 114.316 151.045 114.377C150.52 114.705 149.865 114.933 149.301 115.185C148.897 115.367 148.409 115.482 148.112 115.825C147.792 116.183 147.64 116.708 147.457 117.15C147.335 117.44 147.206 117.722 147.091 118.003C146.992 118.24 146.81 118.895 146.512 118.948C146.032 119.04 145.621 117.63 145.484 117.325C145.286 116.891 145.164 116.396 144.905 115.992C144.326 115.101 142.932 115.268 142.33 114.385C141.69 113.432 143.64 112.914 144.196 112.64C145.111 112.198 145.316 111.109 145.705 110.24C145.834 109.958 145.956 109.463 146.192 109.257C146.322 109.136 146.352 109.174 146.505 109.128C146.81 109.036 146.87 109.105 146.68 108.915C146.444 108.686 146.154 108.793 146.017 109.052C145.514 109.996 145.248 111.093 144.676 112C144.387 112.457 143.541 112.671 143.076 112.884C142.795 113.013 142.513 113.143 142.231 113.272C142.01 113.371 141.751 113.432 141.56 113.592C140.692 114.324 142.17 114.811 142.673 115.025C143.236 115.261 143.968 115.459 144.455 115.825C144.661 115.977 144.737 116.206 144.836 116.434C144.973 116.754 145.126 117.066 145.271 117.386C145.461 117.805 145.621 118.27 145.85 118.674C146.002 118.948 146.246 119.2 146.581 119.093C146.916 118.986 147.03 118.598 147.152 118.301C147.419 117.653 147.716 117.005 148.021 116.381C148.15 116.122 148.249 115.916 148.501 115.771C148.783 115.611 149.103 115.489 149.4 115.352C149.842 115.147 150.284 114.956 150.733 114.766C151.03 114.644 151.426 114.461 151.48 114.103C151.548 113.699 151.183 113.516 150.87 113.394C150.185 113.112 149.491 112.792 148.828 112.457C148.128 112.114 147.922 111.467 147.617 110.804L146.87 109.189C146.718 108.854 146.223 109.143 146.375 109.478L146.413 109.455Z" fill="#2B63A8"/>
<path d="M91.6205 185.344C107.744 185.344 120.815 182.588 120.815 179.188C120.815 175.789 107.744 173.032 91.6205 173.032C75.497 173.032 62.4263 175.789 62.4263 179.188C62.4263 182.588 75.497 185.344 91.6205 185.344Z" fill="#2A4850"/>
<path d="M92.0165 121.28C108.565 121.28 121.98 117.268 121.98 112.32C121.98 107.372 108.565 103.361 92.0165 103.361C75.468 103.361 62.0527 107.372 62.0527 112.32C62.0527 117.268 75.468 121.28 92.0165 121.28Z" fill="#997C3A"/>
<path d="M121.691 112.32C121.638 115.04 117.973 116.602 115.878 117.432C111.474 119.177 106.69 119.984 102.005 120.479C96.0849 121.104 90.0891 121.158 84.1619 120.678C79.2327 120.281 74.2273 119.542 69.5267 117.935C67.8811 117.371 66.2355 116.693 64.788 115.718C63.8204 115.07 62.7919 114.202 62.4491 113.044C61.6872 110.476 64.9251 108.686 66.784 107.795C70.9133 105.829 75.6139 104.96 80.1165 104.374C85.9218 103.62 91.8262 103.467 97.6696 103.802C102.827 104.1 108.038 104.755 113.006 106.225C114.811 106.758 116.617 107.406 118.263 108.328C119.39 108.953 120.586 109.745 121.257 110.88C121.523 111.322 121.676 111.802 121.683 112.32C121.683 112.686 122.262 112.686 122.255 112.32C122.201 109.585 119.024 107.947 116.876 107.01C112.457 105.082 107.558 104.221 102.797 103.673C96.3973 102.934 89.8987 102.873 83.4839 103.444C78.3947 103.894 73.1912 104.679 68.3991 106.499C66.0602 107.383 62.5024 108.846 61.8396 111.604C61.2225 114.179 63.9271 116.023 65.8698 117.036C69.9686 119.169 74.7225 120.091 79.2479 120.723C85.5028 121.599 91.8643 121.775 98.1648 121.378C103.559 121.043 109.036 120.327 114.187 118.643C116.838 117.775 120.586 116.472 121.904 113.745C122.117 113.295 122.232 112.823 122.247 112.328C122.247 111.962 121.683 111.962 121.676 112.328L121.691 112.32Z" fill="#2B63A8"/>
<path d="M113.57 174.381L102.523 175.965C96.2299 176.864 89.8532 176.91 83.545 176.095L69.7326 174.312C65.4205 173.756 62.1445 170.16 61.9922 165.81L60.5142 122.788H123.512L121.173 166.069C120.944 170.297 117.76 173.779 113.57 174.381Z" fill="#997C3A"/>
<path d="M113.494 174.099C105.403 175.257 97.3423 176.697 89.1219 176.301C85.4422 176.118 81.7853 175.577 78.136 175.105C75.34 174.747 72.5288 174.427 69.7404 174.023C65.413 173.398 62.4266 169.794 62.2666 165.498C62.198 163.662 62.1371 161.825 62.0761 159.989L61.3371 138.391L60.9943 128.411L60.8724 124.936C60.8495 124.35 60.9486 123.603 60.8038 123.032C60.7886 122.956 60.8038 122.864 60.7962 122.788L60.5067 123.078H123.504L123.215 122.788L122.263 140.463L120.975 164.271C120.945 164.873 120.922 165.467 120.876 166.069C120.602 170.183 117.531 173.459 113.478 174.107C113.113 174.167 113.273 174.716 113.631 174.655C116.754 174.16 119.459 172.126 120.716 169.2C121.242 167.981 121.409 166.717 121.486 165.406L121.95 156.812L123.413 129.69L123.786 122.788C123.794 122.636 123.649 122.499 123.497 122.499H60.5219C60.3696 122.499 60.2324 122.628 60.2324 122.788L60.6895 136.136L61.4666 158.656L61.6876 165.147C61.8018 168.431 63.1122 171.448 65.9768 173.253C68.5214 174.868 71.9574 174.876 74.8676 175.257C77.7779 175.638 80.6501 176.004 83.5375 176.377C89.9981 177.2 96.5119 177.108 102.957 176.186C106.218 175.722 109.479 175.249 112.739 174.785L113.646 174.655C114.012 174.602 113.852 174.053 113.494 174.107V174.099Z" fill="#2B63A8"/>
<path d="M118.811 113.105C112.373 110.827 102.758 109.387 92.0163 109.387C81.2742 109.387 71.6519 110.835 65.2219 113.105H56.8491V119.87H56.9405C56.9405 125.66 72.6424 130.361 92.0163 130.361C111.39 130.361 127.092 125.668 127.092 119.87V113.105H118.811Z" fill="#997C3A"/>
<path d="M118.887 112.831C109.692 109.608 99.4751 108.938 89.8072 109.12C84.619 109.22 79.4307 109.639 74.3187 110.53C72.1017 110.918 69.8999 111.391 67.7286 112.008C66.5782 112.336 65.5574 112.823 64.3689 112.823H56.8417C56.6894 112.823 56.5522 112.953 56.5522 113.113V119.878C56.5522 120.03 56.6818 120.167 56.8417 120.167H56.9332L56.6437 119.878C56.7122 123.763 61.9919 125.797 64.9707 126.864C71.8655 129.34 79.385 130.201 86.6683 130.529C94.9192 130.902 103.307 130.513 111.421 128.906C114.506 128.296 117.584 127.504 120.502 126.308C122.437 125.508 124.449 124.525 125.919 123.001C127.009 121.874 127.382 120.678 127.382 119.146V113.105C127.382 112.953 127.252 112.815 127.092 112.815H118.811C118.445 112.815 118.445 113.387 118.811 113.387H127.092L126.803 113.097V118.027C126.803 119.337 126.94 120.586 126.201 121.729C125.172 123.314 123.352 124.342 121.691 125.142C119.169 126.361 116.442 127.161 113.722 127.809C106.172 129.599 98.3095 130.148 90.5614 130.056C83.1257 129.965 75.5605 129.287 68.3762 127.314C65.6183 126.559 62.8147 125.615 60.392 124.068C58.9292 123.139 57.2531 121.752 57.2227 119.863C57.2227 119.71 57.0932 119.573 56.9332 119.573H56.8417L57.1313 119.863V113.097L56.8417 113.387H63.5308C64.4222 113.387 65.1231 113.425 65.9688 113.143C67.8962 112.503 69.8695 111.993 71.8579 111.574C82.2115 109.387 93.1365 109.151 103.642 110.256C108.747 110.789 113.882 111.673 118.735 113.379C119.085 113.501 119.23 112.953 118.887 112.831Z" fill="#2B63A8"/>
<path d="M92.0167 123.329C111.389 123.329 127.092 118.633 127.092 112.839C127.092 107.045 111.389 102.348 92.0167 102.348C72.6449 102.348 56.9409 107.045 56.9409 112.839C56.9409 118.633 72.6449 123.329 92.0167 123.329Z" fill="#72531C"/>
<path d="M126.811 112.838C126.757 116.023 122.499 117.859 120.053 118.842C114.888 120.907 109.258 121.859 103.757 122.445C96.7937 123.184 89.7313 123.245 82.7527 122.674C76.9626 122.202 71.0811 121.333 65.5729 119.429C63.653 118.766 61.7331 117.966 60.0494 116.815C58.9295 116.054 57.741 115.033 57.3525 113.677C56.484 110.667 60.2399 108.564 62.434 107.521C67.2718 105.212 72.7724 104.191 78.052 103.506C84.9011 102.614 91.8568 102.432 98.744 102.835C104.801 103.186 110.918 103.963 116.747 105.708C118.857 106.34 120.96 107.102 122.88 108.184C124.19 108.923 125.561 109.852 126.331 111.185C126.628 111.696 126.795 112.252 126.811 112.846C126.811 113.212 127.39 113.212 127.382 112.846C127.329 109.646 123.565 107.742 121.059 106.652C115.825 104.382 110.035 103.384 104.397 102.744C96.9994 101.906 89.4875 101.845 82.0746 102.5C76.1322 103.026 70.0526 103.94 64.4377 106.058C61.7027 107.086 57.5048 108.793 56.743 112.016C56.0268 115.033 59.2419 117.189 61.5198 118.354C66.3271 120.83 71.881 121.905 77.1912 122.636C84.4821 123.649 91.9102 123.855 99.2545 123.39C105.502 123.002 111.856 122.171 117.828 120.244C119.908 119.573 121.996 118.758 123.855 117.592C125.089 116.815 126.346 115.825 126.994 114.484C127.245 113.966 127.374 113.417 127.382 112.846C127.382 112.48 126.818 112.48 126.811 112.846V112.838Z" fill="#2B63A8"/>
<path d="M100.954 61.0702C100.71 60.5902 100.23 60.1864 99.7805 59.9197C98.5691 59.1959 97.0681 59.2416 95.7424 59.5768C94.3252 59.935 93.0071 60.6207 91.7651 61.3902C91.4528 61.5807 91.7423 62.0759 92.0547 61.8855C94.1652 60.5826 98.0586 58.6244 100.184 60.9864C100.299 61.1159 100.367 61.1921 100.459 61.3674C100.626 61.695 101.122 61.4055 100.954 61.0778V61.0702Z" fill="#2B63A8"/>
<path d="M103.445 47.8369C103.185 47.3264 102.675 46.9074 102.187 46.6331C100.854 45.8865 99.2391 46.0236 97.8296 46.4503C96.2755 46.9226 94.8356 47.7454 93.4947 48.6444C93.1899 48.8501 93.4795 49.3453 93.7842 49.1396C95.6126 47.913 97.8068 46.6331 100.085 46.6712C101.045 46.6865 102.005 47.0064 102.66 47.7302C102.782 47.8597 102.858 47.9511 102.949 48.1264C103.117 48.454 103.612 48.1644 103.445 47.8369Z" fill="#2B63A8"/>
<path d="M102.424 81.1603C99.7494 79.9642 96.5268 80.7566 94.6983 83.0269C93.5784 84.4135 92.9308 86.1124 92.4966 87.8189C92.4051 88.177 92.9537 88.3294 93.0451 87.9713C93.6622 85.5334 94.7974 82.8745 97.1972 81.7241C98.4695 81.1146 99.9475 81.0613 101.304 81.3965C101.517 81.4498 101.73 81.5108 101.944 81.587C102.005 81.6098 102.065 81.6327 102.126 81.6555C102.073 81.6327 102.218 81.6936 102.126 81.6555C102.462 81.8079 102.751 81.3127 102.416 81.1603H102.424Z" fill="#2B63A8"/>
<path d="M84.6878 84.81C84.6878 84.81 84.6878 84.7871 84.6878 84.7795C84.6573 84.8938 84.6878 84.7947 84.6878 84.7566C84.7107 84.6423 84.7335 84.5281 84.7564 84.4214C84.8478 84.0709 84.9697 83.7433 85.1373 83.4309C85.6402 82.5014 86.4936 81.8842 87.5526 81.7471C88.6117 81.6099 89.5793 81.869 90.5241 82.1966C90.8746 82.3185 91.0194 81.7699 90.6765 81.648C89.1603 81.1147 87.3088 80.8099 85.8916 81.7547C85.0612 82.3033 84.5202 83.1795 84.2459 84.1319C84.1849 84.3528 84.1316 84.5814 84.1088 84.8176C84.0707 85.1833 84.6421 85.1833 84.6802 84.8176L84.6878 84.81Z" fill="#2B63A8"/>
<path d="M84.4056 76.5818C84.8933 76.6046 85.3504 76.696 85.838 76.8256C86.8285 77.0846 87.7733 77.5342 88.5048 78.258C88.7638 78.517 89.1752 78.1132 88.9086 77.8542C87.7505 76.7189 86.0133 76.0789 84.4056 76.0179C84.0399 76.0027 84.0399 76.5741 84.4056 76.5894V76.5818Z" fill="#2B63A8"/>
<path d="M83.7585 48.4081C84.5051 47.7682 85.6327 47.2654 86.6383 47.0216C89.2134 46.4045 91.6285 47.4787 93.4721 49.269C93.7388 49.5281 94.1426 49.1243 93.8759 48.8652C91.9332 46.9911 89.4115 45.8559 86.6916 46.4273C85.5031 46.6787 84.2766 47.212 83.3471 48.0044C83.0652 48.2405 83.4766 48.6443 83.7509 48.4081H83.7585Z" fill="#2B63A8"/>
<path d="M92.3148 43.8068C90.6462 41.0792 87.3928 40.0811 84.3375 40.203C84.048 40.2106 83.7585 40.2334 83.4765 40.2715C83.1108 40.3249 83.2708 40.8735 83.6289 40.8201C83.4842 40.843 83.7813 40.8049 83.8346 40.7973C84.0556 40.7744 84.2766 40.7668 84.4899 40.7592C85.2366 40.7439 85.9909 40.7896 86.7299 40.9116C88.7947 41.2697 90.6995 42.2602 91.8119 44.0888C92.0024 44.4011 92.4977 44.1116 92.3072 43.7992L92.3148 43.8068Z" fill="#2B63A8"/>
<path d="M67.6528 50.6178C67.6528 50.6178 81.8538 56.6745 84.1394 40.7442C84.1622 40.569 69.0851 36.2569 67.6528 50.6178Z" fill="#819B4B"/>
<path d="M67.508 50.8614C72.0944 52.8041 78.1587 52.5756 81.4652 48.4616C82.9965 46.5493 83.8193 44.1571 84.2536 41.7725C84.3526 41.2468 84.6497 40.6754 84.1012 40.4164C83.8498 40.2945 83.5374 40.2488 83.2631 40.1802C80.5814 39.5555 77.633 39.4946 74.9818 40.2716C73.0924 40.8278 71.3554 41.8639 70.0755 43.38C68.3689 45.4142 67.6223 48.0121 67.348 50.6176C67.3099 50.9833 67.8813 50.9833 67.9194 50.6176C68.3537 46.5112 70.2354 42.6639 74.2657 41.1173C76.8026 40.1421 79.6748 40.0964 82.3261 40.5764C82.7222 40.645 83.1108 40.7288 83.4993 40.8354C83.6212 40.8659 83.7355 40.9116 83.8574 40.9421C84.0174 40.9802 83.926 41.003 83.926 40.9421C83.9031 40.7135 83.766 41.1859 83.7812 41.1554C83.7126 41.323 83.7126 41.5592 83.6746 41.742C83.6136 42.0772 83.5374 42.4125 83.4612 42.7401C83.3165 43.3495 83.1413 43.9514 82.9356 44.5457C82.5699 45.5818 82.0899 46.5798 81.4728 47.494C79.5986 50.2367 76.5436 51.5166 73.2905 51.4709C71.9725 51.4557 70.6621 51.25 69.3974 50.9071C68.9936 50.8005 68.5975 50.6786 68.2013 50.5338C68.1099 50.5033 67.6604 50.3281 67.7899 50.3815C67.4547 50.2367 67.1652 50.7319 67.5004 50.8767L67.508 50.8614Z" fill="#2B63A8"/>
<path d="M82.6993 40.2334L73.3971 46.3358L72.0562 47.2196C71.7515 47.4177 72.0333 47.9129 72.3457 47.7148L81.6479 41.6124L82.9888 40.7286C83.2936 40.5305 83.0117 40.0353 82.6993 40.2334Z" fill="#2B63A8"/>
<path d="M63.4927 31.9445C63.4927 31.9445 67.4391 49.8253 84.3827 41.0487C84.5732 40.9497 78.3412 23.4346 63.4927 31.9445Z" fill="#819B4B"/>
<path d="M63.2184 32.0208C64.4526 37.5594 68.6352 43.0753 74.5776 43.6924C77.2594 43.9742 79.964 43.3038 82.4247 42.2753C82.7828 42.1229 83.1409 41.9706 83.4913 41.803C83.7428 41.6887 84.4056 41.483 84.5503 41.2697C84.6494 41.1249 84.657 41.0868 84.6494 40.9116C84.6494 40.6373 84.4513 40.2945 84.3522 40.0431C83.1561 37.0338 81.221 34.1539 78.6993 32.1046C76.8708 30.6266 74.7148 29.6209 72.3607 29.3771C69.1761 29.0495 66.0754 30.1466 63.3403 31.6855C63.0203 31.8684 63.3098 32.3636 63.6298 32.1807C67.98 29.72 73.0463 28.8971 77.3813 31.8227C80.1011 33.6587 82.1276 36.4852 83.4837 39.4412C83.6666 39.8374 83.8418 40.2412 83.9865 40.6602C84.0094 40.7364 84.1008 40.8964 84.0856 40.9725C84.0856 40.9954 84.1161 41.0411 84.1084 41.064C84.2151 40.8126 83.2856 41.262 83.2095 41.3001C80.7487 42.4505 78.0441 43.281 75.3014 43.1667C71.5226 43.0067 68.399 40.8202 66.3572 37.7347C65.1916 35.9748 64.2393 33.933 63.7746 31.8608C63.6984 31.5027 63.1422 31.6551 63.226 32.0131L63.2184 32.0208Z" fill="#2B63A8"/>
<path d="M83.6287 40.2716L71.3552 35.4338L69.5801 34.7329C69.2373 34.5958 69.0925 35.1519 69.4277 35.2814L81.7012 40.1192L83.4763 40.8201C83.8192 40.9572 83.9639 40.4011 83.6287 40.2716Z" fill="#2B63A8"/>
<path d="M121.356 58.4269C121.356 58.4269 104.519 65.6111 101.807 46.7248C101.776 46.5115 119.649 41.407 121.356 58.4269Z" fill="#819B4B"/>
<path d="M121.211 58.1751C121.341 58.1218 120.906 58.2894 120.83 58.3199C120.449 58.457 120.061 58.5789 119.672 58.6932C118.4 59.0589 117.089 59.3179 115.764 59.4169C112.16 59.6988 108.503 58.7846 105.974 56.0648C104.168 54.122 103.132 51.5851 102.53 49.0329C102.439 48.6519 102.355 48.2634 102.287 47.8748C102.256 47.692 102.218 47.5168 102.188 47.3339C102.172 47.2501 102.035 46.7854 102.012 46.9073C102.012 46.9301 101.982 46.9606 102.104 46.892C102.386 46.7244 102.843 46.6787 103.163 46.6102C106.103 45.955 109.303 45.8864 112.221 46.6863C114.354 47.273 116.32 48.3777 117.806 50.0385C119.863 52.3393 120.746 55.4096 121.066 58.4189C121.104 58.7846 121.676 58.7846 121.638 58.4189C121.112 53.444 118.903 48.7586 114.088 46.7244C110.842 45.3531 107.109 45.2921 103.681 45.9245C103.193 46.0159 101.974 46.0845 101.609 46.5035C101.342 46.8159 101.647 47.5396 101.715 47.8901C101.883 48.8119 102.096 49.7185 102.37 50.6099C102.774 51.9279 103.307 53.2078 104.016 54.3887C106.195 57.9999 109.905 59.9426 114.08 60.034C116.564 60.0874 119.207 59.6302 121.501 58.6551C121.836 58.5103 121.546 58.0227 121.211 58.1599V58.1751Z" fill="#2B63A8"/>
<path d="M103.193 46.6558L114.225 53.8858L115.817 54.9295C116.122 55.1352 116.411 54.64 116.106 54.4343L105.075 47.2043L103.482 46.1606C103.178 45.9549 102.888 46.4501 103.193 46.6558Z" fill="#2B63A8"/>
<path d="M119.253 39.5098C119.253 39.5098 115.977 54.3508 101.921 47.0598C101.761 46.976 106.941 32.4398 119.253 39.5098Z" fill="#819B4B"/>
<path d="M118.979 39.4336C118.072 43.5172 115.124 47.7531 110.827 48.6216C108.854 49.0177 106.804 48.6901 104.922 48.0502C104.305 47.8445 103.703 47.6007 103.117 47.3264C102.98 47.2655 102.286 47.0217 102.256 46.9912C102.187 46.915 102.233 47.1969 102.218 47.0293C102.195 46.8388 102.401 46.496 102.469 46.3284C103.406 44.0047 104.9 41.7954 106.819 40.1726C108.252 38.9613 109.996 38.1156 111.871 37.9099C114.43 37.6356 116.922 38.5118 119.123 39.7536C119.443 39.9364 119.733 39.4412 119.413 39.2584C115.695 37.1557 111.33 36.4395 107.597 38.8851C105.151 40.485 103.323 43.0067 102.142 45.658C101.966 46.0465 101.471 46.8388 101.73 47.2655C101.951 47.6312 103.041 47.9207 103.437 48.0883C104.077 48.3626 104.74 48.6063 105.41 48.7968C106.431 49.0939 107.482 49.2996 108.541 49.3453C111.97 49.5053 114.956 47.8521 116.96 45.1323C118.148 43.5172 119.101 41.5516 119.535 39.586C119.611 39.2279 119.062 39.0755 118.986 39.4336H118.979Z" fill="#2B63A8"/>
<path d="M102.683 46.9225L112.869 42.9075L114.339 42.3285C114.674 42.199 114.529 41.6428 114.187 41.7799L104.001 45.7949L102.53 46.3739C102.195 46.5034 102.34 47.0596 102.683 46.9225Z" fill="#2B63A8"/>
<path d="M121.356 92.4739C121.356 92.4739 104.519 99.6582 101.807 80.7718C101.776 80.5585 119.649 75.4541 121.356 92.4739Z" fill="#819B4B"/>
<path d="M121.211 92.2223C121.341 92.169 120.906 92.3366 120.83 92.367C120.449 92.5042 120.061 92.6261 119.672 92.7403C118.4 93.106 117.089 93.3651 115.764 93.4641C112.16 93.746 108.503 92.8318 105.974 90.1119C104.168 88.1692 103.132 85.6322 102.53 83.08C102.439 82.6991 102.355 82.3106 102.287 81.922C102.256 81.7392 102.218 81.5639 102.188 81.3811C102.172 81.2973 102.035 80.8326 102.012 80.9545C102.012 80.9773 101.982 81.0078 102.104 80.9392C102.386 80.7716 102.843 80.7259 103.163 80.6573C106.103 80.0021 109.303 79.9336 112.221 80.7335C114.354 81.3201 116.32 82.4248 117.806 84.0857C119.863 86.3865 120.746 89.4567 121.066 92.4661C121.104 92.8318 121.676 92.8318 121.638 92.4661C121.112 87.4912 118.903 82.8058 114.088 80.7716C110.842 79.4003 107.109 79.3393 103.681 79.9717C103.193 80.0631 101.974 80.1317 101.609 80.5507C101.342 80.863 101.647 81.5868 101.715 81.9372C101.883 82.8591 102.096 83.7657 102.37 84.6571C102.774 85.9751 103.307 87.255 104.016 88.4359C106.195 92.0471 109.905 93.9898 114.08 94.0812C116.564 94.1345 119.207 93.6774 121.501 92.7023C121.836 92.5575 121.546 92.0699 121.211 92.207V92.2223Z" fill="#2B63A8"/>
<path d="M103.193 80.7034L114.225 87.9334L115.817 88.9771C116.122 89.1829 116.411 88.6876 116.106 88.4819L105.075 81.2519L103.482 80.2082C103.178 80.0025 102.888 80.4977 103.193 80.7034Z" fill="#2B63A8"/>
<path d="M120 73.2525C120 73.2525 116.579 88.7486 101.898 81.1376C101.731 81.0538 107.14 65.8701 120 73.2525Z" fill="#819B4B"/>
<path d="M119.726 73.1763C118.773 77.4503 115.696 81.8766 111.208 82.7756C109.144 83.187 107.003 82.8518 105.037 82.1814C104.397 81.9604 103.765 81.709 103.148 81.4271C103.003 81.3662 102.279 81.1148 102.241 81.0691C102.165 80.9853 102.218 81.2748 102.195 81.0995C102.165 80.9091 102.386 80.5358 102.455 80.3682C103.43 77.9455 104.999 75.6294 106.995 73.9381C108.496 72.6734 110.317 71.7821 112.282 71.5687C114.964 71.2792 117.562 72.1935 119.863 73.4962C120.183 73.6791 120.472 73.1839 120.152 73.001C116.275 70.8069 111.719 70.0527 107.826 72.6125C105.273 74.2809 103.361 76.917 102.135 79.6749C101.952 80.0787 101.441 80.8938 101.708 81.3357C101.929 81.709 103.079 82.0138 103.491 82.189C104.161 82.4709 104.847 82.7223 105.548 82.9356C106.607 83.248 107.711 83.4537 108.816 83.507C112.389 83.6746 115.505 81.9528 117.593 79.1111C118.834 77.4274 119.825 75.378 120.282 73.321C120.358 72.9629 119.81 72.8106 119.733 73.1686L119.726 73.1763Z" fill="#2B63A8"/>
<path d="M102.69 80.9852L113.325 76.795L114.864 76.1931C115.2 76.0636 115.055 75.5074 114.712 75.6446L104.077 79.8348L102.538 80.4366C102.202 80.5661 102.347 81.1223 102.69 80.9852Z" fill="#2B63A8"/>
<path d="M100.915 16.0679C100.915 16.0679 82.9432 19.542 91.2779 36.7142C91.3693 36.9046 109.044 31.1298 100.915 16.0679Z" fill="#819B4B"/>
<path d="M100.839 15.7934C95.2774 16.8752 89.6473 20.9283 88.8854 26.8403C88.5426 29.5296 89.1369 32.2495 90.1044 34.7483C90.2415 35.1064 90.3939 35.4645 90.5463 35.8149C90.6529 36.0664 90.8434 36.7368 91.0491 36.8815C91.2015 36.9882 91.2396 36.9882 91.4148 36.9806C91.6814 36.9806 92.0167 36.8054 92.2605 36.7139C95.3003 35.6016 98.2334 33.7351 100.351 31.2743C101.883 29.4916 102.942 27.3507 103.246 25.0042C103.65 21.8273 102.645 18.6961 101.167 15.9153C100.991 15.5877 100.504 15.8772 100.671 16.2048C103.01 20.6007 103.696 25.667 100.694 29.9182C98.7972 32.6075 95.8945 34.5731 92.9004 35.853C92.4966 36.0206 92.0928 36.1883 91.6738 36.3178C91.5976 36.3406 91.4224 36.432 91.3386 36.4168C91.2777 36.4016 91.2853 36.4168 91.3081 36.4244C91.4072 36.4854 91.1101 35.6702 91.0491 35.5254C89.9673 33.057 89.213 30.3524 89.3806 27.6326C89.6168 23.8157 91.91 20.715 95.0869 18.7342C96.8697 17.6219 98.9191 16.7381 100.991 16.3343C101.349 16.2658 101.197 15.7096 100.839 15.7858V15.7934Z" fill="#2B63A8"/>
<path d="M92.0395 36.0436L97.1972 23.8844L97.9362 22.1474C98.081 21.8122 97.5858 21.5227 97.441 21.8579L92.2833 34.0171L91.5443 35.7541C91.3995 36.0893 91.8947 36.3788 92.0395 36.0436Z" fill="#2B63A8"/>
<path d="M61.7026 77.0234C61.7026 77.0234 73.0009 91.4301 84.4668 76.1778C84.5964 76.0102 71.3858 62.9215 61.7026 77.0234Z" fill="#819B4B"/>
<path d="M61.5045 77.229C65.2985 82.0439 72.0181 85.137 77.892 82.3486C79.1186 81.762 80.2461 80.9773 81.2746 80.0935C82.4479 79.0803 83.8268 77.8232 84.6039 76.4747C84.962 75.8576 84.1087 75.3548 83.6668 74.9663C81.1984 72.8178 78.1586 71.096 74.9284 70.4561C72.6809 70.0142 70.3496 70.1514 68.2164 71.0122C65.3671 72.1626 63.1882 74.3949 61.4512 76.8785C61.2378 77.1833 61.733 77.4652 61.9464 77.168C64.6967 73.2292 68.7116 70.3037 73.7018 70.8446C76.9244 71.1951 79.9795 72.7721 82.5088 74.7529C82.8974 75.0577 83.2783 75.3777 83.6363 75.7129C83.743 75.8119 84.1849 76.1471 84.1925 76.2767C84.1925 76.2767 83.263 77.2366 83.1259 77.3966C82.5926 78.0213 82.0288 78.6156 81.427 79.1793C80.4366 80.1088 79.3395 80.9392 78.1434 81.5792C74.5703 83.4914 70.5553 83.1486 67.0889 81.1906C65.1461 80.0936 63.2948 78.5851 61.9006 76.8252C61.6721 76.5357 61.2683 76.9471 61.4969 77.229H61.5045Z" fill="#2B63A8"/>
<path d="M83.5145 75.8044L70.3573 76.7644L68.4603 76.9015C68.0946 76.9244 68.0946 77.5034 68.4603 77.4729L81.6175 76.513L83.5145 76.3758C83.8802 76.353 83.8802 75.774 83.5145 75.8044Z" fill="#2B63A8"/>
<path d="M83.0805 64.7879C87.6584 64.7879 91.3695 61.0768 91.3695 56.4989C91.3695 51.9211 87.6584 48.21 83.0805 48.21C78.5026 48.21 74.7915 51.9211 74.7915 56.4989C74.7915 61.0768 78.5026 64.7879 83.0805 64.7879Z" fill="#2B63A8"/>
<path d="M90.8437 54.5487C91.6132 57.7866 90.3638 61.2378 87.583 63.1272C84.8403 64.9861 81.1453 64.948 78.4407 63.0281C75.7362 61.1083 74.4486 57.5047 75.3933 54.2744C76.338 51.0442 79.3245 48.6596 82.7148 48.5072C86.5164 48.332 89.8762 50.907 90.8437 54.5487C90.9352 54.9068 91.4913 54.7544 91.3923 54.3963C90.478 50.9604 87.5678 48.3777 84.0175 47.9739C80.4673 47.5701 76.8485 49.5738 75.3171 52.8574C73.7858 56.141 74.4867 60.0569 77.0389 62.5863C79.5912 65.1156 83.4995 65.7708 86.7373 64.2623C90.4476 62.5329 92.337 58.3351 91.3999 54.3963C91.3161 54.0383 90.7599 54.1906 90.8514 54.5487H90.8437Z" fill="#2B63A8"/>
<path d="M84.0248 64.2625C88.6027 64.2625 92.3138 60.5514 92.3138 55.9735C92.3138 51.3956 88.6027 47.6845 84.0248 47.6845C79.4469 47.6845 75.7358 51.3956 75.7358 55.9735C75.7358 60.5514 79.4469 64.2625 84.0248 64.2625Z" fill="#FCBC00"/>
<path d="M91.7881 54.0231C92.5576 57.261 91.3081 60.7122 88.5273 62.6016C85.7847 64.4605 82.0897 64.4224 79.3851 62.5026C76.6805 60.5827 75.393 56.9791 76.3377 53.7489C77.2824 50.5186 80.2688 48.134 83.6591 47.9816C87.4607 47.8064 90.8205 50.3815 91.7881 54.0231C91.8795 54.3812 92.4356 54.2288 92.3366 53.8708C91.4224 50.4348 88.5121 47.8521 84.9619 47.4483C81.4116 47.0445 77.7928 49.0482 76.2615 52.3318C74.7302 55.6154 75.4311 59.5313 77.9833 62.0607C80.5355 64.59 84.4438 65.2452 87.6817 63.7368C91.3919 62.0074 93.2813 57.8095 92.3442 53.8708C92.2604 53.5127 91.7043 53.6651 91.7957 54.0231H91.7881Z" fill="#2B63A8"/>
<path d="M83.1718 101.387C87.7497 101.387 91.4608 97.6764 91.4608 93.0985C91.4608 88.5206 87.7497 84.8095 83.1718 84.8095C78.5939 84.8095 74.8828 88.5206 74.8828 93.0985C74.8828 97.6764 78.5939 101.387 83.1718 101.387Z" fill="#2B63A8"/>
<path d="M91.0186 94.6909C90.3101 97.9211 87.7502 100.466 84.4514 101.007C81.1526 101.548 77.709 99.8486 76.1091 96.8774C74.5092 93.9062 74.9892 90.1807 77.2443 87.7123C79.4994 85.2439 83.0039 84.4516 86.0742 85.64C89.693 87.0342 91.7347 90.9197 91.0186 94.6909C90.95 95.049 91.4986 95.2013 91.5671 94.8432C92.2299 91.3692 90.7824 87.7885 87.7807 85.8686C84.779 83.9487 80.7031 84.1392 77.8766 86.3562C75.0501 88.5732 73.8693 92.4891 75.0654 95.9098C76.2615 99.3306 79.4232 101.593 82.981 101.677C87.1027 101.776 90.691 98.8354 91.5671 94.8432C91.6433 94.4852 91.0948 94.3328 91.0186 94.6909Z" fill="#2B63A8"/>
<path d="M82.2572 100.344C86.8351 100.344 90.5462 96.6327 90.5462 92.0548C90.5462 87.4769 86.8351 83.7658 82.2572 83.7658C77.6794 83.7658 73.9683 87.4769 73.9683 92.0548C73.9683 96.6327 77.6794 100.344 82.2572 100.344Z" fill="#FCBC00"/>
<path d="M90.1045 93.647C89.396 96.8773 86.8362 99.4218 83.5373 99.9628C80.1928 100.511 76.7949 98.8048 75.195 95.8335C73.5951 92.8623 74.0751 89.1368 76.3302 86.6684C78.5853 84.2 82.0898 83.4077 85.1601 84.5962C88.7789 85.9904 90.8207 89.8758 90.1045 93.647C90.036 94.0051 90.5845 94.1574 90.6531 93.7994C91.3159 90.3253 89.8684 86.7446 86.8666 84.8247C83.8649 82.9048 79.789 83.0953 76.9625 85.3123C74.1361 87.5293 72.9552 91.4452 74.1513 94.866C75.3474 98.2867 78.5091 100.549 82.067 100.633C86.1886 100.732 89.7769 97.7915 90.6531 93.7994C90.7292 93.4413 90.1807 93.2889 90.1045 93.647Z" fill="#2B63A8"/>
<path d="M103.064 73.3894C106.926 73.3894 110.057 70.2581 110.057 66.3956C110.057 62.533 106.926 59.4017 103.064 59.4017C99.2011 59.4017 96.0698 62.533 96.0698 66.3956C96.0698 70.2581 99.2011 73.3894 103.064 73.3894Z" fill="#2B63A8"/>
<path d="M109.57 68.0258C108.854 70.7151 106.568 72.7798 103.772 73.0693C100.976 73.3588 98.2944 71.8579 97.0525 69.3666C95.8107 66.8754 96.2983 63.7061 98.2715 61.6948C100.245 59.6835 103.399 59.1045 105.959 60.3387C108.831 61.7176 110.301 64.9479 109.57 68.0258C109.486 68.3839 110.035 68.5362 110.118 68.1782C110.819 65.2374 109.692 62.1367 107.193 60.4072C104.694 58.6778 101.189 58.7159 98.7286 60.5444C96.2678 62.3728 95.2012 65.5955 96.0926 68.5058C96.984 71.416 99.6352 73.4883 102.66 73.6635C106.126 73.8616 109.235 71.4922 110.118 68.1782C110.21 67.8201 109.661 67.6677 109.57 68.0258Z" fill="#2B63A8"/>
<path d="M102.02 73.496C105.883 73.496 109.014 70.3648 109.014 66.5022C109.014 62.6396 105.883 59.5084 102.02 59.5084C98.1576 59.5084 95.0264 62.6396 95.0264 66.5022C95.0264 70.3648 98.1576 73.496 102.02 73.496Z" fill="#FCBC00"/>
<path d="M108.526 68.1325C107.81 70.8219 105.525 72.8865 102.729 73.176C99.9326 73.4655 97.2509 71.9647 96.0091 69.4734C94.7673 66.9821 95.2548 63.8128 97.228 61.8015C99.2165 59.775 102.355 59.2112 104.915 60.4454C107.787 61.8244 109.258 65.0546 108.526 68.1325C108.443 68.4906 108.991 68.643 109.075 68.2849C109.776 65.3442 108.648 62.2434 106.149 60.514C103.65 58.7846 100.146 58.8227 97.6852 60.6511C95.2244 62.4796 94.1578 65.7022 95.0491 68.6125C95.9405 71.5228 98.5918 73.595 101.616 73.7703C105.083 73.9683 108.191 71.599 109.075 68.2849C109.166 67.9268 108.618 67.7745 108.526 68.1325Z" fill="#2B63A8"/>
<path d="M92.0168 112.122C78.0825 112.122 66.6166 115.276 65.1538 119.322C71.5915 121.615 81.2366 123.07 92.0168 123.07C102.797 123.07 112.45 121.615 118.88 119.322C117.417 115.269 105.951 112.122 92.0168 112.122Z" fill="#3C2415"/>
<path d="M93.2051 123.207V95.9098C93.2051 91.4987 93.586 86.9809 91.7804 82.8364C90.691 80.3451 89.1749 78.1129 88.3369 75.4997C87.7655 73.7246 87.4226 71.8581 87.5293 69.9839C87.6283 68.3154 88.1083 66.6775 88.9692 65.2452C89.9749 63.5691 91.4376 62.3044 92.7937 60.9255C94.1498 59.5465 95.3078 57.9542 95.6583 55.981C95.9326 54.4192 95.7345 52.9184 95.1783 51.4404C94.485 49.6119 93.6394 47.8673 93.0756 45.9855C92.1918 43.06 91.7195 40.0202 91.5595 36.9728C91.5367 36.6071 90.9653 36.6071 90.9881 36.9728C91.2319 41.5591 92.2376 45.9626 94.0432 50.1833C94.5993 51.4785 95.1631 52.7812 95.2164 54.2135C95.2926 56.2096 94.5688 58.0456 93.2889 59.5541C92.108 60.9483 90.6681 62.0835 89.5177 63.5005C88.4359 64.8261 87.636 66.3499 87.2474 68.0107C86.4398 71.4695 87.3693 75.0502 88.7864 78.2195C89.952 80.8175 91.5671 83.1259 92.2299 85.9447C92.5271 87.2247 92.649 88.5198 92.649 89.8226C92.649 91.2777 92.649 92.7329 92.649 94.188V123.215C92.649 123.58 93.2204 123.58 93.2204 123.215L93.2051 123.207Z" fill="#2B63A8"/>
<path d="M81.1374 91.88L83.1337 96.4287C83.0956 96.4668 83.0651 96.4439 83.0346 96.4287C82.6689 96.3296 82.3108 96.2306 81.9451 96.1391C81.8689 96.1163 81.8232 96.0782 81.7927 96.0096C81.1755 94.5848 80.5508 93.1677 79.926 91.7505C79.8955 91.6819 79.8879 91.6133 79.9108 91.5371C79.9565 91.3924 80.0022 91.2476 80.025 91.0952C80.0479 90.9581 80.1012 90.92 80.2384 90.9657C80.5355 91.0571 80.8403 91.141 81.1451 91.1943C81.526 91.2629 81.9146 91.2629 82.2879 91.1333C82.6613 91.0038 82.9432 90.76 83.1108 90.3943C83.1641 90.2876 83.1489 90.2419 83.0194 90.2038C82.1508 89.9752 81.2822 89.739 80.4212 89.5104L80.1698 89.4419C80.4136 89.2285 80.6346 89.0304 80.8555 88.84C80.9089 88.7942 80.9622 88.84 81.0079 88.84C81.7089 89.0228 82.4098 89.2133 83.1108 89.4038C83.1565 89.419 83.2099 89.4571 83.248 89.419C83.2784 89.3809 83.248 89.3276 83.2327 89.2819C83.0956 88.8171 82.7451 88.5657 82.3337 88.3904C81.8384 88.1771 81.3127 88.0628 80.7946 87.9257C80.7412 87.9104 80.6879 87.8952 80.5965 87.8723C80.8403 87.659 81.0613 87.4609 81.2822 87.2704C81.3203 87.2399 81.3584 87.2552 81.3889 87.2704C83.027 87.7047 84.6575 88.1466 86.288 88.5809C86.3033 88.6419 86.2575 88.6495 86.2347 88.6723C86.0671 88.8247 85.8842 88.9695 85.7242 89.1295C85.648 89.2057 85.5794 89.2133 85.4804 89.1828C85.0994 89.0762 84.7108 88.9771 84.2994 88.8628C84.3375 88.9847 84.3756 89.0914 84.4061 89.2057C84.4442 89.3504 84.467 89.5028 84.4518 89.6552C84.4518 89.7543 84.4823 89.7847 84.5737 89.8076C85.008 89.9143 85.4423 90.0362 85.9071 90.1657C85.7547 90.3028 85.6099 90.4019 85.4956 90.539C85.2975 90.7676 85.0842 90.8209 84.8099 90.699C84.6651 90.6381 84.5127 90.6152 84.3604 90.5695C84.2918 90.5543 84.2537 90.5543 84.2232 90.6228C83.8499 91.3924 83.1946 91.7657 82.3718 91.8876C82.006 91.941 81.6403 91.9333 81.2822 91.8648C81.2517 91.8648 81.2136 91.8572 81.1832 91.8495C81.1755 91.8495 81.1679 91.8495 81.1451 91.8648L81.1374 91.88Z" fill="white"/>
<path d="M83.3623 56.8424L87.4767 59.631C87.469 59.6843 87.4233 59.6767 87.3929 59.6843C87.0348 59.7986 86.6767 59.9053 86.3186 60.0196C86.2424 60.0424 86.1814 60.0348 86.1128 59.9891C84.8328 59.1205 83.5452 58.2443 82.2651 57.3757C82.1966 57.33 82.1585 57.2843 82.1432 57.2081C82.1051 57.0633 82.067 56.9186 82.0061 56.7738C81.9528 56.6443 81.9756 56.5909 82.1204 56.5528C82.4175 56.469 82.7223 56.3852 83.0118 56.2633C83.3699 56.1109 83.6975 55.9128 83.949 55.6081C84.2004 55.2957 84.3071 54.9452 84.2537 54.5414C84.2385 54.4195 84.208 54.389 84.0785 54.4271C83.2252 54.7014 82.3642 54.9604 81.5108 55.2271L81.2594 55.3033C81.3508 54.9909 81.4346 54.709 81.5185 54.4271C81.5413 54.3661 81.6023 54.3661 81.648 54.3509C82.3413 54.1376 83.0347 53.9242 83.728 53.7033C83.7737 53.688 83.8423 53.7033 83.8499 53.6423C83.8499 53.5966 83.7966 53.5661 83.7585 53.5356C83.3928 53.2156 82.9661 53.1928 82.5166 53.2614C81.9832 53.3452 81.4804 53.528 80.9623 53.6804C80.9089 53.6957 80.8556 53.7109 80.7642 53.7414C80.8556 53.429 80.9394 53.1471 81.0232 52.8652C81.0384 52.8194 81.0765 52.8118 81.1146 52.8042C82.7299 52.3013 84.3452 51.8061 85.9604 51.3032C86.0062 51.3413 85.9757 51.3794 85.9604 51.4099C85.8995 51.6308 85.8233 51.8518 85.77 52.0728C85.7471 52.1794 85.6938 52.2251 85.5871 52.248C85.2061 52.3623 84.8252 52.4842 84.4214 52.6061C84.5204 52.6899 84.6119 52.7585 84.688 52.8347C84.8023 52.9414 84.8938 53.0556 84.97 53.1852C85.0157 53.269 85.069 53.2766 85.1604 53.2537C85.5871 53.1166 86.0138 52.9871 86.4786 52.8423C86.4252 53.0404 86.349 53.2004 86.3262 53.3756C86.2805 53.6728 86.1281 53.8328 85.8309 53.8785C85.6785 53.9014 85.5338 53.9699 85.3814 54.008C85.3128 54.0233 85.29 54.0537 85.2976 54.1299C85.389 54.9833 85.0309 55.6462 84.4061 56.1871C84.1242 56.4309 83.8118 56.6138 83.469 56.7509C83.4385 56.7662 83.408 56.7814 83.3775 56.7967C83.3775 56.7967 83.3699 56.8119 83.3547 56.8271L83.3623 56.8424Z" fill="white"/>
<path d="M101.152 66.7921L103.148 71.3407C103.11 71.3788 103.079 71.356 103.049 71.3407C102.683 71.2417 102.325 71.1426 101.959 71.0512C101.883 71.0283 101.837 70.9902 101.807 70.9217C101.19 69.4969 100.565 68.0797 99.9401 66.6625C99.9097 66.594 99.9021 66.5254 99.9249 66.4492C99.9706 66.3044 100.016 66.1597 100.039 66.0073C100.062 65.8701 100.115 65.832 100.253 65.8778C100.55 65.9692 100.854 66.053 101.159 66.1063C101.54 66.1749 101.929 66.1749 102.302 66.0454C102.675 65.9159 102.957 65.672 103.125 65.3063C103.178 65.1997 103.163 65.1539 103.034 65.1158C102.165 64.8873 101.296 64.6511 100.435 64.4225L100.184 64.3539C100.428 64.1406 100.649 63.9425 100.87 63.752C100.923 63.7063 100.976 63.752 101.022 63.752C101.723 63.9349 102.424 64.1253 103.125 64.3158C103.171 64.3311 103.224 64.3692 103.262 64.3311C103.293 64.293 103.262 64.2396 103.247 64.1939C103.11 63.7291 102.759 63.4777 102.348 63.3025C101.853 63.0891 101.327 62.9748 100.809 62.8377C100.755 62.8225 100.702 62.8072 100.611 62.7844C100.854 62.571 101.075 62.3729 101.296 62.1825C101.334 62.152 101.373 62.1672 101.403 62.1825C103.041 62.6167 104.672 63.0587 106.302 63.493C106.317 63.5539 106.272 63.5615 106.249 63.5844C106.081 63.7368 105.898 63.8815 105.738 64.0415C105.662 64.1177 105.594 64.1253 105.495 64.0949C105.114 63.9882 104.725 63.8892 104.314 63.7749C104.352 63.8968 104.39 64.0034 104.42 64.1177C104.458 64.2625 104.481 64.4149 104.466 64.5673C104.466 64.6663 104.496 64.6968 104.588 64.7196C105.022 64.8263 105.456 64.9482 105.921 65.0777C105.769 65.2149 105.624 65.3139 105.51 65.4511C105.312 65.6797 105.098 65.733 104.824 65.6111C104.679 65.5501 104.527 65.5273 104.375 65.4816C104.306 65.4663 104.268 65.4663 104.237 65.5349C103.864 66.3044 103.209 66.6778 102.386 66.7997C102.02 66.853 101.654 66.8454 101.296 66.7768C101.266 66.7768 101.228 66.7692 101.197 66.7616C101.19 66.7616 101.182 66.7616 101.159 66.7768L101.152 66.7921Z" fill="white"/>
<path d="M150.207 185.839C162.737 185.839 172.895 183.99 172.895 181.71C172.895 179.429 162.737 177.581 150.207 177.581C137.677 177.581 127.519 179.429 127.519 181.71C127.519 183.99 137.677 185.839 150.207 185.839Z" fill="#273738"/>
<path d="M155.266 182.601C163.227 182.601 169.68 176.148 169.68 168.187C169.68 160.226 163.227 153.772 155.266 153.772C147.305 153.772 140.852 160.226 140.852 168.187C140.852 176.148 147.305 182.601 155.266 182.601Z" fill="#BF8B0A"/>
<path d="M168.812 164.149C170.442 169.802 168.453 176.026 163.692 179.546C158.93 183.066 152.394 183.218 147.48 179.98C142.566 176.742 140.097 170.442 141.583 164.682C143.069 158.923 148.112 154.633 154.024 154.108C160.675 153.521 166.861 157.803 168.812 164.149C168.918 164.499 169.474 164.347 169.36 163.997C167.562 158.161 162.336 153.917 156.218 153.514C150.1 153.11 144.082 156.812 141.697 162.549C139.351 168.187 140.821 174.906 145.339 179.036C149.857 183.165 156.668 184.056 162.115 181.207C168.301 177.969 171.28 170.663 169.36 164.004C169.261 163.654 168.705 163.799 168.812 164.157V164.149Z" fill="#2B63A8"/>
<path d="M153.003 181.748C160.964 181.748 167.417 175.295 167.417 167.334C167.417 159.373 160.964 152.92 153.003 152.92C145.042 152.92 138.589 159.373 138.589 167.334C138.589 175.295 145.042 181.748 153.003 181.748Z" fill="#FCBC00"/>
<path d="M166.549 163.296C168.18 168.949 166.191 175.173 161.43 178.693C156.668 182.213 150.131 182.365 145.217 179.127C140.25 175.851 137.835 169.589 139.32 163.829C140.806 158.07 145.85 153.78 151.762 153.255C158.413 152.668 164.599 156.95 166.549 163.296C166.656 163.646 167.212 163.494 167.098 163.144C165.3 157.308 160.073 153.064 153.956 152.66C147.747 152.249 141.819 155.959 139.435 161.696C137.05 167.433 138.559 174.053 143.076 178.183C147.594 182.312 154.405 183.203 159.852 180.354C166.039 177.116 169.018 169.81 167.098 163.151C166.999 162.801 166.443 162.945 166.549 163.304V163.296Z" fill="#2B63A8"/>
<path d="M151.152 167.989L157.94 173.322C157.917 173.413 157.849 173.398 157.795 173.413C157.163 173.566 156.523 173.71 155.891 173.863C155.753 173.893 155.654 173.878 155.54 173.786C153.422 172.118 151.304 170.45 149.179 168.789C149.072 168.705 149.011 168.613 148.981 168.476C148.927 168.217 148.881 167.958 148.798 167.707C148.721 167.478 148.775 167.379 149.019 167.334C149.552 167.227 150.085 167.113 150.596 166.937C151.236 166.724 151.83 166.419 152.295 165.909C152.767 165.398 152.988 164.797 152.95 164.096C152.935 163.882 152.881 163.821 152.66 163.875C151.144 164.24 149.62 164.591 148.104 164.949C147.975 164.979 147.845 165.01 147.663 165.056C147.861 164.522 148.036 164.042 148.219 163.562C148.257 163.456 148.371 163.463 148.455 163.448C149.681 163.159 150.916 162.869 152.142 162.58C152.218 162.564 152.34 162.58 152.356 162.488C152.371 162.404 152.272 162.351 152.218 162.29C151.632 161.696 150.885 161.597 150.1 161.658C149.163 161.734 148.264 162.001 147.358 162.206C147.259 162.229 147.167 162.252 147.007 162.29C147.205 161.764 147.381 161.284 147.563 160.804C147.594 160.728 147.663 160.721 147.723 160.705C150.588 160.035 153.453 159.365 156.317 158.694C156.386 158.77 156.325 158.831 156.31 158.885C156.172 159.258 156.02 159.631 155.898 160.005C155.837 160.18 155.738 160.256 155.563 160.294C154.885 160.439 154.207 160.606 153.498 160.774C153.658 160.934 153.803 161.064 153.94 161.208C154.123 161.399 154.275 161.612 154.382 161.856C154.451 162.008 154.534 162.031 154.694 161.993C155.449 161.803 156.211 161.635 157.033 161.444C156.911 161.772 156.767 162.054 156.706 162.351C156.591 162.861 156.31 163.121 155.784 163.166C155.517 163.189 155.258 163.288 154.992 163.341C154.877 163.364 154.824 163.402 154.824 163.54C154.885 165.033 154.184 166.13 153.034 166.998C152.523 167.387 151.952 167.669 151.342 167.867C151.289 167.882 151.228 167.905 151.175 167.928C151.159 167.928 151.152 167.951 151.129 167.981L151.152 167.989Z" fill="white"/>
<path d="M140.928 186.731C150.727 186.731 158.671 183.153 158.671 178.739C158.671 174.325 150.727 170.747 140.928 170.747C131.128 170.747 123.184 174.325 123.184 178.739C123.184 183.153 131.128 186.731 140.928 186.731Z" fill="#BF8B0A"/>
<path d="M158.389 178.739C158.344 180.834 156.584 182.342 154.915 183.325C152.447 184.788 149.582 185.55 146.771 185.999C140.577 186.99 133.317 186.67 127.649 183.721C125.934 182.83 123.961 181.459 123.535 179.432C123.108 177.406 124.647 175.691 126.193 174.625C128.456 173.063 131.191 172.225 133.865 171.699C137.233 171.036 140.714 170.884 144.128 171.166C147.541 171.448 151.038 172.141 154.093 173.703C156.035 174.693 158.328 176.324 158.382 178.739C158.389 179.104 158.961 179.104 158.953 178.739C158.907 176.667 157.391 175.097 155.761 174.008C153.239 172.332 150.177 171.471 147.228 170.975C143.495 170.351 139.655 170.29 135.907 170.785C132.791 171.196 129.599 171.973 126.849 173.543C125.119 174.533 123.268 176.034 122.948 178.122C122.643 180.087 123.877 181.779 125.348 182.929C127.611 184.704 130.498 185.649 133.279 186.243C136.989 187.035 140.852 187.203 144.63 186.845C148.188 186.502 151.876 185.725 155.007 183.935C156.934 182.838 158.907 181.123 158.961 178.739C158.968 178.373 158.397 178.373 158.389 178.739Z" fill="#2B63A8"/>
<path d="M140.928 184.026C150.727 184.026 158.671 180.448 158.671 176.034C158.671 171.621 150.727 168.043 140.928 168.043C131.128 168.043 123.184 171.621 123.184 176.034C123.184 180.448 131.128 184.026 140.928 184.026Z" fill="#FCBC00"/>
<path d="M158.389 176.034C158.344 178.129 156.584 179.638 154.915 180.621C152.447 182.083 149.582 182.845 146.771 183.295C140.577 184.285 133.317 183.965 127.649 181.017C125.934 180.125 123.961 178.754 123.535 176.728C123.108 174.701 124.647 172.987 126.193 171.92C128.456 170.358 131.191 169.52 133.865 168.995C137.233 168.332 140.714 168.18 144.128 168.461C147.541 168.743 151.038 169.437 154.093 170.998C156.035 171.989 158.328 173.619 158.382 176.034C158.389 176.4 158.961 176.4 158.953 176.034C158.907 173.962 157.391 172.393 155.761 171.303C153.239 169.627 150.177 168.766 147.228 168.271C143.495 167.646 139.655 167.585 135.907 168.081C132.791 168.492 129.599 169.269 126.849 170.838C125.119 171.829 123.268 173.33 122.948 175.417C122.643 177.383 123.877 179.074 125.348 180.224C127.611 182 130.498 182.944 133.279 183.539C136.989 184.331 140.852 184.498 144.63 184.14C148.188 183.798 151.876 183.02 155.007 181.23C156.934 180.133 158.907 178.419 158.961 176.034C158.968 175.669 158.397 175.669 158.389 176.034Z" fill="#2B63A8"/>
<path d="M140.433 177.862L147.221 179.775C147.221 179.851 147.152 179.866 147.114 179.897C146.611 180.239 146.101 180.575 145.598 180.918C145.491 180.994 145.4 181.009 145.293 180.978C143.175 180.377 141.057 179.782 138.932 179.188C138.825 179.158 138.756 179.104 138.703 179.005C138.604 178.815 138.513 178.624 138.398 178.457C138.292 178.297 138.315 178.205 138.513 178.083C138.939 177.817 139.366 177.543 139.762 177.223C140.257 176.826 140.699 176.385 140.989 175.813C141.278 175.242 141.354 174.686 141.179 174.137C141.126 173.977 141.065 173.947 140.89 174.061C139.686 174.876 138.475 175.684 137.263 176.491L136.913 176.727C136.974 176.232 137.027 175.79 137.08 175.348C137.096 175.249 137.187 175.219 137.256 175.173C138.231 174.518 139.214 173.863 140.189 173.208C140.25 173.169 140.356 173.139 140.356 173.063C140.356 172.994 140.257 172.979 140.196 172.956C139.579 172.682 138.932 172.865 138.284 173.185C137.515 173.566 136.806 174.091 136.082 174.564C136.006 174.617 135.93 174.67 135.808 174.747C135.869 174.259 135.922 173.809 135.976 173.368C135.983 173.299 136.037 173.269 136.09 173.23C138.368 171.707 140.646 170.183 142.924 168.659C143 168.697 142.962 168.766 142.954 168.812C142.916 169.155 142.863 169.505 142.832 169.848C142.817 170.008 142.749 170.099 142.611 170.191C142.071 170.541 141.537 170.907 140.966 171.288C141.133 171.356 141.278 171.417 141.423 171.486C141.613 171.577 141.789 171.691 141.926 171.851C142.017 171.951 142.093 171.935 142.223 171.851C142.825 171.44 143.427 171.044 144.082 170.602C144.044 170.907 143.983 171.181 143.99 171.44C143.998 171.89 143.808 172.194 143.373 172.408C143.152 172.514 142.954 172.69 142.741 172.819C142.65 172.88 142.611 172.926 142.642 173.032C142.992 174.206 142.619 175.326 141.827 176.407C141.469 176.895 141.05 177.314 140.577 177.68C140.532 177.71 140.494 177.748 140.448 177.786C140.44 177.794 140.433 177.817 140.425 177.847L140.433 177.862Z" fill="white"/>
<path d="M143.114 179.402C152.914 179.402 160.858 175.823 160.858 171.41C160.858 166.996 152.914 163.418 143.114 163.418C133.315 163.418 125.371 166.996 125.371 171.41C125.371 175.823 133.315 179.402 143.114 179.402Z" fill="#BF8B0A"/>
<path d="M160.576 171.41C160.53 173.505 158.77 175.013 157.102 175.996C154.634 177.459 151.769 178.221 148.958 178.67C142.764 179.66 135.503 179.34 129.835 176.392C128.121 175.501 126.148 174.129 125.721 172.103C125.294 170.076 126.833 168.362 128.38 167.296C130.643 165.734 133.378 164.896 136.052 164.37C139.419 163.707 142.901 163.555 146.314 163.837C149.727 164.119 153.224 164.812 156.279 166.374C158.222 167.364 160.515 168.994 160.568 171.41C160.576 171.775 161.147 171.775 161.14 171.41C161.094 169.337 159.578 167.768 157.948 166.678C155.426 165.002 152.363 164.141 149.415 163.646C145.682 163.022 141.842 162.961 138.094 163.456C134.978 163.867 131.785 164.644 129.035 166.214C127.306 167.204 125.454 168.705 125.135 170.792C124.83 172.758 126.064 174.449 127.534 175.6C129.797 177.375 132.684 178.32 135.465 178.914C139.175 179.706 143.038 179.874 146.817 179.516C150.375 179.173 154.062 178.396 157.193 176.605C159.121 175.508 161.094 173.794 161.147 171.41C161.155 171.044 160.584 171.044 160.576 171.41Z" fill="#2B63A8"/>
<path d="M143.114 176.697C152.914 176.697 160.858 173.119 160.858 168.705C160.858 164.292 152.914 160.713 143.114 160.713C133.315 160.713 125.371 164.292 125.371 168.705C125.371 173.119 133.315 176.697 143.114 176.697Z" fill="#FCBC00"/>
<path d="M160.576 168.705C160.53 170.8 158.77 172.309 157.102 173.292C154.634 174.754 151.769 175.516 148.958 175.966C142.764 176.956 135.503 176.636 129.835 173.688C128.121 172.796 126.148 171.425 125.721 169.398C125.294 167.372 126.833 165.658 128.38 164.591C130.643 163.029 133.378 162.191 136.052 161.666C139.419 161.003 142.901 160.85 146.314 161.132C149.727 161.414 153.224 162.108 156.279 163.669C158.222 164.66 160.515 166.29 160.568 168.705C160.576 169.071 161.147 169.071 161.14 168.705C161.094 166.633 159.578 165.064 157.948 163.974C155.426 162.298 152.363 161.437 149.415 160.942C145.682 160.317 141.842 160.256 138.094 160.751C134.978 161.163 131.785 161.94 129.035 163.509C127.306 164.5 125.454 166.001 125.135 168.088C124.83 170.054 126.064 171.745 127.534 172.895C129.797 174.671 132.684 175.615 135.465 176.209C139.175 177.002 143.038 177.169 146.817 176.811C150.375 176.468 154.062 175.691 157.193 173.901C159.121 172.804 161.094 171.09 161.147 168.705C161.155 168.339 160.584 168.339 160.576 168.705Z" fill="#2B63A8"/>
<path d="M142.619 170.533L149.407 172.446C149.407 172.522 149.339 172.537 149.301 172.568C148.798 172.91 148.287 173.246 147.784 173.588C147.678 173.665 147.586 173.68 147.48 173.649C145.362 173.048 143.244 172.453 141.118 171.859C141.012 171.829 140.943 171.775 140.89 171.676C140.791 171.486 140.699 171.295 140.585 171.128C140.478 170.968 140.501 170.876 140.699 170.754C141.126 170.488 141.552 170.213 141.949 169.893C142.444 169.497 142.886 169.055 143.175 168.484C143.465 167.913 143.541 167.356 143.366 166.808C143.312 166.648 143.251 166.617 143.076 166.732C141.872 167.547 140.661 168.354 139.45 169.162L139.099 169.398C139.16 168.903 139.214 168.461 139.267 168.019C139.282 167.92 139.374 167.89 139.442 167.844C140.417 167.189 141.4 166.534 142.375 165.878C142.436 165.84 142.543 165.81 142.543 165.734C142.543 165.665 142.444 165.65 142.383 165.627C141.766 165.353 141.118 165.536 140.471 165.856C139.701 166.237 138.993 166.762 138.269 167.235C138.193 167.288 138.117 167.341 137.995 167.417C138.056 166.93 138.109 166.48 138.162 166.038C138.17 165.97 138.223 165.939 138.277 165.901C140.554 164.378 142.832 162.854 145.11 161.33C145.187 161.368 145.148 161.437 145.141 161.483C145.103 161.825 145.049 162.176 145.019 162.519C145.004 162.679 144.935 162.77 144.798 162.862C144.257 163.212 143.724 163.578 143.152 163.959C143.32 164.027 143.465 164.088 143.609 164.157C143.8 164.248 143.975 164.362 144.112 164.522C144.204 164.621 144.28 164.606 144.409 164.522C145.011 164.111 145.613 163.715 146.268 163.273C146.23 163.578 146.169 163.852 146.177 164.111C146.185 164.56 145.994 164.865 145.56 165.079C145.339 165.185 145.141 165.36 144.927 165.49C144.836 165.551 144.798 165.597 144.828 165.703C145.179 166.877 144.806 167.996 144.013 169.078C143.655 169.566 143.236 169.985 142.764 170.351C142.718 170.381 142.68 170.419 142.634 170.457C142.627 170.465 142.619 170.488 142.611 170.518L142.619 170.533Z" fill="white"/>
<path d="M138.741 173.444C148.541 173.444 156.485 169.866 156.485 165.452C156.485 161.038 148.541 157.46 138.741 157.46C128.942 157.46 120.998 161.038 120.998 165.452C120.998 169.866 128.942 173.444 138.741 173.444Z" fill="#BF8B0A"/>
<path d="M156.203 165.452C156.157 167.547 154.397 169.056 152.729 170.038C150.26 171.501 147.396 172.263 144.585 172.712C138.391 173.703 131.13 173.383 125.462 170.435C123.748 169.543 121.775 168.172 121.348 166.145C120.921 164.119 122.46 162.405 124.007 161.338C126.27 159.776 129.005 158.938 131.679 158.412C135.046 157.75 138.528 157.597 141.941 157.879C145.354 158.161 148.851 158.854 151.906 160.416C153.849 161.407 156.142 163.037 156.195 165.452C156.203 165.818 156.774 165.818 156.767 165.452C156.721 163.38 155.205 161.81 153.575 160.721C151.053 159.045 147.99 158.184 145.042 157.689C141.309 157.064 137.469 157.003 133.721 157.498C130.605 157.91 127.412 158.687 124.662 160.256C122.933 161.247 121.081 162.747 120.761 164.835C120.457 166.8 121.691 168.492 123.161 169.642C125.424 171.417 128.311 172.362 131.092 172.956C134.802 173.749 138.665 173.916 142.444 173.558C146.002 173.215 149.689 172.438 152.82 170.648C154.748 169.551 156.721 167.837 156.774 165.452C156.782 165.086 156.211 165.086 156.203 165.452Z" fill="#2B63A8"/>
<path d="M138.741 170.739C148.541 170.739 156.485 167.161 156.485 162.747C156.485 158.333 148.541 154.755 138.741 154.755C128.942 154.755 120.998 158.333 120.998 162.747C120.998 167.161 128.942 170.739 138.741 170.739Z" fill="#FCBC00"/>
<path d="M156.203 162.747C156.157 164.842 154.397 166.351 152.729 167.334C150.26 168.796 147.396 169.558 144.585 170.008C138.391 170.998 131.13 170.678 125.462 167.73C123.748 166.838 121.775 165.467 121.348 163.44C120.921 161.414 122.46 159.7 124.007 158.633C126.27 157.071 129.005 156.233 131.679 155.708C135.046 155.045 138.528 154.892 141.941 155.174C145.354 155.456 148.851 156.15 151.906 157.711C153.849 158.702 156.142 160.332 156.195 162.747C156.203 163.113 156.774 163.113 156.767 162.747C156.721 160.675 155.205 159.106 153.575 158.016C151.053 156.34 147.99 155.479 145.042 154.984C141.309 154.359 137.469 154.298 133.721 154.793C130.605 155.205 127.412 155.982 124.662 157.551C122.933 158.542 121.081 160.043 120.761 162.13C120.457 164.096 121.691 165.787 123.161 166.937C125.424 168.712 128.311 169.657 131.092 170.251C134.802 171.044 138.665 171.211 142.444 170.853C146.002 170.51 149.689 169.733 152.82 167.943C154.748 166.846 156.721 165.132 156.774 162.747C156.782 162.381 156.211 162.381 156.203 162.747Z" fill="#2B63A8"/>
<path d="M138.246 164.576L145.034 166.488C145.034 166.564 144.966 166.579 144.927 166.61C144.425 166.953 143.914 167.288 143.411 167.631C143.305 167.707 143.213 167.722 143.107 167.692C140.989 167.09 138.871 166.496 136.745 165.901C136.639 165.871 136.57 165.818 136.517 165.719C136.418 165.528 136.326 165.338 136.212 165.17C136.105 165.01 136.128 164.919 136.326 164.797C136.753 164.53 137.179 164.256 137.576 163.936C138.071 163.54 138.513 163.098 138.802 162.526C139.092 161.955 139.168 161.399 138.993 160.85C138.939 160.69 138.878 160.66 138.703 160.774C137.499 161.589 136.288 162.397 135.077 163.204L134.726 163.441C134.787 162.945 134.841 162.504 134.894 162.062C134.909 161.963 135.001 161.932 135.069 161.886C136.044 161.231 137.027 160.576 138.002 159.921C138.063 159.883 138.17 159.852 138.17 159.776C138.17 159.708 138.071 159.692 138.01 159.669C137.393 159.395 136.745 159.578 136.098 159.898C135.328 160.279 134.62 160.805 133.896 161.277C133.82 161.33 133.743 161.384 133.622 161.46C133.683 160.972 133.736 160.523 133.789 160.081C133.797 160.012 133.85 159.982 133.903 159.944C136.181 158.42 138.459 156.896 140.737 155.373C140.813 155.411 140.775 155.479 140.768 155.525C140.73 155.868 140.676 156.218 140.646 156.561C140.631 156.721 140.562 156.812 140.425 156.904C139.884 157.254 139.351 157.62 138.779 158.001C138.947 158.07 139.092 158.13 139.236 158.199C139.427 158.29 139.602 158.405 139.739 158.565C139.831 158.664 139.907 158.649 140.036 158.565C140.638 158.153 141.24 157.757 141.895 157.315C141.857 157.62 141.796 157.894 141.804 158.153C141.812 158.603 141.621 158.908 141.187 159.121C140.966 159.228 140.768 159.403 140.554 159.532C140.463 159.593 140.425 159.639 140.455 159.746C140.806 160.919 140.433 162.039 139.64 163.121C139.282 163.608 138.863 164.027 138.391 164.393C138.345 164.423 138.307 164.461 138.261 164.5C138.254 164.507 138.246 164.53 138.238 164.561L138.246 164.576Z" fill="white"/>
<path d="M138.627 167.288C148.364 167.288 156.257 163.71 156.257 159.296C156.257 154.882 148.364 151.304 138.627 151.304C128.891 151.304 120.998 154.882 120.998 159.296C120.998 163.71 128.891 167.288 138.627 167.288Z" fill="#BF8B0A"/>
<path d="M155.967 159.296C155.921 161.384 154.176 162.892 152.516 163.883C150.07 165.338 147.221 166.107 144.425 166.557C138.269 167.547 131.054 167.219 125.432 164.279C123.725 163.387 121.767 162.008 121.348 159.989C120.929 157.971 122.445 156.256 123.992 155.182C126.232 153.62 128.959 152.782 131.61 152.257C134.955 151.594 138.414 151.441 141.804 151.723C145.194 152.005 148.668 152.699 151.7 154.26C153.643 155.258 155.906 156.889 155.959 159.296C155.967 159.662 156.538 159.662 156.531 159.296C156.485 157.232 154.984 155.655 153.354 154.565C150.855 152.897 147.815 152.028 144.874 151.533C141.172 150.908 137.355 150.847 133.629 151.342C130.536 151.754 127.359 152.531 124.632 154.1C122.91 155.091 121.074 156.592 120.754 158.679C120.449 160.637 121.676 162.328 123.138 163.486C125.378 165.262 128.258 166.206 131.016 166.8C134.703 167.593 138.543 167.76 142.292 167.402C145.827 167.059 149.491 166.282 152.599 164.492C154.519 163.387 156.477 161.681 156.531 159.296C156.538 158.93 155.967 158.93 155.959 159.296H155.967Z" fill="#2B63A8"/>
<path d="M138.627 164.576C148.364 164.576 156.257 160.998 156.257 156.584C156.257 152.17 148.364 148.592 138.627 148.592C128.891 148.592 120.998 152.17 120.998 156.584C120.998 160.998 128.891 164.576 138.627 164.576Z" fill="#FCBC00"/>
<path d="M155.967 156.584C155.921 158.671 154.176 160.18 152.516 161.17C150.07 162.625 147.221 163.395 144.425 163.844C138.269 164.835 131.054 164.507 125.432 161.566C123.725 160.675 121.767 159.296 121.348 157.277C120.929 155.258 122.445 153.544 123.992 152.47C126.232 150.908 128.959 150.07 131.61 149.544C134.955 148.882 138.414 148.729 141.804 149.011C145.194 149.293 148.668 149.986 151.7 151.548C153.643 152.546 155.906 154.177 155.959 156.584C155.967 156.95 156.538 156.95 156.531 156.584C156.485 154.519 154.984 152.942 153.354 151.853C150.855 150.184 147.815 149.316 144.874 148.821C141.172 148.196 137.355 148.135 133.629 148.63C130.536 149.042 127.359 149.819 124.632 151.388C122.91 152.379 121.074 153.879 120.754 155.967C120.449 157.925 121.676 159.616 123.138 160.774C125.378 162.549 128.258 163.494 131.016 164.088C134.703 164.881 138.543 165.048 142.292 164.69C145.827 164.347 149.491 163.57 152.599 161.78C154.519 160.675 156.477 158.969 156.531 156.584C156.538 156.218 155.967 156.218 155.959 156.584H155.967Z" fill="#2B63A8"/>
<path d="M138.132 158.42L144.874 160.332C144.874 160.408 144.813 160.424 144.768 160.454C144.265 160.797 143.762 161.132 143.259 161.475C143.152 161.551 143.061 161.566 142.954 161.536C140.852 160.934 138.741 160.34 136.639 159.746C136.532 159.715 136.463 159.662 136.41 159.563C136.319 159.372 136.22 159.182 136.105 159.014C135.999 158.854 136.021 158.763 136.22 158.641C136.646 158.374 137.065 158.1 137.461 157.78C137.957 157.384 138.391 156.942 138.68 156.371C138.97 155.799 139.038 155.243 138.871 154.694C138.817 154.534 138.764 154.504 138.589 154.618C137.393 155.433 136.189 156.241 134.993 157.049L134.642 157.285C134.703 156.79 134.757 156.348 134.81 155.906C134.825 155.807 134.917 155.776 134.985 155.731C135.953 155.075 136.928 154.42 137.903 153.765C137.964 153.727 138.071 153.696 138.063 153.62C138.063 153.552 137.964 153.536 137.903 153.514C137.294 153.239 136.646 153.422 136.006 153.742C135.237 154.123 134.543 154.649 133.82 155.121C133.743 155.174 133.667 155.228 133.545 155.304C133.606 154.816 133.66 154.367 133.713 153.925C133.721 153.856 133.774 153.826 133.827 153.788C136.09 152.264 138.353 150.74 140.615 149.217C140.692 149.255 140.654 149.323 140.646 149.369C140.608 149.712 140.554 150.062 140.524 150.405C140.509 150.565 140.44 150.657 140.303 150.748C139.762 151.099 139.229 151.464 138.673 151.845C138.84 151.914 138.985 151.975 139.13 152.043C139.32 152.135 139.488 152.249 139.633 152.409C139.724 152.508 139.8 152.493 139.922 152.409C140.516 151.998 141.118 151.601 141.766 151.159C141.728 151.464 141.667 151.738 141.674 151.997C141.682 152.447 141.492 152.752 141.065 152.965C140.844 153.072 140.646 153.247 140.433 153.376C140.341 153.437 140.303 153.483 140.334 153.59C140.676 154.763 140.311 155.883 139.526 156.965C139.176 157.452 138.756 157.871 138.284 158.237C138.238 158.268 138.2 158.306 138.162 158.344C138.155 158.351 138.147 158.374 138.139 158.405L138.132 158.42Z" fill="white"/>
<path d="M144.014 160.866C153.75 160.866 161.643 157.288 161.643 152.874C161.643 148.46 153.75 144.882 144.014 144.882C134.277 144.882 126.384 148.46 126.384 152.874C126.384 157.288 134.277 160.866 144.014 160.866Z" fill="#BF8B0A"/>
<path d="M161.353 152.874C161.307 154.961 159.563 156.47 157.902 157.46C155.456 158.915 152.607 159.685 149.811 160.134C143.655 161.125 136.44 160.797 130.818 157.856C129.111 156.965 127.153 155.586 126.734 153.567C126.315 151.548 127.831 149.834 129.378 148.76C131.618 147.198 134.345 146.36 136.997 145.834C140.341 145.171 143.8 145.019 147.19 145.301C150.58 145.583 154.054 146.276 157.087 147.838C159.029 148.836 161.292 150.466 161.345 152.874C161.353 153.239 161.924 153.239 161.917 152.874C161.871 150.809 160.37 149.232 158.74 148.143C156.241 146.474 153.201 145.606 150.26 145.11C146.558 144.486 142.741 144.425 139.015 144.92C135.922 145.331 132.745 146.108 130.018 147.678C128.296 148.668 126.46 150.169 126.14 152.257C125.835 154.214 127.062 155.906 128.525 157.064C130.765 158.839 133.644 159.784 136.402 160.378C140.09 161.17 143.929 161.338 147.678 160.98C151.213 160.637 154.877 159.86 157.986 158.069C159.905 156.965 161.863 155.258 161.917 152.874C161.924 152.508 161.353 152.508 161.345 152.874H161.353Z" fill="#2B63A8"/>
<path d="M144.014 158.161C153.75 158.161 161.643 154.583 161.643 150.169C161.643 145.756 153.75 142.177 144.014 142.177C134.277 142.177 126.384 145.756 126.384 150.169C126.384 154.583 134.277 158.161 144.014 158.161Z" fill="#FCBC00"/>
<path d="M161.353 150.169C161.307 152.257 159.563 153.765 157.902 154.756C155.456 156.211 152.607 156.98 149.811 157.43C143.655 158.42 136.44 158.092 130.818 155.152C129.111 154.26 127.153 152.881 126.734 150.862C126.315 148.844 127.831 147.129 129.378 146.055C131.618 144.493 134.345 143.655 136.997 143.13C140.341 142.467 143.8 142.314 147.19 142.596C150.58 142.878 154.054 143.572 157.087 145.133C159.029 146.131 161.292 147.762 161.345 150.169C161.353 150.535 161.924 150.535 161.917 150.169C161.871 148.105 160.37 146.528 158.74 145.438C156.241 143.77 153.201 142.901 150.26 142.406C146.558 141.781 142.741 141.72 139.015 142.215C135.922 142.627 132.745 143.404 130.018 144.973C128.296 145.964 126.46 147.465 126.14 149.552C125.835 151.51 127.062 153.201 128.525 154.359C130.765 156.134 133.644 157.079 136.402 157.673C140.09 158.466 143.929 158.633 147.678 158.275C151.213 157.932 154.877 157.155 157.986 155.365C159.905 154.26 161.863 152.554 161.917 150.169C161.924 149.803 161.353 149.803 161.345 150.169H161.353Z" fill="#2B63A8"/>
<path d="M143.526 151.998L150.268 153.91C150.268 153.986 150.207 154.001 150.162 154.032C149.659 154.375 149.156 154.71 148.653 155.053C148.546 155.129 148.455 155.144 148.348 155.114C146.246 154.512 144.135 153.918 142.033 153.323C141.926 153.293 141.857 153.24 141.804 153.14C141.713 152.95 141.614 152.76 141.499 152.592C141.393 152.432 141.415 152.341 141.614 152.219C142.04 151.952 142.459 151.678 142.855 151.358C143.351 150.962 143.785 150.52 144.074 149.948C144.364 149.377 144.432 148.821 144.265 148.272C144.211 148.112 144.158 148.082 143.983 148.196C142.787 149.011 141.583 149.819 140.387 150.626L140.037 150.863C140.097 150.367 140.151 149.925 140.204 149.484C140.219 149.385 140.311 149.354 140.379 149.308C141.347 148.653 142.322 147.998 143.297 147.343C143.358 147.305 143.465 147.274 143.457 147.198C143.457 147.129 143.358 147.114 143.297 147.091C142.688 146.817 142.04 147 141.4 147.32C140.631 147.701 139.937 148.227 139.214 148.699C139.138 148.752 139.061 148.806 138.939 148.882C139 148.394 139.054 147.945 139.107 147.503C139.115 147.434 139.168 147.404 139.221 147.366C141.484 145.842 143.747 144.318 146.009 142.794C146.086 142.833 146.048 142.901 146.04 142.947C146.002 143.29 145.949 143.64 145.918 143.983C145.903 144.143 145.834 144.234 145.697 144.326C145.156 144.676 144.623 145.042 144.067 145.423C144.234 145.491 144.379 145.552 144.524 145.621C144.714 145.712 144.882 145.827 145.027 145.987C145.118 146.086 145.194 146.07 145.316 145.987C145.91 145.575 146.512 145.179 147.16 144.737C147.122 145.042 147.061 145.316 147.068 145.575C147.076 146.025 146.886 146.329 146.459 146.543C146.238 146.649 146.04 146.825 145.827 146.954C145.735 147.015 145.697 147.061 145.728 147.168C146.07 148.341 145.705 149.461 144.92 150.543C144.57 151.03 144.151 151.449 143.678 151.815C143.632 151.845 143.594 151.883 143.556 151.922C143.549 151.929 143.541 151.952 143.533 151.982L143.526 151.998Z" fill="white"/>
<path d="M117.143 190.943C125.104 190.943 131.557 184.49 131.557 176.529C131.557 168.568 125.104 162.115 117.143 162.115C109.182 162.115 102.729 168.568 102.729 176.529C102.729 184.49 109.182 190.943 117.143 190.943Z" fill="#BF8B0A"/>
<path d="M130.864 179.904C129.409 185.58 124.579 189.938 118.705 190.578C112.831 191.218 107.048 188.033 104.443 182.723C101.837 177.413 102.919 170.808 107.087 166.595C111.254 162.382 117.852 161.201 123.223 163.768C129.241 166.64 132.388 173.444 130.856 179.897C130.773 180.255 131.321 180.407 131.405 180.049C132.814 174.084 130.437 167.753 125.325 164.309C120.213 160.865 113.303 161.048 108.374 164.72C103.445 168.393 101.243 175.021 103.11 180.933C104.976 186.845 110.279 190.867 116.351 191.21C123.36 191.599 129.683 186.799 131.413 180.049C131.504 179.691 130.955 179.538 130.864 179.897V179.904Z" fill="#2B63A8"/>
<path d="M115.627 189.062C123.587 189.062 130.041 182.608 130.041 174.647C130.041 166.687 123.587 160.233 115.627 160.233C107.666 160.233 101.212 166.687 101.212 174.647C101.212 182.608 107.666 189.062 115.627 189.062Z" fill="#FCBC00"/>
<path d="M129.347 178.023C127.892 183.698 123.062 188.056 117.188 188.696C111.314 189.336 105.532 186.152 102.926 180.841C100.313 175.516 101.403 168.926 105.57 164.713C109.753 160.485 116.335 159.319 121.706 161.886C127.725 164.759 130.871 171.562 129.34 178.015C129.256 178.373 129.805 178.525 129.888 178.167C131.298 172.202 128.921 165.871 123.809 162.427C118.697 158.984 111.787 159.167 106.858 162.839C101.898 166.534 99.7266 173.139 101.593 179.051C103.46 184.963 108.762 188.986 114.834 189.328C121.843 189.717 128.167 184.917 129.896 178.167C129.987 177.809 129.439 177.657 129.347 178.015V178.023Z" fill="#2B63A8"/>
<path d="M113.699 174.274L116.853 182.312C116.785 182.38 116.732 182.327 116.686 182.312C116.061 182.121 115.436 181.923 114.812 181.733C114.675 181.695 114.606 181.626 114.553 181.489C113.57 178.975 112.587 176.468 111.597 173.962C111.543 173.832 111.543 173.726 111.589 173.596C111.673 173.345 111.764 173.101 111.818 172.842C111.871 172.606 111.962 172.552 112.199 172.628C112.709 172.804 113.227 172.979 113.76 173.086C114.423 173.223 115.086 173.261 115.749 173.063C116.412 172.857 116.914 172.453 117.234 171.836C117.333 171.646 117.311 171.569 117.097 171.501C115.604 171.051 114.118 170.579 112.625 170.122C112.496 170.084 112.374 170.046 112.191 169.985C112.633 169.627 113.029 169.307 113.425 168.979C113.517 168.903 113.608 168.979 113.692 169.002C114.895 169.375 116.107 169.749 117.311 170.122C117.387 170.145 117.478 170.221 117.539 170.152C117.6 170.091 117.539 169.992 117.516 169.909C117.311 169.093 116.716 168.636 116.008 168.294C115.162 167.882 114.256 167.661 113.364 167.372C113.273 167.341 113.174 167.311 113.021 167.265C113.456 166.907 113.859 166.587 114.256 166.259C114.316 166.206 114.385 166.237 114.446 166.259C117.257 167.128 120.068 168.004 122.872 168.873C122.895 168.972 122.811 168.994 122.765 169.033C122.461 169.284 122.141 169.528 121.844 169.794C121.706 169.916 121.585 169.932 121.409 169.871C120.747 169.657 120.084 169.452 119.383 169.238C119.444 169.452 119.497 169.642 119.543 169.832C119.604 170.091 119.627 170.351 119.596 170.617C119.573 170.785 119.642 170.846 119.802 170.899C120.548 171.12 121.295 171.356 122.095 171.608C121.821 171.829 121.554 172.004 121.348 172.225C120.99 172.613 120.617 172.689 120.145 172.461C119.901 172.347 119.627 172.301 119.368 172.209C119.253 172.171 119.192 172.179 119.124 172.301C118.423 173.619 117.257 174.213 115.825 174.373C115.185 174.449 114.553 174.404 113.928 174.266C113.867 174.251 113.814 174.244 113.753 174.236C113.737 174.236 113.722 174.251 113.692 174.259L113.699 174.274Z" fill="white"/>
<path d="M27.1905 179.805L23.4117 182.327L6.61279 141.873L10.3992 139.351L27.1905 146.969V179.805Z" fill="#2B63A8"/>
<path d="M48.8501 189.534L45.0637 192.056L28.2725 143.983L32.0513 141.461L48.8501 149.08V189.534Z" fill="#2B63A8"/>
<path d="M70.5098 199.255L66.7234 201.777L49.9321 138.467L53.7109 135.945L70.5098 143.564V199.255Z" fill="#2B63A8"/>
<path d="M23.4117 182.327L6.61279 174.708V141.872L23.4117 149.491V182.327Z" fill="#6CA9AE"/>
<path d="M23.503 182.479L6.51367 174.777V141.728L23.503 149.43V182.479ZM6.70414 174.647L23.3126 182.182V149.552L6.70414 142.017V174.647Z" fill="#2B63A8"/>
<path d="M45.0637 192.056L28.2725 184.438V143.983L45.0637 151.602V192.056Z" fill="#6CA9AE"/>
<path d="M45.1627 192.201L28.1733 184.498V143.831L45.1627 151.533V192.201ZM28.3638 184.376L44.9722 191.911V151.662L28.3638 144.128V184.376Z" fill="#2B63A8"/>
<path d="M66.7234 201.777L49.9321 194.159V138.467L66.7234 146.086V201.777Z" fill="#6CA9AE"/>
<path d="M66.8224 201.93L49.833 194.227V138.322L66.8224 146.025V201.93ZM50.0235 194.105L66.6319 201.64V146.154L50.0235 138.62V194.105Z" fill="#2B63A8"/>
<path d="M38.3365 175.646C34.3292 175.646 30.1847 175.318 25.9107 174.663C11.2754 172.415 0.449494 167.166 0 166.945L2.34651 162.153C2.84933 162.397 44.1571 182.121 71.7133 159.129L75.1264 163.227C65.2909 171.44 52.7279 175.646 38.3365 175.646Z" fill="#68121F"/>
<path d="M67.9419 158.443L75.7357 166.869L79.3164 156.546L67.9419 158.443Z" fill="#68121F"/>
</g>
<defs>
<clipPath id="clip0_434_8609">
<rect width="172.895" height="201.884" fill="white" transform="translate(0 0.0454712)"/>
</clipPath>
</defs>
</svg>
