<svg width="600" height="600" viewBox="0 0 600 600" fill="none" xmlns="http://www.w3.org/2000/svg">
<g clip-path="url(#clip0_785_2127)">
<path d="M404.581 289.433C403.243 292.17 401.099 293.204 398.011 293.143C389.936 292.991 381.845 293.098 373.769 293.083C370.059 293.083 368.249 291.486 367.838 287.851C365.283 265.419 354.196 248.766 334.137 238.272C327.46 234.774 320.267 232.904 312.739 232.28C309.317 231.991 307.401 230.075 307.37 226.607C307.309 218.258 307.37 209.894 307.34 201.544C307.34 198.928 308.572 197.195 310.762 195.993C311.629 195.841 312.648 195.719 313.773 195.689C315.279 195.659 316.617 195.796 317.697 195.993C319.932 196.297 322.761 196.799 326.031 197.468C326.958 197.651 327.886 197.864 328.814 198.107C368.066 208.357 392.673 233.162 402.559 272.536C403.547 276.49 403.745 280.566 404.596 284.536C404.764 285.189 404.931 286.087 404.901 287.167C404.885 288.079 404.749 288.839 404.596 289.433H404.581Z" fill="#C5D8E3"/>
<path d="M293.134 228.493C293.134 232.569 293.164 236.645 293.134 240.736C293.103 244.355 291.415 246.226 287.796 246.636C266.975 248.994 250.916 258.97 240.239 277.023C219.571 311.986 239.54 357.9 279.188 366.979C312.342 374.568 344.902 354.204 352.628 321.02C353.282 318.191 353.586 315.271 353.982 312.382C354.392 309.431 356.263 307.515 359.259 307.485C367.821 307.424 376.399 307.409 384.961 307.485C388.444 307.515 390.497 309.857 390.269 313.537C389.417 327.62 385.797 340.988 378.999 353.353C365.114 378.613 344.218 395.038 316.235 402.095C263.767 415.311 209.99 382.035 198.128 329.172C187.193 280.444 214.249 231.732 261.364 215.384C269.287 212.631 277.469 211.034 285.818 210.38C291.141 209.969 293.134 211.87 293.134 217.285C293.134 221.026 293.134 224.767 293.134 228.508V228.493Z" fill="url(#paint0_linear_785_2127)"/>
<path d="M314.321 275.806C314.184 278.194 311.933 280.627 310.686 282.558C309.18 284.885 307.69 287.227 306.184 289.554C303.31 294.01 300.451 298.451 297.577 302.907C291.706 312.017 285.836 321.142 279.95 330.251C278.977 331.757 277.578 335.224 275.54 335.559C273.837 335.833 272.361 334.16 272.012 332.654C271.555 330.616 273.274 328.776 274.308 327.164C275.814 324.852 277.304 322.526 278.81 320.214C284.68 311.15 290.55 302.086 296.406 293.022C299.675 287.957 302.96 282.908 306.23 277.844C307.279 276.217 308.8 272.445 311.081 272.262C313.104 272.11 314.245 274.057 314.29 275.806C314.366 278.741 318.929 278.741 318.853 275.806C318.731 271.198 315.051 267.046 310.169 267.791C307.614 268.187 305.911 269.996 304.542 272.05C302.747 274.772 300.998 277.524 299.219 280.277C292.056 291.349 284.893 302.42 277.73 313.477C275.95 316.214 274.186 318.952 272.407 321.704C270.795 324.199 268.62 326.754 267.723 329.613C266.248 334.221 269.593 339.452 274.384 340.061C276.757 340.365 278.992 339.361 280.528 337.567C282.551 335.209 284.056 332.305 285.729 329.704C289.349 324.092 292.968 318.465 296.588 312.853C300.542 306.709 304.512 300.565 308.466 294.406C310.519 291.227 312.557 288.049 314.61 284.87C316.45 282.011 318.67 279.334 318.868 275.821C319.02 272.886 314.458 272.901 314.306 275.821L314.321 275.806Z" fill="#221F20"/>
<path d="M284.419 284.064C284.374 287.273 282.381 290.345 279.355 291.394C276.1 292.535 272.618 291.623 270.428 288.915C268.451 286.482 268.223 282.787 269.865 280.034C271.508 277.281 274.823 275.745 277.91 276.338C281.727 277.053 284.358 280.277 284.404 284.064C284.45 286.999 289.012 286.999 288.967 284.064C288.891 278.848 285.682 274.27 280.8 272.415C275.918 270.559 270.306 272.141 267.097 276.08C263.888 280.019 263.204 285.859 265.911 290.391C268.618 294.923 273.85 297.128 278.975 296.215C284.769 295.166 288.875 289.828 288.967 284.064C289.012 281.129 284.45 281.129 284.404 284.064H284.419Z" fill="#221F20"/>
<path d="M316.599 328.38C316.553 331.589 314.561 334.661 311.535 335.711C308.28 336.851 304.797 335.939 302.607 333.232C300.63 330.799 300.402 327.103 302.045 324.35C303.687 321.598 307.003 320.062 310.09 320.655C313.907 321.369 316.538 324.594 316.584 328.38C316.629 331.316 321.192 331.316 321.146 328.38C321.07 323.164 317.861 318.586 312.979 316.731C308.098 314.876 302.486 316.457 299.277 320.396C296.068 324.335 295.384 330.175 298.091 334.707C300.798 339.239 306.029 341.444 311.154 340.532C316.949 339.482 321.055 334.144 321.146 328.38C321.192 325.445 316.629 325.445 316.584 328.38H316.599Z" fill="#221F20"/>
</g>
<defs>
<linearGradient id="paint0_linear_785_2127" x1="195.71" y1="307.652" x2="390.269" y2="307.652" gradientUnits="userSpaceOnUse">
<stop stop-color="#9BCB9E"/>
<stop offset="1" stop-color="#78C1C4"/>
</linearGradient>
<clipPath id="clip0_785_2127">
<rect width="209.189" height="209.296" fill="white" transform="translate(195.711 195.704)"/>
</clipPath>
</defs>
</svg>
