<svg width="172" height="186" viewBox="0 0 172 186" fill="none" xmlns="http://www.w3.org/2000/svg">
<path d="M70.6309 120.712L37.9206 101.965L30.4389 105.205L30.2711 105.116V112.851L22.3353 117.859V125.599L15.283 129.406V137.145L7.25345 141.874V149.614L0.299805 153.514V161.253L34.8262 180.484L68.1435 164.809L41.0248 168.425L41.7799 168.849V160.43L49.8094 156.376V147.961L56.8617 144.834V136.415L64.7975 132.086V123.742L64.9011 123.798L70.6309 120.712Z" fill="#2A4850"/>
<path d="M98.2237 88.5432L63.6578 69.4756L46.1527 80.5941L45.9849 80.5057V88.2454L38.0541 93.2531V100.993L31.0018 104.8V112.54L22.9673 117.268V125.008L16.0137 128.908V136.643L50.5401 155.878V147.463L56.7387 143.819L57.4937 144.238V135.824L65.5282 131.77V123.356L72.5806 120.223V111.809L80.5114 107.481V99.1358L80.615 99.1917L98.2237 88.5432Z" fill="#2A4850"/>
<path d="M143.074 47.9927L120.269 60.8518L113.325 64.3563V72.7755L105.394 76.9827V85.1646L98.2231 88.5434V97.2418L90.0258 101.105V108.835L83.3633 112.698V119.944L83.393 121.01L77.5547 123.97V132.385L69.6238 136.592V144.774L62.4481 148.157V156.851L54.2557 160.718V168.444L47.5933 172.312V179.558L47.6229 180.619L107.052 149.218L142.822 130.542L143.074 47.9927Z" fill="#6CA9AE"/>
<path d="M142.98 47.8435L131.338 54.4057C127.612 56.5047 123.931 58.6967 120.15 60.7119C117.875 61.922 115.541 63.0436 113.236 64.2071C113.177 64.2351 113.142 64.3002 113.142 64.3561V71.742C113.142 72.0818 113.137 72.4215 113.142 72.7613C113.142 72.5611 113.31 72.631 113.083 72.7008C112.896 72.7566 112.703 72.9009 112.53 72.994L108.484 75.1395L105.3 76.8289C105.246 76.8568 105.207 76.9173 105.207 76.9778V83.8565C105.207 84.1916 105.093 84.7408 105.207 85.0619C105.266 85.2295 105.142 85.0666 105.271 85.02C105.147 85.0619 105.034 85.1317 104.915 85.1876L101.209 86.9329L98.1197 88.3896C98.0605 88.4175 98.026 88.4827 98.026 88.5385V96.092C98.026 96.4597 98.0161 96.832 98.026 97.2043C98.026 97.0554 98.2036 97.1159 97.9964 97.1438C97.8335 97.1671 97.6065 97.3253 97.4634 97.3952L93.2685 99.3731L89.9175 100.951C89.8583 100.979 89.8237 101.044 89.8237 101.1V107.671C89.8237 108.011 89.7546 108.425 89.8237 108.76C89.8533 108.905 89.9471 108.672 89.8731 108.709C89.7497 108.765 89.6362 108.849 89.5177 108.914L86.1125 110.892L84.3901 111.893C84.0545 112.088 83.6202 112.26 83.329 112.512C82.9589 112.828 83.1711 113.763 83.1711 114.201C83.1711 116.351 83.1366 118.511 83.1909 120.661C83.1909 120.703 83.181 120.819 83.1958 120.866C83.2501 121.024 83.0922 121.005 83.2896 120.861C83.2649 120.879 83.2205 120.903 83.1909 120.912C82.9984 120.963 82.796 121.112 82.6184 121.201L80.6196 122.215L77.4562 123.821C77.397 123.849 77.3624 123.914 77.3624 123.97V131.356C77.3624 131.696 77.3575 132.035 77.3624 132.375C77.3624 132.175 77.5302 132.245 77.3032 132.314C77.1157 132.37 76.9232 132.515 76.7505 132.608L72.7036 134.753L69.5204 136.443C69.4662 136.471 69.4267 136.531 69.4267 136.592V143.47C69.4267 143.805 69.3132 144.355 69.4267 144.676C69.4859 144.843 69.3625 144.68 69.4908 144.634C69.3675 144.676 69.2539 144.745 69.1355 144.801L65.4292 146.547L62.3447 148.003C62.2855 148.031 62.2509 148.096 62.2509 148.152V155.706C62.2509 156.073 62.2411 156.446 62.2509 156.818C62.2509 156.669 62.4286 156.73 62.2213 156.758C62.0585 156.781 61.8315 156.939 61.6883 157.009L57.4934 158.987L54.1425 160.565C54.0832 160.592 54.0487 160.658 54.0487 160.713V165.684C54.0487 166.517 53.9697 167.387 54.0487 168.216C54.0536 168.286 54.0487 168.355 54.0487 168.421C54.0487 168.374 54.2214 168.272 54.0734 168.328C53.8118 168.425 53.5502 168.63 53.3134 168.77L47.9093 171.906C47.554 172.111 47.3912 172.153 47.3862 172.549C47.3764 173.433 47.3862 174.317 47.3862 175.206C47.3862 177.012 47.3665 178.813 47.4109 180.619C47.4109 180.754 47.5639 180.833 47.6873 180.768L51.5811 178.711L61.5057 173.466L74.6481 166.522L88.3284 159.294L99.8322 153.216L106.46 149.711C107.462 149.181 108.469 148.66 109.476 148.134L120.56 142.349L134.063 135.298L142.462 130.914L142.882 130.695C142.941 130.667 142.975 130.606 142.975 130.546L143 122.28L143.059 102.58L143.128 78.7696L143.193 58.1801L143.212 51.3573C143.212 50.3008 143.331 49.1839 143.222 48.132C143.222 48.0902 143.222 48.0436 143.222 47.9971C143.222 47.7737 142.852 47.7737 142.852 47.9971L142.842 50.7616L142.818 58.1801L142.783 68.8891L142.744 81.6877L142.704 95.2171L142.665 108.113L142.63 119.199L142.605 127.097V129.434C142.595 129.764 142.526 130.174 142.595 130.499C142.595 130.513 142.788 130.411 142.581 130.448C142.354 130.49 142.067 130.718 141.865 130.821L138.721 132.463L127.918 138.104L115.738 144.462L107.719 148.65C107.028 149.009 106.342 149.372 105.651 149.735L99.0722 153.211L88.6343 158.726L76.3359 165.223L64.2299 171.623L54.1869 176.928L48.2696 180.056L47.48 180.475L47.7564 180.624C47.7021 178.32 47.7317 176.011 47.7317 173.703C47.7317 173.382 47.8748 172.707 47.7317 172.404C47.6626 172.256 47.6379 172.456 47.6823 172.437C47.8255 172.367 47.9636 172.274 48.1018 172.195L51.7933 170.05L53.5897 169.007C53.7822 168.895 54.2017 168.751 54.3349 168.57C54.4682 168.388 54.3892 168.048 54.3892 167.848V161.686C54.3892 161.37 54.3596 161.039 54.3892 160.723C54.3645 160.955 54.2362 160.839 54.4534 160.793C54.6261 160.755 54.8285 160.616 54.9913 160.541L62.4977 157.004C62.5569 156.976 62.5915 156.911 62.5915 156.855V149.749C62.5915 149.297 62.6458 148.813 62.5915 148.362C62.5816 148.301 62.5915 148.227 62.5915 148.162C62.5767 148.371 62.478 148.292 62.7445 148.194C63.9931 147.724 65.1972 147.04 66.3965 146.472L69.6685 144.927C69.7277 144.899 69.7623 144.834 69.7623 144.778V137.48C69.7623 137.276 69.7771 137.066 69.7623 136.857C69.7425 136.596 69.856 136.619 69.6734 136.74C69.9054 136.578 70.1966 136.461 70.4483 136.331L74.4803 134.195L77.6042 132.538C77.6585 132.51 77.698 132.449 77.698 132.389V124.524C77.698 124.398 77.7276 124.24 77.698 124.119C77.6487 123.909 77.8017 124.026 77.619 124.119C78.5567 123.672 79.4747 123.179 80.4025 122.709L83.4425 121.168C83.4968 121.14 83.5363 121.075 83.5363 121.019C83.482 118.715 83.5116 116.407 83.5116 114.099C83.5116 113.777 83.6548 113.103 83.5116 112.8C83.4425 112.651 83.4179 112.851 83.4623 112.833C83.6054 112.763 83.7436 112.67 83.8818 112.591L87.5733 110.445L89.3697 109.403C89.5622 109.291 89.9816 109.147 90.1149 108.965C90.2481 108.784 90.1692 108.444 90.1692 108.244V102.082C90.1692 101.765 90.1396 101.435 90.1692 101.118C90.1445 101.351 90.0162 101.235 90.2333 101.188C90.4061 101.151 90.6084 101.011 90.7713 100.937L98.2777 97.3998C98.3369 97.3719 98.3714 97.3067 98.3714 97.2509V90.1441C98.3714 89.6927 98.4257 89.2087 98.3714 88.7572C98.3616 88.6967 98.3714 88.6223 98.3714 88.5571C98.3566 88.7665 98.2579 88.6874 98.5244 88.5897C99.773 88.1196 100.977 87.4355 102.176 86.8677L105.448 85.3225C105.508 85.2946 105.542 85.2295 105.542 85.1736V77.8761C105.542 77.6713 105.557 77.4619 105.542 77.2524C105.522 76.9918 105.636 77.0151 105.453 77.1361C105.685 76.9732 105.977 76.8568 106.228 76.7265L110.26 74.5857L113.384 72.9288C113.438 72.9009 113.478 72.8404 113.478 72.7799V66.092C113.478 65.5801 113.591 64.9332 113.478 64.4259C113.463 64.3607 113.29 64.4864 113.508 64.4491C113.735 64.4073 114.006 64.1978 114.208 64.0954L116.735 62.8202C117.934 62.2152 119.148 61.6334 120.333 61.0005C125.762 58.0964 131.067 54.9502 136.422 51.9297L143.133 48.146C143.336 48.0297 143.153 47.7271 142.946 47.8435H142.98Z" fill="#2B63A8"/>
<path d="M43.0288 105.414V113.154L77.5552 132.384V123.97L43.0288 105.414Z" fill="#2B63A8"/>
<path d="M35.0977 118.157V125.896L69.6191 145.131V136.712L35.0977 118.157Z" fill="#2B63A8"/>
<path d="M28.0454 129.704V137.443L62.5718 156.674V148.259L28.0454 129.704Z" fill="#2B63A8"/>
<path d="M20.0107 142.172V149.912L54.5372 169.147V160.728L20.0107 142.172Z" fill="#2B63A8"/>
<path d="M13.0571 153.811V161.551L47.5835 180.782V172.367L13.0571 153.811Z" fill="#2B63A8"/>
<path d="M133.915 156.548L142.981 163.264C142.951 163.376 142.852 163.357 142.783 163.376C141.934 163.566 141.086 163.748 140.237 163.943C140.054 163.985 139.921 163.957 139.773 163.846C136.945 161.747 134.117 159.648 131.284 157.558C131.141 157.451 131.057 157.335 131.023 157.167C130.954 156.841 130.885 156.516 130.781 156.204C130.682 155.915 130.746 155.794 131.077 155.734C131.788 155.599 132.498 155.454 133.184 155.24C134.043 154.97 134.833 154.584 135.455 153.947C136.081 153.304 136.382 152.546 136.333 151.666C136.318 151.401 136.244 151.326 135.948 151.391C133.925 151.852 131.896 152.294 129.868 152.741C129.695 152.778 129.523 152.816 129.281 152.871C129.547 152.206 129.784 151.596 130.026 150.996C130.08 150.861 130.228 150.875 130.342 150.852C131.985 150.484 133.624 150.126 135.267 149.758C135.371 149.735 135.529 149.758 135.553 149.646C135.578 149.544 135.445 149.469 135.366 149.4C134.576 148.65 133.584 148.529 132.538 148.608C131.289 148.701 130.09 149.036 128.876 149.292C128.748 149.32 128.619 149.348 128.412 149.395C128.674 148.729 128.915 148.124 129.152 147.519C129.192 147.422 129.281 147.412 129.37 147.394C133.194 146.547 137.019 145.704 140.839 144.862C140.933 144.955 140.854 145.029 140.824 145.104C140.641 145.574 140.439 146.039 140.276 146.519C140.197 146.742 140.069 146.83 139.832 146.882C138.924 147.068 138.026 147.277 137.073 147.487C137.286 147.682 137.483 147.854 137.661 148.031C137.902 148.273 138.11 148.543 138.253 148.846C138.347 149.041 138.46 149.069 138.677 149.018C139.689 148.781 140.701 148.566 141.796 148.324C141.633 148.739 141.446 149.092 141.357 149.469C141.204 150.116 140.824 150.437 140.123 150.493C139.768 150.521 139.418 150.647 139.062 150.717C138.909 150.749 138.835 150.796 138.84 150.968C138.919 152.844 137.981 154.23 136.447 155.319C135.761 155.803 135.005 156.162 134.191 156.409C134.117 156.432 134.043 156.46 133.969 156.488C133.949 156.497 133.944 156.52 133.915 156.557V156.548Z" fill="white"/>
<path d="M120.269 180.135C133.352 180.135 143.958 175.632 143.958 170.077C143.958 164.523 133.352 160.02 120.269 160.02C107.186 160.02 96.5801 164.523 96.5801 170.077C96.5801 175.632 107.186 180.135 120.269 180.135Z" fill="#BF8B0A"/>
<path d="M143.77 170.078C143.741 172.674 141.466 174.606 139.294 175.867C135.992 177.78 132.108 178.781 128.308 179.367C123.595 180.093 118.744 180.158 114.006 179.609C109.984 179.139 105.878 178.231 102.275 176.426C99.9657 175.267 97.3501 173.48 96.8417 170.883C96.3482 168.365 98.2779 166.243 100.306 164.874C103.331 162.836 107.053 161.747 110.66 161.058C115.314 160.174 120.131 159.988 124.854 160.383C129.044 160.732 133.308 161.537 137.142 163.213C139.639 164.302 142.517 165.954 143.484 168.542C143.672 169.04 143.765 169.556 143.77 170.082C143.77 170.306 144.14 170.306 144.14 170.082C144.111 167.499 141.994 165.526 139.842 164.209C136.476 162.147 132.429 161.086 128.506 160.476C123.595 159.708 118.532 159.643 113.597 160.257C109.505 160.765 105.32 161.723 101.693 163.646C99.3981 164.86 96.896 166.722 96.4617 169.333C96.0521 171.781 97.7399 173.871 99.6893 175.29C102.72 177.496 106.579 178.66 110.28 179.39C115.122 180.344 120.151 180.544 125.071 180.116C129.36 179.739 133.717 178.892 137.621 177.133C140.128 176.002 142.916 174.289 143.859 171.679C144.042 171.167 144.135 170.631 144.14 170.091C144.14 169.868 143.77 169.868 143.77 170.091V170.078Z" fill="#2B63A8"/>
<path d="M120.269 176.728C133.352 176.728 143.958 172.225 143.958 166.671C143.958 161.116 133.352 156.613 120.269 156.613C107.186 156.613 96.5801 161.116 96.5801 166.671C96.5801 172.225 107.186 176.728 120.269 176.728Z" fill="#FCBC00"/>
<path d="M143.77 166.671C143.741 169.268 141.466 171.199 139.294 172.46C135.992 174.373 132.108 175.374 128.308 175.96C123.595 176.686 118.744 176.751 114.006 176.202C109.984 175.732 105.878 174.825 102.275 173.019C99.9657 171.86 97.3501 170.073 96.8417 167.476C96.3482 164.958 98.2779 162.836 100.306 161.468C103.331 159.429 107.053 158.34 110.66 157.651C115.314 156.767 120.131 156.581 124.854 156.976C129.044 157.325 133.308 158.131 137.142 159.806C139.639 160.895 142.517 162.547 143.484 165.135C143.672 165.633 143.765 166.15 143.77 166.675C143.77 166.899 144.14 166.899 144.14 166.675C144.111 164.092 141.994 162.119 139.842 160.802C136.476 158.74 132.429 157.679 128.506 157.069C123.595 156.302 118.532 156.236 113.597 156.851C109.505 157.358 105.32 158.317 101.693 160.239C99.3981 161.454 96.896 163.315 96.4617 165.926C96.0521 168.374 97.7399 170.464 99.6893 171.883C102.72 174.089 106.579 175.253 110.28 175.984C115.122 176.938 120.151 177.138 125.071 176.71C129.36 176.333 133.717 175.486 137.621 173.726C140.128 172.595 142.916 170.883 143.859 168.272C144.042 167.76 144.135 167.225 144.14 166.685C144.14 166.461 143.77 166.461 143.77 166.685V166.671Z" fill="#2B63A8"/>
<path d="M119.607 168.974L128.673 171.385C128.673 171.488 128.584 171.502 128.53 171.539C127.854 171.967 127.178 172.391 126.507 172.819C126.364 172.912 126.245 172.935 126.097 172.893C123.269 172.135 120.441 171.385 117.609 170.636C117.466 170.599 117.372 170.529 117.308 170.408C117.179 170.171 117.056 169.933 116.898 169.714C116.755 169.514 116.78 169.398 117.046 169.24C117.614 168.9 118.181 168.556 118.714 168.16C119.38 167.662 119.963 167.099 120.348 166.387C120.738 165.67 120.831 164.967 120.599 164.283C120.53 164.078 120.451 164.041 120.214 164.19C118.606 165.214 116.992 166.229 115.378 167.248C115.24 167.336 115.107 167.42 114.909 167.541C114.988 166.922 115.062 166.364 115.136 165.8C115.151 165.675 115.284 165.637 115.373 165.582C116.676 164.758 117.984 163.934 119.292 163.106C119.375 163.054 119.514 163.022 119.509 162.924C119.509 162.831 119.38 162.822 119.297 162.789C118.472 162.445 117.614 162.673 116.745 163.078C115.714 163.557 114.776 164.213 113.809 164.818C113.705 164.884 113.601 164.949 113.438 165.051C113.517 164.437 113.591 163.874 113.661 163.315C113.67 163.227 113.749 163.185 113.818 163.143C116.859 161.225 119.904 159.303 122.939 157.391C123.037 157.432 122.988 157.521 122.978 157.586C122.924 158.023 122.855 158.456 122.815 158.894C122.796 159.099 122.707 159.21 122.519 159.327C121.794 159.769 121.078 160.229 120.323 160.704C120.545 160.793 120.743 160.862 120.935 160.951C121.187 161.067 121.419 161.216 121.606 161.412C121.725 161.537 121.828 161.523 121.996 161.412C122.796 160.895 123.605 160.392 124.474 159.843C124.424 160.229 124.34 160.574 124.345 160.9C124.355 161.463 124.103 161.844 123.526 162.114C123.23 162.254 122.963 162.463 122.682 162.636C122.559 162.71 122.509 162.775 122.549 162.91C123.013 164.381 122.519 165.796 121.458 167.164C120.984 167.774 120.422 168.304 119.79 168.77C119.731 168.812 119.677 168.858 119.622 168.905C119.607 168.914 119.607 168.937 119.588 168.979L119.607 168.974Z" fill="white"/>
<path d="M123.19 170.91C136.273 170.91 146.879 166.407 146.879 160.853C146.879 155.298 136.273 150.795 123.19 150.795C110.107 150.795 99.5015 155.298 99.5015 160.853C99.5015 166.407 110.107 170.91 123.19 170.91Z" fill="#BF8B0A"/>
<path d="M146.692 160.853C146.662 163.45 144.387 165.381 142.215 166.643C138.914 168.555 135.03 169.556 131.23 170.142C126.517 170.868 121.665 170.934 116.928 170.384C112.905 169.914 108.799 169.007 105.197 167.201C102.887 166.042 100.271 164.255 99.7631 161.658C99.2548 159.061 101.199 157.018 103.228 155.65C106.253 153.611 109.974 152.522 113.582 151.833C118.235 150.949 123.052 150.763 127.775 151.159C131.965 151.508 136.229 152.313 140.064 153.988C142.561 155.077 145.438 156.729 146.405 159.317C146.593 159.815 146.687 160.332 146.692 160.858C146.692 161.081 147.062 161.081 147.062 160.858C147.032 158.275 144.915 156.301 142.763 154.984C139.397 152.922 135.351 151.861 131.427 151.252C126.517 150.484 121.453 150.419 116.518 151.033C112.427 151.54 108.242 152.499 104.614 154.421C102.32 155.636 99.8174 157.497 99.3831 160.108C98.9735 162.556 100.661 164.646 102.611 166.065C105.641 168.271 109.5 169.435 113.202 170.166C118.043 171.12 123.072 171.32 127.992 170.892C132.281 170.515 136.639 169.668 140.542 167.908C143.049 166.777 145.838 165.065 146.78 162.454C146.963 161.942 147.057 161.407 147.062 160.867C147.062 160.643 146.692 160.643 146.692 160.867V160.853Z" fill="#2B63A8"/>
<path d="M123.19 167.504C136.273 167.504 146.879 163.001 146.879 157.446C146.879 151.892 136.273 147.389 123.19 147.389C110.107 147.389 99.5015 151.892 99.5015 157.446C99.5015 163.001 110.107 167.504 123.19 167.504Z" fill="#FCBC00"/>
<path d="M146.692 157.446C146.662 160.043 144.387 161.975 142.215 163.236C138.914 165.149 135.03 166.149 131.23 166.736C126.517 167.462 121.665 167.527 116.928 166.978C112.905 166.508 108.799 165.6 105.197 163.794C102.887 162.636 100.271 160.848 99.7631 158.251C99.2548 155.654 101.199 153.611 103.228 152.243C106.253 150.205 109.974 149.116 113.582 148.427C118.235 147.542 123.052 147.356 127.775 147.752C131.965 148.101 136.229 148.906 140.064 150.582C142.561 151.671 145.438 153.323 146.405 155.91C146.593 156.408 146.687 156.925 146.692 157.451C146.692 157.674 147.062 157.674 147.062 157.451C147.032 154.868 144.915 152.895 142.763 151.578C139.397 149.516 135.351 148.455 131.427 147.845C126.517 147.077 121.453 147.012 116.518 147.626C112.427 148.134 108.242 149.092 104.614 151.014C102.32 152.229 99.8174 154.091 99.3831 156.702C98.9735 159.15 100.661 161.239 102.611 162.659C105.641 164.865 109.5 166.028 113.202 166.759C118.043 167.713 123.072 167.913 127.992 167.485C132.281 167.108 136.639 166.261 140.542 164.502C143.049 163.371 145.838 161.658 146.78 159.047C146.963 158.535 147.057 158 147.062 157.46C147.062 157.237 146.692 157.237 146.692 157.46V157.446Z" fill="#2B63A8"/>
<path d="M122.529 159.75L131.595 162.161C131.595 162.263 131.506 162.277 131.452 162.314C130.775 162.743 130.099 163.166 129.428 163.594C129.285 163.687 129.167 163.711 129.019 163.669C126.191 162.91 123.363 162.161 120.53 161.411C120.387 161.374 120.293 161.304 120.229 161.183C120.101 160.946 119.977 160.709 119.819 160.49C119.676 160.29 119.701 160.174 119.967 160.015C120.535 159.676 121.103 159.331 121.636 158.936C122.302 158.438 122.884 157.874 123.269 157.162C123.659 156.446 123.753 155.743 123.521 155.059C123.452 154.854 123.373 154.817 123.136 154.966C121.527 155.99 119.913 157.004 118.299 158.023C118.161 158.112 118.028 158.196 117.831 158.317C117.91 157.698 117.984 157.139 118.058 156.576C118.072 156.45 118.206 156.413 118.294 156.357C119.597 155.533 120.905 154.71 122.213 153.881C122.297 153.83 122.435 153.797 122.43 153.7C122.43 153.607 122.302 153.597 122.218 153.565C121.394 153.22 120.535 153.448 119.666 153.853C118.635 154.333 117.697 154.989 116.73 155.594C116.626 155.659 116.523 155.724 116.36 155.827C116.439 155.212 116.513 154.649 116.582 154.091C116.592 154.002 116.671 153.96 116.74 153.918C119.78 152.001 122.825 150.079 125.86 148.166C125.959 148.208 125.909 148.296 125.9 148.362C125.845 148.799 125.776 149.232 125.737 149.669C125.717 149.874 125.628 149.986 125.441 150.102C124.715 150.544 123.999 151.005 123.244 151.48C123.467 151.568 123.664 151.638 123.856 151.726C124.108 151.843 124.34 151.992 124.528 152.187C124.646 152.313 124.75 152.299 124.917 152.187C125.717 151.671 126.526 151.168 127.395 150.619C127.346 151.005 127.262 151.349 127.267 151.675C127.276 152.238 127.025 152.62 126.447 152.89C126.151 153.03 125.885 153.239 125.603 153.411C125.48 153.486 125.431 153.551 125.47 153.686C125.934 155.156 125.441 156.571 124.38 157.94C123.906 158.549 123.343 159.08 122.711 159.545C122.652 159.587 122.598 159.634 122.544 159.68C122.529 159.689 122.529 159.713 122.509 159.755L122.529 159.75Z" fill="white"/>
<path d="M117.353 163.413C130.436 163.413 141.042 158.91 141.042 153.355C141.042 147.801 130.436 143.298 117.353 143.298C104.27 143.298 93.6641 147.801 93.6641 153.355C93.6641 158.91 104.27 163.413 117.353 163.413Z" fill="#BF8B0A"/>
<path d="M140.854 153.355C140.824 155.952 138.549 157.884 136.378 159.145C133.076 161.058 129.192 162.058 125.392 162.645C120.679 163.371 115.828 163.436 111.09 162.887C107.068 162.417 102.962 161.509 99.3589 159.703C97.0492 158.545 94.4336 156.757 93.9252 154.16C93.4169 151.564 95.3614 149.52 97.3897 148.152C100.415 146.114 104.136 145.025 107.744 144.336C112.398 143.452 117.214 143.265 121.937 143.661C126.127 144.01 130.391 144.815 134.226 146.491C136.723 147.58 139.6 149.232 140.567 151.819C140.755 152.317 140.849 152.834 140.854 153.36C140.854 153.583 141.224 153.583 141.224 153.36C141.194 150.777 139.077 148.804 136.925 147.487C133.56 145.425 129.513 144.364 125.589 143.754C120.679 142.986 115.615 142.921 110.68 143.535C106.589 144.043 102.404 145.001 98.7765 146.923C96.4816 148.138 93.9795 150 93.5452 152.611C93.1356 155.059 94.8234 157.148 96.7728 158.568C99.803 160.774 103.662 161.937 107.364 162.668C112.205 163.622 117.234 163.822 122.154 163.394C126.443 163.017 130.801 162.17 134.705 160.411C137.212 159.28 140 157.567 140.943 154.956C141.125 154.444 141.219 153.909 141.224 153.369C141.224 153.146 140.854 153.146 140.854 153.369V153.355Z" fill="#2B63A8"/>
<path d="M117.353 160.006C130.436 160.006 141.042 155.503 141.042 149.949C141.042 144.394 130.436 139.891 117.353 139.891C104.27 139.891 93.6641 144.394 93.6641 149.949C93.6641 155.503 104.27 160.006 117.353 160.006Z" fill="#FCBC00"/>
<path d="M140.854 149.949C140.824 152.546 138.549 154.477 136.378 155.738C133.076 157.651 129.192 158.652 125.392 159.238C120.679 159.964 115.828 160.029 111.09 159.48C107.068 159.01 102.962 158.103 99.3589 156.297C97.0492 155.138 94.4336 153.351 93.9252 150.754C93.4169 148.157 95.3614 146.114 97.3897 144.745C100.415 142.707 104.136 141.618 107.744 140.929C112.398 140.045 117.214 139.859 121.937 140.254C126.127 140.603 130.391 141.408 134.226 143.084C136.723 144.173 139.6 145.825 140.567 148.413C140.755 148.911 140.849 149.427 140.854 149.953C140.854 150.177 141.224 150.177 141.224 149.953C141.194 147.37 139.077 145.397 136.925 144.08C133.56 142.018 129.513 140.957 125.589 140.347C120.679 139.579 115.615 139.514 110.68 140.129C106.589 140.636 102.404 141.595 98.7765 143.517C96.4816 144.731 93.9795 146.593 93.5452 149.204C93.1356 151.652 94.8234 153.742 96.7728 155.161C99.803 157.367 103.662 158.531 107.364 159.261C112.205 160.215 117.234 160.416 122.154 159.987C126.443 159.61 130.801 158.763 134.705 157.004C137.212 155.873 140 154.161 140.943 151.55C141.125 151.038 141.219 150.502 141.224 149.963C141.224 149.739 140.854 149.739 140.854 149.963V149.949Z" fill="#2B63A8"/>
<path d="M116.686 152.252L125.752 154.663C125.752 154.765 125.663 154.779 125.609 154.817C124.933 155.245 124.257 155.668 123.585 156.096C123.442 156.19 123.324 156.213 123.176 156.171C120.348 155.412 117.52 154.663 114.687 153.914C114.544 153.876 114.45 153.807 114.386 153.686C114.258 153.448 114.135 153.211 113.977 152.992C113.834 152.792 113.858 152.676 114.125 152.517C114.692 152.178 115.26 151.833 115.793 151.438C116.459 150.94 117.041 150.377 117.426 149.665C117.816 148.948 117.91 148.245 117.678 147.561C117.609 147.356 117.53 147.319 117.293 147.468C115.684 148.492 114.07 149.506 112.457 150.526C112.318 150.614 112.185 150.698 111.988 150.819C112.067 150.2 112.141 149.641 112.215 149.078C112.23 148.952 112.363 148.915 112.452 148.859C113.755 148.036 115.062 147.212 116.37 146.383C116.454 146.332 116.592 146.3 116.587 146.202C116.587 146.109 116.459 146.1 116.375 146.067C115.551 145.723 114.692 145.951 113.824 146.356C112.792 146.835 111.855 147.491 110.887 148.096C110.784 148.161 110.68 148.226 110.517 148.329C110.596 147.715 110.67 147.151 110.739 146.593C110.749 146.504 110.828 146.463 110.897 146.421C113.937 144.503 116.982 142.581 120.017 140.668C120.116 140.71 120.067 140.799 120.057 140.864C120.002 141.301 119.933 141.734 119.894 142.172C119.874 142.376 119.785 142.488 119.598 142.604C118.872 143.046 118.157 143.507 117.402 143.982C117.624 144.07 117.821 144.14 118.014 144.229C118.265 144.345 118.497 144.494 118.685 144.689C118.803 144.815 118.907 144.801 119.075 144.689C119.874 144.173 120.684 143.67 121.552 143.121C121.503 143.507 121.419 143.852 121.424 144.177C121.434 144.741 121.182 145.122 120.605 145.392C120.308 145.532 120.042 145.741 119.761 145.913C119.637 145.988 119.588 146.053 119.627 146.188C120.091 147.659 119.598 149.073 118.537 150.442C118.063 151.051 117.5 151.582 116.869 152.047C116.809 152.089 116.755 152.136 116.701 152.182C116.686 152.192 116.686 152.215 116.666 152.257L116.686 152.252Z" fill="white"/>
<path d="M117.194 155.659C130.19 155.659 140.725 151.156 140.725 145.602C140.725 140.047 130.19 135.544 117.194 135.544C104.199 135.544 93.6636 140.047 93.6636 145.602C93.6636 151.156 104.199 155.659 117.194 155.659Z" fill="#BF8B0A"/>
<path d="M140.538 145.602C140.508 148.208 138.228 150.153 136.042 151.419C132.785 153.304 128.965 154.3 125.224 154.882C120.521 155.617 115.669 155.682 110.942 155.124C106.954 154.654 102.882 153.742 99.3143 151.941C97.0145 150.777 94.4334 148.994 93.9251 146.407C93.4168 143.819 95.3365 141.776 97.3501 140.408C100.341 138.374 104.022 137.28 107.6 136.591C112.21 135.707 116.987 135.512 121.671 135.898C125.836 136.242 130.07 137.043 133.885 138.7C136.392 139.793 139.284 141.45 140.251 144.052C140.439 144.555 140.533 145.071 140.538 145.602C140.538 145.825 140.908 145.825 140.908 145.602C140.878 143.028 138.791 141.059 136.649 139.733C133.288 137.657 129.241 136.596 125.318 135.982C120.442 135.218 115.423 135.163 110.527 135.777C106.49 136.284 102.369 137.238 98.7961 139.128C96.4914 140.347 93.9794 142.218 93.5451 144.843C93.1355 147.305 94.8282 149.404 96.7825 150.828C99.7979 153.02 103.628 154.184 107.309 154.91C112.111 155.855 117.106 156.059 121.986 155.627C126.241 155.25 130.559 154.402 134.428 152.643C136.925 151.508 139.684 149.8 140.622 147.198C140.809 146.681 140.898 146.146 140.908 145.602C140.908 145.378 140.538 145.378 140.538 145.602Z" fill="#2B63A8"/>
<path d="M117.194 152.252C130.19 152.252 140.725 147.749 140.725 142.195C140.725 136.64 130.19 132.137 117.194 132.137C104.199 132.137 93.6636 136.64 93.6636 142.195C93.6636 147.749 104.199 152.252 117.194 152.252Z" fill="#FCBC00"/>
<path d="M140.538 142.195C140.508 144.801 138.228 146.747 136.042 148.013C132.785 149.897 128.965 150.893 125.224 151.475C120.521 152.21 115.669 152.276 110.942 151.717C106.954 151.247 102.882 150.335 99.3143 148.534C97.0145 147.37 94.4334 145.588 93.9251 143C93.4168 140.412 95.3365 138.369 97.3501 137.001C100.341 134.967 104.022 133.874 107.6 133.185C112.21 132.3 116.987 132.105 121.671 132.491C125.836 132.836 130.07 133.636 133.885 135.293C136.392 136.387 139.284 138.044 140.251 140.645C140.439 141.148 140.533 141.664 140.538 142.195C140.538 142.418 140.908 142.418 140.908 142.195C140.878 139.621 138.791 137.653 136.649 136.326C133.288 134.25 129.241 133.189 125.318 132.575C120.442 131.812 115.423 131.756 110.527 132.37C106.49 132.878 102.369 133.832 98.7961 135.721C96.4914 136.941 93.9794 138.811 93.5451 141.436C93.1355 143.898 94.8282 145.997 96.7825 147.421C99.7979 149.614 103.628 150.777 107.309 151.503C112.111 152.448 117.106 152.653 121.986 152.22C126.241 151.843 130.559 150.996 134.428 149.237C136.925 148.101 139.684 146.393 140.622 143.791C140.809 143.275 140.898 142.739 140.908 142.195C140.908 141.972 140.538 141.972 140.538 142.195Z" fill="#2B63A8"/>
<path d="M116.533 144.499L125.54 146.91C125.54 147.012 125.456 147.026 125.402 147.063C124.73 147.491 124.059 147.915 123.393 148.343C123.25 148.436 123.131 148.459 122.983 148.417C120.175 147.659 117.362 146.91 114.549 146.16C114.406 146.123 114.312 146.053 114.248 145.932C114.12 145.695 113.996 145.457 113.838 145.239C113.695 145.039 113.725 144.922 113.987 144.764C114.554 144.424 115.117 144.08 115.645 143.684C116.306 143.186 116.883 142.623 117.268 141.911C117.658 141.194 117.752 140.492 117.52 139.807C117.451 139.603 117.372 139.565 117.14 139.714C115.541 140.738 113.937 141.753 112.338 142.772C112.2 142.861 112.067 142.944 111.874 143.065C111.953 142.446 112.027 141.888 112.101 141.325C112.116 141.199 112.244 141.162 112.338 141.106C113.636 140.282 114.934 139.458 116.227 138.63C116.306 138.579 116.444 138.546 116.444 138.448C116.444 138.355 116.316 138.346 116.237 138.313C115.418 137.969 114.564 138.197 113.705 138.602C112.684 139.081 111.751 139.738 110.789 140.343C110.685 140.408 110.586 140.473 110.423 140.575C110.502 139.961 110.576 139.398 110.645 138.839C110.655 138.751 110.729 138.709 110.798 138.667C113.819 136.75 116.839 134.828 119.859 132.915C119.958 132.957 119.909 133.045 119.899 133.11C119.845 133.548 119.775 133.981 119.741 134.418C119.721 134.623 119.632 134.735 119.445 134.851C118.724 135.293 118.014 135.754 117.263 136.228C117.486 136.317 117.683 136.387 117.871 136.475C118.122 136.592 118.354 136.74 118.537 136.936C118.655 137.062 118.759 137.048 118.927 136.936C119.721 136.419 120.526 135.917 121.389 135.367C121.34 135.754 121.256 136.098 121.261 136.424C121.271 136.987 121.019 137.369 120.447 137.639C120.155 137.778 119.889 137.988 119.608 138.16C119.484 138.234 119.435 138.3 119.479 138.435C119.943 139.905 119.45 141.32 118.399 142.688C117.93 143.298 117.372 143.829 116.74 144.294C116.681 144.336 116.627 144.382 116.573 144.429C116.558 144.438 116.558 144.462 116.538 144.503L116.533 144.499Z" fill="white"/>
<path d="M124.39 147.58C137.386 147.58 147.921 143.077 147.921 137.522C147.921 131.968 137.386 127.465 124.39 127.465C111.394 127.465 100.859 131.968 100.859 137.522C100.859 143.077 111.394 147.58 124.39 147.58Z" fill="#BF8B0A"/>
<path d="M147.733 137.522C147.703 140.129 145.423 142.074 143.237 143.34C139.98 145.225 136.16 146.221 132.419 146.803C127.716 147.538 122.865 147.603 118.137 147.045C114.149 146.575 110.078 145.662 106.51 143.861C104.21 142.698 101.629 140.915 101.12 138.328C100.612 135.74 102.532 133.697 104.545 132.329C107.536 130.295 111.218 129.201 114.796 128.512C119.405 127.628 124.182 127.432 128.866 127.819C133.031 128.163 137.266 128.964 141.08 130.621C143.588 131.714 146.48 133.371 147.447 135.973C147.634 136.475 147.728 136.992 147.733 137.522C147.733 137.746 148.103 137.746 148.103 137.522C148.074 134.949 145.986 132.98 143.844 131.654C140.483 129.578 136.436 128.517 132.513 127.903C127.637 127.139 122.618 127.083 117.722 127.698C113.685 128.205 109.564 129.159 105.991 131.049C103.687 132.268 101.175 134.139 100.74 136.764C100.331 139.226 102.024 141.325 103.978 142.749C106.993 144.941 110.823 146.105 114.505 146.831C119.306 147.775 124.301 147.98 129.182 147.547C133.436 147.17 137.754 146.323 141.623 144.564C144.12 143.428 146.879 141.72 147.817 139.119C148.004 138.602 148.093 138.067 148.103 137.522C148.103 137.299 147.733 137.299 147.733 137.522Z" fill="#2B63A8"/>
<path d="M124.39 144.173C137.386 144.173 147.921 139.67 147.921 134.115C147.921 128.561 137.386 124.058 124.39 124.058C111.394 124.058 100.859 128.561 100.859 134.115C100.859 139.67 111.394 144.173 124.39 144.173Z" fill="#FCBC00"/>
<path d="M147.733 134.115C147.703 136.722 145.423 138.667 143.237 139.933C139.98 141.818 136.16 142.814 132.419 143.395C127.716 144.131 122.865 144.196 118.137 143.637C114.149 143.167 110.078 142.255 106.51 140.454C104.21 139.291 101.629 137.508 101.12 134.92C100.612 132.333 102.532 130.29 104.545 128.921C107.536 126.888 111.218 125.794 114.796 125.105C119.405 124.221 124.182 124.025 128.866 124.412C133.031 124.756 137.266 125.557 141.08 127.213C143.588 128.307 146.48 129.964 147.447 132.566C147.634 133.068 147.728 133.585 147.733 134.115C147.733 134.339 148.103 134.339 148.103 134.115C148.074 131.542 145.986 129.573 143.844 128.247C140.483 126.171 136.436 125.11 132.513 124.495C127.637 123.732 122.618 123.676 117.722 124.291C113.685 124.798 109.564 125.752 105.991 127.642C103.687 128.861 101.175 130.732 100.74 133.357C100.331 135.819 102.024 137.918 103.978 139.342C106.993 141.534 110.823 142.697 114.505 143.423C119.306 144.368 124.301 144.573 129.182 144.14C133.436 143.763 137.754 142.916 141.623 141.157C144.12 140.021 146.879 138.313 147.817 135.712C148.004 135.195 148.093 134.66 148.103 134.115C148.103 133.892 147.733 133.892 147.733 134.115Z" fill="#2B63A8"/>
<path d="M123.729 136.419L132.736 138.83C132.736 138.932 132.652 138.946 132.597 138.984C131.926 139.412 131.255 139.835 130.589 140.263C130.446 140.357 130.327 140.38 130.179 140.338C127.371 139.579 124.558 138.83 121.745 138.081C121.602 138.044 121.508 137.974 121.444 137.853C121.316 137.615 121.192 137.378 121.034 137.159C120.891 136.959 120.921 136.843 121.182 136.685C121.75 136.345 122.312 136 122.841 135.605C123.502 135.107 124.079 134.544 124.464 133.832C124.854 133.115 124.948 132.412 124.716 131.728C124.647 131.523 124.568 131.486 124.336 131.635C122.737 132.659 121.133 133.673 119.534 134.693C119.396 134.781 119.263 134.865 119.07 134.986C119.149 134.367 119.223 133.808 119.297 133.245C119.312 133.12 119.44 133.082 119.534 133.026C120.832 132.203 122.13 131.379 123.423 130.55C123.502 130.499 123.64 130.467 123.64 130.369C123.64 130.276 123.512 130.267 123.433 130.234C122.614 129.89 121.76 130.118 120.901 130.523C119.879 131.002 118.947 131.658 117.984 132.263C117.881 132.328 117.782 132.393 117.619 132.496C117.698 131.882 117.772 131.318 117.841 130.76C117.851 130.671 117.925 130.63 117.994 130.588C121.015 128.67 124.035 126.748 127.055 124.835C127.154 124.877 127.105 124.966 127.095 125.031C127.04 125.468 126.971 125.901 126.937 126.339C126.917 126.543 126.828 126.655 126.641 126.771C125.92 127.214 125.209 127.674 124.459 128.149C124.681 128.237 124.879 128.307 125.066 128.396C125.318 128.512 125.55 128.661 125.733 128.856C125.851 128.982 125.955 128.968 126.122 128.856C126.917 128.34 127.721 127.837 128.585 127.288C128.536 127.674 128.452 128.019 128.457 128.344C128.467 128.908 128.215 129.289 127.642 129.559C127.351 129.699 127.085 129.908 126.803 130.08C126.68 130.155 126.631 130.22 126.675 130.355C127.139 131.826 126.646 133.241 125.594 134.609C125.126 135.219 124.568 135.749 123.936 136.214C123.877 136.256 123.823 136.303 123.768 136.349C123.754 136.359 123.754 136.382 123.734 136.424L123.729 136.419Z" fill="white"/>
<path d="M119.534 138.578C132.53 138.578 143.065 134.075 143.065 128.521C143.065 122.966 132.53 118.463 119.534 118.463C106.538 118.463 96.0029 122.966 96.0029 128.521C96.0029 134.075 106.538 138.578 119.534 138.578Z" fill="#BF8B0A"/>
<path d="M142.877 128.521C142.847 131.127 140.567 133.073 138.381 134.339C135.124 136.224 131.304 137.22 127.563 137.801C122.86 138.537 118.009 138.602 113.281 138.043C109.293 137.573 105.222 136.661 101.654 134.86C99.3539 133.696 96.7728 131.914 96.2644 129.326C95.7561 126.739 97.6759 124.696 99.6894 123.327C102.68 121.293 106.362 120.2 109.94 119.511C114.549 118.627 119.326 118.431 124.01 118.817C128.175 119.162 132.41 119.962 136.224 121.619C138.732 122.713 141.624 124.37 142.591 126.971C142.778 127.474 142.872 127.991 142.877 128.521C142.877 128.745 143.247 128.745 143.247 128.521C143.218 125.947 141.13 123.979 138.988 122.652C135.627 120.577 131.58 119.516 127.657 118.901C122.781 118.138 117.762 118.082 112.866 118.696C108.829 119.204 104.709 120.158 101.135 122.047C98.8307 123.267 96.3187 125.138 95.8844 127.763C95.4748 130.225 97.1676 132.324 99.1219 133.748C102.137 135.94 105.967 137.103 109.649 137.829C114.451 138.774 119.445 138.979 124.326 138.546C128.58 138.169 132.898 137.322 136.767 135.563C139.265 134.427 142.023 132.719 142.961 130.118C143.149 129.601 143.237 129.066 143.247 128.521C143.247 128.298 142.877 128.298 142.877 128.521Z" fill="#2B63A8"/>
<path d="M119.534 135.177C132.53 135.177 143.065 130.674 143.065 125.12C143.065 119.565 132.53 115.062 119.534 115.062C106.538 115.062 96.0029 119.565 96.0029 125.12C96.0029 130.674 106.538 135.177 119.534 135.177Z" fill="#FCBC00"/>
<path d="M142.877 125.119C142.847 127.726 140.567 129.671 138.381 130.937C135.124 132.822 131.304 133.818 127.563 134.4C122.86 135.135 118.009 135.2 113.281 134.642C109.293 134.172 105.222 133.259 101.654 131.458C99.3539 130.295 96.7728 128.512 96.2644 125.925C95.7561 123.337 97.6759 121.294 99.6894 119.925C102.68 117.892 106.362 116.798 109.94 116.109C114.549 115.225 119.326 115.029 124.01 115.416C128.175 115.76 132.41 116.561 136.224 118.217C138.732 119.311 141.624 120.968 142.591 123.57C142.778 124.072 142.872 124.589 142.877 125.119C142.877 125.343 143.247 125.343 143.247 125.119C143.218 122.546 141.13 120.577 138.988 119.251C135.627 117.175 131.58 116.114 127.657 115.499C122.781 114.736 117.762 114.68 112.866 115.295C108.829 115.802 104.709 116.756 101.135 118.646C98.8307 119.865 96.3187 121.736 95.8844 124.361C95.4748 126.823 97.1676 128.922 99.1219 130.346C102.137 132.538 105.967 133.701 109.649 134.427C114.451 135.372 119.445 135.577 124.326 135.144C128.58 134.767 132.898 133.92 136.767 132.161C139.265 131.025 142.023 129.317 142.961 126.716C143.149 126.199 143.237 125.664 143.247 125.119C143.247 124.896 142.877 124.896 142.877 125.119Z" fill="#2B63A8"/>
<path d="M118.877 127.423L127.884 129.834C127.884 129.936 127.8 129.95 127.746 129.988C127.075 130.416 126.403 130.839 125.737 131.267C125.594 131.36 125.476 131.384 125.328 131.342C122.519 130.583 119.706 129.834 116.893 129.085C116.75 129.047 116.656 128.978 116.592 128.857C116.464 128.619 116.341 128.382 116.183 128.163C116.04 127.963 116.069 127.847 116.331 127.688C116.898 127.349 117.461 127.004 117.989 126.609C118.65 126.111 119.228 125.548 119.613 124.836C120.003 124.119 120.096 123.416 119.864 122.732C119.795 122.527 119.716 122.49 119.484 122.639C117.885 123.663 116.281 124.677 114.682 125.697C114.544 125.785 114.411 125.869 114.219 125.99C114.297 125.371 114.372 124.812 114.446 124.249C114.46 124.123 114.589 124.086 114.682 124.03C115.98 123.207 117.278 122.383 118.571 121.554C118.65 121.503 118.788 121.471 118.788 121.373C118.788 121.28 118.66 121.271 118.581 121.238C117.762 120.894 116.908 121.122 116.049 121.526C115.028 122.006 114.095 122.662 113.133 123.267C113.029 123.332 112.93 123.397 112.768 123.5C112.847 122.885 112.921 122.322 112.99 121.764C113 121.675 113.074 121.634 113.143 121.592C116.163 119.674 119.183 117.752 122.204 115.839C122.302 115.881 122.253 115.97 122.243 116.035C122.189 116.472 122.12 116.905 122.085 117.342C122.065 117.547 121.977 117.659 121.789 117.775C121.069 118.217 120.358 118.678 119.608 119.153C119.83 119.241 120.027 119.311 120.215 119.4C120.466 119.516 120.698 119.665 120.881 119.86C120.999 119.986 121.103 119.972 121.271 119.86C122.065 119.344 122.87 118.841 123.734 118.292C123.684 118.678 123.6 119.023 123.605 119.348C123.615 119.912 123.363 120.293 122.791 120.563C122.5 120.703 122.233 120.912 121.952 121.084C121.829 121.159 121.779 121.224 121.824 121.359C122.288 122.83 121.794 124.244 120.743 125.613C120.274 126.222 119.716 126.753 119.085 127.218C119.025 127.26 118.971 127.307 118.917 127.353C118.902 127.363 118.902 127.386 118.882 127.428L118.877 127.423Z" fill="white"/>
<path d="M126.231 128.633C139.226 128.633 149.761 124.13 149.761 118.576C149.761 113.021 139.226 108.518 126.231 108.518C113.235 108.518 102.7 113.021 102.7 118.576C102.7 124.13 113.235 128.633 126.231 128.633Z" fill="#BF8B0A"/>
<path d="M149.574 118.576C149.544 121.182 147.264 123.127 145.078 124.393C141.821 126.278 138.001 127.274 134.26 127.856C129.557 128.591 124.706 128.656 119.978 128.098C115.99 127.628 111.919 126.716 108.35 124.914C106.051 123.751 103.47 121.968 102.961 119.381C102.453 116.793 104.373 114.75 106.386 113.382C109.377 111.348 113.059 110.254 116.637 109.565C121.246 108.681 126.023 108.486 130.707 108.872C134.872 109.216 139.106 110.017 142.921 111.674C145.428 112.767 148.32 114.424 149.288 117.026C149.475 117.529 149.569 118.045 149.574 118.576C149.574 118.799 149.944 118.799 149.944 118.576C149.914 116.002 147.827 114.033 145.685 112.707C142.324 110.631 138.277 109.57 134.354 108.956C129.478 108.193 124.459 108.137 119.563 108.751C115.526 109.258 111.405 110.212 107.832 112.102C105.528 113.321 103.016 115.192 102.581 117.817C102.172 120.279 103.864 122.378 105.819 123.802C108.834 125.994 112.664 127.158 116.345 127.884C121.147 128.829 126.142 129.033 131.023 128.601C135.277 128.224 139.595 127.376 143.464 125.617C145.961 124.482 148.72 122.774 149.658 120.172C149.845 119.655 149.934 119.12 149.944 118.576C149.944 118.352 149.574 118.352 149.574 118.576Z" fill="#2B63A8"/>
<path d="M126.231 125.226C139.226 125.226 149.761 120.723 149.761 115.169C149.761 109.614 139.226 105.111 126.231 105.111C113.235 105.111 102.7 109.614 102.7 115.169C102.7 120.723 113.235 125.226 126.231 125.226Z" fill="#FCBC00"/>
<path d="M149.574 115.169C149.544 117.775 147.264 119.72 145.078 120.986C141.821 122.871 138.001 123.867 134.26 124.449C129.557 125.184 124.706 125.249 119.978 124.691C115.99 124.221 111.919 123.309 108.35 121.508C106.051 120.344 103.47 118.562 102.961 115.974C102.453 113.386 104.373 111.343 106.386 109.975C109.377 107.941 113.059 106.847 116.637 106.158C121.246 105.274 126.023 105.079 130.707 105.465C134.872 105.809 139.106 106.61 142.921 108.267C145.428 109.36 148.32 111.017 149.288 113.619C149.475 114.122 149.569 114.638 149.574 115.169C149.574 115.392 149.944 115.392 149.944 115.169C149.914 112.595 147.827 110.626 145.685 109.3C142.324 107.224 138.277 106.163 134.354 105.549C129.478 104.786 124.459 104.73 119.563 105.344C115.526 105.851 111.405 106.805 107.832 108.695C105.528 109.914 103.016 111.785 102.581 114.41C102.172 116.872 103.864 118.971 105.819 120.395C108.834 122.587 112.664 123.751 116.345 124.477C121.147 125.422 126.142 125.626 131.023 125.194C135.277 124.817 139.595 123.97 143.464 122.21C145.961 121.075 148.72 119.367 149.658 116.765C149.845 116.248 149.934 115.713 149.944 115.169C149.944 114.945 149.574 114.945 149.574 115.169Z" fill="#2B63A8"/>
<path d="M125.575 117.473L134.581 119.883C134.581 119.986 134.497 120 134.443 120.037C133.772 120.465 133.101 120.889 132.434 121.317C132.291 121.41 132.173 121.433 132.025 121.391C129.217 120.633 126.404 119.883 123.591 119.134C123.448 119.097 123.354 119.027 123.29 118.906C123.161 118.669 123.038 118.431 122.88 118.213C122.737 118.013 122.766 117.896 123.028 117.738C123.596 117.398 124.158 117.054 124.686 116.658C125.348 116.16 125.925 115.597 126.31 114.885C126.7 114.168 126.794 113.466 126.562 112.781C126.493 112.577 126.414 112.539 126.182 112.688C124.583 113.712 122.979 114.727 121.38 115.746C121.241 115.834 121.108 115.918 120.916 116.039C120.995 115.42 121.069 114.862 121.143 114.299C121.158 114.173 121.286 114.136 121.38 114.08C122.678 113.256 123.976 112.432 125.269 111.604C125.348 111.553 125.486 111.52 125.486 111.422C125.486 111.329 125.357 111.32 125.278 111.287C124.459 110.943 123.605 111.171 122.747 111.576C121.725 112.055 120.792 112.712 119.83 113.317C119.726 113.382 119.628 113.447 119.465 113.549C119.544 112.935 119.618 112.372 119.687 111.813C119.697 111.725 119.771 111.683 119.84 111.641C122.86 109.724 125.881 107.802 128.901 105.889C129 105.931 128.95 106.019 128.94 106.084C128.886 106.522 128.817 106.955 128.782 107.392C128.763 107.597 128.674 107.708 128.486 107.825C127.766 108.267 127.055 108.728 126.305 109.202C126.527 109.291 126.724 109.361 126.912 109.449C127.164 109.565 127.396 109.714 127.578 109.91C127.697 110.035 127.8 110.022 127.968 109.91C128.763 109.393 129.567 108.891 130.431 108.341C130.381 108.728 130.298 109.072 130.302 109.398C130.312 109.961 130.061 110.343 129.488 110.613C129.197 110.752 128.93 110.962 128.649 111.134C128.526 111.208 128.476 111.273 128.521 111.408C128.985 112.879 128.491 114.294 127.44 115.662C126.971 116.272 126.414 116.802 125.782 117.268C125.723 117.31 125.668 117.356 125.614 117.403C125.599 117.412 125.599 117.435 125.58 117.477L125.575 117.473Z" fill="white"/>
<path d="M88.521 185.445C99.1482 185.445 107.763 177.321 107.763 167.299C107.763 157.277 99.1482 149.153 88.521 149.153C77.8938 149.153 69.2788 157.277 69.2788 167.299C69.2788 177.321 77.8938 185.445 88.521 185.445Z" fill="#BF8B0A"/>
<path d="M107.028 171.595C105.098 178.832 98.4951 184.365 90.5939 185.17C82.668 185.98 74.8754 181.917 71.3813 175.164C67.8872 168.411 69.3431 159.983 74.9938 154.631C80.6199 149.302 89.4193 147.826 96.6444 151.038C103.731 154.188 108.143 161.346 107.521 168.714C107.438 169.686 107.27 170.65 107.023 171.599C106.969 171.818 107.324 171.911 107.378 171.692C109.273 164.302 106.095 156.404 99.4032 152.127C92.7111 147.85 83.433 148.008 76.8889 152.625C70.3646 157.223 67.522 165.433 69.9649 172.772C72.3979 180.079 79.5885 185.287 87.7019 185.617C95.7166 185.943 103.327 181.377 106.426 174.406C106.816 173.526 107.132 172.623 107.373 171.697C107.433 171.478 107.072 171.385 107.018 171.604L107.028 171.595Z" fill="#2B63A8"/>
<path d="M86.4878 183.076C97.115 183.076 105.73 174.952 105.73 164.93C105.73 154.908 97.115 146.784 86.4878 146.784C75.8606 146.784 67.2456 154.908 67.2456 164.93C67.2456 174.952 75.8606 183.076 86.4878 183.076Z" fill="#FCBC00"/>
<path d="M104.994 169.226C103.065 176.463 96.4616 181.996 88.5603 182.802C80.6345 183.611 72.8418 179.548 69.3477 172.795C65.8537 166.042 67.3095 157.614 72.9603 152.262C78.5864 146.933 87.3858 145.457 94.6109 148.669C101.836 151.88 106.11 158.977 105.488 166.345C105.404 167.318 105.236 168.281 104.99 169.23C104.935 169.449 105.291 169.542 105.345 169.323C107.24 161.933 104.062 154.035 97.3696 149.758C90.6775 145.481 81.3994 145.639 74.8554 150.256C68.3114 154.873 65.4884 163.064 67.9314 170.403C70.3743 177.743 77.5549 182.918 85.6683 183.248C93.6831 183.574 101.293 179.009 104.392 172.037C104.782 171.157 105.098 170.254 105.34 169.328C105.399 169.109 105.039 169.016 104.985 169.235L104.994 169.226Z" fill="#2B63A8"/>
<path d="M83.9164 164.455L88.1261 174.573C88.0373 174.657 87.9632 174.596 87.8991 174.573C87.065 174.331 86.2359 174.084 85.4019 173.847C85.2193 173.796 85.1255 173.712 85.0564 173.544C83.7486 170.384 82.4309 167.224 81.1132 164.064C81.0491 163.906 81.0392 163.762 81.0984 163.603C81.2119 163.292 81.3304 162.975 81.4093 162.654C81.4784 162.356 81.5969 162.286 81.9176 162.389C82.6036 162.612 83.2896 162.826 84.0003 162.97C84.8886 163.147 85.772 163.194 86.6505 162.938C87.5339 162.682 88.205 162.175 88.6295 161.388C88.7578 161.151 88.7331 161.053 88.4419 160.969C86.4481 160.397 84.4593 159.81 82.4704 159.229C82.3026 159.177 82.1348 159.131 81.893 159.061C82.4803 158.61 83.0083 158.205 83.5413 157.8C83.6598 157.707 83.7831 157.795 83.8917 157.828C85.5055 158.298 87.1144 158.768 88.7282 159.238C88.8269 159.266 88.9503 159.364 89.0391 159.28C89.1181 159.201 89.0391 159.075 89.0095 158.977C88.7331 157.953 87.9435 157.376 86.9959 156.943C85.8707 156.432 84.6567 156.143 83.4722 155.789C83.3439 155.752 83.2205 155.715 83.0182 155.654C83.6005 155.208 84.1335 154.798 84.6616 154.393C84.7455 154.328 84.8294 154.361 84.9182 154.388C88.669 155.487 92.4197 156.585 96.1655 157.679C96.1951 157.805 96.0865 157.832 96.0273 157.879C95.6177 158.2 95.1932 158.503 94.7935 158.833C94.606 158.987 94.4431 159.005 94.2161 158.935C93.3327 158.665 92.4444 158.41 91.5116 158.14C91.5906 158.41 91.6646 158.652 91.7238 158.889C91.7978 159.215 91.8324 159.545 91.7929 159.876C91.7682 160.09 91.8521 160.169 92.0643 160.225C93.0613 160.504 94.0532 160.802 95.1241 161.114C94.7589 161.393 94.4086 161.612 94.1322 161.891C93.6535 162.375 93.1501 162.473 92.5184 162.184C92.1976 162.035 91.8275 161.979 91.4869 161.867C91.3389 161.821 91.25 161.83 91.1612 161.979C90.2235 163.636 88.669 164.385 86.759 164.59C85.9102 164.683 85.0663 164.627 84.2273 164.455C84.1483 164.441 84.0743 164.427 83.9953 164.418C83.9756 164.418 83.9559 164.432 83.9115 164.45L83.9164 164.455Z" fill="white"/>
<path d="M43.028 113.154L35.0972 118.157L69.6187 136.712L77.5544 132.384L43.028 113.154Z" fill="white"/>
<path d="M42.9347 113L34.999 118.008C34.8855 118.078 34.8707 118.24 34.999 118.31L40.0773 121.037L51.4084 127.125L63.1788 133.454L67.349 135.698C68.0251 136.061 68.7062 136.512 69.4218 136.81C69.6093 136.889 69.6833 136.875 69.8758 136.777C70.5716 136.424 71.2478 136.028 71.9288 135.656L77.2835 132.733L77.6487 132.533C77.7671 132.468 77.7671 132.296 77.6487 132.23L65.9227 125.696L47.3764 115.364L43.1223 112.995C42.915 112.879 42.7324 113.181 42.9347 113.298L54.6607 119.832L73.207 130.164L77.4611 132.533V132.23L73.2811 134.511L70.5371 136.01C70.2706 136.159 69.9794 136.289 69.7228 136.452C69.4514 136.624 69.6142 136.452 69.7031 136.554C69.6093 136.447 69.3527 136.368 69.2293 136.298L68.1139 135.698L64.3237 133.659L52.9383 127.539L41.3703 121.321L37.284 119.125L35.9761 118.422C35.7886 118.32 35.4974 118.082 35.2803 118.05C35.2507 118.05 35.2161 118.012 35.1914 117.998V118.301L43.1272 113.293C43.3246 113.168 43.1371 112.865 42.9397 112.991L42.9347 113Z" fill="#2B63A8"/>
<path d="M35.0983 125.897L28.0459 129.704L62.5723 148.259L69.6197 145.132L35.0983 125.897Z" fill="white"/>
<path d="M35.004 125.748L27.9516 129.555C27.8332 129.62 27.8332 129.792 27.9516 129.857L32.798 132.459L43.6652 138.3L55.2628 144.531L62.1227 148.217C62.2264 148.273 62.3645 148.385 62.4781 148.408C62.8482 148.487 63.47 148.05 63.7859 147.91L69.2985 145.462L69.713 145.276C69.8413 145.22 69.8265 145.039 69.713 144.973L57.987 138.439L39.4407 128.107L35.1866 125.738C34.9793 125.622 34.7967 125.924 34.999 126.041L46.725 132.575L65.2714 142.907L69.5255 145.276V144.973L65.0098 146.979L62.7149 147.999C62.6607 148.022 62.5422 148.05 62.5027 148.092C62.4336 148.161 62.6952 148.143 62.6508 148.096C62.6162 148.059 62.5471 148.05 62.5077 148.017C61.8957 147.575 61.1011 147.263 60.4349 146.9L56.4029 144.736L45.1359 138.681L34.0268 132.71L30.128 130.616L28.8794 129.946C28.7116 129.857 28.4254 129.62 28.228 129.596C28.2033 129.596 28.1688 129.564 28.1441 129.55V129.852L35.1965 126.045C35.4037 125.934 35.2162 125.631 35.0089 125.743L35.004 125.748Z" fill="#2B63A8"/>
<path d="M28.0452 137.443L20.0107 142.172L54.5372 160.728L62.5716 156.674L28.0452 137.443Z" fill="white"/>
<path d="M27.9519 137.294L19.9224 142.023C19.8089 142.093 19.799 142.256 19.9224 142.325L25.0007 145.053L36.3318 151.14L48.0627 157.446L52.223 159.68C52.9189 160.053 53.6098 160.49 54.3353 160.816C54.5179 160.9 54.5968 160.89 54.7893 160.802C55.4753 160.485 56.1465 160.118 56.8177 159.778L62.2957 157.014L62.6708 156.823C62.7942 156.762 62.7892 156.585 62.6708 156.52L50.9448 149.986L32.3985 139.654L28.1444 137.285C27.9371 137.169 27.7545 137.471 27.9568 137.588L39.6828 144.122L58.2291 154.454L62.4832 156.823V156.52L58.1946 158.684L55.4161 160.09C55.1595 160.22 54.8584 160.332 54.6166 160.49C54.3748 160.648 54.5327 160.471 54.6166 160.565C54.508 160.448 54.2563 160.369 54.1181 160.295L52.983 159.685L49.1583 157.628L37.7975 151.522L26.2838 145.332L22.1975 143.135L20.8897 142.432C20.7021 142.33 20.411 142.093 20.1938 142.06C20.1642 142.06 20.1296 142.023 20.105 142.009V142.311L28.1345 137.583C28.3368 137.462 28.1493 137.164 27.9469 137.28L27.9519 137.294Z" fill="#2B63A8"/>
<path d="M20.0108 149.911L13.0571 153.811L47.5836 172.367L54.2559 168.444L20.0108 149.911Z" fill="white"/>
<path d="M19.9174 149.762L12.9637 153.662C12.8453 153.728 12.8404 153.9 12.9637 153.965L24.6453 160.243L43.2459 170.24L47.4902 172.521C47.5444 172.553 47.6185 172.553 47.6777 172.521L54.35 168.597C54.4685 168.527 54.4734 168.365 54.35 168.295L42.708 161.993L24.3097 152.033L20.1099 149.762C19.9026 149.651 19.715 149.953 19.9223 150.065L31.5644 156.366L49.9627 166.326L54.1625 168.597V168.295L49.9528 170.771L47.7369 172.074C47.6974 172.097 47.5543 172.153 47.5395 172.19C47.5 172.288 47.6135 172.148 47.6777 172.213C47.6432 172.181 47.5839 172.167 47.5444 172.144C46.9325 171.706 46.1478 171.394 45.4815 171.036L41.4643 168.876L30.2072 162.826L19.0439 156.827L15.1451 154.733L13.9113 154.072C13.7386 153.979 13.4425 153.737 13.245 153.714C13.2204 153.714 13.1858 153.681 13.1611 153.667V153.97L20.1148 150.069C20.3171 149.953 20.1345 149.651 19.9273 149.767L19.9174 149.762Z" fill="#2B63A8"/>
<path d="M78.7988 45.8003V53.54L113.325 72.7752V64.356L78.7988 45.8003Z" fill="#2B63A8"/>
<path d="M70.8682 58.5476V66.2873L105.395 85.5178V77.1033L70.8682 58.5476Z" fill="#2B63A8"/>
<path d="M63.8154 70.0944V77.8341L98.3419 97.0646V88.6501L63.8154 70.0944Z" fill="#2B63A8"/>
<path d="M55.7808 82.5627V90.3024L90.3072 109.533V101.118L55.7808 82.5627Z" fill="#2B63A8"/>
<path d="M48.8271 94.2024V101.937L83.3536 121.173V112.758L48.8271 94.2024Z" fill="#2B63A8"/>
<path d="M143.074 47.9919L108.879 29.5433L78.7988 45.7999L113.325 64.3556L143.074 47.9919Z" fill="white"/>
<path d="M143.168 47.8433L132.612 42.1467L114.786 32.5315L109.555 29.7111C109.338 29.5948 109.041 29.3481 108.785 29.3993C108.449 29.4691 108.045 29.7995 107.753 29.9578L92.3655 38.2746L78.9517 45.5256L78.7148 45.6512C78.5964 45.7164 78.5964 45.8886 78.7148 45.9537L89.1922 51.5851L107.107 61.2144L112.54 64.1325C112.748 64.2442 113.128 64.556 113.384 64.5281C113.666 64.5001 114.07 64.1604 114.302 64.0301L129.419 55.7133L142.936 48.2761L143.173 48.1458C143.38 48.0341 143.193 47.7316 142.985 47.8433L131.649 54.0797L115.279 63.0853L113.498 64.0627C113.419 64.1045 113.305 64.1464 113.241 64.2069C113.37 64.0952 113.493 64.2674 113.221 64.0952C111.854 63.2296 110.32 62.5361 108.888 61.7682L91.5068 52.4275L83.4378 48.09L80.6494 46.5914C80.146 46.3214 79.6377 45.9817 79.1047 45.7629C79.0356 45.735 78.9665 45.6885 78.8974 45.6512V45.9537L90.2286 39.829L106.766 30.8886L108.632 29.8787C108.716 29.8321 108.903 29.7716 108.962 29.7018C108.859 29.8321 108.711 29.6087 108.928 29.7716C109.338 30.0834 109.9 30.2975 110.359 30.5442L113.073 32.0056L130.391 41.3509C134.517 43.5755 138.628 45.842 142.778 48.0341C142.847 48.0713 142.916 48.1086 142.99 48.1458C143.198 48.2575 143.385 47.955 143.178 47.8433H143.168Z" fill="#2B63A8"/>
<path d="M78.798 53.54L70.8672 58.5477L105.394 77.1034L113.324 72.7752L78.798 53.54Z" fill="white"/>
<path d="M78.7047 53.391L70.769 58.3988C70.6555 58.4686 70.6407 58.6315 70.769 58.7013L75.8473 61.4285L87.1784 67.516L98.9488 73.8456L103.119 76.0888C103.795 76.4518 104.476 76.9033 105.192 77.2011C105.379 77.2802 105.453 77.2663 105.646 77.1685C106.342 76.8148 107.018 76.4192 107.699 76.0469L113.053 73.1242L113.419 72.924C113.537 72.8589 113.537 72.6867 113.419 72.6215L101.693 66.0872L83.1464 55.7553L78.8923 53.3864C78.685 53.27 78.5024 53.5725 78.7047 53.6889L90.4307 60.2231L108.977 70.5551L113.231 72.924V72.6215L109.051 74.902L106.307 76.4006C106.041 76.5496 105.749 76.6799 105.493 76.8428C105.221 77.015 105.384 76.8428 105.473 76.9451C105.379 76.8381 105.123 76.759 104.999 76.6892L103.884 76.0888L100.094 74.0503L88.7083 67.9303L77.1403 61.7124L73.054 59.5157L71.7462 58.813C71.5586 58.7106 71.2674 58.4732 71.0503 58.4406C71.0207 58.4406 70.9861 58.4034 70.9615 58.3895V58.692L78.8972 53.6842C79.0946 53.5585 78.9071 53.256 78.7097 53.3817L78.7047 53.391Z" fill="#2B63A8"/>
<path d="M70.8678 66.2875L63.8154 70.0945L98.3419 88.6502L105.394 85.518L70.8678 66.2875Z" fill="white"/>
<path d="M70.774 66.1386L63.7216 69.9456C63.6032 70.0108 63.6032 70.183 63.7216 70.2481L68.568 72.8498L79.4352 78.6906L91.0329 84.9224L97.8927 88.6084C97.9964 88.6642 98.1346 88.7759 98.2481 88.7992C98.6182 88.8783 99.24 88.4408 99.5559 88.3012L105.068 85.8532L105.483 85.667C105.611 85.6112 105.597 85.4297 105.483 85.3645L93.7571 78.8302L75.2107 68.4982L70.9566 66.1293C70.7493 66.013 70.5667 66.3155 70.7691 66.4318L82.495 72.9661L101.041 83.2981L105.295 85.667V85.3645L100.78 87.3704L98.485 88.3896C98.4307 88.4129 98.3122 88.4408 98.2728 88.4827C98.2037 88.5525 98.4652 88.5339 98.4208 88.4874C98.3863 88.4501 98.3172 88.4408 98.2777 88.4083C97.6657 87.9661 96.8712 87.6543 96.2049 87.2913L92.1729 85.1271L80.9059 79.0722L69.7968 73.1011L65.8981 71.0068L64.6495 70.3366C64.4817 70.2481 64.1954 70.0108 63.998 69.9875C63.9733 69.9875 63.9388 69.9549 63.9141 69.941V70.2435L70.9665 66.4365C71.1738 66.3248 70.9862 66.0223 70.7789 66.134L70.774 66.1386Z" fill="#2B63A8"/>
<path d="M63.8152 77.8339L55.7808 82.5624L90.3072 101.118L98.3416 97.0644L63.8152 77.8339Z" fill="white"/>
<path d="M63.7219 77.6803L55.6924 82.4088C55.5789 82.4786 55.569 82.6415 55.6924 82.7113L60.7707 85.4386L72.1018 91.5261L83.8327 97.8323L87.993 100.066C88.6889 100.439 89.3798 100.876 90.1053 101.202C90.2879 101.286 90.3669 101.276 90.5593 101.188C91.2453 100.871 91.9165 100.504 92.5877 100.164L98.0657 97.3995L98.4408 97.2087C98.5642 97.1482 98.5592 96.9713 98.4408 96.9062L86.7148 90.3719L68.1685 80.0399L63.9144 77.671C63.7071 77.5547 63.5245 77.8572 63.7268 77.9735L75.4528 84.5078L93.9991 94.8398L98.2533 97.2087V96.9062L93.9646 99.0703L91.1861 100.476C90.9295 100.606 90.6284 100.718 90.3866 100.876C90.1448 101.034 90.3027 100.857 90.3866 100.951C90.278 100.834 90.0263 100.755 89.8881 100.681L88.7531 100.071L84.9283 98.0139L73.5676 91.9077L62.0538 85.7179L57.9675 83.5211L56.6597 82.8184C56.4721 82.716 56.181 82.4786 55.9638 82.4461C55.9342 82.4461 55.8997 82.4088 55.875 82.3949V82.6974L63.9045 77.9689C64.1068 77.8479 63.9193 77.55 63.717 77.6664L63.7219 77.6803Z" fill="#2B63A8"/>
<path d="M55.9439 90.4511L48.9902 94.3512L83.5117 112.907L90.1841 108.984L55.9439 90.4511Z" fill="white"/>
<path d="M55.85 90.3022L48.8964 94.2023C48.7779 94.2675 48.773 94.4397 48.8964 94.5049L60.5779 100.783L79.1785 110.78L83.4228 113.061C83.4771 113.093 83.5511 113.093 83.6103 113.061L90.2827 109.137C90.4011 109.067 90.406 108.904 90.2827 108.835L78.6406 102.533L60.2423 92.5734L56.0425 90.3022C55.8352 90.1905 55.6477 90.4931 55.8549 90.6048L67.497 96.9063L85.8953 106.866L90.0951 109.137V108.835L85.8854 111.311L83.6695 112.614C83.63 112.637 83.4869 112.693 83.4721 112.73C83.4326 112.828 83.5462 112.688 83.6103 112.753C83.5758 112.721 83.5165 112.707 83.4771 112.684C82.8651 112.246 82.0804 111.934 81.4142 111.576L77.3969 109.416L66.1398 103.366L54.9765 97.3671L51.0777 95.2728L49.8439 94.6119C49.6712 94.5188 49.3751 94.2768 49.1777 94.2535C49.153 94.2535 49.1184 94.221 49.0938 94.207V94.5095L56.0474 90.6094C56.2498 90.4931 56.0672 90.1905 55.8599 90.3069L55.85 90.3022Z" fill="#2B63A8"/>
<path d="M48.828 101.938L43.1328 105.54L77.6592 124.095L83.3939 121.01L48.828 101.938Z" fill="white"/>
<path d="M48.7391 101.788L43.0439 105.391C42.9304 105.46 42.9156 105.623 43.0439 105.693L47.6583 108.174L58.1702 113.824L69.5852 119.958L76.8991 123.89C77.0916 123.993 77.2989 124.146 77.5062 124.216C77.7381 124.295 77.8516 124.198 78.0688 124.081L83.0335 121.405L83.4876 121.159C83.611 121.093 83.606 120.921 83.4876 120.856L71.811 114.415L53.2005 104.148L48.9266 101.793C48.7193 101.681 48.5318 101.979 48.7391 102.096L60.4157 108.537L79.0262 118.804L83.3 121.159V120.856L78.962 123.192L77.9108 123.76C77.8467 123.793 77.6888 123.844 77.6493 123.904C77.5555 124.035 77.6197 123.825 77.7579 123.942C77.6591 123.858 77.4963 123.802 77.3778 123.737L70.7647 120.181L59.6409 114.201L48.8723 108.411L45.1413 106.405L43.9372 105.758C43.7792 105.674 43.4979 105.446 43.3153 105.423C43.2907 105.423 43.2561 105.391 43.2364 105.381V105.684L48.9315 102.082C49.129 101.956 48.9414 101.653 48.744 101.779L48.7391 101.788Z" fill="#2B63A8"/>
<path d="M46.3643 40.5647L47.7709 43.4502C47.8153 43.5386 47.8893 43.6084 47.9831 43.6503L51.0429 44.9767C51.3785 45.121 51.3785 45.5724 51.0429 45.7167L47.9831 47.0431C47.8893 47.085 47.8153 47.1548 47.7709 47.2433L46.3643 50.1288C46.2113 50.4452 45.7326 50.4452 45.5796 50.1288L44.1731 47.2433C44.1287 47.1548 44.0547 47.085 43.9609 47.0431L40.9011 45.7167C40.5655 45.5724 40.5655 45.121 40.9011 44.9767L43.9609 43.6503C44.0547 43.6084 44.1287 43.5386 44.1731 43.4502L45.5796 40.5647C45.7326 40.2482 46.2113 40.2482 46.3643 40.5647Z" fill="white"/>
<path d="M46.2016 40.6532L47.4897 43.292C47.6328 43.5853 47.7809 43.7528 48.0967 43.8924L49.6908 44.5812L50.5002 44.9349C50.6186 44.9861 50.8505 45.0373 50.9394 45.1257C51.3934 45.5679 50.2386 45.8704 50.0412 45.9588L48.2645 46.7267C47.9635 46.8571 47.7315 46.9408 47.5687 47.234C47.312 47.6855 47.1097 48.1741 46.8827 48.6396L46.5027 49.4168C46.4237 49.5843 46.3497 49.8449 46.2263 49.9892C45.7871 50.4872 45.5206 49.5983 45.4169 49.3795L44.6026 47.7087C44.4595 47.4155 44.3559 47.0572 44.04 46.8896C43.6205 46.6662 43.1468 46.5033 42.7075 46.3125C42.2041 46.0938 41.6317 45.9169 41.1579 45.6423C40.995 45.5493 40.6101 45.4888 41.0098 45.1257C41.1184 45.028 41.3701 44.9675 41.5083 44.9117L43.4675 44.06C43.8278 43.9017 44.1782 43.8133 44.3707 43.4643C44.652 42.9523 44.8839 42.4124 45.1406 41.8865L45.565 41.0162C45.6193 40.9045 45.8858 40.1831 46.2016 40.6579C46.3299 40.8487 46.6507 40.6718 46.5224 40.481C46.1868 39.983 45.6094 40.1273 45.3626 40.5974C45.0764 41.1465 44.8198 41.7097 44.5483 42.2682C44.3805 42.6079 44.2127 43.2734 43.8624 43.5061C43.4527 43.7761 42.8803 43.9343 42.4312 44.1298C41.913 44.3532 41.3355 44.544 40.842 44.8186C40.3485 45.0932 40.3584 45.6191 40.842 45.889C41.3257 46.1589 41.913 46.3544 42.4312 46.5778C42.8803 46.7733 43.4577 46.9315 43.8624 47.2015C44.2127 47.4342 44.3805 48.095 44.5483 48.4394C44.8198 48.9933 45.0764 49.5611 45.3626 50.1102C45.6045 50.5756 46.1967 50.7292 46.5224 50.2266C46.7741 49.8356 46.9419 49.3702 47.1393 48.956C47.3861 48.4487 47.5884 47.867 47.8993 47.3923C48.1066 47.0758 48.6347 46.9594 48.9752 46.8105L50.8654 45.9914C51.275 45.8145 51.7142 45.4562 51.3391 45.0001C51.2108 44.8465 50.9937 44.7813 50.8111 44.6976L49.7846 44.2508C49.2466 44.0181 48.5656 43.8319 48.077 43.5108C47.8993 43.3944 47.8401 43.1897 47.7562 43.0128L47.2676 42.0168L46.5224 40.4903C46.4237 40.2855 46.1029 40.4624 46.2016 40.6672V40.6532Z" fill="#2B63A8"/>
<path d="M46.1971 40.6578L47.4851 43.2966C47.6283 43.5898 47.7813 43.762 48.0971 43.897L49.6912 44.5858L50.5005 44.9395C50.619 44.9907 50.8509 45.0419 50.9398 45.1303C51.379 45.5678 50.239 45.8656 50.0416 45.9541L48.2649 46.722C47.9639 46.8523 47.7319 46.9407 47.5641 47.2293C47.3075 47.6807 47.1051 48.1694 46.8781 48.6348L46.4981 49.412C46.4191 49.5796 46.3451 49.8402 46.2217 49.9845C45.7874 50.4732 45.5259 49.5889 45.4222 49.3748L44.6079 47.704C44.4648 47.4108 44.3612 47.0524 44.0453 46.8802C43.6258 46.6568 43.1521 46.4939 42.7128 46.3031C42.2095 46.0844 41.637 45.9075 41.1632 45.6329C41.0053 45.5399 40.6253 45.484 41.0151 45.1256C41.1237 45.0279 41.3803 44.9674 41.5136 44.9116L43.4729 44.0599C43.8331 43.9016 44.1835 43.8086 44.376 43.4595C44.6573 42.9476 44.8892 42.4077 45.1459 41.8818L45.5703 41.0115C45.6098 40.9323 45.6443 40.802 45.7035 40.7369C45.7874 40.6391 45.8072 40.0714 46.1971 40.6578C46.3254 40.8532 46.656 40.6717 46.5277 40.4763C46.1921 39.9736 45.6048 40.1179 45.3581 40.5926C45.0718 41.1418 44.8152 41.7049 44.5438 42.2634C44.376 42.6032 44.2082 43.2687 43.8627 43.4967C43.4531 43.7667 42.8806 43.9249 42.4315 44.1204C41.9133 44.3438 41.3359 44.5346 40.8424 44.8092C40.3489 45.0838 40.3538 45.619 40.8424 45.8889C41.3359 46.1635 41.9133 46.3543 42.4315 46.5777C42.8806 46.7732 43.458 46.9314 43.8627 47.2014C44.2131 47.4294 44.3809 48.0949 44.5438 48.4347C44.8152 48.9885 45.0718 49.5563 45.3581 50.1055C45.6048 50.5755 46.1971 50.7291 46.5277 50.2218C46.7794 49.8309 46.9472 49.3655 47.1446 48.9513C47.3914 48.444 47.5937 47.8622 47.9046 47.3875C48.1119 47.0757 48.64 46.9547 48.9756 46.8104L50.8657 45.9913C51.2803 45.8144 51.7195 45.4468 51.3395 44.9907C51.2112 44.8324 50.994 44.7719 50.8114 44.6882L49.7849 44.2414C49.247 44.0087 48.561 43.8225 48.0774 43.5014C47.8997 43.385 47.8405 43.1849 47.7566 43.0081L47.268 42.0121L46.5228 40.4856C46.4191 40.2761 46.0885 40.4576 46.1921 40.6671L46.1971 40.6578Z" fill="white"/>
<path d="M46.0388 40.7461L46.9814 42.6775C47.1985 43.1243 47.3663 43.6642 47.8204 43.9527C48.3484 44.2831 49.0196 44.4879 49.5921 44.7392C49.8635 44.8556 50.13 44.9813 50.4014 45.093C50.7074 45.214 50.9739 45.3303 50.589 45.549C50.283 45.7166 49.9079 45.819 49.5871 45.9586C48.99 46.2146 48.2398 46.4287 47.7167 46.801C47.3466 47.0663 47.1936 47.5363 47.011 47.9226C46.7494 48.4811 46.4731 49.0349 46.2214 49.5981C46.1967 49.6586 46.0585 49.9564 45.9104 49.9192C45.8463 49.9052 45.7624 49.7005 45.7377 49.6493C45.6785 49.5329 45.6341 49.4073 45.5798 49.2863C45.2886 48.6486 44.9629 48.0203 44.6618 47.3874C44.4694 46.9778 44.2424 46.7684 43.813 46.5729C43.1764 46.2797 42.5052 46.047 41.8587 45.7724C41.7007 45.7073 41.2961 45.5816 41.1875 45.4467C40.995 45.214 41.4046 45.1441 41.607 45.0604C42.3127 44.7718 43.0036 44.4507 43.6995 44.1528C44.1683 43.9527 44.425 43.7619 44.6618 43.3151C44.9826 42.7008 45.259 42.0678 45.56 41.4488C45.6637 41.2394 45.7673 41.0346 45.866 40.8252C45.8808 40.7926 45.9055 40.7135 45.9253 40.6949C46.0536 40.5553 45.8463 40.4482 46.0388 40.7461C46.1769 40.9555 46.4977 40.9648 46.6606 40.7786C46.858 40.5506 46.6458 40.2714 46.4336 40.1271C46.1473 39.9316 45.7821 39.9595 45.5008 40.1504C45.0813 40.4436 44.9037 41.0765 44.7013 41.5C44.4743 41.9747 44.2917 42.4774 44.0499 42.9474C43.7587 43.5245 43.0875 43.6595 42.5101 43.8922C41.9672 44.1063 41.4046 44.3064 40.8914 44.5764C39.9981 45.0464 40.2251 45.8004 41.0444 46.1913C41.5626 46.438 42.1153 46.6474 42.6532 46.8568C42.9345 46.9685 43.2257 47.0616 43.4971 47.1966C43.8673 47.3874 44.0104 47.6387 44.1585 47.9971C44.3509 48.4578 44.5582 48.9046 44.7754 49.3561C44.9777 49.7796 45.1603 50.4032 45.6439 50.6266C46.6705 51.092 47.0998 49.4678 47.3663 48.8813C47.6772 48.2019 47.8549 47.4293 48.6347 47.1175C49.291 46.8615 49.9326 46.5776 50.5742 46.2983C50.9937 46.1168 51.6254 45.8888 51.6599 45.3675C51.6945 44.8463 51.1368 44.6369 50.7222 44.4553C50.0708 44.1761 49.4045 43.9294 48.7482 43.6502C48.2645 43.4408 48.0375 43.1988 47.8204 42.7473C47.6575 42.4122 47.4946 42.0818 47.3318 41.7467L46.8333 40.7275C46.7544 40.5646 46.6902 40.3086 46.4879 40.2341C46.1523 40.1038 45.9499 40.4389 45.9993 40.7042C46.0388 40.9229 46.3941 40.8298 46.3546 40.6111C46.399 40.8578 46.6458 41.1789 46.7593 41.4116L47.1739 42.2586C47.3811 42.6822 47.544 43.3105 47.9289 43.6176C48.2941 43.9108 48.8173 44.0504 49.2516 44.218C49.5674 44.339 49.8783 44.474 50.1892 44.6089C50.436 44.716 50.7815 44.7951 50.9887 44.9533C51.6599 45.4746 50.9591 45.7445 50.5692 45.9121C50.2534 46.0517 49.9375 46.1867 49.6217 46.3216C49.1232 46.5357 48.5508 46.6986 48.0869 46.9732C47.6772 47.2152 47.5045 47.6573 47.3219 48.0622C47.0801 48.5928 46.8531 49.1327 46.6014 49.6586C46.4583 49.9564 46.2214 50.501 45.7723 50.2962C45.5008 50.1705 45.3676 49.747 45.2491 49.5096C44.9974 48.9977 44.7457 48.4858 44.5335 47.9598C44.4003 47.6341 44.267 47.2943 43.9759 47.0663C43.6304 46.7963 43.1517 46.6707 42.7421 46.5124C42.1893 46.2983 41.5724 46.1029 41.0641 45.805C39.9981 45.186 41.4096 44.702 41.9771 44.474C42.7223 44.1761 43.8722 43.9434 44.2966 43.2267C44.5237 42.845 44.652 42.4029 44.8445 42.0027C44.9629 41.7513 45.0813 41.5 45.2047 41.2487C45.333 40.9834 45.4663 40.5227 45.7673 40.3784C45.9302 40.2993 46.4731 40.518 46.0881 40.2807C46.0091 40.2341 45.9253 40.1922 45.8265 40.2202C45.6291 40.2714 45.5897 40.4901 45.5206 40.639C45.2985 41.1277 45.0419 41.6117 44.8099 42.1004C44.578 42.5891 44.3707 43.3756 43.8673 43.6688C43.3639 43.962 42.8013 44.1342 42.2831 44.3576C41.8488 44.5438 41.2171 44.688 40.8568 44.9859C40.156 45.5677 41.375 45.9493 41.8044 46.1215C42.3473 46.3402 42.8951 46.5497 43.433 46.7824C43.7192 46.9034 43.9857 47.0104 44.1683 47.2617C44.3115 47.4572 44.3953 47.7225 44.499 47.9412C44.7556 48.4671 45.0271 48.9884 45.2639 49.519C45.3676 49.7517 45.4564 50.0449 45.6834 50.1938C46.3447 50.6313 46.6902 49.3561 46.858 49.0163C47.1344 48.4532 47.3515 47.8295 47.692 47.3036C48.003 46.8196 48.8715 46.6195 49.3897 46.3961C49.8043 46.2146 50.2485 46.0703 50.6581 45.8748C50.8851 45.7678 51.1861 45.5956 51.196 45.321C51.2009 45.0045 50.8802 44.8928 50.6235 44.7951C49.9672 44.5391 49.3305 44.2413 48.6889 43.962C48.3583 43.8177 47.9635 43.706 47.7414 43.4175C47.5736 43.1941 47.4749 42.9149 47.3565 42.6682L46.3299 40.5599C46.2312 40.3551 45.9104 40.532 46.0092 40.7368L46.0388 40.7461Z" fill="#2B63A8"/>
<path d="M165.899 132.659L167.306 135.544C167.35 135.633 167.424 135.702 167.518 135.744L170.578 137.071C170.914 137.215 170.914 137.667 170.578 137.811L167.518 139.137C167.424 139.179 167.35 139.249 167.306 139.337L165.899 142.223C165.746 142.539 165.268 142.539 165.115 142.223L163.708 139.337C163.664 139.249 163.59 139.179 163.496 139.137L160.436 137.811C160.101 137.667 160.101 137.215 160.436 137.071L163.496 135.744C163.59 135.702 163.664 135.633 163.708 135.544L165.115 132.659C165.268 132.342 165.746 132.342 165.899 132.659Z" fill="white"/>
<path d="M165.742 132.747L167.03 135.386C167.173 135.679 167.321 135.847 167.637 135.986L169.231 136.675L170.04 137.029C170.159 137.08 170.391 137.131 170.479 137.22C170.933 137.662 169.779 137.964 169.581 138.053L167.805 138.821C167.504 138.951 167.272 139.035 167.109 139.328C166.852 139.779 166.65 140.268 166.423 140.734L166.043 141.511C165.964 141.678 165.89 141.939 165.766 142.083C165.327 142.581 165.061 141.692 164.957 141.474L164.143 139.803C164 139.51 163.896 139.151 163.58 138.984C163.161 138.76 162.687 138.597 162.248 138.407C161.744 138.188 161.172 138.011 160.698 137.736C160.535 137.643 160.15 137.583 160.55 137.22C160.658 137.122 160.91 137.061 161.048 137.006L163.008 136.154C163.368 135.996 163.718 135.907 163.911 135.558C164.192 135.046 164.424 134.506 164.681 133.981L165.105 133.11C165.159 132.999 165.426 132.277 165.742 132.752C165.87 132.943 166.191 132.766 166.062 132.575C165.727 132.077 165.149 132.221 164.903 132.691C164.616 133.241 164.36 133.804 164.088 134.362C163.921 134.702 163.753 135.367 163.402 135.6C162.993 135.87 162.42 136.028 161.971 136.224C161.453 136.447 160.876 136.638 160.382 136.913C159.889 137.187 159.898 137.713 160.382 137.983C160.866 138.253 161.453 138.448 161.971 138.672C162.42 138.867 162.998 139.026 163.402 139.295C163.753 139.528 163.921 140.189 164.088 140.533C164.36 141.087 164.616 141.655 164.903 142.204C165.145 142.67 165.737 142.823 166.062 142.321C166.314 141.93 166.482 141.464 166.679 141.05C166.926 140.543 167.128 139.961 167.439 139.486C167.647 139.17 168.175 139.053 168.515 138.904L170.405 138.085C170.815 137.909 171.254 137.55 170.879 137.094C170.751 136.94 170.534 136.875 170.351 136.792L169.325 136.345C168.787 136.112 168.106 135.926 167.617 135.605C167.439 135.488 167.38 135.284 167.296 135.107L166.808 134.111L166.062 132.584C165.964 132.38 165.643 132.556 165.742 132.761V132.747Z" fill="#2B63A8"/>
<path d="M165.737 132.752L167.025 135.391C167.168 135.684 167.321 135.856 167.637 135.991L169.231 136.68L170.04 137.033C170.159 137.085 170.39 137.136 170.479 137.224C170.919 137.662 169.779 137.96 169.581 138.048L167.804 138.816C167.503 138.946 167.271 139.035 167.104 139.323C166.847 139.775 166.645 140.263 166.418 140.729L166.038 141.506C165.959 141.674 165.885 141.934 165.761 142.078C165.327 142.567 165.065 141.683 164.962 141.469L164.147 139.798C164.004 139.505 163.901 139.146 163.585 138.974C163.165 138.751 162.692 138.588 162.252 138.397C161.749 138.178 161.177 138.002 160.703 137.727C160.545 137.634 160.165 137.578 160.555 137.22C160.663 137.122 160.92 137.061 161.053 137.006L163.012 136.154C163.373 135.996 163.723 135.903 163.916 135.553C164.197 135.042 164.429 134.502 164.685 133.976L165.11 133.105C165.149 133.026 165.184 132.896 165.243 132.831C165.327 132.733 165.347 132.165 165.737 132.752C165.865 132.947 166.196 132.766 166.067 132.57C165.732 132.068 165.144 132.212 164.898 132.687C164.611 133.236 164.355 133.799 164.083 134.357C163.916 134.697 163.748 135.363 163.402 135.591C162.993 135.861 162.42 136.019 161.971 136.214C161.453 136.438 160.875 136.629 160.382 136.903C159.888 137.178 159.893 137.713 160.382 137.983C160.875 138.257 161.453 138.448 161.971 138.672C162.42 138.867 162.998 139.025 163.402 139.295C163.753 139.523 163.92 140.189 164.083 140.529C164.355 141.083 164.611 141.65 164.898 142.199C165.144 142.67 165.737 142.823 166.067 142.316C166.319 141.925 166.487 141.459 166.684 141.045C166.931 140.538 167.133 139.956 167.444 139.482C167.651 139.17 168.18 139.049 168.515 138.904L170.405 138.085C170.82 137.908 171.259 137.541 170.879 137.085C170.751 136.926 170.534 136.866 170.351 136.782L169.324 136.335C168.787 136.103 168.101 135.917 167.617 135.595C167.439 135.479 167.38 135.279 167.296 135.102L166.808 134.106L166.062 132.58C165.959 132.37 165.628 132.552 165.732 132.761L165.737 132.752Z" fill="white"/>
<path d="M165.579 132.84L166.521 134.772C166.739 135.219 166.906 135.758 167.36 136.047C167.888 136.377 168.56 136.582 169.132 136.833C169.404 136.95 169.67 137.076 169.941 137.187C170.247 137.308 170.514 137.425 170.129 137.643C169.823 137.811 169.448 137.913 169.127 138.053C168.53 138.309 167.78 138.523 167.257 138.895C166.887 139.161 166.734 139.631 166.551 140.017C166.289 140.575 166.013 141.129 165.761 141.692C165.737 141.753 165.599 142.051 165.45 142.013C165.386 141.999 165.302 141.795 165.278 141.744C165.219 141.627 165.174 141.501 165.12 141.38C164.829 140.743 164.503 140.115 164.202 139.482C164.009 139.072 163.782 138.863 163.353 138.667C162.716 138.374 162.045 138.141 161.399 137.867C161.241 137.802 160.836 137.676 160.728 137.541C160.535 137.308 160.945 137.238 161.147 137.155C161.853 136.866 162.544 136.545 163.24 136.247C163.708 136.047 163.965 135.856 164.202 135.409C164.523 134.795 164.799 134.162 165.1 133.543C165.204 133.334 165.307 133.129 165.406 132.919C165.421 132.887 165.446 132.808 165.465 132.789C165.594 132.649 165.386 132.542 165.579 132.84C165.717 133.05 166.038 133.059 166.201 132.873C166.398 132.645 166.186 132.366 165.974 132.221C165.687 132.026 165.322 132.054 165.041 132.245C164.621 132.538 164.444 133.171 164.241 133.594C164.014 134.069 163.832 134.572 163.59 135.042C163.299 135.619 162.628 135.754 162.05 135.986C161.507 136.201 160.945 136.401 160.431 136.671C159.538 137.141 159.765 137.895 160.584 138.286C161.103 138.532 161.655 138.742 162.193 138.951C162.475 139.063 162.766 139.156 163.037 139.291C163.407 139.482 163.55 139.733 163.698 140.091C163.891 140.552 164.098 140.999 164.315 141.45C164.518 141.874 164.7 142.497 165.184 142.721C166.211 143.186 166.64 141.562 166.906 140.976C167.217 140.296 167.395 139.524 168.175 139.212C168.831 138.956 169.473 138.672 170.114 138.393C170.534 138.211 171.165 137.983 171.2 137.462C171.235 136.941 170.677 136.731 170.262 136.55C169.611 136.27 168.945 136.024 168.288 135.744C167.805 135.535 167.578 135.293 167.36 134.842C167.198 134.506 167.035 134.176 166.872 133.841L166.373 132.822C166.294 132.659 166.23 132.403 166.028 132.328C165.692 132.198 165.49 132.533 165.539 132.798C165.579 133.017 165.934 132.924 165.895 132.705C165.939 132.952 166.186 133.273 166.299 133.506L166.714 134.353C166.921 134.776 167.084 135.405 167.469 135.712C167.834 136.005 168.357 136.145 168.792 136.312C169.107 136.433 169.418 136.568 169.729 136.703C169.976 136.81 170.321 136.889 170.529 137.048C171.2 137.569 170.499 137.839 170.109 138.006C169.793 138.146 169.478 138.281 169.162 138.416C168.663 138.63 168.091 138.793 167.627 139.067C167.217 139.309 167.045 139.752 166.862 140.156C166.62 140.687 166.393 141.227 166.141 141.753C165.998 142.051 165.761 142.595 165.312 142.39C165.041 142.265 164.908 141.841 164.789 141.604C164.537 141.092 164.286 140.58 164.074 140.054C163.94 139.728 163.807 139.389 163.516 139.161C163.17 138.891 162.692 138.765 162.282 138.607C161.729 138.393 161.112 138.197 160.604 137.899C159.538 137.28 160.95 136.796 161.517 136.568C162.262 136.27 163.412 136.038 163.837 135.321C164.064 134.939 164.192 134.497 164.384 134.097C164.503 133.846 164.621 133.594 164.745 133.343C164.873 133.078 165.006 132.617 165.307 132.473C165.47 132.394 166.013 132.612 165.628 132.375C165.549 132.328 165.465 132.286 165.367 132.314C165.169 132.366 165.13 132.584 165.061 132.733C164.839 133.222 164.582 133.706 164.35 134.195C164.118 134.683 163.911 135.47 163.407 135.763C162.904 136.056 162.341 136.228 161.823 136.452C161.389 136.638 160.757 136.782 160.397 137.08C159.696 137.662 160.915 138.044 161.344 138.216C161.887 138.434 162.435 138.644 162.973 138.877C163.259 138.998 163.526 139.105 163.708 139.356C163.851 139.551 163.935 139.817 164.039 140.035C164.296 140.561 164.567 141.083 164.804 141.613C164.908 141.846 164.996 142.139 165.223 142.288C165.885 142.726 166.23 141.45 166.398 141.111C166.674 140.547 166.892 139.924 167.232 139.398C167.543 138.914 168.412 138.714 168.93 138.49C169.344 138.309 169.789 138.165 170.198 137.969C170.425 137.862 170.726 137.69 170.736 137.415C170.741 137.099 170.42 136.987 170.164 136.889C169.507 136.633 168.871 136.335 168.229 136.056C167.898 135.912 167.504 135.8 167.281 135.512C167.114 135.288 167.015 135.009 166.896 134.762L165.87 132.654C165.771 132.449 165.45 132.626 165.549 132.831L165.579 132.84Z" fill="#2B63A8"/>
<path d="M156.221 36.52L157.628 39.4055C157.672 39.4939 157.746 39.5638 157.84 39.6056L160.9 40.932C161.235 41.0763 161.235 41.5278 160.9 41.672L157.84 42.9984C157.746 43.0403 157.672 43.1101 157.628 43.1986L156.221 46.0841C156.068 46.4006 155.59 46.4006 155.437 46.0841L154.03 43.1986C153.986 43.1101 153.912 43.0403 153.818 42.9984L150.758 41.672C150.422 41.5278 150.422 41.0763 150.758 40.932L153.818 39.6056C153.912 39.5638 153.986 39.4939 154.03 39.4055L155.437 36.52C155.59 36.2035 156.068 36.2035 156.221 36.52Z" fill="white"/>
<path d="M156.059 36.6086L157.347 39.2474C157.49 39.5406 157.638 39.7082 157.954 39.8478L159.548 40.5366L160.357 40.8903C160.476 40.9415 160.707 40.9927 160.796 41.0811C161.25 41.5233 160.096 41.8258 159.898 41.9142L158.121 42.6821C157.82 42.8124 157.588 42.8962 157.426 43.1894C157.169 43.6409 156.967 44.1295 156.74 44.5949L156.36 45.3722C156.281 45.5397 156.207 45.8003 156.083 45.9446C155.644 46.4426 155.377 45.5537 155.274 45.3349L154.46 43.6641C154.316 43.3709 154.213 43.0126 153.897 42.845C153.477 42.6216 153.004 42.4587 152.564 42.2679C152.061 42.0492 151.489 41.8723 151.015 41.5977C150.852 41.5046 150.467 41.4441 150.867 41.0811C150.975 40.9834 151.227 40.9229 151.365 40.867L153.324 40.0153C153.685 39.8571 154.035 39.7687 154.228 39.4196C154.509 38.9077 154.741 38.3678 154.997 37.8419L155.422 36.9716C155.476 36.8599 155.743 36.1385 156.059 36.6132C156.187 36.8041 156.508 36.6272 156.379 36.4364C156.044 35.9384 155.466 36.0827 155.22 36.5527C154.933 37.1019 154.677 37.6651 154.405 38.2235C154.237 38.5633 154.07 39.2288 153.719 39.4615C153.31 39.7315 152.737 39.8897 152.288 40.0852C151.77 40.3086 151.192 40.4994 150.699 40.774C150.205 41.0485 150.215 41.5745 150.699 41.8444C151.183 42.1143 151.77 42.3098 152.288 42.5332C152.737 42.7287 153.315 42.8869 153.719 43.1568C154.07 43.3895 154.237 44.0504 154.405 44.3948C154.677 44.9486 154.933 45.5164 155.22 46.0656C155.461 46.531 156.054 46.6846 156.379 46.182C156.631 45.791 156.799 45.3256 156.996 44.9114C157.243 44.4041 157.445 43.8224 157.756 43.3476C157.964 43.0312 158.492 42.9148 158.832 42.7659L160.722 41.9468C161.132 41.7699 161.571 41.4116 161.196 40.9555C161.068 40.8019 160.851 40.7367 160.668 40.653L159.641 40.2062C159.104 39.9735 158.423 39.7873 157.934 39.4662C157.756 39.3498 157.697 39.145 157.613 38.9682L157.125 37.9722L156.379 36.4457C156.281 36.2409 155.96 36.4178 156.059 36.6225V36.6086Z" fill="#2B63A8"/>
<path d="M156.054 36.6084L157.342 39.2472C157.485 39.5404 157.638 39.7126 157.954 39.8476L159.548 40.5364L160.357 40.8901C160.476 40.9413 160.708 40.9925 160.797 41.0809C161.236 41.5184 160.096 41.8163 159.899 41.9047L158.122 42.6726C157.821 42.8029 157.589 42.8914 157.421 43.1799C157.164 43.6313 156.962 44.12 156.735 44.5854L156.355 45.3627C156.276 45.5302 156.202 45.7908 156.079 45.9351C155.644 46.4238 155.383 45.5395 155.279 45.3254L154.465 43.6546C154.322 43.3614 154.218 43.003 153.902 42.8308C153.483 42.6075 153.009 42.4446 152.57 42.2537C152.066 42.035 151.494 41.8582 151.02 41.5836C150.862 41.4905 150.482 41.4346 150.872 41.0763C150.981 40.9785 151.237 40.918 151.371 40.8622L153.33 40.0105C153.69 39.8523 154.04 39.7592 154.233 39.4101C154.514 38.8982 154.746 38.3583 155.003 37.8324L155.427 36.9621C155.467 36.883 155.501 36.7527 155.56 36.6875C155.644 36.5898 155.664 36.022 156.054 36.6084C156.182 36.8039 156.513 36.6223 156.385 36.4269C156.049 35.9242 155.462 36.0685 155.215 36.5432C154.929 37.0924 154.672 37.6555 154.401 38.214C154.233 38.5538 154.065 39.2193 153.72 39.4474C153.31 39.7173 152.738 39.8755 152.288 40.071C151.77 40.2944 151.193 40.4852 150.699 40.7598C150.206 41.0344 150.211 41.5696 150.699 41.8395C151.193 42.1141 151.77 42.3049 152.288 42.5283C152.738 42.7238 153.315 42.882 153.72 43.152C154.07 43.38 154.238 44.0456 154.401 44.3853C154.672 44.9391 154.929 45.5069 155.215 46.0561C155.462 46.5262 156.054 46.6797 156.385 46.1725C156.636 45.7815 156.804 45.3161 157.002 44.9019C157.248 44.3946 157.451 43.8129 157.762 43.3381C157.969 43.0263 158.497 42.9053 158.833 42.761L160.723 41.9419C161.137 41.7651 161.576 41.3974 161.196 40.9413C161.068 40.7831 160.851 40.7226 160.668 40.6388L159.642 40.192C159.104 39.9593 158.418 39.7731 157.934 39.452C157.757 39.3357 157.697 39.1355 157.614 38.9587L157.125 37.9627L156.38 36.4362C156.276 36.2268 155.945 36.4083 156.049 36.6177L156.054 36.6084Z" fill="white"/>
<path d="M155.896 36.6969L156.839 38.6284C157.056 39.0752 157.224 39.615 157.678 39.9036C158.206 40.234 158.877 40.4388 159.45 40.6901C159.721 40.8065 159.987 40.9321 160.259 41.0438C160.565 41.1648 160.831 41.2812 160.446 41.4999C160.14 41.6675 159.765 41.7698 159.445 41.9095C158.847 42.1654 158.097 42.3795 157.574 42.7519C157.204 43.0171 157.051 43.4872 156.868 43.8735C156.607 44.432 156.33 44.9858 156.079 45.5489C156.054 45.6094 155.916 45.9073 155.768 45.8701C155.704 45.8561 155.62 45.6513 155.595 45.6001C155.536 45.4838 155.491 45.3581 155.437 45.2371C155.146 44.5995 154.82 43.9712 154.519 43.3383C154.327 42.9287 154.1 42.7193 153.67 42.5238C153.034 42.2306 152.363 41.9979 151.716 41.7233C151.558 41.6582 151.153 41.5325 151.045 41.3975C150.852 41.1648 151.262 41.095 151.464 41.0112C152.17 40.7227 152.861 40.4016 153.557 40.1037C154.026 39.9036 154.282 39.7128 154.519 39.266C154.84 38.6516 155.116 38.0187 155.417 37.3997C155.521 37.1903 155.625 36.9855 155.723 36.7761C155.738 36.7435 155.763 36.6644 155.783 36.6457C155.911 36.5061 155.704 36.3991 155.896 36.6969C156.034 36.9064 156.355 36.9157 156.518 36.7295C156.715 36.5015 156.503 36.2222 156.291 36.0779C156.005 35.8825 155.64 35.9104 155.358 36.1012C154.939 36.3944 154.761 37.0274 154.559 37.4509C154.332 37.9256 154.149 38.4282 153.907 38.8983C153.616 39.4754 152.945 39.6104 152.368 39.8431C151.825 40.0572 151.262 40.2573 150.749 40.5272C149.856 40.9973 150.083 41.7512 150.902 42.1422C151.42 42.3888 151.973 42.5983 152.511 42.8077C152.792 42.9194 153.083 43.0125 153.355 43.1474C153.725 43.3383 153.868 43.5896 154.016 43.9479C154.208 44.4087 154.416 44.8555 154.633 45.3069C154.835 45.7304 155.018 46.3541 155.501 46.5775C156.528 47.0429 156.957 45.4186 157.224 44.8322C157.535 44.1527 157.712 43.3802 158.492 43.0683C159.148 42.8124 159.79 42.5285 160.432 42.2492C160.851 42.0677 161.483 41.8397 161.517 41.3184C161.552 40.7972 160.994 40.5877 160.58 40.4062C159.928 40.127 159.262 39.8803 158.606 39.6011C158.122 39.3916 157.895 39.1496 157.678 38.6982C157.515 38.3631 157.352 38.0326 157.189 37.6976L156.691 36.6783C156.612 36.5154 156.548 36.2595 156.345 36.185C156.01 36.0547 155.807 36.3898 155.857 36.6551C155.896 36.8738 156.252 36.7807 156.212 36.562C156.256 36.8086 156.503 37.1298 156.617 37.3625L157.031 38.2095C157.239 38.633 157.401 39.2613 157.786 39.5685C158.152 39.8617 158.675 40.0013 159.109 40.1689C159.425 40.2899 159.736 40.4248 160.047 40.5598C160.293 40.6668 160.639 40.746 160.846 40.9042C161.517 41.4255 160.817 41.6954 160.427 41.8629C160.111 42.0026 159.795 42.1375 159.479 42.2725C158.981 42.4866 158.408 42.6495 157.944 42.9241C157.535 43.1661 157.362 43.6082 157.179 44.0131C156.938 44.5437 156.71 45.0835 156.459 45.6094C156.316 45.9073 156.079 46.4518 155.63 46.247C155.358 46.1214 155.225 45.6979 155.107 45.4605C154.855 44.9486 154.603 44.4366 154.391 43.9107C154.258 43.5849 154.124 43.2452 153.833 43.0171C153.488 42.7472 153.009 42.6215 152.599 42.4633C152.047 42.2492 151.43 42.0537 150.922 41.7559C149.856 41.1369 151.267 40.6529 151.835 40.4248C152.58 40.127 153.73 39.8943 154.154 39.1775C154.381 38.7959 154.509 38.3538 154.702 37.9535C154.82 37.7022 154.939 37.4509 155.062 37.1996C155.19 36.9343 155.324 36.4735 155.625 36.3293C155.788 36.2501 156.33 36.4689 155.946 36.2315C155.867 36.185 155.783 36.1431 155.684 36.171C155.487 36.2222 155.447 36.441 155.378 36.5899C155.156 37.0786 154.899 37.5626 154.667 38.0513C154.435 38.5399 154.228 39.3265 153.725 39.6197C153.221 39.9129 152.659 40.0851 152.141 40.3085C151.706 40.4946 151.075 40.6389 150.714 40.9368C150.013 41.5185 151.232 41.9002 151.662 42.0724C152.205 42.2911 152.752 42.5005 153.29 42.7332C153.577 42.8542 153.843 42.9613 154.026 43.2126C154.169 43.4081 154.253 43.6734 154.356 43.8921C154.613 44.418 154.884 44.9393 155.121 45.4698C155.225 45.7025 155.314 45.9957 155.541 46.1447C156.202 46.5821 156.548 45.3069 156.715 44.9672C156.992 44.404 157.209 43.7804 157.549 43.2545C157.86 42.7705 158.729 42.5703 159.247 42.347C159.662 42.1654 160.106 42.0212 160.516 41.8257C160.743 41.7187 161.044 41.5465 161.053 41.2719C161.058 40.9554 160.738 40.8437 160.481 40.746C159.825 40.49 159.188 40.1921 158.546 39.9129C158.216 39.7686 157.821 39.6569 157.599 39.3684C157.431 39.145 157.332 38.8657 157.214 38.6191L156.187 36.5108C156.089 36.306 155.768 36.4829 155.867 36.6876L155.896 36.6969Z" fill="#2B63A8"/>
<path d="M120.165 2.10337L119.395 6.58987L117.554 17.3081L115.329 30.2697L113.394 41.5325L112.757 45.2417C112.659 45.8095 112.471 46.4239 112.456 47.001C112.456 47.0243 112.446 47.0522 112.441 47.0754C112.402 47.2942 112.762 47.3919 112.797 47.1685L113.567 42.682L115.408 31.9637L117.633 19.0022L119.568 7.73942L120.205 4.03015C120.303 3.46235 120.491 2.84802 120.506 2.27092C120.506 2.24764 120.515 2.21972 120.52 2.19645C120.56 1.97771 120.2 1.87998 120.165 2.10337Z" fill="#2B63A8"/>
<path d="M105.533 7.02324L105.035 6.93481L96.2055 5.35709C95.2037 5.18024 94.2512 5.82715 94.113 6.78123L92.8299 15.7915C92.7115 16.6106 93.2444 17.3878 94.0834 17.6205L105.188 20.7248L107.497 7.28387L105.518 7.0279L105.533 7.02324Z" fill="#D65039"/>
<path d="M105.582 6.85558L98.3717 5.56641C97.508 5.41283 96.3186 5.00327 95.4303 5.20339C94.1274 5.4966 93.9596 6.59961 93.8116 7.63746L92.7012 15.4609C92.5482 16.536 92.9677 17.4668 94.1373 17.8112C95.1144 18.0998 96.1015 18.3604 97.0836 18.635L105.153 20.8875C105.241 20.9108 105.365 20.8596 105.38 20.7665L107.403 9.01506L107.694 7.32564C107.709 7.24187 107.674 7.12552 107.566 7.11155L105.587 6.85558C105.355 6.823 105.251 7.16275 105.488 7.19067L107.467 7.44665L107.339 7.23256L105.315 18.984L105.024 20.6735L105.251 20.5525L98.8158 18.756L95.07 17.7088C94.009 17.411 92.8936 17.0991 93.0318 15.7588C93.2687 13.4457 93.6882 11.1373 94.0188 8.83355L94.2409 7.28841C94.2903 6.94401 94.31 6.59495 94.4926 6.28313C95.1786 5.101 96.6937 5.6176 97.7844 5.81307L105.498 7.19067C105.73 7.23256 105.829 6.89747 105.597 6.85558H105.582Z" fill="#2B63A8"/>
<path d="M120.343 2.14978C120.397 2.50814 117.184 19.6816 117.184 19.6816L102.073 17.2522L104.797 2.28475C104.955 1.41909 105.794 0.814067 106.722 0.902494L120.348 2.15443L120.343 2.14978Z" fill="#DC6F5D"/>
<path d="M120.16 2.14965C120.214 2.75002 119.963 3.47605 119.859 4.06246C119.617 5.46333 119.361 6.85955 119.109 8.26042C118.546 11.3554 117.974 14.4503 117.396 17.5406C117.268 18.2387 117.135 18.9368 117.007 19.6349L117.234 19.5139L103.983 17.3824L102.122 17.0845L102.25 17.2986L104.53 4.75592C104.664 4.01592 104.797 3.27593 104.935 2.53593C105.123 1.55393 105.853 1.00475 106.919 1.09318C109.184 1.28865 111.45 1.50739 113.715 1.71682L120.343 2.3265C120.58 2.34977 120.58 2.00072 120.343 1.97745L107.112 0.762742C106.006 0.660353 104.92 1.01871 104.634 2.15896C104.511 2.64298 104.452 3.14562 104.363 3.63894L102.966 11.3181L101.895 17.2102C101.88 17.2939 101.92 17.4056 102.023 17.4242L115.274 19.5558L117.135 19.8537C117.224 19.8676 117.342 19.8304 117.362 19.7326C118.314 14.6504 119.267 9.5682 120.16 4.47667C120.254 3.93215 120.348 3.39228 120.437 2.84776C120.471 2.62902 120.55 2.37304 120.53 2.1543C120.511 1.93556 120.14 1.93091 120.16 2.1543V2.14965Z" fill="#2B63A8"/>
<path d="M95.0454 20.5473C94.1917 20.5473 93.402 20.8126 92.7605 21.2594C92.7654 21.1663 92.7753 21.0686 92.7753 20.9755C92.7753 18.076 90.283 15.7257 87.2084 15.7257C85.1554 15.7257 83.3639 16.7775 82.4016 18.3366C81.2319 16.9358 79.4207 16.0329 77.3874 16.0329C75.0235 16.0329 72.9704 17.2476 71.865 19.044C70.9421 18.3227 69.7577 17.8852 68.4646 17.8852C65.5282 17.8852 63.1445 20.1331 63.1445 22.9023C63.1445 25.6714 65.5282 27.9193 68.4646 27.9193C68.9088 27.9193 94.5273 27.7657 94.5273 27.7657C94.695 27.789 94.8678 27.803 95.0405 27.803C97.1626 27.803 98.8899 26.1787 98.8899 24.1728C98.8899 22.1669 97.1676 20.5427 95.0405 20.5427L95.0454 20.5473Z" fill="#DFFBFF"/>
<path d="M95.0455 20.3752C94.1719 20.3985 93.3873 20.6358 92.6667 21.1105L92.9431 21.2595C93.1059 18.8719 91.4625 16.6194 89.0788 15.8421C86.483 14.9998 83.6452 16.0562 82.2387 18.2483L82.5299 18.211C81.1283 16.5775 78.9519 15.6746 76.7212 15.8887C74.6139 16.0935 72.778 17.2477 71.6972 18.951L71.9884 18.9138C69.6984 17.1825 66.3179 17.3454 64.3487 19.4444C62.5375 21.3711 62.5128 24.3358 64.2944 26.2905C65.469 27.5797 67.1223 28.0963 68.8743 28.0869C70.0143 28.0823 71.1593 28.073 72.2993 28.0683C76.3412 28.0451 80.388 28.0218 84.4299 27.9985C87.5884 27.9799 90.742 27.9613 93.9005 27.9427C94.1078 27.9427 94.3151 27.9287 94.5174 27.9427C95.7413 27.9985 96.8419 27.7751 97.7746 26.97C99.798 25.2154 99.3341 21.9808 96.8863 20.7987C96.3089 20.5195 95.6821 20.3891 95.0405 20.3752C94.8036 20.3705 94.8036 20.7196 95.0405 20.7242C98.278 20.7894 99.9658 24.6057 97.513 26.7233C96.6445 27.4773 95.6278 27.6402 94.4977 27.5936C94.2854 27.5843 94.0732 27.5936 93.861 27.5936C91.0973 27.6122 88.3386 27.6262 85.5749 27.6448C79.8748 27.6774 74.1648 27.8077 68.4647 27.7472C65.0989 27.71 62.5819 24.6243 63.5344 21.5433C64.5609 18.2343 68.9088 17.0336 71.7317 19.1698C71.8255 19.2396 71.9538 19.2396 72.0229 19.1326C74.2635 15.5955 79.5244 15.265 82.2733 18.4624C82.3522 18.5508 82.5052 18.5136 82.5644 18.4251C83.8821 16.368 86.5471 15.3814 88.9851 16.1819C91.2207 16.9172 92.7309 19.0302 92.5779 21.2595C92.568 21.3851 92.7457 21.4828 92.8542 21.4084C93.5156 20.9709 94.2361 20.7382 95.0455 20.7196C95.2824 20.7149 95.2824 20.3659 95.0455 20.3705V20.3752Z" fill="#2B63A8"/>
<path d="M128.831 5.21729C129.522 5.21729 130.154 5.43138 130.667 5.78974C130.667 5.71528 130.652 5.63616 130.652 5.56169C130.652 3.23001 132.661 1.33582 135.134 1.33582C136.787 1.33582 138.228 2.18285 139.003 3.43945C139.945 2.31317 141.401 1.58713 143.04 1.58713C144.94 1.58713 146.598 2.56448 147.486 4.01189C148.227 3.43014 149.184 3.08108 150.22 3.08108C152.584 3.08108 154.504 4.89151 154.504 7.1208C154.504 9.35009 152.584 11.1605 150.22 11.1605C149.86 11.1605 129.236 11.0349 129.236 11.0349C129.098 11.0535 128.965 11.0628 128.821 11.0628C127.109 11.0628 125.722 9.75499 125.722 8.14004C125.722 6.52508 127.109 5.21729 128.821 5.21729H128.831Z" fill="#DFFBFF"/>
<path d="M128.831 5.38945C129.483 5.40806 130.041 5.58957 130.578 5.93862C130.692 6.01309 130.865 5.91535 130.855 5.78969C130.736 4.03977 131.891 2.37828 133.633 1.76394C135.602 1.07049 137.769 1.85237 138.85 3.52317C138.904 3.6116 139.062 3.64883 139.141 3.5604C141.347 1.00999 145.527 1.26596 147.333 4.09562C147.402 4.20266 147.531 4.20266 147.625 4.13285C149.682 2.59236 152.792 3.19739 153.932 5.45926C154.978 7.53031 153.813 10.0807 151.504 10.7928C150.783 11.0162 150.048 10.9836 149.303 10.979C148.315 10.9743 147.328 10.9697 146.336 10.9603C140.982 10.9278 135.632 10.8952 130.277 10.8626C129.424 10.858 128.422 10.979 127.642 10.6485C126.423 10.1366 125.722 8.87067 125.964 7.6327C126.221 6.32026 127.44 5.42668 128.826 5.38945C129.063 5.38479 129.063 5.03574 128.826 5.04039C126.645 5.09624 124.997 7.09748 125.707 9.10338C126.018 9.97834 126.734 10.6904 127.647 11.0208C128.219 11.2303 128.767 11.2117 129.369 11.1977C131.615 11.1465 133.875 11.2256 136.126 11.2396C139.482 11.2582 142.832 11.2815 146.188 11.3001C147.289 11.3047 148.385 11.314 149.485 11.3187C150.586 11.3234 151.578 11.2629 152.53 10.723C154.662 9.51293 155.343 6.78101 153.976 4.81234C152.505 2.69475 149.436 2.33173 147.363 3.88153L147.654 3.91877C145.734 0.91225 141.243 0.581813 138.879 3.31374L139.171 3.35097C138.006 1.54985 135.667 0.69351 133.535 1.42885C131.644 2.08507 130.351 3.88619 130.485 5.78969L130.761 5.64076C130.174 5.25913 129.542 5.06366 128.831 5.04505C128.595 5.03574 128.595 5.38479 128.831 5.3941V5.38945Z" fill="#2B63A8"/>
</svg>
