<svg width="101" height="107" viewBox="0 0 101 107" fill="none" xmlns="http://www.w3.org/2000/svg">
<g clip-path="url(#clip0_434_10002)">
<path d="M82.4893 71.131L24.1727 103.435L1.27423 51.0867C0.171468 48.5569 1.14449 45.5729 3.60949 44.2107L52.6499 17.0309C55.3095 15.5389 58.6826 16.7066 59.9151 19.4959L82.4893 71.131Z" fill="#0565AD"/>
<path d="M82.3599 70.8067C80.4139 71.9095 78.4678 72.9474 76.5867 74.0501C71.9161 76.6449 67.3105 79.1747 62.64 81.7695C57.0613 84.8831 51.4826 87.9968 45.8391 91.0456L31.2437 99.1541L26.4435 101.814L24.9515 102.657C24.9515 102.657 24.3028 102.917 24.1731 103.111C24.1731 103.111 24.1082 103.111 24.0434 103.111H24.3677C22.6811 99.3487 20.9946 95.5864 19.3729 91.7592C16.0646 84.1696 12.7563 76.58 9.44802 68.9904L2.11791 52.1895C1.9233 51.8003 1.7287 51.3462 1.59896 50.957C0.561071 48.492 1.46923 45.7027 3.80448 44.3405C4.84237 43.7567 5.88027 43.1728 6.91816 42.589L25.4056 32.3398C32.3465 28.5126 39.2225 24.6854 46.1634 20.8582L52.0016 17.6148C52.0016 17.6148 52.5205 17.2904 52.8449 17.1607C55.4396 15.7984 58.5533 16.9012 59.7209 19.5608C61.5372 23.5826 63.2238 27.6045 64.9752 31.6263C68.2835 39.2808 71.6567 46.8703 74.965 54.5248L81.9059 70.3526L82.2951 71.1959C82.2951 71.1959 82.814 71.1959 82.6843 70.9365C80.9328 66.9795 79.2463 63.0225 77.4948 59.1304L67.3754 35.9725L60.3696 20.0149C60.1101 19.4959 59.9155 18.9121 59.5912 18.458C58.0992 16.3174 55.245 15.539 52.9097 16.5769C51.7421 17.0958 50.5745 17.8094 49.4717 18.458C43.1795 21.9609 36.8873 25.3989 30.6599 28.9018C23.719 32.7291 16.7133 36.6212 9.77236 40.4484L4.12882 43.5621C3.60988 43.8215 3.1558 44.081 2.70172 44.4702C0.690807 46.0919 0.106993 48.8164 1.08002 51.1516C2.83146 55.2383 4.64777 59.325 6.39921 63.3469C9.77236 71.0662 13.1455 78.7855 16.5187 86.5048L23.5893 102.592L23.9136 103.435C23.9136 103.435 24.1731 103.565 24.238 103.5C26.184 102.398 28.1301 101.36 30.0113 100.257C34.6818 97.6622 39.2874 95.1323 43.9579 92.5376C49.5366 89.4239 55.1153 86.3102 60.7588 83.2614C65.6239 80.537 70.489 77.8774 75.3542 75.1529L80.1544 72.4933C80.868 72.1041 81.7761 71.7797 82.4248 71.2608C82.4248 71.2608 82.4897 71.2608 82.5545 71.2608C82.814 71.1311 82.5545 70.677 82.2951 70.8716L82.3599 70.8067Z" fill="#0565AD"/>
<path d="M8.21558 54.6544L48.4988 2.56519L76.6516 23.5176L37.6658 75.8014L8.21558 54.6544Z" fill="white"/>
<path d="M47.4603 13.0092L17.4263 53.4221C18.4642 54.7844 18.7236 56.6007 18.1398 58.2224L33.7731 69.8338C35.1353 68.7959 36.9516 68.5364 38.5733 69.1202L68.6073 28.7073C67.5694 27.3451 67.3099 25.5288 67.8938 23.9071L52.2605 12.2957C50.8983 13.3335 49.082 13.593 47.4603 13.0092Z" fill="#AACD76"/>
<path d="M33.7088 69.9635L18.0107 58.2872C18.5945 56.6655 18.335 54.8492 17.2971 53.487V53.3573L47.396 12.9443C48.9528 13.5282 50.7691 13.2687 52.1314 12.2957L67.8295 23.9719C67.2457 25.5936 67.5051 27.41 68.543 28.7722V28.9019L38.4442 69.3797C36.8225 68.7959 35.071 69.0554 33.7088 70.0284V69.9635ZM18.2053 58.2224L33.7088 69.7689C35.071 68.731 36.8873 68.4716 38.509 69.0554L68.4782 28.7722C67.5051 27.41 67.1808 25.5936 67.7646 24.0368L52.2611 12.4903C50.8989 13.5282 49.0826 13.7228 47.5257 13.2038L17.5566 53.487C18.5296 54.8492 18.854 56.6655 18.2701 58.2224H18.2053Z" fill="#0565AD"/>
<path d="M47.9789 0.2948L4.77661 58.3519L36.9513 82.2883L80.1535 24.2312L47.9789 0.2948ZM71.2666 27.4746L72.3693 28.3179L39.2216 72.9472L38.1189 72.104C37.1459 71.3904 35.7188 71.585 35.0052 72.558L34.1619 73.6608L14.3122 58.9357L15.1555 57.8329C15.8691 56.8599 15.6745 55.4328 14.7015 54.7193L13.5987 53.876L46.7464 9.24662L47.8491 10.0899C48.8221 10.8035 50.2493 10.6089 50.9628 9.63583L51.8061 8.53307L71.6558 23.2582L70.8125 24.3609C70.0989 25.3339 70.2935 26.761 71.2666 27.4746Z" fill="#AACD76"/>
<path d="M36.9521 82.4182H36.8872L4.64771 58.417L47.9148 0.165283H47.9797L80.2192 24.2314L36.9521 82.4831V82.4182ZM4.84231 58.3521L36.8872 82.1587L80.0246 24.2314L47.9797 0.424756L4.84231 58.3521ZM34.1628 73.7907H34.0979L14.1833 58.9359L15.0915 57.7034C15.805 56.7304 15.6104 55.433 14.6374 54.7195L13.4698 53.8113L46.7472 9.1171L47.9797 10.0253C48.9527 10.7388 50.2501 10.5442 50.9636 9.57118L51.8718 8.40355H51.9367L71.8512 23.2584L70.9431 24.4909C70.2295 25.4639 70.4241 26.7613 71.3971 27.4748L72.5648 28.383L39.3522 73.1421L38.1197 72.2339C37.1467 71.5203 35.8493 71.715 35.1358 72.688L34.2276 73.8556L34.1628 73.7907ZM14.4428 58.9359L34.1628 73.5961L34.9412 72.5582C35.7196 71.5204 37.1467 71.3258 38.1846 72.1042L39.2225 72.8826L72.3053 28.383L71.2025 27.6046C70.1646 26.8261 69.97 25.399 70.7484 24.3611L71.5269 23.3232L51.8069 8.66302L51.0285 9.76578C50.2501 10.8037 48.823 10.9983 47.7851 10.2199L46.7472 9.44144L13.6644 53.9411L14.7672 54.7195C15.805 55.4979 15.9996 56.925 15.2212 57.9629L14.4428 59.0008V58.9359Z" fill="#0565AD"/>
<path d="M91.4412 84.0396L26.3135 105.9C23.0052 107.003 19.3726 105.252 18.2698 101.878L0.560791 49.2054L71.6564 25.269C74.9647 24.1662 78.5973 25.9177 79.7001 29.2908L95.3982 76.0608C96.5009 79.3691 94.7495 83.0017 91.3763 84.1045L91.4412 84.0396Z" fill="#6E94D0"/>
<path d="M91.3764 83.7153C89.4303 84.364 87.5491 85.0127 85.6031 85.6614C80.9326 87.2182 76.262 88.8399 71.5267 90.3968C65.6885 92.3428 59.8504 94.2888 54.0122 96.2998L37.7303 101.749C34.3572 102.916 30.9191 104.019 27.546 105.187C26.8325 105.446 26.1189 105.706 25.3405 105.835C22.1619 106.419 19.3726 104.408 18.3996 101.489C17.4266 98.5702 16.3887 95.4565 15.3508 92.4077C13.4696 86.8939 11.6533 81.3801 9.77211 75.8663C7.89093 70.3525 6.00975 64.7089 4.12857 59.1951L0.950025 49.4649L0.820289 49.0108L0.625684 49.3351C2.50686 48.6865 4.38804 48.0378 6.26922 47.454C10.9397 45.8971 15.6102 44.2754 20.3456 42.7186L38.2493 36.6858C44.0874 34.7398 49.9255 32.7937 55.7637 30.7828L68.2833 26.5664L71.3321 25.5285C73.6025 24.7501 75.9377 24.9447 77.8189 26.5664C79.0514 27.6692 79.5055 29.0963 80.0244 30.5234L81.711 35.6479L87.3545 52.384C89.2357 57.9626 91.1169 63.5413 92.9981 69.12L94.7495 74.3743C95.2036 75.6717 95.6577 76.9042 95.5928 78.3313C95.3982 80.7963 93.7765 82.8072 91.4412 83.6505C91.1169 83.7802 91.2466 84.2343 91.571 84.1045C95.009 82.872 96.8253 79.1745 95.7225 75.7365C95.3982 74.7635 95.0738 73.7905 94.7495 72.8175C93.0629 67.8226 91.3764 62.8277 89.6898 57.8329L83.5922 39.7346C82.4245 36.2318 81.2569 32.7937 80.0893 29.2909C79.1163 26.5015 76.6513 24.4906 73.6025 24.5555C72.4997 24.5555 71.5915 24.9447 70.5536 25.269L60.4991 28.6422L43.8279 34.2208C37.6006 36.2966 31.4381 38.3724 25.2107 40.4482C19.9564 42.1996 14.6372 44.016 9.3829 45.7674L0.950025 48.6216L0.560816 48.7513C0.560816 48.7513 0.366211 48.9459 0.366211 49.0757C1.14463 51.4109 1.92305 53.7462 2.70147 56.0166L8.02066 71.9093L13.8588 89.294L17.686 100.646C18.0752 101.878 18.4645 103.046 19.3077 104.019C21.124 106.16 23.9783 106.744 26.573 105.9C29.1677 105.057 31.6327 104.214 34.1626 103.37C39.2223 101.684 44.3469 99.9324 49.4066 98.2458C55.3096 96.2349 61.2126 94.2888 67.1805 92.2779C72.37 90.5265 77.6243 88.775 82.8137 87.0236L91.1817 84.2343L91.571 84.1045C91.571 84.1045 91.7656 83.5207 91.4412 83.6505L91.3764 83.7153Z" fill="#0565AD"/>
<path d="M7.0471 55.3035C9.25262 54.5899 11.523 53.8764 13.7285 53.2277C19.0477 51.5411 24.4318 49.8545 29.751 48.1679L49.0169 42.0703C54.5955 40.3189 60.1742 38.5674 65.7529 36.816L71.2667 35.0646C72.11 34.8051 73.083 34.6105 73.8614 34.2213C73.8614 34.2213 73.9263 34.2213 73.9911 34.2213C74.3155 34.1564 74.1857 33.6375 73.8614 33.7672C71.6559 34.4807 69.3855 35.1943 67.18 35.843C61.8608 37.5296 56.4767 39.2161 51.1575 40.9027L31.8916 47.0003C26.313 48.7518 20.7343 50.5032 15.1556 52.2546L9.64183 54.0061C8.79854 54.2656 7.82552 54.4602 7.0471 54.8494C7.0471 54.8494 6.98223 54.8494 6.91737 54.8494C6.59302 54.9142 6.72276 55.4332 7.0471 55.3035Z" fill="#0565AD"/>
<path d="M8.40965 59.39C10.6152 58.6765 12.8856 57.9629 15.0911 57.3142C20.4103 55.6276 25.7943 53.9411 31.1135 52.2545L50.3794 46.1569C55.9581 44.4054 61.5367 42.654 67.1154 40.9026L72.6292 39.1511C73.4725 38.8916 74.4455 38.697 75.2239 38.3078C75.2239 38.3078 75.2888 38.3078 75.3537 38.3078C75.678 38.243 75.5483 37.724 75.2239 37.8537C73.0184 38.5673 70.748 39.2808 68.5425 39.9295L52.5201 44.9892L33.2542 51.0869C27.6755 52.8383 22.0969 54.5897 16.5182 56.3412L11.0044 58.0926C10.1611 58.3521 9.18807 58.5467 8.40965 58.9359C8.40965 58.9359 8.34478 58.9359 8.27991 58.9359C7.95557 59.0008 8.08531 59.5197 8.40965 59.39Z" fill="#0565AD"/>
<path d="M82.2295 59.6494L81.6457 50.5678L81.9052 55.1086L81.5808 50.5678C84.6945 50.3732 89.9488 49.0759 91.4408 46.9352C91.6354 46.6757 92.0246 46.0919 91.6354 44.6648C91.1813 42.9783 90.4029 42.589 90.1434 42.4593C88.9758 41.8755 86.9649 42.0052 84.4999 42.9134L81.3862 34.3508C87.6136 32.0804 91.83 33.1183 94.2301 34.3508C97.2141 35.9076 99.2899 38.5672 100.328 42.1998C101.625 46.8704 100.198 50.1786 98.7709 52.1895C94.1653 58.6764 83.3323 59.5197 82.0998 59.5845L82.2295 59.6494Z" fill="#0565AD"/>
<path d="M82.6187 58.6118C84.4099 58.6118 85.8621 57.1597 85.8621 55.3684C85.8621 53.5771 84.4099 52.125 82.6187 52.125C80.8274 52.125 79.3752 53.5771 79.3752 55.3684C79.3752 57.1597 80.8274 58.6118 82.6187 58.6118Z" fill="white"/>
</g>
<defs>
<clipPath id="clip0_434_10002">
<rect width="100.676" height="106.189" fill="white" transform="translate(0.301758 0.165283)"/>
</clipPath>
</defs>
</svg>
