<svg width="600" height="600" viewBox="0 0 600 600" fill="none" xmlns="http://www.w3.org/2000/svg">
<g clip-path="url(#clip0_785_2556)">
<path d="M249.674 306.137V335.625C249.674 346.489 249.824 357.367 249.674 368.231C249.63 371.32 247.361 372.872 244.481 372.872C241.601 372.872 237.169 373.738 235.02 371.574C233.707 370.261 233.722 368.664 233.722 366.993V306.913C233.722 304.451 234.871 302.093 237.602 301.75C240.049 301.451 242.795 301.616 245.257 301.735C247.719 301.854 249.57 303.645 249.659 306.137C249.764 309.002 254.241 309.017 254.136 306.137C253.927 300.705 249.719 297.258 244.466 297.258C240.989 297.258 236.766 296.646 233.632 298.467C228.558 301.436 229.23 307.033 229.23 311.987V355.711C229.23 359.889 229.126 364.098 229.23 368.276C229.334 372.693 232.289 376.558 236.781 377.23C239.646 377.647 242.884 377.543 245.765 377.334C250.585 376.976 254.002 373.066 254.121 368.336C254.151 367.007 254.121 365.664 254.121 364.336V345.071C254.121 332.342 254.285 319.612 254.121 306.883C254.121 306.645 254.121 306.391 254.121 306.152C254.121 303.272 249.644 303.272 249.644 306.152L249.674 306.137Z" fill="#221F20"/>
<path d="M380.533 403.076C374.206 403.076 367.879 403.076 361.536 403.076C346.808 403.076 332.079 403.076 317.35 403.076C300.457 403.076 283.565 403.076 266.687 403.076H228.246C225.306 403.076 222.381 403.076 219.441 403.076C217.994 403.076 216.621 402.882 215.516 401.778C214.084 400.345 214.218 398.554 214.218 396.704C214.218 395.018 214.143 393.316 214.218 391.63C214.412 387.079 218.322 387.123 221.62 387.123H233.558C247.586 387.123 261.628 387.123 275.655 387.123H326.542C340.197 387.123 353.836 387.123 367.491 387.123H378.414C379.086 387.123 379.757 387.094 380.429 387.123C381.727 387.168 382.921 387.586 383.816 388.586C385.085 390.018 384.936 391.735 384.936 393.481C384.936 397.122 385.771 402.867 380.533 403.061C377.668 403.165 377.653 407.642 380.533 407.538C383.682 407.418 386.577 405.896 388.204 403.136C389.323 401.211 389.412 399.166 389.412 397.017C389.412 392.421 389.979 387.511 385.816 384.392C383.055 382.318 379.817 382.632 376.594 382.632C365.327 382.632 354.06 382.632 342.793 382.632C325.722 382.632 308.635 382.632 291.563 382.632C275.476 382.632 259.375 382.632 243.288 382.632C235.17 382.632 227.052 382.542 218.949 382.632C215.606 382.676 212.472 384.243 210.831 387.243C209.1 390.406 209.622 395.047 209.741 398.554C209.905 403.568 213.636 407.389 218.68 407.538C219.337 407.553 219.993 407.538 220.65 407.538C230.678 407.538 240.691 407.538 250.719 407.538C267.508 407.538 284.281 407.538 301.069 407.538C317.857 407.538 334.243 407.538 350.837 407.538H379.175C379.623 407.538 380.071 407.538 380.533 407.538C383.413 407.538 383.413 403.061 380.533 403.061V403.076Z" fill="#221F20"/>
<path d="M367.549 306.137V335.625C367.549 346.489 367.699 357.367 367.549 368.231C367.505 371.32 365.236 372.872 362.356 372.872C359.476 372.872 355.044 373.738 352.895 371.574C351.582 370.261 351.597 368.664 351.597 366.993V306.913C351.597 304.451 352.746 302.093 355.477 301.75C357.924 301.451 360.67 301.616 363.132 301.735C365.594 301.854 367.445 303.645 367.534 306.137C367.639 309.002 372.116 309.017 372.011 306.137C371.802 300.705 367.594 297.258 362.341 297.258C358.864 297.258 354.641 296.646 351.507 298.467C346.433 301.436 347.105 307.033 347.105 311.987V355.711C347.105 359.889 347.001 364.098 347.105 368.276C347.209 372.693 350.164 376.558 354.656 377.23C357.521 377.647 360.759 377.543 363.64 377.334C368.46 376.976 371.877 373.066 371.996 368.336C372.026 367.007 371.996 365.664 371.996 364.336V345.071C371.996 332.342 372.16 319.612 371.996 306.883C371.996 306.645 371.996 306.391 371.996 306.152C371.996 303.272 367.519 303.272 367.519 306.152L367.549 306.137Z" fill="#221F20"/>
<path d="M327.143 306.137V335.625C327.143 346.489 327.292 357.367 327.143 368.231C327.098 371.32 324.83 372.872 321.95 372.872C319.07 372.872 314.638 373.738 312.489 371.574C311.176 370.261 311.191 368.664 311.191 366.993V306.913C311.191 304.451 312.34 302.093 315.07 301.75C317.518 301.451 320.264 301.616 322.726 301.735C325.188 301.854 327.039 303.645 327.128 306.137C327.233 309.002 331.709 309.017 331.605 306.137C331.396 300.705 327.188 297.258 321.935 297.258C318.458 297.258 314.235 296.646 311.101 298.467C306.027 301.436 306.699 307.033 306.699 311.987V355.711C306.699 359.889 306.594 364.098 306.699 368.276C306.803 372.693 309.758 376.558 314.25 377.23C317.115 377.647 320.353 377.543 323.233 377.334C328.053 376.976 331.471 373.066 331.59 368.336C331.62 367.007 331.59 365.664 331.59 364.336V345.071C331.59 332.342 331.754 319.612 331.59 306.883C331.59 306.645 331.59 306.391 331.59 306.152C331.59 303.272 327.113 303.272 327.113 306.152L327.143 306.137Z" fill="#221F20"/>
<path d="M288.19 306.137V335.625C288.19 346.489 288.339 357.367 288.19 368.231C288.145 371.32 285.877 372.872 282.997 372.872C280.117 372.872 275.685 373.738 273.536 371.574C272.223 370.261 272.237 368.664 272.237 366.993V306.913C272.237 304.451 273.386 302.093 276.117 301.75C278.565 301.451 281.311 301.616 283.773 301.735C286.235 301.854 288.085 303.645 288.175 306.137C288.279 309.002 292.756 309.017 292.652 306.137C292.443 300.705 288.235 297.258 282.982 297.258C279.505 297.258 275.282 296.646 272.148 298.467C267.074 301.436 267.746 307.033 267.746 311.987V355.711C267.746 359.889 267.641 364.098 267.746 368.276C267.85 372.693 270.805 376.558 275.297 377.23C278.162 377.647 281.4 377.543 284.28 377.334C289.1 376.976 292.518 373.066 292.637 368.336C292.667 367.007 292.637 365.664 292.637 364.336V345.071C292.637 332.342 292.801 319.612 292.637 306.883C292.637 306.645 292.637 306.391 292.637 306.152C292.637 303.272 288.16 303.272 288.16 306.152L288.19 306.137Z" fill="#221F20"/>
<path d="M389.011 275.456L339.631 243.61C335.229 260.518 319.858 273.008 301.578 273.008C283.297 273.008 267.076 259.817 263.181 242.178L211.891 275.262C207.116 278.351 208.429 285.215 213.19 286.887C213.981 287.23 214.861 287.454 215.861 287.454H385.489C391.98 287.454 394.487 278.992 389.026 275.471L389.011 275.456Z" fill="#C5D8E3"/>
<path d="M301.58 192.112C284.688 192.216 269.347 202.558 263.005 218.227C256.304 234.746 261.393 254.534 275.212 265.786C288.687 276.754 308.057 278.321 323.01 269.308C338.395 260.011 346.17 241.432 342.006 223.927C337.574 205.393 320.517 192.231 301.58 192.112C298.7 192.097 298.7 196.574 301.58 196.588C316.414 196.678 330.128 205.662 335.843 219.42C342.051 234.373 337.574 251.922 325.203 262.264C312.832 272.606 295.716 273.441 282.449 265.443C268.646 257.116 261.647 240.283 265.601 224.614C269.735 208.228 284.747 196.693 301.58 196.574C304.46 196.559 304.46 192.082 301.58 192.097V192.112Z" fill="#221F20"/>
<path d="M304.668 235.552C307.533 235.552 310.383 235.581 313.248 235.537C314.054 235.537 314.293 235.76 314.248 236.551C314.188 237.506 314.173 238.491 314.248 239.446C314.308 240.312 313.994 240.536 313.174 240.521C307.936 240.491 302.698 240.521 297.46 240.521C296.087 240.521 296.147 240.506 296.52 241.819C298.161 247.55 303.817 249.684 309.115 249.221C311.249 249.042 313.323 248.579 315.293 247.729C315.89 247.46 316.084 247.55 316.218 248.236C316.606 250.251 317.098 252.235 317.561 254.22C317.71 254.832 317.695 255.28 316.994 255.563C308.622 258.921 300.504 258.816 292.908 253.549C288.879 250.758 286.477 246.744 285.492 241.953C285.253 240.804 284.805 240.431 283.611 240.476C280.537 240.581 280.537 240.521 280.522 237.372C280.522 236.158 281.134 235.552 282.358 235.552C284.492 235.552 284.417 235.552 284.522 233.388C284.581 232.194 284.298 231.806 283.029 231.866C280.522 231.97 280.522 231.895 280.493 229.418C280.473 227.767 281.288 226.936 282.94 226.926C285.238 226.911 285.178 226.881 285.939 224.673C288.879 216.137 294.744 211.093 303.772 209.869C308.04 209.302 312.174 209.929 316.233 211.287C317.143 211.585 317.531 211.899 317.188 212.973C316.606 214.839 316.158 216.764 315.77 218.689C315.576 219.689 315.308 219.883 314.293 219.524C311.055 218.331 307.727 217.674 304.265 218.599C300.415 219.614 297.952 222.076 296.594 225.777C296.251 226.702 296.356 226.986 297.445 226.986C302.593 226.926 307.757 226.986 312.905 226.941C313.92 226.941 314.382 227.165 314.233 228.269C314.084 229.448 314.726 231.045 313.965 231.731C313.293 232.313 311.741 231.925 310.592 231.925C305.802 231.925 301.011 231.94 296.206 231.91C295.371 231.91 295.102 232.134 295.102 232.985C295.102 235.581 295.057 235.581 297.639 235.581C299.982 235.581 302.31 235.581 304.653 235.581L304.668 235.552Z" fill="url(#paint0_linear_785_2556)"/>
</g>
<defs>
<linearGradient id="paint0_linear_785_2556" x1="280.478" y1="233.761" x2="317.621" y2="233.761" gradientUnits="userSpaceOnUse">
<stop stop-color="#9BCB9E"/>
<stop offset="1" stop-color="#78C1C4"/>
</linearGradient>
<clipPath id="clip0_785_2556">
<rect width="183.103" height="215.456" fill="white" transform="translate(208.898 192.111)"/>
</clipPath>
</defs>
</svg>
