<svg width="600" height="600" viewBox="0 0 600 600" fill="none" xmlns="http://www.w3.org/2000/svg">
<g clip-path="url(#clip0_843_1283)">
<path d="M339.527 400.702C323.949 400.702 308.352 400.702 292.774 400.702C269.717 400.702 246.679 400.702 223.622 400.702C218.495 400.702 211.337 401.823 206.904 398.725C200.619 394.346 201.207 386.939 201.207 380.28C201.207 359.538 201.207 338.814 201.207 318.073C201.207 295.248 201.207 272.405 201.207 249.58C201.207 245.022 201.153 240.446 201.207 235.871C201.278 230.084 203.664 225.562 207.403 221.396C211.142 217.23 215.13 212.761 218.993 208.452C221.735 205.39 224.334 202.007 227.361 199.194C230.851 195.954 234.821 195.918 239.147 195.918C250.417 195.918 261.688 195.918 272.958 195.918C290.388 195.918 307.836 195.918 325.266 195.918C329.076 195.918 332.904 195.883 336.714 195.918C344.121 195.989 350.815 199.995 354.073 206.708C355.693 210.055 355.889 213.562 355.925 217.176L356.032 228.482C356.245 251.004 356.459 273.527 356.655 296.049C356.655 297.74 356.69 299.432 356.708 301.123C356.744 304.559 362.085 304.559 362.05 301.123C361.871 281.894 361.693 262.684 361.515 243.455C361.426 234.357 361.337 225.242 361.266 216.144C361.213 211.23 360.323 206.476 357.705 202.221C353.254 194.992 345.367 190.684 336.91 190.595C320.869 190.417 304.827 190.595 288.785 190.595C276.857 190.595 264.91 190.595 252.981 190.595H238.578C233.504 190.595 228.821 191.147 224.637 194.512C221.201 197.289 218.406 201.099 215.486 204.375C211.551 208.773 207.634 213.153 203.699 217.55C202.507 218.886 201.278 220.185 200.245 221.645C197.326 225.74 195.919 230.761 195.848 235.782C195.848 236.939 195.848 238.096 195.848 239.254C195.848 258.874 195.848 278.494 195.848 298.114C195.848 322.114 195.848 346.114 195.848 370.132C195.848 375.598 195.83 381.064 195.848 386.529C195.866 392.476 198.038 398.405 202.738 402.251C206.121 405.028 210.073 406.043 214.364 406.043C233.735 406.043 253.124 406.043 272.495 406.043C293.646 406.043 314.797 406.043 335.931 406.043C337.124 406.043 338.317 406.043 339.527 406.043C342.963 406.043 342.963 400.702 339.527 400.702Z" fill="#231F20"/>
<path d="M232.72 193.267V219.706C232.72 221.166 232.826 222.643 232.239 224.032C231.188 226.525 228.749 227.807 226.15 227.842C221.717 227.878 217.266 227.842 212.832 227.842H199.194C195.758 227.842 195.758 233.184 199.194 233.184C208.132 233.184 217.07 233.237 226.007 233.184C232.755 233.148 238.025 228.092 238.079 221.273C238.114 216.661 238.079 212.05 238.079 207.421V193.267C238.079 189.83 232.737 189.83 232.737 193.267H232.72Z" fill="#231F20"/>
<path d="M281.147 242.547C280.4 242.547 279.67 242.547 278.922 242.547C278.263 242.547 277.996 242.297 277.978 241.639C277.978 240.624 277.978 239.609 277.978 238.594C277.978 238.345 277.907 238.238 277.658 238.185C274.132 237.294 271.124 235.514 268.684 232.808C268.542 232.648 268.382 232.487 268.239 232.327C267.812 231.793 267.83 231.437 268.311 230.956C268.934 230.333 269.592 229.728 270.233 229.105C270.892 228.481 271.551 227.858 272.21 227.235C272.957 226.523 273.331 226.523 274.115 227.182C275.094 228.001 276.038 228.855 277.141 229.514C278.886 230.564 280.738 231.063 282.767 230.654C284.405 230.333 285.313 229.3 285.331 227.716C285.331 227.128 285.118 226.648 284.708 226.256C283.871 225.437 282.839 224.956 281.77 224.582C279.598 223.817 277.426 223.051 275.397 221.929C273.581 220.915 271.943 219.686 270.803 217.906C267.848 213.223 269.539 207.383 274.542 204.944C275.486 204.481 276.465 204.143 277.497 203.929C277.907 203.858 277.996 203.68 277.978 203.306C277.943 202.452 277.978 201.579 277.978 200.725C277.978 199.977 278.316 199.656 279.064 199.639C280.417 199.639 281.788 199.639 283.141 199.639C283.96 199.639 284.388 200.066 284.388 200.885C284.388 201.686 284.388 202.47 284.388 203.271C284.388 203.609 284.477 203.734 284.815 203.805C287.681 204.375 290.192 205.656 292.346 207.633C293.45 208.648 293.45 209.146 292.417 210.232C291.349 211.372 290.281 212.511 289.195 213.651C288.572 214.309 288.127 214.345 287.414 213.775C286.595 213.099 285.794 212.422 284.868 211.906C283.373 211.069 281.806 210.82 280.132 211.247C279.741 211.354 279.385 211.496 279.046 211.728C278.032 212.458 277.889 213.882 278.779 214.79C279.349 215.378 280.061 215.734 280.809 216.001C282.465 216.606 284.156 217.158 285.812 217.781C287.664 218.458 289.48 219.241 291.064 220.47C293.183 222.108 294.305 224.226 294.447 226.897C294.732 231.918 291.776 235.532 287.913 237.259C286.916 237.704 285.865 238.06 284.779 238.256C284.477 238.309 284.352 238.416 284.352 238.754C284.37 239.68 284.352 240.588 284.352 241.514C284.352 242.315 284.067 242.582 283.284 242.582C282.554 242.582 281.824 242.582 281.094 242.582L281.147 242.547Z" fill="url(#paint0_linear_843_1283)"/>
<path d="M218.495 326.296H294.056C297.492 326.296 297.492 320.955 294.056 320.955H218.495C215.059 320.955 215.059 326.296 218.495 326.296Z" fill="#231F20"/>
<path d="M218.495 343.871H294.056C297.492 343.871 297.492 338.529 294.056 338.529H218.495C215.059 338.529 215.059 343.871 218.495 343.871Z" fill="#231F20"/>
<path d="M218.495 306.853H322.952C326.388 306.853 326.388 301.512 322.952 301.512H218.495C215.059 301.512 215.059 306.853 218.495 306.853Z" fill="#231F20"/>
<path d="M222.282 272.954H224.718V285.837H229.738V287.803H222.282V272.954ZM246.133 280.346C246.133 284.812 242.778 287.952 238.548 287.952C234.36 287.952 230.963 284.812 230.963 280.346C230.963 275.902 234.36 272.762 238.548 272.762C242.778 272.762 246.133 275.902 246.133 280.346ZM233.463 280.346C233.463 283.701 235.6 285.837 238.548 285.837C241.496 285.837 243.633 283.701 243.633 280.346C243.633 276.992 241.496 274.898 238.548 274.898C235.6 274.898 233.463 276.992 233.463 280.346ZM258.549 287.803L257.481 284.769H251.264L250.196 287.803H247.653L252.973 272.933H255.793L261.113 287.803H258.549ZM256.798 282.782L254.383 275.881L251.948 282.782H256.798ZM273.19 272.933H275.626V287.803H273.19L265.862 276.714V287.803H263.426V272.933H265.862L273.19 284V272.933Z" fill="#231F20"/>
<path d="M217.944 365.554C215.914 370.397 215.202 380.563 221.059 383.341C224.763 385.085 228.466 382.059 231.671 380.474C236.015 378.32 240.519 376.486 245.059 374.759L241.766 372.89C243.706 379.085 247.107 385.014 254.442 384.409C256.24 384.249 257.967 383.608 259.463 382.611C261.208 381.453 262.543 379.37 264.537 378.711C268.151 377.519 273.101 380.367 275.273 383.216C277.321 385.922 281.967 383.269 279.884 380.527C277.463 377.341 274.009 374.973 270.217 373.744C265.801 372.302 261.689 373.477 258.43 376.611C256.312 378.64 254.193 379.602 251.326 378.765C250.935 378.64 250.098 378.071 249.546 377.358C248.246 375.667 247.534 373.513 246.911 371.501C246.519 370.219 245.024 369.097 243.617 369.631C237.137 372.106 231.012 375.026 224.816 378.088C223.677 378.658 223.214 378.765 222.662 377.59C222.234 376.646 222.056 375.507 221.95 374.474C221.665 371.892 222.092 369.4 223.107 366.996C223.677 365.661 222.502 364.076 221.237 363.703C219.706 363.257 218.513 364.237 217.944 365.572V365.554Z" fill="#231F20"/>
<path d="M372 349.37C360.819 349.37 350.385 342.16 346.646 331.584C344.261 324.801 345.062 317.181 345.062 310.094L342.391 312.765H401.626L398.955 310.094C398.955 317.074 399.756 324.605 397.46 331.299C393.756 342.106 383.305 349.246 372 349.37C368.563 349.406 368.563 354.747 372 354.712C384.854 354.569 396.658 346.913 401.715 335.02C405.062 327.115 404.296 318.48 404.296 310.094C404.296 308.652 403.068 307.424 401.626 307.424H342.391C340.949 307.424 339.721 308.652 339.721 310.094C339.721 318.587 338.955 327.311 342.409 335.287C347.465 346.949 359.287 354.694 372 354.694C375.436 354.694 375.436 349.353 372 349.353V349.37Z" fill="#231F20"/>
<path d="M346.27 332.367C350.418 329.786 354.745 327.061 359.641 326.189C364.982 325.245 369.932 327.578 374.543 329.981C382.751 334.237 392.988 338.705 401.053 331.619L399.166 332.403C399.665 332.403 400.163 332.421 400.662 332.438C404.098 332.51 404.098 327.168 400.662 327.097C399.309 327.061 398.418 327.044 397.279 327.845C396.335 328.504 395.552 329.127 394.43 329.501C392.294 330.231 389.926 330.231 387.736 329.786C382.252 328.646 377.57 325.281 372.496 323.073C367.421 320.866 362.703 320.029 357.487 321.186C352.27 322.343 347.908 325.067 343.564 327.756C340.644 329.554 343.332 334.183 346.252 332.367H346.27Z" fill="#231F20"/>
<path d="M372 352.717C359.287 352.717 347.465 360.462 342.409 372.124C338.955 380.118 339.721 388.824 339.721 397.317C339.721 398.759 340.949 399.987 342.391 399.987H401.626C403.068 399.987 404.296 398.759 404.296 397.317C404.296 388.931 405.062 380.296 401.715 372.391C396.676 360.498 384.872 352.842 372 352.699C368.563 352.664 368.563 358.005 372 358.041C383.305 358.165 393.756 365.305 397.46 376.112C399.756 382.806 398.955 390.337 398.955 397.317L401.626 394.646H342.391L345.062 397.317C345.062 390.231 344.261 382.61 346.646 375.827C350.385 365.234 360.836 358.041 372 358.041C375.436 358.041 375.436 352.699 372 352.699V352.717Z" fill="#231F20"/>
<path d="M344.207 378.784C348.64 380.369 353.109 381.811 357.792 382.416C362.848 383.057 367.833 382.416 372.747 381.099C377.376 379.87 381.916 378.107 386.688 377.556C388.913 377.288 391.263 377.253 393.489 377.627C395.714 378.001 397.513 379.087 399.809 379.051C403.246 379.015 403.246 373.674 399.809 373.71C398.26 373.71 396.355 372.713 394.557 372.41C392.349 372.036 390.106 371.929 387.863 372.107C383.091 372.464 378.551 373.852 373.993 375.205C369.436 376.558 364.7 377.645 359.821 377.288C354.943 376.932 350.225 375.277 345.631 373.639C342.391 372.481 340.985 377.645 344.207 378.784Z" fill="#231F20"/>
<path d="M370.326 364.114C371.496 364.114 372.444 363.166 372.444 361.996C372.444 360.826 371.496 359.877 370.326 359.877C369.156 359.877 368.207 360.826 368.207 361.996C368.207 363.166 369.156 364.114 370.326 364.114Z" fill="#231F20"/>
<path d="M374.33 368.601C375.5 368.601 376.448 367.652 376.448 366.482C376.448 365.312 375.5 364.363 374.33 364.363C373.16 364.363 372.211 365.312 372.211 366.482C372.211 367.652 373.16 368.601 374.33 368.601Z" fill="#231F20"/>
<path d="M367.603 372.126C368.773 372.126 369.722 371.177 369.722 370.007C369.722 368.837 368.773 367.889 367.603 367.889C366.433 367.889 365.484 368.837 365.484 370.007C365.484 371.177 366.433 372.126 367.603 372.126Z" fill="#231F20"/>
<path d="M372.834 375.241C374.004 375.241 374.952 374.293 374.952 373.123C374.952 371.952 374.004 371.004 372.834 371.004C371.663 371.004 370.715 371.952 370.715 373.123C370.715 374.293 371.663 375.241 372.834 375.241Z" fill="#231F20"/>
<path d="M402.66 298.328H340.399C338.088 298.328 336.215 300.201 336.215 302.512V308.672C336.215 310.983 338.088 312.856 340.399 312.856H402.66C404.971 312.856 406.844 310.983 406.844 308.672V302.512C406.844 300.201 404.971 298.328 402.66 298.328Z" fill="#C1D9E5"/>
<path d="M402.66 394.557H340.399C338.088 394.557 336.215 396.43 336.215 398.741V404.901C336.215 407.212 338.088 409.085 340.399 409.085H402.66C404.971 409.085 406.844 407.212 406.844 404.901V398.741C406.844 396.43 404.971 394.557 402.66 394.557Z" fill="#C1D9E5"/>
</g>
<defs>
<linearGradient id="paint0_linear_843_1283" x1="267.937" y1="221.093" x2="294.5" y2="221.093" gradientUnits="userSpaceOnUse">
<stop stop-color="#8DCC9A"/>
<stop offset="1" stop-color="#5DC4C6"/>
</linearGradient>
<clipPath id="clip0_843_1283">
<rect width="210.979" height="218.582" fill="white" transform="translate(195.844 190.504)"/>
</clipPath>
</defs>
</svg>
