<svg width="600" height="600" viewBox="0 0 600 600" fill="none" xmlns="http://www.w3.org/2000/svg">
<g clip-path="url(#clip0_785_1592)">
<path d="M382.652 374.364C380.558 376.19 375.676 382.062 372.747 379.119C370.88 377.251 369.238 375.114 367.498 373.133C361.145 365.875 354.777 358.63 348.424 351.371C346.938 349.673 344.136 347.664 345.084 345.131C345.834 343.122 348.254 341.579 349.811 340.207C351.367 338.834 353.956 336.146 356.206 337.815C356.73 338.197 357.154 338.862 357.579 339.344L360.748 342.952L370.328 353.89C373.851 357.908 377.374 361.927 380.898 365.959C381.832 367.035 382.808 368.082 383.714 369.171C385.157 370.912 384.209 372.907 382.652 374.364C380.657 376.232 383.657 379.232 385.652 377.364C388.638 374.563 389.94 370.035 387.138 366.653C386.657 366.073 386.147 365.521 385.652 364.969L376.554 354.583L365.404 341.848C363.451 339.627 361.597 337.278 359.531 335.155C356.815 332.353 352.527 332.736 349.528 334.9C347.646 336.259 345.962 337.957 344.221 339.485C341.717 341.678 339.863 344.904 340.854 348.315C341.25 349.673 342.17 350.663 343.075 351.682C349.627 359.153 356.178 366.639 362.729 374.11C365.078 376.784 367.314 379.628 369.804 382.175C372.903 385.359 377.587 384.34 380.686 381.737C382.369 380.307 384.011 378.822 385.666 377.378C387.718 375.581 384.718 372.582 382.667 374.379L382.652 374.364Z" fill="#221F20"/>
<path d="M235.482 322.562C235.397 329.297 231.237 335.551 224.813 337.858C218.389 340.164 210.988 338.198 206.602 332.877C202.215 327.557 201.762 319.902 205.314 314.086C208.866 308.271 215.714 305.257 222.294 306.573C229.935 308.115 235.383 314.794 235.482 322.562C235.524 325.293 239.769 325.293 239.727 322.562C239.613 313.931 234.279 306.261 226.157 303.262C218.035 300.262 208.823 302.894 203.446 309.431C198.069 315.968 197.107 325.76 201.635 333.188C206.163 340.617 214.766 344.268 223.171 342.697C232.765 340.9 239.585 332.184 239.712 322.562C239.755 319.831 235.51 319.831 235.467 322.562H235.482Z" fill="#221F20"/>
<path d="M254.627 288.135C245.755 286.381 239.841 277.579 242.274 268.679C244.807 259.453 254.896 255.081 263.57 258.59C266.103 259.609 267.206 255.506 264.702 254.501C256.24 251.077 246.533 253.992 241.185 261.321C235.836 268.651 236.402 278.174 241.68 284.966C244.609 288.729 248.826 291.319 253.509 292.239C256.184 292.762 257.316 288.673 254.641 288.149L254.627 288.135Z" fill="#221F20"/>
<path d="M397.755 235.569C397.67 242.021 393.694 247.964 387.553 250.171C381.412 252.379 374.323 250.454 370.149 245.36C365.975 240.266 365.578 233.106 368.89 227.588C372.201 222.07 378.738 219.07 385.049 220.273C392.407 221.688 397.67 228.112 397.769 235.554C397.812 238.285 402.057 238.285 402.014 235.554C401.901 227.319 396.85 219.961 389.124 217.018C381.398 214.075 372.229 216.537 367.008 222.933C361.786 229.328 360.951 238.526 365.225 245.672C369.498 252.817 377.818 256.44 385.94 254.982C395.251 253.312 401.887 244.865 402.014 235.554C402.057 232.823 397.812 232.823 397.769 235.554L397.755 235.569Z" fill="#221F20"/>
<path d="M250.876 289.791C246.235 296.314 241.58 302.823 236.938 309.346C236.273 310.28 235.608 311.214 234.929 312.147C234.25 313.081 234.759 314.51 235.693 315.048C236.754 315.671 237.929 315.218 238.594 314.284C243.235 307.761 247.89 301.252 252.532 294.729C253.197 293.795 253.862 292.861 254.541 291.927C255.22 290.993 254.711 289.564 253.777 289.027C252.715 288.404 251.541 288.857 250.876 289.791Z" fill="#221F20"/>
<path d="M226.211 305.455C230.852 298.932 235.508 292.423 240.149 285.9C240.814 284.966 241.479 284.032 242.158 283.098C242.837 282.164 242.328 280.735 241.394 280.197C240.333 279.575 239.158 280.028 238.493 280.962C233.852 287.485 229.197 293.994 224.556 300.517C223.891 301.451 223.226 302.384 222.546 303.318C221.867 304.252 222.377 305.681 223.31 306.219C224.372 306.842 225.546 306.389 226.211 305.455Z" fill="#221F20"/>
<path d="M270.583 268.279L265.32 282.566L317.555 301.806L322.818 287.519L270.583 268.279Z" fill="#C5D8E3"/>
<path d="M342.187 297.149L330.23 287.739L352.333 259.68L360.582 274.212L342.187 297.149Z" fill="#C5D8E3"/>
<path d="M354.779 260.43C358.119 256.213 361.472 251.983 364.812 247.766C365.279 247.172 365.746 246.592 366.212 245.997C366.92 245.106 367.09 243.875 366.212 242.998C365.477 242.262 363.92 242.092 363.213 242.998C359.873 247.214 356.52 251.445 353.18 255.662C352.713 256.256 352.247 256.836 351.78 257.43C351.072 258.322 350.902 259.553 351.78 260.43C352.515 261.166 354.072 261.336 354.779 260.43Z" fill="#221F20"/>
<path d="M375.156 252.449C370.458 258.378 365.761 264.307 361.063 270.236C360.412 271.07 359.747 271.891 359.096 272.726C358.388 273.617 358.219 274.848 359.096 275.726C359.832 276.461 361.388 276.631 362.096 275.726C366.794 269.797 371.491 263.868 376.189 257.939C376.84 257.104 377.505 256.284 378.156 255.449C378.863 254.558 379.033 253.326 378.156 252.449C377.42 251.713 375.864 251.544 375.156 252.449Z" fill="#221F20"/>
<path d="M332.268 314.624C342.021 314.624 349.927 306.717 349.927 296.965C349.927 287.212 342.021 279.306 332.268 279.306C322.516 279.306 314.609 287.212 314.609 296.965C314.609 306.717 322.516 314.624 332.268 314.624Z" fill="url(#paint0_linear_785_1592)"/>
<path d="M254.867 291.588C256.112 291.842 257.4 291.97 258.716 291.97C269.286 291.97 277.847 283.409 277.847 272.839C277.847 265.764 273.998 259.581 268.281 256.27C265.494 258.845 260.4 264.264 257.258 272.797C254.315 280.834 254.499 287.838 254.853 291.573L254.867 291.588Z" fill="url(#paint1_linear_785_1592)"/>
<path d="M361.837 271.877C357.026 259.694 348.324 249.407 336.905 242.926C327.354 237.507 316.232 234.932 305.266 235.682C281.311 237.323 260.439 254.261 254.185 277.537C247.903 300.941 257.638 326.354 277.844 339.655C295.588 351.329 319.02 351.951 337.386 341.325C358.371 329.184 369.337 304.28 364.413 280.579C363.79 277.608 362.913 274.707 361.837 271.863C360.875 269.344 356.758 270.434 357.748 272.995C361.936 283.933 362.587 295.96 359.248 307.209C356.163 317.595 349.796 326.92 341.278 333.599C326.166 345.442 304.884 348.074 287.395 340.079C267.444 330.967 255.063 310.138 256.647 288.263C258.232 266.387 275.509 245.87 297.852 240.974C320.194 236.078 342.056 245.969 353.588 264.675C355.215 267.321 356.616 270.094 357.748 272.981C358.739 275.485 362.842 274.396 361.837 271.849V271.877Z" fill="#221F20"/>
</g>
<defs>
<linearGradient id="paint0_linear_785_1592" x1="314.609" y1="296.965" x2="349.927" y2="296.965" gradientUnits="userSpaceOnUse">
<stop stop-color="#9BCB9E"/>
<stop offset="1" stop-color="#78C1C4"/>
</linearGradient>
<linearGradient id="paint1_linear_785_1592" x1="254.669" y1="274.127" x2="277.847" y2="274.127" gradientUnits="userSpaceOnUse">
<stop stop-color="#9BCB9E"/>
<stop offset="1" stop-color="#78C1C4"/>
</linearGradient>
<clipPath id="clip0_785_1592">
<rect width="203.277" height="168.355" fill="white" transform="translate(198.723 215.802)"/>
</clipPath>
</defs>
</svg>
