<svg width="101" height="91" viewBox="0 0 101 91" fill="none" xmlns="http://www.w3.org/2000/svg">
<g clip-path="url(#clip0_434_9741)">
<path d="M32.092 90.2507L89.4441 90.5444C92.0143 90.5444 94.3642 89.1492 95.6125 86.7993L99.9452 78.4278L68.1481 7.78407C67.5607 6.75599 66.4592 6.09508 65.2842 6.09508L9.54765 0.66095L1.83706 9.54649C0.662109 10.8683 0.368373 12.7042 0.955846 14.3931L25.6297 85.6243C26.5844 88.4148 29.1546 90.2507 32.092 90.2507Z" fill="#223838"/>
<path d="M35.6905 80.7044L96.7143 80.3372C99.2845 80.3372 101.12 77.767 100.313 75.3437L75.7122 2.64381C75.1981 1.10169 73.7294 0.0736084 72.1139 0.0736084L10.9432 0.440779C8.37298 0.440779 6.53713 3.01098 7.3449 5.43431L32.0188 78.1342C32.5328 79.6763 34.0015 80.7044 35.6171 80.7044H35.6905Z" fill="#6E94D0"/>
<path d="M35.6901 80.7776C34.0011 80.7776 32.5324 79.7496 32.0184 78.134L7.34448 5.50757C6.90387 4.33262 7.12417 3.0108 7.85852 1.98272C8.59286 0.954645 9.76781 0.367171 11.0162 0.367171L72.1134 0C73.8024 0 75.2711 1.02808 75.7852 2.64363L100.459 75.3435C100.826 76.5184 100.679 77.8403 99.945 78.8683C99.2107 79.8964 98.0357 80.4839 96.7873 80.4839L35.7635 80.8511L35.6901 80.7776ZM72.1134 0.220303L10.9428 0.514039C9.76781 0.514039 8.66629 1.10151 7.93195 2.05616C7.27104 3.0108 7.05074 4.25918 7.41791 5.3607L32.0918 78.0606C32.6058 79.6027 34.0011 80.5573 35.6167 80.5573L96.6405 80.1902C97.8154 80.1902 98.9169 79.6027 99.6513 78.648C100.312 77.6934 100.532 76.445 100.165 75.2701L75.5649 2.71707C75.0508 1.17495 73.6556 0.220303 72.04 0.220303H72.1134Z" fill="#0565AD"/>
<path d="M80.8616 45.8393C83.3736 41.6236 80.4674 35.2609 74.3704 31.6278C68.2734 27.9947 61.2944 28.467 58.7823 32.6826C56.2703 36.8983 59.1765 43.261 65.2735 46.8941C71.3705 50.5272 78.3496 50.0549 80.8616 45.8393Z" fill="#AACD76"/>
<path d="M73.5093 49.4212C70.8657 49.4212 67.9283 48.6134 65.2113 46.9979C59.1162 43.3261 56.1788 36.9374 58.749 32.6048C59.7037 30.9892 61.3192 29.8877 63.3754 29.3736C66.6799 28.5659 70.7923 29.3736 74.464 31.5032C77.4013 33.2657 79.7512 35.689 80.9262 38.4061C82.1746 41.1231 82.1746 43.7668 80.9262 45.8229C79.5309 48.1728 76.7404 49.3478 73.5093 49.3478V49.4212ZM66.0925 29.3002C65.1378 29.3002 64.2566 29.3737 63.3754 29.594C61.3192 30.108 59.7771 31.2095 58.8959 32.7516C56.3991 36.9374 59.2631 43.2527 65.2847 46.851C71.3063 50.4493 78.2825 49.9352 80.7059 45.7495C81.8808 43.7668 81.8808 41.1231 80.7059 38.4795C79.4575 35.8359 77.2545 33.4125 74.3171 31.6501C71.6735 30.108 68.7361 29.2268 66.0925 29.2268V29.3002Z" fill="#0565AD"/>
<path d="M50.2766 46.6466C52.7887 42.431 49.8825 36.0683 43.7854 32.4352C37.6884 28.8021 30.7094 29.2743 28.1974 33.49C25.6853 37.7056 28.5915 44.0683 34.6886 47.7014C40.7856 51.3345 47.7646 50.8623 50.2766 46.6466Z" fill="#AACD76"/>
<path d="M42.9605 50.3026C40.2434 50.3026 37.3061 49.4214 34.6624 47.8793C28.5674 44.2076 25.63 37.8188 28.2002 33.4862C29.4486 31.4301 31.7251 30.1817 34.7359 29.9614C37.6732 29.7411 40.9778 30.6223 43.9151 32.3847C46.8525 34.1471 49.2024 36.6439 50.3773 39.2875C51.6257 42.0046 51.6257 44.6482 50.3773 46.7044C49.129 48.7605 46.8525 50.0089 43.8417 50.2292C43.548 50.2292 43.2542 50.2292 42.9605 50.2292V50.3026ZM28.3471 33.6331C25.8503 37.8188 28.7143 44.1342 34.8093 47.7325C37.7467 49.4949 40.9778 50.3026 43.8417 50.0823C46.7791 49.862 49.0555 48.6871 50.2305 46.6309C51.4054 44.5748 51.4054 42.0046 50.2305 39.361C48.9821 36.7173 46.7056 34.294 43.8417 32.5316C41.1981 30.9894 38.3341 30.1082 35.6171 30.1082C35.3233 30.1082 35.0296 30.1082 34.7359 30.1082C31.7985 30.3285 29.522 31.5769 28.3471 33.5596V33.6331Z" fill="#0565AD"/>
<path d="M59.1343 70.5333C61.6463 66.3177 58.7401 59.955 52.6431 56.3219C46.5461 52.6888 39.5671 53.161 37.055 57.3766C34.543 61.5923 37.4492 67.955 43.5462 71.5881C49.6432 75.2212 56.6223 74.749 59.1343 70.5333Z" fill="#AACD76"/>
<path d="M51.7718 74.1686C49.0547 74.1686 46.1173 73.2874 43.4737 71.7453C37.3787 68.0736 34.4413 61.6848 37.0115 57.3522C38.2599 55.296 40.5363 54.0476 43.5471 53.8273C43.8409 53.8273 44.1346 53.8273 44.4283 53.8273C47.1454 53.8273 50.0828 54.7085 52.7264 56.2507C55.6638 58.0131 58.0137 60.5098 59.1886 63.1535C60.437 65.8705 60.437 68.5142 59.1886 70.5703C57.9402 72.6265 55.6638 73.8749 52.653 74.0952C52.3592 74.0952 52.0655 74.0952 51.7718 74.0952V74.1686ZM37.1584 57.499C34.6616 61.6848 37.5255 68.0001 43.6206 71.5984C46.5579 73.3608 49.789 74.1686 52.653 73.9483C55.5903 73.728 57.8668 72.5531 59.0418 70.4969C60.2167 68.5142 60.2167 65.8705 59.0418 63.2269C57.7934 60.5833 55.5169 58.1599 52.653 56.3975C50.0093 54.8554 47.1454 53.9742 44.4283 53.9742C44.1346 53.9742 43.8409 53.9742 43.5471 53.9742C40.6098 54.1945 38.3333 55.4429 37.1584 57.4256V57.499Z" fill="#0565AD"/>
<path d="M91.2268 70.1207C93.7389 65.9051 90.8327 59.5424 84.7356 55.9093C78.6386 52.2762 71.6596 52.7484 69.1476 56.9641C66.6355 61.1797 69.5417 67.5424 75.6387 71.1755C81.7358 74.8086 88.7148 74.3364 91.2268 70.1207Z" fill="#AACD76"/>
<path d="M83.7903 73.6547C81.1467 73.6547 78.2093 72.8469 75.4922 71.2313C72.5549 69.4689 70.205 67.0456 69.03 64.3285C67.7817 61.6114 67.7817 58.9678 69.03 56.9117C71.6002 52.6525 78.5765 52.1384 84.745 55.8101C90.84 59.4819 93.7774 65.8706 91.2072 70.2033C89.8119 72.5531 87.0214 73.7281 83.7903 73.7281V73.6547ZM76.4469 53.4602C73.2892 53.4602 70.5722 54.6352 69.1769 56.9117C68.002 58.8944 68.002 61.4646 69.1769 64.1816C70.4253 66.8253 72.7017 69.2486 75.5657 71.011C81.5873 74.6093 88.5635 74.0953 90.9869 69.9095C93.4836 65.7238 90.6197 59.4084 84.5981 55.8101C81.881 54.1946 79.0171 53.3868 76.3735 53.3868L76.4469 53.4602Z" fill="#0565AD"/>
<path d="M15.2761 9.91371L19.9759 22.3975C20.343 23.4256 21.3711 24.1599 22.4726 24.0865L73.8031 23.499C75.7124 23.499 76.9608 21.5897 76.2265 19.8273L71.3064 8.07785C70.8658 7.12321 69.9111 6.4623 68.883 6.4623L17.8463 6.31543C16.0104 6.31543 14.6886 8.15129 15.3495 9.84027L15.2761 9.91371Z" fill="#0565AD"/>
<path d="M22.3988 24.2334C21.2973 24.2334 20.2692 23.499 19.8286 22.471L15.1288 9.98714C14.8351 9.10593 14.9085 8.22472 15.4226 7.49038C15.9366 6.75603 16.7444 6.31543 17.6256 6.31543L68.6624 6.53573C69.7639 6.53573 70.7185 7.19664 71.1591 8.22472L76.0792 19.9742C76.4464 20.782 76.373 21.7366 75.8589 22.5444C75.3449 23.3522 74.5371 23.7928 73.5825 23.7928L22.252 24.3802L22.3988 24.2334ZM15.3491 9.91371L20.0489 22.3975C20.4161 23.3522 21.3707 24.0131 22.3988 24.0131L73.7293 23.4256C74.6105 23.4256 75.3449 22.985 75.8589 22.2507C76.373 21.5163 76.373 20.6351 76.0792 19.9008L71.1591 8.15128C70.792 7.19664 69.8373 6.60917 68.8092 6.60917L17.7725 6.38886C16.9647 6.38886 16.1569 6.75603 15.7163 7.49038C15.2023 8.15128 15.1288 9.0325 15.4226 9.84027L15.3491 9.91371Z" fill="#0565AD"/>
<path d="M43.2536 43.9871C41.4912 40.6826 39.6553 37.3046 37.8929 34.0001L37.0851 32.5314C36.4242 31.283 34.5149 32.3845 35.1758 33.6329C36.9383 36.9374 38.7741 40.3154 40.5365 43.62L41.3443 45.0886C42.0052 46.337 43.9145 45.2355 43.2536 43.9871Z" fill="white"/>
<path d="M32.5328 39.5078C36.3513 39.361 40.0965 39.2875 43.9151 39.1407H45.5306C46.9259 39.0672 46.9259 36.8642 45.5306 36.8642C41.712 37.0111 37.9669 37.0845 34.1483 37.2314H32.5328C31.1375 37.3048 31.1375 39.5078 32.5328 39.5078Z" fill="white"/>
<path d="M63.3746 38.7734C67.1931 38.6265 70.9383 38.5531 74.7569 38.4062H76.3724C77.7677 38.3328 77.7677 36.1298 76.3724 36.1298C72.5538 36.2766 68.8087 36.3501 64.9901 36.4969H63.3746C61.9793 36.5704 61.9793 38.7734 63.3746 38.7734Z" fill="white"/>
<path d="M72.9209 63.0065C76.7395 62.8596 80.4847 62.7862 84.3033 62.6393H85.9188C87.314 62.5659 87.314 60.3629 85.9188 60.3629C82.1002 60.5097 78.3551 60.5832 74.5365 60.73H72.9209C71.5257 60.8035 71.5257 63.0065 72.9209 63.0065Z" fill="white"/>
<path d="M74.3904 66.6783C78.209 66.5314 81.9542 66.458 85.7727 66.3111H87.3883C88.7835 66.2377 88.7835 64.0347 87.3883 64.0347C83.5697 64.1815 79.8246 64.255 76.006 64.4018H74.3904C72.9952 64.4753 72.9952 66.6783 74.3904 66.6783Z" fill="white"/>
<path d="M53.9756 65.5037C50.9648 63.1538 48.0275 60.8039 45.0166 58.454L43.7683 57.4993C43.3277 57.1322 42.6668 57.0587 42.2261 57.4993C41.859 57.8665 41.7855 58.6743 42.2261 59.0415C45.2369 61.3914 48.1743 63.7412 51.1851 66.0911L52.4335 67.0458C52.8741 67.413 53.535 67.4864 53.9756 67.0458C54.3428 66.6786 54.4162 65.8708 53.9756 65.5037Z" fill="white"/>
<path d="M50.3769 57.2789C48.541 59.8491 46.6317 62.4193 44.7959 64.9895L43.9881 66.091C43.6209 66.605 43.9147 67.3394 44.3553 67.6331C44.9427 67.9268 45.5302 67.7065 45.8974 67.2659C47.7332 64.6957 49.6425 62.1255 51.4784 59.5553L52.2862 58.4538C52.6533 57.9398 52.3596 57.2054 51.919 56.9117C51.3315 56.618 50.744 56.8383 50.3769 57.2789Z" fill="white"/>
</g>
<defs>
<clipPath id="clip0_434_9741">
<rect width="99.944" height="90.6178" fill="white" transform="translate(0.662109)"/>
</clipPath>
</defs>
</svg>
