<svg width="600" height="600" viewBox="0 0 600 600" fill="none" xmlns="http://www.w3.org/2000/svg">
<g clip-path="url(#clip0_785_2097)">
<path d="M304.077 213.332V387.715C304.077 388.638 303.865 389.833 304.077 390.741C304.077 390.772 304.062 390.863 304.077 390.893C302.246 388.184 304.864 389.924 304.168 390.045C304.198 390.045 303.835 390.363 304.122 390.106C303.714 390.469 303.396 391.014 303.017 391.423C300.853 393.844 298.311 395.857 295.436 397.355C288.459 400.987 279.969 400.866 272.917 397.506C272.085 397.113 271.313 396.628 270.496 396.205C269.194 395.509 268.226 395.993 267.106 396.447C263.837 397.779 260.296 398.475 256.769 398.384C248.537 398.187 241.333 393.299 237.293 386.262C235.386 382.948 234.175 379.255 233.721 375.457C233.615 374.564 233.101 373.414 232.056 373.262C225.761 372.369 219.677 369.297 215.41 364.576C207.676 356.025 207.298 343.253 212.867 333.492C213.624 332.145 212.898 330.646 211.505 330.162C203.817 327.484 198.082 320.9 196.584 312.88C194.995 304.42 198.839 295.597 205.77 290.618C206.799 289.877 207.207 288.681 206.587 287.516C202.576 279.949 202.803 270.173 207.313 262.803C210.582 257.476 216.121 253.375 222.068 251.725C223.279 251.392 223.93 250.136 223.657 248.926C221.176 238.317 225.352 226.725 234.871 221.035C240.94 217.403 248.915 216.555 255.695 218.598C256.966 218.976 258.041 218.129 258.495 217.009C262.036 208.08 270.526 201.376 280.226 200.786C289.927 200.196 299.567 205.735 304.41 214.452C305.832 217.009 309.752 214.724 308.329 212.166C302.639 202.012 291.41 195.338 279.636 196.307C267.862 197.275 258.343 205.069 254.076 215.829L256.875 214.24C248.582 211.728 238.7 212.999 231.497 217.796C220.918 224.833 216.378 237.939 219.254 250.151L220.843 247.352C213.533 249.365 206.905 254.449 203.091 260.987C198.006 269.689 197.93 280.918 202.637 289.801L203.454 286.699C194.904 292.858 190.364 303.073 192.089 313.546C193.693 323.382 201.003 331.297 210.279 334.551L208.917 331.221C202.576 342.36 202.985 356.419 211.097 366.543C215.849 372.49 223.279 376.592 230.831 377.666L229.166 375.472C230.346 385.066 235.219 394.116 243.664 399.171C252.108 404.225 261.794 403.892 270.269 399.988H267.983C279.197 406.98 293.922 405.814 303.819 397.052C305.514 395.554 308.511 393.072 308.617 390.636C308.662 389.667 308.617 388.683 308.617 387.73V241.283C308.617 232.112 308.919 222.896 308.617 213.725C308.617 213.589 308.617 213.453 308.617 213.332C308.617 210.411 304.077 210.411 304.077 213.332Z" fill="#221F20"/>
<path d="M219.254 250.152C221.1 255.297 225.897 259.338 231.315 260.079C234.357 260.503 237.399 260.079 240.32 259.156C243.24 258.233 241.909 253.89 239.109 254.782C237.929 255.161 236.718 255.479 235.492 255.645C235.795 255.6 235.144 255.675 235.038 255.69C234.781 255.706 234.508 255.721 234.236 255.736C233.706 255.751 233.162 255.736 232.632 255.706C232.481 255.706 231.875 255.63 232.329 255.69C232.102 255.66 231.875 255.615 231.663 255.569C231.24 255.479 230.816 255.388 230.392 255.252C230.195 255.191 229.999 255.13 229.802 255.055C229.696 255.009 229.166 254.798 229.424 254.919C229.681 255.04 229.181 254.798 229.075 254.752C228.879 254.661 228.682 254.555 228.5 254.449C228.198 254.283 227.91 254.101 227.623 253.905C227.471 253.799 227.335 253.693 227.184 253.587C227.592 253.874 227.229 253.617 227.048 253.481C226.548 253.057 226.079 252.603 225.64 252.104C225.443 251.877 225.247 251.65 225.065 251.408C225.504 251.937 224.974 251.256 224.823 251.06C224.566 250.666 224.308 250.273 224.081 249.864C223.9 249.531 223.748 249.198 223.582 248.85C223.446 248.593 223.824 249.516 223.627 248.956C223.219 247.806 222.084 247.034 220.828 247.367C219.708 247.67 218.83 249.001 219.239 250.167L219.254 250.152Z" fill="#221F20"/>
<path d="M255.68 218.628C256.285 218.855 255.165 218.386 255.695 218.628C256.134 218.825 256.573 219.037 257.012 219.249C258.449 219.96 259.842 220.777 261.173 221.701C261.385 221.852 261.582 221.988 261.794 222.139C261.9 222.215 262.339 222.548 262.187 222.427C262.021 222.306 262.505 222.669 262.581 222.745C262.823 222.942 263.05 223.138 263.277 223.335C264.094 224.046 264.851 224.818 265.562 225.635C265.638 225.726 266.001 226.18 265.925 226.074C265.85 225.983 266.167 226.407 266.258 226.528C266.591 226.997 266.894 227.482 267.181 227.981C267.302 228.208 267.423 228.42 267.529 228.647C267.59 228.783 267.65 228.904 267.711 229.04C267.862 229.373 267.605 228.753 267.741 229.101C267.953 229.615 268.12 230.145 268.256 230.675C268.453 231.447 268.513 231.825 268.543 232.324C268.589 233.005 268.574 233.686 268.543 234.367C268.468 235.412 268.014 237.152 267.469 238.393C266.985 239.513 267.136 240.829 268.286 241.495C269.24 242.055 270.904 241.813 271.388 240.678C273.81 235.109 273.689 229.055 270.057 224.031C267.469 220.444 263.852 217.675 259.948 215.617C258.949 215.102 257.935 214.618 256.891 214.21C255.74 213.771 254.394 214.694 254.091 215.799C253.743 217.085 254.53 218.144 255.68 218.598V218.628Z" fill="#221F20"/>
<path d="M205.21 290.861C205.967 290.573 206.769 290.376 207.556 290.195C207.919 290.104 208.298 290.028 208.661 289.968C208.903 289.922 209.13 289.877 209.372 289.847C209.478 289.832 210.28 289.726 209.72 289.786C210.764 289.665 211.809 289.589 212.853 289.589C215.304 289.589 217.393 289.892 219.754 290.891C222.115 291.89 224.46 293.842 226.049 296.097C226.76 297.096 228.032 297.565 229.152 296.914C230.135 296.339 230.68 294.81 229.969 293.812C226.957 289.529 222.629 286.457 217.438 285.488C213.685 284.777 209.826 284.974 206.118 285.867C205.407 286.033 204.681 286.23 203.985 286.487C202.834 286.911 202.048 288.015 202.396 289.287C202.698 290.391 204.03 291.299 205.195 290.876L205.21 290.861Z" fill="#221F20"/>
<path d="M233.254 317.193C232.301 323.473 234.329 330.42 238.838 334.929C241.169 337.26 244.044 338.864 247.132 339.969C248.282 340.377 249.613 339.5 249.931 338.38C250.279 337.124 249.508 336.004 248.342 335.58C247.177 335.156 246.057 334.642 244.937 333.961C243.817 333.28 243.363 332.932 242.455 332.099C242.077 331.751 241.729 331.388 241.381 330.995C241.214 330.813 241.063 330.616 240.897 330.42C240.851 330.359 240.639 330.071 240.866 330.389C240.791 330.283 240.7 330.162 240.624 330.056C240.049 329.254 239.565 328.392 239.141 327.499C239.096 327.408 238.854 326.833 238.944 327.09C239.035 327.317 238.823 326.787 238.793 326.682C238.642 326.258 238.49 325.849 238.369 325.41C238.142 324.639 237.961 323.867 237.825 323.065C237.794 322.868 237.764 322.656 237.734 322.459C237.794 322.807 237.764 322.777 237.734 322.474C237.688 322.111 237.658 321.733 237.643 321.37C237.613 320.81 237.598 320.235 237.598 319.675C237.598 319.221 237.628 318.782 237.658 318.328C237.703 317.859 237.749 317.662 237.643 318.388C237.825 317.178 237.34 315.952 236.054 315.589C234.979 315.301 233.451 315.952 233.254 317.178V317.193Z" fill="#221F20"/>
<path d="M268.937 285.428C266.486 279.601 261.174 274.698 254.984 273.185C251.761 272.398 248.477 272.519 245.253 273.185C244.058 273.427 243.362 274.849 243.664 275.984C244.012 277.225 245.253 277.816 246.464 277.573C247.675 277.331 248.87 277.18 250.172 277.18C250.732 277.18 251.307 277.195 251.867 277.256C252.487 277.316 252.517 277.316 253.214 277.452C255.378 277.891 256.664 278.436 258.48 279.632C258.647 279.737 258.813 279.859 258.979 279.964C259.085 280.04 259.57 280.388 259.222 280.131C259.57 280.403 259.903 280.691 260.236 280.978C260.841 281.523 261.416 282.113 261.961 282.734C262.188 282.991 262.415 283.264 262.627 283.536C262.793 283.733 262.506 283.385 262.506 283.385C262.566 283.46 262.627 283.536 262.687 283.627C262.793 283.778 262.914 283.929 263.02 284.096C263.338 284.55 263.641 285.019 263.928 285.503C264.155 285.882 264.367 286.275 264.564 286.684C264.685 286.941 265.033 287.758 264.564 286.638C265.033 287.773 266.062 288.575 267.363 288.227C268.423 287.94 269.422 286.578 268.952 285.428H268.937Z" fill="#221F20"/>
<path d="M309.164 269.749H349.056C350.524 269.749 351.386 269.235 352.34 268.13C356.199 263.681 360.148 259.277 363.932 254.767C365.445 252.951 364.779 249.576 364.779 247.367V238.423C364.779 235.502 360.239 235.502 360.239 238.423V252.951L360.905 251.347C356.713 256.19 352.506 261.032 348.314 265.875L349.918 265.209H309.179C306.258 265.209 306.258 269.749 309.179 269.749H309.164Z" fill="#221F20"/>
<path d="M309.164 288.409H348.193C349.373 288.409 350.539 288.575 351.507 287.743C352.597 286.805 353.49 285.458 354.413 284.383C357.636 280.661 360.875 276.938 364.098 273.215L362.494 273.881C368.139 273.835 373.799 273.79 379.444 273.729C382.364 273.699 382.364 269.159 379.444 269.189C374.162 269.235 368.865 269.28 363.584 269.326C362.585 269.326 361.707 269.28 360.89 270.007C360.406 270.43 359.997 271.036 359.573 271.535L353.263 278.814L348.314 284.535L349.918 283.869H309.179C306.258 283.869 306.258 288.409 309.179 288.409H309.164Z" fill="#221F20"/>
<path d="M306.784 246.822H317.62C318.967 246.822 321.343 247.216 322.387 246.156C323.431 245.097 324.369 243.614 325.323 242.388C326.473 240.92 327.608 239.452 328.758 237.984C329.515 237.016 329.696 235.714 328.758 234.776C327.971 233.989 326.307 233.807 325.55 234.776C323.431 237.5 321.297 240.224 319.179 242.948L320.783 242.282H306.784C303.864 242.282 303.864 246.822 306.784 246.822Z" fill="#221F20"/>
<path d="M285.824 259.005C287.08 258.747 288.23 258.611 289.532 258.611C290.092 258.611 290.667 258.626 291.227 258.687C291.847 258.747 291.877 258.747 292.573 258.883C294.738 259.322 296.024 259.867 297.84 261.063C298.006 261.169 298.173 261.29 298.339 261.396C298.445 261.471 298.93 261.819 298.581 261.562C298.93 261.834 299.262 262.122 299.595 262.41C300.201 262.954 300.776 263.545 301.321 264.165C301.548 264.422 301.775 264.695 301.986 264.967C302.153 265.164 301.865 264.816 301.865 264.816C301.926 264.891 301.987 264.967 302.047 265.058C302.153 265.209 302.274 265.361 302.38 265.527C302.698 265.981 303 266.45 303.288 266.934C303.515 267.313 303.727 267.706 303.924 268.115C304.045 268.372 304.393 269.189 303.924 268.069C304.393 269.204 305.422 270.007 306.723 269.658C307.783 269.371 308.781 268.009 308.312 266.859C305.861 261.032 300.549 256.129 294.359 254.616C291.136 253.829 287.852 253.95 284.628 254.616C283.433 254.858 282.737 256.28 283.039 257.416C283.387 258.656 284.628 259.247 285.839 259.005H285.824Z" fill="#221F20"/>
<path d="M307.767 306.766C304.105 301.605 297.81 298.079 291.469 297.943C288.139 297.867 284.961 298.76 281.95 300.107C280.83 300.606 280.557 302.241 281.133 303.209C281.814 304.36 283.115 304.526 284.235 304.027C286.944 302.816 289.88 302.241 292.831 302.574C294.874 302.801 296.917 303.573 298.748 304.662C299.172 304.919 299.58 305.177 299.989 305.464C300.201 305.616 300.428 305.767 300.64 305.933C300.231 305.631 300.851 306.115 300.927 306.16C301.517 306.645 302.077 307.159 302.622 307.704C303.031 308.113 303.394 308.536 303.772 308.975C304.287 309.581 303.5 308.582 303.848 309.066C304.559 310.065 305.83 310.534 306.95 309.883C307.934 309.308 308.479 307.78 307.767 306.781V306.766Z" fill="#221F20"/>
<path d="M260.856 317.904C261.491 324.2 265.214 330.404 270.662 333.658C273.507 335.353 276.716 336.185 280 336.488C281.225 336.609 282.27 335.368 282.27 334.218C282.27 332.901 281.225 332.069 280 331.948C279.803 331.933 279.606 331.918 279.409 331.887C279.364 331.887 278.88 331.812 279.122 331.857C279.425 331.903 278.683 331.781 278.744 331.797C278.592 331.766 278.441 331.751 278.305 331.721C277.669 331.6 277.033 331.449 276.413 331.267C275.838 331.1 275.263 330.889 274.688 330.662C275.112 330.828 274.491 330.571 274.34 330.495C274.052 330.359 273.78 330.223 273.507 330.071C273.038 329.814 272.569 329.527 272.115 329.224C271.918 329.088 271.737 328.951 271.54 328.815C271.207 328.573 271.54 328.815 271.585 328.861C271.449 328.755 271.328 328.649 271.192 328.543C270.45 327.907 269.754 327.226 269.134 326.47C269.058 326.364 268.982 326.258 268.892 326.167C268.68 325.94 269.134 326.515 268.967 326.258C268.831 326.076 268.695 325.895 268.574 325.713C268.317 325.35 268.074 324.987 267.863 324.608C267.439 323.912 267.06 323.186 266.728 322.429C266.697 322.353 266.667 322.278 266.622 322.202C266.44 321.793 266.788 322.626 266.682 322.338C266.622 322.172 266.546 322.005 266.485 321.824C266.364 321.506 266.243 321.188 266.137 320.855C265.956 320.31 265.789 319.75 265.668 319.175C265.562 318.736 265.471 318.298 265.396 317.859C265.35 317.586 265.26 317.026 265.411 318.04C265.411 317.995 265.411 317.949 265.396 317.904C265.275 316.678 264.442 315.634 263.126 315.634C261.991 315.634 260.735 316.678 260.856 317.904Z" fill="#221F20"/>
<path d="M231.438 377.742C237.81 377.303 244.877 374.836 249.296 370.099C251.248 367.996 252.656 365.454 253.337 362.654C254.018 359.854 249.644 358.598 248.963 361.443C248.676 362.654 248.388 363.441 247.934 364.273C247.707 364.712 247.45 365.136 247.162 365.559C247.117 365.635 246.648 366.271 246.905 365.953C246.738 366.165 246.557 366.377 246.375 366.589C246.057 366.952 245.724 367.285 245.376 367.618C245.18 367.799 244.983 367.981 244.771 368.162C244.68 368.238 244.105 368.707 244.438 368.435C243.651 369.04 242.804 369.57 241.941 370.054C241.548 370.266 241.139 370.478 240.73 370.675C240.503 370.781 240.261 370.886 240.034 370.992C239.943 371.038 239.868 371.068 239.777 371.098C239.52 371.204 240.125 370.962 239.716 371.129C238.884 371.446 238.052 371.749 237.189 372.006C235.812 372.43 234.39 372.748 232.967 372.99C232.679 373.035 232.392 373.066 232.104 373.126C232.059 373.126 232.74 373.051 232.301 373.096C232.195 373.096 232.089 373.126 231.998 373.126C231.817 373.141 231.635 373.172 231.454 373.172C230.228 373.262 229.184 374.155 229.184 375.442C229.184 376.607 230.228 377.802 231.454 377.712L231.438 377.742Z" fill="#221F20"/>
<path d="M271.525 374.791C271.737 375.033 271.283 374.367 271.268 374.458C271.268 374.518 271.465 374.73 271.495 374.791C271.722 375.169 271.949 375.547 272.146 375.941C272.206 376.077 272.267 376.198 272.327 376.334C272.358 376.41 272.161 375.85 272.327 376.365C272.448 376.713 272.569 377.046 272.675 377.394C272.796 377.787 272.887 378.181 272.978 378.589C273.023 378.847 273.069 379.089 273.114 379.346C273.175 379.77 273.114 379.074 273.144 379.664C273.583 385.944 270.784 391.71 267.167 396.886C266.455 397.884 266.985 399.413 267.984 399.988C269.119 400.654 270.39 400.185 271.086 399.171C275.036 393.526 278.411 386.534 277.669 379.452C277.382 376.682 276.565 373.747 274.733 371.582C273.947 370.644 272.342 370.765 271.525 371.582C270.602 372.506 270.738 373.852 271.525 374.791Z" fill="#221F20"/>
<path d="M341.625 226.165C341.579 229.752 339.37 233.126 335.949 234.367C332.529 235.608 328.398 234.579 326.022 231.613C323.767 228.813 323.54 224.758 325.386 221.67C327.233 218.583 330.88 216.903 334.391 217.539C338.583 218.311 341.564 221.943 341.625 226.165C341.67 229.086 346.21 229.086 346.165 226.165C346.089 220.581 342.654 215.678 337.433 213.695C332.212 211.713 326.188 213.407 322.723 217.63C319.257 221.852 318.576 228.117 321.467 232.96C324.357 237.803 329.972 240.194 335.45 239.195C341.67 238.075 346.089 232.37 346.165 226.165C346.21 223.244 341.67 223.244 341.625 226.165Z" fill="#221F20"/>
<path d="M362.174 241.223C369.512 241.223 375.461 235.274 375.461 227.936C375.461 220.597 369.512 214.648 362.174 214.648C354.836 214.648 348.887 220.597 348.887 227.936C348.887 235.274 354.836 241.223 362.174 241.223Z" fill="url(#paint0_linear_785_2097)"/>
<path d="M394.697 346.658C402.036 346.658 407.985 340.709 407.985 333.37C407.985 326.032 402.036 320.083 394.697 320.083C387.359 320.083 381.41 326.032 381.41 333.37C381.41 340.709 387.359 346.658 394.697 346.658Z" fill="url(#paint1_linear_785_2097)"/>
<path d="M309.159 338.456H349.899L348.295 337.79C352.486 342.632 356.694 347.475 360.886 352.318L360.22 350.714V365.242C360.22 368.163 364.76 368.163 364.76 365.242V352.711C364.76 351.909 364.911 350.895 364.684 350.108C364.457 349.321 363.67 348.61 363.14 348.005L360.432 344.872L353.621 337.018C352.517 335.731 351.533 334.006 349.687 333.915C348.052 333.84 346.403 333.915 344.768 333.915H309.159C306.239 333.915 306.239 338.456 309.159 338.456Z" fill="#221F20"/>
<path d="M309.164 319.796H349.903L348.299 319.13C351.825 323.201 355.351 327.272 358.877 331.327C360.088 332.72 360.935 334.248 362.933 334.324C365.733 334.43 368.548 334.369 371.347 334.399C374.147 334.43 376.75 334.445 379.444 334.475C382.364 334.505 382.364 329.965 379.444 329.935C373.799 329.89 368.139 329.844 362.494 329.784L364.098 330.45C361.283 327.196 358.453 323.942 355.639 320.689C354.337 319.19 353.111 317.586 351.734 316.179C350.887 315.316 350.024 315.256 348.935 315.256H309.179C306.258 315.256 306.258 319.796 309.179 319.796H309.164Z" fill="#221F20"/>
<path d="M306.784 361.383H320.783L319.179 360.717C321.297 363.441 323.431 366.165 325.55 368.889C326.307 369.857 327.971 369.676 328.758 368.889C329.712 367.935 329.515 366.649 328.758 365.68C327.805 364.455 326.836 363.214 325.883 361.988C324.763 360.55 323.719 358.931 322.463 357.599C321.479 356.54 319.678 356.843 318.361 356.843H306.784C303.864 356.843 303.864 361.383 306.784 361.383Z" fill="#221F20"/>
<path d="M346.165 377.5C346.089 371.915 342.654 367.012 337.433 365.03C332.212 363.047 326.188 364.742 322.723 368.964C319.257 373.187 318.576 379.452 321.467 384.295C324.357 389.137 329.972 391.528 335.45 390.53C341.67 389.41 346.089 383.704 346.165 377.5C346.21 374.579 341.67 374.579 341.625 377.5C341.579 381.086 339.37 384.461 335.949 385.702C332.529 386.943 328.398 385.914 326.022 382.948C323.767 380.148 323.54 376.092 325.386 373.005C327.233 369.918 330.88 368.238 334.391 368.874C338.583 369.645 341.564 373.277 341.625 377.5C341.67 380.42 346.21 380.42 346.165 377.5Z" fill="#221F20"/>
<path d="M362.174 389.016C369.512 389.016 375.461 383.067 375.461 375.729C375.461 368.391 369.512 362.442 362.174 362.442C354.836 362.442 348.887 368.391 348.887 375.729C348.887 383.067 354.836 389.016 362.174 389.016Z" fill="#C5D8E3"/>
<path d="M394.303 285.534C401.641 285.534 407.59 279.585 407.59 272.246C407.59 264.908 401.641 258.959 394.303 258.959C386.965 258.959 381.016 264.908 381.016 272.246C381.016 279.585 386.965 285.534 394.303 285.534Z" fill="#C5D8E3"/>
</g>
<defs>
<linearGradient id="paint0_linear_785_2097" x1="348.872" y1="227.936" x2="375.461" y2="227.936" gradientUnits="userSpaceOnUse">
<stop stop-color="#9BCB9E"/>
<stop offset="1" stop-color="#78C1C4"/>
</linearGradient>
<linearGradient id="paint1_linear_785_2097" x1="381.41" y1="333.37" x2="408" y2="333.37" gradientUnits="userSpaceOnUse">
<stop stop-color="#9BCB9E"/>
<stop offset="1" stop-color="#78C1C4"/>
</linearGradient>
<clipPath id="clip0_785_2097">
<rect width="216.273" height="208.312" fill="white" transform="translate(191.727 196.216)"/>
</clipPath>
</defs>
</svg>
