<svg width="600" height="600" viewBox="0 0 600 600" fill="none" xmlns="http://www.w3.org/2000/svg">
<g clip-path="url(#clip0_785_1451)">
<path d="M204.739 370.19V203.913C204.739 201.72 205.019 199.321 204.739 197.142C204.739 197.054 204.739 196.936 204.739 196.848L202.531 199.056H252.545L250.411 197.437C253.149 205.664 255.887 213.877 258.639 222.105C258.948 223.032 259.758 223.724 260.773 223.724H366.291L364.084 221.516V252.382C364.084 255.222 368.499 255.222 368.499 252.382V221.516C368.499 220.324 367.484 219.309 366.291 219.309H260.773L262.907 220.928C260.17 212.7 257.432 204.487 254.68 196.259C254.371 195.332 253.561 194.64 252.545 194.64H202.531C201.339 194.64 200.324 195.656 200.324 196.848V348.848C200.324 355.839 200.044 362.904 200.324 369.896C200.324 369.999 200.324 370.087 200.324 370.19C200.324 373.031 204.739 373.031 204.739 370.19Z" fill="#221F20"/>
<path d="M241.459 255.855L207.43 362.713H206.031L236.263 240.43C236.985 237.53 239.575 235.499 242.563 235.499H384.348C388.602 235.499 391.708 239.517 390.633 243.639L387.601 255.266L241.459 255.87V255.855Z" fill="#C5D8E3"/>
<path d="M359.577 368.586H210.653C208.696 368.586 206.547 368.335 204.589 368.586C204.501 368.586 204.398 368.586 204.31 368.586L206.444 371.382C210.771 358.562 215.084 345.728 219.411 332.908C226.255 312.625 233.085 292.343 239.929 272.06C241.489 267.409 243.064 262.758 244.624 258.107L242.49 259.726H391.428C393.386 259.726 395.535 259.976 397.492 259.726C397.581 259.726 397.684 259.726 397.772 259.726L395.638 256.93C391.311 269.75 386.998 282.584 382.671 295.404C375.827 315.687 368.997 335.969 362.153 356.251C360.593 360.902 359.018 365.554 357.458 370.205C356.545 372.898 360.813 374.061 361.711 371.382C366.039 358.562 370.351 345.728 374.678 332.908C381.523 312.625 388.352 292.343 395.196 272.06C396.756 267.409 398.331 262.758 399.892 258.107C400.348 256.738 399.126 255.311 397.757 255.311H261.668C255.383 255.311 249.04 255.046 242.77 255.311C242.681 255.311 242.593 255.311 242.49 255.311C241.474 255.311 240.68 256.002 240.356 256.93C236.028 269.75 231.716 282.584 227.389 295.404C220.544 315.687 213.715 335.969 206.871 356.251C205.311 360.902 203.736 365.554 202.175 370.205C201.719 371.574 202.941 373.001 204.31 373.001H340.413C346.698 373.001 353.042 373.266 359.312 373.001C359.4 373.001 359.489 373.001 359.592 373.001C362.433 373.001 362.433 368.586 359.592 368.586H359.577Z" fill="#221F20"/>
<path d="M343.23 303.014C333.854 281.819 308.994 272.193 287.799 281.554C266.604 290.93 256.978 315.79 266.339 336.984C274.655 355.795 295.173 365.465 314.499 360.858L334.457 406.03L347.469 400.275L327.569 355.25C344.613 344.241 351.678 322.148 343.215 302.999L343.23 303.014ZM317.148 347.979C301.723 354.794 283.619 347.788 276.804 332.363C269.989 316.938 276.996 298.834 292.421 292.019C307.846 285.204 325.95 292.21 332.765 307.635C339.579 323.061 332.573 341.165 317.148 347.979Z" fill="url(#paint0_linear_785_1451)"/>
</g>
<defs>
<linearGradient id="paint0_linear_785_1451" x1="276.156" y1="359.25" x2="353.056" y2="325.269" gradientUnits="userSpaceOnUse">
<stop stop-color="#9BCB9E"/>
<stop offset="1" stop-color="#78C1C4"/>
</linearGradient>
<clipPath id="clip0_785_1451">
<rect width="199.791" height="211.39" fill="white" transform="translate(200.207 194.64)"/>
</clipPath>
</defs>
</svg>
