<svg width="600" height="600" viewBox="0 0 600 600" fill="none" xmlns="http://www.w3.org/2000/svg">
<g clip-path="url(#clip0_785_1322)">
<path d="M366.98 270.066L326.072 206.029C323.169 201.486 317.152 200.164 312.608 203.066L207.207 270.416H366.433L366.995 270.066H366.98Z" fill="#C5D8E3"/>
<path d="M388.633 359.268V380.467C388.633 382.594 388.618 384.661 387.827 386.697C385.943 391.545 381.247 394.295 376.172 394.31C374.561 394.31 372.95 394.31 371.339 394.31H208.831C207.038 394.31 205.306 394.356 203.543 393.885C197.966 392.35 194.744 387.29 194.729 381.682C194.729 379.129 194.729 376.561 194.729 374.008V305.564C194.729 299.501 194.638 293.423 194.729 287.359C194.82 280.688 200.109 275.415 206.78 275.324C207.935 275.309 209.089 275.324 210.26 275.324H364.835C368.741 275.324 372.662 275.278 376.567 275.324C383.299 275.415 388.542 280.749 388.618 287.466C388.678 292.146 388.618 296.842 388.618 301.522V313.466C388.618 316.399 393.176 316.399 393.176 313.466C393.176 304.759 393.313 296.036 393.176 287.344C393.04 278.652 385.73 270.917 376.628 270.78C375.655 270.78 374.698 270.78 373.725 270.78H217.326C213.633 270.78 209.91 270.644 206.217 270.78C197.312 271.115 190.322 278.454 190.185 287.314C190.17 289.061 190.185 290.794 190.185 292.541V360.939C190.185 367.96 190.155 374.981 190.185 382.001C190.216 389.022 194.334 395.252 200.914 397.79C203.361 398.732 205.898 398.854 208.466 398.854H363.574C367.875 398.854 372.19 398.9 376.491 398.854C383.679 398.763 390.076 394.28 392.356 387.411C393.891 382.792 393.161 377.047 393.161 372.261V359.237C393.161 356.305 388.602 356.305 388.602 359.237L388.633 359.268Z" fill="#221F20"/>
<path d="M398.358 355.332C385.775 355.332 373.178 355.332 360.595 355.332C355.839 355.332 351.098 355.393 346.341 355.332C341.235 355.271 336.418 352.718 333.713 348.342C331.418 344.634 331.464 340.698 331.464 336.519C331.464 332.34 331.099 328.435 332.862 324.742C335.354 319.53 340.567 316.293 346.311 316.217C350.626 316.156 354.942 316.217 359.243 316.217C372.235 316.217 385.304 315.837 398.297 316.217C402.111 316.323 404.345 319.256 404.36 322.873C404.36 325.927 404.36 328.997 404.36 332.052V344.072C404.36 346.199 404.695 348.676 404.193 350.773C403.54 353.493 401.093 355.256 398.358 355.347C395.425 355.439 395.425 359.997 398.358 359.906C404.284 359.724 408.782 355.15 408.919 349.238C408.98 346.412 408.919 343.585 408.919 340.759V327.797C408.919 325.213 409.208 322.372 408.646 319.819C407.551 314.865 402.993 311.704 398.084 311.658C396.063 311.643 394.027 311.658 392.006 311.658C383.693 311.658 375.381 311.658 367.069 311.658H347.329C343.636 311.658 340.08 312.312 336.813 314.135C331.282 317.235 327.68 322.934 327.012 329.21C326.647 332.735 326.905 336.413 326.905 339.954C326.92 345.455 328.896 350.728 332.938 354.557C336.631 358.052 341.478 359.876 346.539 359.891C348.499 359.891 350.459 359.891 352.42 359.891H397.233C397.613 359.891 397.978 359.891 398.358 359.891C401.291 359.891 401.291 355.332 398.358 355.332Z" fill="#221F20"/>
<path d="M359.35 334.103C359.335 335.471 359.016 336.459 358.134 337.735C357.754 338.297 358.286 337.568 358.028 337.872C357.906 338.009 357.785 338.145 357.663 338.267C357.557 338.373 357.466 338.464 357.359 338.571C357.344 338.586 356.797 339.042 357.162 338.768C356.873 338.996 356.569 339.179 356.25 339.361C356.128 339.437 355.992 339.498 355.87 339.559C355.627 339.665 355.612 339.68 355.809 339.589C355.703 339.635 355.612 339.665 355.505 339.711C355.156 339.832 354.806 339.938 354.442 340.014C354.335 340.03 353.864 340.106 354.274 340.06C354.092 340.09 353.895 340.09 353.697 340.106C353.317 340.121 352.937 340.106 352.542 340.075C352.132 340.03 353.044 340.197 352.36 340.045C352.147 339.999 351.919 339.954 351.706 339.893C351.494 339.832 351.281 339.756 351.083 339.695C351.022 339.68 350.688 339.513 351.022 339.68C350.688 339.528 350.369 339.361 350.065 339.163C349.457 338.784 349.214 338.54 348.591 337.826C348.819 338.1 348.591 337.826 348.545 337.781C348.424 337.598 348.302 337.416 348.196 337.234C348.12 337.112 348.044 336.99 347.983 336.854C347.983 336.823 347.664 336.185 347.846 336.611C347.71 336.276 347.603 335.911 347.512 335.562C347.482 335.41 347.451 335.273 347.421 335.121C347.375 334.848 347.375 334.833 347.406 335.06C347.406 334.954 347.375 334.833 347.375 334.726C347.345 334.377 347.345 334.027 347.375 333.693C347.375 333.662 347.467 332.933 347.391 333.389C347.421 333.237 347.436 333.1 347.482 332.948C347.558 332.584 347.679 332.234 347.801 331.884C348.014 331.261 347.603 332.204 347.922 331.626C348.029 331.444 348.12 331.246 348.242 331.049C348.333 330.897 348.439 330.745 348.53 330.593C348.591 330.517 348.88 330.152 348.637 330.456C348.865 330.183 349.108 329.924 349.381 329.681C349.351 329.711 349.883 329.256 349.64 329.438C349.396 329.62 349.959 329.21 349.928 329.225C350.293 328.982 350.673 328.769 351.068 328.587C350.977 328.632 350.703 328.708 351.129 328.572C351.342 328.496 351.539 328.435 351.752 328.374C351.889 328.329 352.041 328.298 352.177 328.268C352.132 328.268 352.861 328.146 352.542 328.192C352.223 328.237 352.968 328.161 352.922 328.161C353.12 328.161 353.302 328.161 353.499 328.161C353.697 328.161 353.879 328.177 354.077 328.192C354.594 328.222 353.91 328.116 354.366 328.237C354.806 328.344 355.217 328.45 355.642 328.602C356.296 328.83 355.445 328.496 355.809 328.678C356.037 328.784 356.265 328.906 356.478 329.043C356.599 329.119 356.721 329.195 356.843 329.271C356.964 329.347 357.086 329.438 357.192 329.514C357.01 329.377 357.025 329.392 357.238 329.559C357.496 329.818 357.754 330.061 357.998 330.319C358.453 330.79 357.8 330 358.18 330.532C358.301 330.714 358.423 330.882 358.529 331.079C358.636 331.277 358.742 331.459 358.849 331.657C359.076 332.052 358.803 331.444 358.97 331.915C359.122 332.34 359.228 332.766 359.335 333.191C359.35 333.252 359.396 333.632 359.35 333.252C359.38 333.556 359.396 333.86 359.396 334.164C359.411 335.395 360.429 336.443 361.675 336.443C362.921 336.443 363.97 335.395 363.954 334.164C363.894 329.696 361.143 325.821 356.979 324.241C352.816 322.66 348.074 324.028 345.369 327.341C342.665 330.654 342.011 335.684 344.336 339.559C346.661 343.434 351.114 345.303 355.49 344.513C360.414 343.631 363.894 339.057 363.97 334.179C363.985 332.948 362.906 331.9 361.69 331.9C360.475 331.9 359.426 332.948 359.411 334.179L359.35 334.103Z" fill="#221F20"/>
<path d="M347.494 217.487L208.57 270.34H375.41L356.916 221.727C355.487 217.958 351.263 216.059 347.494 217.502V217.487Z" fill="url(#paint0_linear_785_1322)"/>
</g>
<defs>
<linearGradient id="paint0_linear_785_1322" x1="214.958" y1="299.655" x2="364.87" y2="242.618" gradientUnits="userSpaceOnUse">
<stop stop-color="#9BCB9E"/>
<stop offset="1" stop-color="#78C1C4"/>
</linearGradient>
<clipPath id="clip0_785_1322">
<rect width="218.826" height="197.353" fill="white" transform="translate(190.176 201.531)"/>
</clipPath>
</defs>
</svg>
