<svg width="109" height="59" viewBox="0 0 109 59" fill="none" xmlns="http://www.w3.org/2000/svg">
<g clip-path="url(#clip0_434_10033)">
<path d="M10.4964 22.9568C5.2396 29.9453 1.83811 38.3562 0.972279 47.5093C0.724898 49.8595 2.51841 51.9622 4.93037 51.9622H49.7682L49.9537 51.7767L16.3099 22.2765C14.5164 20.7303 11.857 21.1014 10.4346 22.9568H10.4964Z" fill="#223838"/>
<path d="M56.1387 52.2095H99.4922C101.719 52.2095 103.636 50.2923 103.45 48.0658C102.708 39.0364 99.4303 30.7492 94.4209 23.7607C93.1221 21.9053 90.4009 21.7198 88.7311 23.2659L56.1387 51.9002V52.1476V52.2095Z" fill="#223838"/>
<path d="M87.185 14.4839C79.7017 7.30986 69.992 2.54778 59.1691 1.31087C56.7571 1.06349 54.5925 2.79516 54.5925 5.20712V48.9936L87.1231 20.4211C88.9166 18.8749 88.8548 16.1537 87.1231 14.4839H87.185Z" fill="#223838"/>
<path d="M50.8818 49.1171V4.46479C50.8818 2.54759 49.2738 0.877767 47.3566 1.00146C35.7297 1.61991 25.2778 6.38199 17.238 13.7416C15.4444 15.3496 15.4444 18.1326 17.238 19.7406L50.8199 49.2407H50.9436L50.8818 49.1171Z" fill="#223838"/>
<path d="M15.4442 22.9568C10.1874 29.9453 6.78587 38.3562 5.92003 47.5093C5.67265 49.8595 7.46616 51.9622 9.87813 51.9622H54.7159L54.9015 51.7767L21.2577 22.2765C19.4641 20.7303 16.8048 21.1014 15.3824 22.9568H15.4442Z" fill="#B60000"/>
<path d="M54.7158 52.024H9.87797C8.76476 52.024 7.71339 51.5293 6.9094 50.7253C6.10541 49.8594 5.73434 48.6844 5.85803 47.5093C6.66202 38.6036 10.0017 30.069 15.3822 22.8949C16.0625 21.9672 17.1757 21.3488 18.2889 21.2251C18.4126 21.2251 18.5363 21.2251 18.7218 21.2251C19.7114 21.2251 20.639 21.5962 21.3193 22.2146L55.025 51.8385L54.7158 52.0859V52.024ZM15.5059 22.9568C10.1254 30.1308 6.84755 38.6036 6.04357 47.5093C5.91988 48.6844 6.29095 49.7976 7.09494 50.6634C7.83708 51.4674 8.8266 51.9003 9.93982 51.9003H54.8395L21.2575 22.3383C20.5154 21.7199 19.6495 21.3488 18.7218 21.3488C18.5982 21.3488 18.4745 21.3488 18.2889 21.3488C17.1757 21.4725 16.1862 22.0291 15.444 22.9568H15.5059Z" fill="#375D97"/>
<path d="M61.0862 52.2095H104.44C106.666 52.2095 108.583 50.2923 108.398 48.0658C107.656 39.0364 104.378 30.7492 99.3684 23.7607C98.0696 21.9053 95.3484 21.7198 93.6786 23.2659L61.0862 51.9002V52.1476V52.2095Z" fill="#9BC650"/>
<path d="M104.501 52.3331H61.0239V51.9002L93.6164 23.2658C94.3585 22.5855 95.348 22.2145 96.3376 22.2145C96.4613 22.2145 96.6468 22.2145 96.7705 22.2145C97.8837 22.3382 98.8114 22.8948 99.4298 23.7606C104.625 30.9347 107.779 39.3456 108.521 48.0658C108.583 49.1172 108.274 50.1685 107.532 50.9725C106.728 51.8383 105.676 52.3331 104.501 52.3331ZM61.1476 52.2094H104.439C105.552 52.2094 106.604 51.7147 107.346 50.9107C108.088 50.1685 108.397 49.179 108.336 48.1276C107.593 39.4075 104.501 30.9965 99.3061 23.8843C98.6877 23.0803 97.8218 22.5237 96.7705 22.4C95.6573 22.2763 94.544 22.6474 93.7401 23.3895L61.1476 52.0239V52.2094Z" fill="#375D97"/>
<path d="M92.1327 14.4839C84.6495 7.30986 74.9397 2.54778 64.1168 1.31087C61.7049 1.06349 59.5403 2.79516 59.5403 5.20712V48.9936L92.0709 20.4211C93.8644 18.8749 93.8025 16.1537 92.0709 14.4839H92.1327Z" fill="#F4AD00"/>
<path d="M59.4778 49.1792V5.2072C59.4778 4.03214 59.9725 2.98077 60.7765 2.23862C61.6424 1.43464 62.8793 1.06356 64.1162 1.18725C74.7536 2.42416 84.4633 7.00071 92.1939 14.4221C93.0597 15.2261 93.5545 16.4012 93.4927 17.5144C93.4927 18.6276 92.9979 19.679 92.1321 20.4211L59.4778 49.1173V49.1792ZM63.6214 1.37279C62.6319 1.37279 61.6424 1.74386 60.9002 2.42416C60.0962 3.1663 59.6015 4.15583 59.6015 5.26904V48.8699L92.0084 20.4211C92.8124 19.679 93.3071 18.6895 93.3071 17.6381C93.3071 16.5249 92.8742 15.4117 92.0702 14.6077C84.3396 7.1244 74.6917 2.6097 64.0543 1.37279C63.8688 1.37279 63.7451 1.37279 63.5596 1.37279H63.6214Z" fill="#375D97"/>
<path d="M55.8288 49.1171V4.46479C55.8288 2.54759 54.2208 0.877767 52.3036 1.00146C40.6767 1.61991 30.2249 6.38199 22.185 13.7416C20.3915 15.3496 20.3915 18.1326 22.185 19.7406L55.7669 49.2407H55.8906L55.8288 49.1171Z" fill="#E50003"/>
<path d="M55.7053 49.3027L22.1233 19.8025C21.2575 19.0604 20.7627 18.009 20.7627 16.8339C20.7627 15.6589 21.2575 14.4838 22.1233 13.6798C30.4106 6.07285 41.1098 1.55815 52.3038 0.939697C52.3656 0.939697 52.4275 0.939697 52.4893 0.939697C53.3551 0.939697 54.1591 1.24892 54.7776 1.86738C55.5197 2.54767 55.8908 3.47535 55.8908 4.46488V49.179L55.7053 49.3645V49.3027ZM52.4893 1.12523C52.4893 1.12523 52.3656 1.12523 52.3038 1.12523C41.1716 1.74369 30.4724 6.25839 22.247 13.8654C21.3811 14.6693 20.8864 15.7207 20.9482 16.8958C20.9482 18.009 21.443 18.9985 22.247 19.7407L55.7671 49.179V4.46488C55.7671 3.5372 55.396 2.60952 54.7157 1.99107C54.0973 1.43446 53.3551 1.12523 52.5512 1.12523H52.4893Z" fill="#375D97"/>
<path d="M57.6232 58.0057C61.2061 57.8468 63.9633 54.3985 63.7817 50.3038C63.6 46.2091 60.5483 43.0185 56.9654 43.1774C53.3825 43.3364 50.6253 46.7846 50.8069 50.8793C50.9886 54.9741 54.0403 58.1646 57.6232 58.0057Z" fill="#5E7180"/>
<path d="M50.5723 24.6882L52.3658 24.1935L58.6121 45.5919L53.3553 45.0353L50.5723 24.6882Z" fill="#3B4952"/>
<path d="M59.7255 43.9221L52.4277 24.1935L56.6332 44.6643C54.2212 46.0249 52.6133 48.8697 52.737 51.962C52.9225 55.8582 55.8292 58.5794 59.2307 58.0847C62.6322 57.5899 65.3534 54.1266 65.2915 50.2922C65.2915 46.7051 62.8177 44.1695 59.7873 44.0458L59.7255 43.9221Z" fill="#E9EFF8"/>
<path d="M59.9106 43.6127C57.7461 37.8611 55.6433 32.0476 53.4787 26.296L52.5511 23.8841C52.5511 23.8841 52.0563 23.6985 52.1181 24.0077C53.355 29.9449 54.5919 35.9439 55.767 41.881L56.3236 44.4785L56.4473 44.2311C53.9735 45.7154 52.4274 48.4366 52.4274 51.3433C52.4274 53.879 53.6643 56.4765 56.0144 57.5897C58.3645 58.7029 60.962 57.9608 62.7555 56.291C64.7964 54.4356 65.7241 51.5289 65.2912 48.8077C64.7964 45.9628 62.6318 43.6745 59.6633 43.489C59.354 43.489 59.354 43.9219 59.6633 43.9838C62.0752 44.1693 63.9924 45.8391 64.6727 48.1274C65.4149 50.6012 64.6727 53.3842 63.0647 55.3014C61.5805 57.095 59.1685 58.1463 56.8802 57.466C54.5919 56.7857 53.1077 54.4975 52.9221 52.2092C52.6129 49.2406 54.0972 46.2102 56.6947 44.6641C56.8184 44.6641 56.8184 44.4785 56.8184 44.4167C55.5815 38.4795 54.3446 32.4805 53.1695 26.5434L52.6129 23.9459L52.18 24.0696C54.3446 29.8212 56.4473 35.6347 58.6119 41.3863L59.5396 43.7982C59.5396 43.7982 60.0962 43.9838 59.9725 43.6745L59.9106 43.6127Z" fill="#0565AD"/>
</g>
<defs>
<clipPath id="clip0_434_10033">
<rect width="107.549" height="57.145" fill="white" transform="translate(0.972656 0.939697)"/>
</clipPath>
</defs>
</svg>
