<svg width="600" height="600" viewBox="0 0 600 600" fill="none" xmlns="http://www.w3.org/2000/svg">
<g clip-path="url(#clip0_785_2023)">
<path d="M345.147 387.674H264.485C257.048 387.674 249.722 387.941 242.482 385.772C227.254 381.222 215.195 368.628 211.265 353.231C209.462 346.188 209.871 338.877 209.871 331.664C209.871 320.958 209.871 310.266 209.871 299.56C209.871 288.854 209.871 278.233 209.871 267.569C209.871 260.131 209.518 252.707 211.575 245.453C215.886 230.168 228.296 217.899 243.623 213.743C250.652 211.841 257.85 212.165 265.063 212.165H296.463C307.619 212.165 318.79 212.165 329.947 212.165C335.427 212.165 340.921 212.039 346.4 212.18C362.53 212.588 377.462 221.914 385.21 236.015C388.872 242.692 390.746 250.186 390.774 257.793C390.774 259.497 390.774 261.202 390.774 262.892V291.714C390.774 303.11 390.774 314.492 390.774 325.889C390.774 331.453 390.83 337.003 390.774 342.568C390.591 358.711 381.561 373.812 367.531 381.771C360.713 385.645 353.007 387.631 345.161 387.674C342.442 387.674 342.442 391.914 345.161 391.9C361.882 391.815 377.589 383.265 386.816 369.333C391.422 362.374 394.155 354.288 394.831 345.991C395.042 343.511 394.986 341.018 394.986 338.525C394.986 329.256 394.986 319.972 394.986 310.703C394.986 298.983 394.986 287.263 394.986 275.542C394.986 269.626 395.014 263.695 394.986 257.779C394.916 241.297 386.59 225.787 372.997 216.504C366.108 211.813 358.079 208.982 349.81 208.165C347.232 207.911 344.654 207.939 342.076 207.939H256.625C243.468 207.939 230.902 212.518 221.281 221.618C211.124 231.197 205.645 244.565 205.645 258.455C205.645 265.879 205.645 273.302 205.645 280.726V316.549C205.645 324.607 205.645 332.665 205.645 340.722C205.645 348.78 209.927 365.952 218.689 375.601C228.24 386.11 241.876 391.9 256.019 391.914C263.034 391.914 270.05 391.914 277.065 391.914H345.147C347.866 391.914 347.866 387.688 345.147 387.688V387.674Z" fill="#221F20"/>
<path d="M280.391 252.89H265.234V238.705C265.234 236.141 263.149 234.056 260.585 234.056H255.584C253.021 234.056 250.936 236.141 250.936 238.705V252.89H236.75C234.186 252.89 232.102 254.975 232.102 257.539V262.54C232.102 265.104 234.186 267.188 236.75 267.188H250.936V282.346C250.936 284.91 253.021 286.995 255.584 286.995H260.585C263.149 286.995 265.234 284.91 265.234 282.346V267.188H280.391C282.955 267.188 285.04 265.104 285.04 262.54V257.539C285.04 254.975 282.955 252.89 280.391 252.89Z" fill="url(#paint0_linear_785_2023)"/>
<path d="M277.374 344.469C274.387 341.539 271.401 338.609 268.429 335.693V338.68C270.232 336.834 272.035 335.003 273.838 333.158C275.951 331.002 278.571 328.974 278.318 325.621C278.163 323.593 276.965 322.24 275.599 320.902C274.444 319.761 273.317 318.409 271.781 317.761C268.133 316.211 265.611 318.62 263.287 320.986C261.188 323.128 259.089 325.269 256.99 327.396H259.977C258.131 325.593 256.3 323.79 254.455 321.987C252.299 319.874 250.271 317.253 246.918 317.507C244.89 317.662 243.537 318.859 242.199 320.226C241.058 321.381 239.706 322.508 239.058 324.043C237.508 327.692 239.917 330.213 242.283 332.538C244.425 334.637 246.566 336.736 248.693 338.835V335.848C246.834 337.736 244.974 339.637 243.115 341.525C241.002 343.68 238.029 345.892 238.198 349.245C238.297 351.372 239.522 352.795 240.959 354.189C242.185 355.387 243.368 356.838 245.03 357.443C248.848 358.852 251.285 356.119 253.666 353.696L260.132 347.104H257.145C260.174 350.076 263.076 353.259 266.273 356.049C267.978 357.528 270.302 358.021 272.429 357.19C273.909 356.626 274.895 355.457 275.965 354.358C277.036 353.259 278.205 352.245 278.74 350.78C279.586 348.512 278.938 346.216 277.36 344.455C275.543 342.427 272.556 345.427 274.373 347.442C276.022 349.273 272.965 351.47 271.739 352.626C270.274 354.034 269.189 353.006 268.062 351.907L260.132 344.117C259.329 343.328 257.948 343.3 257.145 344.117L252.75 348.597C251.299 350.076 249.876 351.978 248.2 353.203C246.848 354.189 245.847 353.062 244.918 352.147C244.171 351.414 242.607 350.358 242.438 349.231C242.284 348.245 243.058 347.611 243.678 346.991L246.355 344.272C248.13 342.455 249.919 340.638 251.694 338.835C252.482 338.032 252.511 336.651 251.694 335.848C250.257 334.439 248.82 333.031 247.383 331.622L244.495 328.791C244.044 328.34 243.396 327.875 243.058 327.326C242.241 326.015 243.41 325.058 244.242 324.198C244.946 323.48 245.833 322.17 246.819 321.803C248.566 321.156 250.792 324.325 251.82 325.325C253.539 327.016 255.258 328.706 256.976 330.382C257.779 331.171 259.16 331.199 259.963 330.382C261.371 328.946 262.78 327.509 264.189 326.072L267.02 323.184C267.471 322.733 267.936 322.085 268.485 321.747C269.795 320.93 270.753 322.099 271.612 322.93C272.331 323.635 273.641 324.522 274.007 325.508C274.655 327.255 271.486 329.481 270.485 330.509C268.795 332.228 267.105 333.946 265.428 335.665C264.639 336.468 264.611 337.848 265.428 338.651C268.415 341.581 271.401 344.512 274.373 347.428C276.317 349.329 279.304 346.343 277.36 344.441L277.374 344.469Z" fill="#221F20"/>
<path d="M360.979 263.582C349.076 263.582 337.13 263.92 325.241 263.582C323.973 263.54 323.255 262.948 323.156 261.624C323.058 260.371 322.734 257.934 323.41 256.807C324.269 255.398 327.565 255.975 328.918 255.975H352.034C354.894 255.975 357.768 255.891 360.627 255.975C362.05 256.018 362.698 256.835 362.712 258.229C362.74 259.863 363.402 263.427 360.979 263.568C358.275 263.737 358.261 267.963 360.979 267.794C364.417 267.583 366.811 265.132 366.938 261.695C367.009 259.835 367.206 257.539 366.6 255.75C365.276 251.862 361.599 251.735 358.232 251.735H332.622C330.087 251.735 327.537 251.651 325.001 251.735C322.466 251.82 319.987 253.355 319.198 255.961C318.662 257.722 318.86 259.976 318.93 261.793C319.071 265.146 321.522 267.653 324.889 267.794C325.495 267.823 326.114 267.794 326.72 267.794H360.979C363.698 267.794 363.698 263.568 360.979 263.568V263.582Z" fill="#221F20"/>
<path d="M364.191 341.285H321.677C319.171 341.285 317.141 343.316 317.141 345.821V350.681C317.141 353.186 319.171 355.217 321.677 355.217H364.191C366.696 355.217 368.727 353.186 368.727 350.681V345.821C368.727 343.316 366.696 341.285 364.191 341.285Z" fill="#C5D8E3"/>
<path d="M364.191 317.577H321.677C319.171 317.577 317.141 319.608 317.141 322.113V326.973C317.141 329.478 319.171 331.509 321.677 331.509H364.191C366.696 331.509 368.727 329.478 368.727 326.973V322.113C368.727 319.608 366.696 317.577 364.191 317.577Z" fill="#C5D8E3"/>
<path d="M298.211 225.463V290.206C298.211 292.925 302.437 292.925 302.437 290.206V225.463C302.437 222.744 298.211 222.744 298.211 225.463Z" fill="#221F20"/>
<path d="M298.211 306.251V370.995C298.211 373.713 302.437 373.713 302.437 370.995V306.251C302.437 303.533 298.211 303.533 298.211 306.251Z" fill="#221F20"/>
<path d="M228.043 299.729H291.42C294.139 299.729 294.139 295.503 291.42 295.503H228.043C225.324 295.503 225.324 299.729 228.043 299.729Z" fill="#221F20"/>
<path d="M309.477 299.729H372.853C375.572 299.729 375.572 295.503 372.853 295.503H309.477C306.758 295.503 306.758 299.729 309.477 299.729Z" fill="#221F20"/>
</g>
<defs>
<linearGradient id="paint0_linear_785_2023" x1="232.087" y1="260.525" x2="285.054" y2="260.525" gradientUnits="userSpaceOnUse">
<stop stop-color="#9BCB9E"/>
<stop offset="1" stop-color="#78C1C4"/>
</linearGradient>
<clipPath id="clip0_785_2023">
<rect width="189.356" height="183.96" fill="white" transform="translate(205.645 207.939)"/>
</clipPath>
</defs>
</svg>
