<svg width="174" height="183" viewBox="0 0 174 183" fill="none" xmlns="http://www.w3.org/2000/svg">
<path d="M147.677 140.177L74.5934 182.254L12.9224 147.572L84.3164 109.622L147.677 140.177Z" fill="#273738"/>
<path d="M25.6557 1.54086L27.4933 5.53836C27.5513 5.66086 27.648 5.75758 27.7705 5.8156L31.768 7.65316C32.2065 7.85304 32.2065 8.47845 31.768 8.67833L27.7705 10.5159C27.648 10.5739 27.5513 10.6706 27.4933 10.7931L25.6557 14.7906C25.4559 15.2291 24.8305 15.2291 24.6306 14.7906L22.793 10.7931C22.735 10.6706 22.6383 10.5739 22.5158 10.5159L18.5183 8.67833C18.0798 8.47845 18.0798 7.85304 18.5183 7.65316L22.5158 5.8156C22.6383 5.75758 22.735 5.66086 22.793 5.53836L24.6306 1.54086C24.8305 1.10243 25.4559 1.10243 25.6557 1.54086Z" fill="white"/>
<path d="M25.4496 1.66351L27.1324 5.31929C27.3194 5.72548 27.5128 5.9576 27.9254 6.15103L30.008 7.10527L31.0654 7.59528C31.2201 7.6662 31.5232 7.73713 31.6392 7.85963C32.2324 8.47215 30.7237 8.89124 30.4658 9.01375L28.1446 10.0776C27.7513 10.2581 27.4483 10.3742 27.2355 10.7804C26.9003 11.4058 26.6359 12.0828 26.3393 12.7276L25.8429 13.8043C25.7397 14.0364 25.643 14.3975 25.4818 14.5973C24.908 15.2872 24.5598 14.0558 24.4244 13.7527L23.3605 11.438C23.1736 11.0318 23.0382 10.5354 22.6255 10.3033C22.0775 9.99378 21.4585 9.76811 20.8847 9.50376C20.227 9.20073 19.4791 8.95572 18.8601 8.57531C18.6474 8.44636 18.1445 8.36254 18.6667 7.85963C18.8086 7.72423 19.1374 7.64041 19.3179 7.56304L21.8776 6.38314C22.3483 6.16392 22.8061 6.04142 23.0575 5.55785C23.425 4.84861 23.7281 4.1007 24.0633 3.37212L24.6178 2.16642C24.6887 2.01168 25.0369 1.01231 25.4496 1.66996C25.6172 1.93431 26.0363 1.6893 25.8687 1.42495C25.4302 0.735062 24.6759 0.934937 24.3535 1.58614C23.9795 2.34696 23.6442 3.12711 23.2896 3.90082C23.0704 4.37149 22.8512 5.2935 22.3934 5.61588C21.8583 5.98984 21.1103 6.20905 20.5236 6.47985C19.8466 6.78933 19.0923 7.05369 18.4475 7.43409C17.8027 7.8145 17.8156 8.54308 18.4475 8.91703C19.0794 9.29099 19.8466 9.56179 20.5236 9.87128C21.1103 10.1421 21.8647 10.3613 22.3934 10.7353C22.8512 11.0576 23.0704 11.9732 23.2896 12.4503C23.6442 13.2176 23.9795 14.0042 24.3535 14.765C24.6694 15.4097 25.4431 15.6225 25.8687 14.9262C26.1975 14.3846 26.4167 13.7398 26.6746 13.166C26.997 12.4632 27.2613 11.6573 27.6675 10.9996C27.9383 10.5612 28.6282 10.4 29.0731 10.1937L31.5425 9.05888C32.0777 8.81387 32.6515 8.31741 32.1615 7.68555C31.9939 7.47278 31.7102 7.38251 31.4716 7.26646L30.1305 6.64749C29.4277 6.32511 28.5379 6.06721 27.8996 5.62232C27.6675 5.46113 27.5902 5.17744 27.4805 4.93243L26.8422 3.55265L25.8687 1.43785C25.7397 1.15415 25.3206 1.39916 25.4496 1.68286V1.66351Z" fill="#2B63A8"/>
<path d="M25.4431 1.66346L27.1259 5.31924C27.3129 5.72543 27.5128 5.96399 27.9254 6.15097L30.008 7.10521L31.0654 7.59523C31.2201 7.66615 31.5231 7.73708 31.6392 7.85958C32.213 8.46565 30.7236 8.8783 30.4657 9.0008L28.1446 10.0647C27.7513 10.2452 27.4483 10.3677 27.2291 10.7674C26.8938 11.3929 26.6294 12.0698 26.3328 12.7146L25.8364 13.7913C25.7332 14.0235 25.6365 14.3845 25.4753 14.5844C24.9079 15.2614 24.5662 14.0364 24.4308 13.7398L23.367 11.4251C23.18 11.0189 23.0446 10.5224 22.6319 10.2839C22.0839 9.97438 21.4649 9.74872 20.8911 9.48437C20.2334 9.18133 19.4855 8.93632 18.8666 8.55592C18.6602 8.42697 18.1638 8.3496 18.6731 7.85313C18.815 7.71773 19.1502 7.63391 19.3243 7.55654L21.884 6.37664C22.3547 6.15742 22.8125 6.02847 23.0639 5.5449C23.4314 4.83567 23.7345 4.08775 24.0697 3.35917L24.6242 2.15348C24.6758 2.04387 24.721 1.86334 24.7983 1.77307C24.9079 1.63767 24.9337 0.851066 25.4431 1.66346C25.6107 1.93426 26.0427 1.6828 25.8751 1.412C25.4366 0.715667 24.6694 0.915541 24.347 1.57319C23.973 2.33401 23.6378 3.11416 23.2831 3.88787C23.0639 4.35855 22.8447 5.28055 22.3934 5.59648C21.8582 5.97044 21.1103 6.18966 20.5236 6.46046C19.8466 6.76994 19.0922 7.03429 18.4475 7.4147C17.8027 7.7951 17.8092 8.53658 18.4475 8.91053C19.0922 9.29094 19.8466 9.55529 20.5236 9.86478C21.1103 10.1356 21.8647 10.3548 22.3934 10.7288C22.8512 11.0447 23.0704 11.9667 23.2831 12.4374C23.6378 13.2046 23.973 13.9912 24.347 14.752C24.6694 15.4032 25.4431 15.616 25.8751 14.9132C26.2039 14.3716 26.4231 13.7269 26.681 13.153C27.0034 12.4503 27.2677 11.6443 27.6739 10.9867C27.9447 10.5547 28.6346 10.387 29.0731 10.1872L31.5425 9.05238C32.0841 8.80737 32.6579 8.29801 32.1615 7.66615C31.9938 7.44693 31.7101 7.36312 31.4716 7.24706L30.1305 6.62809C29.4277 6.30571 28.5315 6.04781 27.8996 5.60293C27.6675 5.44174 27.5901 5.16449 27.4805 4.91949L26.8422 3.5397L25.8686 1.4249C25.7332 1.13476 25.3012 1.38621 25.4366 1.67636L25.4431 1.66346Z" fill="white"/>
<path d="M25.2368 1.78595L26.4683 4.46169C26.752 5.08066 26.9712 5.82858 27.5644 6.22833C28.2542 6.68611 29.1311 6.9698 29.879 7.31797C30.2337 7.47916 30.5818 7.65324 30.9364 7.80798C31.3362 7.97562 31.6844 8.13681 31.1814 8.43985C30.7817 8.67196 30.2917 8.8138 29.8726 9.00723C29.0924 9.36185 28.1124 9.65844 27.429 10.1742C26.9454 10.5418 26.7455 11.193 26.507 11.7281C26.1652 12.5018 25.8042 13.2691 25.4753 14.0492C25.4431 14.1331 25.2626 14.5457 25.0691 14.4941C24.9853 14.4748 24.8757 14.1911 24.8435 14.1202C24.7661 13.959 24.7081 13.7849 24.6372 13.6172C24.2568 12.7339 23.8312 11.8635 23.4379 10.9866C23.1865 10.4193 22.8899 10.1291 22.3289 9.85831C21.4972 9.45212 20.6203 9.12974 19.7757 8.74933C19.5694 8.65906 19.0407 8.48498 18.8988 8.298C18.6474 7.97562 19.1825 7.87891 19.4469 7.76285C20.3689 7.3631 21.2715 6.91822 22.1806 6.50557C22.7932 6.22833 23.1284 5.96398 23.4379 5.34501C23.857 4.49393 24.2181 3.61706 24.6114 2.75953C24.7468 2.46939 24.8822 2.1857 25.0111 1.89556C25.0305 1.85042 25.0627 1.74082 25.0885 1.71503C25.2561 1.5216 24.9853 1.3733 25.2368 1.78595C25.4173 2.07609 25.8364 2.08898 26.0492 1.83108C26.3071 1.51515 26.0298 1.1283 25.7526 0.928421C25.3786 0.657623 24.9015 0.696308 24.534 0.960659C23.986 1.36686 23.7538 2.24373 23.4895 2.83046C23.1929 3.48811 22.9543 4.18445 22.6384 4.83565C22.258 5.63515 21.3811 5.82213 20.6268 6.14451C19.9175 6.4411 19.1825 6.71834 18.512 7.0923C17.345 7.74351 17.6415 8.78801 18.7118 9.32961C19.3888 9.67133 20.111 9.96147 20.8137 10.2516C21.1813 10.4064 21.5617 10.5353 21.9163 10.7223C22.3998 10.9866 22.5868 11.3348 22.7803 11.8313C23.0317 12.4696 23.3025 13.0885 23.5862 13.714C23.8506 14.3007 24.0891 15.1647 24.721 15.4741C26.0621 16.1189 26.623 13.8687 26.9712 13.0563C27.3774 12.115 27.6095 11.0447 28.6282 10.6127C29.4857 10.2581 30.3239 9.86476 31.1621 9.47791C31.7101 9.22645 32.5354 8.91052 32.5806 8.18839C32.6257 7.46626 31.8971 7.17612 31.3555 6.92467C30.5044 6.53781 29.634 6.19609 28.7765 5.80924C28.1446 5.51909 27.848 5.18382 27.5644 4.55841C27.3516 4.09418 27.1388 3.6364 26.926 3.17218L26.2748 1.76016C26.1717 1.53449 26.0879 1.17988 25.8235 1.07672C25.3851 0.896183 25.1207 1.36041 25.1852 1.72792C25.2368 2.03096 25.701 1.902 25.6494 1.59897C25.7075 1.94069 26.0298 2.38557 26.1781 2.70795L26.7197 3.88141C26.9905 4.46814 27.2033 5.33856 27.7062 5.7641C28.1833 6.1703 28.8668 6.36373 29.4342 6.59584C29.8468 6.76348 30.253 6.95046 30.6592 7.13744C30.9816 7.28573 31.4329 7.39534 31.7037 7.61456C32.5806 8.33668 31.665 8.71064 31.1557 8.94276C30.743 9.13618 30.3304 9.32316 29.9177 9.51014C29.2665 9.80673 28.5186 10.0324 27.9125 10.4128C27.3774 10.7481 27.1517 11.3606 26.9132 11.9215C26.5972 12.6566 26.3006 13.4045 25.9718 14.1331C25.7848 14.5457 25.4753 15.3001 24.8886 15.0164C24.534 14.8423 24.3599 14.2556 24.2052 13.9267C23.8763 13.2175 23.5475 12.5083 23.2703 11.7797C23.0962 11.3284 22.9221 10.8577 22.5417 10.5418C22.0904 10.1678 21.465 9.99371 20.9298 9.77449C20.2077 9.47791 19.4017 9.20711 18.7376 8.79446C17.345 7.93693 19.189 7.26639 19.9304 6.95046C20.904 6.53781 22.4063 6.21543 22.9608 5.22251C23.2574 4.6938 23.425 4.08128 23.6765 3.52679C23.8312 3.17862 23.986 2.83046 24.1471 2.48229C24.3148 2.11477 24.4889 1.47646 24.8822 1.27659C25.0949 1.16698 25.8042 1.47002 25.3013 1.14119C25.1981 1.07672 25.0885 1.01869 24.9595 1.05737C24.7016 1.1283 24.6501 1.43133 24.5598 1.63765C24.2696 2.31465 23.9344 2.9852 23.6313 3.66219C23.3283 4.33919 23.0575 5.42883 22.3998 5.83503C21.7422 6.24122 21.0072 6.47978 20.3302 6.78927C19.7628 7.04717 18.9375 7.24704 18.4668 7.65969C17.5513 8.46564 19.1438 8.99434 19.7048 9.2329C20.414 9.53593 21.1297 9.82607 21.8325 10.1485C22.2064 10.3161 22.5546 10.4644 22.7932 10.8126C22.9801 11.0834 23.0897 11.4509 23.2251 11.7539C23.5604 12.4825 23.915 13.2046 24.2245 13.9396C24.3599 14.262 24.476 14.6682 24.7726 14.8745C25.6365 15.4806 26.0879 13.714 26.3071 13.2433C26.6681 12.4631 26.9518 11.5992 27.3967 10.8706C27.8029 10.2 28.9377 9.92279 29.6147 9.6133C30.1563 9.36185 30.7366 9.16197 31.2717 8.89118C31.5683 8.74288 31.9616 8.50432 31.9745 8.12391C31.9809 7.68548 31.5619 7.53074 31.2266 7.39534C30.3691 7.04072 29.5373 6.62808 28.6991 6.24122C28.2671 6.04135 27.7513 5.88661 27.4612 5.48686C27.242 5.17737 27.113 4.79052 26.9583 4.4488L25.6172 1.52805C25.4882 1.24435 25.0691 1.48936 25.1981 1.77305L25.2368 1.78595Z" fill="#2B63A8"/>
<path d="M166.742 84.1861L168.579 88.1836C168.637 88.3061 168.734 88.4028 168.856 88.4609L172.854 90.2984C173.292 90.4983 173.292 91.1237 172.854 91.3236L168.856 93.1611C168.734 93.2192 168.637 93.3159 168.579 93.4384L166.742 97.4359C166.542 97.8743 165.916 97.8743 165.717 97.4359L163.879 93.4384C163.821 93.3159 163.724 93.2192 163.602 93.1611L159.604 91.3236C159.166 91.1237 159.166 90.4983 159.604 90.2984L163.602 88.4609C163.724 88.4028 163.821 88.3061 163.879 88.1836L165.717 84.1861C165.916 83.7477 166.542 83.7477 166.742 84.1861Z" fill="white"/>
<path d="M166.535 84.3087L168.218 87.9644C168.405 88.3706 168.599 88.6027 169.011 88.7962L171.094 89.7504L172.151 90.2404C172.306 90.3113 172.609 90.3823 172.725 90.5048C173.318 91.1173 171.81 91.5364 171.552 91.6589L169.231 92.7227C168.837 92.9033 168.534 93.0193 168.321 93.4255C167.986 94.0509 167.722 94.7279 167.425 95.3727L166.929 96.4494C166.826 96.6815 166.729 97.0426 166.568 97.2425C165.994 97.9324 165.646 96.7009 165.51 96.3979L164.446 94.0832C164.26 93.677 164.124 93.1805 163.711 92.9484C163.163 92.6389 162.544 92.4133 161.971 92.1489C161.313 91.8459 160.565 91.6009 159.946 91.2205C159.733 91.0915 159.23 91.0077 159.753 90.5048C159.894 90.3694 160.223 90.2855 160.404 90.2082L162.964 89.0283C163.434 88.8091 163.892 88.6866 164.143 88.203C164.511 87.4937 164.814 86.7458 165.149 86.0173L165.704 84.8116C165.775 84.6568 166.123 83.6574 166.535 84.3151C166.703 84.5794 167.122 84.3344 166.955 84.0701C166.516 83.3802 165.762 83.5801 165.439 84.2313C165.065 84.9921 164.73 85.7723 164.376 86.546C164.156 87.0166 163.937 87.9386 163.479 88.261C162.944 88.635 162.196 88.8542 161.61 89.125C160.933 89.4345 160.178 89.6988 159.533 90.0792C158.889 90.4596 158.902 91.1882 159.533 91.5622C160.165 91.9361 160.933 92.2069 161.61 92.5164C162.196 92.7872 162.951 93.0064 163.479 93.3804C163.937 93.7028 164.156 94.6183 164.376 95.0954C164.73 95.8627 165.065 96.6493 165.439 97.4101C165.755 98.0549 166.529 98.2676 166.955 97.5713C167.283 97.0297 167.503 96.385 167.761 95.8111C168.083 95.1083 168.347 94.3024 168.753 93.6447C169.024 93.2063 169.714 93.0451 170.159 92.8388L172.628 91.704C173.164 91.459 173.737 90.9625 173.247 90.3307C173.08 90.1179 172.796 90.0277 172.558 89.9116L171.216 89.2926C170.514 88.9702 169.624 88.7123 168.986 88.2675C168.753 88.1063 168.676 87.8226 168.566 87.5776L167.928 86.1978L166.955 84.083C166.826 83.7993 166.407 84.0443 166.535 84.328V84.3087Z" fill="#2B63A8"/>
<path d="M166.529 84.3148L168.212 87.9706C168.399 88.3768 168.599 88.6154 169.011 88.8023L171.094 89.7566L172.151 90.2466C172.306 90.3175 172.609 90.3884 172.725 90.5109C173.299 91.117 171.81 91.5297 171.552 91.6522L169.231 92.716C168.837 92.8965 168.534 93.0191 168.315 93.4188C167.98 94.0442 167.715 94.7212 167.419 95.366L166.922 96.4427C166.819 96.6748 166.722 97.0359 166.561 97.2358C165.994 97.9128 165.652 96.6877 165.517 96.3911L164.453 94.0765C164.266 93.6703 164.131 93.1738 163.718 92.9352C163.17 92.6258 162.551 92.4001 161.977 92.1357C161.319 91.8327 160.571 91.5877 159.952 91.2073C159.746 91.0783 159.25 91.001 159.759 90.5045C159.901 90.3691 160.236 90.2853 160.41 90.2079L162.97 89.028C163.441 88.8088 163.898 88.6798 164.15 88.1963C164.517 87.487 164.82 86.7391 165.156 86.0105L165.71 84.8048C165.762 84.6952 165.807 84.5147 165.884 84.4244C165.994 84.289 166.02 83.5024 166.529 84.3148C166.697 84.5856 167.129 84.3342 166.961 84.0634C166.523 83.367 165.755 83.5669 165.433 84.2246C165.059 84.9854 164.724 85.7655 164.369 86.5392C164.15 87.0099 163.931 87.9319 163.479 88.2479C162.944 88.6218 162.196 88.841 161.61 89.1118C160.933 89.4213 160.178 89.6857 159.533 90.0661C158.889 90.4465 158.895 91.1879 159.533 91.5619C160.178 91.9423 160.933 92.2067 161.61 92.5161C162.196 92.7869 162.951 93.0062 163.479 93.3801C163.937 93.696 164.156 94.6181 164.369 95.0887C164.724 95.856 165.059 96.6426 165.433 97.4034C165.755 98.0546 166.529 98.2674 166.961 97.5646C167.29 97.023 167.509 96.3782 167.767 95.8044C168.089 95.1016 168.354 94.2957 168.76 93.638C169.031 93.206 169.721 93.0384 170.159 92.8385L172.628 91.7038C173.17 91.4587 173.744 90.9494 173.247 90.3175C173.08 90.0983 172.796 90.0145 172.557 89.8984L171.216 89.2795C170.514 88.9571 169.617 88.6992 168.986 88.2543C168.753 88.0931 168.676 87.8159 168.566 87.5709L167.928 86.1911L166.955 84.0763C166.819 83.7861 166.387 84.0376 166.523 84.3277L166.529 84.3148Z" fill="white"/>
<path d="M166.316 84.4374L167.548 87.1131C167.832 87.7321 168.051 88.48 168.644 88.8798C169.334 89.3375 170.211 89.6212 170.959 89.9694C171.313 90.1306 171.661 90.3047 172.016 90.4594C172.416 90.627 172.764 90.7882 172.261 91.0913C171.861 91.3234 171.371 91.4652 170.952 91.6587C170.172 92.0133 169.192 92.3099 168.509 92.8257C168.025 93.1932 167.825 93.8444 167.587 94.3795C167.245 95.1532 166.884 95.9205 166.555 96.7007C166.523 96.7845 166.342 97.1971 166.149 97.1456C166.065 97.1262 165.955 96.8425 165.923 96.7716C165.846 96.6104 165.788 96.4363 165.717 96.2687C165.336 95.3854 164.911 94.5149 164.517 93.6381C164.266 93.0707 163.969 92.7805 163.409 92.5097C162.577 92.1035 161.7 91.7812 160.855 91.4008C160.649 91.3105 160.12 91.1364 159.978 90.9494C159.727 90.6271 160.262 90.5303 160.526 90.4143C161.448 90.0145 162.351 89.5697 163.26 89.157C163.873 88.8798 164.208 88.6154 164.517 87.9964C164.937 87.1454 165.298 86.2685 165.691 85.411C165.826 85.1208 165.962 84.8371 166.091 84.547C166.11 84.5019 166.142 84.3922 166.168 84.3665C166.336 84.173 166.065 84.0247 166.316 84.4374C166.497 84.7275 166.916 84.7404 167.129 84.4825C167.387 84.1666 167.109 83.7797 166.832 83.5798C166.458 83.3091 165.981 83.3477 165.614 83.6121C165.066 84.0183 164.833 84.8952 164.569 85.4819C164.272 86.1395 164.034 86.8359 163.718 87.4871C163.338 88.2866 162.461 88.4736 161.706 88.7959C160.997 89.0925 160.262 89.3698 159.592 89.7437C158.425 90.3949 158.721 91.4394 159.791 91.981C160.468 92.3228 161.191 92.6129 161.893 92.903C162.261 93.0578 162.641 93.1867 162.996 93.3737C163.479 93.6381 163.666 93.9862 163.86 94.4827C164.111 95.121 164.382 95.74 164.666 96.3654C164.93 96.9521 165.169 97.8161 165.801 98.1256C167.142 98.7703 167.703 96.5201 168.051 95.7077C168.457 94.7664 168.689 93.6961 169.708 93.2641C170.565 92.9095 171.404 92.5162 172.242 92.1293C172.79 91.8779 173.615 91.562 173.66 90.8398C173.705 90.1177 172.977 89.8276 172.435 89.5761C171.584 89.1892 170.714 88.8475 169.856 88.4607C169.224 88.1705 168.928 87.8353 168.644 87.2098C168.431 86.7456 168.218 86.2878 168.006 85.8236L167.354 84.4116C167.251 84.1859 167.167 83.8313 166.903 83.7281C166.465 83.5476 166.2 84.0118 166.265 84.3794C166.316 84.6824 166.781 84.5534 166.729 84.2504C166.787 84.5921 167.109 85.037 167.258 85.3594L167.799 86.5328C168.07 87.1196 168.283 87.99 168.786 88.4155C169.263 88.8217 169.946 89.0152 170.514 89.2473C170.926 89.4149 171.333 89.6019 171.739 89.7889C172.061 89.9372 172.512 90.0468 172.783 90.266C173.66 90.9881 172.745 91.3621 172.235 91.5942C171.823 91.7876 171.41 91.9746 170.997 92.1616C170.346 92.4582 169.598 92.6838 168.992 93.0642C168.457 93.3995 168.231 94.012 167.993 94.573C167.677 95.308 167.38 96.0559 167.051 96.7845C166.864 97.1971 166.555 97.9515 165.968 97.6678C165.614 97.4937 165.44 96.907 165.285 96.5782C164.956 95.8689 164.627 95.1597 164.35 94.4311C164.176 93.9798 164.002 93.5091 163.621 93.1932C163.17 92.8192 162.545 92.6451 162.009 92.4259C161.287 92.1293 160.481 91.8585 159.817 91.4459C158.425 90.5884 160.269 89.9178 161.01 89.6019C161.984 89.1892 163.486 88.8669 164.04 87.8739C164.337 87.3452 164.505 86.7327 164.756 86.1782C164.911 85.8301 165.066 85.4819 165.227 85.1337C165.394 84.7662 165.568 84.1279 165.962 83.928C166.175 83.8184 166.884 84.1214 166.381 83.7926C166.278 83.7281 166.168 83.6701 166.039 83.7088C165.781 83.7797 165.73 84.0828 165.639 84.2891C165.349 84.9661 165.014 85.6366 164.711 86.3136C164.408 86.9906 164.137 88.0803 163.479 88.4865C162.822 88.8927 162.087 89.1312 161.41 89.4407C160.842 89.6986 160.017 89.8985 159.546 90.3111C158.631 91.1171 160.223 91.6458 160.784 91.8843C161.494 92.1874 162.209 92.4775 162.912 92.7999C163.286 92.9675 163.634 93.1158 163.873 93.464C164.06 93.7348 164.169 94.1023 164.305 94.4053C164.64 95.1339 164.995 95.856 165.304 96.5911C165.44 96.9134 165.556 97.3196 165.852 97.526C166.716 98.132 167.167 96.3654 167.387 95.8947C167.748 95.1146 168.031 94.2506 168.476 93.522C168.883 92.8515 170.017 92.5742 170.694 92.2647C171.236 92.0133 171.816 91.8134 172.351 91.5426C172.648 91.3943 173.041 91.1558 173.054 90.7753C173.061 90.3369 172.641 90.1822 172.306 90.0468C171.449 89.6921 170.617 89.2795 169.779 88.8927C169.347 88.6928 168.831 88.538 168.541 88.1383C168.322 87.8288 168.193 87.4419 168.038 87.1002L166.697 84.1795C166.568 83.8958 166.149 84.1408 166.278 84.4245L166.316 84.4374Z" fill="#2B63A8"/>
<path d="M8.13768 159.377L9.97524 163.375C10.0333 163.497 10.13 163.594 10.2525 163.652L14.25 165.489C14.6884 165.689 14.6884 166.315 14.25 166.515L10.2525 168.352C10.13 168.41 10.0333 168.507 9.97524 168.629L8.13768 172.627C7.9378 173.065 7.31239 173.065 7.11251 172.627L5.27496 168.629C5.21693 168.507 5.12021 168.41 4.99771 168.352L1.00021 166.515C0.561778 166.315 0.561778 165.689 1.00021 165.489L4.99771 163.652C5.12021 163.594 5.21693 163.497 5.27496 163.375L7.11251 159.377C7.31239 158.939 7.9378 158.939 8.13768 159.377Z" fill="white"/>
<path d="M7.93149 159.5L9.61431 163.155C9.80129 163.562 9.99472 163.794 10.4074 163.987L12.4899 164.941L13.5473 165.431C13.7021 165.502 14.0051 165.573 14.1212 165.696C14.7143 166.308 13.2056 166.727 12.9477 166.85L10.6266 167.914C10.2333 168.094 9.93024 168.21 9.71747 168.617C9.3822 169.242 9.11785 169.919 8.82126 170.564L8.3248 171.64C8.22164 171.873 8.12492 172.234 7.96373 172.434C7.3899 173.123 7.04173 171.892 6.90633 171.589L5.84248 169.274C5.6555 168.868 5.5201 168.372 5.10746 168.139C4.55941 167.83 3.94045 167.604 3.36661 167.34C2.70896 167.037 1.96104 166.792 1.34207 166.412C1.1293 166.283 0.626392 166.199 1.14865 165.696C1.29049 165.56 1.61932 165.477 1.79985 165.399L4.35954 164.219C4.83021 164 5.28799 163.878 5.53944 163.394C5.90696 162.685 6.20999 161.937 6.54527 161.208L7.09976 160.003C7.17068 159.848 7.51885 158.848 7.93149 159.506C8.09913 159.77 8.51822 159.525 8.35059 159.261C7.91215 158.571 7.15779 158.771 6.83541 159.422C6.46145 160.183 6.12617 160.963 5.77156 161.737C5.55234 162.208 5.33312 163.13 4.87534 163.452C4.3402 163.826 3.59228 164.045 3.00555 164.316C2.32855 164.626 1.57419 164.89 0.929428 165.27C0.284671 165.651 0.297566 166.379 0.929428 166.753C1.56129 167.127 2.32855 167.398 3.00555 167.707C3.59228 167.978 4.34664 168.197 4.87534 168.571C5.33312 168.894 5.55234 169.809 5.77156 170.286C6.12617 171.054 6.46145 171.84 6.83541 172.601C7.15134 173.246 7.92505 173.459 8.35059 172.762C8.67941 172.221 8.89863 171.576 9.15653 171.002C9.47891 170.299 9.74326 169.493 10.1495 168.836C10.4203 168.397 11.1102 168.236 11.555 168.03L14.0245 166.895C14.5596 166.65 15.1334 166.154 14.6434 165.522C14.4758 165.309 14.1921 165.219 13.9535 165.103L12.6124 164.484C11.9096 164.161 11.0199 163.903 10.3816 163.459C10.1495 163.297 10.0721 163.014 9.96248 162.769L9.32417 161.389L8.35059 159.274C8.22164 158.99 7.80254 159.235 7.93149 159.519V159.5Z" fill="#2B63A8"/>
<path d="M7.9255 159.506L9.60832 163.162C9.7953 163.568 9.99517 163.807 10.4078 163.994L12.4904 164.948L13.5478 165.438C13.7025 165.509 14.0056 165.58 14.1216 165.702C14.6955 166.308 13.2061 166.721 12.9482 166.844L10.627 167.907C10.2337 168.088 9.9307 168.21 9.71148 168.61C9.37621 169.236 9.11186 169.913 8.81527 170.557L8.3188 171.634C8.21564 171.866 8.11893 172.227 7.95774 172.427C7.39035 173.104 7.04863 171.879 6.91323 171.583L5.84938 169.268C5.6624 168.862 5.527 168.365 5.11436 168.127C4.56632 167.817 3.94735 167.591 3.37351 167.327C2.71586 167.024 1.96794 166.779 1.34898 166.399C1.14265 166.27 0.64619 166.192 1.15555 165.696C1.2974 165.561 1.63267 165.477 1.80675 165.399L4.36644 164.219C4.83711 164 5.29489 163.871 5.54635 163.388C5.91386 162.678 6.21689 161.931 6.55217 161.202L7.10666 159.996C7.15824 159.887 7.20337 159.706 7.28074 159.616C7.39035 159.48 7.41614 158.694 7.9255 159.506C8.09314 159.777 8.52513 159.526 8.35749 159.255C7.91905 158.558 7.15179 158.758 6.82941 159.416C6.45545 160.177 6.12018 160.957 5.76556 161.731C5.54635 162.201 5.32713 163.123 4.8758 163.439C4.34065 163.813 3.59273 164.032 3.006 164.303C2.32901 164.613 1.57464 164.877 0.929884 165.257C0.285126 165.638 0.291574 166.379 0.929884 166.753C1.57464 167.134 2.32901 167.398 3.006 167.708C3.59273 167.978 4.3471 168.198 4.8758 168.572C5.33358 168.887 5.55279 169.809 5.76556 170.28C6.12018 171.047 6.45545 171.834 6.82941 172.595C7.15179 173.246 7.9255 173.459 8.35749 172.756C8.68632 172.214 8.90553 171.57 9.16344 170.996C9.48582 170.293 9.75016 169.487 10.1564 168.829C10.4272 168.397 11.1171 168.23 11.5555 168.03L14.0249 166.895C14.5665 166.65 15.1403 166.141 14.6439 165.509C14.4762 165.29 14.1925 165.206 13.954 165.09L12.6129 164.471C11.9101 164.148 11.0139 163.891 10.382 163.446C10.1499 163.285 10.0725 163.007 9.96294 162.762L9.32463 161.382L8.35104 159.268C8.21564 158.978 7.78366 159.229 7.91905 159.519L7.9255 159.506Z" fill="white"/>
<path d="M7.71237 159.623L8.94386 162.298C9.22755 162.917 9.44677 163.665 10.0399 164.065C10.7298 164.523 11.6067 164.807 12.3546 165.155C12.7092 165.316 13.0574 165.49 13.412 165.645C13.8118 165.812 14.1599 165.974 13.657 166.277C13.2573 166.509 12.7673 166.651 12.3482 166.844C11.568 167.199 10.588 167.495 9.90454 168.011C9.42098 168.378 9.2211 169.03 8.98254 169.565C8.64082 170.339 8.27976 171.106 7.95093 171.886C7.91869 171.97 7.73816 172.382 7.54473 172.331C7.46091 172.312 7.3513 172.028 7.31907 171.957C7.2417 171.796 7.18367 171.622 7.11274 171.454C6.73234 170.571 6.3068 169.7 5.9135 168.823C5.66204 168.256 5.36545 167.966 4.80451 167.695C3.97277 167.289 3.0959 166.966 2.25127 166.586C2.04495 166.496 1.51625 166.322 1.3744 166.135C1.12295 165.812 1.6581 165.716 1.92245 165.6C2.84445 165.2 3.74711 164.755 4.65622 164.342C5.26874 164.065 5.60401 163.801 5.9135 163.182C6.33259 162.331 6.69365 161.454 7.08695 160.596C7.22235 160.306 7.35775 160.022 7.4867 159.732C7.50605 159.687 7.53828 159.578 7.56407 159.552C7.73171 159.358 7.46091 159.21 7.71237 159.623C7.8929 159.913 8.31199 159.926 8.52476 159.668C8.78267 159.352 8.50542 158.965 8.22817 158.765C7.85422 158.494 7.37709 158.533 7.00958 158.797C6.46154 159.204 6.22943 160.08 5.96508 160.667C5.66849 161.325 5.42993 162.021 5.114 162.672C4.73359 163.472 3.85672 163.659 3.10235 163.981C2.39312 164.278 1.6581 164.555 0.987548 164.929C-0.179463 165.58 0.117125 166.625 1.18742 167.166C1.86442 167.508 2.58655 167.798 3.28933 168.088C3.65684 168.243 4.03725 168.372 4.39187 168.559C4.87544 168.823 5.06242 169.172 5.25584 169.668C5.5073 170.306 5.7781 170.925 6.06179 171.551C6.32614 172.137 6.5647 173.001 7.19656 173.311C8.53766 173.956 9.0986 171.705 9.44677 170.893C9.85296 169.952 10.0851 168.881 11.1038 168.449C11.9613 168.095 12.7995 167.701 13.6377 167.315C14.1857 167.063 15.011 166.747 15.0562 166.025C15.1013 165.303 14.3727 165.013 13.8311 164.761C12.98 164.375 12.1096 164.033 11.2521 163.646C10.6202 163.356 10.3236 163.021 10.0399 162.395C9.82717 161.931 9.6144 161.473 9.40163 161.009L8.75043 159.597C8.64727 159.371 8.56345 159.017 8.2991 158.913C7.86066 158.733 7.59631 159.197 7.66079 159.565C7.71237 159.868 8.17659 159.739 8.12501 159.436C8.18304 159.777 8.50542 160.222 8.65372 160.545L9.19531 161.718C9.46611 162.305 9.67888 163.175 10.1818 163.601C10.6589 164.007 11.3424 164.2 11.9097 164.433C12.3224 164.6 12.7286 164.787 13.1348 164.974C13.4572 165.122 13.9085 165.232 14.1793 165.451C15.0562 166.173 14.1406 166.547 13.6312 166.779C13.2186 166.973 12.806 167.16 12.3933 167.347C11.7421 167.643 10.9942 167.869 10.3881 168.25C9.85296 168.585 9.6273 169.197 9.38874 169.758C9.07281 170.493 8.77622 171.241 8.44739 171.97C8.26041 172.382 7.95093 173.137 7.3642 172.853C7.00958 172.679 6.8355 172.092 6.68076 171.763C6.35193 171.054 6.0231 170.345 5.74586 169.616C5.57177 169.165 5.39769 168.694 5.01728 168.378C4.56595 168.005 3.94054 167.83 3.40539 167.611C2.68326 167.315 1.87731 167.044 1.21321 166.631C-0.179463 165.774 1.66454 165.103 2.40601 164.787C3.3796 164.375 4.88188 164.052 5.43637 163.059C5.73296 162.531 5.9006 161.918 6.15206 161.364C6.3068 161.015 6.46154 160.667 6.62273 160.319C6.79037 159.952 6.96445 159.313 7.35775 159.113C7.57052 159.004 8.27976 159.307 7.77684 158.978C7.67368 158.913 7.56407 158.855 7.43512 158.894C7.17722 158.965 7.12564 159.268 7.03537 159.474C6.74523 160.151 6.40996 160.822 6.10692 161.499C5.80389 162.176 5.53309 163.266 4.87544 163.672C4.21778 164.078 3.48276 164.317 2.80576 164.626C2.23838 164.884 1.41309 165.084 0.942415 165.496C0.0268591 166.302 1.61941 166.831 2.18035 167.07C2.88958 167.373 3.60526 167.663 4.30805 167.985C4.68201 168.153 5.03018 168.301 5.26874 168.649C5.45572 168.92 5.56533 169.288 5.70073 169.591C6.036 170.319 6.39062 171.041 6.7001 171.776C6.8355 172.099 6.95155 172.505 7.24814 172.711C8.11212 173.317 8.56345 171.551 8.78267 171.08C9.14373 170.3 9.42742 169.436 9.87231 168.707C10.2785 168.037 11.4133 167.76 12.0903 167.45C12.6319 167.199 13.2122 166.999 13.7473 166.728C14.0439 166.58 14.4372 166.341 14.4501 165.961C14.4565 165.522 14.0374 165.367 13.7022 165.232C12.8446 164.877 12.0129 164.465 11.1747 164.078C10.7427 163.878 10.2269 163.723 9.93678 163.324C9.71756 163.014 9.58861 162.627 9.43387 162.286L8.09278 159.365C7.96382 159.081 7.54473 159.326 7.67368 159.61L7.71237 159.623Z" fill="#2B63A8"/>
<path d="M147.212 133.445L74.1291 175.522L12.458 140.84L83.852 102.89L147.212 133.445Z" fill="#6CA9AE"/>
<path d="M147.09 133.239L140.861 136.824L125.568 145.625L106.296 156.721L88.1782 167.153L76.1535 174.078L74.6963 174.916C74.5287 175.013 74.1547 175.136 74.0387 175.297C73.9613 175.4 74.2837 175.387 74.2192 175.297C74.1741 175.232 74.0322 175.2 73.9678 175.155C73.5873 174.903 73.1618 174.704 72.7621 174.478L60.4214 167.534L41.5236 156.908L23.3221 146.669L13.0575 140.899L12.5804 140.635V141.054L18.8539 137.72L34.1927 129.564L53.3097 119.403L71.1502 109.918L82.427 103.922L83.6004 103.297C83.6649 103.264 83.8583 103.2 83.897 103.135C84.0002 102.974 84.1033 103.393 83.7358 103.097C84.2903 103.555 85.2188 103.812 85.8571 104.122L99.0295 110.473L118.237 119.732L136.387 128.487L146.606 133.413L147.083 133.645C147.361 133.781 147.606 133.362 147.328 133.226L140.075 129.732L123.06 121.524L103.388 112.04L88.2169 104.722L84.4773 102.916C84.0131 102.691 83.8519 102.6 83.3941 102.845L74.6512 107.494L57.9391 116.379L38.5319 126.695L21.7553 135.612L12.7416 140.402L12.3289 140.622C12.1677 140.705 12.1742 140.95 12.3289 141.041L19.6405 145.148L36.6814 154.729L56.0693 165.632L70.6279 173.82C71.6789 174.407 72.7105 175.039 73.7808 175.593C74.245 175.832 74.4707 175.587 74.9091 175.335L84.5095 169.81L101.66 159.939L121.203 148.688L137.96 139.042L146.922 133.884L147.335 133.645C147.606 133.491 147.361 133.072 147.09 133.226V133.239Z" fill="#2B63A8"/>
<path d="M147.212 133.445L74.1289 175.522C75.3217 170.332 76.5145 165.135 77.7009 159.945C76.5081 156.25 75.3153 152.556 74.1289 148.861L147.212 106.785C147.651 109.131 148.083 111.478 148.521 113.832C149.295 118.01 149.295 122.291 148.521 126.469C148.089 128.797 147.651 131.118 147.219 133.445H147.212Z" fill="#6CA9AE"/>
<path d="M147.09 133.239L139.798 137.437L122.363 147.475L101.215 159.655L82.9945 170.145L76.9853 173.601L75.1026 174.684C74.8383 174.839 74.3289 175.007 74.1291 175.245C74.1033 175.277 74.0388 175.297 74.0001 175.316L74.3547 175.587C75.4121 170.964 76.476 166.347 77.5334 161.725C77.6559 161.202 77.9267 160.545 77.9267 160.01C77.9267 159.623 77.7075 159.197 77.5914 158.83C77.2368 157.734 76.8822 156.631 76.5276 155.535C75.8054 153.291 75.0769 151.041 74.3547 148.797L74.2451 149.068L81.5373 144.871L98.9716 134.832L120.12 122.652L138.34 112.162L144.35 108.706L146.232 107.623C146.497 107.468 147.006 107.301 147.206 107.062C147.232 107.03 147.296 107.01 147.335 106.991L146.98 106.849C147.799 111.246 148.863 115.657 148.863 120.151C148.863 124.645 147.799 129.01 146.98 133.381C146.922 133.684 147.386 133.813 147.444 133.51C148.27 129.093 149.34 124.664 149.346 120.151C149.353 115.637 148.27 111.163 147.444 106.72C147.412 106.566 147.212 106.501 147.09 106.578L139.798 110.776L122.363 120.815L101.215 132.994L82.9945 143.484L76.9853 146.94C76.0569 147.475 74.9995 147.946 74.1291 148.584C74.0904 148.61 74.0452 148.636 74.0001 148.655C73.9098 148.707 73.8583 148.829 73.8905 148.926C74.5804 151.073 75.2767 153.22 75.9666 155.367L76.9789 158.514C77.1723 159.12 77.4431 159.7 77.3529 160.351C77.2755 160.925 77.0885 161.499 76.9596 162.066C75.9344 166.534 74.9092 170.996 73.8841 175.464C73.8389 175.664 74.0517 175.845 74.2387 175.735L81.5309 171.538L98.9651 161.499L120.113 149.319L138.334 138.829L144.343 135.373C145.272 134.838 146.329 134.367 147.199 133.729C147.238 133.703 147.283 133.678 147.328 133.658C147.599 133.504 147.354 133.084 147.083 133.239H147.09Z" fill="#2B63A8"/>
<path d="M147.212 106.437L74.0968 149.094L12.458 113.832L83.852 75.8815L147.212 106.437Z" fill="#6CA9AE"/>
<path d="M147.09 106.224L140.861 109.854L125.568 118.777L106.36 129.983L88.1653 140.596L76.1277 147.617L74.6899 148.456C74.5351 148.546 74.1096 148.694 74.0129 148.855C73.9549 148.952 74.2257 148.907 74.1934 148.862C74.1418 148.797 74.0064 148.765 73.942 148.72C73.5616 148.468 73.1425 148.262 72.7427 148.036L60.4085 140.983L41.5107 130.17L23.3607 119.79L13.064 113.897L12.5804 113.619V114.038L18.8539 110.705L34.1927 102.549L53.3097 92.3874L71.1502 82.903L82.427 76.9068L83.6004 76.2814C83.6649 76.2492 83.8583 76.1847 83.897 76.1202C84.0002 75.959 84.1033 76.3781 83.7358 76.0815C84.2903 76.5393 85.2188 76.7972 85.8571 77.1067L99.0295 83.4575L118.237 92.7163L136.387 101.472L146.606 106.398L147.083 106.63C147.361 106.766 147.606 106.346 147.328 106.211L140.075 102.716L123.06 94.5087L103.388 85.0243L88.2169 77.7063L84.4773 75.901C84.0131 75.6753 83.8519 75.585 83.3941 75.8301L74.6512 80.4788L57.9391 89.3635L38.5319 99.6796L21.7553 108.597L12.7416 113.387L12.3289 113.606C12.1677 113.69 12.1742 113.935 12.3289 114.025L18.4541 117.533L33.1675 125.954L50.9692 136.141L66.3661 144.948L71.4403 147.849C72.214 148.288 73.02 148.913 73.8517 149.229C73.8904 149.242 73.9226 149.268 73.9613 149.287C74.0387 149.332 74.1289 149.332 74.2063 149.287L81.4921 145.038L98.9843 134.832L120.068 122.53L138.302 111.891L144.337 108.371C145.271 107.823 146.329 107.346 147.199 106.701C147.238 106.675 147.283 106.649 147.322 106.63C147.593 106.475 147.348 106.056 147.077 106.211L147.09 106.224Z" fill="#2B63A8"/>
<path d="M15.0371 141.763L74.0904 175.748C75.3929 173.491 78.6038 167.198 77.5528 159.049C76.979 154.587 75.3348 151.176 74.0904 149.094C54.406 137.765 34.7216 126.437 15.0371 115.109V141.769V141.763Z" fill="white"/>
<path d="M14.9209 141.976L20.7947 145.361L34.902 153.485L51.9687 163.311L66.7143 171.802L71.5371 174.581C72.2786 175.007 73.0587 175.6 73.8582 175.916C73.8969 175.929 73.9292 175.954 73.9614 175.974C74.071 176.038 74.2257 176 74.2902 175.89C76.4115 172.189 77.7074 168.011 77.9524 163.743C78.1265 160.68 77.7397 157.579 76.8241 154.652C76.4437 153.439 75.9795 152.26 75.4314 151.118C75.2058 150.648 74.9672 150.183 74.7158 149.732C74.3869 149.139 74.2451 148.926 73.6455 148.578C61.2016 141.415 48.7643 134.258 36.3204 127.095C29.2668 123.033 22.2067 118.971 15.1531 114.909C14.9919 114.818 14.792 114.935 14.792 115.115V141.776C14.792 142.085 15.2756 142.085 15.2756 141.776V115.115L14.9145 115.321C27.0295 122.298 39.1509 129.267 51.2659 136.244C57.3009 139.719 63.3358 143.188 69.3707 146.663L71.4597 147.862L72.5752 148.501C73.0072 148.746 73.639 148.978 73.9614 149.358C74.5933 150.087 74.9995 151.267 75.3799 152.131C76.5985 154.916 77.3206 157.914 77.4818 160.951C77.7526 166.064 76.4244 171.196 73.884 175.626L74.2129 175.542L68.3391 172.157L54.2318 164.033L37.1651 154.207L22.4195 145.715L17.5967 142.936C16.8617 142.511 16.0751 141.898 15.2756 141.602C15.2369 141.589 15.2046 141.563 15.1724 141.544C14.9016 141.389 14.6566 141.808 14.9274 141.963L14.9209 141.976Z" fill="#2B63A8"/>
<path d="M15.0112 122.64C15.4109 122.781 16.1395 123.213 16.6166 123.478C17.8868 124.161 19.1441 124.858 20.4078 125.547C24.3731 127.733 28.3254 129.932 32.2778 132.137C40.9433 136.966 49.596 141.821 58.2422 146.676C60.2087 147.779 62.1687 148.881 64.1353 149.984C64.4061 150.138 64.6511 149.719 64.3803 149.565C62.7877 148.668 61.1952 147.772 59.5962 146.876C55.7534 144.723 51.9107 142.563 48.0679 140.409C43.3676 137.778 38.6673 135.141 33.9606 132.517C29.8664 130.235 25.7722 127.946 21.6651 125.683C20.2788 124.916 18.8862 124.148 17.4935 123.394C16.7907 123.014 16.0879 122.556 15.3465 122.259C15.2755 122.233 15.2111 122.195 15.1337 122.169C14.8371 122.066 14.7146 122.53 15.0047 122.633L15.0112 122.64Z" fill="#2B63A8"/>
<path d="M18.0996 131.898C18.4993 132.04 19.2279 132.472 19.705 132.736C20.9752 133.42 22.2325 134.116 23.4962 134.806C27.4614 136.992 31.4138 139.19 35.3662 141.395C44.0317 146.225 52.6844 151.08 61.3306 155.935C63.2971 157.037 65.2571 158.14 67.2236 159.242C67.4944 159.397 67.7394 158.978 67.4686 158.823C65.8761 157.927 64.2835 157.031 62.6845 156.135C58.8418 153.981 54.999 151.821 51.1563 149.668C46.456 147.037 41.7557 144.4 37.049 141.776C32.9548 139.493 28.8606 137.204 24.7535 134.941C23.3672 134.174 21.9746 133.407 20.5819 132.652C19.8791 132.272 19.1763 131.814 18.4348 131.518C18.3639 131.492 18.2994 131.453 18.2221 131.427C17.9255 131.324 17.803 131.789 18.0931 131.892L18.0996 131.898Z" fill="#2B63A8"/>
<path d="M15.2172 137.869C15.617 138.01 16.3456 138.442 16.8227 138.707C18.0929 139.39 19.3501 140.087 20.6139 140.776C24.5791 142.962 28.5315 145.161 32.4838 147.366C41.1494 152.195 49.802 157.05 58.4482 161.905C60.4147 163.008 62.3748 164.11 64.3413 165.213C64.6121 165.367 64.8571 164.948 64.5863 164.794C62.9938 163.897 61.4012 163.001 59.8022 162.105C55.9595 159.952 52.1167 157.792 48.274 155.638C43.5737 153.007 38.8734 150.37 34.1667 147.746C30.0724 145.464 25.9782 143.175 21.8711 140.912C20.4849 140.145 19.0922 139.377 17.6995 138.623C16.9968 138.243 16.294 137.785 15.5525 137.488C15.4816 137.462 15.4171 137.424 15.3397 137.398C15.0431 137.295 14.9206 137.759 15.2108 137.862L15.2172 137.869Z" fill="#2B63A8"/>
<path d="M140.545 105.173L74.393 142.865L19.0083 111.743L83.4131 79.9369L140.545 105.173Z" fill="#273738"/>
<path d="M137.715 103.69L75.0764 139.751L22.2256 110.028L83.4131 77.506L137.715 103.69Z" fill="#45636A"/>
<path d="M137.592 103.483L132.247 106.559L119.184 114.077L102.653 123.593L87.1141 132.536L76.798 138.474L75.5665 139.184C75.4247 139.261 75.0894 139.377 74.9927 139.512C75.0636 139.409 75.3086 139.635 74.9605 139.396C74.6381 139.177 74.2641 139.003 73.9224 138.81L63.3742 132.878L47.165 123.761L31.5489 114.979L22.7674 110.041L22.3483 109.808V110.227L27.7449 107.358L40.8657 100.382L57.2748 91.6585L72.5297 83.5474L82.1946 78.4087L83.2198 77.8671C83.2778 77.8349 83.439 77.7897 83.4713 77.7317C83.568 77.5834 83.5293 77.88 83.3036 77.693C83.7872 78.0863 84.5867 78.312 85.1412 78.5763L96.418 84.0116L112.84 91.9293L128.424 99.4407L137.18 103.664L137.599 103.864C137.876 103.999 138.121 103.58 137.844 103.445L131.648 100.459L117.031 93.4122L100.203 85.2947L87.1722 79.0148L83.9806 77.4738C83.5809 77.2804 83.4197 77.203 83.0199 77.4158C80.5118 78.7375 78.0166 80.0786 75.5085 81.4068L61.2078 89.0085L44.6053 97.8352L30.195 105.495L22.4708 109.602L22.1097 109.795C21.9485 109.879 21.955 110.124 22.1097 110.215L28.3896 113.748L42.9612 121.943L59.6539 131.33L72.0849 138.32C72.9811 138.822 73.8644 139.371 74.7799 139.835C75.1861 140.041 75.3796 139.835 75.7535 139.622L83.9935 134.877L98.7133 126.404L115.419 116.785L129.797 108.506L137.489 104.077L137.837 103.877C138.108 103.722 137.863 103.303 137.592 103.458V103.483Z" fill="#2B63A8"/>
<path d="M137.715 103.69L75.0767 139.752C76.0954 135.303 77.1205 130.854 78.1393 126.399C77.1205 123.233 76.0954 120.067 75.0767 116.901L137.715 80.8401C138.089 82.8517 138.463 84.8634 138.837 86.875C139.501 90.4534 139.501 94.1285 138.837 97.7069C138.463 99.6992 138.089 101.692 137.721 103.684L137.715 103.69Z" fill="#45636A"/>
<path d="M137.592 103.484L131.351 107.075L116.373 115.702L98.3266 126.089L82.6654 135.103L77.5203 138.062L75.9019 138.991C75.6827 139.12 75.2185 139.274 75.0573 139.474C75.0379 139.5 74.9799 139.519 74.9541 139.532L75.3087 139.803C76.2114 135.87 77.1141 131.937 78.0167 128.004C78.1199 127.546 78.294 127.069 78.3391 126.605C78.3713 126.27 78.2875 126.044 78.1779 125.709L77.2366 122.801C76.5918 120.809 75.9535 118.816 75.3087 116.824L75.1991 117.095L81.4404 113.503L96.4181 104.877L114.465 94.4896L130.126 85.4759L135.271 82.5164L136.89 81.588C137.109 81.4655 137.579 81.3043 137.734 81.1044C137.753 81.0786 137.812 81.0593 137.837 81.0464L137.483 80.9045C138.173 84.6183 139.075 88.345 139.095 92.1362C139.114 96.0176 138.192 99.8217 137.483 103.619C137.425 103.922 137.889 104.051 137.947 103.748C138.663 99.9055 139.598 96.0628 139.578 92.1362C139.559 88.2999 138.65 84.5281 137.947 80.7756C137.915 80.6208 137.715 80.5564 137.592 80.6337L131.351 84.225L116.373 92.8519L98.3266 103.239L82.6654 112.253L77.5203 115.212C76.7272 115.67 75.7794 116.063 75.0637 116.631C75.0315 116.656 74.9928 116.669 74.9606 116.689C74.8703 116.74 74.8187 116.863 74.851 116.959C75.4441 118.797 76.0373 120.634 76.6305 122.472L77.5203 125.232C77.7201 125.844 77.8878 126.302 77.7717 126.947C77.6879 127.417 77.5589 127.882 77.4493 128.346C76.5854 132.124 75.7149 135.902 74.851 139.681C74.8058 139.881 75.0186 140.061 75.2056 139.951L81.4468 136.36L96.4245 127.733L114.471 117.346L130.132 108.333L135.278 105.373C136.064 104.922 137.031 104.528 137.734 103.955C137.766 103.929 137.805 103.916 137.837 103.897C138.108 103.742 137.863 103.323 137.592 103.477V103.484Z" fill="#2B63A8"/>
<path d="M137.715 80.5429L75.0511 117.101L22.2261 86.8809L83.4136 54.3528L137.715 80.5429Z" fill="#45636A"/>
<path d="M137.593 80.3303L132.248 83.4509L119.185 91.0719L102.653 100.717L87.1081 109.789L76.8049 115.798L75.5476 116.533C75.4057 116.617 75.0576 116.733 74.9609 116.875C75.0318 116.772 75.2832 116.998 74.9415 116.759C74.6191 116.533 74.2452 116.359 73.897 116.159L63.3036 110.099L47.1589 100.859L31.5945 91.9552L22.7677 86.9003L22.3551 86.6618V87.0809L27.7517 84.2117L40.8725 77.2354L57.2816 68.5119L72.5366 60.4008L82.2015 55.2621L83.2267 54.7205C83.2847 54.6883 83.4459 54.6431 83.4781 54.5851C83.5748 54.4368 83.5361 54.7334 83.3105 54.5464C83.794 54.9397 84.5935 55.1654 85.148 55.4297L96.4248 60.865L112.847 68.7827L128.431 76.2941L137.186 80.5172L137.605 80.7171C137.883 80.8525 138.128 80.4334 137.851 80.298L131.654 77.3128L117.038 70.2656L100.21 62.1481L87.179 55.8682L83.9875 54.3272C83.5877 54.1338 83.4265 54.0564 83.0268 54.2692C80.5187 55.5909 78.0235 56.932 75.5154 58.2602L61.2146 65.8619L44.6121 74.6886L30.2018 82.3484L22.4776 86.4555L22.1165 86.6489C21.9553 86.7327 21.9618 86.9777 22.1165 87.068L27.352 90.0661L40.0021 97.3003L55.2377 106.017L68.4166 113.555L72.7816 116.05C73.4328 116.424 74.1356 116.965 74.8448 117.23C74.877 117.243 74.9093 117.268 74.9415 117.281C75.0189 117.326 75.1092 117.326 75.1865 117.281L81.4213 113.645L96.3926 104.908L114.504 94.3408L130.152 85.2111L135.304 82.2065C136.084 81.7552 137.038 81.3554 137.741 80.7816C137.773 80.7558 137.812 80.7429 137.844 80.7236C138.115 80.5688 137.87 80.1497 137.599 80.3045L137.593 80.3303Z" fill="#2B63A8"/>
<path d="M24.4375 110.821L75.051 139.951C76.1664 138.017 78.9195 132.627 78.0169 125.638C77.5268 121.814 76.1148 118.894 75.051 117.101C58.1777 107.391 41.3108 97.681 24.4375 87.9709V110.821Z" fill="white"/>
<path d="M24.315 111.034L29.3312 113.922L41.4527 120.899L56.05 129.3L68.6743 136.566L72.8459 138.965C73.4778 139.326 74.1548 139.867 74.8446 140.112C74.8769 140.125 74.9027 140.145 74.9285 140.164C75.0381 140.229 75.1928 140.19 75.2573 140.08C77.082 136.895 78.1974 133.297 78.4037 129.629C78.552 127.011 78.2167 124.361 77.4366 121.853C77.1142 120.815 76.708 119.796 76.2438 118.816C75.8634 118.023 75.5345 117.101 74.7608 116.656C64.0514 110.492 53.3484 104.335 42.639 98.171C36.617 94.7022 30.5885 91.2334 24.5665 87.771C24.4053 87.6808 24.2054 87.7968 24.2054 87.9774V110.828C24.2054 111.137 24.689 111.137 24.689 110.828V87.9774L24.3279 88.1837C34.6182 94.1026 44.9086 100.028 55.1924 105.947C60.3827 108.932 65.573 111.924 70.7633 114.909C72.0077 115.625 73.3037 116.295 74.5158 117.069C75.2895 117.565 75.6828 118.726 76.0568 119.545C77.1464 121.969 77.7847 124.593 77.9266 127.25C78.1587 131.634 77.0239 136.025 74.8446 139.822L75.1735 139.739L70.1573 136.85L58.0358 129.874L43.4385 121.473L30.8142 114.206L26.6426 111.808C26.0107 111.447 25.3337 110.905 24.6438 110.66C24.6116 110.647 24.5858 110.628 24.56 110.608C24.2892 110.454 24.0442 110.873 24.315 111.027V111.034Z" fill="#2B63A8"/>
<path d="M24.4055 94.4635C24.7343 94.5795 25.3791 94.9599 25.7917 95.1856C26.8878 95.7723 27.9775 96.3719 29.0607 96.9716C32.4263 98.8285 35.7919 100.698 39.1511 102.575C46.5916 106.727 54.0257 110.892 61.4533 115.063C63.1361 116.011 64.8189 116.953 66.5017 117.9C66.7725 118.055 67.0175 117.636 66.7467 117.481C62.0658 114.851 57.3849 112.227 52.7039 109.596C45.1925 105.386 37.6746 101.169 30.1374 97.0102C28.8414 96.2946 27.5455 95.5789 26.2431 94.8761C25.695 94.5795 25.1276 94.2056 24.5409 93.9992C24.2443 93.8961 24.1218 94.3603 24.412 94.4635H24.4055Z" fill="#2B63A8"/>
<path d="M27.0486 102.4C27.3774 102.517 28.0222 102.897 28.4348 103.123C29.5309 103.709 30.6205 104.309 31.7037 104.909C35.0694 106.765 38.435 108.635 41.7942 110.512C49.2347 114.664 56.6687 118.829 64.0963 123C65.7792 123.948 67.462 124.89 69.1448 125.837C69.4156 125.992 69.6606 125.573 69.3898 125.418C64.7089 122.788 60.0279 120.164 55.347 117.533C47.8356 113.323 40.3177 109.106 32.7805 104.947C31.4845 104.232 30.1885 103.516 28.8861 102.813C28.3381 102.517 27.7707 102.143 27.184 101.936C26.8874 101.833 26.7649 102.297 27.055 102.4H27.0486Z" fill="#2B63A8"/>
<path d="M24.5798 107.513C24.9087 107.629 25.5534 108.01 25.9661 108.235C27.0621 108.822 28.1518 109.422 29.235 110.021C32.6006 111.878 35.9662 113.748 39.3254 115.624C46.7659 119.777 54.2 123.942 61.6276 128.113C63.3104 129.061 64.9932 130.002 66.676 130.95C66.9468 131.105 67.1918 130.686 66.9211 130.531C62.2401 127.9 57.5592 125.276 52.8782 122.646C45.3668 118.435 37.8489 114.219 30.3117 110.06C29.0158 109.344 27.7198 108.629 26.4174 107.926C25.8693 107.629 25.302 107.255 24.7152 107.049C24.4186 106.946 24.2961 107.41 24.5863 107.513H24.5798Z" fill="#2B63A8"/>
<path d="M135.78 79.2342L82.3172 111.614L31.6006 81.8906L85.3992 51.658L135.78 79.2342Z" fill="#273738"/>
<path d="M145.8 71.5036L83.1682 107.558L30.311 77.8416L91.4985 45.3135L145.8 71.5036Z" fill="#B2CD80"/>
<path d="M145.678 71.2908L140.333 74.3662L127.27 81.8841L110.738 91.4007L95.1996 100.344L84.8835 106.282L83.652 106.991C83.5101 107.068 83.1749 107.184 83.0782 107.32C83.1491 107.217 83.3941 107.442 83.0459 107.204C82.7235 106.985 82.3496 106.81 82.0079 106.617L71.4596 100.685L55.2504 91.5684L39.6344 82.7868L30.8528 77.8479L30.4337 77.6158V78.0349L35.8303 75.1657L48.9511 68.1895L65.3602 59.4659L80.6152 51.3549L90.2801 46.2161L91.3053 45.6745C91.3633 45.6423 91.5245 45.5972 91.5567 45.5391C91.6534 45.3908 91.6147 45.6874 91.3891 45.5005C91.8726 45.8938 92.6721 46.1194 93.2266 46.3838L104.503 51.8191L120.925 59.7367L136.509 67.2481L145.265 71.4713L145.684 71.6712C145.961 71.8066 146.206 71.3875 145.929 71.2521L139.733 68.2668L125.116 61.2196L108.288 53.1021L95.2576 46.8222L92.0661 45.2812C91.6663 45.0878 91.5051 45.0104 91.1054 45.2232C88.5973 46.545 86.1021 47.8861 83.594 49.2143L69.2932 56.8159L52.6907 65.6427L38.2804 73.3024L30.5562 77.4095L30.1951 77.6029C30.034 77.6867 30.0404 77.9318 30.1951 78.022L36.4751 81.5553L51.0466 89.7502L67.7394 99.1378L80.1703 106.127C81.0665 106.63 81.9498 107.178 82.8654 107.642C83.2716 107.849 83.465 107.642 83.839 107.429L92.079 102.684L106.799 94.2119L123.504 84.5921L137.883 76.3134L145.574 71.8839L145.923 71.6841C146.193 71.5293 145.948 71.1102 145.678 71.265V71.2908Z" fill="#2B63A8"/>
<path d="M145.31 71.1424L82.6719 107.204C83.6906 102.755 84.7158 98.306 85.7345 93.8507C84.7158 90.685 83.6906 87.5192 82.6719 84.3535L145.31 48.2922C145.684 50.3038 146.058 52.3155 146.432 54.3271C147.096 57.9055 147.096 61.5806 146.432 65.159C146.058 67.1513 145.684 69.1436 145.317 71.1359L145.31 71.1424Z" fill="#B2CD80"/>
<path d="M145.188 70.9362L138.946 74.5275L123.969 83.1543L105.922 93.5413L90.2606 102.555L85.1155 105.514L83.4971 106.443C83.2779 106.572 82.8137 106.727 82.6525 106.927C82.6332 106.952 82.5751 106.972 82.5493 106.985L82.9039 107.255C83.8066 103.322 84.7093 99.3893 85.6119 95.4563C85.7151 94.9985 85.8892 94.5214 85.9343 94.0572C85.9665 93.7219 85.8827 93.4962 85.7731 93.1609L84.8318 90.2531C84.187 88.2608 83.5487 86.2685 82.9039 84.2762L82.7943 84.547L89.0356 80.9557L104.013 72.3288L122.06 61.9418L137.721 52.9281L142.866 49.9686L144.485 49.0402C144.704 48.9177 145.175 48.7565 145.329 48.5566C145.349 48.5308 145.407 48.5115 145.433 48.4986L145.078 48.3567C145.768 52.0705 146.67 55.7972 146.69 59.5884C146.709 63.4699 145.787 67.2739 145.078 71.0716C145.02 71.3746 145.484 71.5035 145.542 71.2005C146.258 67.3577 147.193 63.515 147.173 59.5884C147.154 55.7521 146.245 51.9803 145.542 48.2278C145.51 48.0731 145.31 48.0086 145.188 48.0859L138.946 51.6772L123.969 60.3041L105.922 70.6911L90.2606 79.7049L85.1155 82.6643C84.3224 83.1221 83.3746 83.5154 82.6589 84.0828C82.6267 84.1085 82.588 84.1214 82.5558 84.1408C82.4655 84.1924 82.4139 84.3149 82.4462 84.4116C83.0393 86.2491 83.6325 88.0867 84.2257 89.9243L85.1155 92.6838C85.3153 93.2963 85.483 93.7541 85.3669 94.3989C85.2831 94.8695 85.1542 95.3338 85.0445 95.798C84.1806 99.5763 83.3101 103.355 82.4462 107.133C82.401 107.333 82.6138 107.513 82.8008 107.404L89.042 103.812L104.02 95.1855L122.067 84.7984L137.728 75.7847L142.873 72.8253C143.659 72.374 144.627 71.9807 145.329 71.4068C145.362 71.381 145.4 71.3681 145.433 71.3488C145.703 71.1941 145.458 70.775 145.188 70.9297V70.9362Z" fill="#2B63A8"/>
<path d="M145.31 47.9956L82.6463 84.5534L29.8213 54.3336L91.0088 21.812L145.31 47.9956Z" fill="#B2CD80"/>
<path d="M145.188 47.7829L139.843 50.9035L126.78 58.5246L110.248 68.1701L94.7033 77.2419L84.4001 83.251L83.1428 83.986C83.001 84.0699 82.6528 84.1859 82.5561 84.3278C82.627 84.2246 82.8784 84.4503 82.5367 84.2117C82.2143 83.986 81.8404 83.8119 81.4922 83.6121L70.8989 77.5513L54.7541 68.312L39.1897 59.4079L30.363 54.353L29.9503 54.1144V54.5335L35.3469 51.6643L48.4677 44.6881L64.8768 35.9645L80.1318 27.8534L89.7967 22.7147L90.8219 22.1731C90.8799 22.1409 91.0411 22.0958 91.0733 22.0377C91.17 21.8894 91.1313 22.186 90.9057 21.9991C91.3892 22.3924 92.1888 22.618 92.7432 22.8824L104.02 28.3177L120.442 36.2353L136.026 43.7467L144.782 47.9699L145.201 48.1698C145.478 48.3052 145.723 47.8861 145.446 47.7507L139.25 44.7654L124.633 37.7182L107.805 29.6007L94.7742 23.3208L91.5827 21.7798C91.1829 21.5864 91.0217 21.509 90.622 21.7218C88.1139 23.0436 85.6187 24.3847 83.1106 25.7129L68.8098 33.3145L52.2073 42.1413L37.797 49.801L30.0728 53.9081L29.7117 54.1015C29.5506 54.1853 29.557 54.4304 29.7117 54.5206L34.9472 57.5187L47.5973 64.7529L62.8329 73.47L76.0118 81.0073L80.3768 83.5025C81.028 83.8764 81.7308 84.418 82.44 84.6824C82.4723 84.6953 82.5045 84.7211 82.5367 84.734C82.6141 84.7791 82.7044 84.7791 82.7817 84.734L89.0165 81.0975L103.988 72.3611L122.099 61.7935L137.747 52.6637L142.899 49.6591C143.679 49.2078 144.633 48.8081 145.336 48.2342C145.368 48.2084 145.407 48.1955 145.439 48.1762C145.71 48.0215 145.465 47.6024 145.194 47.7571L145.188 47.7829Z" fill="#2B63A8"/>
<path d="M32.0327 78.2734L82.6462 107.404C83.7616 105.469 86.5147 100.079 85.6121 93.09C85.122 89.2665 83.71 86.3458 82.6462 84.5534C65.7729 74.8433 48.906 65.1333 32.0327 55.4232V78.2734Z" fill="white"/>
<path d="M31.9102 78.4862L36.9264 81.3747L49.0479 88.351L63.6452 96.7522L76.2695 104.019L80.4411 106.417C81.073 106.778 81.75 107.32 82.4399 107.565C82.4721 107.578 82.4979 107.597 82.5237 107.616C82.6333 107.681 82.788 107.642 82.8525 107.532C84.6772 104.347 85.7926 100.75 85.9989 97.081C86.1472 94.4633 85.8119 91.8133 85.0318 89.3052C84.7094 88.2671 84.3032 87.2484 83.839 86.2684C83.4586 85.4753 83.1297 84.5533 82.356 84.1085C71.6466 77.9446 60.9436 71.7871 50.2342 65.6233C44.2122 62.1545 38.1837 58.6857 32.1617 55.2233C32.0005 55.1331 31.8006 55.2491 31.8006 55.4296V78.2798C31.8006 78.5893 32.2842 78.5893 32.2842 78.2798V55.4296L31.9231 55.636C42.2134 61.5548 52.5038 67.4802 62.7877 73.399C67.978 76.3843 73.1682 79.3759 78.3585 82.3612C79.6029 83.0768 80.8989 83.7474 82.111 84.5211C82.8847 85.0176 83.278 86.1781 83.652 86.997C84.7416 89.4213 85.38 92.0454 85.5218 94.7018C85.7539 99.0862 84.6191 103.477 82.4399 107.275L82.7687 107.191L77.7525 104.302L65.631 97.326L51.0337 88.9248L38.4094 81.6584L34.2378 79.2599C33.6059 78.8988 32.9289 78.3572 32.239 78.1122C32.2068 78.0993 32.181 78.08 32.1552 78.0606C31.8844 77.9059 31.6394 78.325 31.9102 78.4797V78.4862Z" fill="#2B63A8"/>
<path d="M31.9939 61.9163C32.3227 62.0323 32.9675 62.4127 33.3801 62.6384C34.4762 63.2251 35.5658 63.8248 36.649 64.4244C40.0147 66.2813 43.3803 68.1511 46.7395 70.0273C54.18 74.1796 61.614 78.3447 69.0416 82.5163C70.7245 83.4641 72.4073 84.4054 74.0901 85.3532C74.3609 85.5079 74.6059 85.0889 74.3351 84.9341C69.6542 82.3035 64.9732 79.6793 60.2923 77.0487C52.7809 72.8385 45.263 68.6218 37.7258 64.4631C36.4298 63.7474 35.1339 63.0317 33.8314 62.3289C33.2834 62.0323 32.716 61.6584 32.1293 61.4521C31.8327 61.3489 31.7102 61.8131 32.0003 61.9163H31.9939Z" fill="#2B63A8"/>
<path d="M34.6438 69.8529C34.9726 69.969 35.6174 70.3494 36.03 70.575C37.1261 71.1618 38.2157 71.7614 39.2989 72.361C42.6646 74.2179 46.0302 76.0877 49.3894 77.964C56.8299 82.1162 64.2639 86.2813 71.6916 90.4529C73.3744 91.4007 75.0572 92.3421 76.74 93.2899C77.0108 93.4446 77.2558 93.0255 76.985 92.8708C72.3041 90.2402 67.6231 87.616 62.9422 84.9854C55.4308 80.7751 47.9129 76.5584 40.3757 72.3997C39.0797 71.684 37.7838 70.9684 36.4813 70.2656C35.9333 69.969 35.3659 69.595 34.7792 69.3887C34.4826 69.2855 34.3601 69.7498 34.6502 69.8529H34.6438Z" fill="#2B63A8"/>
<path d="M32.1746 74.9726C32.5034 75.0887 33.1481 75.4691 33.5608 75.6947C34.6569 76.2815 35.7465 76.8811 36.8297 77.4807C40.1953 79.3376 43.561 81.2074 46.9202 83.0837C54.3607 87.2359 61.7947 91.401 69.2223 95.5726C70.9051 96.5204 72.5879 97.4618 74.2708 98.4095C74.5416 98.5643 74.7866 98.1452 74.5158 97.9905C69.8348 95.3598 65.1539 92.7357 60.473 90.1051C52.9615 85.8948 45.4437 81.6781 37.9064 77.5194C36.6105 76.8037 35.3145 76.088 34.0121 75.3853C33.4641 75.0887 32.8967 74.7147 32.31 74.5084C32.0134 74.4052 31.8909 74.8694 32.181 74.9726H32.1746Z" fill="#2B63A8"/>
<path d="M118.237 51.9416C118.185 56.0681 115.626 59.9044 111.39 62.0514C105.78 64.8948 97.1275 67.9767 86.1472 67.7317C75.7473 67.4996 67.6169 64.379 62.2654 61.5163C58.0552 59.2596 55.5342 55.3653 55.5857 51.2066C55.6309 47.3961 55.676 43.5856 55.7211 39.775C55.7985 33.1018 62.3686 27.7761 70.3894 27.8664L103.981 28.2597C112.002 28.3564 118.443 33.8368 118.366 40.5101L118.23 51.9287L118.237 51.9416Z" fill="#273738"/>
<path d="M117.792 51.8449C115.355 54.05 103.659 64.1598 85.87 63.7342C68.8097 63.3216 57.8875 53.4955 55.3794 51.1099C55.5212 39.3495 55.6566 27.5956 55.7985 15.8352L118.205 16.5702L117.785 51.8449H117.792Z" fill="#4F5559"/>
<path d="M117.618 51.6773C109.114 59.3629 97.5983 63.7085 86.1474 63.4957C78.7326 63.3603 71.4404 61.3487 64.9542 57.7639C62.7169 56.5259 60.5698 55.1139 58.5582 53.5278C57.8876 52.9991 57.2364 52.4575 56.5981 51.8901C56.3725 51.6902 56.1468 51.4904 55.9276 51.284C55.8438 51.2067 55.6955 51.11 55.6374 51.0132C55.4698 50.7102 55.6374 49.872 55.6374 49.4981C55.7728 38.2728 55.9018 27.0476 56.0372 15.8288L55.7922 16.0738L62.0076 16.1448L76.9273 16.3188L94.8967 16.5316L110.506 16.7186L115.639 16.7766L117.25 16.796C117.444 16.796 117.915 16.8927 118.095 16.8089C118.121 16.796 118.172 16.8089 118.205 16.8089L117.96 16.5639L117.818 28.5048L117.592 47.4542L117.541 51.8385C117.541 52.148 118.018 52.148 118.024 51.8385L118.166 39.8976L118.392 20.9482L118.443 16.5639C118.443 16.4349 118.334 16.3253 118.198 16.3188L111.983 16.2479L97.0631 16.0738L79.0937 15.8611L63.4841 15.6741L58.3519 15.6161C57.5653 15.6096 56.6691 15.4678 55.8889 15.5838C55.8567 15.5838 55.818 15.5838 55.7793 15.5838C55.6503 15.5838 55.5407 15.6934 55.5343 15.8288C55.4118 26.1965 55.2893 36.5642 55.1668 46.9319L55.1281 50.4588C55.1216 51.1293 55.1281 51.2131 55.5665 51.6193C56.1146 52.1287 56.6755 52.6187 57.2493 53.0958C59.0418 54.5852 60.9502 55.9456 62.9425 57.1578C68.9775 60.8329 75.8119 63.154 82.8591 63.7923C90.6413 64.4951 98.5074 63.1347 105.638 59.9496C110.107 57.9573 114.31 55.288 117.947 52.0062C118.179 51.7998 117.837 51.4581 117.605 51.6645L117.618 51.6773Z" fill="#2B63A8"/>
<path d="M85.8379 6.38281L56.5466 18.7622L55.2119 32.3021L89.3002 45.2488L118.224 31.6186L116.98 18.8911L85.8379 6.38281Z" fill="#231F20"/>
<path d="M37.236 47.1186C36.1399 39.0011 36.7266 30.7224 38.9317 22.837C39.0155 22.534 38.5513 22.4115 38.4675 22.7081C36.2366 30.6837 35.6692 39.0462 36.7718 47.2476C36.8105 47.5571 37.2811 47.4217 37.236 47.1186Z" fill="#FCBC00"/>
<path d="M85.3536 2.77905L38.5571 22.5473L88.816 41.6386L131.75 21.4061L85.3536 2.77905Z" fill="#4F5559"/>
<path d="M85.2316 2.56633L69.3577 9.27181L44.2315 19.891L38.4415 22.341C38.2288 22.4313 38.3319 22.7214 38.4996 22.7859L53.9995 28.6726L80.2476 38.6405L87.8944 41.5419C88.2168 41.6644 88.6101 41.9094 88.9583 41.8385C89.4548 41.7353 90.0157 41.342 90.4735 41.1228L112.453 30.7616L131.545 21.7608L131.88 21.5996C132.093 21.5029 131.996 21.2256 131.822 21.1547L116.122 14.849L91.1247 4.81008L85.4315 2.5212C85.1413 2.40514 85.0188 2.87581 85.3025 2.98542L101.002 9.29115L126 19.33L131.693 21.6189L131.635 21.174L115.509 28.7757L91.9113 39.8978L89.1969 41.1744C89.0421 41.2453 88.8809 41.3485 88.7197 41.4001C88.9583 41.3227 88.8745 41.4065 88.6811 41.3034C88.0363 40.9552 87.2561 40.7618 86.5727 40.5039L82.5816 38.9887L57.1331 29.3238L38.938 22.412L38.6285 22.2959L38.6866 22.7408L54.5605 16.0353L79.6867 5.4355L85.4766 2.98542C85.7603 2.86292 85.5153 2.45027 85.2316 2.56633Z" fill="#2B63A8"/>
<path d="M36.1011 48.6663L39.0283 48.1054L36.5137 43.5018L36.1011 48.6663Z" fill="#4F5559"/>
<path d="M36.1655 48.8983L39.0927 48.3374C39.2538 48.3051 39.3054 48.1117 39.2345 47.9828L37.0423 43.9595L36.7264 43.3792C36.6039 43.1535 36.2944 43.276 36.2751 43.5017L35.9076 48.015L35.856 48.6662C35.8302 48.9757 36.3138 48.9757 36.3395 48.6662L36.7071 44.1529L36.7586 43.5017L36.3073 43.6242L38.4995 47.6475L38.8154 48.2278L38.9573 47.8731L36.0301 48.4341C35.727 48.4921 35.856 48.9563 36.159 48.8983H36.1655Z" fill="#2B63A8"/>
</svg>
