<svg width="260" height="99" viewBox="0 0 260 99" fill="none" xmlns="http://www.w3.org/2000/svg">
<path d="M232.931 58.1426C237.861 58.641 243.054 59.1478 247.818 57.4323C250.95 56.3024 253.625 54.1798 255.594 51.5089C259.764 45.868 260.878 38.0006 258.257 31.4749C255.366 24.2763 248.811 19.0964 241.567 16.708C232.914 13.8543 223.485 15.2458 215.235 18.7434C206.305 22.5317 198.728 28.7541 191.812 35.4418C184.235 42.7692 177.032 50.4953 169.693 58.0553C162.527 65.4367 155.515 73.0175 148.064 80.1164C141.098 86.7542 133.297 92.8895 124.038 95.9135C115.414 98.7256 105.183 98.9541 97.3368 93.8365C90.9523 89.6702 86.3665 82.0729 86.7652 74.3218C86.8608 72.4152 87.2845 70.5543 87.9989 68.7847C88.0737 68.5978 87.7746 68.5189 87.6998 68.7016C84.95 75.5139 87.002 83.2152 91.43 88.8229C96.5891 95.3652 104.606 98.3559 112.806 98.1981C132.237 97.8201 146.269 82.6378 158.834 69.6944C166.378 61.9226 173.925 54.1466 181.469 46.3747C188.41 39.226 195.268 31.8529 203.347 25.9586C211.123 20.2803 220.278 15.9811 230.023 15.5158C238.468 15.1129 247.079 17.9874 253.044 24.1101C255.81 26.9514 257.953 30.4987 258.855 34.3826C259.69 37.9757 259.474 41.793 258.373 45.3072C257.293 48.7632 255.324 51.9824 252.545 54.3335C249.06 57.2869 244.632 58.2921 240.142 58.3004C237.728 58.3046 235.327 58.072 232.931 57.8269C232.731 57.8061 232.731 58.1176 232.931 58.1384V58.1426Z" fill="#2B63A8"/>
<path d="M31.7307 17.3556C27.6226 15.9226 23.3898 14.4563 18.9868 14.4687C15.726 14.477 12.5815 15.4324 9.86076 17.2269C4.69753 20.633 1.32876 26.5938 0.747225 32.7166C0.119995 39.3129 3.01938 45.8012 7.46399 50.5615C12.3988 55.8493 19.0864 59.0436 26.2103 60.0613C43.3615 62.5162 59.1918 53.6727 73.1653 44.8749C81.0369 39.9193 88.8793 34.9222 96.7343 29.9418C104.307 25.1441 111.796 20.1595 119.555 15.6733C126.742 11.5195 134.43 7.85996 142.68 6.48503C150.082 5.25134 158.033 5.79965 164.832 9.16011C166.481 9.97426 168.043 10.9587 169.501 12.0803C169.659 12.2007 169.817 11.9307 169.659 11.8103C164.014 7.44873 156.903 5.57949 149.841 5.57534C142.215 5.56703 134.837 7.74365 127.959 10.9172C120.436 14.3856 113.483 18.959 106.5 23.3829C98.7489 28.2927 91.0019 33.2026 83.2509 38.1166C75.9318 42.7564 68.6875 47.5956 61.0403 51.6872C53.393 55.7787 45.6544 58.8525 37.2304 59.8328C29.3506 60.7508 21.0637 59.7082 14.1766 55.5752C8.32384 52.061 3.49707 46.4907 1.69846 39.8238C-0.100159 33.1569 1.58215 26.3986 5.84815 21.2603C7.90014 18.7887 10.5503 16.7783 13.5868 15.69C17.4581 14.3026 21.612 14.6847 25.5249 15.7024C27.5977 16.2424 29.6247 16.9444 31.6435 17.6506C31.8346 17.717 31.9135 17.4179 31.7266 17.3515L31.7307 17.3556Z" fill="#2B63A8"/>
<path d="M125.653 68.4936C143.208 68.4936 157.439 54.2629 157.439 36.7084C157.439 19.1539 143.208 4.92322 125.653 4.92322C108.099 4.92322 93.8682 19.1539 93.8682 36.7084C93.8682 54.2629 108.099 68.4936 125.653 68.4936Z" fill="#2A4850"/>
<path d="M125.653 63.7168C143.208 63.7168 157.439 49.4861 157.439 31.9316C157.439 14.3771 143.208 0.146362 125.653 0.146362C108.099 0.146362 93.8682 14.3771 93.8682 31.9316C93.8682 49.4861 108.099 63.7168 125.653 63.7168Z" fill="#CCE7A0"/>
<path d="M157.285 31.9318C157.268 38.4699 155.245 44.8918 151.461 50.2295C147.677 55.5672 142.48 59.4801 136.474 61.665C130.467 63.8499 123.331 64.1698 116.955 62.3504C110.841 60.6058 105.333 56.9836 101.274 52.0862C97.2159 47.1889 94.6156 40.8626 94.1172 34.4033C93.6187 27.9441 95.1681 21.2066 98.5742 15.5781C101.98 9.94965 106.786 5.76258 112.569 3.12904C118.621 0.370888 125.52 -0.385111 132.033 0.948272C138.289 2.23181 144.075 5.44688 148.491 10.0535C152.94 14.6933 155.906 20.6624 156.903 27.0178C157.156 28.6461 157.276 30.291 157.281 31.9359C157.281 32.1353 157.592 32.1353 157.592 31.9359C157.575 25.3023 155.511 18.7683 151.644 13.3724C147.926 8.18011 142.671 4.15919 136.682 1.9535C130.368 -0.37265 123.335 -0.626034 116.868 1.21827C110.683 2.98366 105.1 6.65565 101.008 11.6153C96.9169 16.575 94.3041 22.9429 93.8056 29.4686C93.3072 35.9943 94.869 42.7775 98.3042 48.4516C101.644 53.9679 106.658 58.425 112.535 61.071C118.596 63.8001 125.462 64.5602 131.975 63.2518C138.489 61.9433 144.267 58.695 148.757 53.9887C153.231 49.299 156.221 43.2759 157.21 36.8666C157.463 35.2341 157.584 33.585 157.588 31.9359C157.588 31.7366 157.276 31.7366 157.276 31.9359L157.285 31.9318Z" fill="#2B63A8"/>
<path d="M64.2303 71.7177C77.5705 71.7177 88.3849 59.0603 88.3849 43.4466C88.3849 27.8329 77.5705 15.1755 64.2303 15.1755C50.8901 15.1755 40.0757 27.8329 40.0757 43.4466C40.0757 59.0603 50.8901 71.7177 64.2303 71.7177Z" fill="#2A4850"/>
<path d="M59.9188 71.7177C73.259 71.7177 84.0734 59.0603 84.0734 43.4466C84.0734 27.8329 73.259 15.1755 59.9188 15.1755C46.5785 15.1755 35.7642 27.8329 35.7642 43.4466C35.7642 59.0603 46.5785 71.7177 59.9188 71.7177Z" fill="#A5C661"/>
<path d="M83.9157 43.4466C83.9032 49.1249 82.4619 54.7949 79.5168 59.6715C76.8542 64.0788 72.962 67.784 68.2059 69.8401C63.4497 71.8963 58.1909 72.104 53.3517 70.4964C48.5125 68.8889 44.3171 65.4869 41.3803 61.2998C38.1611 56.714 36.3583 51.2101 35.9928 45.6315C35.6148 39.8743 36.728 34.0091 39.3906 28.8749C41.7708 24.2849 45.4013 20.2931 49.9871 17.8423C54.4857 15.4414 59.7611 14.7062 64.7291 15.8942C69.6971 17.0822 74.0296 20.0688 77.2363 23.9817C80.7588 28.2768 82.9105 33.6228 83.6332 39.1142C83.8202 40.5514 83.9115 41.9969 83.9157 43.4425C83.9157 43.6418 84.2272 43.6418 84.2272 43.4425C84.2148 37.6645 82.736 31.8865 79.7162 26.9392C77.0079 22.5029 73.0576 18.7769 68.2474 16.7291C63.4373 14.6812 58.1536 14.4735 53.2728 16.0935C48.3505 17.726 44.1759 21.1155 41.1934 25.3192C37.9077 29.9508 36.0717 35.5294 35.6896 41.1786C35.3074 46.8278 36.4248 52.9672 39.1248 58.1678C41.5382 62.8201 45.231 66.8743 49.8916 69.3417C54.5522 71.8091 59.7403 72.4861 64.754 71.3064C69.8009 70.1184 74.2497 67.0654 77.5063 63.0735C81.0288 58.7577 83.1888 53.4283 83.9323 47.9245C84.1317 46.4374 84.2314 44.942 84.2355 43.4466C84.2355 43.2472 83.924 43.2472 83.924 43.4466H83.9157Z" fill="#2B63A8"/>
<path d="M188.439 71.7177C201.779 71.7177 212.593 59.0603 212.593 43.4466C212.593 27.8329 201.779 15.1755 188.439 15.1755C175.099 15.1755 164.284 27.8329 164.284 43.4466C164.284 59.0603 175.099 71.7177 188.439 71.7177Z" fill="#2A4850"/>
<path d="M192.755 71.7177C206.095 71.7177 216.909 59.0603 216.909 43.4466C216.909 27.8329 206.095 15.1755 192.755 15.1755C179.414 15.1755 168.6 27.8329 168.6 43.4466C168.6 59.0603 179.414 71.7177 192.755 71.7177Z" fill="#A5C661"/>
<path d="M168.446 43.4462C168.459 49.2242 169.938 55.0022 172.957 59.9494C175.666 64.3857 179.616 68.1117 184.426 70.1596C189.236 72.2074 194.52 72.4151 199.401 70.7951C204.323 69.1627 208.498 65.7731 211.48 61.5694C214.766 56.9379 216.602 51.3593 216.984 45.7101C217.379 39.8781 216.249 33.9215 213.549 28.7208C211.135 24.0685 207.443 20.0144 202.782 17.547C198.121 15.0796 192.933 14.4025 187.92 15.5822C182.873 16.7702 178.424 19.8233 175.167 23.8151C171.645 28.131 169.485 33.4604 168.741 38.9642C168.542 40.4513 168.442 41.9467 168.438 43.4421C168.438 43.6414 168.75 43.6414 168.75 43.4421C168.762 37.7638 170.203 32.0938 173.148 27.2171C175.811 22.8099 179.703 19.1047 184.459 17.0485C189.216 14.9924 194.474 14.7847 199.314 16.3922C204.153 17.9998 208.348 21.4018 211.285 25.5888C214.504 30.1747 216.307 35.6785 216.672 41.2571C217.05 47.0144 215.937 52.8796 213.275 58.0137C210.894 62.6037 207.264 66.5956 202.678 69.0464C198.18 71.4473 192.904 72.1825 187.936 70.9945C182.968 69.8065 178.636 66.8199 175.429 62.907C171.906 58.6119 169.755 53.2659 169.032 47.7745C168.845 46.3373 168.754 44.8918 168.75 43.4462C168.75 43.2468 168.438 43.2468 168.438 43.4462H168.446Z" fill="#2B63A8"/>
<path d="M203.746 36.651C203.762 31.2344 199.197 26.877 193.697 27.2384C188.975 27.5499 185.174 31.4254 184.945 36.1567C184.841 38.2544 185.431 40.2108 186.499 41.8184C188.019 44.1113 189.078 46.6784 189.436 49.4074L189.448 49.4947C189.473 49.6733 189.623 49.8062 189.805 49.8104L199.077 49.8353C199.259 49.8353 199.409 49.7024 199.434 49.5237L199.496 49.0585C199.849 46.4998 200.705 44.0116 202.146 41.8682C203.152 40.377 203.737 38.5825 203.741 36.651H203.746Z" fill="#F7D379"/>
<path d="M203.899 36.6504C203.874 31.8652 200.269 27.7155 195.496 27.134C190.723 26.5524 185.876 29.9586 184.945 34.8227C184.696 36.1353 184.721 37.4978 185.024 38.8021C185.369 40.2767 186.121 41.4523 186.885 42.7316C187.716 44.1232 188.381 45.6144 188.817 47.1763C189.029 47.9281 189.132 48.6883 189.282 49.4526C189.34 49.7516 189.49 49.9303 189.805 49.9676C190.154 50.005 190.528 49.9676 190.881 49.9676L193.203 49.9759L198.126 49.9884C198.433 49.9884 198.761 50.0216 199.068 49.9884C199.488 49.9427 199.567 49.6395 199.617 49.2781C199.708 48.6218 199.82 47.9696 199.97 47.3216C200.344 45.7307 200.934 44.1938 201.752 42.7815C202.13 42.1293 202.578 41.5229 202.911 40.8458C203.243 40.1687 203.48 39.5041 203.646 38.7938C203.812 38.0835 203.887 37.369 203.895 36.6463C203.895 36.4469 203.588 36.4469 203.584 36.6463C203.563 38.1915 203.193 39.7076 202.446 41.066C201.777 42.2789 201.004 43.3796 200.481 44.6756C199.957 45.9716 199.575 47.413 199.363 48.8336C199.326 49.0953 199.363 49.573 199.052 49.6769C198.956 49.7059 198.798 49.6769 198.699 49.6769L190.462 49.6561C190.088 49.6561 189.739 49.7683 189.577 49.3653C189.456 49.0621 189.465 48.6301 189.402 48.3061C189.332 47.9572 189.253 47.6083 189.157 47.2635C188.975 46.5781 188.746 45.901 188.476 45.2406C187.953 43.9529 187.272 42.769 186.532 41.5976C185.793 40.4263 185.269 39.0015 185.128 37.5643C184.626 32.5713 188.385 27.9066 193.398 27.4123C198.815 26.8806 203.555 31.2255 203.584 36.6463C203.584 36.8456 203.895 36.8456 203.895 36.6463L203.899 36.6504Z" fill="#2B63A8"/>
<path d="M197.316 55.8571L191.529 55.8405C190.993 55.8405 190.537 55.45 190.445 54.9225L189.918 51.7988C189.805 51.1259 190.325 50.5153 191.006 50.5153L197.86 50.536C198.541 50.536 199.06 51.155 198.94 51.8237L198.396 54.9433C198.304 55.4708 197.843 55.8571 197.307 55.8571H197.316Z" fill="white"/>
<path d="M197.315 55.6993L192.734 55.6868C192.082 55.6868 191.068 55.8654 190.698 55.1842C190.557 54.9266 190.545 54.557 190.495 54.2703L190.254 52.8373C190.117 52.0273 189.751 50.7188 191.035 50.669C191.629 50.644 192.231 50.669 192.829 50.6731C194.478 50.6773 196.14 50.6274 197.793 50.6856C198.42 50.7063 198.873 51.1591 198.794 51.8071C198.748 52.1893 198.661 52.5673 198.595 52.9453L198.321 54.5237C198.221 55.1094 198.034 55.6619 197.32 55.6993C197.12 55.7117 197.12 56.0233 197.32 56.0108C198.52 55.9485 198.586 54.8228 198.744 53.9048L199.027 52.2723C199.089 51.9068 199.176 51.5454 199.035 51.184C198.707 50.3408 197.884 50.3782 197.141 50.374L193.988 50.3657L191.259 50.3574C190.374 50.3574 189.635 50.8933 189.776 51.8653C189.909 52.775 190.079 53.6763 190.233 54.5819C190.3 54.9765 190.358 55.3503 190.665 55.6453C190.952 55.9153 191.305 55.9859 191.683 55.99C193.56 56.0108 195.434 55.9983 197.311 56.0067C197.511 56.0067 197.511 55.6951 197.311 55.6951L197.315 55.6993Z" fill="#2B63A8"/>
<path d="M190.142 52.8879C190.449 52.8754 190.769 52.7757 191.072 52.7176C191.754 52.5805 192.435 52.4392 193.112 52.3022C194.62 51.9906 196.128 51.6749 197.631 51.3551C197.984 51.2803 198.338 51.2056 198.691 51.1308C198.886 51.0892 198.803 50.7902 198.608 50.8317C196.173 51.3468 193.739 51.8619 191.301 52.352C190.948 52.4226 190.433 52.5639 190.138 52.5763C189.938 52.5846 189.938 52.8962 190.138 52.8879H190.142Z" fill="#97BBC0"/>
<path d="M190.411 54.9064C190.81 54.8898 191.221 54.761 191.612 54.6821C192.463 54.5118 193.315 54.3331 194.167 54.1545C195.699 53.8347 197.232 53.5148 198.765 53.1908C198.96 53.1493 198.877 52.8502 198.682 52.8918C197.178 53.2075 195.679 53.5232 194.175 53.8388C193.336 54.0133 192.501 54.1878 191.662 54.3581C191.28 54.437 190.748 54.5865 190.416 54.599C190.216 54.6073 190.216 54.9188 190.416 54.9105L190.411 54.9064Z" fill="#97BBC0"/>
<path d="M197.365 37.7175L195.309 37.7383C195.309 37.7383 192.281 42.6606 191.354 44.3761C191.404 44.3803 191.417 44.3595 191.433 44.3429C192.875 42.9638 194.316 41.5848 195.758 40.2015C196.381 39.6034 197.008 39.0052 197.631 38.4071C197.822 38.2243 197.855 37.9834 197.689 37.8422C197.606 37.7715 197.477 37.7258 197.365 37.7134V37.7175Z" fill="white"/>
<path d="M197.365 37.5639L195.617 37.5805C195.459 37.5805 195.284 37.5431 195.172 37.6636C195.093 37.7467 195.039 37.8796 194.981 37.9751C194.15 39.3334 193.324 40.6917 192.51 42.0625C192.069 42.8019 191.629 43.5413 191.218 44.3014C191.147 44.4302 191.263 44.5507 191.392 44.5299C191.521 44.5091 191.596 44.4053 191.687 44.318C191.862 44.1477 192.04 43.9816 192.215 43.8113C192.568 43.4748 192.921 43.1383 193.27 42.7977C193.976 42.1248 194.678 41.4477 195.384 40.7748C196.09 40.1019 196.767 39.4539 197.457 38.7934C197.664 38.594 197.968 38.378 197.947 38.054C197.926 37.7633 197.664 37.6137 197.403 37.5722C197.208 37.539 197.12 37.8422 197.32 37.8713C197.374 37.8796 197.502 37.892 197.536 37.9336L197.515 38.3033L197.374 38.4362C197.249 38.5567 197.124 38.6771 197 38.7934C196.734 39.0468 196.468 39.3002 196.202 39.5536C195.646 40.0853 195.089 40.617 194.537 41.1487C193.984 41.6803 193.448 42.1913 192.904 42.7105C192.63 42.9722 192.36 43.2339 192.086 43.4914L191.7 43.8611C191.616 43.94 191.413 44.2059 191.305 44.2225L191.479 44.451C192.584 42.4073 193.83 40.43 195.043 38.4487C195.172 38.2368 195.301 38.025 195.434 37.8131L195.301 37.892L197.357 37.8713C197.556 37.8713 197.556 37.5556 197.357 37.5597L197.365 37.5639Z" fill="#2B63A8"/>
<path d="M198.026 33.1486C197.934 32.9783 197.777 32.9534 197.602 32.9534C196.991 32.9534 196.381 32.9575 195.77 32.9534C195.525 32.9534 195.363 33.0531 195.251 33.2691C194.454 34.7894 193.656 36.3055 192.858 37.8217C192.688 38.1457 192.817 38.3575 193.182 38.3575C193.652 38.3575 194.724 38.3658 194.811 38.37L195.957 36.6295C196.011 36.5381 196.044 36.4841 196.078 36.4343C196.701 35.4914 197.328 34.5484 197.951 33.6097C198.047 33.4643 198.109 33.3189 198.017 33.1486H198.026Z" fill="white"/>
<path d="M198.163 33.074C197.997 32.829 197.777 32.804 197.498 32.804C197.05 32.804 196.601 32.804 196.153 32.804C195.87 32.804 195.567 32.7583 195.33 32.9411C195.048 33.1571 194.911 33.6016 194.749 33.9048C194.342 34.6816 193.934 35.4542 193.527 36.2268C193.345 36.5757 193.162 36.9205 192.979 37.2694C192.846 37.5228 192.58 37.8551 192.643 38.1625C192.738 38.6402 193.453 38.5156 193.802 38.5197C194.038 38.5197 194.279 38.5197 194.516 38.5239C194.666 38.5239 194.844 38.5696 194.952 38.4533C195.122 38.2746 195.243 38.0088 195.38 37.8053L196.011 36.8499C196.356 36.3265 196.697 35.8031 197.042 35.2797C197.295 34.8976 197.548 34.5154 197.802 34.1333C198.001 33.83 198.333 33.4977 198.18 33.1114C198.105 32.9286 197.806 33.0076 197.881 33.1945C197.972 33.4188 197.773 33.6223 197.652 33.801C197.532 33.9796 197.415 34.154 197.299 34.3326C197.066 34.6857 196.83 35.0388 196.597 35.3919C196.31 35.8239 196.028 36.2642 195.741 36.6962L194.686 38.2996L194.819 38.2206C194.329 38.1999 193.839 38.2123 193.349 38.2082C193.212 38.2082 192.983 38.2456 192.946 38.0753C192.913 37.9216 193.178 37.5643 193.249 37.4314C193.473 37.0036 193.698 36.5799 193.922 36.152C194.371 35.3005 194.819 34.4448 195.268 33.5891C195.363 33.4063 195.442 33.1737 195.667 33.1197C195.891 33.0657 196.186 33.1114 196.423 33.1156C196.672 33.1156 196.925 33.1156 197.174 33.1156C197.382 33.1156 197.76 33.0325 197.893 33.2319C198.005 33.398 198.275 33.2402 198.163 33.074Z" fill="#2B63A8"/>
<path d="M31.5063 19.8896C32.7726 19.8896 33.7992 18.863 33.7992 17.5966C33.7992 16.3303 32.7726 15.3037 31.5063 15.3037C30.24 15.3037 29.2134 16.3303 29.2134 17.5966C29.2134 18.863 30.24 19.8896 31.5063 19.8896Z" fill="white"/>
<path d="M33.5377 18.257C33.2553 19.1002 32.4743 19.7067 31.5771 19.7316C30.6799 19.7565 29.8325 19.2041 29.5085 18.3608C29.1845 17.5176 29.4337 16.5539 30.1108 15.9682C30.7879 15.3825 31.7724 15.2953 32.545 15.7273C33.438 16.2258 33.8327 17.2892 33.5336 18.257C33.4754 18.4481 33.7745 18.5312 33.8327 18.3401C34.1317 17.3598 33.8036 16.2798 32.9894 15.6525C32.1753 15.0253 31.033 14.9838 30.1731 15.5362C29.3133 16.0887 28.8771 17.1645 29.118 18.1698C29.359 19.175 30.2064 19.9061 31.2157 20.0265C32.3788 20.1678 33.4671 19.4367 33.8368 18.3401C33.8991 18.149 33.6 18.0659 33.5377 18.257Z" fill="#2B63A8"/>
<path d="M87.853 71.036C89.1193 71.036 90.1459 70.0095 90.1459 68.7431C90.1459 67.4768 89.1193 66.4502 87.853 66.4502C86.5866 66.4502 85.5601 67.4768 85.5601 68.7431C85.5601 70.0095 86.5866 71.036 87.853 71.036Z" fill="white"/>
<path d="M89.8844 69.4076C89.602 70.2509 88.821 70.8573 87.9238 70.8823C87.0266 70.9072 86.1792 70.3547 85.8552 69.5115C85.5312 68.6683 85.7804 67.7046 86.4575 67.1189C87.1346 66.5332 88.119 66.4459 88.8916 66.8779C89.7847 67.3764 90.1793 68.4398 89.8803 69.4076C89.8221 69.5987 90.1212 69.6818 90.1793 69.4907C90.4784 68.5104 90.1503 67.4304 89.3361 66.8032C88.522 66.1759 87.3796 66.1344 86.5198 66.6869C85.66 67.2393 85.2238 68.3152 85.4647 69.3204C85.7056 70.3256 86.553 71.0567 87.5624 71.1772C88.7255 71.3184 89.8138 70.5873 90.1835 69.4907C90.2458 69.2996 89.9467 69.2166 89.8844 69.4076Z" fill="#2B63A8"/>
<path d="M138.285 16.5208L137.064 20.3922L134.148 29.6345L130.621 40.8125L127.556 50.5242L126.546 53.7226C126.397 54.2003 126.131 54.7403 126.069 55.2388C126.069 55.2596 126.056 55.2845 126.048 55.3053C125.986 55.4963 126.289 55.5794 126.347 55.3883L127.568 51.517L130.484 42.2747L134.011 31.0967L137.076 21.385L138.086 18.1865C138.235 17.7088 138.501 17.1688 138.563 16.6704C138.563 16.6496 138.576 16.6247 138.584 16.6039C138.647 16.4128 138.343 16.3297 138.285 16.5208Z" fill="#2B63A8"/>
<path d="M125.467 19.0675L125.064 18.9304L117.915 16.4631C117.105 16.1848 116.224 16.6417 115.988 17.4641L113.757 25.2651C113.553 25.9754 113.898 26.7231 114.567 27.0346L123.415 31.1261L127.074 19.5369L125.462 19.0675H125.467Z" fill="#D65039"/>
<path d="M125.508 18.9138L119.668 16.8992C118.961 16.6541 118.01 16.1432 117.238 16.2346C116.137 16.3633 115.871 17.3063 115.618 18.1952L113.686 24.9576C113.42 25.8798 113.653 26.7604 114.575 27.2007C115.364 27.5787 116.162 27.9359 116.955 28.3015L123.34 31.2549C123.431 31.2964 123.535 31.2632 123.568 31.1635L126.766 21.0281L127.228 19.5743C127.252 19.4912 127.198 19.404 127.12 19.3832L125.508 18.9138C125.317 18.8598 125.234 19.1589 125.425 19.2129L127.036 19.6823L126.928 19.4912L123.73 29.6266L123.269 31.0804L123.497 30.989L118.367 28.6172L115.327 27.2132C114.5 26.831 113.636 26.4032 113.914 25.2733C114.417 23.2463 115.065 21.2483 115.638 19.242L116.016 17.921C116.112 17.5887 116.182 17.2481 116.423 16.9823C117.171 16.1515 118.284 16.758 119.136 17.0529L125.421 19.2212C125.612 19.2876 125.691 18.9844 125.504 18.9221L125.508 18.9138Z" fill="#2B63A8"/>
<path d="M138.435 16.5622C138.435 16.8862 133.541 31.6615 133.541 31.6615L121.271 27.6779L125.471 14.7885C125.711 14.045 126.488 13.613 127.248 13.7999L138.435 16.5622Z" fill="#DC6F5D"/>
<path d="M138.277 16.5624C138.252 16.982 137.924 17.738 137.774 18.2157C137.392 19.4244 137.002 20.6291 136.607 21.8337C135.739 24.4963 134.862 27.1589 133.986 29.8215C133.787 30.4197 133.591 31.022 133.392 31.6201L133.583 31.5121L122.821 28.0188L121.309 27.5286L121.417 27.7197L124.935 16.9197C125.143 16.2883 125.342 15.6486 125.554 15.0214C125.836 14.1906 126.505 13.796 127.369 13.9954C129.234 14.4232 131.091 14.9134 132.948 15.3703L138.389 16.712C138.584 16.7618 138.667 16.4586 138.472 16.4129L127.61 13.7337C126.717 13.5135 125.774 13.6672 125.367 14.6143C125.188 15.0338 125.072 15.4908 124.931 15.9228L122.783 22.5149L121.113 27.6366C121.088 27.7197 121.147 27.8028 121.221 27.8277L131.984 31.3211L133.496 31.8112C133.579 31.8361 133.662 31.778 133.687 31.7032C135.137 27.3292 136.586 22.9594 137.986 18.5688C138.136 18.0994 138.285 17.6341 138.426 17.1648C138.485 16.9737 138.576 16.7618 138.589 16.5624C138.601 16.3631 138.289 16.3631 138.277 16.5624Z" fill="#2B63A8"/>
<path d="M52.8535 37.3145L61.5766 35.0382L68.0442 37.2688L61.1072 51.0471L48.4131 42.4985L52.8535 37.3145Z" fill="#2B63A8"/>
<path d="M52.8948 37.4685L59.5451 35.7322L61.1194 35.321C61.2482 35.2877 61.3811 35.2545 61.5099 35.2171C61.6636 35.1756 61.5431 35.1964 61.5639 35.2005C61.9211 35.267 62.2908 35.4539 62.6356 35.5702L64.7167 36.2888L67.9982 37.4228L67.9068 37.1944L61.8298 49.2654L60.9741 50.9685L61.1859 50.9145L50.0744 43.4334L48.4918 42.3659L48.525 42.611L52.9654 37.4311C53.0942 37.2816 52.8741 37.0573 52.7453 37.211L48.3048 42.3908C48.2384 42.4697 48.2467 42.5777 48.3381 42.6359L59.4496 50.117L61.0322 51.1845C61.0987 51.2302 61.2108 51.2011 61.2441 51.1305L67.3211 39.0594L68.1768 37.3564C68.2225 37.2608 68.181 37.1611 68.0854 37.1279L65.2442 36.1476C64.0853 35.7488 62.9222 35.2504 61.7384 34.9388C61.5722 34.8931 61.4974 34.9056 61.3313 34.9513L60.0021 35.3002L55.7527 36.4093L52.8159 37.1777C52.6207 37.2276 52.7038 37.5308 52.899 37.4768L52.8948 37.4685Z" fill="#2B63A8"/>
<path d="M63.7068 35.7666L61.5883 35.0646H61.5842H61.58L52.8611 37.345V37.3409L52.8569 37.345L51.3989 39.0149L53.4385 39.5507V39.5466L62.1574 37.2703V37.2744L63.7068 35.7666Z" fill="#00DBFF"/>
<path d="M63.7235 35.7166L62.6643 35.3635L61.9457 35.1267C61.8667 35.1018 61.7878 35.0686 61.7047 35.0478C61.6798 35.0395 61.6591 35.0312 61.6341 35.0229C61.5843 35.0063 61.6341 35.0146 61.6383 35.0478C61.63 35.0187 61.6009 35.0063 61.576 35.0104H61.5967C61.5594 35.0021 61.522 35.0354 61.5344 35.0769L61.5718 35.0146L58.6184 35.7872L53.9371 37.0126L52.8529 37.2951L52.9152 37.3324C52.9069 37.295 52.8571 37.2826 52.828 37.3075L52.8446 37.2951C52.8155 37.3034 52.8031 37.3324 52.8072 37.3574C52.7947 37.3034 52.8197 37.3158 52.7615 37.3781C52.7034 37.4363 52.6535 37.5027 52.5995 37.5609L52.0927 38.1424L51.3617 38.9774C51.3368 39.0064 51.3451 39.0521 51.3866 39.0646L53.4261 39.6004C53.4635 39.6087 53.5009 39.5755 53.4884 39.5381L53.4511 39.5963L56.4044 38.8237L61.0858 37.5983L62.17 37.3158L62.1077 37.2784C62.116 37.32 62.1658 37.3324 62.1949 37.3075L63.7443 35.8038C63.7941 35.7581 63.7194 35.6834 63.6695 35.7291L62.1201 37.2327L62.2074 37.2577C62.1991 37.2244 62.17 37.212 62.1451 37.2161L59.1917 37.9887L54.5103 39.2141L53.4261 39.4966C53.3971 39.5049 53.3846 39.534 53.3888 39.5589L53.4511 39.5007L51.4115 38.9649L51.4364 39.0521L52.2506 38.1217L52.7449 37.5567C52.7823 37.5152 52.9277 37.3989 52.9111 37.3324L52.8737 37.3947C52.8737 37.3947 52.8944 37.3864 52.9028 37.3781L52.8155 37.3532C52.8238 37.3823 52.8529 37.3989 52.8778 37.3906L55.8312 36.618L60.5126 35.3926L61.5967 35.1101C61.6258 35.1018 61.6383 35.0727 61.6341 35.0478L61.5718 35.1101C61.5718 35.1101 61.5967 35.1101 61.6051 35.1101L61.5427 35.0727C61.5594 35.1392 61.738 35.1641 61.7837 35.1807L62.5147 35.4217L63.6944 35.8121C63.7567 35.8329 63.7858 35.7332 63.7235 35.7124V35.7166Z" fill="#2B63A8"/>
<path d="M51.3994 39.2753L53.3517 39.753L53.6591 43.209L48.8115 42.2785L51.3994 39.2753Z" fill="#00C1ED"/>
<path d="M51.3868 39.325L52.4336 39.5825L53.1231 39.7528C53.1688 39.7653 53.256 39.8068 53.3017 39.7985C53.3599 39.7902 53.3017 39.7736 53.3017 39.7694C53.3059 40.0851 53.3599 40.405 53.3848 40.7165L53.5219 42.2493L53.6091 43.2088L53.6756 43.159L49.4386 42.349L48.828 42.2327L48.8529 42.3199L51.4408 39.3125C51.4823 39.2627 51.4117 39.1879 51.366 39.2378L48.7782 42.2451C48.7533 42.2742 48.7616 42.3241 48.8031 42.3324L53.04 43.1424L53.6506 43.2587C53.6797 43.2628 53.7213 43.2462 53.7171 43.2088L53.4097 39.7528C53.4097 39.7321 53.3931 39.7071 53.3723 39.703L51.42 39.2253C51.3536 39.2087 51.3286 39.3084 51.3909 39.325H51.3868Z" fill="#2B63A8"/>
<path d="M63.8897 35.8369L62.3569 37.3531L63.8523 40.5723L67.7445 37.2243L63.8897 35.8369Z" fill="#00C1ED"/>
<path d="M63.8566 35.7992L62.3197 37.3154C62.3197 37.3154 62.3031 37.3569 62.3114 37.3777L63.8068 40.5969C63.8234 40.6301 63.8649 40.626 63.8899 40.6094L67.296 37.6809L67.7862 37.2614C67.8194 37.2323 67.7986 37.1866 67.7612 37.1742L63.9065 35.7868C63.8442 35.766 63.8151 35.8657 63.8774 35.8865L67.7322 37.2738L67.7072 37.1866L64.3011 40.1151L63.8109 40.5346L63.894 40.5471L62.868 38.3414L62.5814 37.7225C62.5357 37.6228 62.49 37.4483 62.4153 37.3652C62.3696 37.3154 62.4485 37.332 62.3945 37.386C62.4319 37.3486 62.4693 37.3154 62.5025 37.278L62.976 36.8128L63.9231 35.874C63.9688 35.8283 63.8982 35.7535 63.8483 35.7992H63.8566Z" fill="#2B63A8"/>
<path d="M63.5451 40.7431L53.9331 43.2478L53.605 39.7254L62.1494 37.4989L63.5451 40.7431Z" fill="#00C1ED"/>
<path d="M63.5328 40.6926L60.2844 41.54L55.1088 42.89L53.9208 43.1974L53.9872 43.2472L53.6715 39.8784C53.6674 39.8286 53.6632 39.7787 53.6591 39.7289C53.6674 39.8286 53.5843 39.7538 53.6591 39.7621C53.7546 39.7746 53.9166 39.6957 54.008 39.6707L55.5158 39.2761L59.786 38.1629L61.4974 37.7184L62.0041 37.5855C62.0374 37.5772 62.0914 37.573 62.1204 37.5564C62.1952 37.5107 62.1371 37.6063 62.108 37.5232C62.3074 38.0798 62.5815 38.624 62.8141 39.164L63.5037 40.7632C63.5286 40.8255 63.62 40.7715 63.5951 40.7092L62.1994 37.465C62.1911 37.4443 62.162 37.436 62.1412 37.4401L54.6435 39.3966L53.5968 39.6707C53.5968 39.6707 53.5552 39.6998 53.5594 39.7206L53.8875 43.243C53.8875 43.2763 53.9166 43.3012 53.954 43.2929L57.2023 42.4455L62.378 41.0955L63.566 40.7881C63.6324 40.7715 63.6034 40.6718 63.5369 40.6884L63.5328 40.6926Z" fill="#2B63A8"/>
<path d="M61.0236 50.6904L54.1157 43.4669L63.5408 41.0037L61.0236 50.6904Z" fill="#009BBC"/>
<path d="M61.0569 50.6532L58.7141 48.2024L55.0047 44.3227L54.1532 43.4297L54.1282 43.5169L57.3101 42.6861L62.3861 41.3611L63.5533 41.0578L63.491 40.9955L62.6395 44.2604L61.2853 49.4735L60.9696 50.6823C60.953 50.7487 61.0527 50.7737 61.0693 50.7114L61.9209 47.4464L63.275 42.2334L63.5907 41.0246C63.599 40.9872 63.5658 40.9498 63.5284 40.9623L60.3465 41.7931L55.2706 43.1181L54.1033 43.4214C54.0659 43.4297 54.0535 43.4795 54.0784 43.5086L56.4212 45.9594L60.1306 49.839L60.9821 50.7321C61.0278 50.782 61.1025 50.7072 61.0569 50.6574V50.6532Z" fill="#2B63A8"/>
<path d="M61.1065 51.0475L48.4082 42.4823L53.8414 43.554L61.1065 51.0475Z" fill="#009BBC"/>
<path d="M61.1856 50.9105L50.0699 43.4169L48.4873 42.3494L48.3668 42.636L51.5902 43.2716L53.4428 43.6371C53.5508 43.6579 53.6879 43.662 53.7918 43.7036C53.6755 43.6537 53.7835 43.7119 53.8416 43.7783C54.5145 44.5509 55.2747 45.2571 55.9891 45.9923L59.0713 49.17L60.9987 51.1555C61.1399 51.3009 61.3601 51.0808 61.2188 50.9354L56.4835 46.0546L54.1531 43.6537C53.6962 43.1802 52.8821 43.2092 52.259 43.0846L48.4499 42.3328C48.2755 42.2996 48.1799 42.5156 48.3295 42.6194L59.4451 50.1129L61.0278 51.1805C61.1939 51.2926 61.3518 51.0226 61.1856 50.9105Z" fill="#2B63A8"/>
<path d="M61.1108 51.0353L67.9938 37.3525L63.8358 40.9581L61.1108 51.0353Z" fill="#009BBC"/>
<path d="M61.1568 51.0601L63.4871 46.4328L67.1965 39.0638L68.0439 37.3815C68.0688 37.3275 68.0065 37.2777 67.9608 37.3192L65.456 39.4917L64.0562 40.7046C63.9149 40.8251 63.8069 40.8874 63.7571 41.0618L61.7882 48.3518L61.0654 51.0228C61.0488 51.0892 61.1485 51.1141 61.1651 51.0518L62.9139 44.5802L63.8028 41.2903C63.8277 41.1989 63.8402 41.0909 63.8817 41.0037C63.89 40.9788 63.8983 40.9663 63.8817 40.9954C63.9025 40.9663 63.944 40.9414 63.9689 40.9206L65.1569 39.8905L68.0356 37.394L67.9525 37.3317L65.6222 41.9591L61.9128 49.328L61.0654 51.0103C61.0363 51.0685 61.1236 51.1225 61.1568 51.0643V51.0601Z" fill="#2B63A8"/>
<path d="M53.0361 37.3111L59.7155 35.5665L61.2815 35.1595C61.4102 35.1262 61.5432 35.0971 61.6761 35.0556C61.6968 35.0473 61.7301 35.0348 61.755 35.0348C61.7467 35.0348 61.7218 35.0348 61.7633 35.0431C62.1371 35.1262 62.5152 35.3007 62.8765 35.4253L64.8953 36.1231L68.2018 37.2655L68.1727 37.1907L65.8299 41.843L62.0956 49.2618L61.2399 50.9648L61.3105 50.9482L57.0155 48.0571L50.1782 43.4505L48.6205 42.3996L48.633 42.4827L52.5127 37.955L53.0735 37.3028C53.115 37.253 53.0444 37.1782 52.9987 37.2281L49.119 41.7558L48.5582 42.4079C48.5375 42.4328 48.5375 42.4702 48.5707 42.491L52.8658 45.3821L59.703 49.9887L61.2607 51.0396C61.2815 51.0562 61.3188 51.0437 61.3313 51.023L63.6741 46.3707L67.4084 38.9519L68.2641 37.2488C68.2807 37.2156 68.2641 37.1824 68.235 37.1741L61.917 34.9933C61.7467 34.9351 61.6885 34.9559 61.5141 35.0016L60.1931 35.3464L55.9272 36.4638L53.0195 37.2239C52.953 37.2405 52.9821 37.3402 53.0485 37.3236L53.0361 37.3111Z" fill="#2B63A8"/>
<path d="M163.644 6.96648C163.341 6.84602 160.986 6.60094 160.986 6.60094L164.496 4.85217L177.73 9.46709L164.238 14.2232L165.879 7.51479L162.793 9.08079L163.644 6.96648Z" fill="white"/>
<path d="M163.686 6.81265C162.859 6.52604 161.85 6.53019 160.986 6.43881L161.065 6.72957L162.498 6.01511C163.138 5.69527 163.844 5.42527 164.446 5.04311C164.496 5.00988 164.629 4.98496 164.512 4.98911C164.396 4.99327 164.471 4.99742 164.5 5.01404C164.596 5.05558 164.699 5.08465 164.795 5.11788L166.116 5.57896L175.142 8.72757L177.688 9.6165V9.31742L165.9 13.4754L164.197 14.0777L164.388 14.2688L166.029 7.56034C166.062 7.42327 165.921 7.32357 165.8 7.38588L162.714 8.95188L162.942 9.12634L163.794 7.01204C163.869 6.82511 163.565 6.74619 163.495 6.92896L162.643 9.04327C162.589 9.18034 162.764 9.27588 162.872 9.21773L165.958 7.65173L165.73 7.47727L164.089 14.1857C164.064 14.2937 164.164 14.4183 164.28 14.3768L176.068 10.2188L177.772 9.6165C177.917 9.56665 177.921 9.36727 177.772 9.31742L171.055 6.97465L166.477 5.37958L165.028 4.87281C164.866 4.81465 164.633 4.68173 164.454 4.7025C164.284 4.72327 164.068 4.89358 163.918 4.96419L162.71 5.5665L160.907 6.46373C160.753 6.5385 160.849 6.73788 160.986 6.7545C161.829 6.84173 162.801 6.83757 163.603 7.11588C163.794 7.18234 163.873 6.87911 163.686 6.81681V6.81265Z" fill="#2B63A8"/>
<path d="M164.342 4.80681L163.561 6.77158L163.449 7.05404C163.374 7.24096 163.678 7.31988 163.748 7.13712L164.529 5.17235L164.641 4.88989C164.716 4.70296 164.413 4.62404 164.342 4.80681Z" fill="#2B63A8"/>
<path d="M177.768 9.31404L167.424 7.57773L165.946 7.3285C165.75 7.29527 165.663 7.59435 165.863 7.62758L176.206 9.36388L177.684 9.61311C177.88 9.64634 177.967 9.34727 177.768 9.31404Z" fill="#2B63A8"/>
<path d="M162.527 9.28485L165.372 9.58392L165.883 7.60254L162.527 9.28485Z" fill="#2B63A8"/>
<path d="M232.897 60.2073C234.164 60.2073 235.19 59.1807 235.19 57.9144C235.19 56.648 234.164 55.6215 232.897 55.6215C231.631 55.6215 230.604 56.648 230.604 57.9144C230.604 59.1807 231.631 60.2073 232.897 60.2073Z" fill="white"/>
<path d="M234.933 58.5789C234.65 59.4221 233.869 60.0286 232.972 60.0535C232.075 60.0784 231.228 59.526 230.904 58.6827C230.58 57.8395 230.829 56.8758 231.506 56.2901C232.183 55.7044 233.167 55.6172 233.94 56.0492C234.833 56.5477 235.228 57.6111 234.929 58.5789C234.87 58.77 235.17 58.8531 235.228 58.662C235.527 57.6817 235.199 56.6017 234.384 55.9744C233.57 55.3472 232.428 55.3057 231.568 55.8581C230.708 56.4106 230.272 57.4864 230.513 58.4917C230.754 59.4969 231.601 60.228 232.611 60.3484C233.774 60.4897 234.862 59.7586 235.232 58.662C235.294 58.4709 234.995 58.3878 234.933 58.5789Z" fill="#2B63A8"/>
</svg>
