<svg width="600" height="600" viewBox="0 0 600 600" fill="none" xmlns="http://www.w3.org/2000/svg">
<g clip-path="url(#clip0_843_1227)">
<path d="M279.759 341.68C281.166 343.585 282.074 345.579 282.554 347.787C282.661 348.303 283.053 348.107 283.338 348.125C285.456 348.125 287.575 348.125 289.694 348.125C291.261 348.125 291.688 348.57 291.688 350.155C291.688 351.401 291.688 352.665 291.688 353.912C291.688 355.105 291.207 355.567 289.996 355.567C287.842 355.567 285.688 355.585 283.551 355.567C282.982 355.567 282.732 355.692 282.608 356.297C281.094 363.562 276.465 367.835 269.575 369.971C268.008 370.452 266.406 370.701 264.697 371.039C265.996 372.464 267.243 373.799 268.453 375.188C272.691 379.995 276.857 384.855 280.881 389.84C282.269 391.55 283.658 393.259 285.083 394.95C285.492 395.431 285.634 395.929 285.35 396.517C285.065 397.105 284.602 397.389 283.925 397.372C281.112 397.354 278.317 397.336 275.504 397.372C274.738 397.372 274.293 396.944 273.866 396.446C272.21 394.487 270.608 392.493 268.952 390.553C266.228 387.366 263.468 384.179 260.744 381.01C257.967 377.769 255.1 374.618 252.198 371.502C251.735 371.021 251.522 370.505 251.54 369.829C251.575 368.191 251.54 366.535 251.54 364.897C251.54 363.668 252.056 363.152 253.249 363.134C255.937 363.099 258.626 363.277 261.296 362.938C264.59 362.529 267.706 361.71 270.091 359.164C270.91 358.309 271.409 357.277 271.854 356.208C272.05 355.745 271.943 355.585 271.427 355.585C269.789 355.603 268.133 355.585 266.495 355.585C262.169 355.585 257.824 355.585 253.498 355.585C251.896 355.585 251.522 355.211 251.522 353.573C251.522 352.327 251.522 351.063 251.522 349.817C251.522 348.731 251.967 348.232 253.053 348.143C253.462 348.107 253.89 348.143 254.299 348.143C259.64 348.143 264.999 348.143 270.341 348.143C270.626 348.143 271.035 348.286 271.16 348.018C271.302 347.716 270.964 347.449 270.786 347.182C269.255 345.045 267.011 344.102 264.537 343.585C260.887 342.82 257.183 343.105 253.48 343.051C251.878 343.033 251.504 342.677 251.504 341.039C251.504 339.33 251.504 337.639 251.504 335.929C251.504 334.737 251.985 334.256 253.195 334.256C265.445 334.256 277.694 334.256 289.943 334.256C290.976 334.256 291.528 334.701 291.563 335.734C291.617 337.229 291.617 338.725 291.563 340.22C291.528 341.271 290.976 341.716 289.747 341.716C286.703 341.716 283.658 341.716 280.596 341.698C280.347 341.698 280.097 341.698 279.706 341.698L279.759 341.68Z" fill="url(#paint0_linear_843_1227)"/>
<path d="M308.64 265.833H300.967C298.508 265.833 296.516 267.826 296.516 270.284V318.462C296.516 320.92 298.508 322.913 300.967 322.913H308.64C311.098 322.913 313.091 320.92 313.091 318.462V270.284C313.091 267.826 311.098 265.833 308.64 265.833Z" fill="#C1D9E5"/>
<path d="M262.025 275.181C263.45 275.181 264.892 275.287 266.316 275.287C266.601 275.287 267.011 275.323 267.402 275.323C267.384 275.323 267.563 275.27 267.99 275.198C268.791 274.949 268.755 274.985 267.865 275.359C270.518 274.166 273.26 274.166 275.503 275.501V233.555C275.503 231.098 273.509 229.104 271.052 229.104H263.396C260.939 229.104 258.945 231.098 258.945 233.555V275.928C259.925 275.466 260.975 275.181 262.061 275.198L262.025 275.181Z" fill="#C1D9E5"/>
<path d="M248.298 306.837C243.972 309.579 239.824 312.855 236.459 316.718C234.251 319.246 232.346 322.059 230.441 324.801C227.396 329.199 224.227 333.65 221.557 338.297C212.156 354.748 207.563 374.742 211.533 393.436C212.601 398.51 214.56 403.389 217.853 407.448C221.592 412.059 227.29 416.457 233.432 416.617C236.868 416.706 236.868 411.365 233.432 411.276C228.66 411.151 223.907 406.825 221.236 403.139C218.744 399.685 217.408 395.626 216.571 391.478C214.649 381.935 215.147 372.249 217.533 362.831C219.42 355.353 222.287 348.036 226.008 341.27C228.233 337.228 231.011 333.418 233.592 329.59C235.515 326.742 237.438 323.858 239.61 321.187C242.779 317.323 246.767 314.083 250.987 311.412C253.889 309.579 251.201 304.95 248.298 306.801V306.837Z" fill="#231F20"/>
<path d="M323.97 359.466C322.991 355.46 321.798 351.508 320.249 347.68C319.644 346.184 319.021 344.653 318.237 343.247C317.543 342.036 315.78 341.52 314.587 342.285C313.395 343.051 312.896 344.635 313.626 345.935C313.804 346.238 313.964 346.558 314.107 346.879C314.303 347.27 314.481 347.662 314.659 348.072C314.766 348.321 314.89 348.588 314.997 348.837C315.086 349.033 315.033 348.926 314.872 348.534C314.908 348.624 314.944 348.713 314.979 348.819C315.033 348.962 315.104 349.104 315.157 349.247C316.688 353.021 317.846 356.938 318.825 360.873C319.163 362.226 320.766 363.17 322.119 362.742C323.472 362.315 324.344 360.908 323.988 359.448L323.97 359.466Z" fill="#231F20"/>
<path d="M233.042 416.618H303.849C307.285 416.618 307.285 411.276 303.849 411.276H233.042C229.606 411.276 229.606 416.618 233.042 416.618Z" fill="#231F20"/>
<path d="M286.277 311.448C287.612 312.285 288.894 313.175 290.14 314.118C290.282 314.225 290.567 314.457 290.282 314.225C290.478 314.385 290.674 314.546 290.87 314.688C291.208 314.955 291.547 315.24 291.867 315.525C292.633 316.184 293.398 316.86 294.128 317.555C295.41 318.765 296.656 320.029 297.76 321.4C297.903 321.578 298.045 321.756 298.188 321.934C298.49 322.308 298.116 321.828 298.294 322.077C298.579 322.469 298.882 322.86 299.167 323.234C299.808 324.107 300.431 324.979 301.054 325.851C301.855 326.991 303.422 327.632 304.704 326.813C305.843 326.083 306.52 324.374 305.665 323.163C303.315 319.816 300.894 316.593 297.903 313.78C295.161 311.181 292.134 308.866 288.947 306.854C287.772 306.107 285.956 306.569 285.297 307.816C284.603 309.133 284.995 310.682 286.259 311.466L286.277 311.448Z" fill="#231F20"/>
<path d="M247.664 307.513C247.806 310.771 249.533 313.691 252.595 315.027C254.233 315.739 256.032 315.81 257.794 315.952C259.699 316.113 261.604 316.219 263.509 316.291C267.551 316.451 271.592 316.415 275.634 316.184C278.946 316.006 283.005 316.237 285.871 314.314C291.444 310.558 290.055 302.475 284.963 299.038C282.026 297.044 278.768 297.4 275.403 297.543C271.343 297.703 267.266 297.721 263.207 297.596C259.432 297.489 255.551 296.813 252.239 299.056C249.426 300.943 247.664 304.113 247.664 307.513C247.664 310.914 253.005 310.949 253.005 307.513C253.005 305.911 253.806 304.433 255.124 303.525C257.064 302.19 259.664 302.795 261.871 302.884C264.827 302.991 267.8 303.027 270.756 302.991C273.711 302.955 276.56 302.617 279.426 302.688C282.471 302.777 286.227 307.05 283.183 309.668C281.634 311.003 278.536 310.665 276.595 310.789C273.587 310.985 270.56 311.056 267.551 311.038C264.542 311.021 261.248 310.878 258.097 310.629C255.871 310.451 253.13 310.38 253.005 307.495C252.845 304.077 247.503 304.059 247.664 307.495V307.513Z" fill="#231F20"/>
<path d="M256.29 297.631C256.04 297.329 256.254 297.578 256.414 297.792C256.165 297.471 255.934 297.151 255.684 296.83C254.919 295.797 254.171 294.729 253.459 293.661C251.447 290.67 249.542 287.554 248.118 284.243C247.156 281.999 245.839 278.385 246.729 276.338C246.782 276.213 247.441 275.358 247.441 275.376C247.512 275.59 246.853 275.679 246.8 275.75C246.907 275.625 246.747 275.643 246.871 275.75C248.723 277.21 250.681 279.435 253.316 278.955C255.132 278.616 256.343 276.907 258.088 276.266C260.705 275.323 262.664 276.64 264.658 278.243C267.097 280.219 269.269 279.56 271.494 277.744C272.883 276.605 274.664 275.519 276.533 275.875C279.435 276.427 280.574 280.059 283.975 279.168C285.471 278.777 286.681 277.602 288.106 277.068C288.586 276.889 289.281 276.569 289.744 276.711C289.637 276.676 289.708 276.533 289.708 277.085C289.726 279.364 289.423 281.287 288.462 283.406C286.058 288.711 283.583 293.999 281.162 299.305C279.738 302.403 284.331 305.127 285.773 301.993C288.212 296.688 290.669 291.364 293.109 286.059C294.907 282.159 297.132 274.593 292.112 271.94C290.385 271.032 288.284 271.317 286.521 271.958C285.613 272.296 284.723 272.705 283.886 273.168C283.566 273.346 283.21 273.649 282.871 273.774C282.782 273.809 282.586 274.023 282.497 274.023C283.388 274.059 282.212 272.955 282.017 272.812C279.666 270.907 276.8 270.07 273.809 270.658C272.58 270.907 271.388 271.406 270.319 272.029C269.785 272.332 267.898 274.237 267.417 274.201C268.485 274.272 266.474 272.795 266.349 272.705C265.779 272.296 265.192 271.94 264.551 271.637C263.144 270.978 261.666 270.569 260.118 270.533C257.678 270.48 255.257 271.388 253.299 272.777C253.227 272.83 251.963 273.703 251.999 273.792H252.515C253.12 273.934 253.192 273.845 252.747 273.507C252.658 273.257 252.123 272.866 251.91 272.688C250.859 271.762 249.666 270.925 248.313 270.551C246.693 270.106 244.931 270.427 243.684 271.566C240.889 274.13 240.853 278.207 241.655 281.643C243.346 288.854 247.993 295.619 252.533 301.37C254.669 304.059 258.426 300.266 256.307 297.596L256.29 297.631Z" fill="#231F20"/>
<path d="M252.822 303.115C251.362 300.124 248.532 298.112 245.772 296.385C242.71 294.48 239.38 293.181 235.748 293.127C232.668 293.074 229.072 293.911 226.348 293.234C223.624 292.557 221.416 290.724 219.475 288.783C217.054 286.344 213.262 290.118 215.701 292.557C217.837 294.712 220.241 296.563 223.054 297.738C225.867 298.914 228.627 298.914 231.546 298.682C234.947 298.433 238.045 298.273 241.161 299.893C243.796 301.264 246.876 303.062 248.229 305.822C249.724 308.919 254.336 306.213 252.84 303.133L252.822 303.115Z" fill="#231F20"/>
<path d="M251.005 304.646C244.151 302.812 236.691 303.703 230.62 307.459C226.792 309.827 223.516 313.174 221.201 317.038C219.421 319.993 224.05 322.682 225.813 319.726C226.08 319.281 226.364 318.836 226.649 318.409C226.863 318.106 227.077 317.821 227.29 317.519C226.934 317.999 227.362 317.43 227.433 317.34C227.593 317.145 227.753 316.949 227.913 316.771C229.409 315.026 231.083 313.477 233.005 312.266C237.955 309.115 243.919 308.296 249.581 309.809C252.91 310.7 254.317 305.536 251.005 304.664V304.646Z" fill="#231F20"/>
<path d="M347.095 209.841H339.439C336.982 209.841 334.988 211.835 334.988 214.292V289.942C336.288 290.28 337.552 290.921 338.603 291.776C342.021 294.589 344.959 298.203 347.131 302.066C347.807 303.277 348.092 304.577 348.092 305.841C350.086 305.396 351.582 303.615 351.582 301.497V214.31C351.582 211.853 349.588 209.859 347.131 209.859L347.095 209.841Z" fill="#C1D9E5"/>
<path d="M342.61 187.015C329.595 199.656 316.58 212.297 303.583 224.938C301.767 226.718 299.934 228.481 298.118 230.262H301.892C291.744 222.178 281.595 214.113 271.447 206.03C269.987 204.873 268.527 203.698 267.067 202.54C265.945 201.65 264.397 201.419 263.293 202.54C255.886 210.089 248.462 217.638 241.055 225.187C238.652 227.644 242.426 231.419 244.83 228.962C252.236 221.413 259.661 213.864 267.067 206.315H263.293C273.441 214.398 283.589 222.463 293.738 230.546C295.198 231.704 296.658 232.879 298.118 234.036C299.257 234.944 300.77 235.14 301.892 234.036C314.907 221.395 327.922 208.754 340.919 196.113C342.735 194.333 344.569 192.57 346.385 190.79C348.859 188.386 345.067 184.612 342.61 187.015Z" fill="#231F20"/>
<path d="M266.552 214.237C271.213 214.237 274.992 210.458 274.992 205.798C274.992 201.137 271.213 197.358 266.552 197.358C261.892 197.358 258.113 201.137 258.113 205.798C258.113 210.458 261.892 214.237 266.552 214.237Z" fill="url(#paint1_linear_843_1227)"/>
<path d="M342.217 200.261C346.877 200.261 350.656 196.483 350.656 191.822C350.656 187.161 346.877 183.383 342.217 183.383C337.556 183.383 333.777 187.161 333.777 191.822C333.777 196.483 337.556 200.261 342.217 200.261Z" fill="url(#paint2_linear_843_1227)"/>
<path d="M301.392 240.623C306.053 240.623 309.831 236.845 309.831 232.184C309.831 227.523 306.053 223.745 301.392 223.745C296.731 223.745 292.953 227.523 292.953 232.184C292.953 236.845 296.731 240.623 301.392 240.623Z" fill="url(#paint3_linear_843_1227)"/>
<path d="M377.877 387.275V337.37C377.877 331.424 377.325 325.726 374.601 320.278C369.526 310.13 358.755 303.578 347.449 303.578L350.12 306.249C350.031 299.269 347.058 293.038 341.129 289.21C338.262 287.358 334.88 286.112 331.479 285.703C330.037 285.524 328.808 287.073 328.808 288.373V306.249L330.126 303.934C324.144 308.527 318.144 313.121 312.161 317.714L302.868 324.836C301.853 325.619 300.82 326.349 300.037 327.4C297.865 330.266 297.829 334.237 299.859 337.192C302.12 340.468 304.701 343.584 307.105 346.753C307.871 347.768 308.85 348.249 310.114 347.981C314.939 346.967 319.746 345.952 324.571 344.937L321.972 344.243C323.93 346.397 326.494 347.75 329.164 348.783C330.482 349.299 331.853 349.691 333.242 350.029C334.15 350.243 335.699 350.207 336.482 350.616L335.253 349.014L335.307 348.249L336.535 346.646C335.663 347.305 334.239 347.536 333.242 347.964C332.013 348.48 330.82 349.05 329.645 349.691C327.526 350.866 325.532 352.272 323.681 353.839C320.316 356.652 317.485 360.124 315.224 363.881C311.77 369.596 309.526 376.094 308.458 382.664C308.209 384.177 307.977 385.708 307.906 387.222C307.835 388.664 309.188 389.892 310.577 389.892H375.242C378.678 389.892 378.678 384.551 375.242 384.551H310.577L313.247 387.222C313.283 386.474 313.372 385.744 313.461 384.996C313.372 385.762 313.515 384.605 313.55 384.427C313.621 384.017 313.693 383.608 313.764 383.18C313.96 382.094 314.191 381.026 314.44 379.958C315.793 374.349 318.019 368.973 321.348 364.219C323.271 361.477 325.621 358.984 328.274 356.937C329.77 355.78 331.408 354.765 333.099 353.875C334.969 352.895 337.176 352.468 338.974 351.435C340.773 350.403 341.271 347.875 339.776 346.361C338.458 345.026 335.877 345.115 334.15 344.67C332.084 344.136 330.055 343.477 328.203 342.373C326.351 341.269 325.461 339.435 323.147 339.72C318.322 340.343 313.497 341.75 308.743 342.747L311.752 343.976C310.328 342.088 308.885 340.201 307.461 338.314C306.304 336.783 303.473 334.13 303.704 331.993C303.9 330.338 305.253 329.643 306.5 328.682L312.553 324.035L327.883 312.266C329.342 311.145 330.82 310.023 332.28 308.884C333.615 307.851 334.167 306.783 334.167 305.091V288.266L331.497 290.937C330.589 290.83 330.963 290.848 331.532 290.973C332.102 291.097 332.601 291.204 333.117 291.346C334.88 291.827 336.268 292.415 337.835 293.341C342.518 296.118 344.743 300.783 344.814 306.159C344.832 307.602 346.025 308.83 347.485 308.83C356.921 308.83 365.61 314.243 369.9 322.611C372.322 327.311 372.589 332.243 372.589 337.388V387.168C372.589 390.605 377.93 390.605 377.93 387.168L377.877 387.275Z" fill="#231F20"/>
<path d="M383.181 397.922H303.311L305.982 400.593C305.982 397.744 305.181 393.435 307.139 391.067C308.599 389.287 310.576 389.198 312.641 389.198H372.659C374.421 389.198 376.397 388.966 377.982 389.892C381.525 391.975 380.51 397.139 380.51 400.593C380.51 404.047 385.851 404.029 385.851 400.593C385.851 396.782 386.421 392.456 384.427 389.038C382.433 385.619 378.712 383.874 374.777 383.857C369.205 383.821 363.632 383.857 358.059 383.857H312.641C309.24 383.857 305.964 384.498 303.507 387.133C300.018 390.889 300.641 395.892 300.641 400.61C300.641 402.052 301.869 403.281 303.311 403.281H383.181C386.617 403.281 386.617 397.94 383.181 397.94V397.922Z" fill="#231F20"/>
<path d="M388.527 411.525H297.583L300.254 414.196C300.254 410.635 299.239 405.258 303.298 403.478C304.687 402.872 306.432 403.05 307.927 403.05H376.74C378.076 403.05 379.411 402.979 380.746 403.05C386.835 403.335 385.856 409.923 385.856 414.196C385.856 417.632 391.197 417.632 391.197 414.196C391.197 409.567 391.785 404.653 388.331 400.985C385.91 398.421 382.705 397.709 379.34 397.709H308.088C305.292 397.709 302.622 397.656 300.093 399.134C294.432 402.445 294.912 408.534 294.912 414.196C294.912 415.638 296.141 416.867 297.583 416.867H388.527C391.963 416.867 391.963 411.525 388.527 411.525Z" fill="#231F20"/>
<path d="M239.685 241.336C244.346 241.336 248.124 237.558 248.124 232.897C248.124 228.236 244.346 224.458 239.685 224.458C235.024 224.458 231.246 228.236 231.246 232.897C231.246 237.558 235.024 241.336 239.685 241.336Z" fill="url(#paint4_linear_843_1227)"/>
</g>
<defs>
<linearGradient id="paint0_linear_843_1227" x1="251.54" y1="365.805" x2="291.688" y2="365.805" gradientUnits="userSpaceOnUse">
<stop stop-color="#8DCC9A"/>
<stop offset="1" stop-color="#5DC4C6"/>
</linearGradient>
<linearGradient id="paint1_linear_843_1227" x1="258.113" y1="205.798" x2="274.992" y2="205.798" gradientUnits="userSpaceOnUse">
<stop stop-color="#8DCC9A"/>
<stop offset="1" stop-color="#5DC4C6"/>
</linearGradient>
<linearGradient id="paint2_linear_843_1227" x1="333.777" y1="191.822" x2="350.656" y2="191.822" gradientUnits="userSpaceOnUse">
<stop stop-color="#8DCC9A"/>
<stop offset="1" stop-color="#5DC4C6"/>
</linearGradient>
<linearGradient id="paint3_linear_843_1227" x1="292.953" y1="232.184" x2="309.849" y2="232.184" gradientUnits="userSpaceOnUse">
<stop stop-color="#8DCC9A"/>
<stop offset="1" stop-color="#5DC4C6"/>
</linearGradient>
<linearGradient id="paint4_linear_843_1227" x1="231.246" y1="232.897" x2="248.124" y2="232.897" gradientUnits="userSpaceOnUse">
<stop stop-color="#8DCC9A"/>
<stop offset="1" stop-color="#5DC4C6"/>
</linearGradient>
<clipPath id="clip0_843_1227">
<rect width="181.139" height="233.484" fill="white" transform="translate(210.09 183.383)"/>
</clipPath>
</defs>
</svg>
