<svg width="95" height="92" viewBox="0 0 95 92" fill="none" xmlns="http://www.w3.org/2000/svg">
<g clip-path="url(#clip0_434_9923)">
<path d="M43.3928 91.0595C66.9924 91.0595 86.1236 70.7308 86.1236 45.6542C86.1236 20.5775 66.9924 0.248901 43.3928 0.248901C19.7933 0.248901 0.662109 20.5775 0.662109 45.6542C0.662109 70.7308 19.7933 91.0595 43.3928 91.0595Z" fill="#223838"/>
<path d="M51.4783 91.0595C75.0778 91.0595 94.209 70.7308 94.209 45.6542C94.209 20.5775 75.0778 0.248901 51.4783 0.248901C27.8788 0.248901 8.74756 20.5775 8.74756 45.6542C8.74756 70.7308 27.8788 91.0595 51.4783 91.0595Z" fill="#9BC650"/>
<path d="M93.961 45.6538C93.961 54.9215 91.2865 64.0647 86.1239 71.7774C81.2724 79.0547 74.2439 84.9014 66.0337 88.0736C57.8234 91.2457 48.4313 91.6811 39.9101 89.0688C31.5132 86.5186 24.1115 81.2939 18.7624 74.3898C13.1023 67.1747 9.80574 58.218 9.18375 49.0748C8.56176 39.9315 10.5521 30.3529 15.1549 22.267C19.5088 14.6165 26.0397 8.27222 33.939 4.47808C41.9626 0.559542 51.2303 -0.56004 60.0004 1.36813C68.5216 3.2341 76.2965 7.89903 82.1432 14.3677C87.9899 20.8364 92.1573 29.6687 93.4634 38.6253C93.8366 40.9267 93.961 43.2903 93.961 45.6538C93.961 45.9648 94.4586 45.9648 94.4586 45.6538C94.4586 36.2618 91.7219 26.9941 86.4971 19.1571C81.5834 11.8176 74.5549 5.97086 66.2825 2.79871C58.01 -0.373443 48.4313 -0.871035 39.7857 1.74132C31.14 4.35368 23.8005 9.6406 18.327 16.6691C12.6669 23.9464 9.30815 32.903 8.68616 42.1085C8.06417 51.3139 10.0545 61.0792 14.7195 69.2895C19.1356 77.0021 25.7909 83.4708 33.8146 87.3272C41.8382 91.1835 51.2303 92.3653 60.0626 90.4993C68.8948 88.6334 76.6697 83.9062 82.5786 77.3131C88.7363 70.4712 92.6548 61.8256 93.961 52.7445C94.272 50.4432 94.4586 48.1418 94.4586 45.8404C94.4586 45.5294 94.0232 45.5294 93.961 45.8404V45.6538Z" fill="#375D97"/>
<path d="M50.919 38.8118C58.5451 38.8118 64.7272 32.9917 64.7272 25.8122C64.7272 18.6327 58.5451 12.8126 50.919 12.8126C43.293 12.8126 37.1108 18.6327 37.1108 25.8122C37.1108 32.9917 43.293 38.8118 50.919 38.8118Z" fill="#223838"/>
<path d="M78.66 69.4761C78.66 56.0411 67.1531 45.1562 52.9096 45.1562C38.666 45.1562 27.1592 56.0411 27.1592 69.4761C28.7764 71.0932 38.977 80.9829 54.6511 80.2365C68.2105 79.6145 76.7318 71.4042 78.7222 69.4761H78.66Z" fill="#223838"/>
<path d="M54.526 38.8118C62.152 38.8118 68.3341 32.9917 68.3341 25.8122C68.3341 18.6327 62.152 12.8126 54.526 12.8126C46.8999 12.8126 40.7178 18.6327 40.7178 25.8122C40.7178 32.9917 46.8999 38.8118 54.526 38.8118Z" fill="white"/>
<path d="M68.2726 25.8122C68.2726 31.2858 64.4785 36.0129 59.3782 37.8167C54.2778 39.6204 47.9957 38.1899 44.2638 33.9603C40.5319 29.7308 40.1587 23.8219 43.082 19.2191C46.0054 14.6164 51.9765 12.2529 57.3878 13.3102C63.4211 14.492 68.2104 19.5923 68.2726 25.8122C68.2726 26.1232 68.7702 26.1232 68.7702 25.8122C68.7702 20.0899 64.8517 15.1762 59.5026 13.3724C54.1535 11.5687 47.6848 13.0614 43.8906 17.4154C40.0965 21.7693 39.6611 27.9892 42.771 32.7163C45.881 37.4435 51.8521 39.807 57.45 38.8118C63.7321 37.6923 68.708 32.2809 68.7702 25.8122C68.7702 25.5013 68.3348 25.5013 68.2726 25.8122Z" fill="#0565AD"/>
<path d="M82.2667 69.4761C82.2667 56.0411 70.7598 45.1562 56.5163 45.1562C42.2727 45.1562 30.7659 56.0411 30.7659 69.4761C32.383 71.0932 42.5837 80.9829 58.2578 80.2365C71.8172 79.6145 80.3385 71.4042 82.3289 69.4761H82.2667Z" fill="white"/>
<path d="M82.3291 69.5381C82.3291 59.7106 75.9848 51.0028 67.0282 47.1464C57.7605 43.2279 46.6269 44.7829 38.9142 51.3138C35.3067 54.3615 32.6321 58.4045 31.2637 62.945C30.9527 64.0646 30.7039 65.2463 30.5173 66.4281C30.4551 67.0501 30.3929 67.6721 30.3307 68.2941C30.3307 68.7295 30.1441 69.3515 30.3307 69.7247C30.4551 69.9735 30.8283 70.2223 31.0771 70.4711C31.4503 70.8443 31.8857 71.2175 32.3211 71.5906C39.1008 77.3752 47.8709 80.7961 56.8275 80.6717C65.7842 80.5473 74.6786 76.8154 81.2717 70.6577C81.5827 70.3467 81.8937 70.0357 82.2047 69.7869C82.3913 69.6003 82.0803 69.2271 81.8937 69.4759C76.5446 74.825 69.5161 78.5569 62.0522 79.8009C52.4114 81.4181 42.5839 78.7435 34.7469 72.959C33.6895 72.2126 32.6943 71.3419 31.6991 70.4711C31.4503 70.2223 31.0771 69.9735 30.8283 69.6625C30.6417 69.4137 30.7039 69.3515 30.7039 68.9783C30.7039 68.3563 30.7039 67.7343 30.8283 67.1123C31.3259 62.4474 33.3785 57.9691 36.4262 54.4237C42.9571 46.8976 53.5932 43.9121 63.1096 46.4622C72.6261 49.0124 79.9034 56.4141 81.4583 65.9305C81.6449 67.1745 81.7693 68.4185 81.7693 69.6003C81.7693 69.9113 82.2669 69.9113 82.2047 69.6003L82.3291 69.5381Z" fill="#0565AD"/>
</g>
<defs>
<clipPath id="clip0_434_9923">
<rect width="93.7339" height="91.246" fill="white" transform="translate(0.662109)"/>
</clipPath>
</defs>
</svg>
