<svg width="127" height="201" viewBox="0 0 127 201" fill="none" xmlns="http://www.w3.org/2000/svg">
<path d="M65.4072 200.6C83.7674 200.6 98.6513 197.64 98.6513 193.99C98.6513 190.339 83.7674 187.379 65.4072 187.379C47.047 187.379 32.1631 190.339 32.1631 193.99C32.1631 197.64 47.047 200.6 65.4072 200.6Z" fill="#2A4850"/>
<path d="M65.8581 131.804C84.7023 131.804 99.9784 127.497 99.9784 122.183C99.9784 116.87 84.7023 112.562 65.8581 112.562C47.014 112.562 31.7378 116.87 31.7378 122.183C31.7378 127.497 47.014 131.804 65.8581 131.804Z" fill="#997C3A"/>
<path d="M99.649 122.183C99.5882 125.104 95.4154 126.781 93.0296 127.673C88.0153 129.546 82.5671 130.413 77.2317 130.945C70.491 131.616 63.6634 131.673 56.914 131.158C51.301 130.732 45.6013 129.939 40.2485 128.213C38.3747 127.607 36.5008 126.879 34.8524 125.832C33.7507 125.137 32.5795 124.204 32.1891 122.96C31.3216 120.203 35.0086 118.281 37.1254 117.323C41.8275 115.213 47.1802 114.28 52.3073 113.65C58.918 112.84 65.6414 112.677 72.2954 113.036C78.1687 113.356 84.1027 114.059 89.759 115.638C91.8151 116.211 93.8712 116.906 95.745 117.896C97.029 118.567 98.391 119.418 99.1545 120.637C99.4581 121.111 99.6316 121.627 99.6403 122.183C99.6403 122.576 100.3 122.576 100.291 122.183C100.23 119.246 96.6126 117.487 94.1661 116.481C89.1344 114.411 83.5561 113.486 78.134 112.897C70.8467 112.104 63.4465 112.038 56.1419 112.652C50.3467 113.135 44.4214 113.977 38.9646 115.933C36.3012 116.882 32.2498 118.452 31.4951 121.414C30.7924 124.179 33.8721 126.159 36.0843 127.247C40.7517 129.538 46.1652 130.528 51.3183 131.207C58.4408 132.148 65.6848 132.336 72.8593 131.911C79.0015 131.551 85.2391 130.782 91.1037 128.974C94.1227 128.041 98.391 126.642 99.8919 123.713C100.135 123.23 100.265 122.723 100.282 122.191C100.282 121.799 99.6403 121.799 99.6316 122.191L99.649 122.183Z" fill="#2B63A8"/>
<path d="M90.4013 188.819L77.822 190.521C70.6561 191.486 63.3948 191.535 56.2116 190.66L40.4831 188.745C35.5728 188.148 31.8424 184.287 31.6689 179.615L29.9858 133.416H101.731L99.068 179.893C98.8077 184.434 95.1814 188.173 90.41 188.819H90.4013Z" fill="#997C3A"/>
<path d="M90.3142 188.524C81.101 189.768 71.9224 191.314 62.5616 190.889C58.3714 190.692 54.2072 190.112 50.0517 189.604C46.8679 189.22 43.6666 188.876 40.4914 188.443C35.5638 187.772 32.1631 183.902 31.9809 179.288C31.9028 177.316 31.8334 175.344 31.764 173.373L30.9225 150.179L30.5321 139.462L30.3933 135.731C30.3673 135.101 30.48 134.299 30.3152 133.686C30.2979 133.604 30.3152 133.506 30.3065 133.424L29.9769 133.735H101.731L101.401 133.424L100.317 152.404L98.8508 177.971C98.8161 178.617 98.7901 179.255 98.738 179.901C98.4257 184.319 94.9296 187.837 90.3142 188.533C89.8978 188.598 90.08 189.187 90.4877 189.122C94.0447 188.59 97.1244 186.405 98.5559 183.264C99.1545 181.955 99.3453 180.597 99.4321 179.19L99.9613 169.961L101.627 140.836L102.052 133.424C102.061 133.26 101.896 133.113 101.722 133.113H29.9942C29.8207 133.113 29.6646 133.252 29.6646 133.424L30.1851 147.757L31.07 171.941L31.3216 178.911C31.4517 182.438 32.9439 185.677 36.2058 187.616C39.1034 189.351 43.016 189.359 46.33 189.768C49.644 190.177 52.9146 190.57 56.2026 190.971C63.5593 191.854 70.9768 191.756 78.3162 190.766C82.0292 190.267 85.7423 189.76 89.4554 189.261L90.4877 189.122C90.9042 189.064 90.722 188.475 90.3142 188.533V188.524Z" fill="#2B63A8"/>
<path d="M96.3695 123.026C89.0388 120.579 78.0904 119.033 65.8581 119.033C53.6258 119.033 42.6688 120.588 35.3468 123.026H25.8125V130.291H25.9166C25.9166 136.508 43.7966 141.556 65.8581 141.556C87.9196 141.556 105.8 136.516 105.8 130.291V123.026H96.3695Z" fill="#997C3A"/>
<path d="M96.4562 122.731C85.985 119.27 74.3513 118.55 63.3422 118.747C57.4343 118.853 51.5263 119.303 45.7051 120.26C43.1806 120.677 40.6734 121.185 38.2009 121.847C36.8909 122.199 35.7284 122.723 34.3751 122.723H25.8038C25.6303 122.723 25.4741 122.862 25.4741 123.034V130.299C25.4741 130.462 25.6216 130.609 25.8038 130.609H25.9079L25.5782 130.299C25.6563 134.471 31.6683 136.655 35.0604 137.801C42.9117 140.46 51.4743 141.384 59.768 141.736C69.1634 142.137 78.715 141.72 87.9543 139.993C91.4678 139.339 94.9727 138.488 98.2954 137.203C100.499 136.344 102.789 135.289 104.464 133.653C105.704 132.442 106.129 131.158 106.129 129.513V123.025C106.129 122.862 105.982 122.715 105.8 122.715H96.3694C95.953 122.715 95.953 123.328 96.3694 123.328H105.8L105.47 123.017V128.311C105.47 129.718 105.626 131.059 104.785 132.287C103.613 133.988 101.54 135.093 99.6487 135.952C96.7772 137.261 93.6714 138.12 90.5743 138.815C81.977 140.738 73.024 141.327 64.2011 141.229C55.7339 141.13 47.1192 140.402 38.9383 138.283C35.7978 137.473 32.6053 136.459 29.8465 134.798C28.1808 133.8 26.2723 132.311 26.2376 130.282C26.2376 130.119 26.0901 129.971 25.9079 129.971H25.8038L26.1334 130.282V123.017L25.8038 123.328H33.4208C34.4358 123.328 35.2339 123.369 36.1969 123.066C38.3918 122.379 40.6387 121.831 42.903 121.381C54.6928 119.033 67.1334 118.779 79.0967 119.966C84.9092 120.538 90.7565 121.487 96.2827 123.32C96.6817 123.451 96.8466 122.862 96.4562 122.731Z" fill="#2B63A8"/>
<path d="M65.8585 134.005C87.9176 134.005 105.8 128.961 105.8 122.739C105.8 116.518 87.9176 111.474 65.8585 111.474C43.7994 111.474 25.917 116.518 25.917 122.739C25.917 128.961 43.7994 134.005 65.8585 134.005Z" fill="#72531C"/>
<path d="M105.479 122.739C105.418 126.159 100.569 128.131 97.7837 129.186C91.9018 131.403 85.4907 132.426 79.2271 133.056C71.2977 133.849 63.2557 133.915 55.309 133.301C48.7157 132.794 42.0183 131.861 35.746 129.816C33.5598 129.104 31.3736 128.245 29.4563 127.01C28.181 126.192 26.8277 125.095 26.3852 123.639C25.3962 120.408 29.6732 118.15 32.1717 117.029C37.6806 114.55 43.9442 113.454 49.9563 112.717C57.7555 111.76 65.6761 111.564 73.5186 111.997C80.4156 112.374 87.3819 113.208 94.0186 115.082C96.4217 115.761 98.8161 116.579 101.002 117.741C102.494 118.534 104.056 119.532 104.932 120.964C105.271 121.512 105.461 122.109 105.479 122.747C105.479 123.14 106.138 123.14 106.129 122.747C106.069 119.311 101.783 117.266 98.9289 116.096C92.9689 113.658 86.3756 112.586 79.9558 111.899C71.532 110.999 62.978 110.934 54.5369 111.637C47.7701 112.202 40.8471 113.184 34.4534 115.458C31.3389 116.562 26.5587 118.395 25.6912 121.856C24.8757 125.095 28.5367 127.411 31.1307 128.662C36.6048 131.321 42.9292 132.475 48.976 133.26C57.2783 134.348 65.7368 134.569 74.0999 134.07C81.2137 133.653 88.449 132.761 95.2505 130.691C97.6189 129.971 99.9959 129.096 102.113 127.844C103.518 127.01 104.95 125.946 105.687 124.506C105.973 123.95 106.121 123.361 106.129 122.747C106.129 122.355 105.487 122.355 105.479 122.747V122.739Z" fill="#2B63A8"/>
<path d="M76.0344 67.1479C75.7568 66.6325 75.2102 66.1989 74.6984 65.9126C73.319 65.1353 71.6099 65.1844 70.1004 65.5444C68.4868 65.9289 66.9859 66.6652 65.5718 67.4915C65.2162 67.6961 65.5458 68.2279 65.9015 68.0233C68.3046 66.6243 72.7377 64.5218 75.1582 67.0579C75.2883 67.197 75.3664 67.2788 75.4705 67.467C75.6613 67.8188 76.2252 67.5079 76.0344 67.1561V67.1479Z" fill="#2B63A8"/>
<path d="M78.871 52.9289C78.5761 52.3807 77.9948 51.9308 77.4396 51.6363C75.9214 50.8345 74.0822 50.9818 72.4773 51.4399C70.7075 51.9471 69.0678 52.8307 67.541 53.7961C67.194 54.017 67.5236 54.5488 67.8706 54.3279C69.9527 53.0107 72.4512 51.6363 75.0452 51.6772C76.1383 51.6935 77.2314 52.0371 77.9775 52.8143C78.1163 52.9534 78.203 53.0516 78.3071 53.2398C78.498 53.5916 79.0619 53.2807 78.871 52.9289Z" fill="#2B63A8"/>
<path d="M77.7088 88.7217C74.6637 87.4372 70.994 88.2881 68.9119 90.7261C67.6366 92.2151 66.8992 94.0395 66.4047 95.8721C66.3006 96.2566 66.9252 96.4202 67.0293 96.0357C67.7321 93.4177 69.0247 90.5625 71.7574 89.3271C73.2062 88.6726 74.8893 88.6153 76.4335 88.9753C76.6764 89.0326 76.9193 89.098 77.1622 89.1798C77.2316 89.2044 77.301 89.2289 77.3704 89.2535C77.3097 89.2289 77.4745 89.2944 77.3704 89.2535C77.7521 89.4171 78.0818 88.8853 77.7001 88.7217H77.7088Z" fill="#2B63A8"/>
<path d="M57.512 92.6403C57.512 92.6403 57.512 92.6158 57.512 92.6076C57.4773 92.7303 57.512 92.624 57.512 92.5831C57.538 92.4604 57.564 92.3376 57.5901 92.2231C57.6942 91.8468 57.833 91.495 58.0238 91.1595C58.5964 90.1614 59.5681 89.4988 60.7739 89.3515C61.9798 89.2042 63.0816 89.4824 64.1573 89.8342C64.5564 89.9651 64.7212 89.376 64.3309 89.2451C62.6044 88.6725 60.4963 88.3452 58.8827 89.3597C57.9371 89.9487 57.3211 90.8896 57.0088 91.9122C56.9394 92.1495 56.8787 92.3949 56.8527 92.6485C56.8093 93.0412 57.4599 93.0412 57.5033 92.6485L57.512 92.6403Z" fill="#2B63A8"/>
<path d="M57.1912 83.8049C57.7464 83.8294 58.267 83.9276 58.8222 84.0667C59.95 84.3449 61.0257 84.8275 61.8586 85.6048C62.1535 85.8829 62.622 85.4493 62.3184 85.1712C60.9997 83.9522 59.0217 83.2649 57.1912 83.1995C56.7748 83.1831 56.7748 83.7967 57.1912 83.8131V83.8049Z" fill="#2B63A8"/>
<path d="M56.4537 53.5503C57.3039 52.8631 58.5878 52.3231 59.733 52.0613C62.6653 51.3987 65.4154 52.5522 67.5148 54.4748C67.8185 54.753 68.2783 54.3193 67.9746 54.0412C65.7624 52.0286 62.8908 50.8096 59.7937 51.4232C58.4404 51.6932 57.0436 52.2659 55.9852 53.1167C55.6642 53.3703 56.1327 53.8039 56.445 53.5503H56.4537Z" fill="#2B63A8"/>
<path d="M66.1967 48.6094C64.2968 45.6805 60.5924 44.6087 57.1135 44.7396C56.7839 44.7478 56.4542 44.7724 56.1332 44.8133C55.7168 44.8705 55.899 45.4596 56.3067 45.4023C56.1419 45.4269 56.4802 45.386 56.541 45.3778C56.7926 45.3532 57.0442 45.3451 57.2871 45.3369C58.1372 45.3205 58.9961 45.3696 59.8376 45.5005C62.1887 45.885 64.3575 46.9486 65.6241 48.9121C65.841 49.2475 66.4049 48.9366 66.188 48.6012L66.1967 48.6094Z" fill="#2B63A8"/>
<path d="M38.1143 55.9148C38.1143 55.9148 54.2852 62.4189 56.8878 45.3119C56.9138 45.1237 39.7452 40.4932 38.1143 55.9148Z" fill="#819B4B"/>
<path d="M37.9494 56.1848C43.172 58.271 50.0776 58.0256 53.8427 53.6077C55.5865 51.5542 56.5234 48.9853 57.0179 46.4246C57.1307 45.8601 57.469 45.2465 56.8444 44.9683C56.5581 44.8374 56.2024 44.7883 55.8901 44.7147C52.8364 44.0438 49.479 43.9784 46.46 44.8129C44.3085 45.4101 42.3305 46.5228 40.873 48.1508C38.9297 50.3352 38.0795 53.125 37.7672 55.923C37.7238 56.3157 38.3745 56.3157 38.4179 55.923C38.9124 51.5133 41.0552 47.3818 45.6445 45.721C48.5334 44.6738 51.804 44.6247 54.823 45.1401C55.2742 45.2138 55.7166 45.3038 56.159 45.4183C56.2978 45.451 56.428 45.5001 56.5668 45.5328C56.749 45.5737 56.6449 45.5983 56.6449 45.5328C56.6188 45.2874 56.4627 45.7946 56.48 45.7619C56.402 45.9419 56.402 46.1955 56.3586 46.3919C56.2892 46.7518 56.2024 47.1118 56.1157 47.4636C55.9508 48.1181 55.7513 48.7644 55.5171 49.4025C55.1006 50.5152 54.5541 51.5869 53.8514 52.5687C51.7172 55.5139 48.2384 56.8884 44.534 56.8393C43.0332 56.8229 41.541 56.602 40.1009 56.2339C39.6411 56.1193 39.19 55.9884 38.7389 55.833C38.6348 55.8003 38.1229 55.6121 38.2704 55.6694C37.8887 55.5139 37.559 56.0457 37.9407 56.2011L37.9494 56.1848Z" fill="#2B63A8"/>
<path d="M55.2481 44.7723L44.6554 51.3255L43.1286 52.2745C42.7815 52.4872 43.1025 53.019 43.4582 52.8063L54.0509 46.2531L55.5778 45.3041C55.9248 45.0914 55.6038 44.5596 55.2481 44.7723Z" fill="#2B63A8"/>
<path d="M33.377 35.8709C33.377 35.8709 37.8708 55.0722 57.1649 45.6475C57.3818 45.5411 50.2853 26.7325 33.377 35.8709Z" fill="#819B4B"/>
<path d="M33.065 35.9527C34.4704 41.9005 39.2332 47.8237 46 48.4864C49.0538 48.7891 52.1335 48.0691 54.9357 46.9646C55.3434 46.801 55.7512 46.6374 56.1503 46.4574C56.4365 46.3347 57.1913 46.1138 57.3561 45.8847C57.4689 45.7293 57.4776 45.6884 57.4689 45.5002C57.4689 45.2057 57.2434 44.8375 57.1306 44.5675C55.7685 41.336 53.565 38.2435 50.6934 36.0427C48.6113 34.4556 46.1562 33.3756 43.4755 33.1138C39.8492 32.762 36.3183 33.9401 33.2038 35.5927C32.8395 35.7891 33.1691 36.3209 33.5335 36.1245C38.4872 33.482 44.2563 32.5984 49.1926 35.74C52.2897 37.7117 54.5974 40.7469 56.1416 43.9212C56.3498 44.3467 56.5493 44.7803 56.7142 45.2302C56.7402 45.312 56.8443 45.4838 56.8269 45.5657C56.8269 45.5902 56.8616 45.6393 56.853 45.6638C56.9744 45.3939 55.916 45.8765 55.8293 45.9174C53.0271 47.1528 49.9473 48.0446 46.8242 47.9218C42.5212 47.75 38.9643 45.402 36.6393 42.0886C35.312 40.1988 34.2275 38.0062 33.6983 35.7809C33.6116 35.3964 32.9783 35.56 33.0737 35.9445L33.065 35.9527Z" fill="#2B63A8"/>
<path d="M56.3067 44.8128L42.3306 39.6178L40.3092 38.8651C39.9188 38.7178 39.754 39.3151 40.1357 39.4541L54.1118 44.6492L56.1331 45.4019C56.5235 45.5492 56.6884 44.9519 56.3067 44.8128Z" fill="#2B63A8"/>
<path d="M99.267 64.3093C99.267 64.3093 80.0943 72.0242 77.0059 51.7429C76.9712 51.5139 97.3237 46.0324 99.267 64.3093Z" fill="#819B4B"/>
<path d="M99.102 64.039C99.2494 63.9817 98.7549 64.1617 98.6682 64.1944C98.2344 64.3417 97.792 64.4726 97.3495 64.5953C95.9007 64.988 94.4086 65.2661 92.8991 65.3725C88.7956 65.6752 84.6314 64.6935 81.7512 61.7728C79.6951 59.6865 78.5153 56.9622 77.8299 54.2215C77.7258 53.8124 77.6304 53.3952 77.5523 52.9779C77.5176 52.7816 77.4742 52.5934 77.4395 52.3971C77.4221 52.3071 77.266 51.808 77.24 51.9389C77.24 51.9635 77.2053 51.9962 77.3441 51.9226C77.6651 51.7426 78.1856 51.6935 78.55 51.6199C81.8987 50.9163 85.5423 50.8426 88.865 51.7017C91.2941 52.3316 93.5324 53.5179 95.2241 55.3014C97.5664 57.7721 98.5728 61.0692 98.9371 64.3008C98.9805 64.6934 99.6312 64.6934 99.5878 64.3008C98.9892 58.9584 96.4733 53.927 90.9905 51.7426C87.2948 50.27 83.0438 50.2045 79.1399 50.8835C78.5847 50.9817 77.1966 51.0553 76.7802 51.5053C76.4765 51.8407 76.8236 52.618 76.9016 52.9943C77.0925 53.9842 77.3354 54.9578 77.6477 55.915C78.1075 57.3303 78.7148 58.7048 79.5216 59.9729C82.0028 63.8508 86.2277 65.937 90.9818 66.0352C93.81 66.0924 96.8203 65.6016 99.4316 64.5544C99.8133 64.3989 99.4837 63.8753 99.102 64.0226V64.039Z" fill="#2B63A8"/>
<path d="M78.5849 51.6689L91.1469 59.4329L92.96 60.5537C93.3071 60.7746 93.6367 60.2428 93.2897 60.0219L80.7277 52.2579L78.9146 51.1371C78.5676 50.9162 78.2379 51.448 78.5849 51.6689Z" fill="#2B63A8"/>
<path d="M96.8729 43.9948C96.8729 43.9948 93.1425 59.9318 77.1364 52.1023C76.9542 52.0124 82.8535 36.4026 96.8729 43.9948Z" fill="#819B4B"/>
<path d="M96.5602 43.913C95.5279 48.2982 92.1705 52.8469 87.2776 53.7796C85.0306 54.205 82.697 53.8532 80.5541 53.166C79.8514 52.9451 79.1661 52.6833 78.4981 52.3888C78.3419 52.3233 77.5525 52.0615 77.5178 52.0288C77.4397 51.947 77.4917 52.2497 77.4744 52.0697C77.4483 51.8652 77.6826 51.497 77.7607 51.3171C78.8277 48.8218 80.5281 46.4492 82.7143 44.7066C84.3453 43.4058 86.332 42.4977 88.4661 42.2768C91.381 41.9823 94.2179 42.9231 96.7251 44.2567C97.0894 44.453 97.4191 43.9212 97.0547 43.7249C92.8211 41.4669 87.8502 40.6978 83.5992 43.324C80.8144 45.0421 78.7323 47.75 77.3876 50.5971C77.1881 51.0144 76.6242 51.8652 76.9191 52.3233C77.1707 52.716 78.4113 53.0269 78.8624 53.2069C79.5912 53.5014 80.3459 53.7632 81.1094 53.9678C82.2719 54.2868 83.4691 54.5077 84.675 54.5568C88.5789 54.7286 91.9796 52.9533 94.2613 50.0326C95.6146 48.2982 96.699 46.1874 97.1935 44.0767C97.2803 43.6922 96.6557 43.5285 96.5689 43.913H96.5602Z" fill="#2B63A8"/>
<path d="M78.0036 51.9552L89.6026 47.6437L91.2769 47.0219C91.6586 46.8828 91.4938 46.2856 91.1034 46.4328L79.5044 50.7444L77.8301 51.3661C77.4483 51.5052 77.6132 52.1024 78.0036 51.9552Z" fill="#2B63A8"/>
<path d="M99.267 100.871C99.267 100.871 80.0943 108.586 77.0059 88.3046C76.9712 88.0755 97.3237 82.5941 99.267 100.871Z" fill="#819B4B"/>
<path d="M99.102 100.601C99.2494 100.544 98.7549 100.724 98.6682 100.756C98.2344 100.904 97.792 101.035 97.3495 101.157C95.9007 101.55 94.4086 101.828 92.8991 101.934C88.7956 102.237 84.6314 101.255 81.7512 98.3347C79.6951 96.2485 78.5153 93.5241 77.8299 90.7834C77.7258 90.3744 77.6304 89.9571 77.5523 89.5399C77.5176 89.3435 77.4742 89.1554 77.4395 88.959C77.4221 88.869 77.266 88.37 77.24 88.5009C77.24 88.5254 77.2053 88.5581 77.3441 88.4845C77.6651 88.3045 78.1856 88.2554 78.55 88.1818C81.8987 87.4782 85.5423 87.4046 88.865 88.2636C91.2941 88.8936 93.5324 90.0798 95.2241 91.8634C97.5664 94.3341 98.5728 97.6311 98.9371 100.863C98.9805 101.255 99.6312 101.255 99.5878 100.863C98.9892 95.5204 96.4733 90.4889 90.9905 88.3045C87.2948 86.8319 83.0438 86.7664 79.1399 87.4455C78.5847 87.5437 77.1966 87.6173 76.7802 88.0673C76.4765 88.4027 76.8236 89.1799 76.9016 89.5562C77.0925 90.5462 77.3354 91.5197 77.6477 92.4769C78.1075 93.8923 78.7148 95.2667 79.5216 96.5348C82.0028 100.413 86.2277 102.499 90.9818 102.597C93.81 102.654 96.8203 102.164 99.4316 101.116C99.8133 100.961 99.4837 100.437 99.102 100.585V100.601Z" fill="#2B63A8"/>
<path d="M78.5849 88.2308L91.1469 95.9948L92.96 97.1156C93.3071 97.3365 93.6367 96.8047 93.2897 96.5838L80.7277 88.8198L78.9146 87.699C78.5676 87.4781 78.2379 88.0099 78.5849 88.2308Z" fill="#2B63A8"/>
<path d="M97.723 80.2295C97.723 80.2295 93.8277 96.8701 77.1103 88.6971C76.9194 88.6071 83.0789 72.3019 97.723 80.2295Z" fill="#819B4B"/>
<path d="M97.4105 80.1477C96.3261 84.7374 92.8212 89.4907 87.7114 90.456C85.3604 90.8978 82.9226 90.5379 80.6843 89.8179C79.9556 89.5807 79.2355 89.3107 78.5328 89.008C78.368 88.9425 77.5438 88.6725 77.5005 88.6234C77.4137 88.5335 77.4744 88.8443 77.4484 88.6562C77.4137 88.4516 77.6653 88.0508 77.7434 87.8708C78.8538 85.2691 80.641 82.7821 82.9139 80.9658C84.623 79.6077 86.6964 78.6505 88.9346 78.4215C91.9884 78.1106 94.9467 79.0923 97.5667 80.4913C97.931 80.6877 98.2607 80.1559 97.8963 79.9595C93.4805 77.6033 88.2927 76.7934 83.8595 79.5423C80.9533 81.334 78.7757 84.1647 77.379 87.1263C77.1708 87.5599 76.5896 88.4353 76.8932 88.9098C77.1448 89.3107 78.4548 89.6379 78.9232 89.8261C79.6867 90.1288 80.4675 90.3988 81.2656 90.6278C82.4715 90.9633 83.7294 91.1842 84.9873 91.2414C89.0561 91.4214 92.6043 89.5725 94.9814 86.5209C96.3955 84.7128 97.5233 82.5121 98.0438 80.3031C98.1306 79.9186 97.5059 79.755 97.4192 80.1395L97.4105 80.1477Z" fill="#2B63A8"/>
<path d="M78.0124 88.5334L90.1232 84.0337L91.8756 83.3874C92.2574 83.2483 92.0925 82.6511 91.7021 82.7983L79.5913 87.298L77.8389 87.9443C77.4571 88.0834 77.622 88.6806 78.0124 88.5334Z" fill="#2B63A8"/>
<path d="M75.9908 18.8214C75.9908 18.8214 55.5256 22.552 65.0165 40.9925C65.1206 41.197 85.2475 34.9956 75.9908 18.8214Z" fill="#819B4B"/>
<path d="M75.9043 18.5269C69.5712 19.6886 63.1601 24.041 62.2926 30.3896C61.9022 33.2776 62.5789 36.1983 63.6806 38.8817C63.8368 39.2663 64.0103 39.6508 64.1838 40.0271C64.3053 40.2971 64.5221 41.017 64.7564 41.1725C64.9299 41.287 64.9733 41.287 65.1728 41.2788C65.4764 41.2788 65.8582 41.0907 66.1358 40.9925C69.5972 39.798 72.9373 37.7936 75.349 35.1511C77.0928 33.2367 78.2987 30.9378 78.6457 28.418C79.1055 25.0064 77.9603 21.6439 76.2773 18.6578C76.0778 18.306 75.5225 18.6168 75.7134 18.9686C78.3767 23.6892 79.1575 29.1297 75.7394 33.6948C73.5793 36.5828 70.2739 38.6936 66.8645 40.068C66.4047 40.248 65.9449 40.428 65.4678 40.5671C65.381 40.5916 65.1815 40.6898 65.086 40.6734C65.0166 40.6571 65.0253 40.6734 65.0513 40.6816C65.1641 40.7471 64.8258 39.8717 64.7564 39.7162C63.5245 37.0655 62.6656 34.1612 62.8565 31.2405C63.1254 27.1417 65.7367 23.8119 69.3543 21.6848C71.3844 20.4903 73.7181 19.5413 76.0778 19.1077C76.4855 19.0341 76.312 18.4369 75.9043 18.5187V18.5269Z" fill="#2B63A8"/>
<path d="M65.8838 40.2725L71.757 27.2153L72.5985 25.3499C72.7634 24.99 72.1995 24.6791 72.0346 25.0391L66.1614 38.0963L65.3199 39.9616C65.1551 40.3216 65.719 40.6325 65.8838 40.2725Z" fill="#2B63A8"/>
<path d="M31.3384 84.2795C31.3384 84.2795 44.204 99.7502 57.2605 83.3714C57.4079 83.1914 42.3648 69.1361 31.3384 84.2795Z" fill="#819B4B"/>
<path d="M31.1129 84.5004C35.4332 89.6709 43.0849 92.9925 49.7737 89.9982C51.1704 89.3682 52.4543 88.5255 53.6255 87.5765C54.9615 86.4884 56.5318 85.1385 57.4167 83.6904C57.8244 83.0278 56.8528 82.4878 56.3496 82.0706C53.5388 79.7634 50.0773 77.9145 46.3989 77.2273C43.8397 76.7528 41.185 76.9 38.7559 77.8245C35.5113 79.0599 33.0301 81.457 31.0522 84.124C30.8092 84.4513 31.3731 84.754 31.6161 84.4349C34.7479 80.2052 39.3198 77.0636 45.0022 77.6445C48.6719 78.0208 52.1507 79.7144 55.0309 81.8415C55.4734 82.1687 55.9072 82.5123 56.3149 82.8723C56.4364 82.9787 56.9395 83.3386 56.9482 83.4777C56.9482 83.4777 55.8898 84.5086 55.7336 84.6804C55.1264 85.3512 54.4844 85.9894 53.799 86.5948C52.6712 87.5929 51.422 88.4846 50.0599 89.1719C45.9912 91.2253 41.4192 90.8572 37.4719 88.7546C35.2597 87.5765 33.1516 85.9566 31.564 84.0668C31.3037 83.7559 30.8439 84.1977 31.1042 84.5004H31.1129Z" fill="#2B63A8"/>
<path d="M56.1766 82.9702L41.1942 84.0011L39.034 84.1483C38.6176 84.1729 38.6176 84.7947 39.034 84.7619L54.0164 83.7311L56.1766 83.5838C56.593 83.5593 56.593 82.9375 56.1766 82.9702Z" fill="#2B63A8"/>
<path d="M55.682 71.1398C60.8949 71.1398 65.1208 67.1546 65.1208 62.2386C65.1208 57.3227 60.8949 53.3375 55.682 53.3375C50.4691 53.3375 46.2432 57.3227 46.2432 62.2386C46.2432 67.1546 50.4691 71.1398 55.682 71.1398Z" fill="#2B63A8"/>
<path d="M64.5222 60.1444C65.3984 63.6214 63.9757 67.3275 60.8091 69.3564C57.6426 71.3854 53.4784 71.3117 50.3987 69.2501C47.3189 67.1884 45.8528 63.3187 46.9285 59.8498C48.0043 56.381 51.405 53.8203 55.2656 53.6566C59.5946 53.4685 63.4204 56.2337 64.5222 60.1444C64.6263 60.5289 65.2596 60.3653 65.1468 59.9807C64.1058 56.291 60.7918 53.5176 56.7491 53.084C52.7063 52.6504 48.5855 54.802 46.8418 58.3281C45.098 61.8542 45.8961 66.0594 48.8024 68.7756C51.7087 71.4917 56.1591 72.1953 59.8462 70.5754C64.0711 68.7183 66.2226 64.2104 65.1555 59.9807C65.0601 59.5962 64.4268 59.7598 64.5309 60.1444H64.5222Z" fill="#2B63A8"/>
<path d="M56.7577 70.5754C61.9706 70.5754 66.1965 66.5902 66.1965 61.6742C66.1965 56.7582 61.9706 52.773 56.7577 52.773C51.5448 52.773 47.3188 56.7582 47.3188 61.6742C47.3188 66.5902 51.5448 70.5754 56.7577 70.5754Z" fill="#FCBC00"/>
<path d="M65.5979 59.58C66.4741 63.057 65.0513 66.7631 61.8848 68.792C58.7183 70.821 54.5541 70.7473 51.4744 68.6857C48.3946 66.624 46.9284 62.7543 48.0042 59.2855C49.0799 55.8166 52.4807 53.2559 56.3412 53.0923C60.6703 52.9041 64.4961 55.6693 65.5979 59.58C65.702 59.9645 66.3353 59.8009 66.2225 59.4163C65.1815 55.7266 61.8675 52.9532 57.8247 52.5196C53.782 52.086 49.6612 54.2376 47.9174 57.7637C46.1737 61.2899 46.9718 65.495 49.8781 68.2112C52.7843 70.9273 57.2348 71.6309 60.9219 70.011C65.1468 68.1539 67.2983 63.646 66.2312 59.4163C66.1358 59.0318 65.5025 59.1955 65.6066 59.58H65.5979Z" fill="#2B63A8"/>
<path d="M55.7865 110.443C60.9994 110.443 65.2253 106.458 65.2253 101.542C65.2253 96.6257 60.9994 92.6405 55.7865 92.6405C50.5736 92.6405 46.3477 96.6257 46.3477 101.542C46.3477 106.458 50.5736 110.443 55.7865 110.443Z" fill="#2B63A8"/>
<path d="M64.7218 103.251C63.9149 106.72 61 109.453 57.2436 110.034C53.4871 110.615 49.5658 108.79 47.744 105.599C45.9222 102.409 46.4687 98.4082 49.0366 95.7574C51.6046 93.1067 55.5952 92.2559 59.0914 93.5322C63.2122 95.0293 65.5372 99.2017 64.7218 103.251C64.6437 103.636 65.2683 103.8 65.3464 103.415C66.1011 99.6844 64.4528 95.8393 61.0347 93.7776C57.6166 91.7159 52.9753 91.9205 49.7567 94.3012C46.5381 96.6819 45.1934 100.887 46.5555 104.56C47.9175 108.234 51.5178 110.664 55.5692 110.754C60.2626 110.86 64.3487 107.702 65.3464 103.415C65.4331 103.031 64.8085 102.867 64.7218 103.251Z" fill="#2B63A8"/>
<path d="M54.745 109.322C59.9579 109.322 64.1838 105.337 64.1838 100.421C64.1838 95.5048 59.9579 91.5196 54.745 91.5196C49.5321 91.5196 45.3062 95.5048 45.3062 100.421C45.3062 105.337 49.5321 109.322 54.745 109.322Z" fill="#FCBC00"/>
<path d="M63.6807 102.131C62.8739 105.6 59.959 108.332 56.2026 108.913C52.4461 109.494 48.5248 107.669 46.703 104.479C44.8812 101.288 45.4277 97.2874 47.9956 94.6367C50.5635 91.986 54.5542 91.1352 58.0504 92.4114C62.1712 93.9086 64.4962 98.081 63.6807 102.131C63.6027 102.515 64.2273 102.679 64.3054 102.294C65.0601 98.5637 63.4118 94.7185 59.9937 92.6569C56.5756 90.5952 51.9343 90.7997 48.7157 93.1805C45.4971 95.5612 44.1524 99.7663 45.5145 103.44C46.8765 107.113 50.4768 109.543 54.5282 109.633C59.2216 109.739 63.3077 106.581 64.3054 102.294C64.3921 101.91 63.7675 101.746 63.6807 102.131Z" fill="#2B63A8"/>
<path d="M78.4376 80.3769C82.836 80.3769 86.4017 77.0144 86.4017 72.8665C86.4017 68.7186 82.836 65.3561 78.4376 65.3561C74.0392 65.3561 70.4736 68.7186 70.4736 72.8665C70.4736 77.0144 74.0392 80.3769 78.4376 80.3769Z" fill="#2B63A8"/>
<path d="M85.8463 74.6172C85.0308 77.5052 82.4282 79.7223 79.2444 80.0332C76.0605 80.3441 73.0067 78.7323 71.5927 76.0571C70.1786 73.3818 70.7338 69.9784 72.9807 67.8186C75.2276 65.6587 78.8193 65.037 81.7342 66.3623C85.0048 67.8431 86.6792 71.312 85.8463 74.6172C85.7509 75.0017 86.3755 75.1653 86.471 74.7808C87.2691 71.6229 85.9851 68.2931 83.1396 66.436C80.2941 64.5788 76.3034 64.6197 73.5012 66.5832C70.6991 68.5467 69.4845 72.0074 70.4996 75.1326C71.5146 78.2578 74.5336 80.4831 77.9777 80.6713C81.9251 80.884 85.4646 78.3396 86.471 74.7808C86.5751 74.3963 85.9504 74.2327 85.8463 74.6172Z" fill="#2B63A8"/>
<path d="M77.2492 80.4911C81.6476 80.4911 85.2132 77.1286 85.2132 72.9808C85.2132 68.8329 81.6476 65.4704 77.2492 65.4704C72.8508 65.4704 69.2852 68.8329 69.2852 72.9808C69.2852 77.1286 72.8508 80.4911 77.2492 80.4911Z" fill="#FCBC00"/>
<path d="M84.6578 74.7317C83.8424 77.6197 81.2397 79.8368 78.0559 80.1477C74.872 80.4586 71.8183 78.8469 70.4042 76.1716C68.9901 73.4963 69.5453 70.0929 71.7922 67.9331C74.0392 65.7733 77.6308 65.1515 80.5457 66.4768C83.8163 67.9576 85.4907 71.4265 84.6578 74.7317C84.5624 75.1162 85.187 75.2798 85.2825 74.8953C86.0806 71.7374 84.7967 68.4076 81.9511 66.5505C79.1056 64.6933 75.1149 64.7342 72.3128 66.6977C69.5106 68.6612 68.2961 72.1219 69.3111 75.2471C70.3261 78.3723 73.3451 80.5976 76.7893 80.7858C80.7366 80.9985 84.2761 78.4541 85.2825 74.8953C85.3866 74.5108 84.762 74.3472 84.6578 74.7317Z" fill="#2B63A8"/>
<path d="M7.94117 62.9752L9.65889 66.4931C9.71095 66.5994 9.80638 66.6894 9.91916 66.7385L13.6496 68.3584C14.0573 68.5384 14.0573 69.0865 13.6496 69.2583L9.91916 70.8782C9.80638 70.9273 9.71095 71.0173 9.65889 71.1237L7.94117 74.6416C7.75031 75.0261 7.16906 75.0261 6.98687 74.6416L5.26914 71.1237C5.21709 71.0173 5.12166 70.9273 5.00888 70.8782L1.27846 69.2583C0.87072 69.0784 0.87072 68.5302 1.27846 68.3584L5.00888 66.7385C5.12166 66.6894 5.21709 66.5994 5.26914 66.4931L6.98687 62.9752C7.17773 62.5906 7.75898 62.5906 7.94117 62.9752Z" fill="white"/>
<path d="M7.66353 63.1308L9.23377 66.3542C9.41596 66.7224 9.61549 66.9515 10.0146 67.1233L11.9578 67.9659L12.9468 68.3995C13.077 68.4568 13.398 68.5304 13.4847 68.6286C13.8578 69.0622 12.5998 69.3895 12.3829 69.4795L10.2141 70.4203C9.83238 70.5839 9.53741 70.6985 9.3292 71.0748C9.01689 71.6311 8.77398 72.2202 8.49636 72.7929L8.03657 73.7419C7.94114 73.93 7.85439 74.2818 7.69823 74.4373C7.25578 74.8872 6.99552 73.9382 6.87407 73.6928L5.8764 71.6475C5.69421 71.2711 5.56408 70.8294 5.15634 70.6085C4.64449 70.3303 4.06324 70.134 3.53404 69.9049C2.92676 69.6431 2.2067 69.4304 1.6428 69.0868C1.0789 68.7431 1.70353 68.5141 2.0679 68.3586L4.46231 67.3196C4.9221 67.1233 5.35587 67.0005 5.59878 66.5588C5.9458 65.937 6.22341 65.2743 6.53573 64.6362L7.05625 63.5726C7.09963 63.4908 7.37724 62.7136 7.66353 63.139C7.88909 63.4744 8.45299 63.1635 8.22743 62.8281C7.78498 62.1654 6.9695 62.3291 6.63983 62.9672C6.29281 63.6381 5.9805 64.3253 5.64216 65.0043C5.44263 65.4134 5.24309 66.1988 4.84402 66.4851C4.36688 66.8206 3.62947 67.0087 3.09159 67.246C2.44962 67.5241 1.76426 67.7696 1.14831 68.0886C0.488976 68.4323 0.488976 69.2095 1.14831 69.5531C1.76426 69.8722 2.44962 70.1176 3.09159 70.3958C3.62947 70.6248 4.36688 70.8212 4.84402 71.1566C5.25177 71.443 5.44263 72.2284 5.64216 72.6374C5.97183 73.3165 6.28414 74.0037 6.63983 74.6745C6.9695 75.3045 7.79366 75.4927 8.22743 74.8136C8.53107 74.3391 8.73927 73.7664 8.98219 73.2674C9.28582 72.6538 9.52874 71.9338 9.91045 71.3611C10.1534 71.0012 10.7953 70.8539 11.1857 70.6821L13.4934 69.6758C14.0573 69.4304 14.6038 68.915 14.092 68.3177C13.9272 68.1214 13.6582 68.0396 13.424 67.9332L12.1661 67.3851L10.7867 66.7878C10.5698 66.6978 10.2661 66.616 10.0753 66.477C9.88443 66.3379 9.81502 66.1006 9.71959 65.9043L9.12099 64.6853L8.21008 62.8199C8.03657 62.46 7.47267 62.7709 7.64618 63.1308H7.66353Z" fill="#2B63A8"/>
<path d="M7.74161 63.0817L9.31185 66.3051C9.48536 66.665 9.66755 66.8696 10.0579 67.0414L12.0012 67.884L12.9902 68.3177C13.129 68.3831 13.4153 68.4404 13.5281 68.5467C14.066 69.0785 12.6692 69.4467 12.4263 69.553L10.2575 70.4939C9.88443 70.6575 9.60682 70.7557 9.40728 71.1156C9.09497 71.672 8.85206 72.261 8.57445 72.8337L8.11465 73.7827C8.01922 73.9872 7.93247 74.3063 7.77631 74.4781C7.24711 75.0753 6.92612 73.9954 6.79599 73.7336L5.79832 71.6883C5.62481 71.3283 5.49468 70.8947 5.11296 70.682C4.60111 70.4039 4.01986 70.2075 3.49066 69.9784C2.87471 69.7085 2.172 69.4958 1.59943 69.1603C1.39989 69.0458 0.940098 68.9803 1.41724 68.5467C1.54738 68.424 1.85969 68.3504 2.02452 68.2849L4.41893 67.2459C4.86138 67.0577 5.28647 66.9432 5.52071 66.5178C5.86772 65.896 6.14534 65.2333 6.45765 64.5952L6.97817 63.5316C7.02155 63.4335 7.0736 63.278 7.14301 63.1962C7.24711 63.0735 7.27314 62.3863 7.74161 63.098C7.89777 63.3353 8.30551 63.1144 8.14068 62.8771C7.73293 62.2635 7.01287 62.4354 6.70924 63.0162C6.36222 63.6871 6.04991 64.3743 5.71157 65.0533C5.51203 65.4706 5.30382 66.2805 4.87873 66.5587C4.38423 66.8859 3.68152 67.0823 3.1263 67.3195C2.49299 67.5977 1.79029 67.8268 1.18301 68.1622C0.593082 68.4895 0.584407 69.1521 1.18301 69.4794C1.78161 69.8066 2.48432 70.0439 3.1263 70.3221C3.67285 70.5593 4.37555 70.7557 4.87873 71.0829C5.30382 71.3611 5.51203 72.171 5.71157 72.5883C6.04123 73.2673 6.35354 73.9545 6.70924 74.6254C7.0042 75.1981 7.73293 75.3862 8.14068 74.7645C8.44431 74.2899 8.65252 73.7173 8.89544 73.2182C9.19907 72.6046 9.44199 71.8928 9.8237 71.312C10.0753 70.9275 10.7259 70.7802 11.1337 70.6084L13.4413 69.6021C13.9445 69.3812 14.4824 68.9394 14.0226 68.3831C13.8664 68.1949 13.5975 68.1131 13.3719 68.0149L12.114 67.4668C11.4547 67.1805 10.6218 66.9514 10.0319 66.5587C9.81503 66.4196 9.74562 66.1742 9.64152 65.9533L9.04292 64.7343L8.132 62.869C8.01055 62.6153 7.6028 62.8362 7.73293 63.0898L7.74161 63.0817Z" fill="white"/>
<path d="M7.46384 63.2369L8.61766 65.6012C8.89528 66.1657 9.10349 66.8284 9.67606 67.1884C10.318 67.5893 11.1335 67.8429 11.8449 68.1456C12.1746 68.2847 12.5042 68.4401 12.8339 68.5792C13.1636 68.7183 13.4846 68.7346 13.0595 68.9719C11.9664 69.5773 10.5783 69.7818 9.55461 70.5018C9.08613 70.8372 8.8866 71.4181 8.66104 71.9008C8.34005 72.588 7.99303 73.2752 7.6894 73.9706C7.52456 74.347 7.45516 74.3633 7.27298 74.0115C7.20357 73.8725 7.15152 73.717 7.08212 73.5698C6.72643 72.7925 6.32736 72.0235 5.96299 71.2463C5.39042 70.0355 3.69871 69.7409 2.50151 69.2419C2.328 69.1683 1.79013 69.0046 1.67735 68.841L1.58192 68.8001C1.6947 68.7101 1.81615 68.6446 1.96364 68.6201C2.04171 68.5956 2.11112 68.5628 2.1892 68.5383C3.04806 68.1865 3.88957 67.7938 4.74844 67.4338C5.33836 67.1802 5.66803 66.9348 5.95432 66.3785C6.34471 65.634 6.68305 64.8567 7.05609 64.0959C7.17755 63.8423 7.30768 63.5887 7.42913 63.335C7.45516 63.2778 7.48119 63.2123 7.51589 63.155C7.63734 62.9178 7.42913 63.0241 7.47251 63.2369C7.54191 63.6132 8.20992 63.4987 8.3921 63.2941C8.68707 62.9669 8.40945 62.5578 8.09714 62.3533C7.71542 62.0997 7.2296 62.1324 6.85656 62.386C6.32736 62.7542 6.1018 63.5314 5.84154 64.0713C5.56392 64.6522 5.33836 65.2658 5.05208 65.8385C4.71374 66.5175 3.9156 66.673 3.23024 66.9511C2.54489 67.2293 1.85953 67.4666 1.22623 67.7938C0.783781 68.0229 0.402064 68.3665 0.436766 68.8819C0.471467 69.3973 0.948614 69.7082 1.40841 69.9291C2.05039 70.2318 2.73575 70.4936 3.39508 70.7472C3.73342 70.8781 4.08043 70.9927 4.40142 71.1563C4.82652 71.3772 4.99135 71.6635 5.16486 72.0808C5.40777 72.6535 5.65935 73.2098 5.92829 73.7661C6.19723 74.3224 6.41411 75.0669 7.03007 75.3533C8.36608 75.975 8.91263 73.9706 9.26832 73.1852C9.62401 72.3998 9.84089 71.4426 10.7605 71.0745C11.5673 70.7554 12.3568 70.4118 13.1549 70.06C13.7101 69.8227 14.4909 69.52 14.5343 68.841C14.5777 68.162 13.8836 67.8838 13.3371 67.6465C12.5389 67.3029 11.7235 67.0002 10.9253 66.6648C10.3441 66.4194 10.0838 66.133 9.82354 65.5931C9.62401 65.184 9.42447 64.7749 9.22494 64.3659L8.61766 63.1223C8.50488 62.8932 8.41813 62.5824 8.14052 62.476C7.65469 62.296 7.35106 62.7787 7.42046 63.1632C7.48986 63.5477 8.11449 63.3841 8.04509 62.9996L7.95833 63.2205L8.15787 63.6377L8.3574 64.055L8.86057 65.0858C9.12084 65.6094 9.32037 66.3785 9.79752 66.763C10.2747 67.1475 10.908 67.3111 11.4545 67.5238C11.8362 67.6711 12.2006 67.8265 12.5736 67.9902C12.8686 68.1211 13.3024 68.211 13.554 68.4156C14.248 68.9801 13.4585 69.2419 13.0421 69.43C12.6604 69.6019 12.27 69.7655 11.8883 69.9291C11.281 70.1909 10.5783 70.3873 10.0144 70.7227C9.49388 71.0254 9.27699 71.5735 9.04276 72.0889C8.74779 72.7353 8.47018 73.3979 8.15787 74.0443C8.01039 74.3552 7.7588 75.0015 7.28165 74.7888C6.97801 74.6497 6.8045 74.1261 6.67437 73.8643C6.37074 73.2425 6.0671 72.6289 5.80683 71.9908C5.642 71.5817 5.46849 71.1481 5.10413 70.8618C4.66168 70.5263 4.07176 70.3627 3.55123 70.1664C2.88323 69.9046 2.13714 69.6673 1.52987 69.3155C0.358687 68.6365 1.99834 68.1129 2.62297 67.8593C3.55991 67.4829 4.98267 67.1966 5.51187 66.2966C5.78948 65.8303 5.94564 65.2903 6.17988 64.7995C6.32736 64.4886 6.47484 64.1859 6.62232 63.875C6.7698 63.5641 6.92596 63.0078 7.27298 62.8442C7.49854 62.7378 8.17522 62.8769 7.66337 62.566C7.54191 62.4924 7.41178 62.4433 7.2643 62.4842C6.98669 62.5496 6.93464 62.8278 6.83053 63.0405C6.55292 63.6377 6.24928 64.2268 5.96299 64.824C5.6767 65.4212 5.44247 66.3294 4.85254 66.7057C4.26261 67.082 3.54256 67.2784 2.91793 67.5484C2.38005 67.7774 1.59927 67.9574 1.15682 68.3338C0.228556 69.1192 1.73807 69.6264 2.33668 69.8718C2.99601 70.1418 3.67269 70.3954 4.32334 70.6818C4.65301 70.8209 4.974 70.9436 5.19088 71.2299C5.36439 71.4672 5.46849 71.7944 5.59863 72.0562C5.90226 72.6944 6.23193 73.3161 6.52689 73.9624C6.6657 74.2652 6.77848 74.6251 7.06477 74.8297C7.94966 75.4678 8.41813 73.8479 8.65236 73.3734C8.98203 72.6944 9.23362 71.9008 9.67606 71.279C10.0751 70.7145 11.0902 70.4772 11.7148 70.1991C12.2266 69.9782 12.7645 69.7982 13.259 69.5609C13.5713 69.4137 13.9617 69.1764 13.9617 68.8083C13.9617 68.3747 13.5453 68.211 13.1896 68.072C12.4001 67.7611 11.628 67.4011 10.8472 67.0657C10.4655 66.902 9.98838 66.763 9.72811 66.4357C9.5199 66.1657 9.40712 65.8221 9.25964 65.5194L8.00171 62.9423C7.8282 62.5824 7.2643 62.8932 7.43781 63.2532L7.46384 63.2369Z" fill="#2B63A8"/>
<path d="M122.266 91.8224L123.463 94.2768C123.498 94.3504 123.567 94.4159 123.645 94.4486L126.248 95.5776C126.534 95.7003 126.534 96.0848 126.248 96.2076L123.645 97.3366C123.567 97.3693 123.498 97.4347 123.463 97.5084L122.266 99.9627C122.136 100.233 121.728 100.233 121.598 99.9627L120.401 97.5084C120.366 97.4347 120.297 97.3693 120.219 97.3366L117.616 96.2076C117.33 96.0848 117.33 95.7003 117.616 95.5776L120.219 94.4486C120.297 94.4159 120.366 94.3504 120.401 94.2768L121.598 91.8224C121.728 91.5524 122.136 91.5524 122.266 91.8224Z" fill="white"/>
<path d="M121.98 91.9694L123.073 94.211C123.394 94.8737 124.34 95.0782 125.008 95.3646L125.702 95.6673C125.762 95.6918 126.049 95.7737 126.075 95.8309C126.153 96.0027 125.424 96.2154 125.311 96.2645L123.802 96.919C123.524 97.0417 123.299 97.1317 123.151 97.4099C122.934 97.7944 122.761 98.2117 122.57 98.6044L122.249 99.267C122.197 99.3816 122.119 99.6679 122.015 99.7497C121.824 99.9052 121.685 99.3734 121.615 99.2343L120.921 97.8108C120.783 97.5326 120.687 97.2217 120.384 97.0581C120.028 96.8699 119.62 96.7309 119.247 96.5672C118.822 96.3872 118.319 96.24 117.928 95.9945C117.85 95.9455 117.729 95.9536 117.798 95.8309C117.842 95.7573 118.145 95.6837 118.223 95.6509L119.889 94.931C120.227 94.7837 120.54 94.6937 120.713 94.3665C120.956 93.9329 121.147 93.4665 121.364 93.0248L121.728 92.2884C121.728 92.2884 121.902 91.863 121.98 91.9857C122.205 92.3212 122.769 92.0103 122.544 91.6749C122.197 91.1513 121.537 91.2576 121.268 91.773C121.026 92.2394 120.809 92.7221 120.574 93.1966C120.436 93.4747 120.305 93.9901 120.054 94.1947C119.95 94.2765 119.768 94.3174 119.646 94.3665L118.831 94.7183C118.388 94.9146 117.911 95.0782 117.477 95.3073C116.957 95.5773 116.957 96.2154 117.477 96.4936C117.911 96.7145 118.38 96.8863 118.831 97.0826L119.646 97.4344C119.768 97.4835 119.95 97.5326 120.054 97.6062C120.314 97.8108 120.444 98.3262 120.574 98.6044C120.809 99.0789 121.026 99.5616 121.268 100.028C121.529 100.519 122.214 100.666 122.544 100.126C122.752 99.7906 122.899 99.3979 123.073 99.0461C123.281 98.6289 123.446 98.0971 123.724 97.7208C123.888 97.4917 124.314 97.3935 124.574 97.279L126.187 96.5836C126.639 96.3872 127.029 95.9455 126.621 95.4873C126.491 95.3401 126.309 95.2828 126.135 95.2091L125.259 94.8328L124.296 94.4156C124.149 94.3501 123.923 94.301 123.802 94.2029C123.689 94.1129 123.646 93.9574 123.585 93.8347L123.168 92.9839L122.535 91.683C122.362 91.3231 121.798 91.634 121.971 91.9939L121.98 91.9694Z" fill="#2B63A8"/>
<path d="M122.119 91.896L123.212 94.1377C123.333 94.3913 123.464 94.5304 123.732 94.6531L125.086 95.2422L125.78 95.5449C125.875 95.5858 126.075 95.6349 126.153 95.7085C126.526 96.0766 125.554 96.3384 125.389 96.4039L123.88 97.0584C123.62 97.1729 123.429 97.2466 123.281 97.492C123.064 97.8765 122.891 98.2938 122.7 98.6865L122.379 99.3491C122.31 99.4882 122.249 99.7173 122.145 99.8318C121.772 100.249 121.555 99.4964 121.46 99.3164L120.765 97.8929C120.644 97.6393 120.557 97.3366 120.288 97.1893C119.933 97.0011 119.525 96.862 119.152 96.6984C118.727 96.5102 118.232 96.363 117.833 96.1257C117.694 96.0439 117.373 96.003 117.703 95.6921C117.798 95.6103 118.015 95.5612 118.128 95.5121L119.794 94.7922C120.097 94.6613 120.401 94.5795 120.566 94.285C120.809 93.8514 121 93.385 121.217 92.9432L121.581 92.2069C121.616 92.1415 121.642 92.0269 121.694 91.9697C121.763 91.8879 121.78 91.4052 122.11 91.9042C122.223 92.0678 122.501 91.9206 122.388 91.7488C122.101 91.3234 121.598 91.4461 121.39 91.847C121.147 92.3133 120.93 92.796 120.696 93.2705C120.557 93.5568 120.41 94.1295 120.115 94.3259C119.768 94.5549 119.282 94.6858 118.892 94.8576C118.449 95.0458 117.963 95.2094 117.538 95.4467C117.113 95.6839 117.122 96.1339 117.538 96.363C117.955 96.5921 118.449 96.7557 118.892 96.952C119.273 97.1157 119.768 97.2547 120.115 97.4838C120.41 97.6802 120.557 98.2447 120.696 98.5392C120.93 99.0137 121.147 99.4964 121.39 99.9627C121.598 100.364 122.11 100.495 122.388 100.061C122.605 99.7337 122.743 99.3328 122.917 98.981C123.125 98.5474 123.299 98.0565 123.568 97.6556C123.741 97.3856 124.192 97.2875 124.479 97.1647L126.092 96.4693C126.439 96.3139 126.821 96.003 126.491 95.6185C126.378 95.4876 126.196 95.4303 126.04 95.3649L125.164 94.9885C124.704 94.7922 124.123 94.6286 123.706 94.3586C123.559 94.2604 123.507 94.0886 123.437 93.9413L123.021 93.0905L122.388 91.7897C122.301 91.6097 122.023 91.7651 122.11 91.9451L122.119 91.896Z" fill="white"/>
<path d="M121.841 92.0514L122.648 93.6959C122.847 94.1049 123.003 94.5794 123.42 94.8331C123.871 95.1112 124.435 95.2912 124.929 95.5039C125.155 95.6021 125.389 95.7085 125.623 95.8066C125.719 95.8475 125.823 95.8721 125.918 95.9212C125.962 95.8066 125.944 95.7903 125.884 95.8639C125.849 95.8884 125.814 95.9048 125.779 95.9212C125.016 96.3466 124.062 96.4938 123.333 96.9847C122.986 97.222 122.839 97.6392 122.674 97.9992C122.457 98.4655 122.127 98.9646 121.988 99.4636C121.98 99.5045 121.876 99.6436 122.006 99.6682C121.962 99.6682 121.902 99.5045 121.884 99.4718C121.832 99.3736 121.797 99.2673 121.754 99.1609C121.503 98.621 121.225 98.081 120.973 97.541C120.566 96.682 119.377 96.4693 118.527 96.1093C118.371 96.0439 118.119 95.8557 117.954 95.8312L117.885 95.7984C117.937 95.9212 118.015 95.9375 118.128 95.8394C118.189 95.823 118.249 95.7903 118.31 95.7739C118.909 95.5285 119.498 95.2585 120.097 95.0049C120.522 94.8249 120.765 94.6367 120.973 94.2358C121.242 93.7122 121.485 93.1723 121.737 92.6487C121.823 92.4687 121.91 92.2969 121.997 92.1169C122.023 92.0678 122.066 92.0187 122.066 91.9696C122.084 91.7569 121.858 92.0514 121.858 92.0514C121.858 92.1578 122.118 92.2478 122.197 92.2642C122.361 92.2887 122.535 92.2314 122.648 92.1087C122.899 91.8387 122.691 91.4788 122.422 91.307C122.127 91.1106 121.754 91.1351 121.459 91.3315C121.069 91.5933 120.904 92.1496 120.722 92.5423C120.54 92.935 120.366 93.3686 120.166 93.7695C119.941 94.2195 119.403 94.3176 118.961 94.4976C118.483 94.6858 117.989 94.8576 117.538 95.0949C117.2 95.2748 116.922 95.5366 116.939 95.9293C116.957 96.322 117.312 96.5675 117.668 96.7393C118.128 96.952 118.605 97.1402 119.082 97.3202C119.308 97.4101 119.542 97.4838 119.759 97.5983C120.036 97.7374 120.132 97.9174 120.245 98.1874C120.418 98.5882 120.6 98.9891 120.791 99.3818C120.982 99.7745 121.147 100.306 121.589 100.519C122.596 100.994 123.003 99.5863 123.29 98.9809C123.533 98.4573 123.671 97.8028 124.27 97.5574C124.834 97.3283 125.398 97.0911 125.962 96.8456C126.387 96.6657 126.942 96.4284 126.968 95.913C126.994 95.3976 126.508 95.1848 126.083 95.0049C125.528 94.7676 124.964 94.5549 124.4 94.3176C124.001 94.1458 123.845 93.974 123.671 93.6059C123.533 93.3195 123.394 93.0414 123.255 92.755L122.83 91.8878C122.734 91.6996 122.665 91.4706 122.439 91.3969C122.023 91.2497 121.754 91.6506 121.815 91.9942C121.884 92.3787 122.509 92.2151 122.439 91.8305L122.197 92.0596L122.335 92.346L122.474 92.6323L122.821 93.3523C123.003 93.7286 123.151 94.2604 123.489 94.5385C123.828 94.8167 124.287 94.9394 124.686 95.0949C124.938 95.193 125.19 95.2994 125.441 95.4139C125.641 95.5039 125.962 95.5694 126.118 95.7084C126.482 96.0112 125.996 96.1502 125.762 96.2566C125.493 96.3711 125.224 96.4857 124.955 96.6084C124.53 96.7884 124.044 96.9275 123.645 97.1647C123.246 97.402 123.099 97.7783 122.934 98.1465C122.726 98.5964 122.535 99.0546 122.318 99.5045C122.231 99.6845 122.11 100.069 121.841 99.9872C121.659 99.93 121.52 99.5127 121.459 99.3736C121.251 98.9482 121.043 98.5228 120.869 98.0892C120.748 97.7865 120.618 97.4756 120.349 97.2629C120.028 97.0093 119.603 96.8947 119.23 96.7556C118.77 96.5757 118.267 96.412 117.841 96.1748C117.581 96.0193 117.468 95.8803 117.781 95.6839C118.024 95.5366 118.319 95.4385 118.588 95.3321C119.273 95.0621 120.279 94.8576 120.661 94.2031C120.852 93.8759 120.965 93.4995 121.129 93.1641C121.234 92.9514 121.329 92.7387 121.433 92.526C121.546 92.3051 121.633 91.9942 121.85 91.8387C122.066 91.6833 122.518 91.7242 122.127 91.4869C122.023 91.4215 121.902 91.3888 121.771 91.4215C121.546 91.4788 121.494 91.6751 121.416 91.8551C121.225 92.2723 121.008 92.6814 120.808 93.0986C120.626 93.4913 120.453 94.1213 120.071 94.3749C119.689 94.6285 119.151 94.7758 118.726 94.964C118.345 95.1276 117.789 95.2585 117.477 95.5285C116.766 96.1421 117.824 96.5429 118.319 96.7475C118.778 96.9356 119.247 97.1156 119.707 97.312C119.915 97.402 120.132 97.4838 120.271 97.6638C120.392 97.8274 120.461 98.0565 120.557 98.2446C120.765 98.6782 120.991 99.1118 121.19 99.5536C121.294 99.7827 121.372 100.036 121.589 100.2C122.292 100.715 122.656 99.57 122.856 99.1609C123.081 98.6864 123.264 98.1301 123.567 97.7047C123.836 97.3283 124.53 97.1729 124.955 96.9847C125.406 96.7884 126.569 96.5429 126.569 95.9375C126.569 95.5857 126.248 95.4467 125.962 95.3403C125.415 95.1276 124.886 94.8821 124.357 94.6449C124.105 94.5385 123.784 94.4485 123.611 94.2358C123.463 94.0558 123.385 93.8022 123.281 93.5977L122.405 91.806C122.231 91.446 121.667 91.7569 121.841 92.1169V92.0514Z" fill="#2B63A8"/>
<path d="M96.7514 0.757526L98.2696 3.86639C98.313 3.96457 98.3997 4.0382 98.4951 4.0791L101.792 5.51082C102.156 5.66626 102.156 6.14895 101.792 6.3044L98.4951 7.73611C98.391 7.77702 98.313 7.85883 98.2696 7.94882L96.7514 11.0577C96.5865 11.4013 96.0747 11.4013 95.9099 11.0577L94.3917 7.94882C94.3483 7.85065 94.2615 7.77702 94.1661 7.73611L90.8695 6.3044C90.5051 6.14895 90.5051 5.66626 90.8695 5.51082L94.1661 4.0791C94.2702 4.0382 94.3483 3.95638 94.3917 3.86639L95.9099 0.757526C96.0747 0.413914 96.5865 0.413914 96.7514 0.757526Z" fill="white"/>
<path d="M96.4649 0.912934L97.853 3.75182C98.0178 4.07907 98.2 4.2836 98.5557 4.43904L100.273 5.18353L101.15 5.55987C101.254 5.60896 101.557 5.67441 101.627 5.7644C101.887 6.10801 100.837 6.37799 100.655 6.45162L98.7379 7.27793C98.3908 7.42519 98.1306 7.53155 97.9397 7.86698C97.6621 8.35785 97.4452 8.88145 97.2023 9.3805L96.7946 10.215C96.7165 10.3786 96.6297 10.6977 96.4909 10.8286C96.1439 11.164 95.9357 10.3786 95.8316 10.1741L94.9554 8.37421C94.7906 8.0306 94.6691 7.64608 94.3047 7.44973C93.8536 7.2043 93.3418 7.03249 92.8733 6.82796C92.3354 6.59889 91.6934 6.41072 91.2076 6.10801C90.7218 5.80531 91.277 5.65804 91.5807 5.52715L93.6888 4.61085C94.0965 4.43086 94.4869 4.3245 94.7038 3.92362C95.0074 3.37548 95.259 2.78643 95.5366 2.22193L95.9964 1.28927C96.0225 1.24018 96.2567 0.593866 96.4649 0.904753C96.6905 1.24018 97.2544 0.929296 97.0288 0.593866C96.6211 -0.0197258 95.8663 0.127536 95.5627 0.716585C95.259 1.30563 94.9814 1.91922 94.6865 2.51645C94.5129 2.87643 94.3394 3.55547 93.9924 3.80909C93.8536 3.90726 93.6367 3.96453 93.4806 4.02998L92.4482 4.47995C91.8843 4.72539 91.277 4.9381 90.7391 5.22444C90.1319 5.54351 90.1319 6.26346 90.7391 6.58252C91.2857 6.86887 91.8843 7.08158 92.4482 7.32701L93.4806 7.77698C93.6367 7.84243 93.8536 7.8997 93.9924 7.99788C94.3394 8.25149 94.5129 8.93054 94.6865 9.29051C94.9814 9.88774 95.259 10.5013 95.5627 11.0904C95.8663 11.6794 96.6384 11.8349 97.0288 11.2131C97.2977 10.7877 97.4799 10.2886 97.6968 9.84683C97.9658 9.30687 98.1826 8.66874 98.521 8.1615C98.7292 7.85061 99.2931 7.72789 99.6314 7.58063L101.67 6.69706C102.191 6.47617 102.676 5.98529 102.208 5.44533C102.052 5.26535 101.826 5.19171 101.609 5.10172L100.499 4.61903L99.2844 4.09543C99.0936 4.01362 98.8246 3.94817 98.6598 3.82545C98.495 3.70273 98.4429 3.50638 98.3561 3.33458L97.8356 2.26284L97.0288 0.61841C96.8553 0.258436 96.2914 0.569322 96.4649 0.929296V0.912934Z" fill="#2B63A8"/>
<path d="M96.5692 0.855505L97.9572 3.69439C98.1134 4.01346 98.2782 4.19344 98.6165 4.34071L100.334 5.0852L101.21 5.46153C101.332 5.5188 101.592 5.56789 101.688 5.66607C102.165 6.1324 100.933 6.45964 100.716 6.54964L98.7987 7.37594C98.4691 7.51502 98.2261 7.6132 98.044 7.92408C97.7664 8.41496 97.5495 8.93856 97.3066 9.43761L96.8988 10.2721C96.8121 10.4521 96.734 10.7384 96.5952 10.8857C96.1267 11.4093 95.8404 10.4603 95.7276 10.2312L94.8514 8.43132C94.6953 8.11225 94.5825 7.72773 94.2441 7.54775C93.793 7.30231 93.2812 7.1305 92.8127 6.92597C92.2748 6.68872 91.6502 6.50055 91.147 6.20603C90.9735 6.10785 90.5658 6.0424 90.9909 5.65788C91.1037 5.55153 91.3813 5.48608 91.5288 5.42881L93.6369 4.51251C94.0273 4.34071 94.4003 4.24253 94.6085 3.8662C94.9122 3.31805 95.1637 2.72901 95.4413 2.1645L95.9012 1.23184C95.9445 1.14185 95.9792 1.01095 96.0486 0.937317C96.1441 0.830961 96.1614 0.217369 96.5778 0.847324C96.7166 1.06004 97.0723 0.863686 96.9335 0.650974C96.5692 0.111013 95.9358 0.266457 95.6756 0.773693C95.3633 1.36274 95.0943 1.97633 94.7994 2.57356C94.6172 2.94172 94.435 3.65348 94.062 3.9071C93.6195 4.20163 93.0036 4.36525 92.5177 4.57796C91.9538 4.8234 91.3379 5.02793 90.8087 5.32245C90.2795 5.61698 90.2882 6.19784 90.8087 6.48419C91.3379 6.77871 91.9625 6.98324 92.5177 7.22868C93.0036 7.44139 93.6195 7.60502 94.062 7.89954C94.435 8.14498 94.6172 8.86492 94.7994 9.23308C95.0943 9.83031 95.3719 10.4439 95.6756 11.0329C95.9358 11.5402 96.5778 11.7038 96.9335 11.1557C97.2025 10.7384 97.3846 10.2312 97.6015 9.7894C97.8705 9.24126 98.0873 8.61949 98.4257 8.10407C98.6512 7.76864 99.2151 7.63774 99.5795 7.4823L101.618 6.59872C102.061 6.40238 102.538 6.00968 102.13 5.5188C101.991 5.347 101.757 5.28155 101.558 5.19155L100.447 4.70886C99.8658 4.45524 99.1284 4.25889 98.6079 3.9071C98.417 3.78438 98.3563 3.56349 98.2609 3.37532L97.7403 2.30358L96.9335 0.659155C96.8207 0.430081 96.465 0.626431 96.5778 0.855505H96.5692Z" fill="white"/>
<path d="M96.2915 1.01087L97.3065 3.09709C97.5494 3.60432 97.7403 4.19337 98.2521 4.51244C98.8247 4.86423 99.5448 5.08512 100.161 5.3551C100.456 5.47782 100.742 5.6169 101.037 5.73144C101.315 5.84598 101.592 5.82143 101.236 6.01778C100.274 6.54956 99.0503 6.73773 98.1394 7.36769C97.7143 7.66221 97.5408 8.17763 97.3325 8.61941C97.0463 9.23301 96.7339 9.83842 96.4737 10.452C96.5171 10.3457 96.3436 10.7465 96.3436 10.7465C96.3002 10.7465 96.1961 10.5093 96.1787 10.4766C96.1093 10.3538 96.0659 10.2148 96.0052 10.0839C95.6929 9.39663 95.3372 8.71759 95.0162 8.03855C94.5044 6.96681 93.0122 6.70501 91.9538 6.25504C91.7716 6.18141 91.3639 6.05051 91.2251 5.90325L91.1383 5.86234C91.2511 5.86234 91.3639 5.82143 91.468 5.76417C91.5374 5.73962 91.6068 5.71508 91.6762 5.68235C92.4396 5.37147 93.177 5.02786 93.9318 4.70879C94.4523 4.48789 94.756 4.25882 95.0075 3.76795C95.3546 3.10527 95.6495 2.42623 95.9792 1.75537C96.092 1.53447 96.2047 1.3054 96.3088 1.0845C96.3349 1.02724 96.3696 0.978149 96.3869 0.912699C96.465 0.634537 96.2741 0.953605 96.2828 0.994511C96.3089 1.36267 96.9942 1.22359 97.1504 1.05178C97.428 0.749074 97.1764 0.356375 96.8814 0.160026C96.5344 -0.0690483 96.092 -0.0445046 95.7536 0.18457C95.2765 0.511819 95.0769 1.19904 94.8427 1.68173C94.5998 2.19715 94.4003 2.73711 94.14 3.23617C93.845 3.82522 93.151 3.9643 92.5611 4.20155C91.9712 4.43881 91.3465 4.6597 90.7826 4.95422C90.3836 5.16694 90.0365 5.47782 90.0712 5.94415C90.1059 6.41048 90.531 6.69683 90.9475 6.90136C91.52 7.17134 92.1186 7.40041 92.7172 7.62949C93.0122 7.74402 93.3158 7.8422 93.5935 7.98128C93.9578 8.16945 94.0966 8.41488 94.2528 8.77486C94.461 9.28209 94.6952 9.77297 94.9295 10.272C95.1637 10.7711 95.3632 11.4256 95.9098 11.6792C97.1157 12.2437 97.6102 10.4684 97.9398 9.7566C98.2695 9.04484 98.443 8.22671 99.2325 7.91583C99.9438 7.62948 100.647 7.32678 101.349 7.02407C101.852 6.80318 102.546 6.5332 102.581 5.91961C102.616 5.30602 102.009 5.0524 101.505 4.83969C100.803 4.53698 100.083 4.267 99.3799 3.97248C98.8681 3.75158 98.6512 3.51433 98.4256 3.03982C98.2521 2.67984 98.0786 2.31987 97.8964 1.9599L97.3586 0.863611C97.2545 0.6509 97.1677 0.372738 96.9161 0.274563C96.4563 0.110939 96.17 0.560906 96.2308 0.929061C96.3002 1.31358 96.9248 1.14995 96.8554 0.765437L96.7079 0.98633L96.8901 1.35448L97.0723 1.72264L97.5147 2.63076C97.7403 3.09709 97.9225 3.77613 98.3476 4.11974C98.7727 4.46335 99.3366 4.61061 99.8311 4.79878C100.161 4.9215 100.482 5.06876 100.811 5.20784C101.072 5.32238 101.462 5.40419 101.67 5.576C102.234 6.04233 101.566 6.25504 101.219 6.4023C100.872 6.54956 100.542 6.69683 100.195 6.84409C99.6576 7.07316 99.0416 7.25315 98.5384 7.54767C98.0786 7.81765 97.8704 8.30853 97.6709 8.76667C97.4106 9.33936 97.1677 9.92023 96.8901 10.4929C96.76 10.7629 96.5778 11.2783 96.17 11.1392C95.9098 11.0492 95.7536 10.542 95.6495 10.3375C95.3806 9.79751 95.1116 9.24937 94.8861 8.69304C94.7386 8.32489 94.5825 7.94037 94.2528 7.67857C93.8624 7.37587 93.3332 7.2286 92.8647 7.04862C92.2835 6.81954 91.6241 6.61501 91.0863 6.30413C90.7045 6.08323 90.5571 5.82143 91.0082 5.54327C91.3205 5.34692 91.7022 5.2242 92.0492 5.08512C92.8907 4.74969 94.1487 4.49608 94.6258 3.68613C94.8687 3.26889 95.0075 2.80256 95.2158 2.36896C95.3459 2.09898 95.476 1.829 95.6061 1.55902C95.745 1.27267 95.8664 0.839068 96.17 0.667262C96.3783 0.544544 96.9942 0.6509 96.5171 0.356375C96.4043 0.290926 96.2742 0.241838 96.1353 0.274563C95.8751 0.340013 95.823 0.58545 95.7276 0.781799C95.4847 1.31358 95.2158 1.829 94.9642 2.36078C94.7126 2.89256 94.5044 3.68613 93.9925 4.01338C93.4807 4.34063 92.83 4.52062 92.2835 4.75787C91.8063 4.96241 91.1123 5.12603 90.7219 5.45328C89.8717 6.16505 91.2164 6.63956 91.7716 6.86045C92.3529 7.0977 92.9515 7.3186 93.524 7.57222C93.8103 7.69493 94.088 7.80129 94.2701 8.04673C94.4263 8.25944 94.513 8.54578 94.6258 8.77486C94.8948 9.33118 95.181 9.8875 95.4413 10.452C95.5628 10.722 95.6669 11.0411 95.9271 11.2292C96.7426 11.8183 97.1677 10.3866 97.3933 9.93659C97.6882 9.33936 97.9051 8.63578 98.2955 8.08763C98.6425 7.59676 99.5361 7.38405 100.083 7.15497C100.534 6.95862 101.002 6.80318 101.445 6.59047C101.731 6.45139 102.078 6.23868 102.087 5.89506C102.087 5.49418 101.714 5.33874 101.375 5.21602C100.681 4.94604 100.005 4.62698 99.3192 4.33245C98.9895 4.18519 98.5731 4.07065 98.3476 3.78431C98.1654 3.54705 98.0613 3.23617 97.9312 2.97437L96.8207 0.699987C96.6472 0.340013 96.0833 0.6509 96.2568 1.01087H96.2915Z" fill="#2B63A8"/>
<path d="M65.858 121.97C49.9907 121.97 36.9342 125.357 35.2686 129.701C42.5993 132.164 53.5823 133.726 65.858 133.726C78.1337 133.726 89.1254 132.164 96.4474 129.701C94.7818 125.349 81.7253 121.97 65.858 121.97Z" fill="#3C2415"/>
<path d="M67.2113 133.874V104.56C67.2113 99.8234 67.6451 94.9719 65.589 90.5213C64.3484 87.8461 62.622 85.449 61.6677 82.6428C61.0171 80.7366 60.6267 78.7322 60.7482 76.7196C60.8609 74.9279 61.4075 73.169 62.3878 71.6309C63.533 69.831 65.1986 68.4729 66.7429 66.9921C68.2871 65.5113 69.6057 63.8015 70.0048 61.6825C70.3171 60.0054 70.0916 58.3937 69.4582 56.8065C68.6688 54.843 67.7058 52.9695 67.0638 50.9487C66.0575 47.8072 65.5196 44.5428 65.3374 41.2704C65.3114 40.8777 64.6608 40.8777 64.6868 41.2704C64.9644 46.1955 66.1095 50.9242 68.1656 55.4566C68.7989 56.8474 69.4409 58.2464 69.5016 59.7845C69.5884 61.928 68.7642 63.8996 67.3067 65.5195C65.9621 67.0167 64.3224 68.2357 63.0124 69.7574C61.7805 71.1809 60.8696 72.8172 60.4272 74.6007C59.5076 78.3149 60.566 82.1601 62.1796 85.5635C63.5069 88.3533 65.3461 90.8322 66.1009 93.8593C66.4392 95.2337 66.578 96.6245 66.578 98.0235C66.578 99.5861 66.578 101.149 66.578 102.711V133.882C66.578 134.275 67.2287 134.275 67.2287 133.882L67.2113 133.874Z" fill="#2B63A8"/>
<path d="M53.4695 100.232L55.7424 105.117C55.6991 105.157 55.6644 105.133 55.6297 105.117C55.2132 105.01 54.8055 104.904 54.3891 104.806C54.3023 104.781 54.2503 104.74 54.2156 104.667C53.5129 103.137 52.8015 101.615 52.0901 100.093C52.0554 100.02 52.0467 99.946 52.0727 99.8642C52.1248 99.7088 52.1769 99.5533 52.2029 99.3897C52.2289 99.2425 52.2896 99.2016 52.4458 99.2506C52.7841 99.3488 53.1312 99.4388 53.4782 99.4961C53.9119 99.5697 54.3544 99.5697 54.7795 99.4306C55.2046 99.2915 55.5256 99.0297 55.7164 98.6371C55.7771 98.5225 55.7598 98.4734 55.6123 98.4325C54.6233 98.1871 53.6343 97.9335 52.654 97.688L52.3677 97.6144C52.6453 97.3853 52.8969 97.1726 53.1485 96.9681C53.2092 96.919 53.27 96.9681 53.322 96.9681C54.1201 97.1644 54.9183 97.369 55.7164 97.5735C55.7685 97.5899 55.8292 97.6308 55.8726 97.5899C55.9073 97.5489 55.8726 97.4917 55.8552 97.4426C55.6991 96.9435 55.3 96.6736 54.8315 96.4854C54.2676 96.2563 53.669 96.1336 53.0791 95.9863C53.0184 95.97 52.9576 95.9536 52.8535 95.9291C53.1311 95.7 53.3827 95.4873 53.6343 95.2827C53.6777 95.25 53.7211 95.2664 53.7558 95.2827C55.621 95.7491 57.4775 96.2236 59.3341 96.6899C59.3514 96.7554 59.2994 96.7635 59.2733 96.7881C59.0825 96.9517 58.8743 97.1072 58.6921 97.279C58.6053 97.3608 58.5272 97.369 58.4145 97.3362C57.9807 97.2217 57.5382 97.1153 57.0698 96.9926C57.1132 97.1235 57.1565 97.2381 57.1912 97.3608C57.2346 97.5162 57.2606 97.6798 57.2433 97.8435C57.2433 97.9498 57.278 97.9825 57.3821 98.0071C57.8766 98.1216 58.3711 98.2525 58.9003 98.3916C58.7268 98.5389 58.5619 98.6452 58.4318 98.7925C58.2063 99.0379 57.9633 99.0952 57.651 98.9643C57.4862 98.8989 57.3127 98.8743 57.1392 98.8252C57.0611 98.8089 57.0177 98.8089 56.983 98.8825C56.5579 99.7088 55.8118 100.11 54.8749 100.241C54.4585 100.298 54.0421 100.29 53.6343 100.216C53.5996 100.216 53.5562 100.208 53.5215 100.2C53.5129 100.2 53.5042 100.2 53.4782 100.216L53.4695 100.232Z" fill="white"/>
<path d="M56.0027 62.6069L60.6875 65.6013C60.6788 65.6585 60.6267 65.6503 60.592 65.6585C60.1843 65.7812 59.7765 65.8958 59.3688 66.0185C59.282 66.043 59.2126 66.0349 59.1346 65.9858C57.6771 65.0531 56.2109 64.1123 54.7535 63.1796C54.6754 63.1305 54.632 63.0814 54.6147 62.9996C54.5713 62.8442 54.5279 62.6887 54.4585 62.5333C54.3978 62.3942 54.4238 62.3369 54.5887 62.296C54.927 62.206 55.274 62.1161 55.6037 61.9852C56.0114 61.8215 56.3845 61.6088 56.6707 61.2816C56.957 60.9461 57.0785 60.5698 57.0178 60.1362C57.0004 60.0053 56.9657 59.9726 56.8182 60.0135C55.8466 60.308 54.8663 60.5862 53.8946 60.8725L53.6083 60.9543C53.7124 60.6189 53.8079 60.3162 53.9033 60.0135C53.9293 59.948 53.9987 59.948 54.0508 59.9317C54.8402 59.7026 55.6297 59.4735 56.4192 59.2363C56.4712 59.2199 56.5493 59.2363 56.558 59.1708C56.558 59.1217 56.4972 59.089 56.4539 59.0563C56.0374 58.7127 55.5516 58.6881 55.0398 58.7618C54.4325 58.8517 53.8599 59.0481 53.27 59.2117C53.2093 59.2281 53.1485 59.2444 53.0444 59.2772C53.1485 58.9417 53.244 58.639 53.3394 58.3363C53.3567 58.2872 53.4001 58.2791 53.4435 58.2709C55.2827 57.7309 57.1219 57.1991 58.9611 56.6592C59.0131 56.7001 58.9784 56.741 58.9611 56.7737C58.8916 57.011 58.8049 57.2482 58.7442 57.4855C58.7181 57.6 58.6574 57.6491 58.536 57.6736C58.1022 57.7964 57.6684 57.9273 57.2086 58.0582C57.3214 58.1482 57.4255 58.2218 57.5123 58.3036C57.6424 58.4181 57.7465 58.5409 57.8332 58.6799C57.8853 58.7699 57.946 58.7781 58.0501 58.7536C58.536 58.6063 59.0218 58.4672 59.551 58.3118C59.4903 58.5245 59.4035 58.6963 59.3775 58.8845C59.3254 59.2035 59.1519 59.3753 58.8136 59.4244C58.6401 59.449 58.4752 59.5226 58.3017 59.5635C58.2236 59.5799 58.1976 59.6126 58.2063 59.6944C58.3104 60.6107 57.9027 61.3225 57.1913 61.9033C56.8703 62.1651 56.5146 62.3615 56.1242 62.5088C56.0895 62.5251 56.0548 62.5415 56.0201 62.5578C56.0201 62.5578 56.0114 62.5742 55.9941 62.5906L56.0027 62.6069Z" fill="white"/>
<path d="M76.26 73.2921L78.533 78.1763C78.4896 78.2172 78.4549 78.1927 78.4202 78.1763C78.0038 78.07 77.596 77.9636 77.1796 77.8654C77.0929 77.8409 77.0408 77.8 77.0061 77.7264C76.3034 76.1965 75.592 74.6748 74.8806 73.1531C74.8459 73.0794 74.8373 73.0058 74.8633 72.924C74.9153 72.7685 74.9674 72.6131 74.9934 72.4495C75.0194 72.3022 75.0802 72.2613 75.2363 72.3104C75.5747 72.4086 75.9217 72.4986 76.2687 72.5558C76.7025 72.6295 77.1449 72.6295 77.57 72.4904C77.9951 72.3513 78.3161 72.0895 78.5069 71.6968C78.5677 71.5823 78.5503 71.5332 78.4028 71.4923C77.4138 71.2468 76.4248 70.9932 75.4445 70.7478L75.1582 70.6742C75.4359 70.4451 75.6874 70.2324 75.939 70.0278C75.9998 69.9787 76.0605 70.0278 76.1125 70.0278C76.9107 70.2242 77.7088 70.4287 78.5069 70.6332C78.559 70.6496 78.6197 70.6905 78.6631 70.6496C78.6978 70.6087 78.6631 70.5514 78.6458 70.5023C78.4896 70.0033 78.0905 69.7333 77.6221 69.5451C77.0582 69.3161 76.4595 69.1934 75.8696 69.0461C75.8089 69.0297 75.7482 69.0134 75.6441 68.9888C75.9217 68.7597 76.1733 68.547 76.4248 68.3425C76.4682 68.3098 76.5116 68.3261 76.5463 68.3425C78.4115 68.8088 80.268 69.2833 82.1246 69.7497C82.1419 69.8151 82.0899 69.8233 82.0639 69.8478C81.873 70.0115 81.6648 70.1669 81.4826 70.3387C81.3958 70.4205 81.3178 70.4287 81.205 70.396C80.7712 70.2814 80.3288 70.1751 79.8603 70.0524C79.9037 70.1833 79.9471 70.2978 79.9818 70.4205C80.0251 70.576 80.0512 70.7396 80.0338 70.9032C80.0338 71.0096 80.0685 71.0423 80.1726 71.0668C80.6671 71.1814 81.1616 71.3123 81.6908 71.4514C81.5173 71.5986 81.3525 71.705 81.2223 71.8522C80.9968 72.0977 80.7539 72.155 80.4416 72.0241C80.2767 71.9586 80.1032 71.9341 79.9297 71.885C79.8516 71.8686 79.8082 71.8686 79.7735 71.9422C79.3485 72.7685 78.6024 73.1694 77.6654 73.3003C77.249 73.3576 76.8326 73.3494 76.4248 73.2758C76.3901 73.2758 76.3468 73.2676 76.3121 73.2594C76.3034 73.2594 76.2947 73.2594 76.2687 73.2758L76.26 73.2921Z" fill="white"/>
</svg>
