<svg width="600" height="600" viewBox="0 0 600 600" fill="none" xmlns="http://www.w3.org/2000/svg">
<g clip-path="url(#clip0_785_1524)">
<path d="M261.995 389.08H221.755C218.091 389.08 215.117 386.106 215.117 382.442V353.129C215.117 351.336 215.847 349.611 217.135 348.363L236.797 329.351C239.333 326.895 243.342 326.855 245.918 329.258L266.495 348.349C267.849 349.611 268.619 351.363 268.619 353.208V382.442C268.619 386.106 265.646 389.08 261.981 389.08H261.995Z" fill="#C5D8E3"/>
<path d="M325.147 389.08H284.908C281.243 389.08 278.27 386.106 278.27 382.442V325.249C278.27 323.457 279 321.731 280.287 320.483L299.949 301.472C302.485 299.016 306.494 298.976 309.07 301.379L329.648 320.47C331.002 321.731 331.772 323.483 331.772 325.329V382.442C331.772 386.106 328.798 389.08 325.134 389.08H325.147Z" fill="#C5D8E3"/>
<path d="M388.288 389.08H348.048C344.384 389.08 341.41 386.106 341.41 382.442V313.301C341.41 311.508 342.14 309.782 343.428 308.534L363.09 289.523C365.626 287.067 369.635 287.027 372.21 289.43L392.788 308.521C394.142 309.782 394.912 311.535 394.912 313.38V382.442C394.912 386.106 391.939 389.08 388.274 389.08H388.288Z" fill="url(#paint0_linear_785_1524)"/>
<path d="M383.972 265.241C383.893 271.866 379.777 277.973 373.471 280.217C367.165 282.46 359.89 280.482 355.628 275.225C351.366 269.968 351.008 262.613 354.446 256.957C357.885 251.302 364.669 248.288 371.134 249.616C378.582 251.142 383.879 257.674 383.972 265.241C383.999 267.804 387.982 267.804 387.955 265.241C387.849 256.931 382.738 249.523 374.945 246.575C367.152 243.628 358.057 246.084 352.827 252.443C347.596 258.803 346.614 268.295 351.021 275.544C355.429 282.792 363.806 286.324 371.984 284.757C381.251 282.978 387.849 274.561 387.968 265.241C387.995 262.679 384.012 262.679 383.986 265.241H383.972Z" fill="#221F20"/>
<path d="M208.425 336.454C217.068 328.263 225.724 320.071 234.367 311.88C248.001 298.962 261.636 286.045 275.27 273.141C278.297 270.273 281.297 267.366 284.364 264.525C288.546 260.661 295.038 260.157 299.552 263.808C303.455 266.967 306.19 271.056 311.314 272.464C316.744 273.964 322.413 272.304 326.436 268.454C327.724 267.22 329.011 265.958 330.299 264.71C336.207 258.988 342.115 253.253 348.009 247.531C359.52 236.366 371.043 225.201 382.554 214.036L383.231 213.385C385.076 211.593 382.261 208.779 380.416 210.571C370.406 220.276 360.396 229.994 350.386 239.698L330.83 258.657L324.909 264.392C323.037 266.211 321.218 267.87 318.603 268.614C315.204 269.583 311.474 268.919 308.619 266.821C306.933 265.587 305.473 263.927 303.973 262.493C299.22 257.953 292.821 255.895 286.502 258.497C282.333 260.21 278.987 264.153 275.761 267.206C262.738 279.54 249.714 291.873 236.69 304.22C226.494 313.871 216.311 323.523 206.115 333.175L205.598 333.666C203.739 335.432 206.553 338.246 208.412 336.48L208.425 336.454Z" fill="#221F20"/>
<path d="M361.14 214.182H382.183L380.192 212.191V232.237C380.192 234.8 384.174 234.8 384.174 232.237V212.191C384.174 211.115 383.258 210.199 382.183 210.199H361.14C358.578 210.199 358.578 214.182 361.14 214.182Z" fill="#221F20"/>
<path d="M368.03 265.799C369.211 265.799 370.38 265.799 371.561 265.799C371.893 265.799 371.999 265.892 371.973 266.21C371.946 266.609 371.946 267.007 371.973 267.405C371.999 267.764 371.866 267.857 371.521 267.843C369.371 267.843 367.207 267.843 365.056 267.843C364.498 267.843 364.512 267.843 364.671 268.374C365.348 270.738 367.671 271.614 369.862 271.428C370.738 271.348 371.588 271.162 372.411 270.817C372.663 270.711 372.729 270.738 372.796 271.03C372.955 271.853 373.154 272.676 373.353 273.499C373.406 273.751 373.406 273.937 373.114 274.057C369.663 275.437 366.33 275.397 363.197 273.233C361.538 272.078 360.555 270.432 360.144 268.454C360.051 267.976 359.865 267.83 359.374 267.843C358.112 267.883 358.112 267.857 358.099 266.569C358.099 266.073 358.351 265.821 358.856 265.812C359.732 265.812 359.706 265.812 359.745 264.923C359.772 264.431 359.653 264.272 359.135 264.299C358.099 264.339 358.099 264.299 358.086 263.29C358.086 262.608 358.422 262.267 359.095 262.267C360.038 262.267 360.011 262.254 360.33 261.338C361.538 257.82 363.954 255.749 367.671 255.244C369.437 255.005 371.136 255.271 372.796 255.829C373.167 255.948 373.327 256.081 373.194 256.519C372.955 257.289 372.769 258.086 372.61 258.869C372.53 259.28 372.424 259.36 371.999 259.214C370.658 258.723 369.291 258.457 367.87 258.829C366.291 259.254 365.268 260.263 364.711 261.776C364.578 262.161 364.618 262.281 365.056 262.267C367.18 262.241 369.304 262.267 371.428 262.241C371.853 262.241 372.039 262.334 371.973 262.785C371.906 263.276 372.172 263.927 371.866 264.206C371.588 264.445 370.95 264.285 370.472 264.285C368.494 264.285 366.529 264.285 364.551 264.285C364.206 264.285 364.1 264.378 364.1 264.724C364.1 265.786 364.087 265.786 365.149 265.786C366.105 265.786 367.074 265.786 368.03 265.786V265.799Z" fill="url(#paint1_linear_785_1524)"/>
</g>
<defs>
<linearGradient id="paint0_linear_785_1524" x1="341.423" y1="338.366" x2="394.926" y2="338.366" gradientUnits="userSpaceOnUse">
<stop stop-color="#9BCB9E"/>
<stop offset="1" stop-color="#78C1C4"/>
</linearGradient>
<linearGradient id="paint1_linear_785_1524" x1="358.073" y1="265.069" x2="373.367" y2="265.069" gradientUnits="userSpaceOnUse">
<stop stop-color="#9BCB9E"/>
<stop offset="1" stop-color="#78C1C4"/>
</linearGradient>
<clipPath id="clip0_785_1524">
<rect width="189.927" height="179.08" fill="white" transform="translate(205 210)"/>
</clipPath>
</defs>
</svg>
