<svg width="102" height="95" viewBox="0 0 102 95" fill="none" xmlns="http://www.w3.org/2000/svg">
<g clip-path="url(#clip0_434_9727)">
<path d="M0.209961 88.352L7.21536 94.4817L94.7828 58.5791L101.263 13.044L89.879 9.54132L0.209961 14.7954V88.352Z" fill="#0565AD"/>
<path d="M7.21533 94.4817L100.037 84.8493L100.912 13.9197L7.21533 20.9251V94.4817Z" fill="#6E94D0"/>
<path d="M7.21559 94.832C10.2804 94.4817 13.3453 94.219 16.4977 93.8688L38.6523 91.592L65.4479 88.7898L88.5657 86.4255L96.1841 85.6374C97.41 85.5498 98.636 85.5498 99.8619 85.2871C99.8619 85.2871 99.9495 85.2871 100.037 85.2871C100.212 85.2871 100.387 85.112 100.387 84.9369C100.475 76.9682 100.562 68.9996 100.65 60.9434L101.088 22.764C101.088 19.8743 101.088 16.897 101.175 14.0073C101.175 13.8321 101 13.657 100.825 13.657C97.6727 13.9197 94.6079 14.0948 91.4554 14.3575L69.1258 16.0213L42.0674 18.0354L18.5994 19.7867L10.8934 20.3997C9.66748 20.4872 8.35397 20.3997 7.21559 20.6624C7.21559 20.6624 7.12802 20.6624 7.04045 20.6624C6.86532 20.6624 6.69019 20.8375 6.69019 21.0126V94.5693C6.69019 94.5693 7.39072 95.0071 7.39072 94.5693V20.9251L7.04045 21.2753C10.1929 21.0126 13.2577 20.8375 16.4102 20.5748L38.7399 18.911L65.7982 16.897L89.2663 15.1456L96.9722 14.5327L99.4241 14.3575C99.4241 14.3575 100.387 14.3575 100.65 14.27C100.65 14.27 100.738 14.27 100.825 14.27L100.475 13.9197C100.387 21.8883 100.3 29.857 100.212 37.9132L99.7743 76.0926C99.7743 78.9823 99.7743 81.9596 99.6868 84.8493L100.037 84.499C96.9722 84.8493 93.9073 85.112 90.7549 85.4623L68.6003 87.739L41.8047 90.5412L18.6869 92.9055L11.0686 93.6936C9.93018 93.7812 8.61667 93.7812 7.39072 94.0439C7.39072 94.0439 7.30316 94.0439 7.21559 94.0439C6.77775 94.0439 6.77775 94.7444 7.21559 94.7444V94.832Z" fill="#0565AD"/>
<path d="M13.4326 57.2656L100.037 47.3705L100.3 13.8322L7.21533 20.9251L8.96668 23.2019V53.2375C8.96668 55.6018 11.0683 57.4407 13.4326 57.178V57.2656Z" fill="#223838"/>
<path d="M16.3223 58.9294L96.4465 50.5229C98.986 50.2602 101 48.071 101 45.5315L101.263 13.1316L7.21533 20.9251L10.718 22.6764V53.8504C10.718 56.8277 13.3451 59.1921 16.3223 58.9294Z" fill="#0565AD"/>
<path d="M45.7446 64.7089L66.7608 62.0818V48.9467L45.7446 51.5737V64.7089Z" fill="#223838"/>
<path d="M47.4961 64.7089L68.5123 62.0818V48.9467L47.4961 51.5737V64.7089Z" fill="#0565AD"/>
<path d="M62.383 15.6712C64.8011 15.6712 66.7614 14.8871 66.7614 13.9199C66.7614 12.9526 64.8011 12.1685 62.383 12.1685C59.9649 12.1685 58.0046 12.9526 58.0046 13.9199C58.0046 14.8871 59.9649 15.6712 62.383 15.6712Z" fill="#223838"/>
<path d="M41.3671 17.4224C43.7852 17.4224 45.7455 16.6383 45.7455 15.671C45.7455 14.7038 43.7852 13.9197 41.3671 13.9197C38.949 13.9197 36.9888 14.7038 36.9888 15.671C36.9888 16.6383 38.949 17.4224 41.3671 17.4224Z" fill="#223838"/>
<path d="M62.3825 1.13476C56.2527 1.5726 50.123 2.01044 43.9933 2.36071C43.1176 2.36071 42.242 2.44828 41.3663 2.53584C39.9652 2.62341 38.7393 3.67422 38.7393 5.16287V14.2699C38.7393 17.685 43.9933 17.685 43.9933 14.2699V7.61475C49.2473 7.26448 54.5014 6.91421 59.7554 6.56394V12.5185C59.7554 15.9337 65.0095 15.9337 65.0095 12.5185V3.76179C65.0095 2.44828 63.7835 1.0472 62.3825 1.13476Z" fill="#6E94D0"/>
<path d="M62.6459 0.784589C58.0924 1.13486 53.5389 1.39756 48.9854 1.74783C46.7962 1.92297 44.607 2.01053 42.4178 2.18567C41.1919 2.18567 39.966 2.44837 39.1778 3.58675C38.8276 4.11215 38.74 4.63756 38.6524 5.16296C38.6524 6.3889 38.6524 7.61485 38.6524 8.84079V12.0808C38.6524 12.9565 38.5649 13.9197 38.6524 14.7954C39.0027 16.7219 41.1043 17.5975 42.7681 16.897C43.7314 16.5467 44.3443 15.6711 44.4319 14.7078C44.5195 13.7446 44.4319 12.6062 44.4319 11.5554V7.61485L44.0816 7.96512C46.7962 7.78998 49.5108 7.61485 52.1378 7.43971C54.6773 7.26458 57.3043 7.26458 59.8438 6.91431L59.4935 6.56404C59.4935 8.57809 59.4059 10.5046 59.4935 12.5186C59.4935 13.3943 59.7562 14.0948 60.4567 14.7078C61.5951 15.6711 63.3465 15.6711 64.4848 14.7078C65.0978 14.1824 65.3605 13.4819 65.4481 12.6938C65.5356 10.8548 65.4481 9.01593 65.4481 7.17701C65.4481 5.77593 65.7983 3.84945 65.0978 2.53594C64.7475 1.39756 63.7843 0.784589 62.6459 0.784589C62.2081 0.784589 62.2081 1.39756 62.6459 1.48513C64.2221 1.48513 64.9227 2.79864 64.9227 4.19972C64.9227 5.6008 64.9227 6.82674 64.9227 8.14025V11.9057C64.9227 12.7813 64.9227 13.7446 64.047 14.27C62.9962 15.0581 61.3324 14.7954 60.6319 13.7446C60.1065 12.8689 60.2816 11.5554 60.2816 10.5921V6.56404C60.2816 6.56404 60.1065 6.21377 59.9313 6.21377C57.3919 6.56404 54.7649 6.56404 52.2254 6.73917C49.5108 6.91431 46.7962 7.08944 44.1692 7.26458C43.9941 7.26458 43.8189 7.43971 43.8189 7.61485C43.8189 9.80403 43.9941 12.0808 43.8189 14.27C43.8189 15.5835 42.7681 16.5467 41.4546 16.4592C39.8784 16.4592 39.2654 15.2332 39.2654 13.8321C39.2654 11.5554 39.2654 9.3662 39.2654 7.08944C39.2654 6.1262 39.0903 4.90026 39.6157 4.02458C40.2287 3.06134 41.2795 2.88621 42.3303 2.79864C44.5195 2.62351 46.7086 2.53594 48.8978 2.3608C53.4513 2.01053 58.0048 1.74783 62.5584 1.39756C62.9962 1.39756 62.9962 0.697021 62.5584 0.697021L62.6459 0.784589Z" fill="#0565AD"/>
</g>
<defs>
<clipPath id="clip0_434_9727">
<rect width="101.053" height="94.0474" fill="white" transform="translate(0.209961 0.784424)"/>
</clipPath>
</defs>
</svg>
