<svg width="109" height="69" viewBox="0 0 109 69" fill="none" xmlns="http://www.w3.org/2000/svg">
<g clip-path="url(#clip0_434_9765)">
<path d="M100.844 1.18304H7.60122C4.07979 1.18304 1.2251 4.03773 1.2251 7.55917V62.2297C1.2251 65.7511 4.07979 68.6058 7.60122 68.6058H100.844C104.366 68.6058 107.22 65.7511 107.22 62.2297V7.55917C107.22 4.03773 104.366 1.18304 100.844 1.18304Z" fill="#0565AD"/>
<path d="M100.844 68.3534H15.4926C12.9043 68.3534 10.2528 68.3534 7.6645 68.3534C4.12922 68.3534 1.47776 65.5126 1.47776 62.0404C1.47776 60.6516 1.47776 59.2627 1.47776 57.8739V10.0214C1.47776 8.69565 1.3515 7.24366 1.66715 5.98106C2.48784 3.01395 5.20243 1.4357 8.10641 1.4357H100.024C102.17 1.4357 104.19 1.94074 105.579 3.70838C106.968 5.47602 106.968 7.30679 106.968 9.32695V61.7879C106.968 62.4824 106.968 63.1137 106.779 63.8081C106.084 66.5227 103.622 68.3534 100.844 68.4166C100.529 68.4166 100.529 68.9216 100.844 68.9216C104.632 68.8585 107.473 65.8282 107.473 62.1036C107.473 60.5885 107.473 59.1365 107.473 57.6213V9.32695C107.473 7.55931 107.473 5.8548 106.589 4.21342C105.263 1.94074 102.928 0.930664 100.402 0.930664H8.04328C5.39182 0.993794 2.92975 2.19326 1.66715 4.5922C0.909594 6.17045 0.972724 7.81183 0.972724 9.45321V49.0988C0.972724 53.3916 0.972724 57.7476 0.972724 62.0404C0.972724 65.7651 3.81357 68.7953 7.60137 68.8585C8.23267 68.8585 8.86397 68.8585 9.5584 68.8585H100.844C100.844 68.8585 101.16 68.3534 100.844 68.3534Z" fill="#0565AD"/>
<path d="M101.665 1.18304H11.0739C7.55244 1.18304 4.69775 4.03773 4.69775 7.55917V58.7575C4.69775 62.279 7.55244 65.1337 11.0739 65.1337H101.665C105.187 65.1337 108.041 62.279 108.041 58.7575V7.55917C108.041 4.03773 105.187 1.18304 101.665 1.18304Z" fill="#6E94D0"/>
<path d="M101.538 64.7551H19.4064C16.6287 64.7551 13.9141 64.7551 11.1364 64.7551C7.66425 64.7551 4.88653 62.1037 4.8234 58.5684C4.8234 57.4321 4.8234 56.3589 4.8234 55.2225V9.64269C4.8234 8.31696 4.69714 6.86498 5.07592 5.53925C5.95974 2.76153 8.6112 1.24641 11.452 1.24641H100.465C101.917 1.24641 103.306 1.24641 104.632 2.0671C106.526 3.20344 107.662 5.2236 107.662 7.37002C107.662 7.7488 107.662 8.06445 107.662 8.44322V58.1896C107.662 58.9472 107.662 59.7047 107.41 60.3992C106.589 62.9875 104.19 64.6289 101.538 64.692C101.223 64.692 101.223 65.197 101.538 65.197C105.263 65.1339 108.104 62.1037 108.167 58.379C108.167 56.927 108.167 55.5382 108.167 54.0862V8.50635C108.167 8.12757 108.167 7.81192 108.167 7.43315C108.167 5.60238 107.41 3.83474 106.084 2.57214C103.622 0.299462 100.15 0.741372 97.0562 0.741372H11.3889C8.80058 0.741372 6.40165 1.94084 5.13905 4.21352C4.31836 5.79177 4.31836 7.43315 4.31836 9.13765V47.1419C4.31836 50.9297 4.31836 54.7806 4.31836 58.5684C4.31836 62.3562 7.28547 65.1339 10.947 65.197C11.7046 65.197 12.4621 65.197 13.1566 65.197H101.475C101.475 65.197 101.791 64.692 101.475 64.692L101.538 64.7551Z" fill="#0565AD"/>
<path d="M107.978 11.1576H4.82349V18.7332H107.978V11.1576Z" fill="#223838"/>
<path d="M101.539 38.3035H63.2192V43.3539H101.539V38.3035Z" fill="#223838"/>
<path d="M89.039 47.1417H63.1558V52.1921H89.039V47.1417Z" fill="#223838"/>
<path d="M18.0181 52.8234C20.9817 52.8234 23.3842 50.4209 23.3842 47.4574C23.3842 44.4938 20.9817 42.0913 18.0181 42.0913C15.0546 42.0913 12.6521 44.4938 12.6521 47.4574C12.6521 50.4209 15.0546 52.8234 18.0181 52.8234Z" fill="#FFB800"/>
<path d="M23.1945 47.4576C23.1945 49.604 21.8056 51.561 19.7854 52.3186C17.7653 53.0761 15.4926 52.3817 14.1038 50.7403C12.7149 49.0989 12.5886 46.7 13.6618 44.8692C14.7351 43.0385 16.9446 42.0284 19.0279 42.4703C21.4268 42.9122 23.1313 45.0586 23.1945 47.5207C23.1945 47.8363 23.6995 47.8363 23.6995 47.5207C23.6995 45.1849 22.2475 43.1016 20.1011 42.2809C17.9547 41.4602 15.3032 42.1547 13.7881 43.9854C12.273 45.8162 12.0836 48.4045 13.2831 50.4247C14.4825 52.4448 16.8183 53.4549 19.091 53.0761C21.7425 52.5711 23.6364 50.2353 23.6995 47.5838C23.6995 47.2682 23.2576 47.2682 23.1945 47.5838V47.4576Z" fill="#0565AD"/>
<path d="M24.9617 52.8234C27.9253 52.8234 30.3278 50.4209 30.3278 47.4574C30.3278 44.4938 27.9253 42.0913 24.9617 42.0913C21.9982 42.0913 19.5957 44.4938 19.5957 47.4574C19.5957 50.4209 21.9982 52.8234 24.9617 52.8234Z" fill="#FFB800"/>
<path d="M30.1383 47.4576C30.1383 49.604 28.7495 51.561 26.7293 52.3186C24.7091 53.0761 22.4365 52.3817 21.0476 50.7403C19.6587 49.0989 19.5325 46.7 20.6057 44.8692C21.6789 43.0385 23.8884 42.0284 25.9717 42.4703C28.3707 42.9122 30.0752 45.0586 30.1383 47.5207C30.1383 47.8363 30.6434 47.8363 30.6434 47.5207C30.6434 45.1849 29.1914 43.1016 27.0449 42.2809C24.8985 41.4602 22.2471 42.1547 20.732 43.9854C19.2168 45.8162 19.0274 48.4045 20.2269 50.4247C21.4264 52.4448 23.7622 53.4549 26.0349 53.0761C28.6863 52.5711 30.5802 50.2353 30.6434 47.5838C30.6434 47.2682 30.2014 47.2682 30.1383 47.5838V47.4576Z" fill="#0565AD"/>
</g>
<defs>
<clipPath id="clip0_434_9765">
<rect width="107.195" height="68.1172" fill="white" transform="translate(0.972656 0.741333)"/>
</clipPath>
</defs>
</svg>
