<svg width="600" height="600" viewBox="0 0 600 600" fill="none" xmlns="http://www.w3.org/2000/svg">
<g clip-path="url(#clip0_785_1287)">
<path d="M379.16 295.385C397.164 288.83 410.003 271.55 410.003 251.295C410.003 225.376 388.993 204.38 363.088 204.38C346.428 204.38 331.807 213.05 323.484 226.131C330.508 228.563 347.41 235.45 361.321 252.775C375.202 270.055 378.299 288.014 379.16 295.385Z" fill="#C5D8E3"/>
<path d="M376.229 307.892C376.184 325.307 370.807 342.315 360.762 356.543C350.718 370.772 336.928 381.164 321.022 386.949C304.438 392.99 286.116 393.685 269.123 388.882C252.69 384.245 237.963 374.518 227.072 361.377C216.137 348.175 209.445 331.56 208.146 314.477C206.847 297.394 210.926 279.42 219.973 264.421C228.764 249.875 241.92 238.214 257.372 231.176C273.322 223.91 291.629 221.902 308.788 225.406C325.947 228.91 340.93 237.323 352.757 249.618C364.675 262.019 372.544 277.954 375.217 294.932C375.897 299.222 376.184 303.557 376.199 307.892C376.199 310.807 380.746 310.807 380.731 307.892C380.67 289.585 375.021 271.475 364.357 256.551C353.92 241.96 339.284 230.738 322.442 224.56C305.601 218.382 285.693 217.506 267.9 222.536C250.107 227.566 235.063 237.595 223.704 251.401C212.345 265.206 205.065 282.848 203.63 301.049C202.195 319.25 206.576 337.95 216.061 353.658C225.547 369.367 239.096 381.284 255.318 388.64C272.31 396.328 291.463 398.488 309.755 394.818C328.046 391.148 343.74 382.191 356.14 369.201C368.526 356.241 376.894 339.551 379.643 321.803C380.353 317.196 380.731 312.559 380.746 307.892C380.746 304.976 376.229 304.976 376.214 307.892H376.229Z" fill="#221F20"/>
<path d="M288.608 219.213C281.041 219.213 273.534 219.122 266.012 220.24C255.665 221.781 245.59 225.225 236.437 230.3C218.281 240.359 204.083 256.763 196.591 276.097C188.843 296.095 188.752 318.933 196.319 338.992C203.645 358.401 217.707 374.925 235.772 385.136C244.941 390.317 255.061 393.882 265.483 395.483C273.383 396.706 281.282 396.585 289.257 396.585H292.052C294.967 396.585 294.967 392.054 292.052 392.054C286.252 392.054 280.421 392.235 274.636 391.918C264.516 391.374 254.426 388.973 245.182 384.819C227.057 376.677 212.194 362.253 203.524 344.369C194.597 325.941 192.86 304.372 198.464 284.706C203.917 265.629 216.257 248.788 232.782 237.807C241.059 232.309 250.227 228.306 259.894 226.01C268.292 224.016 276.706 223.744 285.285 223.744H288.593C291.508 223.744 291.508 219.213 288.593 219.213H288.608Z" fill="#221F20"/>
<path d="M295.197 310.641C301.269 310.641 307.341 310.701 313.413 310.595C315.105 310.565 315.648 311.079 315.528 312.74C315.392 314.779 315.377 316.849 315.528 318.888C315.664 320.715 314.999 321.184 313.232 321.184C302.115 321.123 290.998 321.168 279.881 321.168C276.981 321.168 277.087 321.123 277.887 323.933C281.361 336.107 293.384 340.623 304.637 339.656C309.169 339.264 313.564 338.297 317.748 336.484C319.032 335.926 319.409 336.107 319.696 337.572C320.512 341.831 321.569 346.061 322.551 350.275C322.853 351.559 322.823 352.54 321.358 353.13C303.595 360.259 286.361 360.032 270.229 348.855C261.665 342.919 256.575 334.415 254.475 324.235C253.977 321.788 253.025 321.002 250.488 321.093C243.947 321.335 243.947 321.199 243.917 314.492C243.907 311.914 245.206 310.625 247.814 310.625C252.345 310.625 252.194 310.625 252.421 306.034C252.557 303.496 251.938 302.696 249.264 302.801C243.932 303.028 243.932 302.862 243.872 297.62C243.832 294.126 245.563 292.359 249.068 292.319C253.946 292.273 253.811 292.228 255.427 287.516C261.665 269.39 274.111 258.666 293.279 256.098C302.356 254.875 311.117 256.234 319.727 259.104C321.66 259.753 322.476 260.403 321.751 262.669C320.497 266.641 319.545 270.719 318.745 274.813C318.322 276.927 317.778 277.365 315.618 276.58C308.731 274.057 301.662 272.653 294.336 274.601C286.18 276.761 280.923 281.987 278.068 289.827C277.358 291.79 277.57 292.409 279.881 292.379C290.817 292.258 301.767 292.379 312.718 292.273C314.893 292.258 315.845 292.742 315.543 295.083C315.21 297.59 316.6 300.974 314.969 302.424C313.564 303.677 310.256 302.847 307.794 302.847C297.614 302.862 287.448 302.892 277.268 302.816C275.501 302.816 274.942 303.285 274.927 305.097C274.927 310.61 274.836 310.61 280.319 310.595C285.273 310.595 290.243 310.595 295.197 310.595V310.641Z" fill="url(#paint0_linear_785_1287)"/>
</g>
<defs>
<linearGradient id="paint0_linear_785_1287" x1="243.872" y1="306.834" x2="322.717" y2="306.834" gradientUnits="userSpaceOnUse">
<stop stop-color="#9BCB9E"/>
<stop offset="1" stop-color="#78C1C4"/>
</linearGradient>
<clipPath id="clip0_785_1287">
<rect width="219.272" height="192.22" fill="white" transform="translate(190.727 204.365)"/>
</clipPath>
</defs>
</svg>
