<svg width="109" height="62" viewBox="0 0 109 62" fill="none" xmlns="http://www.w3.org/2000/svg">
<g clip-path="url(#clip0_434_10018)">
<path d="M101.733 3.57288H7.50047C3.64541 3.57288 0.520264 6.69802 0.520264 10.5531V54.1793C0.520264 58.0344 3.64541 61.1595 7.50047 61.1595H101.733C105.588 61.1595 108.713 58.0344 108.713 54.1793V10.5531C108.713 6.69802 105.588 3.57288 101.733 3.57288Z" fill="#223838"/>
<path d="M101.733 0.664307H7.50047C3.64541 0.664307 0.520264 3.78945 0.520264 7.64451V51.2708C0.520264 55.1258 3.64541 58.251 7.50047 58.251H101.733C105.588 58.251 108.713 55.1258 108.713 51.2708V7.64451C108.713 3.78945 105.588 0.664307 101.733 0.664307Z" fill="white"/>
<path d="M101.733 58.0182H9.24504C8.66335 58.0182 8.08167 58.0182 7.44182 58.0182C3.60271 58.0182 0.694288 54.8189 0.694288 51.038C0.694288 46.559 0.694288 42.1382 0.694288 37.6593V9.68029C0.694288 7.93524 0.577951 6.19019 1.45048 4.56147C2.73018 2.1184 5.23142 0.896865 7.90716 0.896865H101.209C103.71 0.896865 106.037 1.88573 107.433 4.09613C108.538 5.84118 108.48 7.6444 108.48 9.56395V37.3103C108.48 41.8474 108.48 46.4427 108.48 50.9798C108.48 54.8189 105.63 57.96 101.733 58.0182C101.442 58.0182 101.442 58.4835 101.733 58.4835C105.746 58.4835 108.887 55.1679 108.946 51.1543C108.946 49.7001 108.946 48.3041 108.946 46.8499V9.68029C108.946 7.99341 109.062 6.36469 108.364 4.73598C107.142 2.00206 104.408 0.431519 101.5 0.431519C98.708 0.431519 95.9741 0.431519 93.182 0.431519H7.849C5.34776 0.431519 3.07919 1.42038 1.56681 3.51444C0.345278 5.31766 0.287109 7.23722 0.287109 9.27311V46.1519C0.287109 47.7806 0.287109 49.4093 0.287109 50.9798C0.287109 54.4699 2.61384 57.611 6.16211 58.309C7.03464 58.4835 7.90717 58.4254 8.83786 58.4254H101.733C101.733 58.4254 102.024 57.96 101.733 57.96V58.0182Z" fill="#0565AD"/>
<path d="M55.7799 11.3088L60.4916 25.9091L76.0225 23.9314L75.848 25.9091L63.4 34.9252L68.2861 47.5477L68.1698 49.4673L55.7799 40.4512L43.3319 49.4673L43.2156 47.5477L48.1017 34.9252L35.6537 25.9091L35.5374 23.9314L51.0101 25.9091L55.7799 11.3088Z" fill="#223838"/>
<path d="M55.7796 9.3894L60.4912 23.9315H75.8477L63.3996 32.9476L68.1694 47.5478L55.7796 38.5318L43.3315 47.5478L48.1013 32.9476L35.6533 23.9315H51.0098L55.7796 9.3894Z" fill="#F4AD00"/>
<path d="M68.2855 47.7224L68.111 47.6061L55.7793 38.6482L43.215 47.7806V47.5479L47.9848 33.0058L35.4204 23.8734H50.9514L55.7212 9.09863L60.491 23.8734H76.0219L75.8474 23.9897L63.4576 32.9477L68.2274 47.7224H68.2855ZM55.7793 38.4737L67.9947 47.3734L63.2831 32.9477L75.4984 24.0479H60.3165L55.663 9.62215L50.9514 24.0479H35.7694L48.0429 32.9477L43.3895 47.3734L55.663 38.4737H55.7793Z" fill="#375D97"/>
<path d="M86.6087 20.6156L90.2151 31.7839L102.14 30.3297L102.023 31.7839L92.4837 38.706L96.2064 48.4782L96.0901 49.9325L86.6087 43.0104L77.069 49.9325L76.9527 48.4782L80.6755 38.706L71.194 31.7839L71.0195 30.3297L82.944 31.7839L86.6087 20.6156Z" fill="#223838"/>
<path d="M86.609 19.1035L90.2154 30.33H102.024L92.484 37.252L96.0904 48.4204L86.609 41.4983L77.0693 48.4204L80.6758 37.252L71.1943 30.33H82.9443L86.609 19.1035Z" fill="#F4AD00"/>
<path d="M76.8949 48.6528V48.4201L80.5595 37.2518L70.9036 30.2134H82.8281L86.4927 18.8706L90.1573 30.2134H102.082L101.907 30.3298L92.4259 37.2518L96.0905 48.5946L95.916 48.4783L86.4345 41.6144L76.7786 48.6528H76.8949ZM71.3689 30.3879L80.7922 37.1936L77.2439 48.2456L86.609 41.4399L95.9741 48.2456L92.3677 37.1936L101.733 30.3879H90.0991L86.5509 19.336L82.9444 30.3879H71.3107H71.3689Z" fill="#375D97"/>
<path d="M24.3684 20.6156L27.9749 31.7839L39.8994 30.3297L39.783 31.7839L30.2434 38.706L33.9662 48.4782L33.8499 49.9325L24.3684 43.0104L14.8288 49.9325L14.7125 48.4782L18.4352 38.706L8.9538 31.7839L8.7793 30.3297L20.7038 31.7839L24.3684 20.6156Z" fill="#223838"/>
<path d="M24.369 19.1035L27.9754 30.33H39.7836L30.244 37.252L33.8504 48.4204L24.369 41.4983L14.8293 48.4204L18.4358 37.252L8.95435 30.33H20.7044L24.369 19.1035Z" fill="#F4AD00"/>
<path d="M14.6547 48.6528V48.4201L18.3193 37.2518L8.66333 30.2134H20.5878L24.2524 18.8706L27.9171 30.2134H39.8416L39.6671 30.3298L30.1856 37.2518L33.8502 48.5946L33.6757 48.4783L24.1943 41.6144L14.5383 48.6528H14.6547ZM9.12868 30.3879L18.552 37.1936L15.0037 48.2456L24.3688 41.4399L33.7339 48.2456L30.1275 37.1936L39.4926 30.3879H27.8589L24.3106 19.336L20.7042 30.3879H9.07051H9.12868Z" fill="#375D97"/>
</g>
<defs>
<clipPath id="clip0_434_10018">
<rect width="108.658" height="60.7278" fill="white" transform="translate(0.287109 0.431519)"/>
</clipPath>
</defs>
</svg>
