<svg width="600" height="600" viewBox="0 0 600 600" fill="none" xmlns="http://www.w3.org/2000/svg">
<g clip-path="url(#clip0_785_1412)">
<path d="M256.367 329.839H229.501C224.802 329.839 220.992 333.655 220.992 338.363V346.181C220.992 350.889 224.802 354.705 229.501 354.705H256.367C261.067 354.705 264.876 350.889 264.876 346.181V338.363C264.876 333.655 261.067 329.839 256.367 329.839Z" fill="#C1D9E5"/>
<path d="M237.86 342.719C237.563 345.064 236.374 346.404 234.348 346.423C232.305 346.441 230.948 345.12 230.93 343.016C230.911 340.876 232.23 339.685 234.33 339.61C236.541 339.536 237.395 341.062 237.879 342.7L237.86 342.719Z" fill="black"/>
<path d="M251.666 339.592C253.84 339.908 255.085 341.137 254.936 343.221C254.787 345.287 253.338 346.553 251.294 346.423C249.232 346.292 248.025 344.878 248.136 342.775C248.247 340.615 249.66 339.666 251.666 339.592Z" fill="black"/>
<path d="M357.716 323.901H379.547C379.751 324.627 381.739 331.793 377.094 337.563C374.289 341.062 370.573 342.142 369.18 342.477C368.046 342.216 363.16 340.988 359.909 336.186C356.174 330.695 357.493 324.813 357.735 323.883L357.716 323.901Z" fill="url(#paint0_linear_785_1412)"/>
<path d="M300.399 360.773C300.696 365.351 300.993 369.93 301.291 374.49C301.328 375.142 301.383 375.812 301.421 376.463C301.514 377.934 302.628 379.292 304.208 379.255C308.295 379.162 312.364 379.05 316.451 378.957C317.027 378.957 317.603 378.92 318.179 378.92C319.628 378.883 321.04 377.654 320.966 376.128C320.892 374.602 319.74 373.299 318.179 373.336C314.092 373.429 310.023 373.541 305.935 373.634C305.359 373.634 304.783 373.671 304.208 373.671L306.994 376.463C306.697 371.885 306.4 367.306 306.103 362.746C306.065 362.094 306.01 361.424 305.973 360.773C305.88 359.321 304.765 357.906 303.186 357.981C301.755 358.037 300.306 359.209 300.399 360.773Z" fill="black"/>
<path d="M394.87 299.723C397.509 299.779 399.571 297.844 399.627 295.238C399.682 292.595 397.75 290.603 395.112 290.566C392.474 290.529 390.319 292.502 390.263 295.014C390.207 297.527 392.307 299.668 394.87 299.723Z" fill="black"/>
<path d="M349.113 295.238C349.187 292.799 347.032 290.622 344.468 290.547C341.904 290.473 339.749 292.501 339.711 295.051C339.674 297.564 341.774 299.76 344.282 299.816C346.716 299.872 349.038 297.676 349.113 295.238Z" fill="black"/>
<path d="M222.587 289.021C220.005 288.872 218.035 291.515 219.299 293.749C220.729 296.261 222.848 298.309 225.3 299.779C227.511 301.101 230.205 299.221 230.131 296.634C230.075 294.586 224.668 289.151 222.569 289.021H222.587Z" fill="black"/>
<path d="M260.824 299.612C262.831 298.086 264.707 296.262 266.249 294.27C267.94 292.074 266.249 289.077 263.556 289.003C261.233 288.947 255.622 294.679 255.752 296.969C255.901 299.537 258.762 301.175 260.824 299.612Z" fill="black"/>
<path d="M419.861 273.368C419.787 273.256 419.713 273.163 419.638 273.051C424.413 266.518 425.732 257.491 419.75 251.144C413.359 244.369 404.013 246.956 398.439 253.006C391.249 248.576 384.078 244.164 376.888 239.735C371.723 236.552 366 235.584 360.594 239.009C356.896 241.373 353.273 243.885 349.632 246.324C346.325 248.52 343.036 250.735 339.729 252.931C334.155 246.919 324.847 244.388 318.474 251.144C312.492 257.491 313.811 266.537 318.605 273.07C314.907 278.914 312.269 285.429 311.043 292.334C308.274 307.894 312.715 323.771 322.413 336.13C325.107 339.573 328.173 342.421 331.461 345.175C322.915 353.495 314.387 361.797 305.841 370.116C303.258 372.629 307.215 376.575 309.779 374.062C319.05 365.035 328.321 356.008 337.592 346.981C338.596 346.013 338.763 343.966 337.592 343.035C329.473 336.465 322.692 328.964 318.958 318.987C313.737 304.991 315.13 289.561 322.841 276.755C327.225 269.478 333.375 263.484 340.584 259.036C347.867 254.178 355.15 249.32 362.433 244.462C364.235 243.252 366.037 242.229 368.323 242.285C370.422 242.322 372.076 243.29 373.803 244.351C378.077 246.975 382.35 249.618 386.623 252.242C390.302 254.513 393.98 256.765 397.659 259.036C409.866 266.537 418.802 278.654 421.626 292.799C424.376 306.591 420.4 321.109 411.872 332.165C407.58 337.73 402.397 343.109 394.909 343.221C394.649 343.221 394.426 343.258 394.203 343.314C393.423 340.038 392.345 336.8 391.417 333.561C388.351 322.896 385.267 312.212 382.201 301.547C381.217 298.104 375.829 299.574 376.832 303.036C379.303 311.58 381.755 320.141 384.226 328.685C385.546 333.245 386.846 337.786 388.165 342.346C389.633 347.428 389.429 352.546 385.211 356.362C383.855 357.59 382.35 358.335 380.752 358.8C378.077 353.681 375.401 348.563 372.707 343.444C372.299 342.644 371.871 341.862 371.462 341.062C370.515 339.257 367.579 339.219 366.65 341.062C363.696 346.832 360.761 352.583 357.807 358.353C357.658 358.651 357.491 358.949 357.342 359.265C356.655 359.172 355.949 359.061 355.261 358.837C348.759 356.753 345.897 349.866 347.718 343.575C348.796 339.815 349.929 336.074 351.044 332.314C353.942 322.505 356.841 312.678 359.72 302.869C360.742 299.407 355.354 297.937 354.351 301.38C351.62 310.649 348.889 319.918 346.158 329.169C344.894 333.431 343.631 337.693 342.386 341.955C340.361 348.917 342.237 356.399 347.978 361.052C351.062 363.565 354.444 364.458 357.992 364.793C358.476 364.979 359.033 364.998 359.535 364.905C361.467 364.998 363.418 364.979 365.406 364.979C370.645 364.979 376.702 365.761 381.83 364.384C389.076 362.448 394.036 355.934 394.631 348.768C394.742 348.768 394.835 348.786 394.947 348.786C402.88 348.656 408.714 344.357 413.749 338.605C418.542 333.152 422.295 326.916 424.803 320.104C430.47 304.656 428.519 287.271 419.88 273.331L419.861 273.368ZM322.06 268.231C319.701 264.266 318.958 259.241 322.097 255.462C325.832 250.977 331.443 252.484 335.066 256.021C330.142 259.427 325.739 263.559 322.042 268.249L322.06 268.231ZM416.238 268.212C412.541 263.522 408.138 259.408 403.214 256.021C406.837 252.484 412.448 250.977 416.183 255.481C419.323 259.259 418.598 264.266 416.238 268.231V268.212ZM370.162 359.433H363.529C365.387 355.803 367.245 352.174 369.103 348.544C371.017 352.192 372.912 355.841 374.825 359.489C373.265 359.489 371.704 359.433 370.162 359.433Z" fill="black"/>
<path d="M275.298 229.535C275.446 231.768 275.595 234.021 275.743 236.254C275.781 236.906 275.836 237.576 275.873 238.227C275.966 239.679 277.081 241.093 278.66 241.019C280.091 240.963 281.54 239.79 281.447 238.227C281.15 233.648 280.853 229.07 280.555 224.509L280.425 222.537C280.332 221.066 279.218 219.707 277.638 219.745C273.551 219.838 269.482 219.949 265.395 220.042C264.819 220.042 264.243 220.08 263.667 220.08C262.218 220.117 260.806 221.345 260.88 222.872C260.954 224.361 262.106 225.701 263.667 225.663C266.268 225.608 268.869 225.533 271.47 225.477C263.871 232.867 256.272 240.256 248.692 247.664C247.317 249.004 245.979 250.418 244.549 251.703C242.617 253.434 240.982 251.982 239.217 250.809C235.761 248.52 232.138 246.082 227.939 248.52C226.36 249.432 224.948 250.735 223.517 251.852L219.838 254.662C216.903 256.505 213.577 258.347 211.236 260.897C204.065 259.929 196.41 255.667 192.453 248.799C189.814 244.202 188.811 238.86 189.164 233.592C189.35 230.726 190.316 228.232 190.892 225.459C191.375 223.132 189.814 220.675 187.251 220.824C184.779 220.973 182.94 223.932 181.584 225.719C180.005 227.785 178.593 229.982 177.441 232.308C175.118 236.887 173.725 241.801 173.186 246.901C172.164 256.914 175.304 266.965 181.677 274.708C184.687 278.375 188.384 281.315 192.434 283.586C188.031 286.527 184.538 290.938 184.018 296.336C183.888 297.713 183.943 299.109 185.002 300.114C185.578 300.654 186.247 301.138 186.935 301.529C189.424 302.981 192.323 303.613 195.165 303.818C200.312 304.19 205.551 303.036 210.456 301.398C211.088 305.14 211.849 308.862 212.797 312.547C214.766 320.179 217.498 328.573 223.22 334.268C225.765 336.8 229.704 332.854 227.159 330.323C222.681 325.856 220.489 319.341 218.798 313.385C216.903 306.74 215.677 299.891 214.822 293.023C213.837 285.075 213.837 277.351 213.837 269.329C213.837 267.84 214.098 266.593 214.711 265.513C217.312 263.522 219.894 261.53 222.495 259.539C222.848 259.297 223.22 259.073 223.573 258.831C223.852 258.645 224.075 258.422 224.26 258.18C224.409 258.068 224.539 257.956 224.688 257.845C224.966 257.621 225.245 257.398 225.524 257.175V268.882C225.524 270.334 226.806 271.748 228.311 271.674C229.816 271.6 231.097 270.446 231.097 268.882V255.909C231.097 255.072 230.67 254.271 230.038 253.75C232.602 252.093 235.222 254.811 237.396 256.244C238.232 256.802 239.105 257.231 239.997 257.547V268.882C239.997 270.334 241.279 271.748 242.784 271.674C244.289 271.6 245.571 270.446 245.571 268.882V257.528C246.463 257.175 247.336 256.635 248.172 255.89C249.138 255.016 250.067 254.048 250.996 253.136C255.771 248.483 260.564 243.829 265.339 239.176C268.665 235.956 271.972 232.718 275.298 229.498V229.535ZM189.201 296.354C189.201 296.354 189.09 296.261 189.034 296.224C189.183 296.317 189.35 296.429 189.201 296.354ZM187.362 272.735C181.026 266.09 178.017 257.044 178.685 247.924C179.02 243.383 180.32 238.86 182.401 234.802C182.81 234.002 183.275 233.22 183.739 232.438C183.014 240.721 185.151 249.115 190.502 255.667C194.887 261.028 201.129 264.396 207.799 265.867C207.873 266.369 208.078 266.853 208.357 267.263C207.818 272.102 208.208 277.258 208.282 282.097C208.282 282.432 208.301 282.767 208.319 283.102C200.405 282.06 192.936 278.523 187.362 272.698V272.735ZM198.695 286.49C198.584 286.527 198.435 286.601 198.157 286.713C198.324 286.639 198.491 286.564 198.64 286.471C198.64 286.471 198.677 286.471 198.695 286.49ZM199.81 298.16C198.472 298.29 197.135 298.346 195.797 298.272C195.463 298.272 195.128 298.234 194.794 298.197C194.701 298.197 194.292 298.141 194.162 298.123C193.753 298.048 193.344 297.992 192.936 297.899C192.508 297.806 192.1 297.695 191.672 297.564C191.487 297.508 190.799 297.229 190.706 297.192C190.316 297.006 189.944 296.82 189.573 296.596C189.703 295.331 190.075 294.233 190.743 293.06C191.579 291.59 192.508 290.603 194.013 289.319C194.162 289.207 194.292 289.077 194.441 288.965C194.478 288.928 194.534 288.891 194.571 288.872C194.868 288.649 195.165 288.444 195.481 288.239C196.001 287.886 196.54 287.569 197.098 287.253C197.488 287.029 197.878 286.825 198.268 286.639C198.379 286.583 198.547 286.508 198.677 286.452C201.91 287.606 205.31 288.332 208.728 288.705C208.821 289.524 208.914 290.343 209.007 291.143C209.174 292.669 209.378 294.214 209.583 295.74C206.369 296.857 202.931 297.806 199.791 298.104L199.81 298.16Z" fill="black"/>
<path d="M292.706 283.661C304.281 277.146 312.363 265.29 312.511 250.995C312.623 240.665 308.535 230.577 301.661 222.946C300.063 221.178 297.592 219.8 295.548 221.904C293.542 223.97 295.177 226.817 295.716 229.144C296.923 234.374 296.645 239.884 294.861 244.965C292.892 250.549 288.804 255.146 283.602 257.938C280.685 259.501 276.765 260.618 273.941 260.972C272.492 259.445 270.671 258.254 268.831 257.044C265.283 254.699 262.18 252.317 257.721 252.131C256.142 252.056 255.269 253.117 255.064 254.308C254.711 254.774 254.488 255.332 254.488 255.984V268.957C254.488 270.408 255.77 271.823 257.275 271.748C258.78 271.674 260.062 270.52 260.062 268.957V258.217C262.069 258.98 263.871 260.451 265.636 261.605C267.902 263.094 270.819 264.415 271.21 267.449C271.47 269.496 271.228 271.693 271.228 273.74C271.228 276.476 271.265 279.194 271.228 281.93C271.135 291.292 269.389 300.989 267.159 310.035C265.431 317.052 263.165 325.092 257.907 330.341C255.362 332.872 259.3 336.837 261.846 334.287C267.122 329.02 269.816 321.426 271.786 314.371C272.975 310.072 273.885 305.717 274.61 301.324C281.874 303.744 290.495 305.288 297.481 301.696C299.041 300.896 300.843 299.723 300.955 297.806C301.252 293.302 298.781 288.928 295.586 285.95C294.694 285.112 293.728 284.368 292.706 283.661ZM292.501 258.385C299.562 251.852 302.72 241.968 301.81 232.494C304.039 236.235 305.618 240.312 306.417 244.593C308.071 253.527 305.897 263.056 300.323 270.259C294.601 277.611 285.906 282.06 276.765 283.158C276.765 282.804 276.802 282.469 276.802 282.116C276.839 279.175 276.802 276.234 276.802 273.293C276.802 270.967 277.006 268.473 276.579 266.146C282.469 265.048 288.042 262.498 292.501 258.385ZM286.779 286.583C286.668 286.546 286.612 286.508 286.537 286.49C286.537 286.49 286.537 286.49 286.556 286.49C286.63 286.527 286.705 286.564 286.779 286.601V286.583ZM294.192 297.062C294.192 297.062 293.412 297.36 293.226 297.434C292.817 297.564 292.39 297.676 291.963 297.769C291.554 297.862 291.145 297.936 290.736 297.992C290.606 297.992 290.179 298.067 290.105 298.067C289.77 298.104 289.436 298.123 289.12 298.141C287.782 298.197 286.445 298.141 285.107 298.03C282.004 297.732 278.623 296.801 275.446 295.722C275.613 294.419 275.799 293.116 275.947 291.813C276.059 290.826 276.189 289.821 276.3 288.816C279.83 288.463 283.268 287.681 286.519 286.49C286.556 286.49 286.556 286.508 286.593 286.527C286.983 286.713 287.355 286.918 287.745 287.123C288.284 287.42 288.823 287.737 289.343 288.09C289.64 288.295 289.937 288.5 290.235 288.723C290.272 288.742 290.513 288.928 290.569 288.984C290.681 289.077 290.792 289.151 290.885 289.244C291.535 289.803 292.167 290.38 292.743 291.031C292.892 291.199 293.04 291.366 293.189 291.534C293.263 291.608 293.282 291.645 293.3 291.664C293.3 291.664 293.3 291.664 293.337 291.72C293.616 292.092 293.858 292.464 294.099 292.874C294.824 294.084 295.214 295.219 295.344 296.522C294.972 296.745 294.601 296.931 294.211 297.118L294.192 297.062ZM296.013 296.001C296.013 296.001 295.994 296.038 295.976 296.038C295.883 296.094 295.771 296.187 295.66 296.261C295.586 296.187 295.66 295.945 296.013 295.982V296.001Z" fill="black"/>
</g>
<defs>
<linearGradient id="paint0_linear_785_1412" x1="357.308" y1="333.189" x2="380.141" y2="333.189" gradientUnits="userSpaceOnUse">
<stop stop-color="#8DCC9A"/>
<stop offset="1" stop-color="#5DC4C6"/>
</linearGradient>
<clipPath id="clip0_785_1412">
<rect width="255" height="159.224" fill="white" transform="translate(173 219.745)"/>
</clipPath>
</defs>
</svg>
