<svg width="600" height="600" viewBox="0 0 600 600" fill="none" xmlns="http://www.w3.org/2000/svg">
<g clip-path="url(#clip0_843_1224)">
<path d="M277.265 332.778C278.601 334.576 279.455 336.463 279.9 338.529C280.007 339.027 280.381 338.831 280.63 338.849C282.624 338.849 284.636 338.849 286.63 338.849C288.108 338.849 288.518 339.276 288.518 340.754C288.518 341.947 288.518 343.122 288.518 344.315C288.518 345.437 288.055 345.882 286.915 345.882C284.886 345.882 282.856 345.899 280.826 345.882C280.274 345.882 280.061 346.006 279.936 346.558C278.512 353.413 274.132 357.454 267.633 359.484C266.156 359.947 264.642 360.178 263.04 360.499C264.251 361.834 265.443 363.116 266.601 364.416C270.607 368.956 274.541 373.549 278.334 378.25C279.633 379.87 280.969 381.472 282.304 383.075C282.678 383.537 282.838 384 282.553 384.552C282.286 385.104 281.859 385.371 281.2 385.371C278.547 385.353 275.894 385.336 273.242 385.371C272.512 385.371 272.102 384.98 271.693 384.499C270.144 382.647 268.613 380.778 267.046 378.926C264.482 375.899 261.883 372.908 259.283 369.899C256.666 366.855 253.96 363.864 251.218 360.926C250.791 360.463 250.577 359.983 250.595 359.342C250.63 357.793 250.595 356.244 250.595 354.695C250.595 353.537 251.075 353.039 252.215 353.039C254.743 353.003 257.289 353.181 259.817 352.861C262.915 352.469 265.871 351.704 268.132 349.3C268.897 348.481 269.378 347.52 269.805 346.505C269.984 346.06 269.894 345.899 269.396 345.917C267.847 345.935 266.298 345.917 264.749 345.917C260.654 345.917 256.577 345.917 252.482 345.917C250.969 345.917 250.613 345.561 250.613 344.012C250.613 342.819 250.613 341.644 250.613 340.451C250.613 339.419 251.04 338.956 252.055 338.885C252.446 338.849 252.838 338.885 253.248 338.885C258.304 338.885 263.343 338.885 268.399 338.885C268.666 338.885 269.058 339.027 269.182 338.76C269.325 338.475 269.004 338.226 268.826 337.977C267.366 335.965 265.265 335.075 262.933 334.594C259.479 333.882 255.989 334.131 252.5 334.095C250.986 334.078 250.63 333.739 250.63 332.208C250.63 330.606 250.63 328.986 250.63 327.383C250.63 326.262 251.093 325.816 252.233 325.816C263.805 325.816 275.36 325.816 286.933 325.816C287.912 325.816 288.429 326.244 288.464 327.205C288.518 328.612 288.518 330.018 288.464 331.443C288.429 332.44 287.912 332.849 286.755 332.849C283.871 332.849 281.004 332.849 278.12 332.831C277.889 332.831 277.639 332.831 277.283 332.831L277.265 332.778Z" fill="url(#paint0_linear_843_1224)"/>
<path d="M338.206 354.713C338.082 325.692 319.743 299.324 292.503 289.265C265.263 279.206 233.589 287.823 215.126 310.185C204.764 322.719 199.12 338.458 199.049 354.713L201.72 352.042H186.07C184.111 352.042 182.651 354.339 183.755 356.066C191.019 367.336 198.301 378.606 205.565 389.876C206.598 391.496 207.649 393.099 208.681 394.719C209.803 396.446 212.171 396.428 213.292 394.719C220.717 383.431 228.141 372.143 235.565 360.856C236.651 359.218 237.72 357.58 238.806 355.942C239.945 354.215 238.432 351.936 236.491 351.918C231.31 351.864 226.111 351.811 220.93 351.74L223.601 354.41C223.69 339.864 230.598 325.817 242.456 317.235C254.509 308.529 270.177 306.09 284.295 310.844C298.414 315.597 308.847 326.565 313.227 340.185C317.607 353.805 315.186 370.06 306.319 381.989C295.922 395.965 278.064 402.766 260.99 399.615C257.625 398.992 256.183 404.137 259.565 404.761C276.818 407.93 294.711 402.499 306.8 389.663C318.105 377.645 322.948 360.731 319.85 344.547C316.859 328.879 306.194 315.045 291.791 308.155C277.387 301.265 258.907 301.479 244.396 309.633C228.319 318.677 218.349 336.001 218.242 354.393C218.242 355.853 219.47 357.045 220.913 357.063C226.094 357.117 231.292 357.17 236.473 357.241L234.159 353.218C226.735 364.505 219.31 375.793 211.886 387.081C210.8 388.719 209.732 390.357 208.646 391.995H213.257C205.993 380.725 198.711 369.455 191.447 358.185C190.414 356.565 189.364 354.962 188.331 353.342L186.016 357.366H201.649C203.091 357.366 204.319 356.137 204.319 354.695C204.444 328.078 221.251 303.455 246.39 294.304C271.53 285.152 300.8 292.933 318.105 313.728C327.648 325.194 332.74 339.829 332.812 354.713C332.812 358.149 338.171 358.149 338.153 354.713H338.206Z" fill="#231F20"/>
<path d="M402.658 197.663H310.878C307.281 197.663 303.667 197.574 300.071 197.663C292.913 197.858 286.611 202.452 284.243 209.218C283.317 211.888 283.335 214.63 283.335 217.39C283.335 234.41 283.335 251.431 283.335 268.452C283.335 270.357 283.246 272.315 283.459 274.203C284.261 281.307 289.584 287.449 296.635 288.98C300.053 289.728 303.774 289.407 307.246 289.407H323.999L321.685 288.09C325.05 295.087 328.433 302.102 331.798 309.099C332.67 310.915 335.483 310.755 336.409 309.099C340.29 302.102 344.189 295.087 348.071 288.09L345.756 289.407C364.664 289.407 383.572 289.692 402.48 289.407C410.866 289.283 418.237 283.354 419.483 274.915C419.946 271.835 419.697 268.577 419.697 265.479V227.698C419.697 223.461 419.732 219.206 419.697 214.968C419.626 205.443 412.201 197.841 402.658 197.645C399.222 197.574 399.222 202.915 402.658 202.986C409.548 203.128 414.338 208.594 414.356 215.324C414.356 218.956 414.356 222.588 414.356 226.238V262.612C414.356 265.799 414.391 268.986 414.356 272.173C414.267 278.814 409.21 283.977 402.534 284.102C393.542 284.244 384.534 284.102 375.543 284.102H345.774C344.848 284.102 343.922 284.6 343.459 285.419C339.578 292.416 335.679 299.431 331.798 306.428H336.409C333.044 299.431 329.661 292.416 326.296 285.419C325.905 284.6 324.872 284.102 323.982 284.102H302.029C297.525 284.102 293.323 282.927 290.67 278.974C288.907 276.339 288.658 273.491 288.658 270.464C288.658 253.977 288.658 237.508 288.658 221.022C288.658 218.992 288.64 216.962 288.658 214.933C288.729 209.538 292.148 204.802 297.436 203.413C300.997 202.488 305.323 203.039 308.955 203.039H361.459C374.955 203.039 388.486 203.36 401.964 203.039C402.195 203.039 402.409 203.039 402.64 203.039C406.077 203.039 406.077 197.698 402.64 197.698L402.658 197.663Z" fill="#C1D9E5"/>
<path d="M328.043 259.834L319.532 245.039H314.903V259.834H308.832V222.837H321.615C324.446 222.837 326.868 223.335 328.826 224.332C330.802 225.329 332.262 226.665 333.242 228.321C334.221 229.994 334.701 231.846 334.701 233.911C334.701 236.332 334.007 238.522 332.601 240.481C331.194 242.457 329.04 243.792 326.138 244.505L335.289 259.834H328.043ZM314.903 240.196H321.615C323.894 240.196 325.604 239.626 326.761 238.487C327.918 237.347 328.488 235.816 328.488 233.911C328.488 232.006 327.918 230.493 326.779 229.407C325.639 228.321 323.93 227.786 321.615 227.786H314.903V240.196Z" fill="#231F20"/>
<path d="M349.85 257.788C346.966 256.168 344.669 253.924 342.977 251.022C341.286 248.138 340.449 244.88 340.449 241.248C340.449 237.616 341.286 234.375 342.977 231.509C344.669 228.624 346.948 226.381 349.85 224.779C352.734 223.159 355.903 222.357 359.357 222.357C362.811 222.357 366.016 223.159 368.918 224.779C371.802 226.399 374.081 228.642 375.755 231.509C377.428 234.375 378.265 237.633 378.265 241.248C378.265 244.862 377.428 248.12 375.755 251.022C374.081 253.906 371.802 256.168 368.918 257.788C366.034 259.408 362.847 260.209 359.357 260.209C355.868 260.209 352.752 259.408 349.85 257.788ZM365.891 253.265C367.814 252.144 369.31 250.541 370.396 248.476C371.482 246.393 372.016 243.989 372.016 241.265C372.016 238.541 371.482 236.138 370.396 234.073C369.31 232.007 367.814 230.441 365.891 229.337C363.969 228.233 361.796 227.681 359.339 227.681C356.882 227.681 354.71 228.233 352.787 229.337C350.865 230.441 349.369 232.025 348.283 234.073C347.197 236.138 346.663 238.524 346.663 241.265C346.663 244.007 347.197 246.393 348.283 248.476C349.369 250.559 350.865 252.144 352.787 253.265C354.71 254.387 356.882 254.939 359.339 254.939C361.796 254.939 363.969 254.387 365.891 253.265Z" fill="#231F20"/>
<path d="M390.286 222.837V259.834H384.215V222.837H390.286Z" fill="#231F20"/>
</g>
<defs>
<linearGradient id="paint0_linear_843_1224" x1="250.613" y1="355.549" x2="288.535" y2="355.549" gradientUnits="userSpaceOnUse">
<stop stop-color="#8DCC9A"/>
<stop offset="1" stop-color="#5DC4C6"/>
</linearGradient>
<clipPath id="clip0_843_1224">
<rect width="236.386" height="208.024" fill="white" transform="translate(183.383 197.626)"/>
</clipPath>
</defs>
</svg>
