<svg width="600" height="600" viewBox="0 0 600 600" fill="none" xmlns="http://www.w3.org/2000/svg">
<g clip-path="url(#clip0_785_2009)">
<path d="M388.987 321.588V333.208C388.987 337.046 389.737 342.114 388.072 345.713C386.288 349.551 382.525 351.545 378.416 351.56C376.977 351.56 375.523 351.56 374.083 351.56H240.16C236.892 351.56 232.993 352.07 229.785 351.26C224.957 350.046 222.168 345.728 222.153 340.915C222.153 338.666 222.153 336.417 222.153 334.183V306.249C222.153 290.671 221.898 275.078 222.153 259.499C222.243 253.877 226.666 249.469 232.289 249.394C233.323 249.379 234.373 249.394 235.407 249.394H368.671C372.059 249.394 375.463 249.334 378.851 249.394C384.534 249.484 388.897 253.937 388.987 259.589C389.047 263.623 388.987 267.641 388.987 271.674V282.02C388.987 284.913 393.485 284.913 393.485 282.02C393.485 274.508 393.62 266.966 393.485 259.454C393.335 251.418 386.948 245.015 378.911 244.881C378.057 244.881 377.202 244.881 376.362 244.881H241.39C238.166 244.881 234.928 244.746 231.704 244.881C223.877 245.225 217.79 251.658 217.655 259.439C217.625 260.954 217.655 262.468 217.655 263.982V290.266C217.655 307.239 217.535 324.227 217.655 341.2C217.7 347.392 221.343 352.925 227.176 355.129C229.305 355.938 231.494 356.043 233.728 356.043H367.636C371.354 356.043 375.073 356.103 378.791 356.043C385.104 355.953 390.696 352.085 392.75 346.057C394.115 342.084 393.485 337.136 393.485 333.013V321.573C393.485 318.679 388.987 318.679 388.987 321.573V321.588Z" fill="#221F20"/>
<path d="M304.614 226.993C310.501 226.993 315.274 222.22 315.274 216.333C315.274 210.445 310.501 205.672 304.614 205.672C298.726 205.672 293.953 210.445 293.953 216.333C293.953 222.22 298.726 226.993 304.614 226.993Z" fill="url(#paint0_linear_785_2009)"/>
<path d="M237.414 236.829C243.302 236.829 248.075 232.056 248.075 226.169C248.075 220.281 243.302 215.508 237.414 215.508C231.527 215.508 226.754 220.281 226.754 226.169C226.754 232.056 231.527 236.829 237.414 236.829Z" fill="url(#paint1_linear_785_2009)"/>
<path d="M379.446 223.02C385.333 223.02 390.106 218.247 390.106 212.359C390.106 206.472 385.333 201.699 379.446 201.699C373.558 201.699 368.785 206.472 368.785 212.359C368.785 218.247 373.558 223.02 379.446 223.02Z" fill="url(#paint2_linear_785_2009)"/>
<path d="M250.159 228.418H265.197L262.948 226.169V245.136C262.948 248.029 267.446 248.029 267.446 245.136V226.169C267.446 224.954 266.412 223.92 265.197 223.92H250.159C247.265 223.92 247.265 228.418 250.159 228.418Z" fill="#221F20"/>
<path d="M366.431 210.53H339.667C338.453 210.53 337.418 211.565 337.418 212.779V245.136C337.418 248.029 341.916 248.029 341.916 245.136V212.779L339.667 215.028H366.431C369.324 215.028 369.324 210.53 366.431 210.53Z" fill="#221F20"/>
<path d="M302.332 229.512V245.136C302.332 246.35 303.367 247.385 304.581 247.385C305.796 247.385 306.83 246.35 306.83 245.136V229.512C306.83 228.298 305.796 227.263 304.581 227.263C303.367 227.263 302.332 228.298 302.332 229.512Z" fill="#221F20"/>
<path d="M304.614 395.042C310.501 395.042 315.274 390.269 315.274 384.381C315.274 378.494 310.501 373.721 304.614 373.721C298.726 373.721 293.953 378.494 293.953 384.381C293.953 390.269 298.726 395.042 304.614 395.042Z" fill="url(#paint3_linear_785_2009)"/>
<path d="M237.414 385.206C243.302 385.206 248.075 380.433 248.075 374.545C248.075 368.658 243.302 363.885 237.414 363.885C231.527 363.885 226.754 368.658 226.754 374.545C226.754 380.433 231.527 385.206 237.414 385.206Z" fill="url(#paint4_linear_785_2009)"/>
<path d="M379.446 399.015C385.333 399.015 390.106 394.242 390.106 388.355C390.106 382.467 385.333 377.694 379.446 377.694C373.558 377.694 368.785 382.467 368.785 388.355C368.785 394.242 373.558 399.015 379.446 399.015Z" fill="url(#paint5_linear_785_2009)"/>
<path d="M250.159 376.795H265.197C266.412 376.795 267.446 375.76 267.446 374.545V355.579C267.446 352.685 262.948 352.685 262.948 355.579V374.545L265.197 372.296H250.159C247.265 372.296 247.265 376.795 250.159 376.795Z" fill="#221F20"/>
<path d="M366.431 385.686H339.667L341.916 387.935V355.579C341.916 352.685 337.418 352.685 337.418 355.579V387.935C337.418 389.149 338.453 390.184 339.667 390.184H366.431C369.324 390.184 369.324 385.686 366.431 385.686Z" fill="#221F20"/>
<path d="M306.83 371.187V355.563C306.83 354.349 305.796 353.314 304.581 353.314C303.367 353.314 302.332 354.349 302.332 355.563V371.187C302.332 372.401 303.367 373.436 304.581 373.436C305.796 373.436 306.83 372.401 306.83 371.187Z" fill="#221F20"/>
<path d="M396.627 317.899C386.357 317.899 376.101 317.899 365.83 317.899C362.157 317.899 358.499 317.944 354.825 317.899C350.282 317.839 345.979 315.8 343.19 312.172C340.686 308.918 340.176 305.245 340.176 301.287C340.176 297.328 340.716 293.505 343.325 290.236C346.114 286.713 350.357 284.734 354.84 284.674C358.558 284.629 362.292 284.674 366.01 284.674H385.967C389.58 284.674 393.284 284.464 396.897 284.674C404.079 285.123 402.565 293.97 402.565 298.873V308.483C402.565 310.493 402.85 312.832 401.92 314.676C400.9 316.685 398.861 317.824 396.657 317.884C393.763 317.974 393.763 322.473 396.657 322.383C402.085 322.218 406.568 318.214 407.033 312.742C407.213 310.673 407.078 308.558 407.078 306.474V295.574C407.078 293.4 407.273 291.106 406.928 288.947C406.148 283.849 401.71 280.28 396.642 280.146C395.368 280.116 394.078 280.146 392.789 280.146H372.772C367.135 280.146 361.497 280.146 355.845 280.146C347.628 280.146 340.191 284.419 337.058 292.23C335.633 295.769 335.648 299.472 335.693 303.221C335.753 308.438 337.837 313.506 341.646 317.105C345.244 320.493 349.922 322.308 354.855 322.368C356.174 322.383 357.494 322.368 358.813 322.368C371.108 322.368 383.403 322.368 395.698 322.368H396.642C399.536 322.368 399.536 317.869 396.642 317.869L396.627 317.899Z" fill="#221F20"/>
<path d="M363.691 299.862C363.691 300.057 363.691 300.252 363.661 300.462C363.631 300.897 363.661 300.537 363.661 300.447C363.601 300.762 363.541 301.077 363.436 301.376C363.376 301.556 363.316 301.736 363.241 301.916C363.271 301.826 363.436 301.526 363.241 301.901C363.061 302.231 362.881 302.546 362.671 302.861C362.371 303.311 362.866 302.726 362.626 302.921C362.506 303.011 362.416 303.161 362.311 303.266C362.221 303.356 362.131 303.446 362.041 303.521C361.981 303.566 361.502 303.955 361.921 303.641C361.667 303.835 361.412 304 361.142 304.15C361.037 304.21 360.917 304.27 360.812 304.33C360.572 304.435 360.587 304.435 360.827 304.33C360.737 304.36 360.647 304.405 360.557 304.435C360.257 304.525 359.957 304.63 359.642 304.69C359.522 304.72 359.088 304.765 359.567 304.72C359.402 304.735 359.238 304.75 359.073 304.75C358.743 304.75 358.413 304.75 358.083 304.72C357.708 304.72 358.593 304.84 358.008 304.705C357.813 304.66 357.633 304.63 357.453 304.57C357.273 304.51 357.093 304.45 356.914 304.39C356.554 304.195 356.809 304.36 356.914 304.39C356.644 304.24 356.359 304.105 356.089 303.94C355.954 303.85 355.834 303.76 355.699 303.67C355.414 303.491 356.044 304.015 355.639 303.611C355.369 303.341 355.114 303.086 354.859 302.816C354.934 302.921 355.144 303.116 354.859 302.816C354.754 302.666 354.649 302.501 354.56 302.351C354.5 302.246 354.44 302.141 354.38 302.021C354.35 301.946 354.095 301.391 354.29 301.871C354.17 301.571 354.08 301.272 353.99 300.972C353.96 300.852 353.93 300.717 353.9 300.597C353.795 300.162 353.9 300.912 353.87 300.327C353.855 300.027 353.84 299.727 353.87 299.427C353.87 299.337 353.975 298.708 353.87 299.247C353.9 299.127 353.915 298.992 353.945 298.873C354.02 298.558 354.11 298.258 354.215 297.958C354.395 297.388 353.99 298.318 354.29 297.808C354.38 297.643 354.47 297.478 354.56 297.313C354.634 297.178 354.724 297.058 354.814 296.923C354.889 296.818 355.159 296.519 354.859 296.863C355.069 296.623 355.264 296.399 355.504 296.189C355.504 296.189 355.954 295.784 355.699 296.009C355.444 296.234 355.924 295.859 355.924 295.859C356.239 295.649 356.569 295.469 356.899 295.304C356.479 295.454 356.824 295.349 356.899 295.304C357.078 295.244 357.258 295.184 357.438 295.124C357.558 295.094 357.693 295.064 357.813 295.034C357.813 295.034 358.428 294.929 358.083 294.974C357.738 295.019 358.368 294.959 358.368 294.959C358.533 294.959 358.698 294.959 358.863 294.959C359.028 294.959 359.193 294.974 359.357 294.989C359.882 295.004 359.073 294.899 359.537 295.019C359.912 295.109 360.272 295.214 360.647 295.334C361.172 295.514 360.467 295.169 360.722 295.364C360.887 295.484 361.112 295.559 361.307 295.679C361.412 295.739 361.517 295.814 361.622 295.874C361.726 295.949 361.831 296.009 361.921 296.084C361.711 295.919 361.711 295.919 361.906 296.084C362.131 296.309 362.341 296.519 362.566 296.743C362.986 297.163 362.356 296.384 362.671 296.878C362.776 297.028 362.881 297.193 362.971 297.343C363.061 297.493 363.151 297.673 363.241 297.838C363.466 298.243 363.151 297.508 363.316 297.988C363.436 298.363 363.526 298.723 363.631 299.097C363.661 299.202 363.676 299.532 363.631 299.082C363.661 299.352 363.676 299.607 363.676 299.877C363.691 301.047 364.695 302.186 365.925 302.126C367.154 302.066 368.189 301.137 368.174 299.877C368.114 295.889 365.655 292.44 361.936 291.031C358.218 289.621 354.035 290.851 351.636 293.775C349.237 296.698 348.622 301.197 350.691 304.66C352.76 308.124 356.734 309.773 360.647 309.068C365.01 308.289 368.114 304.21 368.174 299.862C368.189 298.693 367.124 297.553 365.925 297.613C364.725 297.673 363.691 298.603 363.676 299.862H363.691Z" fill="#221F20"/>
<path d="M241.566 326.461L227.592 335.022C223.409 337.586 218.161 337.586 213.978 335.022L200.004 326.461C196.135 324.092 193.781 319.879 193.781 315.351V281.78C196.75 279.426 205.956 272.754 219.525 272.364C234.639 271.929 244.999 279.576 247.788 281.78V315.351C247.788 319.879 245.434 324.092 241.566 326.461Z" fill="#C5D8E3"/>
<path d="M202.492 305.185C205.611 308.304 208.715 311.407 211.833 314.526C212.748 315.441 214.083 315.306 215.012 314.526C221.714 308.873 228.416 303.221 235.119 297.568C236.078 296.759 237.038 295.949 237.997 295.139C240.216 293.265 237.023 290.101 234.819 291.961C228.117 297.613 221.414 303.266 214.712 308.918L211.833 311.347H215.012C211.893 308.229 208.79 305.125 205.671 302.006C203.617 299.952 200.438 303.131 202.492 305.185Z" fill="#221F20"/>
</g>
<defs>
<linearGradient id="paint0_linear_785_2009" x1="293.968" y1="216.333" x2="315.274" y2="216.333" gradientUnits="userSpaceOnUse">
<stop stop-color="#9BCB9E"/>
<stop offset="1" stop-color="#78C1C4"/>
</linearGradient>
<linearGradient id="paint1_linear_785_2009" x1="226.754" y1="226.169" x2="248.06" y2="226.169" gradientUnits="userSpaceOnUse">
<stop stop-color="#9BCB9E"/>
<stop offset="1" stop-color="#78C1C4"/>
</linearGradient>
<linearGradient id="paint2_linear_785_2009" x1="368.785" y1="212.359" x2="390.106" y2="212.359" gradientUnits="userSpaceOnUse">
<stop stop-color="#9BCB9E"/>
<stop offset="1" stop-color="#78C1C4"/>
</linearGradient>
<linearGradient id="paint3_linear_785_2009" x1="193.781" y1="384.381" x2="195.28" y2="384.381" gradientUnits="userSpaceOnUse">
<stop stop-color="#9BCB9E"/>
<stop offset="1" stop-color="#78C1C4"/>
</linearGradient>
<linearGradient id="paint4_linear_785_2009" x1="226.754" y1="374.545" x2="248.06" y2="374.545" gradientUnits="userSpaceOnUse">
<stop stop-color="#9BCB9E"/>
<stop offset="1" stop-color="#78C1C4"/>
</linearGradient>
<linearGradient id="paint5_linear_785_2009" x1="368.785" y1="388.355" x2="390.106" y2="388.355" gradientUnits="userSpaceOnUse">
<stop stop-color="#9BCB9E"/>
<stop offset="1" stop-color="#78C1C4"/>
</linearGradient>
<clipPath id="clip0_785_2009">
<rect width="213.329" height="197.301" fill="white" transform="translate(193.781 201.699)"/>
</clipPath>
</defs>
</svg>
