<svg width="600" height="600" viewBox="0 0 600 600" fill="none" xmlns="http://www.w3.org/2000/svg">
<g clip-path="url(#clip0_785_1247)">
<path d="M384.415 295.045C403.621 288.052 417.317 269.62 417.317 248.012C417.317 220.363 394.904 197.967 367.271 197.967C349.499 197.967 333.902 207.215 325.023 221.169C332.516 223.763 350.546 231.11 365.386 249.591C380.193 268.024 383.496 287.182 384.415 295.045Z" fill="#C5D8E3"/>
<path d="M293.286 361.881C291.417 361.881 289.531 361.881 287.662 361.881C286.003 361.881 285.31 361.252 285.278 359.56C285.246 356.998 285.246 354.42 285.278 351.858C285.278 351.214 285.084 350.972 284.456 350.811C275.53 348.571 267.941 344.06 261.769 337.212C261.399 336.793 260.996 336.406 260.658 335.988C259.594 334.65 259.61 333.748 260.835 332.523C262.43 330.928 264.09 329.397 265.717 327.835C267.377 326.255 269.036 324.693 270.696 323.114C272.581 321.325 273.532 321.293 275.53 322.968C277.995 325.031 280.38 327.222 283.167 328.898C287.582 331.54 292.255 332.829 297.411 331.798C301.568 330.96 303.84 328.35 303.92 324.354C303.952 322.856 303.372 321.663 302.325 320.648C300.198 318.602 297.604 317.361 294.881 316.411C289.37 314.477 283.876 312.527 278.768 309.676C274.16 307.114 270.003 304.02 267.151 299.492C259.659 287.65 263.961 272.842 276.625 266.703C279.01 265.543 281.491 264.657 284.085 264.157C285.101 263.964 285.342 263.545 285.31 262.578C285.229 260.403 285.278 258.212 285.31 256.02C285.326 254.135 286.18 253.297 288.065 253.297C291.497 253.297 294.945 253.297 298.377 253.297C300.456 253.297 301.535 254.393 301.535 256.423C301.535 258.437 301.584 260.451 301.519 262.449C301.487 263.303 301.729 263.626 302.599 263.803C309.85 265.237 316.198 268.508 321.644 273.503C324.431 276.048 324.431 277.337 321.853 280.077C319.13 282.945 316.44 285.845 313.717 288.713C312.121 290.405 311.026 290.485 309.221 289.019C307.159 287.327 305.129 285.587 302.776 284.282C298.99 282.171 295.026 281.543 290.804 282.622C289.822 282.88 288.887 283.251 288.065 283.847C285.487 285.716 285.149 289.293 287.372 291.581C288.806 293.063 290.627 293.95 292.528 294.642C296.734 296.173 300.988 297.575 305.193 299.122C309.898 300.862 314.49 302.812 318.502 305.905C323.851 310.03 326.687 315.428 327.058 322.195C327.751 334.908 320.274 344.044 310.51 348.426C307.964 349.57 305.338 350.441 302.583 350.94C301.809 351.085 301.487 351.343 301.519 352.197C301.584 354.517 301.552 356.837 301.535 359.174C301.535 361.188 300.826 361.881 298.845 361.881C297.008 361.881 295.171 361.881 293.318 361.881H293.286Z" fill="url(#paint0_linear_785_1247)"/>
<path d="M381.291 308.387C381.242 326.964 375.506 345.107 364.791 360.285C354.383 375.028 339.366 386.549 322.399 392.72C305.432 398.891 285.163 399.906 267.036 394.783C249.505 389.836 233.795 379.459 222.178 365.441C210.513 351.359 203.375 333.635 201.989 315.412C200.603 297.188 204.954 278.014 214.605 262.014C223.983 246.498 238.017 234.059 254.5 226.55C271.515 218.8 291.044 216.657 309.348 220.395C327.652 224.134 343.635 233.108 356.252 246.224C368.964 259.452 377.359 276.451 380.211 294.562C380.936 299.138 381.242 303.762 381.258 308.387C381.258 311.496 386.108 311.496 386.092 308.387C386.028 288.858 380.002 269.539 368.626 253.62C357.251 237.7 341.879 226.083 323.914 219.493C305.948 212.903 284.711 211.968 265.731 217.334C246.75 222.699 230.702 233.398 218.585 248.125C206.468 262.852 198.702 281.672 197.171 301.088C195.641 320.503 200.313 340.451 210.432 357.208C220.551 373.965 235.004 386.678 252.309 394.525C270.436 402.726 290.866 405.03 310.379 401.115C329.891 397.199 346.632 387.645 359.861 373.788C373.073 359.963 382 342.159 384.932 323.226C385.689 318.312 386.092 313.365 386.108 308.387C386.108 305.277 381.291 305.277 381.275 308.387H381.291Z" fill="#221F20"/>
<path d="M287.822 213.789C279.749 213.789 271.741 213.693 263.717 214.885C252.68 216.528 241.933 220.202 232.168 225.616C212.801 236.347 197.655 253.845 189.663 274.469C181.398 295.803 181.301 320.165 189.373 341.562C197.188 362.267 212.189 379.894 231.46 390.787C241.24 396.313 252.035 400.116 263.153 401.824C271.58 403.129 280.007 403 288.514 403H291.495C294.605 403 294.605 398.166 291.495 398.166C285.308 398.166 279.089 398.36 272.917 398.021C262.122 397.441 251.359 394.879 241.498 390.448C222.163 381.764 206.308 366.376 197.059 347.299C187.81 328.221 185.684 304.632 191.661 283.654C197.639 262.675 210.642 245.338 228.269 233.624C237.099 227.759 246.879 223.489 257.191 221.04C266.15 218.913 275.125 218.623 284.277 218.623H287.805C290.915 218.623 290.915 213.789 287.805 213.789H287.822Z" fill="#221F20"/>
</g>
<defs>
<linearGradient id="paint0_linear_785_1247" x1="259.868" y1="307.581" x2="327.058" y2="307.581" gradientUnits="userSpaceOnUse">
<stop stop-color="#9BCB9E"/>
<stop offset="1" stop-color="#78C1C4"/>
</linearGradient>
<clipPath id="clip0_785_1247">
<rect width="233.907" height="205.05" fill="white" transform="translate(183.41 197.95)"/>
</clipPath>
</defs>
</svg>
