<svg width="600" height="600" viewBox="0 0 600 600" fill="none" xmlns="http://www.w3.org/2000/svg">
<g clip-path="url(#clip0_785_2083)">
<path d="M401.416 368.358H217.895C211.572 368.358 205.266 368.39 198.944 368.358C193.384 368.342 189.007 364.386 188.91 358.712C188.861 356.054 188.91 353.379 188.91 350.721V310.648C188.91 295.101 188.91 279.555 188.91 264.009C188.91 256.504 188.764 248.998 188.91 241.493C189.007 236.224 193.157 232.09 198.409 231.993C198.75 231.993 199.106 231.993 199.447 231.993H238.369C253.364 231.993 268.375 231.993 283.37 231.993H398.628C401.141 231.993 403.572 231.863 405.891 233.112C409.084 234.846 410.851 238.088 410.9 241.671C410.9 242.562 410.9 243.454 410.9 244.346V357.27C410.9 357.805 410.9 358.34 410.9 358.875C410.786 364.159 406.653 368.261 401.4 368.374C398.272 368.439 398.272 373.302 401.4 373.237C409.846 373.043 415.747 366.315 415.763 358.08C415.763 354.611 415.763 351.158 415.763 347.689V244.54C415.763 239.742 415.309 235.219 411.743 231.49C406.393 225.914 398.126 227.097 391.106 227.097H199.366C192.995 227.114 187.224 230.388 184.922 236.548C183.787 239.628 184.047 243.049 184.047 246.275V283.965C184.047 300.078 184.047 316.192 184.047 332.305C184.047 348.419 183.933 349.878 184.047 358.648C184.16 366.737 190.434 373.075 198.539 373.221C200.257 373.253 201.992 373.221 203.71 373.221H232.76C247.706 373.221 262.669 373.221 277.615 373.221H401.433C404.561 373.221 404.561 368.358 401.433 368.358H401.416Z" fill="#221F20"/>
<path d="M313.133 320.504H200.695V333.505H313.133V320.504Z" fill="#C5D8E3"/>
<path d="M261.194 340.556H200.695V353.557H261.194V340.556Z" fill="#C5D8E3"/>
<path d="M410.719 260.346H189.312V286.364H410.719V260.346Z" fill="url(#paint0_linear_785_2083)"/>
</g>
<defs>
<linearGradient id="paint0_linear_785_2083" x1="189.312" y1="273.363" x2="410.719" y2="273.363" gradientUnits="userSpaceOnUse">
<stop stop-color="#9BCB9E"/>
<stop offset="1" stop-color="#78C1C4"/>
</linearGradient>
<clipPath id="clip0_785_2083">
<rect width="231.797" height="146.237" fill="white" transform="translate(184 227)"/>
</clipPath>
</defs>
</svg>
