<svg width="98" height="84" viewBox="0 0 98 84" fill="none" xmlns="http://www.w3.org/2000/svg">
<g clip-path="url(#clip0_434_9890)">
<path d="M16.5091 38.5409C25.1981 38.5409 32.2418 30.0774 32.2418 19.6372C32.2418 9.19699 25.1981 0.733521 16.5091 0.733521C7.82015 0.733521 0.776367 9.19699 0.776367 19.6372C0.776367 30.0774 7.82015 38.5409 16.5091 38.5409Z" fill="#DCEAC0"/>
<path d="M0.59375 19.637C0.59375 26.8936 4.19155 34.638 11.1432 37.626C14.1922 38.9676 17.729 39.0895 20.9 37.9919C24.0709 36.8943 26.815 34.638 28.7663 31.894C33.2178 25.5521 33.6447 16.5881 30.1689 9.69737C27.0589 3.53843 20.4731 -0.791121 13.4604 0.855329C6.44779 2.50178 1.69138 9.63639 0.776689 16.5881C0.65473 17.6247 0.59375 18.6004 0.59375 19.637C0.59375 19.9419 1.02061 19.9419 1.08159 19.637C1.08159 12.6244 4.43547 5.1239 11.1432 2.1359C14.1312 0.73337 17.6071 0.550431 20.778 1.64806C23.9489 2.7457 26.632 5.06292 28.5224 7.807C32.73 14.0269 33.1569 22.625 29.742 29.2718C26.693 35.3088 20.2292 39.6384 13.3385 37.87C5.35016 35.9186 1.08159 27.3815 1.08159 19.637C1.02061 19.3322 0.59375 19.3322 0.59375 19.637Z" fill="#0565AD"/>
<path d="M19.6194 37.8699C28.0726 37.8699 34.9252 29.6248 34.9252 19.4541C34.9252 9.28326 28.0726 1.03821 19.6194 1.03821C11.1662 1.03821 4.31348 9.28326 4.31348 19.4541C4.31348 29.6248 11.1662 37.8699 19.6194 37.8699Z" fill="#9BC650"/>
<path d="M4.1308 19.4544C4.1308 26.528 7.60664 34.0895 14.3754 37.0165C17.3634 38.2971 20.7782 38.48 23.8882 37.3824C26.9982 36.2847 29.6813 34.0895 31.5716 31.4064C35.9012 25.1865 36.328 16.5274 32.9132 9.8196C29.8642 3.78261 23.4613 -0.485958 16.5706 1.16049C9.67995 2.80694 5.22844 9.69764 4.31374 16.4664C4.19178 17.442 4.1308 18.4787 4.1308 19.4544C4.1308 19.7593 4.55766 19.7593 4.61864 19.4544C4.61864 12.6247 7.97252 5.30711 14.4973 2.38008C17.4853 1.03853 20.8392 0.916573 23.8882 2.01421C26.9372 3.11184 29.4983 5.30711 31.3277 7.92923C35.4743 13.9662 35.8402 22.3814 32.5473 28.9062C29.6203 34.7603 23.4004 38.9069 16.6926 37.3214C8.82624 35.431 4.61864 27.0768 4.55766 19.5154C4.55766 19.2105 4.06982 19.2105 4.06982 19.5154L4.1308 19.4544Z" fill="#0565AD"/>
<path d="M18.7046 15.7346C18.7046 19.5154 16.8752 21.4667 14.68 21.4667C12.4847 21.4667 10.7163 19.6983 10.7163 16.0395C10.7163 12.4417 12.5457 10.3684 14.8019 10.3684C17.1801 10.3684 18.7656 12.3198 18.7656 15.7346H18.7046ZM12.5457 15.9176C12.5457 18.2348 13.3384 20.0032 14.741 19.9422C16.2655 19.9422 16.9362 18.2348 16.9362 15.7956C16.9362 13.6003 16.3264 11.7709 14.741 11.7709C13.2775 11.7709 12.5457 13.6003 12.5457 15.8566V15.9176ZM14.558 29.0892L24.4367 10.3684H25.9002L16.0215 29.0892H14.558ZM29.8029 23.1741C29.8029 26.9549 27.9735 28.9062 25.7783 28.9062C23.583 28.9062 21.8146 27.1378 21.8146 23.479C21.8146 19.8202 23.644 17.8079 25.9002 17.8079C28.2784 17.8079 29.8029 19.7593 29.8029 23.1741ZM23.583 23.418C23.583 25.7353 24.3757 27.5037 25.8393 27.4427C27.3637 27.4427 28.0345 25.7353 28.0345 23.2961C28.0345 21.1008 27.4247 19.2714 25.8393 19.2714C24.3757 19.2714 23.644 21.1008 23.644 23.3571L23.583 23.418Z" fill="white"/>
<path d="M86.0874 14.1488H61.6956V83.0558H86.0874V14.1488Z" fill="#0565AD"/>
<path d="M58.6462 28.1744H34.2544V83.0561H58.6462V28.1744Z" fill="#0565AD"/>
<path d="M31.2056 42.8092H6.81372V83.0557H31.2056V42.8092Z" fill="#0565AD"/>
<path d="M90.9651 14.1488H66.5732V83.0558H90.9651V14.1488Z" fill="#57AAAE"/>
<path d="M91.0877 83.1171H66.5129V14.0881H91.0877V83.178V83.1171ZM66.6959 82.9951H90.9048V14.2101H66.6959V82.9341V82.9951Z" fill="#0565AD"/>
<path d="M63.5247 28.1744H39.1328V83.0561H63.5247V28.1744Z" fill="#57AAAE"/>
<path d="M63.6463 83.1169H39.0715V28.1133H63.6463V83.1779V83.1169ZM39.2545 82.9949H63.4634V28.2352H39.2545V82.934V82.9949Z" fill="#0565AD"/>
<path d="M36.0847 42.8092H11.6929V83.0557H36.0847V42.8092Z" fill="#57AAAE"/>
<path d="M36.2061 83.1172H11.6313V42.7487H36.2061V83.1172ZM11.8143 82.9952H36.0232V42.9316H11.8143V82.9952Z" fill="#0565AD"/>
<path d="M24.7416 69.8845C16.2654 69.8845 10.5333 69.0308 10.4114 68.9698L11.0822 64.7622C11.631 64.8232 66.3907 73.0554 90.1727 36.5896L93.7705 38.9068C76.3303 65.6769 43.6453 69.8845 24.8026 69.8845H24.7416Z" fill="#72021C"/>
<path d="M84.7451 36.5897L96.5752 43.4194L97.063 30.4308L84.7451 36.5897Z" fill="#72021C"/>
</g>
<defs>
<clipPath id="clip0_434_9890">
<rect width="96.4697" height="82.6274" fill="white" transform="translate(0.59375 0.489258)"/>
</clipPath>
</defs>
</svg>
