<svg width="178" height="216" viewBox="0 0 178 216" fill="none" xmlns="http://www.w3.org/2000/svg">
<path d="M113.962 180.402L158.75 156.163L98.301 125.723L86.4131 132.155L13.0776 171.846L83.7597 207.438L113.962 191.093L130.859 181.946C125.343 182.189 119.655 181.676 113.962 180.402Z" fill="#273738"/>
<path d="M32.4188 129.475C49.7846 129.475 63.8624 120.178 63.8624 108.711C63.8624 97.2433 49.7846 87.947 32.4188 87.947C15.0529 87.947 0.975098 97.2433 0.975098 108.711C0.975098 120.178 15.0529 129.475 32.4188 129.475Z" fill="#273738"/>
<path d="M32.4188 122.965C49.7846 122.965 63.8624 113.669 63.8624 102.201C63.8624 90.7339 49.7846 81.4376 32.4188 81.4376C15.0529 81.4376 0.975098 90.7339 0.975098 102.201C0.975098 113.669 15.0529 122.965 32.4188 122.965Z" fill="#2B63A8"/>
<path d="M32.4241 123.031C15.0473 123.031 0.908691 113.686 0.908691 102.201C0.908691 90.7157 15.0418 81.3709 32.4185 81.3709C49.7953 81.3709 63.9284 90.7157 63.9284 102.201C63.9284 113.686 49.7953 123.031 32.4185 123.031H32.4241ZM32.4241 81.5033C15.1245 81.5033 1.0466 90.7875 1.0466 102.201C1.0466 113.614 15.119 122.893 32.4185 122.893C49.7181 122.893 63.7905 113.609 63.7905 102.201C63.7905 90.793 49.7181 81.5088 32.4185 81.5088L32.4241 81.5033Z" fill="#2B63A8"/>
<path d="M32.4188 117.625C49.7846 117.625 63.8624 108.329 63.8624 96.8613C63.8624 85.3937 49.7846 76.0974 32.4188 76.0974C15.0529 76.0974 0.975098 85.3937 0.975098 96.8613C0.975098 108.329 15.0529 117.625 32.4188 117.625Z" fill="#EBF0F8"/>
<path d="M63.6576 96.8615C63.5969 107.641 52.2331 114.007 43.0427 116.197C36.7981 117.686 30.1784 117.818 23.8731 116.638C18.3401 115.601 12.8402 113.516 8.39952 109.996C4.75868 107.111 1.77981 103.09 1.26678 98.3619C0.770299 93.7778 2.69553 89.4308 5.78473 86.121C9.46419 82.1822 14.4786 79.6281 19.5924 78.1111C25.6715 76.3072 32.1753 75.877 38.4586 76.6824C44.2343 77.4271 50.0044 79.264 54.8479 82.5518C58.7425 85.1942 62.1571 88.9619 63.277 93.6454C63.5307 94.699 63.6521 95.7747 63.6576 96.8559C63.6576 97.1207 64.0713 97.1207 64.0713 96.8559C64.0107 85.961 52.6744 79.4406 43.3571 77.1678C36.9746 75.6122 30.2115 75.4687 23.7628 76.6768C18.1029 77.736 12.4927 79.8984 7.96924 83.5338C4.33943 86.452 1.42675 90.4845 0.869595 95.201C0.323468 99.8238 2.19905 104.253 5.27171 107.641C8.9622 111.717 14.0814 114.365 19.289 115.937C25.5446 117.829 32.2636 118.271 38.7289 117.405C44.6259 116.616 50.523 114.696 55.4216 111.259C59.2831 108.551 62.6316 104.728 63.7073 100.028C63.9445 98.9853 64.0603 97.9206 64.0658 96.8504C64.0658 96.5856 63.6521 96.5856 63.6521 96.8504L63.6576 96.8615Z" fill="#2B63A8"/>
<path d="M32.7882 47.3239H32.7827C30.2448 47.3239 28.1875 49.3812 28.1875 51.919V95.4216C28.1875 97.9595 30.2448 100.017 32.7827 100.017H32.7882C35.3261 100.017 37.3834 97.9595 37.3834 95.4216V51.919C37.3834 49.3812 35.3261 47.3239 32.7882 47.3239Z" fill="#EBF0F8"/>
<path d="M32.7826 100.293C30.0961 100.293 27.9116 98.1081 27.9116 95.4216V51.9245C27.9116 49.238 30.0961 47.0535 32.7826 47.0535C35.4691 47.0535 37.6536 49.238 37.6536 51.9245V95.4216C37.6536 98.1081 35.4691 100.293 32.7826 100.293ZM32.7826 47.5997C30.3995 47.5997 28.4633 49.5359 28.4633 51.919V95.4161C28.4633 97.7992 30.3995 99.7354 32.7826 99.7354C35.1657 99.7354 37.102 97.7992 37.102 95.4161V51.9245C37.102 49.5414 35.1657 47.6052 32.7826 47.6052V47.5997Z" fill="#2B63A8"/>
<path d="M61.1897 6.33615L32.8745 34.6514L39.377 41.1538L67.6922 12.8386L61.1897 6.33615Z" fill="#EBF0F8"/>
<path d="M39.5231 41.0069L33.0192 34.5031V34.7954L42.5737 25.241L57.8156 9.99909L61.3296 6.48512H61.0372L67.5411 12.989V12.6966L57.9866 22.2511L42.7447 37.493L39.2307 41.0069C39.0432 41.1945 39.3356 41.4869 39.5231 41.2993L49.0776 31.7449L64.3195 16.503L67.8334 12.989C67.9107 12.9118 67.9107 12.7739 67.8334 12.6966L61.3296 6.19275C61.2523 6.11552 61.1144 6.11552 61.0372 6.19275L51.4827 15.7472L36.2408 30.9891L32.7269 34.5031C32.6496 34.5803 32.6496 34.7182 32.7269 34.7954L39.2307 41.2993C39.4183 41.4869 39.7107 41.1945 39.5231 41.0069Z" fill="#2B63A8"/>
<path d="M58.7815 9.37641C58.7373 9.66327 58.7208 9.95012 58.7318 10.2425L60.2599 57.2425L113.88 26.9793L76.0258 1.22313C75.6893 0.996955 75.3252 0.809396 74.9446 0.677002H73.4607C67.354 0.710101 61.7383 4.03651 58.7815 9.38193V9.37641Z" fill="#EBF0F8"/>
<path d="M58.6049 9.27132C58.3842 9.66851 58.5387 10.7111 58.5553 11.2021L58.6601 14.4568L59.0186 25.5669L59.4655 39.3414L59.8516 51.29L59.9785 55.2508C60.0006 55.8576 59.9233 56.5637 60.0392 57.1595C60.0392 57.187 60.0392 57.2146 60.0392 57.2422C60.0392 57.3967 60.2102 57.5015 60.3481 57.4187L65.6935 54.4012L78.4751 47.1857L93.9928 38.4312L107.359 30.8902L111.783 28.3913C112.451 28.0162 113.278 27.6852 113.88 27.2052C113.907 27.1832 113.94 27.1721 113.968 27.1556C114.111 27.0728 114.095 26.8853 113.968 26.797L108.451 23.0459L96.0615 14.6167L83.2413 5.88975C80.9133 4.30654 78.5909 2.70677 76.2575 1.13459C75.772 0.803604 75.2535 0.467102 74.6356 0.467102C73.069 0.472618 71.5189 0.522266 69.9798 0.847736C66.1569 1.65865 62.665 3.81006 60.2212 6.86616C59.6144 7.62191 59.0793 8.42731 58.6049 9.27684C58.4725 9.50853 58.8311 9.71816 58.9635 9.48647C60.9825 5.89527 64.2482 3.11499 68.1594 1.78553C69.9246 1.18424 71.7671 0.9029 73.6317 0.891867C74.3212 0.891867 74.8839 0.814637 75.5072 1.15114C75.6783 1.24492 75.8382 1.34973 75.9982 1.45454C78.1386 2.8833 80.2514 4.35067 82.3807 5.79597L94.7375 14.203L107.188 22.6762L111.557 25.6496L112.947 26.5984C113.14 26.7308 113.449 27.0453 113.686 27.1004C113.714 27.1059 113.753 27.1446 113.78 27.1666V26.8081L108.435 29.8255L95.6533 37.041L80.1355 45.7956L66.7692 53.3366L62.345 55.8355L60.977 56.6078C60.7894 56.7126 60.3867 56.845 60.2488 57.016C60.2322 57.0381 60.1826 57.0546 60.1605 57.0657L60.4695 57.2422L60.315 52.5201L59.9454 41.1342L59.5041 27.4755L59.1234 15.7697C59.0628 13.9382 58.9745 12.1068 58.9469 10.2808C58.9469 10.0712 58.8697 9.65747 58.969 9.48095C59.0959 9.24926 58.7428 9.03963 58.6104 9.27132H58.6049Z" fill="#2B63A8"/>
<path d="M95.399 56.4629C110.366 48.0157 119.065 35.0831 114.828 27.5771C110.592 20.0711 95.0248 20.8341 80.0579 29.2813C65.0911 37.7284 56.3922 50.661 60.6285 58.167C64.8648 65.673 80.4321 64.91 95.399 56.4629Z" fill="#7694CC"/>
<path d="M114.646 27.6851C116.412 30.8681 115.672 34.6689 114.244 37.8298C112.28 42.1602 109.025 45.8673 105.511 49.0172C100.91 53.1434 95.5816 56.4809 89.9383 58.9798C84.6149 61.3353 78.7896 63.0509 72.9256 63.1282C68.9428 63.1833 64.2428 62.4441 61.5618 59.1784C59.278 56.3981 59.4655 52.6359 60.6019 49.4199C62.152 45.0508 65.2137 41.2721 68.5014 38.0781C72.7932 33.9076 77.8352 30.5095 83.1862 27.8616C88.6254 25.1751 94.5886 23.1561 100.673 22.7093C104.816 22.4004 109.759 22.7424 113.008 25.6606C113.659 26.2453 114.205 26.9294 114.646 27.6851C114.779 27.9168 115.137 27.7072 115.005 27.4755C112.947 23.9008 108.722 22.5769 104.838 22.279C99.0128 21.8322 93.0606 23.3216 87.6766 25.4289C81.6967 27.7679 76.0424 31.0722 71.1052 35.1875C67.2106 38.4311 63.5698 42.2981 61.2694 46.8602C59.6807 49.9991 58.616 53.844 59.973 57.2587C61.4349 60.9326 65.2247 62.7034 68.9207 63.2771C74.382 64.1211 80.097 62.9792 85.2659 61.236C91.527 59.1343 97.4627 55.9237 102.698 51.8912C106.852 48.6917 110.73 44.8743 113.411 40.3288C115.264 37.1844 116.737 33.3119 115.854 29.6269C115.672 28.8767 115.386 28.154 115.01 27.4755C114.884 27.2438 114.525 27.4534 114.652 27.6851H114.646Z" fill="#2B63A8"/>
<path d="M33.1683 51.8805C38.1496 51.8805 42.1877 47.8424 42.1877 42.8611C42.1877 37.8798 38.1496 33.8417 33.1683 33.8417C28.187 33.8417 24.1489 37.8798 24.1489 42.8611C24.1489 47.8424 28.187 51.8805 33.1683 51.8805Z" fill="#EBF0F8"/>
<path d="M41.9782 42.8608C41.9396 46.5347 39.6392 49.9053 36.1528 51.152C32.6995 52.3876 28.7387 51.3175 26.3887 48.493C24.0387 45.6686 23.7022 41.5313 25.5889 38.3594C27.4755 35.1874 31.2763 33.4828 34.9061 34.2165C39.0048 35.044 41.934 38.7069 41.9782 42.8553C41.9782 43.12 42.3974 43.12 42.3919 42.8553C42.3533 39.0158 39.9647 35.5294 36.3514 34.1945C32.7382 32.8595 28.496 34.0069 26.0412 36.9968C23.5864 39.9867 23.2664 44.2564 25.2303 47.5608C27.2052 50.8817 31.1329 52.6359 34.9227 51.9077C39.242 51.0803 42.3423 47.2077 42.3919 42.8497C42.3919 42.585 41.9837 42.585 41.9782 42.8497V42.8608Z" fill="#2B63A8"/>
<path d="M90.6497 155.705L86.4075 121.47L13.0776 161.156L83.7597 196.748L113.962 180.402C113.168 180.226 112.373 180.038 111.574 179.829C100.32 176.894 92.0784 167.246 90.6497 155.705Z" fill="#EBF0F8"/>
<path d="M90.8593 155.705L89.4195 144.099L87.1412 125.69L86.6172 121.47C86.6006 121.316 86.4572 121.211 86.3082 121.294L79.021 125.238L61.5174 134.71L40.3343 146.173L22.0198 156.086L15.9517 159.368C15.0194 159.87 13.9823 160.311 13.1052 160.907C13.0666 160.935 13.0225 160.951 12.9783 160.973C12.8459 161.045 12.8404 161.26 12.9783 161.332L16.7736 163.241L26.5929 168.183L40.075 174.974L54.8756 182.427L68.6336 189.355L78.9934 194.574L82.1433 196.163C82.6012 196.394 83.1032 196.747 83.5997 196.896C84.0134 197.023 84.565 196.549 84.9236 196.356L89.4305 193.917L103.332 186.393L113.532 180.871L114.067 180.584C114.221 180.501 114.188 180.248 114.017 180.204C111.507 179.641 109.058 178.957 106.725 177.843C104.667 176.861 102.725 175.625 100.965 174.169C97.4956 171.3 94.7429 167.604 92.9611 163.472C91.8964 160.995 91.1958 158.375 90.8538 155.7C90.8207 155.44 90.4069 155.435 90.44 155.7C91.6261 165.011 97.2859 173.418 105.649 177.765C108.264 179.128 111.033 179.95 113.901 180.595L113.852 180.215L106.465 184.214L92.3929 191.832L86.6558 194.938L84.7361 195.975C84.4602 196.124 83.9748 196.278 83.7541 196.505C83.6052 196.659 83.699 196.4 83.8589 196.554C83.8369 196.532 83.7872 196.532 83.7652 196.51C83.6438 196.389 83.368 196.312 83.2135 196.234L80.7477 194.993L71.469 190.321L58.3124 183.695L43.6662 176.32L29.7207 169.298L18.8644 163.831L15.3063 162.038C14.6884 161.729 14.0651 161.332 13.4196 161.089C13.3369 161.056 13.2541 161.006 13.1769 160.968V161.326L20.4641 157.382L37.9678 147.91L59.1509 136.447L77.4654 126.534L83.5335 123.252L85.398 122.242C85.6849 122.088 86.1427 121.939 86.38 121.713C86.4075 121.685 86.4682 121.663 86.5068 121.647L86.1979 121.47L87.6377 133.077L89.916 151.485L90.44 155.705C90.4731 155.964 90.8869 155.97 90.8538 155.705H90.8593Z" fill="#2B63A8"/>
<path d="M170.98 136.982L89.1769 25.1694C87.0586 25.859 84.6038 26.8244 81.978 28.1869C79.3521 29.5495 77.1456 30.9948 75.3638 32.3298L86.4132 121.475L98.3011 115.043L168.983 150.635L158.75 156.174L168.983 161.326L130.865 181.957C141.379 181.494 151.27 178.278 159.39 172.282C165.055 168.1 169.099 163.124 171.99 158.402C176.055 151.755 175.586 143.276 170.986 136.987L170.98 136.982Z" fill="#FFFCD2"/>
<path d="M171.156 136.877L139.139 93.1156L107.309 49.6075L89.3585 25.0704C89.3033 24.9987 89.2151 24.9435 89.1268 24.9766C84.151 26.615 79.4676 29.0312 75.2585 32.1535C75.2034 32.1921 75.1482 32.2583 75.1537 32.33L76.2515 41.206L78.8938 62.5215L82.0879 88.2998L84.8406 110.509L85.7508 117.851C85.8942 118.999 85.9659 120.185 86.1811 121.321C86.1921 121.371 86.1921 121.426 86.2031 121.476C86.2197 121.63 86.3631 121.735 86.512 121.652L95.3604 116.864L97.5339 115.689C97.738 115.578 97.9697 115.479 98.1627 115.347C98.4165 115.17 98.422 115.33 98.1958 115.214C98.4275 115.336 98.6647 115.452 98.8964 115.567L112.312 122.325L135.211 133.854L157.354 145.003L164.978 148.843L167.427 150.073C167.797 150.26 168.304 150.652 168.718 150.724C168.768 150.735 168.828 150.779 168.878 150.806V150.448L158.645 155.986C158.512 156.058 158.507 156.273 158.645 156.345L168.878 161.497V161.139L155.986 168.117L135.454 179.227L130.759 181.77C130.583 181.864 130.66 182.167 130.864 182.156C140.656 181.704 150.343 178.841 158.43 173.209C162.451 170.412 166.009 166.981 168.999 163.097C171.763 159.511 174.168 155.666 174.786 151.099C175.464 146.084 174.113 140.971 171.156 136.872C171.002 136.657 170.643 136.866 170.798 137.082C173.44 140.739 174.791 145.207 174.505 149.72C174.218 154.232 172.105 158.165 169.446 161.806C163.781 169.579 155.887 175.459 146.829 178.681C141.693 180.507 136.298 181.483 130.859 181.737L130.963 182.123L143.855 175.145L164.387 164.035L169.082 161.492C169.214 161.42 169.22 161.205 169.082 161.133L158.849 155.981V156.339L169.082 150.801C169.214 150.729 169.22 150.514 169.082 150.442L159.616 145.676L137.997 134.787L114.629 123.02L99.7018 115.501C99.3212 115.308 98.924 115.043 98.5213 114.905C98.08 114.751 97.6883 115.121 97.2911 115.336L87.1409 120.83L86.3079 121.277L86.6168 121.453L85.9107 115.755L84.1179 101.274L81.7183 81.9228L79.2028 61.6113L77.0514 44.2511L75.7495 33.7588L75.6171 32.6665C75.5674 32.2859 75.5233 32.3797 75.8433 32.2087C76.4114 31.9108 76.93 31.4309 77.4651 31.0778C78.1381 30.6255 78.8221 30.1952 79.5172 29.7759C80.8687 28.965 82.2644 28.2203 83.6931 27.5528C85.1219 26.8853 86.6113 26.2675 88.1118 25.7379C88.3269 25.6607 88.7848 25.4014 89.0165 25.429C89.2978 25.4621 89.5902 26.0634 89.7447 26.273L91.3168 28.4244L115.837 61.9422L140.264 95.3332L164.878 128.978L170.803 137.071C170.958 137.286 171.316 137.076 171.162 136.861L171.156 136.877Z" fill="#2B63A8"/>
<path d="M158.75 156.169L113.962 180.408C119.655 181.682 125.342 182.195 130.859 181.952L168.977 161.321L158.744 156.169H158.75Z" fill="#415B5F"/>
<path d="M98.2956 115.037L86.4077 121.47L90.6499 155.705C92.0786 167.25 100.32 176.893 111.574 179.828C112.368 180.038 113.162 180.225 113.962 180.402L168.978 150.629L98.2956 115.037Z" fill="#FFFCD2"/>
<path d="M98.1964 114.861L87.8144 120.477L86.3029 121.294C86.2478 121.327 86.1926 121.404 86.1981 121.47L87.2463 129.943L89.2377 146.007C89.6349 149.218 90.0265 152.423 90.4292 155.633C91.3174 162.689 94.721 169.281 100.089 173.97C102.968 176.485 106.355 178.411 109.996 179.586C111.149 179.955 112.324 180.242 113.499 180.512C113.72 180.562 113.891 180.623 114.095 180.562C114.277 180.507 114.464 180.364 114.63 180.27L122.005 176.281L134.903 169.303L149.527 161.387L162.082 154.591L168.768 150.972L169.077 150.801C169.209 150.729 169.215 150.514 169.077 150.442L162.055 146.906L145.185 138.411L124.775 128.134L107.116 119.241L101.291 116.307C100.381 115.849 99.4651 115.292 98.5163 114.911C98.4722 114.895 98.4336 114.867 98.395 114.85C98.1578 114.729 97.9481 115.088 98.1853 115.209L105.208 118.745L122.077 127.24L142.488 137.517L160.146 146.41L165.971 149.345L167.786 150.26C168.056 150.398 168.443 150.691 168.74 150.74C168.779 150.746 168.829 150.784 168.862 150.801V150.442L163.235 153.487L149.775 160.769L133.628 169.507L119.942 176.916L115.628 179.249L114.376 179.928C114.233 180.005 114.017 180.187 113.858 180.209C113.731 180.231 113.378 180.055 113.207 180.016C112.484 179.845 111.761 179.674 111.044 179.47C109.93 179.155 108.838 178.769 107.773 178.317C105.798 177.478 103.922 176.403 102.19 175.134C98.6597 172.541 95.7636 169.105 93.7667 165.21C92.211 162.165 91.2346 158.877 90.8154 155.49C90.6389 154.078 90.4623 152.66 90.2913 151.248L88.184 134.263L86.6394 121.785C86.6284 121.713 86.6394 121.553 86.6008 121.487C86.6284 121.531 86.4188 121.636 86.5346 121.63C86.6064 121.63 86.7332 121.525 86.7939 121.492L89.3811 120.091L96.8724 116.036L98.3839 115.22C98.6156 115.093 98.4115 114.735 98.1743 114.861H98.1964Z" fill="#2B63A8"/>
<path d="M176.877 178.852C177.528 177.407 177.285 175.758 176.281 174.699C175.194 173.557 173.683 173.606 173.44 173.617L165.16 177.738L165.21 177.804C147.927 187.111 111.38 210.235 111.38 210.235L108.683 213.01L108.655 212.961L105.781 216L110.145 215.322L110.128 215.294L114.696 214.555L169.055 183.343L169.115 183.426L176.877 178.852Z" fill="#2A4850"/>
<path d="M113.841 211.145L176.022 175.437C176.022 175.437 177.55 170.897 172.922 170.583C168.294 170.268 110.526 206.82 110.526 206.82L104.921 212.59L113.835 211.145H113.841Z" fill="#57ABAF"/>
<path d="M113.946 211.322L121.194 207.157L138.091 197.453L157.509 186.305L172.321 177.798L175.763 175.824C175.961 175.708 176.127 175.647 176.237 175.448C176.403 175.14 176.419 174.643 176.452 174.301C176.513 173.639 176.452 172.95 176.199 172.326C175.653 171.019 174.13 170.28 172.745 170.373C172.249 170.406 171.752 170.6 171.295 170.776C169.485 171.46 167.753 172.37 166.037 173.264C160.267 176.276 154.646 179.591 149.047 182.912C142.422 186.84 135.84 190.845 129.281 194.888C124.267 197.978 119.264 201.089 114.277 204.217C113.107 204.95 111.938 205.684 110.774 206.423C110.608 206.528 110.454 206.622 110.305 206.754C109.207 207.742 108.225 208.895 107.194 209.954L104.772 212.447C104.617 212.607 104.777 212.822 104.971 212.795L113.885 211.349C114.15 211.305 114.034 210.908 113.775 210.952L104.86 212.397L105.059 212.745C106.896 210.858 108.655 208.845 110.592 207.052C110.63 207.013 110.846 206.87 111.017 206.76C111.458 206.484 111.894 206.208 112.335 205.927C116.527 203.29 120.725 200.67 124.934 198.06C131.212 194.171 137.512 190.304 143.845 186.498C150.178 182.692 155.931 179.271 162.093 175.862C164.305 174.638 166.534 173.424 168.812 172.326C169.987 171.758 171.333 170.975 172.652 170.804C174.069 170.622 175.603 171.515 175.95 172.938C176.099 173.551 176.072 174.213 175.95 174.831C175.923 174.985 175.857 175.145 175.84 175.299C175.824 175.454 175.818 175.333 175.895 175.272C175.233 175.752 174.439 176.11 173.733 176.513L160.731 183.977L141.947 194.761L124.168 204.972L114.2 210.698L113.725 210.969C113.493 211.101 113.703 211.46 113.935 211.327L113.946 211.322Z" fill="#2B63A8"/>
<path d="M113.84 211.145C113.885 210.952 114.205 209.512 113.234 208.216C112.241 206.892 110.718 206.826 110.525 206.82L104.92 212.59L113.835 211.145H113.84Z" fill="white"/>
<path d="M114.045 211.2C114.37 209.804 113.863 208.282 112.721 207.405C112.197 207.002 111.568 206.748 110.917 206.655C110.685 206.621 110.509 206.577 110.327 206.737C109.759 207.239 109.251 207.841 108.722 208.387L106.267 210.913L104.777 212.447C104.623 212.607 104.783 212.822 104.976 212.794L112.782 211.531L113.89 211.349C114.155 211.305 114.039 210.908 113.78 210.952L105.974 212.215L104.866 212.397L105.064 212.745L108.297 209.418L110.205 207.454C110.338 207.322 110.553 207.168 110.647 207.002C110.663 206.969 110.724 206.975 110.608 207.013C110.459 207.063 110.647 207.046 110.691 207.052C110.939 207.101 111.187 207.129 111.43 207.206C113.052 207.725 114.028 209.44 113.637 211.101C113.576 211.36 113.973 211.47 114.034 211.211L114.045 211.2Z" fill="#2B63A8"/>
<path d="M164.311 174.323L168.26 180.016L176.027 175.437C176.678 173.987 176.436 172.337 175.432 171.284C174.345 170.142 172.833 170.191 172.591 170.202C169.832 171.576 167.074 172.949 164.311 174.323Z" fill="#A5C661"/>
<path d="M164.134 174.428L168.084 180.121C168.15 180.215 168.266 180.253 168.365 180.193L174.764 176.425C175.167 176.188 175.57 175.956 175.967 175.713C176.48 175.399 176.552 174.566 176.59 174.014C176.723 171.852 175.095 170.114 172.961 169.998C172.453 169.971 172.117 170.208 171.659 170.439L169.176 171.675C167.521 172.497 165.866 173.325 164.212 174.147C163.974 174.268 164.184 174.621 164.421 174.505C167.075 173.187 169.756 171.901 172.387 170.539C173.071 170.186 174.108 170.572 174.709 170.958C175.84 171.681 176.342 173.049 176.138 174.351C176.099 174.61 176.039 175.117 175.862 175.299C175.791 175.377 175.636 175.432 175.542 175.487L174.229 176.259L170.566 178.416L168.156 179.834L168.437 179.906L164.487 174.213C164.338 173.998 163.98 174.202 164.129 174.422L164.134 174.428Z" fill="#2B63A8"/>
<path d="M107.8 209.551L109.29 211.907L104.926 212.591L107.8 209.551Z" fill="#2B63A8"/>
<path d="M77.857 138.907L82.6232 141.28L94.136 147.011L108.004 153.918L120.003 159.892C121.939 160.857 123.864 161.972 125.861 162.81C125.889 162.821 125.916 162.838 125.944 162.849C126.418 163.086 126.837 162.374 126.363 162.132L121.597 159.76L110.084 154.028L96.2157 147.121L84.2174 141.147C82.2812 140.182 80.3559 139.067 78.359 138.229C78.3314 138.218 78.3038 138.201 78.2762 138.19C77.8018 137.953 77.3826 138.665 77.857 138.907Z" fill="#2B63A8"/>
<path d="M67.0284 146.03L71.7946 148.402L83.3074 154.133L97.1757 161.04L109.174 167.014C111.11 167.98 113.035 169.094 115.032 169.932C115.06 169.943 115.088 169.96 115.115 169.971C115.59 170.208 116.009 169.497 115.534 169.254L110.768 166.882L99.2554 161.15L85.3871 154.244L73.3888 148.269C71.4525 147.304 69.5273 146.19 67.5304 145.351C67.5028 145.34 67.4752 145.324 67.4476 145.312C66.9732 145.075 66.554 145.787 67.0284 146.03Z" fill="#2B63A8"/>
<path d="M56.1998 153.157L60.9659 155.529L72.4787 161.26L86.347 168.167L98.3453 174.141C100.282 175.107 102.207 176.221 104.204 177.059C104.231 177.07 104.259 177.087 104.286 177.098C104.761 177.335 105.18 176.624 104.706 176.381L99.9395 174.009L88.4267 168.277L74.5584 161.371L62.5602 155.396C60.6239 154.431 58.6987 153.317 56.7017 152.478C56.6742 152.467 56.6466 152.451 56.619 152.44C56.1446 152.202 55.7253 152.914 56.1998 153.157Z" fill="#2B63A8"/>
<path d="M45.3711 160.278L50.1373 162.65L61.6501 168.382L75.5184 175.289L87.5167 181.263C89.4529 182.228 91.3782 183.342 93.3751 184.181C93.4027 184.192 93.4303 184.209 93.4579 184.22C93.9323 184.457 94.3515 183.745 93.8771 183.502L89.1109 181.13L77.5981 175.399L63.7298 168.492L51.7316 162.518C49.7953 161.553 47.8701 160.438 45.8731 159.6C45.8456 159.589 45.818 159.572 45.7904 159.561C45.316 159.324 44.8967 160.036 45.3711 160.278Z" fill="#2B63A8"/>
<path d="M111.342 138.008L113.51 148.793C113.411 148.848 113.35 148.771 113.284 148.732C112.512 148.274 111.75 147.806 110.973 147.348C110.807 147.248 110.724 147.138 110.691 146.962C110.018 143.597 109.34 140.226 108.661 136.861C108.628 136.69 108.645 136.558 108.738 136.42C108.909 136.155 109.086 135.89 109.224 135.603C109.351 135.338 109.478 135.305 109.775 135.493C110.404 135.896 111.039 136.287 111.706 136.618C112.539 137.032 113.4 137.319 114.31 137.319C115.226 137.319 115.981 137.026 116.55 136.398C116.721 136.21 116.721 136.105 116.45 135.945C114.608 134.853 112.771 133.744 110.934 132.635C110.779 132.542 110.625 132.448 110.399 132.315C111.061 132.051 111.657 131.808 112.258 131.571C112.396 131.516 112.495 131.631 112.6 131.692C114.089 132.586 115.573 133.479 117.063 134.373C117.156 134.428 117.256 134.555 117.355 134.5C117.443 134.445 117.394 134.307 117.388 134.202C117.316 133.154 116.654 132.382 115.81 131.714C114.806 130.914 113.67 130.307 112.578 129.64C112.462 129.568 112.346 129.497 112.159 129.386C112.815 129.121 113.416 128.884 114.012 128.642C114.111 128.603 114.183 128.658 114.266 128.708C117.73 130.793 121.194 132.873 124.653 134.952C124.659 135.079 124.548 135.074 124.477 135.107C124.013 135.294 123.539 135.471 123.087 135.675C122.871 135.769 122.712 135.741 122.502 135.609C121.691 135.107 120.869 134.621 120.008 134.103C120.031 134.384 120.064 134.632 120.069 134.875C120.08 135.206 120.053 135.526 119.948 135.829C119.882 136.022 119.948 136.122 120.146 136.238C121.068 136.778 121.983 137.335 122.976 137.931C122.563 138.097 122.176 138.201 121.851 138.395C121.288 138.726 120.781 138.676 120.213 138.224C119.926 137.992 119.578 137.837 119.264 137.639C119.126 137.551 119.038 137.534 118.922 137.655C117.681 138.968 116.015 139.25 114.106 138.919C113.256 138.77 112.44 138.483 111.651 138.086C111.579 138.047 111.502 138.019 111.43 137.986C111.414 137.981 111.386 137.986 111.342 137.992V138.008Z" fill="#2B63A8"/>
<path d="M113.444 148.881C113.378 148.881 113.322 148.842 113.284 148.815C113.273 148.804 113.262 148.798 113.251 148.793C112.958 148.616 112.666 148.445 112.379 148.268C111.899 147.982 111.425 147.695 110.945 147.413C110.763 147.303 110.669 147.182 110.63 146.983C110.002 143.839 109.34 140.534 108.6 136.883C108.562 136.69 108.589 136.541 108.683 136.392L108.716 136.342C108.876 136.099 109.042 135.845 109.169 135.581C109.218 135.481 109.29 135.36 109.411 135.321C109.516 135.294 109.637 135.327 109.814 135.443C110.415 135.829 111.055 136.232 111.739 136.568C112.694 137.043 113.51 137.263 114.315 137.263H114.321C115.226 137.263 115.959 136.96 116.505 136.364C116.577 136.281 116.61 136.226 116.605 136.188C116.599 136.143 116.539 136.088 116.423 136.017C115.01 135.178 113.576 134.317 112.192 133.479L110.906 132.707C110.752 132.613 110.603 132.525 110.388 132.398L110.255 132.315L110.851 132.078C111.331 131.885 111.789 131.703 112.241 131.521C112.385 131.465 112.489 131.543 112.578 131.603C112.6 131.62 112.622 131.631 112.644 131.647C113.427 132.116 114.205 132.585 114.988 133.054C115.695 133.479 116.401 133.904 117.107 134.328C117.134 134.345 117.162 134.367 117.189 134.389C117.256 134.439 117.3 134.477 117.333 134.455C117.36 134.439 117.349 134.384 117.338 134.306C117.338 134.279 117.327 134.251 117.327 134.224C117.267 133.341 116.787 132.591 115.777 131.78C115.022 131.179 114.172 130.671 113.35 130.186C113.085 130.026 112.815 129.871 112.55 129.706C112.478 129.662 112.401 129.617 112.307 129.562L112.01 129.386L112.694 129.11C113.14 128.928 113.565 128.762 113.995 128.586C114.111 128.536 114.211 128.597 114.288 128.647L114.31 128.658L124.73 134.919V134.957C124.741 135.117 124.62 135.145 124.554 135.167C124.537 135.167 124.526 135.172 124.51 135.178C124.35 135.244 124.184 135.31 124.019 135.371C123.721 135.487 123.412 135.608 123.12 135.741C122.893 135.84 122.711 135.823 122.469 135.669C121.884 135.305 121.299 134.957 120.681 134.588C120.488 134.472 120.29 134.351 120.086 134.235C120.086 134.279 120.091 134.323 120.097 134.367C120.113 134.544 120.13 134.709 120.135 134.88C120.146 135.255 120.108 135.575 120.008 135.862C119.959 136.011 119.992 136.083 120.174 136.188C120.858 136.585 121.525 136.993 122.237 137.423L123.12 137.953L122.993 138.002C122.86 138.058 122.733 138.102 122.607 138.146C122.342 138.24 122.094 138.333 121.878 138.46C121.288 138.808 120.748 138.747 120.163 138.289C119.981 138.146 119.771 138.024 119.567 137.914C119.451 137.848 119.33 137.782 119.22 137.71C119.093 137.633 119.049 137.633 118.966 137.716C117.802 138.951 116.202 139.37 114.084 138.995C113.262 138.852 112.429 138.571 111.612 138.157C111.546 138.124 111.48 138.096 111.414 138.069L113.576 148.826L113.532 148.848C113.493 148.87 113.46 148.875 113.433 148.875L113.444 148.881ZM109.483 135.443C109.483 135.443 109.461 135.443 109.444 135.443C109.389 135.459 109.34 135.515 109.29 135.625C109.158 135.895 108.992 136.154 108.832 136.403L108.799 136.452C108.722 136.574 108.705 136.69 108.733 136.844C109.472 140.496 110.134 143.8 110.763 146.945C110.796 147.105 110.862 147.198 111.011 147.287C111.491 147.568 111.971 147.855 112.445 148.142C112.738 148.318 113.025 148.495 113.317 148.666C113.333 148.677 113.345 148.688 113.361 148.699C113.389 148.721 113.405 148.732 113.422 148.737L111.248 137.942H111.326C111.326 137.942 111.353 137.931 111.364 137.931C111.386 137.931 111.414 137.92 111.447 137.931C111.524 137.964 111.601 137.997 111.673 138.03C112.478 138.438 113.295 138.714 114.106 138.857C116.174 139.222 117.73 138.813 118.861 137.616C119.004 137.462 119.137 137.495 119.286 137.589C119.396 137.66 119.512 137.727 119.628 137.787C119.837 137.903 120.052 138.024 120.24 138.179C120.781 138.609 121.261 138.659 121.801 138.339C122.027 138.207 122.281 138.113 122.551 138.013C122.634 137.986 122.717 137.953 122.805 137.92L122.16 137.534C121.448 137.103 120.781 136.701 120.097 136.298C119.898 136.182 119.782 136.055 119.87 135.807C119.964 135.537 120.003 135.233 119.986 134.875C119.981 134.709 119.964 134.544 119.948 134.373C119.942 134.284 119.931 134.196 119.926 134.108L119.915 133.975L120.03 134.042C120.268 134.185 120.505 134.328 120.742 134.466C121.36 134.836 121.939 135.184 122.529 135.548C122.733 135.674 122.871 135.691 123.053 135.608C123.351 135.476 123.66 135.355 123.958 135.233C124.118 135.167 124.284 135.106 124.444 135.04C124.46 135.035 124.482 135.029 124.504 135.024C124.548 135.013 124.57 135.001 124.576 134.99L114.205 128.757C114.133 128.713 114.089 128.691 114.034 128.707C113.609 128.878 113.185 129.049 112.732 129.231L112.307 129.402L112.368 129.435C112.462 129.491 112.534 129.535 112.611 129.584C112.876 129.744 113.14 129.904 113.405 130.059C114.227 130.55 115.082 131.052 115.849 131.664C116.555 132.227 117.372 133.021 117.454 134.202C117.454 134.224 117.454 134.246 117.465 134.273C117.482 134.367 117.498 134.499 117.394 134.566C117.278 134.632 117.173 134.549 117.096 134.488C117.074 134.472 117.052 134.45 117.029 134.439C116.323 134.014 115.617 133.589 114.911 133.165C114.128 132.696 113.35 132.227 112.567 131.758C112.545 131.741 112.517 131.725 112.495 131.708C112.412 131.647 112.352 131.614 112.285 131.642C111.827 131.824 111.375 132.006 110.895 132.199L110.553 132.337C110.713 132.436 110.84 132.508 110.967 132.585L112.252 133.358C113.637 134.191 115.071 135.051 116.483 135.895C116.643 135.989 116.721 136.072 116.732 136.165C116.748 136.27 116.671 136.37 116.599 136.452C116.031 137.081 115.259 137.396 114.315 137.396H114.31C113.488 137.396 112.649 137.169 111.673 136.684C110.989 136.342 110.338 135.939 109.737 135.553C109.621 135.481 109.538 135.448 109.478 135.448L109.483 135.443Z" fill="#2B63A8"/>
</svg>
