<svg width="149" height="201" viewBox="0 0 149 201" fill="none" xmlns="http://www.w3.org/2000/svg">
<path d="M136.494 174.763L20.3223 180.978L33.2463 201L148.504 195.46L136.494 174.763Z" fill="#273738"/>
<path d="M118.055 135.888L34.8803 181.839L2.22822 107.434C0.637019 103.802 2.07702 99.5539 5.55462 97.6306L75.5027 58.9782C79.2971 56.8826 84.0851 58.4902 85.8275 62.4588L118.055 135.881V135.888Z" fill="#819B4B"/>
<path d="M117.918 135.658L109.631 140.237L89.7303 151.231L65.7471 164.486L45.0111 175.94L38.1495 179.729L36.0255 180.906C35.7087 181.078 35.1471 181.265 34.8951 181.53C34.8663 181.566 34.7943 181.588 34.7511 181.609L35.1183 181.702L33.1167 177.138L27.9759 165.419L21.0927 149.731L13.7559 133.01L7.38386 118.492L3.27266 109.12C3.01346 108.538 2.75426 107.957 2.50226 107.369C1.04785 103.953 2.25026 99.9265 5.47586 97.9889C6.97346 97.0918 8.53586 96.2952 10.0695 95.4484L21.3951 89.1905L36.5151 80.8371L52.4991 72.0029L66.1287 64.4748L74.4375 59.8818C74.8407 59.6593 75.2439 59.4297 75.6471 59.2144C79.3407 57.2409 83.8839 58.8197 85.6047 62.6089C86.3607 64.281 87.0807 65.9675 87.8151 67.6468L93.1215 79.7391L100.091 95.6206L107.399 112.27L113.584 126.372L117.314 134.862L117.825 136.024C117.962 136.34 118.43 136.067 118.293 135.751L116.212 131.008L110.927 118.959L103.907 102.969L96.5272 86.1549L90.2559 71.8665L86.5335 63.3768C86.2527 62.7309 85.9863 62.0563 85.6191 61.4535C83.6175 58.1595 79.3119 56.8892 75.8199 58.5255C74.1567 59.3077 72.5727 60.298 70.9671 61.1879L59.4759 67.5319L44.0895 76.0361L28.0551 84.8918L14.3895 92.4415L6.35426 96.8837C5.61266 97.2928 4.87106 97.6803 4.20866 98.2257C1.44385 100.493 0.623054 104.34 2.00546 107.591C2.74706 109.328 3.52466 111.05 4.28066 112.78L9.65906 125.037L16.7367 141.163L24.1095 157.963L30.3807 172.251L34.1319 180.798L34.6431 181.968C34.7007 182.104 34.8951 182.126 35.0103 182.061L43.2975 177.483L63.1983 166.488L87.1815 153.233L107.918 141.78L114.779 137.991C115.838 137.402 117.04 136.893 118.034 136.189C118.077 136.161 118.127 136.139 118.178 136.11C118.48 135.945 118.206 135.479 117.904 135.644L117.918 135.658Z" fill="#2B63A8"/>
<path d="M65.8912 85.8107C74.361 85.8107 81.2272 78.9669 81.2272 70.5248C81.2272 62.0826 74.361 55.2389 65.8912 55.2389C57.4213 55.2389 50.5552 62.0826 50.5552 70.5248C50.5552 78.9669 57.4213 85.8107 65.8912 85.8107Z" fill="#2B63A8"/>
<path d="M80.4783 66.7572C82.0047 72.8357 79.6143 79.3806 74.3871 82.9258C69.1599 86.471 62.1471 86.349 57.0495 82.6746C51.9303 78.9859 49.6551 72.2759 51.4551 66.2405C53.2551 60.2051 58.7703 55.8705 65.0559 55.5189C72.1839 55.1242 78.6423 59.9109 80.4783 66.75C80.5647 67.0873 81.0903 66.9438 80.9967 66.6065C79.3263 60.3917 73.9623 55.727 67.5183 55.0452C60.9519 54.3491 54.4719 58.0306 51.7215 64.0086C48.9999 69.9077 50.3031 77.077 54.9687 81.6269C59.6343 86.1768 66.8487 87.3393 72.7311 84.4975C79.3695 81.2896 82.7751 73.6969 80.9967 66.6065C80.9103 66.2692 80.3919 66.4127 80.4783 66.75V66.7572Z" fill="#2B63A8"/>
<path d="M63.5225 84.8199C71.9924 84.8199 78.8586 77.9762 78.8586 69.5341C78.8586 61.0919 71.9924 54.2482 63.5225 54.2482C55.0527 54.2482 48.1865 61.0919 48.1865 69.5341C48.1865 77.9762 55.0527 84.8199 63.5225 84.8199Z" fill="#FCBC00"/>
<path d="M78.1024 65.7664C79.6288 71.8449 77.2384 78.3898 72.0112 81.935C66.8056 85.4659 59.7712 85.3582 54.6736 81.6839C49.5544 77.9951 47.2792 71.2851 49.0792 65.2497C50.872 59.243 56.3944 54.8797 62.68 54.5281C69.808 54.1334 76.2664 58.9201 78.1024 65.7593C78.1888 66.0966 78.7144 65.953 78.6208 65.6157C76.9504 59.4009 71.5864 54.7362 65.1424 54.0544C58.576 53.3583 52.096 57.0398 49.3456 63.0178C46.5952 68.9958 47.9272 76.0862 52.5928 80.6361C57.2584 85.186 64.4728 86.3486 70.3552 83.5067C76.9936 80.2988 80.3992 72.7061 78.6208 65.6157C78.5344 65.2784 78.016 65.422 78.1024 65.7593V65.7664Z" fill="#2B63A8"/>
<path d="M61.5274 70.1517L68.5403 76.0579C68.5115 76.1512 68.4395 76.1369 68.3819 76.144C67.6979 76.2804 67.021 76.4096 66.337 76.5459C66.193 76.5746 66.0851 76.5459 65.9699 76.4526C63.781 74.6011 61.5922 72.7568 59.3962 70.9196C59.2882 70.8263 59.2234 70.7258 59.2018 70.5823C59.1586 70.3096 59.1154 70.0297 59.0362 69.7642C58.9642 69.5202 59.0218 69.4197 59.2882 69.3766C59.857 69.2833 60.4258 69.1829 60.9802 69.0178C61.6714 68.8169 62.3122 68.5155 62.8234 67.9916C63.3418 67.4677 63.6082 66.8433 63.5938 66.097C63.5938 65.8745 63.529 65.8099 63.2914 65.853C61.6642 66.1831 60.037 66.4989 58.4098 66.8146C58.273 66.8433 58.1362 66.872 57.9346 66.9079C58.165 66.3553 58.3738 65.853 58.5826 65.3506C58.633 65.2358 58.7482 65.2573 58.8418 65.2358C60.1594 64.9775 61.477 64.7191 62.7946 64.4536C62.8738 64.4392 63.0034 64.4607 63.025 64.3675C63.0466 64.2813 62.9458 64.2168 62.881 64.1522C62.2762 63.4991 61.4914 63.3699 60.6562 63.4058C59.6626 63.4489 58.6978 63.7 57.7186 63.8795C57.6178 63.901 57.5098 63.9225 57.3442 63.9512C57.5746 63.3986 57.7834 62.8963 57.9922 62.3939C58.0282 62.315 58.1002 62.3078 58.1722 62.2935C61.2394 61.6906 64.3138 61.0878 67.3811 60.485C67.4531 60.5639 67.381 60.6285 67.3666 60.6859C67.2082 61.0806 67.0354 61.461 66.8842 61.8629C66.8122 62.0495 66.7114 62.1212 66.517 62.1571C65.7898 62.2863 65.0626 62.437 64.2994 62.5877C64.465 62.7599 64.6162 62.9035 64.753 63.0613C64.9402 63.2695 65.0914 63.5063 65.1994 63.7646C65.2642 63.9297 65.3578 63.9584 65.5306 63.9225C66.3443 63.7503 67.1578 63.5996 68.0362 63.4273C67.8922 63.7718 67.7338 64.066 67.6546 64.3818C67.5178 64.92 67.2011 65.1856 66.6395 65.2071C66.3515 65.2215 66.0707 65.3147 65.7899 65.365C65.6674 65.3865 65.6098 65.4296 65.6098 65.5731C65.6098 67.1519 64.825 68.293 63.5722 69.1685C63.0106 69.556 62.3986 69.8359 61.7434 70.0225C61.6858 70.0369 61.621 70.0584 61.5634 70.0871C61.549 70.0871 61.5418 70.1158 61.513 70.1445L61.5274 70.1517Z" fill="white"/>
<path d="M25.103 58.0591C32.1692 58.0591 37.8974 52.3495 37.8974 45.3065C37.8974 38.2634 32.1692 32.5539 25.103 32.5539C18.0368 32.5539 12.3086 38.2634 12.3086 45.3065C12.3086 52.3495 18.0368 58.0591 25.103 58.0591Z" fill="#2B63A8"/>
<path d="M37.2636 48.2849C35.9604 53.3372 31.6332 57.1909 26.3916 57.7292C21.2292 58.2531 16.1676 55.4614 13.8636 50.8254C11.5596 46.1894 12.4812 40.2329 16.218 36.494C19.9116 32.8053 25.6716 31.7862 30.4092 33.9894C35.7948 36.5012 38.6172 42.5509 37.2636 48.2778C37.1844 48.6151 37.7028 48.7586 37.782 48.4213C39.0348 43.1394 36.9252 37.5489 32.3964 34.4918C27.8388 31.4202 21.6468 31.5996 17.2548 34.8865C12.8628 38.1733 10.998 43.9503 12.618 49.1389C14.2308 54.306 18.9972 58.0091 24.426 58.3033C30.6468 58.6406 36.2556 54.3921 37.7892 48.4213C37.8756 48.084 37.3572 47.9405 37.2708 48.2778L37.2636 48.2849Z" fill="#2B63A8"/>
<path d="M23.7495 56.3945C30.8156 56.3945 36.5439 50.685 36.5439 43.6419C36.5439 36.5989 30.8156 30.8893 23.7495 30.8893C16.6833 30.8893 10.9551 36.5989 10.9551 43.6419C10.9551 50.685 16.6833 56.3945 23.7495 56.3945Z" fill="#FCBC00"/>
<path d="M35.9174 46.62C34.6142 51.6723 30.287 55.526 25.0454 56.0643C19.8038 56.6025 14.8214 53.7965 12.5174 49.1605C10.2134 44.5245 11.135 38.568 14.8718 34.8291C18.6086 31.0901 24.3254 30.1213 29.063 32.3245C34.4486 34.8362 37.271 40.886 35.9174 46.6128C35.8382 46.9501 36.3566 47.0937 36.4358 46.7564C37.6886 41.4745 35.579 35.884 31.0502 32.8268C26.4926 29.7553 20.3006 29.9347 15.9086 33.2215C11.5166 36.5084 9.6518 42.2854 11.2718 47.474C12.8918 52.6626 17.651 56.3441 23.0798 56.6384C29.3006 56.9757 34.9094 52.7272 36.443 46.7564C36.5294 46.4191 36.011 46.2755 35.9246 46.6128L35.9174 46.62Z" fill="#2B63A8"/>
<path d="M22.0431 43.3114L24.8439 50.4233C24.7863 50.4807 24.7359 50.4377 24.6927 50.4233C24.1383 50.2511 23.5839 50.0788 23.0295 49.9138C22.9071 49.8779 22.8423 49.8205 22.7991 49.6985C21.9279 47.4738 21.0567 45.2563 20.1783 43.0387C20.1351 42.9239 20.1279 42.8306 20.1711 42.7158C20.2503 42.4933 20.3223 42.278 20.3799 42.0484C20.4231 41.8403 20.5023 41.79 20.7183 41.8618C21.1719 42.0197 21.6327 42.1704 22.1007 42.2708C22.6911 42.3928 23.2815 42.4287 23.8647 42.2493C24.4551 42.0699 24.8943 41.7111 25.1823 41.1585C25.2687 40.9934 25.2543 40.9217 25.0599 40.8643C23.7351 40.4624 22.4103 40.0533 21.0927 39.6443C20.9775 39.6084 20.8695 39.5725 20.7111 39.5223C21.0999 39.2065 21.4527 38.9194 21.8055 38.6324C21.8847 38.5678 21.9639 38.6324 22.0431 38.6539C23.1159 38.984 24.1887 39.3141 25.2543 39.6443C25.3191 39.6658 25.4055 39.7304 25.4559 39.673C25.5063 39.6155 25.4559 39.5294 25.4343 39.4577C25.2543 38.74 24.7287 38.331 24.0951 38.0295C23.3463 37.6707 22.5399 37.4698 21.7551 37.2186C21.6687 37.1899 21.5895 37.1684 21.4527 37.1253C21.8415 36.8095 22.1943 36.5225 22.5471 36.2354C22.6047 36.1924 22.6623 36.2139 22.7199 36.2354C25.2111 37.0105 27.7095 37.7784 30.2007 38.5463C30.2223 38.6324 30.1503 38.6539 30.1071 38.6898C29.8335 38.9123 29.5527 39.1275 29.2863 39.3644C29.1639 39.472 29.0559 39.4864 28.9047 39.4361C28.3215 39.2424 27.7311 39.0701 27.1047 38.8764C27.1551 39.0701 27.2055 39.2352 27.2487 39.4074C27.2991 39.6371 27.3207 39.8667 27.2991 40.1035C27.2847 40.2543 27.3423 40.3117 27.4791 40.3475C28.1415 40.5413 28.8039 40.7494 29.5167 40.9719C29.2719 41.1657 29.0415 41.3236 28.8543 41.5173C28.5375 41.8546 28.2063 41.9264 27.7815 41.7254C27.5655 41.625 27.3207 41.5819 27.0975 41.503C26.9967 41.4671 26.9391 41.4743 26.8815 41.5819C26.2551 42.7445 25.2255 43.2755 23.9583 43.4191C23.3967 43.4837 22.8351 43.4478 22.2735 43.3258C22.2231 43.3114 22.1727 43.3043 22.1151 43.3043C22.1007 43.3043 22.0863 43.3114 22.0575 43.3258L22.0431 43.3114Z" fill="white"/>
<path d="M57.1933 27.6091C64.2595 27.6091 69.9878 21.8996 69.9878 14.8565C69.9878 7.81347 64.2595 2.10394 57.1933 2.10394C50.1272 2.10394 44.3989 7.81347 44.3989 14.8565C44.3989 21.8996 50.1272 27.6091 57.1933 27.6091Z" fill="#2B63A8"/>
<path d="M69.3542 17.8423C68.051 22.8945 63.7238 26.7483 58.4822 27.2865C53.3197 27.8104 48.2581 25.0188 45.9541 20.3828C43.6501 15.7468 44.5717 9.79031 48.3085 6.05137C52.0021 2.36266 57.7622 1.3436 62.4998 3.54678C67.8854 6.05854 70.7078 12.1083 69.3542 17.8351C69.275 18.1724 69.7934 18.316 69.8726 17.9787C71.1254 12.6968 69.0158 7.10631 64.487 4.04913C59.9582 0.991954 53.7373 1.15701 49.3453 4.44384C44.9965 7.70195 43.0885 13.5077 44.7085 18.6963C46.3213 23.8634 51.0877 27.5664 56.5165 27.8607C62.7374 28.198 68.3462 23.9495 69.8798 17.9787C69.9662 17.6414 69.4478 17.4978 69.3614 17.8351L69.3542 17.8423Z" fill="#2B63A8"/>
<path d="M55.8393 25.9445C62.9055 25.9445 68.6337 20.235 68.6337 13.1919C68.6337 6.14886 62.9055 0.439331 55.8393 0.439331C48.7732 0.439331 43.0449 6.14886 43.0449 13.1919C43.0449 20.235 48.7732 25.9445 55.8393 25.9445Z" fill="#FCBC00"/>
<path d="M68.0075 16.1702C66.7043 21.2224 62.3771 25.0762 57.1355 25.6144C51.8939 26.1527 46.9115 23.3467 44.6075 18.7107C42.3035 14.0747 43.2251 8.11819 46.9619 4.37924C50.6555 0.690537 56.4155 -0.328522 61.1531 1.87465C66.5387 4.38642 69.3611 10.4362 68.0075 16.163C67.9283 16.5003 68.4467 16.6438 68.5259 16.3065C69.7787 11.0247 67.6691 5.43419 63.1403 2.37701C58.5827 -0.694522 52.3907 -0.51511 47.9987 2.77171C43.6499 6.02983 41.7419 11.8356 43.3619 17.0242C44.9747 22.1912 49.7411 25.8943 55.1699 26.1885C61.3907 26.5258 66.9995 22.2774 68.5331 16.3065C68.6195 15.9692 68.1011 15.8257 68.0147 16.163L68.0075 16.1702Z" fill="#2B63A8"/>
<path d="M54.1334 12.8616L56.9342 19.9735C56.8766 20.0309 56.8262 19.9878 56.783 19.9735C56.2286 19.8013 55.6742 19.629 55.1198 19.464C54.9974 19.4281 54.9326 19.3707 54.8894 19.2487C54.0182 17.024 53.147 14.8064 52.2686 12.5889C52.2254 12.4741 52.2182 12.3808 52.2614 12.266C52.3406 12.0435 52.4126 11.8282 52.4702 11.5985C52.5134 11.3904 52.5926 11.3402 52.8086 11.412C53.2622 11.5698 53.723 11.7205 54.191 11.821C54.7814 11.943 55.3718 11.9789 55.955 11.7995C56.5454 11.6201 56.9846 11.2613 57.2726 10.7087C57.3591 10.5436 57.3447 10.4718 57.1503 10.4144C55.8254 10.0125 54.5006 9.60349 53.183 9.19443C53.0678 9.15854 52.9598 9.12266 52.8014 9.07243C53.1902 8.75666 53.543 8.4696 53.8958 8.18254C53.975 8.11796 54.0542 8.18254 54.1334 8.20407C55.2062 8.53419 56.279 8.86431 57.3446 9.19443C57.4094 9.21596 57.4958 9.28054 57.5462 9.22313C57.5966 9.16572 57.5462 9.0796 57.5246 9.00784C57.3446 8.29019 56.819 7.88113 56.1854 7.57972C55.4366 7.2209 54.6302 7.01996 53.8454 6.76878C53.759 6.74007 53.6798 6.71854 53.543 6.67548C53.9318 6.35972 54.2846 6.07266 54.6374 5.7856C54.695 5.74254 54.7526 5.76407 54.8102 5.7856C57.3015 6.56066 59.7999 7.32854 62.2911 8.09643C62.3127 8.18254 62.2407 8.20407 62.1975 8.23996C61.9239 8.46243 61.6431 8.67772 61.3767 8.91454C61.2543 9.02219 61.1463 9.03654 60.9951 8.98631C60.4119 8.79254 59.8215 8.62031 59.1951 8.42654C59.2455 8.62031 59.2959 8.78537 59.3391 8.9576C59.3895 9.18725 59.4111 9.4169 59.3895 9.65372C59.3751 9.80443 59.4327 9.86184 59.5695 9.89772C60.2319 10.0915 60.8943 10.2996 61.6071 10.5221C61.3623 10.7158 61.1319 10.8737 60.9447 11.0675C60.6279 11.4048 60.2967 11.4765 59.8719 11.2756C59.6559 11.1751 59.4111 11.1321 59.1879 11.0531C59.0871 11.0173 59.0295 11.0244 58.9719 11.1321C58.3455 12.2947 57.3159 12.8257 56.0487 12.9693C55.4871 13.0338 54.9254 12.998 54.3638 12.876C54.3134 12.8616 54.263 12.8544 54.2054 12.8544C54.191 12.8544 54.1766 12.8616 54.1478 12.876L54.1334 12.8616Z" fill="white"/>
<path d="M132.772 153.642L36.0829 186.044C32.3965 187.278 28.4005 185.305 27.1621 181.623L1.20605 104.677L104.569 70.0364C108.256 68.802 112.252 70.7756 113.49 74.4571L137.207 144.758C138.445 148.432 136.465 152.415 132.772 153.649V153.642Z" fill="#A5C661"/>
<path d="M132.707 153.384L124.405 156.168L104.037 162.993L78.4981 171.555L54.4789 179.607L38.6893 184.896C37.8109 185.19 36.9325 185.499 36.0469 185.786C32.2093 187.013 28.5373 184.853 27.2917 181.157L22.8349 167.945L14.7061 143.854L6.45486 119.382L1.69565 105.266L1.47245 104.606L1.28525 104.936L9.52206 102.173L29.8477 95.3622L55.9549 86.6141L81.2701 78.1315L99.4862 72.0243L103.95 70.5316C104.181 70.4527 104.411 70.3738 104.641 70.302C107.572 69.369 110.841 70.424 112.525 73.0362C113.317 74.2634 113.685 75.8422 114.153 77.2129L116.773 84.9779L124.989 109.342L133.269 133.878L135.961 141.859C136.35 143 136.804 144.148 137.106 145.31C137.999 148.726 136.019 152.221 132.721 153.391C132.397 153.506 132.534 154.03 132.865 153.908C136.941 152.465 138.683 148.238 137.344 144.27L135.58 139.045L128.099 116.87L119.265 90.676L113.987 75.0241C113.8 74.4715 113.62 73.9189 113.361 73.395C112.014 70.7182 109.019 69.1107 106.038 69.4408C104.872 69.57 103.734 70.0365 102.618 70.4096L87.7501 75.3901L63.4213 83.5426L36.6157 92.5275L13.7197 100.199L1.69565 104.225L1.14125 104.412C1.01165 104.455 0.90365 104.598 0.95405 104.742L4.39565 114.94L12.1933 138.048L20.7325 163.359L26.3269 179.944C26.9101 181.666 27.4141 183.346 28.7965 184.659C31.0357 186.79 34.0165 187.027 36.8245 186.087L49.1941 181.939L71.7805 174.368L97.823 165.641L120.316 158.106L132.311 154.087L132.858 153.901C133.189 153.793 133.045 153.269 132.714 153.384H132.707Z" fill="#2B63A8"/>
<path d="M10.4578 113.346L19.9546 110.361L42.7642 103.192L70.3618 94.5225L94.2155 87.0231L102.078 84.5544C103.302 84.1669 104.627 83.8798 105.807 83.3847C105.858 83.3631 105.915 83.3488 105.966 83.3344C106.297 83.234 106.153 82.7101 105.822 82.8177L96.3251 85.8031L73.5154 92.9724L45.9178 101.642L22.0642 109.141L14.2018 111.61C12.9778 111.997 11.653 112.284 10.4722 112.779C10.4218 112.801 10.3642 112.815 10.3138 112.83C9.98257 112.93 10.1266 113.454 10.4578 113.346Z" fill="#2B63A8"/>
<path d="M12.3806 119.102L21.8774 116.117L44.6871 108.947L72.2847 100.278L96.1383 92.7786L104.001 90.3099C105.225 89.9224 106.55 89.6353 107.73 89.1402C107.781 89.1186 107.838 89.1043 107.889 89.0899C108.22 88.9894 108.076 88.4656 107.745 88.5732L98.2479 91.5586L75.4383 98.7279L47.8407 107.397L23.987 114.897L16.1246 117.365C14.9006 117.753 13.5758 118.04 12.395 118.535C12.3446 118.557 12.287 118.571 12.2366 118.585C11.9054 118.686 12.0494 119.21 12.3806 119.102Z" fill="#2B63A8"/>
<path d="M117.724 119.532L116.903 106.644L117.313 113.088L116.888 106.644C121.309 106.342 128.848 104.505 130.972 101.505C131.245 101.125 131.807 100.328 131.231 98.2829C130.554 95.8645 129.46 95.3119 129.1 95.1253C127.465 94.2857 124.549 94.5225 121.093 95.7712L116.68 83.6286C125.564 80.4207 131.562 81.8632 135.025 83.6429C139.259 85.8174 142.261 89.6712 143.701 94.8024C145.552 101.398 143.543 106.163 141.527 108.99C134.975 118.19 119.466 119.425 117.716 119.532H117.724Z" fill="#2B63A8"/>
<path d="M118.228 118.069C120.797 118.069 122.879 115.993 122.879 113.433C122.879 110.872 120.797 108.797 118.228 108.797C115.659 108.797 113.577 110.872 113.577 113.433C113.577 115.993 115.659 118.069 118.228 118.069Z" fill="white"/>
<path d="M65.6098 122.819C68.389 131.632 65.1202 137.459 59.6986 139.153C54.4714 140.789 48.6394 138.026 45.9178 129.615C43.2826 121.255 46.3858 115.126 51.937 113.389C57.805 111.552 63.097 114.839 65.6098 122.819ZM50.3746 128.008C51.9298 133.383 55.2058 136.813 58.7554 135.701C62.4994 134.531 62.917 130.017 61.1746 124.484C59.5762 119.403 56.7538 115.621 52.8154 116.856C49.2658 117.968 48.7114 122.733 50.3746 128.008ZM64.8394 156.829L75.8698 105.897L79.4842 104.763L68.4538 155.695L64.8394 156.829ZM98.3483 131.575C101.127 140.387 97.8587 146.215 92.5019 147.887C87.2746 149.523 81.4426 146.753 78.7426 138.414C76.0858 129.989 79.189 123.86 84.7402 122.123C90.6082 120.286 95.8355 123.594 98.3483 131.567V131.575ZM83.113 136.77C84.733 142.131 88.0738 145.533 91.5587 144.442C95.3027 143.272 95.7202 138.758 93.9778 133.225C92.3794 128.144 89.557 124.362 85.6186 125.597C82.069 126.709 81.4498 131.496 83.113 136.77Z" fill="white"/>
</svg>
