<svg width="600" height="600" viewBox="0 0 600 600" fill="none" xmlns="http://www.w3.org/2000/svg">
<g clip-path="url(#clip0_785_2115)">
<path d="M221.404 304.907H197.907C195.588 304.907 193.707 306.787 193.707 309.107V396.381C193.707 398.701 195.588 400.582 197.907 400.582H221.404C223.723 400.582 225.604 398.701 225.604 396.381V309.107C225.604 306.787 223.723 304.907 221.404 304.907Z" fill="#C5D8E3"/>
<path d="M227.171 322.777C227.295 322.777 227.419 322.808 227.543 322.824C227.869 322.855 227.915 322.87 227.528 322.824C227.822 322.87 228.101 322.901 228.396 322.948C229.992 323.196 231.589 323.521 233.154 323.878C238.641 325.133 244.019 326.884 249.211 329.023C252.745 330.465 256.185 332.123 259.549 333.921C262.912 335.719 266.229 337.594 270.119 338.276C271.669 338.54 273.25 338.741 274.815 338.958C288.609 340.926 302.418 342.895 316.212 344.879C318.739 345.235 321.157 346.103 323.187 347.699C328.038 351.497 328.999 358.611 325.915 363.834C324.38 366.422 328.41 368.762 329.929 366.174C332.858 361.23 333.122 354.829 330.642 349.683C328.441 345.096 323.869 341.732 318.94 340.632C314.275 339.578 309.362 339.222 304.635 338.555C296.234 337.362 287.849 336.153 279.449 334.959C277.124 334.634 274.784 334.308 272.459 333.967C266.446 333.084 261.548 329.566 256.139 327.039C247.134 322.839 237.153 319.104 227.171 318.159C224.196 317.88 224.211 322.529 227.171 322.808V322.777Z" fill="#221F20"/>
<path d="M287.848 369.259H316.971C320.722 369.259 324.643 369.584 328.394 369.259C330.362 369.088 332.547 367.662 334.314 366.872C344.698 362.253 355.083 357.65 365.467 353.031C374.565 348.986 383.663 344.956 392.76 340.911C393.132 340.741 393.504 340.586 393.892 340.415C393.969 340.384 394.062 340.338 394.14 340.307C394.124 340.307 393.225 340.4 394.233 340.493C396.837 340.741 399.115 341.423 400.773 343.608C401.517 344.6 402.044 345.793 402.261 347.018C402.37 347.622 402.401 348.227 402.37 348.831C402.339 349.436 401.719 350.768 401.874 351.233C401.951 351.481 402.773 350.675 402.106 351.233C401.796 351.497 401.424 351.698 401.083 351.915L397.364 354.411C387.816 360.827 378.253 367.244 368.706 373.676C359.996 379.519 351.301 385.377 342.591 391.221C338.84 393.747 335.074 396.041 330.656 397.296C326.239 398.551 321.76 398.567 317.219 398.567H268.537C266.646 398.567 265.453 397.963 263.562 397.343C257.347 395.312 251.147 393.282 244.932 391.267C238.717 389.252 232.75 387.284 226.674 385.3C223.823 384.37 222.598 388.865 225.434 389.779C238.221 393.948 251.008 398.133 263.794 402.302C265.546 402.876 266.801 403.217 268.537 403.217H311.128C314.569 403.217 318.009 403.217 321.45 403.217C329.06 403.186 336.406 400.938 342.73 396.723C349.968 391.887 357.19 387.005 364.413 382.154C374.844 375.148 385.259 368.143 395.69 361.137L404.121 355.465C405.95 354.24 406.585 352.241 406.88 350.071C407.577 344.786 404.757 339.408 399.921 337.114C397.41 335.921 394.124 335.27 391.505 336.416C390.467 336.866 389.428 337.331 388.405 337.796C384.019 339.749 379.633 341.686 375.231 343.639C363.545 348.831 351.843 354.023 340.157 359.215L328.921 364.206C328.518 364.392 328.099 364.547 327.712 364.748C326.751 365.229 328.006 364.33 328.456 364.624C327.882 364.252 325.852 364.624 325.201 364.624H287.833C284.842 364.624 284.842 369.274 287.833 369.274L287.848 369.259Z" fill="#221F20"/>
<path d="M239.351 324.668C245.519 317.074 256.276 315.214 264.599 320.452C265.467 320.995 266.706 320.809 267.419 320.096C270.054 317.415 273.96 315.958 277.711 316.423C279.927 316.702 282.066 317.647 283.817 319.042C284.437 319.538 285.011 320.096 285.553 320.685C285.724 320.871 285.879 321.057 286.034 321.243C286.406 321.692 285.786 320.886 286.111 321.336C287.242 322.901 289.784 322.839 290.358 320.778C292.497 313.168 299.332 307.511 307.36 307.557C315.388 307.604 322.099 313.23 324.238 320.778C324.672 322.328 326.315 322.808 327.648 322.173C336.87 317.817 348.572 321.134 354.244 329.349C355.081 330.558 356.786 330.961 357.902 329.814C360.8 326.853 365.016 324.854 369.17 324.714C372.502 324.606 375.695 325.582 378.453 327.442C379.383 328.062 380.236 328.806 381.011 329.612C381.336 329.938 381.646 330.279 381.941 330.62C382.065 330.775 382.189 330.914 382.313 331.069C382.018 330.682 382.561 331.364 382.313 331.069C383.01 332.014 384.374 332.681 385.49 331.906C390.527 328.388 397.254 332.107 395.812 338.447C395.146 341.36 399.625 342.6 400.291 339.686C401.314 335.176 399.888 330.465 396.045 327.721C392.201 324.978 386.947 325.226 383.134 327.892L386.311 328.729C382.406 323.506 376.346 320.065 369.728 320.065C364.179 320.065 358.475 322.56 354.601 326.528L358.258 326.993C350.943 316.392 336.963 312.656 325.308 318.143L328.717 319.538C326.036 310.006 317.388 302.939 307.36 302.892C297.332 302.846 288.56 309.96 285.863 319.538L290.11 318.98C284.019 310.533 271.542 309.262 264.134 316.795L266.954 316.438C257.02 310.177 243.505 312.238 236.081 321.382C234.205 323.692 237.476 326.993 239.366 324.668H239.351Z" fill="#221F20"/>
<path d="M300.9 272.53C294.359 272.297 277.714 270.81 262.649 258.689C236.394 237.564 238.734 203.281 238.997 200.057C243.198 199.127 269.639 193.703 292.84 210.875C299.273 215.634 304.015 221.074 307.487 226.204L301.225 243.082V272.514" fill="url(#paint0_linear_785_2115)"/>
<path d="M303.561 303.977V244.849C303.561 244.291 303.484 243.671 303.561 243.113C303.437 244.012 303.701 243.005 303.778 242.788C303.949 242.354 304.088 241.904 304.243 241.47C304.646 240.37 305.065 239.285 305.53 238.215C311.993 223.29 324.066 210.984 339.364 205.125C351.298 200.553 364.921 199.561 377.351 202.32L375.647 200.073C376.406 209.124 375.12 218.501 372.5 227.149C367.339 244.136 355.405 258.24 338.93 265.215C331.707 268.268 323.911 269.911 316.084 270.205C314.829 270.252 313.76 271.228 313.76 272.53V306.752L316.704 304.504C311.76 303.574 306.801 302.66 301.856 301.73C298.927 301.187 297.672 305.667 300.616 306.209C305.561 307.139 310.52 308.053 315.464 308.983C316.921 309.262 318.409 308.348 318.409 306.736V272.514L316.084 274.839C333.614 274.204 350.833 267.059 362.72 253.962C373.198 242.416 378.7 227.366 380.126 211.991C380.498 208.039 380.637 204.009 380.296 200.057C380.219 199.065 379.63 198.042 378.591 197.81C367.494 195.346 355.606 195.625 344.633 198.523C327.507 203.049 312.923 214.611 304.352 230.079C302.864 232.76 301.577 235.55 300.43 238.401C299.842 239.889 299.005 241.579 298.896 243.191C298.726 245.469 298.896 247.825 298.896 250.119V303.962C298.896 306.953 303.546 306.953 303.546 303.962L303.561 303.977Z" fill="#221F20"/>
<path d="M314.507 257.976C320.97 252.381 327.433 246.786 333.911 241.175C344.234 232.248 354.54 223.305 364.863 214.378C367.249 212.317 369.621 210.255 372.008 208.194C374.394 206.133 370.969 202.955 368.722 204.908C362.259 210.503 355.796 216.098 349.317 221.709L318.366 248.506C315.979 250.568 313.608 252.629 311.221 254.691C308.834 256.752 312.259 259.929 314.507 257.976Z" fill="#221F20"/>
</g>
<defs>
<linearGradient id="paint0_linear_785_2115" x1="307.502" y1="235.519" x2="238.827" y2="235.519" gradientUnits="userSpaceOnUse">
<stop stop-color="#9BCB9E"/>
<stop offset="1" stop-color="#78C1C4"/>
</linearGradient>
<clipPath id="clip0_785_2115">
<rect width="213.296" height="207.065" fill="white" transform="translate(193.703 196.151)"/>
</clipPath>
</defs>
</svg>
