<svg width="191" height="192" viewBox="0 0 191 192" fill="none" xmlns="http://www.w3.org/2000/svg">
<path d="M154.273 151.645L181.681 167.284C182.982 168.029 184.619 168.003 185.9 167.231L189.356 165.133C191.456 163.859 191.407 160.943 189.259 159.735L159.339 142.862L154.587 145.053C151.754 146.36 151.579 150.101 154.28 151.645H154.273Z" fill="#2A4850"/>
<path d="M103.942 182.019L4.16895 126.907L73.833 94.059L173.599 149.177L103.942 182.019Z" fill="#2A4850"/>
<path d="M102.843 177.36L6.02295 121.061L75.687 88.2127L175.313 142.5L102.843 177.36Z" fill="#2B63A8"/>
<path d="M175.313 142.499L75.5405 87.3875V4.82562L175.313 59.9439V142.499Z" fill="#2B63A8"/>
<path d="M175.663 143.073L175.138 142.783L75.1904 87.5723V4.25153L75.7152 4.54187L175.663 59.7525V143.073ZM75.8901 87.1962L174.956 141.925V60.1286L75.8901 5.39969V87.1962Z" fill="#2B63A8"/>
<path d="M13.9157 80.7888L15.9099 84.8799C15.9729 85.0053 16.0779 85.1043 16.2108 85.1637L20.5491 87.0443C21.0249 87.2488 21.0249 87.8889 20.5491 88.0935L16.2108 89.9741C16.0779 90.0335 15.9729 90.1324 15.9099 90.2578L13.9157 94.349C13.6988 94.7977 13.0201 94.7977 12.8032 94.349L10.809 90.2578C10.746 90.1324 10.6411 90.0335 10.5081 89.9741L6.16985 88.0935C5.69404 87.8889 5.69404 87.2488 6.16985 87.0443L10.5081 85.1637C10.6411 85.1043 10.746 85.0053 10.809 84.8799L12.8032 80.7888C13.0201 80.3401 13.6988 80.3401 13.9157 80.7888Z" fill="white"/>
<path d="M13.6917 80.9144L15.518 84.6558C15.7209 85.0715 15.9309 85.3091 16.3787 85.507L18.6388 86.4836L19.7863 86.9851C19.9542 87.0577 20.2831 87.1303 20.4091 87.2556C21.0528 87.8825 19.4155 88.3114 19.1356 88.4368L16.6166 89.5256C16.1897 89.7103 15.8609 89.8291 15.63 90.2448C15.2661 90.8849 14.9792 91.5777 14.6574 92.2376L14.1186 93.3396C14.0066 93.5771 13.9017 93.9466 13.7267 94.1512C13.104 94.8573 12.7261 93.5969 12.5792 93.2868L11.4247 90.9179C11.2217 90.5022 11.0748 89.9941 10.627 89.7565C10.0322 89.4398 9.36049 89.2088 8.73774 88.9383C8.02402 88.6282 7.21235 88.3774 6.54062 87.9881C6.30971 87.8561 5.76393 87.7703 6.3307 87.2556C6.48464 87.1171 6.8415 87.0313 7.03742 86.9521L9.8153 85.7446C10.3261 85.5202 10.8229 85.3948 11.0958 84.8999C11.4946 84.1741 11.8235 83.4087 12.1874 82.663L12.7891 81.4291C12.8661 81.2707 13.2439 80.2479 13.6917 80.921C13.8737 81.1915 14.3285 80.9408 14.1466 80.6702C13.6708 79.9642 12.8521 80.1687 12.5022 80.8352C12.0964 81.6138 11.7325 82.4123 11.3477 83.2041C11.1098 83.6858 10.8719 84.6294 10.3751 84.9593C9.79431 85.342 8.98264 85.5664 8.34589 85.8435C7.61119 86.1603 6.79252 86.4308 6.0928 86.8201C5.39308 87.2095 5.40707 87.9551 6.0928 88.3378C6.77852 88.7205 7.61119 88.9977 8.34589 89.3144C8.98264 89.5916 9.80131 89.8159 10.3751 90.1986C10.8719 90.5286 11.1098 91.4656 11.3477 91.9539C11.7325 92.7391 12.0964 93.5441 12.5022 94.3228C12.8451 94.9826 13.6848 95.2004 14.1466 94.4877C14.5034 93.9335 14.7413 93.2736 15.0212 92.6863C15.3711 91.9671 15.658 91.1422 16.0988 90.4692C16.3927 90.0205 17.1414 89.8555 17.6242 89.6443L20.3041 88.483C20.8849 88.2322 21.5076 87.7241 20.9758 87.0775C20.7939 86.8597 20.486 86.7674 20.2271 86.6486L18.7717 86.0151C18.009 85.6852 17.0434 85.4212 16.3507 84.9659C16.0988 84.801 16.0148 84.5106 15.8959 84.2599L15.2031 82.8478L14.1466 80.6834C14.0066 80.3931 13.5518 80.6438 13.6917 80.9342V80.9144Z" fill="#2B63A8"/>
<path d="M13.6849 80.9146L15.5112 84.656C15.7141 85.0717 15.931 85.3159 16.3788 85.5073L18.6389 86.4838L19.7865 86.9853C19.9544 87.0579 20.2833 87.1305 20.4092 87.2559C21.032 87.8762 19.4156 88.2985 19.1357 88.4238L16.6167 89.5126C16.1899 89.6974 15.8611 89.8227 15.6231 90.2319C15.2593 90.8719 14.9724 91.5648 14.6505 92.2246L14.1118 93.3266C13.9998 93.5642 13.8948 93.9337 13.7199 94.1382C13.1042 94.8311 12.7333 93.5774 12.5864 93.2738L11.4318 90.9049C11.2289 90.4892 11.082 89.9811 10.6341 89.737C10.0394 89.4202 9.36766 89.1893 8.74491 88.9187C8.03119 88.6086 7.21952 88.3579 6.54779 87.9685C6.32388 87.8366 5.78509 87.7574 6.33787 87.2493C6.49181 87.1107 6.85566 87.0249 7.04459 86.9457L9.82247 85.7382C10.3333 85.5138 10.8301 85.3819 11.103 84.887C11.5018 84.1611 11.8307 83.3957 12.1945 82.65L12.7963 81.4161C12.8523 81.3039 12.9012 81.1192 12.9852 81.0268C13.1042 80.8882 13.1321 80.0832 13.6849 80.9146C13.8669 81.1918 14.3357 80.9344 14.1537 80.6573C13.6779 79.9446 12.8453 80.1492 12.4954 80.8222C12.0896 81.6009 11.7257 82.3993 11.3409 83.1911C11.103 83.6728 10.8651 84.6164 10.3753 84.9398C9.79448 85.3225 8.98281 85.5468 8.34607 85.824C7.61136 86.1407 6.79269 86.4113 6.09297 86.8006C5.39325 87.1899 5.40025 87.9487 6.09297 88.3315C6.79269 88.7208 7.61136 88.9913 8.34607 89.3081C8.98281 89.5852 9.80148 89.8095 10.3753 90.1923C10.8721 90.5156 11.11 91.4592 11.3409 91.9409C11.7257 92.7261 12.0896 93.5312 12.4954 94.3098C12.8453 94.9763 13.6849 95.194 14.1537 94.4748C14.5106 93.9205 14.7485 93.2606 15.0284 92.6734C15.3782 91.9541 15.6651 91.1293 16.106 90.4562C16.3998 90.0141 17.1485 89.8425 17.6243 89.638L20.3043 88.4766C20.892 88.2259 21.5148 87.7046 20.976 87.0579C20.7941 86.8336 20.4862 86.7478 20.2273 86.629L18.7719 85.9955C18.0092 85.6656 17.0366 85.4017 16.3509 84.9464C16.099 84.7814 16.015 84.4977 15.896 84.2469L15.2033 82.8348L14.1467 80.6705C13.9998 80.3735 13.531 80.6309 13.6779 80.9278L13.6849 80.9146Z" fill="white"/>
<path d="M13.454 81.0399L14.7904 83.7783C15.0983 84.4118 15.3362 85.1772 15.98 85.5863C16.7287 86.0548 17.6803 86.3452 18.492 86.7015C18.8768 86.8665 19.2547 87.0446 19.6395 87.203C20.0733 87.3745 20.4512 87.5395 19.9054 87.8496C19.4716 88.0872 18.9398 88.2324 18.485 88.4303C17.6383 88.7932 16.5747 89.0968 15.833 89.6247C15.3082 90.0008 15.0913 90.6673 14.8324 91.2149C14.4616 92.0068 14.0697 92.792 13.7129 93.5904C13.6779 93.6762 13.482 94.0985 13.2721 94.0457C13.1811 94.026 13.0621 93.7356 13.0272 93.663C12.9432 93.4981 12.8802 93.3199 12.8032 93.1483C12.3904 92.2443 11.9286 91.3535 11.5018 90.4561C11.2289 89.8754 10.907 89.5785 10.2982 89.3013C9.39561 88.8856 8.44399 88.5557 7.52736 88.1664C7.30345 88.074 6.72968 87.8958 6.57574 87.7045C6.30285 87.3745 6.88362 87.2756 7.1705 87.1568C8.1711 86.7477 9.15071 86.2924 10.1373 85.8701C10.802 85.5863 11.1659 85.3158 11.5018 84.6823C11.9566 83.8113 12.3484 82.9139 12.7753 82.0363C12.9222 81.7393 13.0691 81.449 13.2091 81.152C13.2301 81.1059 13.2651 80.9937 13.293 80.9673C13.475 80.7693 13.1811 80.6176 13.454 81.0399C13.6499 81.3368 14.1047 81.35 14.3356 81.0861C14.6155 80.7627 14.3146 80.3668 14.0138 80.1623C13.6079 79.8851 13.0901 79.9247 12.6913 80.1953C12.0965 80.611 11.8446 81.5084 11.5577 82.1088C11.2359 82.7819 10.977 83.4946 10.6341 84.161C10.2213 84.9792 9.26966 85.1706 8.45099 85.5005C7.6813 85.8041 6.88362 86.0878 6.15591 86.4705C4.88942 87.137 5.21129 88.206 6.37282 88.7603C7.10753 89.11 7.89121 89.4069 8.65391 89.7039C9.05275 89.8622 9.46558 89.9942 9.85043 90.1856C10.3752 90.4561 10.5781 90.8124 10.7881 91.3205C11.0609 91.9738 11.3548 92.6073 11.6627 93.2473C11.9496 93.8478 12.2085 94.732 12.8942 95.0487C14.3496 95.7086 14.9584 93.4057 15.3362 92.5743C15.7771 91.6109 16.029 90.5155 17.1345 90.0734C18.0651 89.7105 18.9748 89.3079 19.8844 88.912C20.4792 88.6547 21.3748 88.3313 21.4238 87.5923C21.4728 86.8533 20.6821 86.5563 20.0943 86.299C19.1707 85.9031 18.2261 85.5533 17.2954 85.1574C16.6097 84.8605 16.2878 84.5173 15.98 83.8773C15.7491 83.4022 15.5182 82.9337 15.2872 82.4586L14.5805 81.0135C14.4686 80.7825 14.3776 80.4196 14.0907 80.314C13.6149 80.1293 13.328 80.6044 13.398 80.9805C13.454 81.2906 13.9578 81.1586 13.9018 80.8485C13.9648 81.1982 14.3146 81.6535 14.4756 81.9835L15.0633 83.1844C15.3572 83.7849 15.5881 84.6757 16.1339 85.1112C16.6517 85.5269 17.3934 85.7249 18.0092 85.9624C18.457 86.134 18.8978 86.3254 19.3386 86.5167C19.6885 86.6685 20.1783 86.7807 20.4722 87.005C21.4238 87.7441 20.4302 88.1268 19.8774 88.3643C19.4296 88.5623 18.9818 88.7537 18.5339 88.945C17.8272 89.2486 17.0156 89.4795 16.3578 89.8688C15.7771 90.212 15.5322 90.8388 15.2733 91.4129C14.9304 92.1651 14.6085 92.9306 14.2517 93.6762C14.0487 94.0985 13.7129 94.8706 13.0761 94.5802C12.6913 94.4021 12.5024 93.8016 12.3344 93.4651C11.9776 92.7392 11.6207 92.0134 11.3198 91.2677C11.1309 90.8058 10.942 90.3241 10.5292 90.0008C10.0394 89.6181 9.36063 89.4399 8.77986 89.2156C7.99617 88.912 7.12152 88.6349 6.40081 88.2126C4.88942 87.335 6.89062 86.6487 7.69529 86.3254C8.75187 85.9031 10.3822 85.5731 10.984 84.5569C11.3058 84.0159 11.4878 83.389 11.7607 82.8215C11.9286 82.4652 12.0965 82.1089 12.2715 81.7525C12.4534 81.3764 12.6423 80.7231 13.0691 80.5186C13.3 80.4064 14.0697 80.7165 13.524 80.38C13.412 80.314 13.293 80.2546 13.1531 80.2942C12.8732 80.3668 12.8172 80.6769 12.7193 80.8881C12.4044 81.581 12.0406 82.2672 11.7117 82.9601C11.3828 83.6529 11.0889 84.7681 10.3752 85.1838C9.6615 85.5995 8.86382 85.8437 8.12912 86.1604C7.51337 86.4243 6.61773 86.6289 6.10693 87.0512C5.11333 87.876 6.84164 88.4171 7.45039 88.6613C8.22008 88.9714 8.99677 89.2684 9.75947 89.5983C10.1653 89.7698 10.5432 89.9216 10.802 90.2779C11.005 90.5551 11.1239 90.9312 11.2709 91.2413C11.6347 91.987 12.0196 92.726 12.3554 93.4783C12.5024 93.8082 12.6283 94.2239 12.9502 94.4351C13.8878 95.0553 14.3776 93.2473 14.6155 92.7656C15.0074 91.9672 15.3152 91.083 15.798 90.3373C16.2389 89.6511 17.4704 89.3673 18.2051 89.0506C18.7928 88.7933 19.4226 88.5887 20.0034 88.3116C20.3252 88.1598 20.7521 87.9156 20.7661 87.5263C20.773 87.0776 20.3182 86.9192 19.9544 86.7807C19.0238 86.4177 18.1211 85.9954 17.2115 85.5995C16.7427 85.395 16.1829 85.2366 15.868 84.8275C15.6301 84.5107 15.4902 84.1148 15.3222 83.7651L13.8668 80.7759C13.7269 80.4856 13.2721 80.7363 13.412 81.0267L13.454 81.0399Z" fill="#2B63A8"/>
<path d="M135.786 12.5069L137.781 16.598C137.844 16.7234 137.948 16.8224 138.081 16.8818L142.42 18.7624C142.895 18.9669 142.895 19.607 142.42 19.8116L138.081 21.6922C137.948 21.7515 137.844 21.8505 137.781 21.9759L135.786 26.067C135.569 26.5157 134.891 26.5157 134.674 26.067L132.68 21.9759C132.617 21.8505 132.512 21.7515 132.379 21.6922L128.04 19.8116C127.565 19.607 127.565 18.9669 128.04 18.7624L132.379 16.8818C132.512 16.8224 132.617 16.7234 132.68 16.598L134.674 12.5069C134.891 12.0582 135.569 12.0582 135.786 12.5069Z" fill="white"/>
<path d="M135.562 12.6321L137.389 16.3736C137.592 16.7893 137.801 17.0268 138.249 17.2248L140.509 18.2014L141.657 18.7029C141.825 18.7755 142.154 18.848 142.28 18.9734C142.923 19.6003 141.286 20.0292 141.006 20.1546L138.487 21.2433C138.06 21.4281 137.731 21.5469 137.501 21.9626C137.137 22.6027 136.85 23.2955 136.528 23.9554L135.989 25.0573C135.877 25.2949 135.772 25.6644 135.597 25.869C134.975 26.575 134.597 25.3147 134.45 25.0046L133.295 22.6357C133.092 22.2199 132.945 21.7118 132.498 21.4743C131.903 21.1576 131.231 20.9266 130.608 20.6561C129.895 20.3459 129.083 20.0952 128.411 19.7059C128.18 19.5739 127.635 19.4881 128.201 18.9734C128.355 18.8348 128.712 18.7491 128.908 18.6699L131.686 17.4623C132.197 17.238 132.694 17.1126 132.966 16.6177C133.365 15.8919 133.694 15.1264 134.058 14.3808L134.66 13.1468C134.737 12.9885 135.115 11.9657 135.562 12.6387C135.744 12.9093 136.199 12.6585 136.017 12.388C135.541 11.6819 134.723 11.8865 134.373 12.553C133.967 13.3316 133.603 14.13 133.218 14.9219C132.98 15.4036 132.742 16.3472 132.246 16.6771C131.665 17.0598 130.853 17.2842 130.216 17.5613C129.482 17.878 128.663 18.1486 127.963 18.5379C127.264 18.9272 127.278 19.6729 127.963 20.0556C128.649 20.4383 129.482 20.7155 130.216 21.0322C130.853 21.3093 131.672 21.5337 132.246 21.9164C132.742 22.2463 132.98 23.1833 133.218 23.6716C133.603 24.4569 133.967 25.2619 134.373 26.0405C134.716 26.7004 135.555 26.9182 136.017 26.2055C136.374 25.6512 136.612 24.9914 136.892 24.4041C137.242 23.6848 137.529 22.86 137.969 22.1869C138.263 21.7382 139.012 21.5733 139.495 21.3621L142.175 20.2008C142.755 19.95 143.378 19.4419 142.846 18.7953C142.664 18.5775 142.357 18.4851 142.098 18.3663L140.642 17.7329C139.88 17.4029 138.914 17.139 138.221 16.6837C137.969 16.5187 137.885 16.2284 137.766 15.9776L137.074 14.5655L136.017 12.4012C135.877 12.1109 135.422 12.3616 135.562 12.6519V12.6321Z" fill="#2B63A8"/>
<path d="M135.555 12.6382L137.381 16.3797C137.584 16.7954 137.801 17.0395 138.249 17.2309L140.509 18.2075L141.657 18.709C141.825 18.7816 142.153 18.8541 142.279 18.9795C142.902 19.5998 141.286 20.0221 141.006 20.1475L138.487 21.2362C138.06 21.421 137.731 21.5464 137.493 21.9555C137.129 22.5956 136.843 23.2884 136.521 23.9483L135.982 25.0502C135.87 25.2878 135.765 25.6573 135.59 25.8619C134.974 26.5547 134.603 25.301 134.456 24.9975L133.302 22.6286C133.099 22.2128 132.952 21.7047 132.504 21.4606C131.909 21.1439 131.238 20.9129 130.615 20.6424C129.901 20.3322 129.09 20.0815 128.418 19.6922C128.194 19.5602 127.655 19.481 128.208 18.9729C128.362 18.8343 128.726 18.7486 128.915 18.6694L131.693 17.4618C132.203 17.2375 132.7 17.1055 132.973 16.6106C133.372 15.8848 133.701 15.1193 134.065 14.3737L134.666 13.1397C134.722 13.0276 134.771 12.8428 134.855 12.7504C134.974 12.6119 135.002 11.8068 135.555 12.6382C135.737 12.9154 136.206 12.658 136.024 12.3809C135.548 11.6682 134.715 11.8728 134.366 12.5459C133.96 13.3245 133.596 14.1229 133.211 14.9148C132.973 15.3965 132.735 16.3401 132.245 16.6634C131.665 17.0461 130.853 17.2705 130.216 17.5476C129.481 17.8643 128.663 18.1349 127.963 18.5242C127.263 18.9135 127.27 19.6724 127.963 20.0551C128.663 20.4444 129.481 20.715 130.216 21.0317C130.853 21.3088 131.672 21.5332 132.245 21.9159C132.742 22.2392 132.98 23.1828 133.211 23.6645C133.596 24.4498 133.96 25.2548 134.366 26.0334C134.715 26.6999 135.555 26.9177 136.024 26.1984C136.381 25.6441 136.619 24.9843 136.898 24.397C137.248 23.6777 137.535 22.8529 137.976 22.1798C138.27 21.7377 139.019 21.5662 139.494 21.3616L142.174 20.2003C142.762 19.9495 143.385 19.4282 142.846 18.7816C142.664 18.5572 142.356 18.4714 142.097 18.3526L140.642 17.7192C139.879 17.3892 138.907 17.1253 138.221 16.67C137.969 16.505 137.885 16.2213 137.766 15.9705L137.073 14.5584L136.017 12.3941C135.87 12.0972 135.401 12.3545 135.548 12.6514L135.555 12.6382Z" fill="white"/>
<path d="M135.324 12.7636L136.661 15.502C136.968 16.1355 137.206 16.9009 137.85 17.31C138.599 17.7785 139.55 18.0689 140.362 18.4252C140.747 18.5901 141.125 18.7683 141.51 18.9267C141.943 19.0982 142.321 19.2632 141.776 19.5733C141.342 19.8109 140.81 19.9561 140.355 20.154C139.508 20.5169 138.445 20.8205 137.703 21.3484C137.178 21.7245 136.961 22.391 136.703 22.9386C136.332 23.7305 135.94 24.5157 135.583 25.3141C135.548 25.3999 135.352 25.8222 135.142 25.7694C135.051 25.7496 134.932 25.4593 134.897 25.3867C134.813 25.2218 134.75 25.0436 134.673 24.872C134.261 23.968 133.799 23.0772 133.372 22.1798C133.099 21.5991 132.777 21.3022 132.168 21.025C131.266 20.6093 130.314 20.2794 129.397 19.8901C129.174 19.7977 128.6 19.6195 128.446 19.4282C128.173 19.0982 128.754 18.9993 129.041 18.8805C130.041 18.4714 131.021 18.0161 132.007 17.5938C132.672 17.31 133.036 17.0395 133.372 16.406C133.827 15.535 134.219 14.6376 134.645 13.76C134.792 13.463 134.939 13.1727 135.079 12.8757C135.1 12.8296 135.135 12.7174 135.163 12.691C135.345 12.493 135.051 12.3413 135.324 12.7636C135.52 13.0605 135.975 13.0737 136.206 12.8098C136.486 12.4864 136.185 12.0905 135.884 11.886C135.478 11.6088 134.96 11.6484 134.561 11.9189C133.967 12.3347 133.715 13.2321 133.428 13.8325C133.106 14.5056 132.847 15.2183 132.504 15.8847C132.091 16.7029 131.14 16.8943 130.321 17.2242C129.551 17.5278 128.754 17.8115 128.026 18.1942C126.76 18.8607 127.081 19.9297 128.243 20.4839C128.978 20.8337 129.761 21.1306 130.524 21.4276C130.923 21.5859 131.336 21.7179 131.721 21.9093C132.245 22.1798 132.448 22.5361 132.658 23.0442C132.931 23.6975 133.225 24.3309 133.533 24.971C133.82 25.5715 134.079 26.4557 134.764 26.7724C136.22 27.4323 136.828 25.1294 137.206 24.298C137.647 23.3346 137.899 22.2392 139.005 21.7971C139.935 21.4342 140.845 21.0316 141.755 20.6357C142.349 20.3784 143.245 20.055 143.294 19.316C143.343 18.577 142.552 18.28 141.964 18.0227C141.041 17.6267 140.096 17.277 139.166 16.8811C138.48 16.5842 138.158 16.241 137.85 15.601C137.619 15.1259 137.388 14.6574 137.157 14.1823L136.451 12.7372C136.339 12.5062 136.248 12.1433 135.961 12.0377C135.485 11.853 135.198 12.3281 135.268 12.7042C135.324 13.0143 135.828 12.8823 135.772 12.5722C135.835 12.9219 136.185 13.3772 136.346 13.7072L136.933 14.9081C137.227 15.5086 137.458 16.3994 138.004 16.8349C138.522 17.2506 139.264 17.4486 139.879 17.6861C140.327 17.8577 140.768 18.0491 141.209 18.2404C141.559 18.3922 142.048 18.5044 142.342 18.7287C143.294 19.4678 142.3 19.8505 141.748 20.088C141.3 20.286 140.852 20.4774 140.404 20.6687C139.697 20.9722 138.886 21.2032 138.228 21.5925C137.647 21.9356 137.402 22.5625 137.143 23.1366C136.801 23.8888 136.479 24.6543 136.122 25.3999C135.919 25.8222 135.583 26.5943 134.946 26.3039C134.561 26.1258 134.372 25.5253 134.205 25.1888C133.848 24.4629 133.491 23.7371 133.19 22.9914C133.001 22.5295 132.812 22.0478 132.399 21.7245C131.909 21.3418 131.231 21.1636 130.65 20.9393C129.866 20.6357 128.992 20.3586 128.271 19.9363C126.76 19.0586 128.761 18.3724 129.565 18.0491C130.622 17.6267 132.252 17.2968 132.854 16.2806C133.176 15.7395 133.358 15.1127 133.631 14.5452C133.799 14.1889 133.967 13.8325 134.142 13.4762C134.323 13.1001 134.512 12.4468 134.939 12.2423C135.17 12.1301 135.94 12.4402 135.394 12.1037C135.282 12.0377 135.163 11.9783 135.023 12.0179C134.743 12.0905 134.687 12.4006 134.589 12.6118C134.275 13.3047 133.911 13.9909 133.582 14.6838C133.253 15.3766 132.959 16.4918 132.245 16.9075C131.532 17.3232 130.734 17.5674 129.999 17.8841C129.383 18.148 128.488 18.3526 127.977 18.7749C126.983 19.5997 128.712 20.1408 129.321 20.385C130.09 20.6951 130.867 20.992 131.63 21.322C132.035 21.4935 132.413 21.6453 132.672 22.0016C132.875 22.2788 132.994 22.6549 133.141 22.965C133.505 23.7107 133.89 24.4497 134.226 25.202C134.372 25.5319 134.498 25.9476 134.82 26.1588C135.758 26.779 136.248 24.971 136.486 24.4893C136.877 23.6909 137.185 22.8067 137.668 22.061C138.109 21.3748 139.34 21.091 140.075 20.7743C140.663 20.5169 141.293 20.3124 141.873 20.0352C142.195 19.8835 142.622 19.6393 142.636 19.25C142.643 18.8013 142.188 18.6429 141.824 18.5044C140.894 18.1414 139.991 17.7191 139.082 17.3232C138.613 17.1187 138.053 16.9603 137.738 16.5512C137.5 16.2344 137.36 15.8385 137.192 15.4888L135.737 12.4996C135.597 12.2093 135.142 12.46 135.282 12.7504L135.324 12.7636Z" fill="#2B63A8"/>
<path d="M160.339 176.733L162.333 180.824C162.396 180.95 162.501 181.049 162.634 181.108L166.972 182.989C167.448 183.193 167.448 183.833 166.972 184.038L162.634 185.918C162.501 185.978 162.396 186.077 162.333 186.202L160.339 190.293C160.122 190.742 159.443 190.742 159.227 190.293L157.232 186.202C157.169 186.077 157.064 185.978 156.931 185.918L152.593 184.038C152.117 183.833 152.117 183.193 152.593 182.989L156.931 181.108C157.064 181.049 157.169 180.95 157.232 180.824L159.227 176.733C159.443 176.284 160.122 176.284 160.339 176.733Z" fill="white"/>
<path d="M160.115 176.859L161.941 180.6C162.144 181.016 162.354 181.253 162.802 181.451L165.062 182.428L166.21 182.929C166.378 183.002 166.706 183.075 166.832 183.2C167.476 183.827 165.839 184.256 165.559 184.381L163.04 185.47C162.613 185.655 162.284 185.773 162.053 186.189C161.689 186.829 161.403 187.522 161.081 188.182L160.542 189.284C160.43 189.521 160.325 189.891 160.15 190.095C159.527 190.802 159.149 189.541 159.003 189.231L157.848 186.862C157.645 186.446 157.498 185.938 157.05 185.701C156.456 185.384 155.784 185.153 155.161 184.883C154.447 184.572 153.636 184.322 152.964 183.932C152.733 183.8 152.187 183.715 152.754 183.2C152.908 183.061 153.265 182.976 153.461 182.896L156.239 181.689C156.749 181.464 157.246 181.339 157.519 180.844C157.918 180.118 158.247 179.353 158.611 178.607L159.212 177.373C159.289 177.215 159.667 176.192 160.115 176.865C160.297 177.136 160.752 176.885 160.57 176.614C160.094 175.908 159.275 176.113 158.926 176.779C158.52 177.558 158.156 178.357 157.771 179.148C157.533 179.63 157.295 180.574 156.798 180.904C156.218 181.286 155.406 181.511 154.769 181.788C154.035 182.105 153.216 182.375 152.516 182.764C151.816 183.154 151.83 183.899 152.516 184.282C153.202 184.665 154.035 184.942 154.769 185.259C155.406 185.536 156.225 185.76 156.798 186.143C157.295 186.473 157.533 187.41 157.771 187.898C158.156 188.683 158.52 189.488 158.926 190.267C159.268 190.927 160.108 191.145 160.57 190.432C160.927 189.878 161.165 189.218 161.445 188.631C161.794 187.911 162.081 187.086 162.522 186.413C162.816 185.965 163.565 185.8 164.048 185.589L166.727 184.427C167.308 184.177 167.931 183.668 167.399 183.022C167.217 182.804 166.909 182.712 166.65 182.593L165.195 181.959C164.432 181.629 163.467 181.365 162.774 180.91C162.522 180.745 162.438 180.455 162.319 180.204L161.626 178.792L160.57 176.628C160.43 176.337 159.975 176.588 160.115 176.878V176.859Z" fill="#2B63A8"/>
<path d="M160.108 176.865L161.935 180.607C162.137 181.022 162.354 181.267 162.802 181.458L165.062 182.434L166.21 182.936C166.378 183.009 166.707 183.081 166.833 183.207C167.455 183.827 165.839 184.249 165.559 184.374L163.04 185.463C162.613 185.648 162.284 185.773 162.046 186.182C161.683 186.823 161.396 187.515 161.074 188.175L160.535 189.277C160.423 189.515 160.318 189.884 160.143 190.089C159.527 190.782 159.157 189.528 159.01 189.224L157.855 186.856C157.652 186.44 157.505 185.932 157.057 185.688C156.463 185.371 155.791 185.14 155.168 184.869C154.455 184.559 153.643 184.308 152.971 183.919C152.747 183.787 152.208 183.708 152.761 183.2C152.915 183.061 153.279 182.976 153.468 182.896L156.246 181.689C156.757 181.464 157.253 181.333 157.526 180.838C157.925 180.112 158.254 179.346 158.618 178.601L159.22 177.367C159.276 177.255 159.325 177.07 159.409 176.977C159.527 176.839 159.555 176.034 160.108 176.865C160.29 177.142 160.759 176.885 160.577 176.608C160.101 175.895 159.269 176.1 158.919 176.773C158.513 177.551 158.149 178.35 157.764 179.142C157.526 179.623 157.288 180.567 156.799 180.89C156.218 181.273 155.406 181.497 154.769 181.775C154.035 182.091 153.216 182.362 152.516 182.751C151.817 183.141 151.824 183.899 152.516 184.282C153.216 184.671 154.035 184.942 154.769 185.259C155.406 185.536 156.225 185.76 156.799 186.143C157.295 186.466 157.533 187.41 157.764 187.892C158.149 188.677 158.513 189.482 158.919 190.26C159.269 190.927 160.108 191.145 160.577 190.425C160.934 189.871 161.172 189.211 161.452 188.624C161.802 187.905 162.088 187.08 162.529 186.407C162.823 185.965 163.572 185.793 164.048 185.589L166.728 184.427C167.315 184.177 167.938 183.655 167.399 183.009C167.217 182.784 166.91 182.698 166.651 182.58L165.195 181.946C164.433 181.616 163.46 181.352 162.774 180.897C162.522 180.732 162.438 180.448 162.319 180.198L161.627 178.785L160.57 176.621C160.423 176.324 159.954 176.581 160.101 176.878L160.108 176.865Z" fill="white"/>
<path d="M159.884 176.99L161.221 179.729C161.529 180.362 161.766 181.128 162.41 181.537C163.159 182.005 164.11 182.296 164.922 182.652C165.307 182.817 165.685 182.995 166.07 183.154C166.504 183.325 166.881 183.49 166.336 183.8C165.902 184.038 165.37 184.183 164.915 184.381C164.068 184.744 163.005 185.047 162.263 185.575C161.738 185.951 161.522 186.618 161.263 187.166C160.892 187.957 160.5 188.743 160.143 189.541C160.108 189.627 159.912 190.049 159.702 189.996C159.611 189.977 159.492 189.686 159.457 189.614C159.373 189.449 159.31 189.271 159.233 189.099C158.821 188.195 158.359 187.304 157.932 186.407C157.659 185.826 157.337 185.529 156.728 185.252C155.826 184.836 154.874 184.506 153.958 184.117C153.734 184.025 153.16 183.846 153.006 183.655C152.733 183.325 153.314 183.226 153.601 183.107C154.601 182.698 155.581 182.243 156.567 181.821C157.232 181.537 157.596 181.266 157.932 180.633C158.387 179.762 158.779 178.865 159.205 177.987C159.352 177.69 159.499 177.4 159.639 177.103C159.66 177.056 159.695 176.944 159.723 176.918C159.905 176.72 159.611 176.568 159.884 176.99C160.08 177.287 160.535 177.301 160.766 177.037C161.046 176.713 160.745 176.317 160.444 176.113C160.038 175.836 159.52 175.875 159.121 176.146C158.527 176.562 158.275 177.459 157.988 178.059C157.666 178.733 157.407 179.445 157.064 180.112C156.651 180.93 155.7 181.121 154.881 181.451C154.111 181.755 153.314 182.038 152.586 182.421C151.32 183.088 151.641 184.157 152.803 184.711C153.538 185.061 154.321 185.358 155.084 185.654C155.483 185.813 155.896 185.945 156.281 186.136C156.805 186.407 157.008 186.763 157.218 187.271C157.491 187.924 157.785 188.558 158.093 189.198C158.38 189.798 158.639 190.683 159.324 190.999C160.78 191.659 161.389 189.356 161.766 188.525C162.207 187.561 162.459 186.466 163.565 186.024C164.495 185.661 165.405 185.259 166.315 184.863C166.909 184.605 167.805 184.282 167.854 183.543C167.903 182.804 167.112 182.507 166.524 182.25C165.601 181.854 164.656 181.504 163.726 181.108C163.04 180.811 162.718 180.468 162.41 179.828C162.179 179.353 161.948 178.884 161.717 178.409L161.011 176.964C160.899 176.733 160.808 176.37 160.521 176.265C160.045 176.08 159.758 176.555 159.828 176.931C159.884 177.241 160.388 177.109 160.332 176.799C160.395 177.149 160.745 177.604 160.906 177.934L161.494 179.135C161.787 179.736 162.018 180.626 162.564 181.062C163.082 181.478 163.824 181.676 164.439 181.913C164.887 182.085 165.328 182.276 165.769 182.467C166.119 182.619 166.608 182.731 166.902 182.956C167.854 183.695 166.86 184.077 166.308 184.315C165.86 184.513 165.412 184.704 164.964 184.896C164.257 185.199 163.446 185.43 162.788 185.819C162.207 186.163 161.962 186.789 161.703 187.364C161.361 188.116 161.039 188.881 160.682 189.627C160.479 190.049 160.143 190.821 159.506 190.531C159.121 190.353 158.933 189.752 158.765 189.416C158.408 188.69 158.051 187.964 157.75 187.218C157.561 186.756 157.372 186.275 156.959 185.951C156.47 185.569 155.791 185.391 155.21 185.166C154.426 184.863 153.552 184.585 152.831 184.163C151.32 183.286 153.321 182.599 154.125 182.276C155.182 181.854 156.812 181.524 157.414 180.508C157.736 179.966 157.918 179.34 158.191 178.772C158.359 178.416 158.527 178.059 158.702 177.703C158.884 177.327 159.072 176.674 159.499 176.469C159.73 176.357 160.5 176.667 159.954 176.331C159.842 176.265 159.723 176.205 159.583 176.245C159.303 176.317 159.247 176.628 159.149 176.839C158.835 177.532 158.471 178.218 158.142 178.911C157.813 179.604 157.519 180.719 156.805 181.134C156.092 181.55 155.294 181.794 154.559 182.111C153.944 182.375 153.048 182.58 152.537 183.002C151.544 183.827 153.272 184.368 153.881 184.612C154.65 184.922 155.427 185.219 156.19 185.549C156.595 185.72 156.973 185.872 157.232 186.229C157.435 186.506 157.554 186.882 157.701 187.192C158.065 187.938 158.45 188.677 158.786 189.429C158.933 189.759 159.058 190.175 159.38 190.386C160.318 191.006 160.808 189.198 161.046 188.716C161.438 187.918 161.745 187.034 162.228 186.288C162.669 185.602 163.901 185.318 164.635 185.001C165.223 184.744 165.853 184.539 166.434 184.262C166.755 184.11 167.182 183.866 167.196 183.477C167.203 183.028 166.748 182.87 166.385 182.731C165.454 182.368 164.551 181.946 163.642 181.55C163.173 181.346 162.613 181.187 162.298 180.778C162.06 180.461 161.92 180.065 161.752 179.716L160.297 176.727C160.157 176.436 159.702 176.687 159.842 176.977L159.884 176.99Z" fill="#2B63A8"/>
<path d="M171.269 142.5L71.5029 87.388V4.82605L171.269 59.9443V142.5Z" fill="white"/>
<path d="M172.325 140.791L162.368 135.294L138.473 122.097L109.742 106.227L84.7905 92.4425L76.6177 87.9291C75.3302 87.2164 74.0638 86.4246 72.7343 85.7845C72.6783 85.7581 72.6223 85.7185 72.5594 85.6921L73.6019 87.4012V79.1529C73.6019 72.6071 73.6019 66.0546 73.6019 59.5088V8.17155C73.6019 7.10917 73.6719 6.027 73.6019 4.97122C73.6019 4.92503 73.6019 4.87884 73.6019 4.83265L70.4462 6.54169L80.4032 12.0383L104.299 25.2356L133.029 41.1053L157.981 54.8898L166.154 59.4032C167.441 60.1159 168.708 60.9077 170.037 61.5478C170.093 61.5742 170.149 61.6138 170.212 61.6402L169.17 59.9311V68.1794C169.17 74.7252 169.17 81.2777 169.17 87.8235V132.338C169.17 135.67 169.058 139.016 169.17 142.348C169.17 142.394 169.17 142.44 169.17 142.486C169.17 145.034 173.368 145.04 173.368 142.486V61.8777C173.368 60.558 173.641 59.0403 172.276 58.2023C171.409 57.6744 170.485 57.2125 169.596 56.7242L154.357 48.3044L131.007 35.4041L105.621 21.382L84.2797 9.59685L73.0562 3.39415L72.5594 3.11701C71.1879 2.35817 69.4036 3.32817 69.4036 4.82605V40.4322C69.4036 49.4987 69.4036 58.5586 69.4036 67.6251V85.4546C69.4036 86.7743 69.1307 88.292 70.4952 89.13C71.3628 89.6579 72.2865 90.1198 73.1751 90.6081L88.415 99.0279L111.765 111.928L137.15 125.95L158.492 137.735L169.715 143.938L170.212 144.215C172.549 145.509 174.662 142.084 172.332 140.797L172.325 140.791Z" fill="#2B63A8"/>
<path d="M101.017 174.786L1.25098 119.675L70.908 86.8266L170.674 141.945L101.017 174.786Z" fill="white"/>
<path d="M101.416 174.146L91.4588 168.65L67.5634 155.452L38.8329 139.583L13.8809 125.798L5.70819 121.285L3.14721 119.873C2.72038 119.635 2.27956 119.318 1.81775 119.14C1.75477 119.114 1.69879 119.074 1.64282 119.048V120.328L8.57704 117.055L25.2304 109.203L45.2983 99.7403L62.7143 91.525L68.473 88.813C69.3337 88.4039 70.3972 88.0673 71.1809 87.5394C71.2159 87.513 71.2579 87.4998 71.2999 87.4867H70.5022L80.4592 92.9833L104.355 106.181L133.085 122.05L158.037 135.835L166.21 140.348L168.771 141.76C169.198 141.998 169.638 142.315 170.1 142.493C170.163 142.519 170.219 142.559 170.275 142.585V141.305L163.341 144.578L146.688 152.43L126.62 161.893L109.204 170.108L103.445 172.82C102.556 173.242 101.591 173.605 100.737 174.094C100.702 174.113 100.66 174.133 100.618 174.146C99.7085 174.575 100.506 175.855 101.416 175.426L108.35 172.154L125.003 164.301L145.071 154.839L162.487 146.623L168.246 143.911C169.135 143.496 170.107 143.126 170.954 142.638C170.989 142.618 171.031 142.598 171.073 142.585C171.612 142.328 171.556 141.569 171.073 141.305L163.88 137.333L145.967 127.435L122.477 114.455L98.7079 101.324L79.9274 90.9509L74.0358 87.6978C73.1681 87.2161 72.3005 86.6552 71.3908 86.2395C70.6212 85.8898 69.6136 86.6156 68.9208 86.939L62.5044 89.9611L40.3583 100.407L16.106 111.842L1.55185 118.705L0.852133 119.035C0.31335 119.292 0.369327 120.051 0.852133 120.315L10.8091 125.811L34.7046 139.009L63.435 154.878L88.387 168.663C92.4034 170.88 96.3638 173.229 100.45 175.327C100.506 175.36 100.562 175.393 100.625 175.42C101.5 175.902 102.297 174.621 101.423 174.14L101.416 174.146Z" fill="#2B63A8"/>
<path d="M109.511 165.218L21.0669 116.903L72.0274 92.8712L160.472 141.186L109.511 165.218Z" fill="#E0EBC5"/>
<path d="M109.644 165.001L100.821 160.184L79.6403 148.616L54.1146 134.673L32.0594 122.624L24.8243 118.672L22.5432 117.425C22.2004 117.24 21.7385 116.857 21.3467 116.771C21.2977 116.758 21.2417 116.712 21.1998 116.692V117.121L30.52 112.726L50.1122 103.488L67.7101 95.1873L71.8454 93.2341C71.9224 93.2011 72.0833 93.1549 72.1393 93.0955C72.1253 93.1087 71.8664 92.9965 71.9434 93.1087C72.0344 93.2473 72.4262 93.3726 72.5662 93.4518L81.3896 98.2754L97.4342 107.045L117.089 117.781L136.5 128.385L152.026 136.864L159.975 141.206L160.332 141.397V140.968L143.084 149.105L115.627 162.051L109.371 165.001C109.071 165.146 109.336 165.568 109.637 165.43L126.885 157.293L154.342 144.347L160.598 141.397C160.78 141.312 160.759 141.061 160.598 140.968L155.035 137.927L140.936 130.226L121.966 119.859L102.017 108.965L84.7203 99.516L73.9586 93.6366C73.4338 93.3528 72.7621 92.8052 72.1743 92.66C71.5865 92.5148 70.5859 93.2671 70.1031 93.4914L54.9402 100.644L34.5644 110.252L21.5776 116.375L20.9339 116.679C20.7519 116.765 20.7729 117.015 20.9339 117.108L29.7573 121.925L50.9378 133.492L76.4636 147.435L98.5187 159.484L105.754 163.437C106.894 164.057 108.035 164.822 109.231 165.337C109.28 165.357 109.329 165.39 109.378 165.416C109.672 165.575 109.938 165.146 109.644 164.987V165.001Z" fill="#2B63A8"/>
<path d="M151.851 62.7815L98.2879 34.2623C96.3987 33.2527 94.0756 33.2989 92.2353 34.381L83.8037 39.3234L88.128 80.6571L107.034 91.0698L103.256 99.8657L120.581 98.5262L149.71 120.183L153.818 117.273C156.386 115.458 157.89 112.608 157.89 109.579V72.6794C157.89 68.6015 155.595 64.8337 151.858 62.7749L151.851 62.7815Z" fill="#2B63A8"/>
<path d="M149.703 120.289L149.647 120.249L120.546 98.6121L103.116 99.9582L103.172 99.8328L106.923 91.1028L88.0442 80.7034V80.6638L83.7129 39.2773L83.7619 39.2509L92.1935 34.3085C94.0617 33.2131 96.4198 33.167 98.337 34.1897L151.901 62.709C155.644 64.7743 157.974 68.5949 157.974 72.6861V109.586C157.974 112.621 156.435 115.518 153.867 117.339L149.71 120.289H149.703ZM120.602 98.4405L120.63 98.4603L149.71 120.077L153.762 117.207C156.288 115.412 157.799 112.562 157.799 109.579V72.6795C157.799 68.6477 155.504 64.8799 151.817 62.8475L98.2531 34.3283C96.3918 33.3385 94.1037 33.3847 92.2914 34.4471L83.9088 39.3631L88.2191 80.6044L107.153 91.0302L107.125 91.0962L103.396 99.7668L120.609 98.4339L120.602 98.4405Z" fill="#2B63A8"/>
<path d="M149.836 70.0927L91.3675 37.8849C87.603 35.8129 82.8799 38.3732 82.8799 42.4775V83.125C82.8799 85.0188 83.9435 86.7674 85.6788 87.7177L101.786 96.5928L98.0078 105.389L115.333 104.049L144.154 119.926C147.919 121.997 152.642 119.437 152.642 115.333V74.6854C152.642 72.7916 151.578 71.0429 149.843 70.0927H149.836Z" fill="#DFFBFF"/>
<path d="M149.969 69.8816L143.763 66.4635L129.013 58.3406L111.59 48.7462L97.1333 40.7816L92.872 38.4325C92.0813 37.997 91.2836 37.4889 90.409 37.2052C86.5955 35.9581 82.6841 38.7757 82.6141 42.4841C82.6001 43.4079 82.6141 44.3317 82.6141 45.2555V78.6379C82.6141 80.05 82.6141 81.4555 82.6141 82.8676C82.6211 85.164 83.8037 86.9852 85.8888 88.1333L100.296 96.0715L101.646 96.8171L101.528 96.54L97.7491 105.336C97.6861 105.481 97.847 105.659 98.001 105.646L108.889 104.801L114.633 104.359C114.815 104.346 114.997 104.326 115.179 104.32C115.382 104.307 115.256 104.3 115.207 104.287C115.431 104.359 115.655 104.531 115.851 104.643L137.794 116.725C139.977 117.926 142.132 119.312 144.413 120.354C146.995 121.536 150.172 120.744 151.83 118.533C152.677 117.405 152.894 116.125 152.894 114.785V75.8863C152.894 75.1011 152.936 74.3026 152.761 73.5306C152.418 71.9799 151.383 70.6998 149.962 69.875C149.675 69.71 149.409 70.1323 149.696 70.3039C151.578 71.3926 152.362 73.1743 152.362 75.1737V113.531C152.362 114.125 152.376 114.726 152.362 115.32C152.306 118.289 149.605 120.704 146.422 120.387C145.204 120.269 144.231 119.695 143.21 119.134L139.27 116.963L116.97 104.676C116.495 104.412 115.865 103.897 115.312 103.805C115.011 103.759 114.605 103.858 114.304 103.884L111.785 104.076L98.9106 105.072L97.987 105.145L98.2389 105.455L102.017 96.6588C102.059 96.5598 101.989 96.4278 101.898 96.3816L88.8976 89.2221C86.8474 88.0937 84.3005 87.104 83.4398 84.8472C82.985 83.6595 83.1249 82.2738 83.1249 81.0266V43.3155C83.1249 43.0384 83.1249 42.7678 83.1249 42.4907C83.1599 40.5309 84.3005 38.7559 86.1897 37.898C88.0789 37.0402 90.0871 37.4757 91.8504 38.4457L95.2371 40.3131L108.336 47.532L125.339 56.8955L140.803 65.4143L149.29 70.0927L149.682 70.3105C149.976 70.4688 150.242 70.0465 149.948 69.8816H149.969Z" fill="#2B63A8"/>
<path d="M64.1489 121.338L98.785 141.1L124.738 128.101L91.2561 109.229L64.1489 121.338Z" fill="#2A4850"/>
<path d="M60.1323 120.988L94.7614 140.758L120.721 127.758L87.2395 108.886L60.1323 120.988Z" fill="#B0CDD0"/>
<path d="M59.9992 121.206L69.2425 126.485L86.1757 136.152L92.4662 139.741L94.1595 140.705C94.4114 140.85 94.6074 141.028 94.9012 140.975C95.2511 140.909 95.6709 140.593 95.9788 140.434L98.6657 139.088L106.866 134.977L115.508 130.649C117.201 129.804 118.944 129.012 120.595 128.102C120.679 128.055 120.763 128.016 120.84 127.976C121.015 127.89 121.001 127.64 120.84 127.547L111.513 122.288L94.7823 112.859L88.9116 109.546C88.4008 109.256 87.5822 108.523 86.9664 108.735C85.3781 109.282 83.8457 110.127 82.3203 110.813L73.8607 114.594L65.2751 118.428C63.6028 119.174 61.8815 119.866 60.2371 120.678C60.1532 120.718 60.0692 120.751 59.9922 120.79C59.6844 120.929 59.9503 121.351 60.2581 121.219L71.6915 116.112L86.5396 109.48C86.7425 109.388 87.0014 109.315 87.1833 109.19C87.4772 108.999 87.2533 109.276 87.1134 109.111C87.2883 109.309 87.7291 109.46 87.96 109.592L92.991 112.43L109.364 121.661L116.6 125.739L119.063 127.125C119.461 127.349 119.944 127.745 120.392 127.877C120.455 127.897 120.518 127.95 120.574 127.983V127.554L108.987 133.354L94.9992 140.355C94.8942 140.408 94.7193 140.461 94.6353 140.54C94.8383 140.349 94.9362 140.678 94.7613 140.481C94.5234 140.197 93.8796 139.979 93.5508 139.794L87.946 136.594L71.3487 127.118L64.1836 123.027C62.952 122.321 61.7275 121.477 60.4261 120.883C60.3631 120.856 60.3071 120.817 60.2511 120.784C59.9643 120.619 59.6984 121.048 59.9852 121.213L59.9992 121.206Z" fill="#2B63A8"/>
<path d="M83.979 129.282L88.0794 131.486L103.9 121.661L99.7927 119.45L83.979 129.282Z" fill="#DC6F5D"/>
<path d="M83.846 129.493L87.9464 131.704C88.0234 131.744 88.1353 131.75 88.2123 131.704L102.053 123.099L104.026 121.872C104.187 121.773 104.208 121.542 104.026 121.443L99.9256 119.233C99.8486 119.193 99.7367 119.186 99.6597 119.233L85.8192 127.837L83.846 129.064C83.5662 129.236 83.825 129.665 84.1119 129.493L91.6549 124.802L97.0917 121.423L98.96 120.262C99.1559 120.143 99.7716 119.892 99.8836 119.688C99.9466 119.569 99.7017 119.688 99.6877 119.675C99.7437 119.741 99.8976 119.787 99.9746 119.833L101.332 120.565L103.76 121.872V121.443L96.2171 126.135L90.7803 129.513L88.912 130.675C88.7161 130.793 88.1003 131.044 87.9884 131.249C87.9254 131.367 88.1703 131.249 88.1843 131.262C88.1283 131.196 87.9744 131.15 87.8974 131.103L86.54 130.371L84.1119 129.064C83.818 128.906 83.5522 129.335 83.846 129.493Z" fill="#2B63A8"/>
<path d="M77.8774 126.419L82.1317 128.616L93.3412 122.07L89.0869 119.873L77.8774 126.419Z" fill="#9CB2DB"/>
<path d="M77.7445 126.63L81.9988 128.827C82.0827 128.867 82.1807 128.873 82.2647 128.827L93.4742 122.281C93.6351 122.189 93.6491 121.945 93.4742 121.852L89.2199 119.655C89.1359 119.615 89.0379 119.609 88.954 119.655L77.7445 126.201C77.4576 126.366 77.7235 126.795 78.0104 126.63L84.1399 123.047L88.0164 120.783C88.3312 120.599 88.814 120.421 89.0729 120.163C89.1219 120.11 89.3528 120.051 89.0869 120.084C88.842 120.117 89.2479 120.236 89.3878 120.308L93.2083 122.281V121.852L87.0787 125.435L83.2023 127.699C82.8874 127.884 82.4046 128.062 82.1457 128.319C82.0967 128.372 81.8658 128.431 82.1317 128.398C82.3766 128.365 81.9708 128.246 81.8308 128.174L78.0104 126.201C77.7165 126.049 77.4506 126.478 77.7445 126.63Z" fill="#2B63A8"/>
<path d="M89.1357 132.139L93.2291 134.271L101.934 128.998L97.8403 126.867L89.1357 132.139Z" fill="#9CB2DB"/>
<path d="M89.0028 132.351L93.0961 134.482C93.1731 134.522 93.2781 134.528 93.362 134.482L102.067 129.216C102.227 129.117 102.248 128.88 102.067 128.787L97.9732 126.656C97.8962 126.616 97.7913 126.61 97.7073 126.656L89.0028 131.922C88.7229 132.093 88.9818 132.522 89.2687 132.351L97.9732 127.085H97.7073L101.801 129.216V128.787L93.0961 134.053H93.362L89.2687 131.922C88.9748 131.77 88.7089 132.192 89.0028 132.351Z" fill="#2B63A8"/>
<path d="M55.5771 160.764L102.409 187.489L137.5 169.917L92.2354 144.393L55.5771 160.764Z" fill="#2A4850"/>
<path d="M55.0874 157.063L101.92 183.787L137.011 166.215L91.7457 140.698L55.0874 157.063Z" fill="#B0CDD0"/>
<path d="M54.9545 157.28L67.4095 164.387L90.2623 177.426L98.8269 182.316L101.164 183.649C101.444 183.807 101.731 184.058 102.06 183.998C102.549 183.906 103.151 183.451 103.585 183.233L107.279 181.385L118.293 175.869L136.822 166.591L137.15 166.426C137.325 166.34 137.311 166.09 137.15 165.997L124.605 158.923L101.99 146.175L94.0548 141.701C93.425 141.345 92.7953 140.988 92.1656 140.639C91.8717 140.474 91.7527 140.441 91.4308 140.56C89.2967 141.338 87.2325 142.434 85.1614 143.357L73.686 148.484C67.5564 151.223 61.3639 153.869 55.2764 156.706C55.1714 156.753 55.0664 156.799 54.9615 156.845C54.6536 156.984 54.9195 157.406 55.2274 157.274L70.7192 150.352L90.8151 141.378C91.088 141.252 91.3959 141.153 91.6548 141.002C91.9976 140.797 91.7527 141.054 91.6268 140.909C91.8577 141.18 92.4734 141.384 92.7883 141.563L99.6385 145.423L121.834 157.94L131.546 163.417L134.848 165.278C135.422 165.601 136.031 166.057 136.654 166.294C136.731 166.327 136.808 166.38 136.885 166.426V165.997L121.267 173.817L102.332 183.299C102.2 183.365 101.92 183.444 101.815 183.556C101.99 183.358 102.137 183.701 101.899 183.477C101.493 183.088 100.744 182.817 100.254 182.54L92.7463 178.257L70.2154 165.403C65.3033 162.599 60.4543 159.643 55.4583 156.983C55.3813 156.944 55.3043 156.891 55.2204 156.852C54.9335 156.687 54.6676 157.115 54.9545 157.28Z" fill="#2B63A8"/>
<path d="M41.7788 120.889C42.5415 121.246 43.4512 121.193 44.1649 120.751L66.7728 106.749L67.9064 104.987L70.1735 83.3234C70.2714 82.3996 69.7606 81.5088 68.886 81.0865L66.9617 80.1495C66.9617 80.0703 66.241 80.3144 66.1641 80.354L59.1809 83.7787L58.0893 84.8213L56.6199 87.5993C56.403 88.015 56.0601 88.3582 55.6333 88.5891L40.1415 97.0683C39.3718 97.4906 38.896 98.2693 38.896 99.1073C38.896 103.152 39.0779 116.356 39.1129 119.128C39.1129 119.444 39.3088 119.728 39.6097 119.867L41.7788 120.883V120.889Z" fill="#2B63A8"/>
<path d="M41.6458 121.1C43.2272 121.734 44.3047 120.962 45.5432 120.196L50.2523 117.28L62.7003 109.572L66.5068 107.217C66.9406 106.946 67.0316 106.841 67.3395 106.365C67.7313 105.752 68.1442 105.283 68.2211 104.59L69.4316 93.0098C69.7675 89.7963 70.2643 86.5564 70.4462 83.3231C70.5162 82.0891 69.8025 81.2511 68.6969 80.71C68.2141 80.479 67.7313 80.1887 67.2345 79.9973C66.8497 79.8456 66.5838 79.9248 66.1779 80.0897C64.4706 80.7628 62.8403 81.713 61.2029 82.518C60.5172 82.8546 59.7195 83.1383 59.0828 83.554C58.1522 84.1677 57.7393 84.9595 57.2565 85.8701C56.7737 86.7807 56.4099 87.8365 55.4932 88.3842C55.1294 88.602 54.7445 88.7933 54.3737 88.9979L42.3805 95.5635C41.3449 96.131 39.7356 96.7183 39.0708 97.7146C38.4061 98.711 38.637 99.9318 38.644 101.001C38.651 102.281 38.665 103.554 38.679 104.835C38.707 107.903 38.7489 110.978 38.7839 114.046C38.7979 115.208 38.8119 116.376 38.8329 117.537C38.8399 118.263 38.623 119.444 39.2737 119.965C39.9245 120.486 40.8901 120.757 41.6458 121.113C41.9467 121.252 42.2126 120.83 41.9117 120.684C41.156 120.335 39.5886 119.959 39.3787 119.068C39.2108 118.355 39.3577 117.438 39.3437 116.712C39.3087 114.033 39.2737 111.354 39.2457 108.682C39.2178 106.009 39.1828 103.323 39.1688 100.644C39.1618 99.3907 38.9939 98.0644 40.2883 97.2857C40.6032 97.101 40.9321 96.936 41.2539 96.7578L52.6384 90.5287C53.681 89.9613 54.7515 89.4268 55.7661 88.8197C57.5994 87.7177 57.5434 85.1905 59.3347 84.0027C59.8875 83.6398 60.5802 83.389 61.1819 83.0987L64.4496 81.4952C65.0584 81.1983 65.6602 80.8552 66.2899 80.5912C66.6468 80.4395 66.7797 80.3867 67.0596 80.4856C67.5914 80.6638 68.1302 81.0003 68.634 81.2511C70.2433 82.0627 69.9074 83.4682 69.7605 84.8539L69.1867 90.311L67.8573 103.02L67.6893 104.604C67.6753 104.709 67.6893 104.854 67.6544 104.953C67.6124 105.072 67.6614 104.848 67.5214 105.138C67.3115 105.547 66.9756 106.233 66.6538 106.55C66.108 107.085 65.1773 107.467 64.5266 107.87L44.3607 120.361C43.619 120.823 42.8283 121.047 41.9327 120.684C41.6248 120.559 41.3589 120.988 41.6668 121.113L41.6458 121.1Z" fill="#2B63A8"/>
<path d="M44.0672 120.869L69.5999 107.513C70.1177 107.243 70.4326 106.735 70.4326 106.174V82.9468C70.4326 81.792 69.1311 81.053 68.0465 81.594L61.5532 84.8538C61.2593 85.0055 61.0144 85.2365 60.8674 85.5202L59.1391 88.7733C58.9992 89.0373 58.7753 89.2616 58.5024 89.4134L42.3389 98.2556C41.8421 98.5261 41.5342 99.0276 41.5342 99.5753C41.5342 102.848 41.5342 114.429 41.6531 119.569C41.6811 120.717 42.9966 121.43 44.0602 120.869H44.0672Z" fill="#6CA9AE"/>
<path d="M44.2 121.08L64.3799 110.522L68.7182 108.253C69.6698 107.751 70.6144 107.355 70.6914 106.154C70.7544 105.158 70.6914 104.142 70.6914 103.139V84.3721C70.6914 83.29 70.9013 81.9834 69.6838 81.3764C68.8651 80.9672 68.1374 81.2708 67.4027 81.6403L64.5129 83.092C63.1204 83.7915 61.1892 84.3589 60.4475 85.7578C59.7968 86.9918 59.286 88.7008 57.9775 89.4201L46.9219 95.471C45.4525 96.276 43.9761 97.0679 42.5067 97.8861C41.9189 98.216 41.4221 98.5987 41.2962 99.285C41.1212 100.215 41.2682 101.278 41.2682 102.221C41.2682 105.263 41.2752 108.305 41.2962 111.347C41.3032 112.924 41.3172 114.501 41.3312 116.072C41.3452 117.279 41.1842 118.652 41.4151 119.846C41.646 121.041 43.0455 121.595 44.186 121.087C44.4939 120.948 44.228 120.526 43.9201 120.658C42.7306 121.186 41.9539 120.315 41.8979 119.272C41.863 118.652 41.8769 118.032 41.863 117.418C41.842 115.986 41.828 114.554 41.821 113.129C41.8 110.094 41.786 107.058 41.786 104.023C41.786 102.875 41.786 101.733 41.786 100.585C41.786 99.7205 41.73 98.9221 42.6117 98.3942C43.8082 97.6749 45.0747 97.0481 46.3062 96.375L57.4597 90.2713C57.8235 90.0733 58.2014 89.882 58.5653 89.6642C59.132 89.3277 59.3699 88.879 59.6568 88.3379C60.1116 87.4867 60.5245 86.6025 61.0143 85.771C61.3781 85.1508 61.9449 84.933 62.5746 84.6163C64.3659 83.7189 66.1292 82.7621 67.9485 81.9174C68.9631 81.4423 70.0826 81.8251 70.1526 82.9996C70.1736 83.3229 70.1526 83.6529 70.1526 83.9762C70.1526 87.7506 70.1526 91.525 70.1526 95.2928V105.692C70.1526 106.326 70.1036 106.887 69.4459 107.289C69.285 107.388 69.11 107.467 68.9421 107.553L65.4295 109.387L44.4239 120.374L43.9201 120.638C43.6262 120.79 43.8921 121.219 44.186 121.067L44.2 121.08Z" fill="#2B63A8"/>
<path d="M51.6869 112.515L34.173 122.077C33.0534 122.69 31.647 121.925 31.647 120.704V41.1511C31.647 39.6796 32.4796 38.3269 33.8231 37.5879L50.2245 28.6336C51.8409 27.7493 53.8631 28.8513 53.8631 30.6131V108.959C53.8631 110.43 53.0304 111.783 51.6869 112.522V112.515Z" fill="#DFFBFF"/>
<path d="M51.5539 112.304L42.3456 117.332L36.391 120.585C35.4674 121.093 33.6341 122.532 32.5356 121.819C31.8429 121.37 31.9058 120.678 31.9058 120.005V55.0939C31.9058 50.4815 31.8568 45.8625 31.9058 41.25C31.9268 39.5542 32.9064 38.373 34.3968 37.5548L38.987 35.0473L50.0146 29.0228C50.8612 28.5609 51.8058 28.3431 52.6875 28.937C53.3102 29.3593 53.5761 29.9994 53.5971 30.6988C53.6111 31.1805 53.5971 31.6622 53.5971 32.1439V108.563C53.5971 110.1 52.9954 111.446 51.5469 112.291C51.2601 112.456 51.526 112.885 51.8128 112.72C53.3592 111.816 54.1149 110.364 54.1219 108.681C54.1219 108.061 54.1219 107.441 54.1219 106.827V34.3347C54.1219 33.0941 54.1779 31.847 54.1219 30.6131C54.031 28.4751 51.7359 27.5447 49.8746 28.5345C48.3982 29.3197 46.9428 30.138 45.4734 30.9364L34.054 37.1721C32.4446 38.0497 31.423 39.3826 31.381 41.184C31.374 41.6064 31.381 42.0287 31.381 42.4576V120.354C31.381 121.377 31.8568 122.373 33.0814 122.519C34.2079 122.657 35.5374 121.615 36.447 121.12L49.021 114.251L51.8128 112.726C52.1067 112.568 51.8408 112.139 51.5469 112.297L51.5539 112.304Z" fill="#2B63A8"/>
<path d="M53.289 113.083L35.775 122.644C34.6555 123.258 33.249 122.492 33.249 121.272V41.7188C33.249 40.2473 34.0817 38.8946 35.4252 38.1555L51.8266 29.2012C53.4429 28.317 55.4651 29.4189 55.4651 31.1808V109.526C55.4651 110.998 54.6324 112.35 53.289 113.089V113.083Z" fill="#DFFBFF"/>
<path d="M53.156 112.865L43.9477 117.893L37.9931 121.146C37.0695 121.655 35.2362 123.093 34.1376 122.38C33.4449 121.932 33.5079 121.239 33.5079 120.566V55.6617C33.5079 51.0493 33.4589 46.4303 33.5079 41.8178C33.5289 40.122 34.5085 38.9408 35.9989 38.1226L40.589 35.6151L51.6166 29.5906C52.4633 29.1287 53.4079 28.9109 54.2895 29.5048C54.9123 29.9271 55.1782 30.5672 55.1992 31.2667C55.2132 31.7484 55.1992 32.23 55.1992 32.7117V109.13C55.1992 110.668 54.5974 112.014 53.149 112.859C52.8621 113.024 53.128 113.452 53.4149 113.287C54.9613 112.383 55.717 110.932 55.724 109.249C55.724 108.629 55.724 108.009 55.724 107.395V34.9025C55.724 33.6619 55.7799 32.4148 55.724 31.1809C55.633 29.0429 53.3379 28.1125 51.4767 29.1023C50.0003 29.8875 48.5448 30.7058 47.0754 31.5042L35.656 37.7399C34.0467 38.6175 33.0251 39.9504 32.9831 41.7519C32.9761 42.1742 32.9831 42.5965 32.9831 43.0254V120.922C32.9831 121.945 33.4589 122.941 34.6834 123.086C35.81 123.225 37.1394 122.182 38.0491 121.688L50.623 114.818L53.4149 113.294C53.7088 113.136 53.4429 112.707 53.149 112.865H53.156Z" fill="#2B63A8"/>
<path d="M55.4653 113.479L37.9513 123.04C36.8317 123.654 35.4253 122.888 35.4253 121.668V42.1148C35.4253 40.6433 36.258 39.2906 37.6014 38.5515L54.0028 29.5972C55.6192 28.713 57.6414 29.8149 57.6414 31.5768V109.922C57.6414 111.394 56.8087 112.746 55.4653 113.485V113.479Z" fill="#DFFBFF"/>
<path d="M55.3323 113.267L46.124 118.296L40.1693 121.549C39.2457 122.057 37.4125 123.495 36.3139 122.783C35.6212 122.334 35.6841 121.641 35.6841 120.968V56.064C35.6841 51.4516 35.6352 46.8326 35.6841 42.2201C35.7051 40.5243 36.6847 39.3431 38.1751 38.5249L42.7653 36.0174L53.7929 29.9929C54.6395 29.531 55.5842 29.3132 56.4658 29.9071C57.0886 30.3294 57.3545 30.9695 57.3754 31.6689C57.3894 32.1506 57.3754 32.6323 57.3754 33.114V109.533C57.3754 111.07 56.7737 112.416 55.3253 113.261C55.0384 113.426 55.3043 113.855 55.5912 113.69C57.1375 112.786 57.8932 111.334 57.9002 109.651C57.9002 109.031 57.9002 108.411 57.9002 107.797V35.2982C57.9002 34.0576 57.9562 32.8105 57.9002 31.5766C57.8093 29.4386 55.5142 28.5082 53.6529 29.498C52.1765 30.2832 50.7211 31.1015 49.2517 31.8999L37.8323 38.1356C36.2229 39.0132 35.2013 40.3461 35.1594 42.1475C35.1524 42.5699 35.1594 42.9922 35.1594 43.4211V121.318C35.1594 122.341 35.6352 123.337 36.8597 123.482C37.9862 123.621 39.3157 122.578 40.2253 122.083L52.7993 115.214L55.5912 113.69C55.885 113.531 55.6192 113.102 55.3253 113.261L55.3323 113.267Z" fill="#2B63A8"/>
<path d="M57.0678 114.046L39.5538 123.608C38.4343 124.221 37.0278 123.456 37.0278 122.235V42.6823C37.0278 41.2108 37.8605 39.8581 39.204 39.119L55.6054 30.1647C57.2217 29.2805 59.2439 30.3824 59.2439 32.1443V110.49C59.2439 111.961 58.4113 113.314 57.0678 114.053V114.046Z" fill="#DFFBFF"/>
<path d="M56.9348 113.835L47.7265 118.863L41.7719 122.116C40.8483 122.624 39.015 124.063 37.9164 123.35C37.2237 122.902 37.2867 122.209 37.2867 121.536V56.6251C37.2867 52.0127 37.2377 47.3937 37.2867 42.7812C37.3077 41.0854 38.2873 39.9042 39.7777 39.086L44.3678 36.5785L55.3954 30.554C56.2421 30.0921 57.1867 29.8743 58.0683 30.4682C58.6911 30.8905 58.957 31.5306 58.978 32.23C58.992 32.7117 58.978 33.1934 58.978 33.6751V110.094C58.978 111.631 58.3762 112.977 56.9278 113.822C56.6409 113.987 56.9068 114.416 57.1937 114.251C58.7401 113.347 59.4958 111.895 59.5028 110.212C59.5028 109.592 59.5028 108.972 59.5028 108.358V35.8659C59.5028 34.6253 59.5588 33.3782 59.5028 32.1442C59.4118 30.0063 57.1167 29.0759 55.2555 30.0657C53.7791 30.8509 52.3237 31.6691 50.8542 32.4676L39.4348 38.7033C37.8255 39.5809 36.8039 40.9138 36.7619 42.7152C36.7549 43.1375 36.7619 43.5599 36.7619 43.9888V121.885C36.7619 122.908 37.2377 123.905 38.4622 124.05C39.5888 124.188 40.9182 123.146 41.8279 122.651L54.4018 115.782L57.1937 114.257C57.4876 114.099 57.2217 113.67 56.9278 113.829L56.9348 113.835Z" fill="#2B63A8"/>
<path d="M133.193 86.3432C133.664 85.4249 133.15 84.2708 132.044 83.7655C130.939 83.2602 129.66 83.595 129.188 84.5133C128.716 85.4317 129.23 86.5857 130.336 87.091C131.442 87.5963 132.721 87.2615 133.193 86.3432Z" fill="#2B63A8"/>
<path d="M119.059 79.886C119.531 78.9677 119.017 77.8137 117.911 77.3084C116.805 76.8031 115.526 77.1379 115.054 78.0562C114.582 78.9745 115.096 80.1286 116.202 80.6339C117.308 81.1391 118.587 80.8043 119.059 79.886Z" fill="#2B63A8"/>
<path d="M104.926 73.4194C105.398 72.5011 104.884 71.3471 103.778 70.8418C102.672 70.3365 101.393 70.6713 100.921 71.5896C100.449 72.5079 100.963 73.6619 102.069 74.1672C103.175 74.6725 104.454 74.3377 104.926 73.4194Z" fill="#2B63A8"/>
<path d="M186.103 123.443L169.114 114.396L164.272 108.147L162.221 108.523L162.445 110.754L152.355 105.468C151.166 104.835 149.703 104.861 148.542 105.541L143.231 108.655L145.953 134.7L157.862 141.259L159.213 145.311L166.392 145.957L184.745 159.603L187.334 157.769C188.951 156.621 189.902 154.826 189.902 152.926V129.679C189.902 127.112 188.454 124.736 186.103 123.436V123.443Z" fill="#2B63A8"/>
<path d="M184.753 159.715L184.697 159.676L166.364 146.043L159.15 145.396L159.136 145.343L157.792 141.318L145.869 134.753V134.713L143.133 108.615L143.182 108.589L148.493 105.474C149.683 104.775 151.18 104.749 152.398 105.395L162.341 110.602L162.124 108.45L162.201 108.437L164.307 108.048L164.342 108.088L169.17 114.323L186.145 123.363C188.517 124.67 189.987 127.085 189.987 129.678V152.932C189.987 154.852 189.014 156.693 187.384 157.841L184.746 159.715H184.753ZM159.283 145.244L166.434 145.884L166.455 145.898L184.76 159.504L187.293 157.709C188.881 156.587 189.826 154.799 189.826 152.932V129.678C189.826 127.151 188.384 124.782 186.068 123.509L169.051 114.435L164.244 108.226L162.32 108.582L162.551 110.892L162.404 110.813L152.314 105.527C151.145 104.907 149.718 104.933 148.584 105.6L143.315 108.688L146.03 134.64L157.932 141.199L159.276 145.231L159.283 145.244Z" fill="#2B63A8"/>
<path d="M184.837 128.048L170.387 120.091L161.956 107.778L160.941 114.891L147.989 107.758C145.617 106.451 142.644 108.061 142.644 110.655V136.27C142.644 137.465 143.315 138.567 144.407 139.167L154.56 144.756L163.089 149.454L181.247 159.458C183.619 160.764 186.593 159.154 186.593 156.561V130.945C186.593 129.751 185.921 128.649 184.83 128.048H184.837Z" fill="#DFFBFF"/>
<path d="M184.969 127.837L172.78 121.12C172.081 120.737 171.395 120.328 170.688 119.965C170.429 119.833 170.646 119.978 170.576 119.906C170.415 119.721 170.296 119.497 170.156 119.292L165.839 112.984L162.187 107.652C162.082 107.494 161.739 107.487 161.704 107.712L160.689 114.825L161.074 114.68L149.214 108.147C148.675 107.85 148.129 107.501 147.548 107.289C146.002 106.735 144.211 107.217 143.189 108.444C142.168 109.671 142.385 111.222 142.385 112.667V134.799C142.385 136.594 142.419 138.296 144.274 139.385C147.625 141.351 151.103 143.146 154.511 145.02C157.666 146.756 160.822 148.498 163.971 150.233L177.839 157.874C179.099 158.567 180.407 159.511 181.793 159.973C184.48 160.864 186.838 158.778 186.852 156.297C186.873 151.922 186.852 147.554 186.852 143.179C186.852 139.128 186.943 135.07 186.852 131.018C186.824 129.678 186.159 128.557 184.962 127.844C184.676 127.672 184.41 128.101 184.697 128.273C186.544 129.375 186.327 131.163 186.327 132.912V154.417C186.327 155.862 186.586 157.571 185.424 158.699C184.263 159.828 182.653 159.913 181.282 159.194C180.778 158.93 180.281 158.646 179.784 158.369L166.196 150.886C163.194 149.23 160.192 147.581 157.191 145.924C153.692 143.997 150.186 142.071 146.688 140.137C144.938 139.174 142.93 138.389 142.902 136.145C142.888 134.779 142.902 133.413 142.902 132.047V111.242C142.902 110.655 142.902 110.087 143.133 109.52C143.882 107.712 146.128 107.091 147.877 107.989C151.824 110.008 155.658 112.271 159.535 114.409L160.808 115.109C160.941 115.181 161.172 115.122 161.193 114.964L162.208 107.85L161.725 107.91L169.387 119.101C169.646 119.477 169.89 120.011 170.254 120.315C170.646 120.638 171.234 120.856 171.682 121.1L179.05 125.158L184.704 128.273C184.997 128.431 185.263 128.009 184.969 127.844V127.837Z" fill="#2B63A8"/>
<path d="M174.355 138.289C174.652 137.712 174.325 136.985 173.626 136.665C172.927 136.346 172.12 136.555 171.824 137.132C171.527 137.709 171.853 138.436 172.552 138.756C173.251 139.075 174.058 138.866 174.355 138.289Z" fill="#2B63A8"/>
<path d="M165.445 134.221C165.742 133.644 165.416 132.917 164.717 132.598C164.018 132.279 163.21 132.488 162.914 133.065C162.617 133.642 162.944 134.369 163.643 134.688C164.342 135.008 165.149 134.799 165.445 134.221Z" fill="#2B63A8"/>
<path d="M156.542 130.15C156.839 129.573 156.512 128.846 155.813 128.527C155.114 128.208 154.307 128.417 154.011 128.994C153.714 129.571 154.04 130.298 154.739 130.617C155.438 130.937 156.245 130.728 156.542 130.15Z" fill="#2B63A8"/>
<path d="M110.855 162.163C110.855 166.38 106.839 169.949 101.29 171.17C101.108 171.21 100.744 171.282 100.744 171.282L97.2807 160.909L87.3727 168.854C87.3727 168.854 87.0578 168.636 86.9109 168.518C84.6927 166.842 83.3423 164.611 83.3423 162.17C83.3423 156.95 89.4998 152.714 97.0988 152.714C104.698 152.714 110.855 156.944 110.855 162.17V162.163Z" fill="#9CB2DB"/>
<path d="M110.589 162.163C110.512 167.158 105.313 170.128 100.674 171.045L100.996 171.216L97.5325 160.843C97.4695 160.659 97.2456 160.612 97.0917 160.731L87.1836 168.676L87.4985 168.636C84.9865 166.861 83.1672 164.143 83.692 161.088C84.1189 158.606 85.9731 156.581 88.1702 155.268C93.3622 152.146 100.835 152.14 106.027 155.268C108.574 156.798 110.547 159.227 110.589 162.17C110.589 162.486 111.121 162.486 111.114 162.17C111.023 156.02 103.872 152.806 98.2112 152.496C92.4665 152.186 84.6716 154.575 83.2652 160.586C82.4675 163.991 84.4197 167.072 87.2396 169.065C87.3376 169.131 87.4775 169.092 87.5545 169.026L97.4625 161.081L97.0217 160.969L100.485 171.342C100.527 171.474 100.667 171.54 100.807 171.513C105.691 170.55 111.03 167.376 111.107 162.156C111.107 161.84 110.589 161.84 110.582 162.156L110.589 162.163Z" fill="#2B63A8"/>
<path d="M87.6035 170.048L96.7209 162.638L100.212 172.424C98.5891 172.516 96.455 172.497 94.0059 172.061C91.312 171.579 89.1499 170.761 87.6035 170.048Z" fill="#DC6F5D"/>
<path d="M87.7924 170.227L95.7622 163.754L96.9098 162.817L96.4689 162.704L99.5267 171.263L99.9675 172.49L100.219 172.18C95.9162 172.418 91.6129 171.619 87.7434 169.837C87.4426 169.699 87.1767 170.128 87.4775 170.266C91.431 172.088 95.8252 172.919 100.219 172.681C100.38 172.675 100.527 172.53 100.471 172.371L97.4136 163.813L96.9727 162.586C96.9098 162.401 96.6858 162.355 96.5319 162.473L88.5621 168.947L87.4146 169.884C87.1557 170.095 87.5335 170.438 87.7854 170.233L87.7924 170.227Z" fill="#2B63A8"/>
<path d="M81.2639 34.7573C91.0873 34.7573 99.0508 27.2475 99.0508 17.9836C99.0508 8.7198 91.0873 1.20996 81.2639 1.20996C71.4405 1.20996 63.4771 8.7198 63.4771 17.9836C63.4771 27.2475 71.4405 34.7573 81.2639 34.7573Z" fill="#E0EBC5"/>
<path d="M98.7849 17.9835C98.7359 24.8593 94.1387 31.1609 87.2535 33.5166C80.3683 35.8724 72.4894 33.8532 67.8013 28.5611C63.1132 23.269 62.4485 15.41 66.2549 9.45808C70.0404 3.52593 77.5764 0.39818 84.7765 1.79049C92.8792 3.35436 98.7289 10.2235 98.7849 17.9835C98.7849 18.3002 99.3097 18.3002 99.3097 17.9835C99.2607 10.8768 94.5026 4.40354 87.3934 1.97525C80.2773 -0.45964 72.0626 1.69811 67.2835 7.22775C62.5044 12.7574 61.9027 20.6757 65.8001 26.7663C69.6975 32.8568 77.3175 36.0241 84.6855 34.7044C93.1171 33.1933 99.2537 26.0338 99.3097 17.9901C99.3097 17.6734 98.7849 17.6734 98.7849 17.9901V17.9835Z" fill="#2B63A8"/>
<path d="M76.4986 33.7546C85.9549 33.7546 93.6207 26.5255 93.6207 17.6078C93.6207 8.69018 85.9549 1.461 76.4986 1.461C67.0423 1.461 59.3765 8.69018 59.3765 17.6078C59.3765 26.5255 67.0423 33.7546 76.4986 33.7546Z" fill="#A5C661"/>
<path d="M93.3548 17.6079C93.3058 24.2131 88.8976 30.2772 82.2782 32.5472C75.6659 34.8171 68.0949 32.8903 63.5677 27.816C59.0406 22.7416 58.3758 15.1928 62.0144 9.4586C65.6529 3.7244 72.86 0.715432 79.7872 2.01536C87.6241 3.48685 93.2988 10.1119 93.3548 17.6145C93.3548 17.9312 93.8796 17.9312 93.8796 17.6145C93.8306 10.7783 89.2614 4.54263 82.4182 2.20012C75.5749 -0.142388 67.6611 1.90978 63.0499 7.22167C58.4388 12.5336 57.837 20.2275 61.6225 26.1069C65.394 31.9599 72.804 35.0282 79.9272 33.6887C87.9879 32.1776 93.8236 25.3217 93.8796 17.6145C93.8796 17.2978 93.3548 17.2978 93.3548 17.6145V17.6079Z" fill="#2B63A8"/>
<path d="M76.4988 17.6067C79.1382 17.6067 81.2779 15.1842 81.2779 12.1958C81.2779 9.2075 79.1382 6.78497 76.4988 6.78497C73.8594 6.78497 71.7197 9.2075 71.7197 12.1958C71.7197 15.1842 73.8594 17.6067 76.4988 17.6067Z" fill="white"/>
<path d="M71.4537 12.196C71.4817 14.3669 72.6012 16.6632 74.8263 17.5342C76.9045 18.3525 79.1296 17.4814 80.3821 15.8054C81.7815 13.9314 81.9075 11.3051 80.8159 9.27276C79.8363 7.44495 77.7722 6.17801 75.568 6.63332C72.9091 7.181 71.4817 9.80725 71.4537 12.196C71.4537 12.5127 71.9715 12.5127 71.9785 12.196C72.0065 10.2692 72.9511 8.21039 74.8963 7.36576C76.8415 6.52114 78.9057 7.36576 80.0113 8.95603C81.2078 10.6585 81.3407 12.9746 80.3961 14.8024C79.5215 16.4983 77.6182 17.7454 75.568 17.2505C73.217 16.683 72.0065 14.3273 71.9785 12.196C71.9785 11.8792 71.4467 11.8792 71.4537 12.196Z" fill="#2B63A8"/>
<path d="M65.1211 24.8657C66.1497 21.5663 69.2704 18.9599 73.2588 18.4716C78.5697 17.8183 83.4118 21.1836 84.0765 25.9808C84.2094 26.9442 84.1605 27.8944 83.9645 28.7984L65.1281 24.8591L65.1211 24.8657Z" fill="white"/>
<path d="M65.3733 24.9317C66.8077 20.5569 71.7058 17.924 76.4499 18.8148C81.1939 19.7056 84.6436 24.0871 83.7059 28.7392L84.0278 28.5676L67.5214 25.1165L65.1914 24.6282C64.8625 24.5622 64.7226 25.0373 65.0514 25.1033L81.5578 28.5544L83.8879 29.0427C84.0208 29.0691 84.1818 29.0097 84.2097 28.8711C84.9724 25.0835 83.1462 21.2959 79.5846 19.3889C76.023 17.4819 71.7128 17.792 68.522 19.9828C66.7797 21.1771 65.5062 22.8598 64.8695 24.7998C64.7715 25.1033 65.2753 25.2353 65.3733 24.9317Z" fill="#2B63A8"/>
<path d="M59.0551 114.753L41.5411 124.314C40.4216 124.928 39.0151 124.162 39.0151 122.941V43.3885C39.0151 41.917 39.8478 40.5643 41.1913 39.8252L57.5927 30.8709C59.209 29.9867 61.2312 31.0887 61.2312 32.8505V111.196C61.2312 112.667 60.3986 114.02 59.0551 114.759V114.753Z" fill="#DFFBFF"/>
<path d="M58.9221 114.541L49.7138 119.569L43.7592 122.822C42.8356 123.331 41.0023 124.769 39.9037 124.056C39.211 123.608 39.274 122.915 39.274 122.242V57.3312C39.274 52.7187 39.225 48.0997 39.274 43.4873C39.295 41.7914 40.2746 40.6103 41.765 39.792L46.3552 37.2846L57.3827 31.26C58.2294 30.7981 59.174 30.5804 60.0557 31.1743C60.6784 31.5966 60.9443 32.2366 60.9653 32.9361C60.9793 33.4178 60.9653 33.8995 60.9653 34.3812V110.8C60.9653 112.337 60.3635 113.683 58.9151 114.528C58.6282 114.693 58.8941 115.122 59.181 114.957C60.7274 114.053 61.4831 112.601 61.4901 110.919C61.4901 110.298 61.4901 109.678 61.4901 109.064V36.5719C61.4901 35.3314 61.5461 34.0842 61.4901 32.8503C61.3991 30.7123 59.104 29.7819 57.2428 30.7717C55.7664 31.557 54.311 32.3752 52.8415 33.1736L41.4221 39.4093C39.8128 40.2869 38.7912 41.6199 38.7492 43.4213C38.7422 43.8436 38.7492 44.2659 38.7492 44.6948V122.592C38.7492 123.614 39.225 124.611 40.4495 124.756C41.5761 124.894 42.9055 123.852 43.8152 123.357L56.3891 116.488L59.181 114.964C59.4749 114.805 59.209 114.376 58.9151 114.535L58.9221 114.541Z" fill="#2B63A8"/>
<path d="M42.6256 48.2118L56.0462 40.8015L57.9704 39.7391C58.2643 39.5808 57.9984 39.1519 57.7046 39.3102L44.2839 46.7205L42.3597 47.7828C42.0658 47.9412 42.3317 48.3701 42.6256 48.2118Z" fill="#2B63A8"/>
<path d="M42.6256 53.5105L56.0462 46.1003L57.9704 45.0379C58.2643 44.8795 57.9984 44.4506 57.7046 44.609L44.2839 52.0192L42.3597 53.0816C42.0658 53.24 42.3317 53.6689 42.6256 53.5105Z" fill="#2B63A8"/>
<path d="M42.6256 58.8026L56.0462 51.3924L57.9704 50.33C58.2643 50.1716 57.9984 49.7427 57.7046 49.9011L44.2839 57.3113L42.3597 58.3737C42.0658 58.5321 42.3317 58.961 42.6256 58.8026Z" fill="#2B63A8"/>
<path d="M42.6256 64.0947L56.0462 56.6844L57.9704 55.6221C58.2643 55.4637 57.9984 55.0348 57.7046 55.1932L44.2839 62.6034L42.3597 63.6658C42.0658 63.8241 42.3317 64.2531 42.6256 64.0947Z" fill="#2B63A8"/>
<path d="M42.6256 69.3932L56.0462 61.983L57.9704 60.9206C58.2643 60.7622 57.9984 60.3333 57.7046 60.4917L44.2839 67.9019L42.3597 68.9643C42.0658 69.1227 42.3317 69.5516 42.6256 69.3932Z" fill="#2B63A8"/>
<path d="M42.6256 74.6853L56.0462 67.2751L57.9704 66.2127C58.2643 66.0543 57.9984 65.6254 57.7046 65.7838L44.2839 73.194L42.3597 74.2564C42.0658 74.4148 42.3317 74.8437 42.6256 74.6853Z" fill="#2B63A8"/>
<path d="M42.6256 79.9774L56.0462 72.5671L57.9704 71.5047C58.2643 71.3464 57.9984 70.9175 57.7046 71.0758L44.2839 78.4861L42.3597 79.5485C42.0658 79.7068 42.3317 80.1357 42.6256 79.9774Z" fill="#2B63A8"/>
<path d="M42.6256 85.2763L56.0462 77.866L57.9704 76.8036C58.2643 76.6453 57.9984 76.2164 57.7046 76.3747L44.2839 83.785L42.3597 84.8474C42.0658 85.0057 42.3317 85.4346 42.6256 85.2763Z" fill="#2B63A8"/>
<path d="M42.6256 90.568L56.0462 83.1578L57.9704 82.0954C58.2643 81.937 57.9984 81.5081 57.7046 81.6665L44.2839 89.0767L42.3597 90.1391C42.0658 90.2975 42.3317 90.7264 42.6256 90.568Z" fill="#2B63A8"/>
<path d="M42.6256 95.8604L56.0462 88.4502L57.9704 87.3878C58.2643 87.2294 57.9984 86.8005 57.7046 86.9589L44.2839 94.3691L42.3597 95.4315C42.0658 95.5899 42.3317 96.0188 42.6256 95.8604Z" fill="#2B63A8"/>
<path d="M42.6256 101.159L56.0462 93.7489L57.9704 92.6865C58.2643 92.5281 57.9984 92.0992 57.7046 92.2576L44.2839 99.6679L42.3597 100.73C42.0658 100.889 42.3317 101.318 42.6256 101.159Z" fill="#2B63A8"/>
<path d="M42.6256 106.451L56.0462 99.0409L57.9704 97.9786C58.2643 97.8202 57.9984 97.3913 57.7046 97.5497L44.2839 104.96L42.3597 106.022C42.0658 106.181 42.3317 106.61 42.6256 106.451Z" fill="#2B63A8"/>
<path d="M42.6256 111.743L56.0462 104.333L57.9704 103.271C58.2643 103.112 57.9984 102.683 57.7046 102.842L44.2839 110.252L42.3597 111.314C42.0658 111.473 42.3317 111.902 42.6256 111.743Z" fill="#2B63A8"/>
<path d="M42.6256 117.036L56.0462 109.625L57.9704 108.563C58.2643 108.405 57.9984 107.976 57.7046 108.134L44.2839 115.544L42.3597 116.607C42.0658 116.765 42.3317 117.194 42.6256 117.036Z" fill="#2B63A8"/>
<path d="M47.6075 122.459C48.3701 122.816 49.2798 122.763 49.9935 122.321L72.6014 108.319L73.735 106.557L76.0021 84.8935C76.1 83.9697 75.5892 83.0789 74.7146 82.6566L72.7903 81.7196C72.7903 81.6404 72.0696 81.8846 71.9927 81.9242L65.0095 85.3489L63.9179 86.3914L62.4485 89.1695C62.2316 89.5852 61.8887 89.9283 61.4619 90.1592L45.9701 98.6385C45.2004 99.0608 44.7246 99.8394 44.7246 100.677C44.7246 104.722 44.9065 117.926 44.9415 120.698C44.9415 121.014 45.1374 121.298 45.4383 121.437L47.6075 122.453V122.459Z" fill="#2B63A8"/>
<path d="M47.4744 122.671C49.0558 123.304 50.1333 122.532 51.3718 121.767L56.0809 118.85L68.5289 111.143L72.3354 108.787C72.7692 108.517 72.8602 108.411 73.1681 107.936C73.5599 107.322 73.9728 106.854 74.0497 106.161L75.2602 94.5803C75.5961 91.3668 76.0929 88.1269 76.2748 84.8935C76.3448 83.6596 75.6311 82.8216 74.5255 82.2805C74.0427 82.0495 73.5599 81.7592 73.0631 81.5678C72.6783 81.4161 72.4124 81.4953 72.0066 81.6602C70.2992 82.3333 68.6689 83.2835 67.0315 84.0885C66.3458 84.425 65.5481 84.7088 64.9114 85.1245C63.9808 85.7382 63.5679 86.53 63.0851 87.4406C62.6023 88.3512 62.2385 89.407 61.3218 89.9547C60.958 90.1724 60.5731 90.3638 60.2023 90.5684L48.2091 97.134C47.1735 97.7015 45.5642 98.2887 44.8994 99.2851C44.2347 100.282 44.4656 101.502 44.4726 102.571C44.4796 103.851 44.4936 105.125 44.5076 106.405C44.5356 109.473 44.5776 112.548 44.6125 115.617C44.6265 116.778 44.6405 117.946 44.6615 119.107C44.6685 119.833 44.4516 121.014 45.1024 121.536C45.7531 122.057 46.7187 122.328 47.4744 122.684C47.7753 122.822 48.0412 122.4 47.7403 122.255C46.9846 121.905 45.4172 121.529 45.2073 120.638C45.0394 119.926 45.1863 119.008 45.1723 118.283C45.1373 115.604 45.1024 112.924 45.0744 110.252C45.0464 107.58 45.0114 104.894 44.9974 102.215C44.9904 100.961 44.8225 99.6349 46.1169 98.8562C46.4318 98.6715 46.7607 98.5065 47.0826 98.3283L58.467 92.0992C59.5096 91.5318 60.5801 90.9973 61.5947 90.3902C63.428 89.2882 63.372 86.761 65.1633 85.5732C65.7161 85.2103 66.4088 84.9595 67.0106 84.6692L70.2782 83.0657C70.887 82.7688 71.4888 82.4257 72.1185 82.1617C72.4754 82.01 72.6083 81.9572 72.8882 82.0561C73.42 82.2343 73.9588 82.5708 74.4626 82.8216C76.0719 83.6332 75.7361 85.0387 75.5891 86.4244L75.0153 91.8815L73.6859 104.59L73.5179 106.174C73.504 106.28 73.5179 106.425 73.483 106.524C73.441 106.643 73.49 106.418 73.35 106.709C73.1401 107.118 72.8042 107.804 72.4824 108.121C71.9366 108.655 71.006 109.038 70.3552 109.44L50.1893 121.932C49.4476 122.393 48.6569 122.618 47.7613 122.255C47.4534 122.13 47.1875 122.558 47.4954 122.684L47.4744 122.671Z" fill="#2B63A8"/>
<path d="M49.8889 122.44L75.4217 109.084C75.9395 108.814 76.2544 108.306 76.2544 107.745V84.5177C76.2544 83.3629 74.9529 82.6239 73.8683 83.165L67.3749 86.4247C67.081 86.5765 66.8361 86.8074 66.6892 87.0911L64.9609 90.3443C64.8209 90.6082 64.597 90.8326 64.3241 90.9843L48.1606 99.8265C47.6638 100.097 47.356 100.599 47.356 101.146C47.356 104.419 47.356 116 47.4749 121.14C47.5029 122.288 48.8184 123.001 49.8819 122.44H49.8889Z" fill="#6CA9AE"/>
<path d="M50.0218 122.651L70.2017 112.093L74.54 109.823C75.4916 109.322 76.4362 108.926 76.5132 107.725C76.5761 106.729 76.5132 105.712 76.5132 104.709V85.9429C76.5132 84.8607 76.7231 83.5542 75.5056 82.9472C74.6869 82.538 73.9592 82.8416 73.2245 83.2111L70.3346 84.6628C68.9422 85.3622 67.011 85.9297 66.2693 87.3286C65.6185 88.5626 65.1077 90.2716 63.7993 90.9909L52.7437 97.0418C51.2743 97.8468 49.7979 98.6387 48.3285 99.4569C47.7407 99.7868 47.2439 100.17 47.118 100.856C46.943 101.786 47.09 102.849 47.09 103.792C47.09 106.834 47.097 109.876 47.118 112.918C47.125 114.495 47.139 116.072 47.1529 117.643C47.1669 118.85 47.006 120.223 47.2369 121.417C47.4678 122.611 48.8673 123.166 50.0078 122.658C50.3157 122.519 50.0498 122.097 49.7419 122.229C48.5524 122.757 47.7757 121.886 47.7197 120.843C47.6847 120.223 47.6987 119.602 47.6847 118.989C47.6637 117.557 47.6497 116.125 47.6427 114.7C47.6218 111.664 47.6078 108.629 47.6078 105.594C47.6078 104.445 47.6078 103.304 47.6078 102.156C47.6078 101.291 47.5518 100.493 48.4334 99.965C49.63 99.2457 50.8964 98.6189 52.1279 97.9458L63.2815 91.8421C63.6453 91.6441 64.0232 91.4528 64.387 91.235C64.9538 90.8985 65.1917 90.4498 65.4786 89.9087C65.9334 89.0575 66.3462 88.1733 66.836 87.3418C67.1999 86.7216 67.7667 86.5038 68.3964 86.1871C70.1877 85.2897 71.951 84.3329 73.7703 83.4882C74.7849 83.0131 75.9044 83.3959 75.9744 84.5704C75.9954 84.8937 75.9744 85.2237 75.9744 85.547V107.27C75.9744 107.903 75.9254 108.464 75.2677 108.867C75.1067 108.966 74.9318 109.045 74.7639 109.13L71.2513 110.965L50.2457 121.952L49.7419 122.216C49.448 122.367 49.7139 122.796 50.0078 122.644L50.0218 122.651Z" fill="#2B63A8"/>
</svg>
