<svg width="600" height="600" viewBox="0 0 600 600" fill="none" xmlns="http://www.w3.org/2000/svg">
<g clip-path="url(#clip0_785_2041)">
<path d="M288.685 394.414C296.566 399.78 303.079 404.441 303.079 404.441C303.079 404.441 337.778 384.342 355.348 361.832C395.87 309.886 388.092 248.575 386.048 235.077C330.662 230.637 303.094 195.879 303.079 195.879C303.079 195.879 296.389 202.848 288.641 209.185C293.243 215.537 305.564 224.829 321.531 233.357C338.396 242.355 353.981 243.664 361.906 243.796C363.876 256.132 370.963 309.254 336.514 355.745C320.826 376.917 301.241 387.753 288.67 394.429L288.685 394.414Z" fill="url(#paint0_linear_785_2041)"/>
<path d="M361.918 241.576C336.776 239.503 311.589 229.373 293.622 211.332C292.431 210.141 291.343 208.862 290.211 207.612C289.432 206.759 287.873 206.759 287.094 207.612C275.273 220.595 260.232 230.137 243.573 235.768C234.457 238.856 224.974 240.768 215.373 241.561C214.491 241.635 213.403 242.194 213.241 243.179C210.271 262.837 210.918 283.127 215.27 302.535C218.681 317.782 224.548 332.529 232.855 345.791C237.133 352.628 242 359.112 247.646 364.89C252.821 370.169 258.482 374.947 264.319 379.461C269.171 383.21 274.185 386.754 279.316 390.121C281.919 391.826 284.536 393.649 287.285 395.105C289.285 396.164 291.211 394.414 292.872 393.37C297.048 390.782 301.136 388.062 305.135 385.239C316.853 376.961 328.321 367.728 337.114 356.304C347.112 343.321 354.566 328.515 359.315 312.827C365.711 291.669 367.402 268.88 364.564 246.957C364.403 245.693 364.226 244.429 364.035 243.179C363.609 240.385 359.36 241.576 359.786 244.355C360.168 246.884 360.448 249.163 360.727 252.148C361.124 256.456 361.359 260.778 361.418 265.101C361.58 277.113 360.448 289.126 357.874 300.859C354.596 315.753 348.979 330.059 340.951 343.042C336.834 349.687 332.174 355.98 326.704 361.582C321.735 366.684 316.309 371.33 310.693 375.682C303.385 381.343 295.651 387.004 287.521 391.459H289.741C283.021 387.856 276.655 383.196 270.524 378.682C258.835 370.066 248.043 360.347 239.765 348.335C223.768 325.075 216.137 297.065 215.873 268.968C215.829 263.822 216.005 258.676 216.446 253.559C216.608 251.721 216.784 249.869 217.02 248.031C217.211 246.516 217.27 246.046 217.52 244.37L215.388 245.987C241.588 243.826 267.716 233.46 286.535 214.728C287.829 213.449 289.006 212.082 290.226 210.744H287.109C299.459 224.285 315.25 234.151 332.6 240.047C342.083 243.267 351.964 245.178 361.947 246.002C364.77 246.237 364.756 241.826 361.947 241.591L361.918 241.576Z" fill="#221F20"/>
<path d="M257.747 297.153C263.29 304.593 268.819 312.033 274.362 319.473C275.259 320.693 276.641 320.899 277.832 319.914C283.345 315.385 288.859 310.842 294.373 306.313L320.75 284.626C322.779 282.965 324.793 281.304 326.822 279.627C329.013 277.819 325.881 274.717 323.705 276.51C318.191 281.039 312.678 285.582 307.164 290.111L280.787 311.798C278.758 313.459 276.744 315.12 274.715 316.797L278.185 317.238C272.641 309.798 267.113 302.358 261.57 294.919C259.894 292.669 256.071 294.86 257.762 297.139L257.747 297.153Z" fill="#221F20"/>
</g>
<defs>
<linearGradient id="paint0_linear_785_2041" x1="288.655" y1="300.153" x2="388.004" y2="300.153" gradientUnits="userSpaceOnUse">
<stop stop-color="#9BCB9E"/>
<stop offset="1" stop-color="#78C1C4"/>
</linearGradient>
<clipPath id="clip0_785_2041">
<rect width="176.568" height="208.562" fill="white" transform="translate(211.43 195.879)"/>
</clipPath>
</defs>
</svg>
