<svg width="600" height="600" viewBox="0 0 600 600" fill="none" xmlns="http://www.w3.org/2000/svg">
<g clip-path="url(#clip0_785_1356)">
<path d="M308.783 318.521C308.722 326.893 308.345 335.341 308.617 343.713C308.662 345.236 309.492 345.84 310.533 346.76L316.069 351.602L322.087 356.867C323.174 357.817 324.079 358.873 325.602 358.933C330.309 359.145 335.06 358.979 339.782 358.994C342.693 358.994 342.693 354.483 339.782 354.468C334.955 354.453 330.128 354.423 325.301 354.408L326.9 355.072C322.087 350.863 317.275 346.67 312.463 342.461L313.127 344.06C313.187 335.552 313.248 327.044 313.293 318.536C313.308 315.625 308.783 315.625 308.768 318.536L308.783 318.521Z" fill="#221F20"/>
<path d="M350.248 369.689C357.563 369.689 363.493 363.759 363.493 356.445C363.493 349.13 357.563 343.2 350.248 343.2C342.934 343.2 337.004 349.13 337.004 356.445C337.004 363.759 342.934 369.689 350.248 369.689Z" fill="url(#paint0_linear_785_1356)"/>
<path d="M266.92 398.742C274.235 398.742 280.165 392.813 280.165 385.498C280.165 378.183 274.235 372.253 266.92 372.253C259.606 372.253 253.676 378.183 253.676 385.498C253.676 392.813 259.606 398.742 266.92 398.742Z" fill="url(#paint1_linear_785_1356)"/>
<path d="M280.826 319.894C280.765 326.893 280.705 333.893 280.66 340.892L281.324 339.293C277.251 342.793 273.178 346.293 269.12 349.792C267.717 350.999 266.209 351.829 266.133 353.82C266.013 356.611 266.058 359.416 266.028 362.207C265.997 364.998 265.952 367.592 265.922 370.277C265.892 373.189 270.417 373.189 270.447 370.277C270.523 364.651 270.583 359.009 270.659 353.382L269.995 354.981C274.475 351.135 278.955 347.288 283.42 343.442C284.31 342.672 285.05 342.174 285.185 340.892C285.261 340.244 285.185 339.55 285.2 338.901L285.291 328.161C285.306 325.4 285.336 322.655 285.351 319.894C285.381 316.983 280.856 316.983 280.826 319.894Z" fill="#221F20"/>
<path d="M248.906 319.381C248.891 323.032 248.861 326.667 248.846 330.318L249.51 328.719C246.779 330.831 244.064 332.927 241.334 335.039C240.368 335.793 240.549 337.453 241.334 338.237C242.284 339.188 243.566 338.991 244.532 338.237C247.036 336.306 249.525 334.375 252.029 332.445C252.587 332.007 253.085 331.675 253.296 330.921C253.432 330.438 253.386 329.865 253.386 329.367L253.417 323.831C253.417 322.353 253.432 320.859 253.447 319.381C253.462 316.47 248.936 316.47 248.921 319.381H248.906Z" fill="#221F20"/>
<path d="M230.428 358.571C237.743 358.571 243.673 352.642 243.673 345.327C243.673 338.012 237.743 332.083 230.428 332.083C223.113 332.083 217.184 338.012 217.184 345.327C217.184 352.642 223.113 358.571 230.428 358.571Z" fill="url(#paint2_linear_785_1356)"/>
<path d="M354.401 318.657L374.102 318.189C391.721 316.515 407.002 301.672 407.002 283.615C407.002 264.427 391.449 248.875 372.262 248.875C369.561 248.875 366.952 249.191 364.433 249.765C360.345 236.46 347.96 226.775 333.313 226.775C329.692 226.775 326.208 227.394 322.949 228.495C317.594 214.451 304.003 204.465 288.073 204.465C283.578 204.465 279.264 205.264 275.281 206.713C278.208 208.719 281.994 211.781 285.675 216.186C289.476 220.741 291.844 225.176 293.308 228.495C295.223 227.846 307.729 223.894 320.144 231.135C330.703 237.29 334.067 247.396 334.806 249.78C352.138 246.763 369.154 255.844 375.807 271.14C383.213 288.14 371.643 309.078 354.416 318.657H354.401Z" fill="#C5D8E3"/>
<path d="M379.619 283.63C379.544 272.875 374.868 262.436 366.601 255.467C357.596 247.864 345.679 245.088 334.184 247.608L336.975 249.192C334.305 240.744 328.603 233.473 320.879 229.083C312.326 224.226 302.038 223.291 292.716 226.338L295.506 227.922C289.548 212.656 274.916 202.217 258.428 202.217C243.011 202.217 228.515 211.555 222.285 225.674C218.287 234.74 217.805 244.968 220.897 254.396L223.084 251.53C209.779 253.204 198.466 262.029 194.001 274.76C189.536 287.492 193.111 301.822 202.644 311.069C209.417 317.646 218.423 320.95 227.806 320.92L240.839 320.875C258.232 320.814 275.625 320.739 293.033 320.679C308.585 320.618 324.137 320.558 339.69 320.498C343.838 320.482 347.594 320.543 351.682 319.517C364.429 316.334 374.792 306.182 378.292 293.526C379.182 290.313 379.604 286.964 379.634 283.63C379.65 280.719 375.124 280.719 375.109 283.63C375.019 296.211 367.748 307.66 356.389 313.061C351.682 315.293 347.036 315.927 341.998 315.957L300.65 316.123C283.242 316.183 265.85 316.259 248.442 316.319C242.755 316.334 237.068 316.364 231.381 316.379C226.81 316.394 222.39 316.41 217.925 315.037C206.265 311.432 197.606 300.661 196.731 288.457C195.826 275.801 202.901 263.854 214.41 258.514C217.141 257.247 220.128 256.417 223.114 256.04C224.472 255.874 225.799 254.728 225.302 253.174C220.64 239.009 225.151 223.231 236.992 214.044C248.065 205.461 263.693 204.375 275.851 211.344C282.79 215.326 288.251 221.647 291.147 229.099C291.569 230.2 292.671 231.09 293.938 230.682C310.033 225.448 327.516 234.152 332.645 250.383C333.022 251.59 334.199 252.239 335.436 251.967C345.407 249.765 356.057 252.254 363.826 258.982C370.991 265.197 375.079 274.142 375.139 283.63C375.154 286.542 379.68 286.542 379.665 283.63H379.619Z" fill="#221F20"/>
</g>
<defs>
<linearGradient id="paint0_linear_785_1356" x1="350.302" y1="343.208" x2="350.191" y2="369.696" gradientUnits="userSpaceOnUse">
<stop stop-color="#9BCB9E"/>
<stop offset="1" stop-color="#78C1C4"/>
</linearGradient>
<linearGradient id="paint1_linear_785_1356" x1="266.987" y1="372.244" x2="266.876" y2="398.748" gradientUnits="userSpaceOnUse">
<stop stop-color="#9BCB9E"/>
<stop offset="1" stop-color="#78C1C4"/>
</linearGradient>
<linearGradient id="paint2_linear_785_1356" x1="217.184" y1="345.327" x2="243.673" y2="345.327" gradientUnits="userSpaceOnUse">
<stop stop-color="#9BCB9E"/>
<stop offset="1" stop-color="#78C1C4"/>
</linearGradient>
<clipPath id="clip0_785_1356">
<rect width="214.883" height="196.525" fill="white" transform="translate(192.117 202.217)"/>
</clipPath>
</defs>
</svg>
