<svg width="600" height="600" viewBox="0 0 600 600" fill="none" xmlns="http://www.w3.org/2000/svg">
<g clip-path="url(#clip0_785_1432)">
<path d="M357.114 375.377H363.989C375.247 375.377 384.371 366.253 384.371 354.995V232.382C384.371 221.124 375.247 212 363.989 212H264.468C257.439 212 251.229 215.565 247.574 220.984H337.614C348.565 220.984 357.446 229.878 357.421 240.842L357.127 375.377" fill="#C5D8E3"/>
<path d="M336.884 384.156H254.128C248.556 384.156 242.985 384.207 237.426 384.156C230.078 384.092 223.318 379.773 220.392 372.988C219.14 370.1 218.91 367.096 218.91 364.004V309.809C218.91 297.925 218.91 286.04 218.91 274.156V248.701C218.91 246.925 218.91 245.148 218.91 243.372C218.922 237.468 221.529 231.846 226.308 228.28C229.925 225.584 234.129 224.613 238.551 224.613H335.363C339.26 224.613 342.979 225.188 346.404 227.245C352.039 230.619 355.323 236.714 355.362 243.231C355.4 248.305 355.362 253.365 355.362 258.438V355.429C355.362 360.464 356.026 366.343 354.518 371.224C352.141 378.917 344.87 384.08 336.896 384.156C334.43 384.182 334.43 388.015 336.896 387.99C345.458 387.9 353.534 382.942 357.112 375.083C358.684 371.62 359.183 368.004 359.183 364.247V247.806C359.183 246.26 359.183 244.727 359.183 243.18C359.131 235.884 355.668 229.111 349.713 224.855C345.637 221.942 340.832 220.779 335.887 220.779H296.63C284.542 220.779 272.453 220.779 260.364 220.779C253.042 220.779 245.732 220.779 238.41 220.779C233.58 220.779 228.89 221.84 224.852 224.613C218.731 228.817 215.127 235.73 215.063 243.142C215.025 248.138 215.063 253.122 215.063 258.119V290.449C215.063 302.755 215.063 315.048 215.063 327.354V356.439C215.063 362.534 214.462 368.975 216.967 374.7C220.405 382.572 228.34 387.798 236.915 387.99C238.461 388.028 240.02 387.99 241.566 387.99H268.849C281.078 387.99 293.308 387.99 305.55 387.99H336.896C339.363 387.99 339.363 384.156 336.896 384.156H336.884Z" fill="#221F20"/>
<path d="M325.486 261.02H248.149C244.634 261.02 241.785 263.869 241.785 267.383V274.821C241.785 278.335 244.634 281.185 248.149 281.185H325.486C329.001 281.185 331.85 278.335 331.85 274.821V267.383C331.85 263.869 329.001 261.02 325.486 261.02Z" fill="url(#paint0_linear_785_1432)"/>
<path d="M325.486 295.969H248.149C244.634 295.969 241.785 298.819 241.785 302.333V309.771C241.785 313.285 244.634 316.134 248.149 316.134H325.486C329.001 316.134 331.85 313.285 331.85 309.771V302.333C331.85 298.819 329.001 295.969 325.486 295.969Z" fill="url(#paint1_linear_785_1432)"/>
<path d="M305.935 330.242H248.149C244.634 330.242 241.785 333.092 241.785 336.606V344.044C241.785 347.558 244.634 350.407 248.149 350.407H305.935C309.449 350.407 312.299 347.558 312.299 344.044V336.606C312.299 333.092 309.449 330.242 305.935 330.242Z" fill="url(#paint2_linear_785_1432)"/>
</g>
<defs>
<linearGradient id="paint0_linear_785_1432" x1="241.785" y1="271.102" x2="331.85" y2="271.102" gradientUnits="userSpaceOnUse">
<stop stop-color="#9BCB9E"/>
<stop offset="1" stop-color="#78C1C4"/>
</linearGradient>
<linearGradient id="paint1_linear_785_1432" x1="215.001" y1="306.052" x2="216.279" y2="306.052" gradientUnits="userSpaceOnUse">
<stop stop-color="#9BCB9E"/>
<stop offset="1" stop-color="#78C1C4"/>
</linearGradient>
<linearGradient id="paint2_linear_785_1432" x1="215.001" y1="340.325" x2="312.299" y2="340.325" gradientUnits="userSpaceOnUse">
<stop stop-color="#9BCB9E"/>
<stop offset="1" stop-color="#78C1C4"/>
</linearGradient>
<clipPath id="clip0_785_1432">
<rect width="169.37" height="176.003" fill="white" transform="translate(215 212)"/>
</clipPath>
</defs>
</svg>
