<svg width="600" height="600" viewBox="0 0 600 600" fill="none" xmlns="http://www.w3.org/2000/svg">
<g clip-path="url(#clip0_843_1247)">
<path d="M365.214 179.859H250.502C247.653 179.859 244.822 179.823 241.991 179.859C232.003 179.965 222.923 186.784 220.804 196.701C219.594 202.381 220.288 208.826 220.288 214.577V414.126C220.288 415.568 221.517 416.796 222.959 416.796H345.149C351.344 416.796 356.971 414.909 361.511 410.583C364.003 408.197 360.229 404.44 357.736 406.808C354.193 410.191 349.867 411.473 345.095 411.473H222.976L225.647 414.143V202.292C225.647 196.149 228.282 190.505 233.73 187.354C237.469 185.182 241.368 185.2 245.481 185.2H331.493C342.193 185.2 352.911 185.2 363.611 185.2H365.214C368.65 185.2 368.65 179.859 365.214 179.859Z" fill="#231F20"/>
<path d="M362.543 212.387V237.686C362.543 241.123 367.884 241.123 367.884 237.686V212.387C367.884 208.951 362.543 208.951 362.543 212.387Z" fill="#231F20"/>
<path d="M395.751 209.68H246.232L248.547 213.704C254.333 203.644 254.422 191.253 248.547 181.193L246.232 185.217C272.226 185.217 298.238 185.217 324.232 185.217H372.98C375.49 185.217 377.929 185.181 380.369 185.858C384.41 186.98 388.024 189.632 390.285 193.175C393.953 198.908 393.081 205.852 393.081 212.351C393.081 215.787 398.422 215.787 398.422 212.351C398.422 206.351 399.081 199.923 396.802 194.244C393.134 185.11 384.428 179.894 374.76 179.858C347.288 179.769 319.799 179.858 292.327 179.858H246.232C244.202 179.858 242.903 182.119 243.917 183.882C248.831 192.303 248.76 202.558 243.917 210.997C242.903 212.742 244.185 215.021 246.232 215.021H395.751C399.188 215.021 399.188 209.68 395.751 209.68Z" fill="#231F20"/>
<path d="M222.978 411.454C219.578 411.454 216.141 411.579 212.776 410.973C207.987 410.119 203.5 408.267 199.494 405.525C191.572 400.077 186.213 391.015 185.358 381.436C185.073 378.196 185.215 374.902 185.215 371.662L182.545 374.332H222.996L220.325 371.662V414.125C220.325 417.561 225.667 417.561 225.667 414.125V371.662C225.667 370.22 224.438 368.991 222.996 368.991H182.527C181.085 368.991 179.856 370.22 179.856 371.662C179.856 374.724 179.732 377.804 179.945 380.849C180.355 386.35 181.868 391.692 184.486 396.552C189.524 405.917 198.533 412.967 208.824 415.585C213.488 416.778 218.189 416.795 222.96 416.795C226.397 416.795 226.397 411.454 222.96 411.454H222.978Z" fill="#231F20"/>
<path d="M283.479 244.202H344.993C348.429 244.202 348.429 238.86 344.993 238.86H283.479C280.043 238.86 280.043 244.202 283.479 244.202Z" fill="#231F20"/>
<path d="M283.479 290.421H315.794C319.23 290.421 319.23 285.08 315.794 285.08H283.479C280.043 285.08 280.043 290.421 283.479 290.421Z" fill="#231F20"/>
<path d="M283.479 331.745H336.874C340.31 331.745 340.31 326.403 336.874 326.403H283.479C280.043 326.403 280.043 331.745 283.479 331.745Z" fill="#231F20"/>
<path d="M283.479 378.338H344.993C348.429 378.338 348.429 372.997 344.993 372.997H283.479C280.043 372.997 280.043 378.338 283.479 378.338Z" fill="#231F20"/>
<path d="M243.684 243.846L251.198 253.745C252.319 255.223 253.922 255.437 255.399 254.279C261.399 249.543 267.399 244.825 273.399 240.089C274.254 239.413 275.126 238.736 275.981 238.06C277.12 237.17 276.925 235.211 275.981 234.285C274.859 233.164 273.346 233.395 272.206 234.285C266.206 239.021 260.206 243.739 254.206 248.475C253.352 249.152 252.479 249.828 251.625 250.505L255.827 251.039L248.313 241.14C247.441 240 246.017 239.395 244.663 240.178C243.542 240.837 242.83 242.671 243.702 243.828L243.684 243.846Z" fill="#231F20"/>
<path d="M242.872 287.449C245.382 290.742 247.875 294.036 250.385 297.348C251.507 298.825 253.109 299.039 254.587 297.882C260.587 293.146 266.587 288.428 272.587 283.692C273.441 283.015 274.314 282.339 275.168 281.662C276.308 280.772 276.112 278.814 275.168 277.888C274.047 276.766 272.533 276.998 271.394 277.888C265.394 282.624 259.394 287.342 253.394 292.078C252.539 292.754 251.667 293.431 250.812 294.107L255.014 294.641C252.504 291.348 250.011 288.054 247.501 284.742C246.628 283.603 245.204 282.998 243.851 283.781C242.729 284.44 242.017 286.274 242.89 287.431L242.872 287.449Z" fill="#C1D9E5"/>
<path d="M242.047 324.944C244.558 328.238 247.05 331.531 249.561 334.843C250.683 336.321 252.285 336.534 253.763 335.377C259.763 330.641 265.763 325.923 271.763 321.187C272.617 320.511 273.49 319.834 274.344 319.157C275.484 318.267 275.288 316.309 274.344 315.383C273.223 314.261 271.709 314.493 270.57 315.383C264.57 320.119 258.57 324.837 252.57 329.573C251.715 330.249 250.843 330.926 249.988 331.602L254.19 332.137L246.677 322.238C245.804 321.098 244.38 320.493 243.027 321.276C241.905 321.935 241.193 323.769 242.065 324.926L242.047 324.944Z" fill="#231F20"/>
<path d="M241.227 368.92L248.741 378.819C249.862 380.297 251.465 380.511 252.942 379.354C258.942 374.618 264.942 369.9 270.942 365.164C271.797 364.487 272.669 363.811 273.524 363.134C274.663 362.244 274.468 360.285 273.524 359.359C272.402 358.238 270.889 358.469 269.749 359.359C263.749 364.095 257.749 368.813 251.749 373.549C250.895 374.226 250.022 374.902 249.168 375.579L253.37 376.113L245.856 366.214C244.984 365.075 243.56 364.469 242.206 365.253C241.085 365.911 240.373 367.745 241.245 368.902L241.227 368.92Z" fill="#C1D9E5"/>
<path d="M383.251 278.369C383.162 284.565 379.352 290.297 373.459 292.416C367.566 294.535 360.658 292.719 356.616 287.751C352.699 282.944 352.272 275.983 355.441 270.677C358.61 265.372 364.895 262.47 370.948 263.627C378.052 264.998 383.144 271.14 383.233 278.369C383.287 281.805 388.628 281.805 388.574 278.369C388.45 269.876 383.251 262.345 375.31 259.336C367.37 256.327 358.022 258.855 352.699 265.389C347.376 271.924 346.432 281.413 350.83 288.766C355.227 296.119 363.773 299.823 372.141 298.309C381.666 296.6 388.468 287.912 388.592 278.386C388.646 274.95 383.304 274.95 383.251 278.386V278.369Z" fill="url(#paint0_linear_843_1247)"/>
<path d="M341.676 328.095C341.8 316.914 348.797 306.534 359.444 302.759C370.091 298.985 381.913 302.225 389.213 310.771C393.325 315.596 395.444 321.792 395.515 328.095C395.551 331.531 400.892 331.531 400.857 328.095C400.714 314.528 392.222 302.368 379.438 297.703C366.958 293.145 352.251 297.169 343.812 307.424C338.987 313.282 336.406 320.492 336.317 328.077C336.281 331.513 341.622 331.513 341.658 328.077L341.676 328.095Z" fill="url(#paint1_linear_843_1247)"/>
<path d="M404.942 320.244C392.158 335.449 371.203 341.413 352.402 334.701C333.778 328.06 321.137 309.775 321.191 290.066C321.244 270.357 334.134 252.09 352.829 245.645C371.559 239.182 392.532 245.164 405.12 260.458C419.221 277.586 418.936 303.17 404.942 320.226C402.787 322.861 406.544 326.672 408.716 324.001C422.568 307.105 424.971 283.123 414.04 264.037C403.108 244.951 380.657 234.678 358.971 238.523C337.286 242.369 319.749 260.387 316.508 282.161C313.268 303.882 323.933 325.888 343.339 336.428C362.461 346.808 386.55 344.102 402.965 329.894C405.048 328.096 406.953 326.102 408.734 324.001C410.942 321.384 407.167 317.591 404.959 320.226L404.942 320.244Z" fill="#231F20"/>
<path d="M378.57 340.719C378.712 359.307 378.873 377.912 379.015 396.499C379.051 401.769 376.754 406.719 371.253 408.232C364.309 410.155 357.899 404.725 357.793 397.746C357.65 388.452 357.65 379.14 357.561 369.847C357.49 360.126 357.401 350.422 357.33 340.701C357.294 337.265 351.953 337.265 351.988 340.701C352.149 359.68 352.184 378.677 352.451 397.657C352.558 405.241 357.597 412.167 365.27 413.627C374.635 415.425 383.591 408.606 384.339 399.099C384.57 396.197 384.339 393.223 384.339 390.321C384.285 384.268 384.25 378.232 384.196 372.179C384.107 361.692 384.036 351.188 383.947 340.701C383.911 337.265 378.57 337.265 378.606 340.701L378.57 340.719Z" fill="#231F20"/>
</g>
<defs>
<linearGradient id="paint0_linear_843_1247" x1="349.761" y1="278.351" x2="386.812" y2="278.351" gradientUnits="userSpaceOnUse">
<stop stop-color="#8DCC9A"/>
<stop offset="1" stop-color="#5DC4C6"/>
</linearGradient>
<linearGradient id="paint1_linear_843_1247" x1="338.115" y1="313.246" x2="399.076" y2="313.246" gradientUnits="userSpaceOnUse">
<stop stop-color="#8DCC9A"/>
<stop offset="1" stop-color="#5DC4C6"/>
</linearGradient>
<clipPath id="clip0_843_1247">
<rect width="241.068" height="236.973" fill="white" transform="translate(179.82 179.822)"/>
</clipPath>
</defs>
</svg>
