<svg width="113" height="68" viewBox="0 0 113 68" fill="none" xmlns="http://www.w3.org/2000/svg">
<g clip-path="url(#clip0_434_9909)">
<path d="M101.646 67.7589H23.477C18.1785 67.7589 13.5657 64.1434 12.319 58.9072L0.973854 13.3398C-0.646875 6.79452 4.21531 0.436279 10.8852 0.436279H89.3659C94.4774 0.436279 98.9033 3.98942 100.15 8.97627L111.557 54.8554C113.178 61.4006 108.316 67.7589 101.646 67.7589Z" fill="#0565AD"/>
<path d="M102.394 64.5174H26.6561C21.5446 64.5174 17.0564 61.0266 15.8097 56.0397L4.83858 12.5294C3.28019 6.29579 7.95537 0.18689 14.4383 0.18689H90.4879C95.4124 0.18689 99.7759 3.55302 100.96 8.35287L111.994 52.1125C113.552 58.3461 108.815 64.455 102.394 64.455V64.5174Z" fill="#E9EFF8"/>
<path d="M102.27 64.2681H29.836C28.8386 64.2681 27.9036 64.2681 26.9062 64.2681C23.9764 64.2681 21.1713 63.2708 18.9896 61.2137C15.9975 58.3462 15.4365 53.8581 14.4391 49.9933L10.0132 32.4146C8.64186 26.9914 7.27047 21.5058 5.89909 16.0826C5.58741 14.8982 5.27573 13.7762 5.02639 12.5918C4.09135 8.85167 5.33807 4.92452 8.33018 2.55576C10.2003 1.05971 12.5067 0.43635 14.8754 0.43635H84.6914C86.9355 0.43635 89.2419 0.249343 91.486 0.43635C95.9119 0.8727 99.5273 4.11416 100.649 8.41532C100.899 9.41269 101.148 10.4724 101.397 11.4698C102.706 16.7683 104.078 22.0668 105.387 27.3654C106.883 33.3496 108.379 39.2715 109.875 45.2557L111.309 50.8659C111.745 52.6737 112.119 54.4191 111.807 56.2892C110.997 60.902 106.883 64.2058 102.27 64.2681C101.958 64.2681 101.958 64.7668 102.27 64.7045C106.571 64.7045 110.498 61.8994 111.87 57.7852C112.618 55.6035 112.431 53.4217 111.87 51.24C110.748 46.7518 109.626 42.326 108.504 37.8378L103.704 18.8877C102.831 15.3969 101.958 11.9061 101.086 8.41532C100.151 4.67518 97.3456 1.68306 93.6054 0.498686C92.2341 0.0623357 90.8003 0 89.3666 0H14.8131C12.5067 0 10.3249 0.561022 8.45485 1.87007C5.08873 4.30116 3.53033 8.60233 4.5277 12.5918C5.33807 15.8333 6.14843 19.0747 6.9588 22.3785L11.6963 41.2662L15.1871 55.1048C15.6858 57.1619 16.4338 59.0943 17.8052 60.715C19.987 63.3331 23.2284 64.7668 26.6569 64.7668C29.275 64.7668 31.8931 64.7668 34.5112 64.7668H102.27C102.27 64.7668 102.582 64.3305 102.27 64.3305V64.2681Z" fill="#0565AD"/>
<path d="M32.08 50.679C33.0773 47.3129 34.2617 44.0714 35.5708 40.83C36.7551 37.9625 38.0019 35.0951 39.4979 32.3523C40.8693 29.7966 42.4277 27.3031 44.4224 25.1837C45.8562 23.6253 47.7886 22.0046 50.095 21.8799C51.1547 21.8799 52.1521 22.1293 53.0871 22.6903C54.8325 23.75 56.2039 25.5577 57.6999 26.9291C60.9414 29.8589 64.7439 32.9133 69.1697 33.599C72.8475 34.1601 76.276 32.7263 79.2058 30.6069C85.4393 26.0564 90.8002 18.5761 90.0522 10.4725C90.0522 10.3478 90.0522 10.1608 90.0522 10.0361C90.0522 9.72445 89.5535 9.84912 89.6158 10.1608C89.9275 12.2179 89.5535 14.649 88.9925 16.6437C87.5588 21.6929 84.255 25.9317 80.2655 29.2355C77.2734 31.6666 73.7202 33.6614 69.7307 33.1627C65.0556 32.6017 61.0037 29.2355 57.6999 26.1811C55.6429 24.2487 53.6481 21.4436 50.5313 21.3812C48.4119 21.3812 46.5419 22.5656 45.0458 23.937C43.0511 25.8071 41.4927 28.1758 40.1213 30.5446C38.5629 33.225 37.2538 36.0301 36.0071 38.8352C34.9474 41.2663 34.0124 43.6974 33.1397 46.1908C32.641 47.5622 32.1423 48.9336 31.7683 50.305C31.7683 50.3673 31.7683 50.4297 31.7683 50.492C31.7059 50.8037 32.1423 50.9284 32.2046 50.6167L32.08 50.679Z" fill="#0565AD"/>
<path d="M48.9104 25.4334C50.7006 25.4334 52.1519 23.9821 52.1519 22.1919C52.1519 20.4017 50.7006 18.9504 48.9104 18.9504C47.1202 18.9504 45.6689 20.4017 45.6689 22.1919C45.6689 23.9821 47.1202 25.4334 48.9104 25.4334Z" fill="#0565AD"/>
<path d="M31.4565 52.8605C33.2468 52.8605 34.698 51.4092 34.698 49.619C34.698 47.8288 33.2468 46.3776 31.4565 46.3776C29.6663 46.3776 28.2151 47.8288 28.2151 49.619C28.2151 51.4092 29.6663 52.8605 31.4565 52.8605Z" fill="#6E94D0"/>
<path d="M34.1368 50.9282C33.5758 52.0503 32.4537 52.736 31.1447 52.6113C29.8356 52.4866 28.8383 51.6139 28.4642 50.3672C28.0902 49.1205 28.6513 47.8115 29.711 47.1258C30.7707 46.4401 32.1421 46.4401 33.1394 47.1881C34.3238 47.9985 34.6978 49.6192 34.0745 50.8659C33.9498 51.1152 34.3238 51.3646 34.4485 51.1152C35.0718 49.8062 34.8225 48.2478 33.8251 47.1881C32.8277 46.1284 31.207 45.8167 29.898 46.4401C28.5889 47.0634 27.7786 48.4348 27.9032 49.8685C28.0279 51.3023 29.0876 52.549 30.459 52.923C32.0797 53.3593 33.7628 52.549 34.4485 51.1152C34.5731 50.8659 34.1991 50.6166 34.0745 50.8659L34.1368 50.9282Z" fill="#0565AD"/>
<path d="M75.0908 36.0302C76.881 36.0302 78.3323 34.5789 78.3323 32.7887C78.3323 30.9985 76.881 29.5472 75.0908 29.5472C73.3006 29.5472 71.8494 30.9985 71.8494 32.7887C71.8494 34.5789 73.3006 36.0302 75.0908 36.0302Z" fill="#0565AD"/>
<path d="M89.4285 14.8357C91.2187 14.8357 92.6699 13.3844 92.6699 11.5942C92.6699 9.80403 91.2187 8.35278 89.4285 8.35278C87.6383 8.35278 86.187 9.80403 86.187 11.5942C86.187 13.3844 87.6383 14.8357 89.4285 14.8357Z" fill="#6E94D0"/>
<path d="M92.1095 12.9036C91.5484 14.0256 90.4264 14.7113 89.1173 14.5866C87.8083 14.462 86.8109 13.5893 86.4369 12.3426C86.0629 11.0958 86.6239 9.7868 87.6836 9.1011C88.7433 8.41541 90.1147 8.41541 91.1121 9.16344C92.2965 9.9738 92.6705 11.5945 92.0471 12.8412C91.9224 13.0906 92.2965 13.3399 92.4211 13.0906C93.0445 11.7815 92.7951 10.2231 91.7978 9.16344C90.8004 8.10373 89.1797 7.79205 87.8706 8.41541C86.5616 9.03877 85.7512 10.4102 85.8759 11.8439C86.0006 13.2776 87.0603 14.5243 88.4316 14.8983C90.0524 15.3347 91.7354 14.5243 92.4211 13.0906C92.5458 12.8412 92.1718 12.5919 92.0471 12.8412L92.1095 12.9036Z" fill="#0565AD"/>
</g>
<defs>
<clipPath id="clip0_434_9909">
<rect width="111.768" height="67.7589" fill="white" transform="translate(0.662109)"/>
</clipPath>
</defs>
</svg>
