<svg width="600" height="600" viewBox="0 0 600 600" fill="none" xmlns="http://www.w3.org/2000/svg">
<g clip-path="url(#clip0_785_1558)">
<path d="M309.764 298.547C313.827 298.547 317.902 298.587 321.965 298.52C323.107 298.507 323.465 298.839 323.385 299.968C323.292 301.335 323.279 302.716 323.385 304.083C323.478 305.304 323.027 305.623 321.845 305.623C314.398 305.583 306.95 305.61 299.515 305.623C297.577 305.623 297.643 305.597 298.174 307.482C300.498 315.633 308.556 318.66 316.084 318.01C319.111 317.744 322.071 317.107 324.859 315.885C325.709 315.514 325.974 315.633 326.16 316.616C326.704 319.47 327.408 322.298 328.072 325.126C328.271 325.989 328.258 326.639 327.275 327.037C315.38 331.817 303.83 331.671 293.036 324.183C287.301 320.213 283.889 314.518 282.482 307.694C282.137 306.048 281.513 305.53 279.814 305.597C275.432 305.756 275.432 305.663 275.419 301.176C275.419 299.45 276.287 298.587 278.021 298.587C281.048 298.587 280.955 298.587 281.101 295.52C281.194 293.821 280.769 293.276 278.99 293.356C275.419 293.515 275.419 293.396 275.379 289.878C275.353 287.532 276.512 286.351 278.858 286.333C282.124 286.307 282.031 286.267 283.119 283.12C287.288 270.986 295.625 263.804 308.476 262.078C314.557 261.268 320.425 262.171 326.187 264.096C327.474 264.521 328.019 264.959 327.541 266.485C326.704 269.141 326.067 271.876 325.523 274.624C325.244 276.044 324.872 276.323 323.438 275.805C318.832 274.119 314.092 273.177 309.18 274.478C303.71 275.925 300.192 279.416 298.28 284.674C297.803 285.988 297.949 286.399 299.489 286.386C306.817 286.307 314.145 286.386 321.474 286.32C322.921 286.32 323.571 286.625 323.359 288.205C323.133 289.891 324.062 292.148 322.974 293.117C322.031 293.954 319.814 293.396 318.168 293.396C311.357 293.396 304.533 293.422 297.723 293.369C296.541 293.369 296.156 293.675 296.156 294.896C296.156 298.587 296.09 298.587 299.767 298.587C303.086 298.587 306.405 298.587 309.738 298.587L309.764 298.547Z" fill="url(#paint0_linear_785_1558)"/>
<path d="M232.724 310.416H212.598C210.611 310.416 209 312.026 209 314.013V388.771C209 390.758 210.611 392.368 212.598 392.368H232.724C234.711 392.368 236.322 390.758 236.322 388.771V314.013C236.322 312.026 234.711 310.416 232.724 310.416Z" fill="#C5D8E3"/>
<path d="M237.665 325.736C237.771 325.736 237.877 325.763 237.983 325.776C238.262 325.802 238.302 325.816 237.97 325.776C238.222 325.816 238.461 325.842 238.713 325.882C240.081 326.095 241.448 326.373 242.789 326.679C247.489 327.754 252.096 329.254 256.543 331.086C259.57 332.321 262.517 333.742 265.398 335.282C268.279 336.822 271.12 338.428 274.452 339.012C275.78 339.238 277.134 339.41 278.475 339.596C290.291 341.282 302.12 342.968 313.935 344.668C316.099 344.973 318.17 345.717 319.909 347.084C324.065 350.337 324.888 356.43 322.246 360.904C320.932 363.121 324.383 365.126 325.685 362.909C328.194 358.674 328.419 353.191 326.295 348.783C324.41 344.854 320.494 341.973 316.272 341.03C312.276 340.127 308.067 339.822 304.018 339.251C296.822 338.229 289.64 337.193 282.445 336.171C280.453 335.892 278.448 335.613 276.457 335.321C271.306 334.565 267.111 331.551 262.477 329.387C254.764 325.789 246.214 322.59 237.665 321.78C235.116 321.541 235.129 325.524 237.665 325.763V325.736Z" fill="#221F20"/>
<path d="M289.639 365.537H314.584C317.797 365.537 321.156 365.816 324.369 365.537C326.055 365.391 327.927 364.17 329.44 363.493C338.335 359.537 347.23 355.594 356.125 351.637C363.918 348.172 371.711 344.721 379.504 341.256C379.823 341.11 380.141 340.977 380.473 340.831C380.54 340.804 380.619 340.764 380.686 340.738C380.672 340.738 379.902 340.818 380.765 340.897C382.996 341.11 384.947 341.694 386.368 343.566C387.005 344.415 387.456 345.438 387.642 346.486C387.735 347.004 387.762 347.522 387.735 348.04C387.709 348.557 387.178 349.699 387.31 350.097C387.377 350.31 388.08 349.62 387.509 350.097C387.244 350.323 386.925 350.496 386.633 350.682L383.447 352.819L358.9 369.321L336.53 384.35C333.317 386.514 330.091 388.478 326.307 389.554C322.523 390.629 318.687 390.642 314.797 390.642H273.097C271.477 390.642 270.455 390.125 268.835 389.594C263.511 387.854 258.201 386.115 252.877 384.389C247.554 382.664 242.442 380.977 237.238 379.278C234.795 378.482 233.747 382.332 236.176 383.115C247.129 386.686 258.082 390.271 269.034 393.842C270.535 394.333 271.61 394.625 273.097 394.625H309.579C312.527 394.625 315.474 394.625 318.421 394.625C324.94 394.599 331.232 392.674 336.649 389.063C342.849 384.92 349.036 380.738 355.222 376.583C364.157 370.582 373.078 364.582 382.013 358.581L389.235 353.722C390.802 352.673 391.346 350.96 391.598 349.102C392.196 344.575 389.78 339.968 385.637 338.003C383.487 336.981 380.672 336.423 378.429 337.406C377.539 337.791 376.65 338.189 375.773 338.587L364.489 343.592C354.479 348.04 344.455 352.487 334.445 356.935C331.232 358.355 328.033 359.776 324.82 361.209C324.475 361.369 324.116 361.502 323.785 361.674C322.961 362.086 324.037 361.316 324.422 361.568C323.931 361.249 322.191 361.568 321.634 361.568H289.625C287.063 361.568 287.063 365.551 289.625 365.551L289.639 365.537Z" fill="#221F20"/>
<path d="M247.62 324.249C248.549 299.144 259.143 275.062 277.066 257.458C280.345 254.232 283.85 251.218 287.554 248.483H285.549C299.675 255.174 316.11 255.174 330.236 248.483H328.231C336.064 253.488 343.101 259.768 349.247 266.831C360.266 279.522 367.767 295.281 368.949 312.181C369.732 323.386 367.821 334.538 363.824 345C362.908 347.389 366.758 348.438 367.661 346.062C372.494 333.436 374.22 319.802 372.308 306.406C370.662 294.816 366.148 283.731 359.682 274C354.571 266.3 348.305 259.356 341.295 253.329C338.905 251.271 336.423 249.32 333.861 247.487C333.037 246.89 332.201 246.319 331.351 245.748C330.024 244.872 329.174 244.607 327.568 245.35C314.995 251.125 300.06 250.952 287.567 245.031C286.97 244.739 286.147 244.593 285.562 245.031C265.688 259.741 251.39 281.235 246.04 305.437C244.672 311.611 243.889 317.917 243.65 324.236C243.557 326.798 247.54 326.798 247.633 324.236L247.62 324.249Z" fill="#221F20"/>
<path d="M295.625 232.472C293.009 229.379 290.912 225.794 289.544 221.971C288.695 219.594 288.071 217.125 287.752 214.629C287.619 213.541 287.035 211.549 288.509 212.16C291.151 213.275 293.262 214.762 296.049 212.97C297.098 212.293 298.134 211.589 299.169 210.885C299.873 210.421 300.125 210.129 300.895 210.434C302.873 211.231 304.679 212.478 306.617 213.381C309.684 214.802 312.074 212.585 314.503 211.005C315.685 210.235 316.919 209.624 318.34 210.235C319.389 210.686 320.345 211.629 321.247 212.293C322.615 213.315 324.035 213.965 325.788 213.448C326.85 213.129 327.872 212.518 328.881 212.054C330.381 211.35 330.846 210.938 330.713 213.023C330.527 215.811 329.93 218.559 329.001 221.201C327.5 225.449 324.991 229.286 321.818 232.472C320.013 234.291 322.827 237.105 324.633 235.287C327.753 232.154 330.262 228.463 331.988 224.4C333.156 221.652 333.966 218.798 334.391 215.851C334.709 213.62 335.32 210.779 333.674 208.921C332.253 207.327 330.182 207.128 328.31 207.951C327.208 208.429 325.987 209.359 324.819 209.598C323.942 209.783 322.867 208.589 322.137 208.044C320.65 206.929 319.15 206.093 317.225 206.026C315.3 205.96 313.853 206.703 312.366 207.659C311.357 208.31 310.188 209.398 309.06 209.797C308.237 210.089 307.4 209.359 306.644 208.96C305.356 208.297 304.095 207.619 302.794 206.982C301.187 206.186 299.581 205.987 297.961 206.916C296.899 207.527 295.89 208.297 294.868 208.987C293.952 209.598 293.527 210.168 292.558 209.704C291.376 209.146 290.115 208.376 288.827 208.084C286.159 207.473 283.636 209.584 283.557 212.266C283.477 215.12 284.207 218.24 285.004 220.962C286.544 226.259 289.239 231.105 292.784 235.3C294.443 237.252 297.244 234.424 295.598 232.485L295.625 232.472Z" fill="#221F20"/>
<path d="M325.961 242.655C325.868 245.615 323.811 247.102 321.182 247.859C318.102 248.749 314.942 249.346 311.743 249.598C308.211 249.877 304.613 249.797 301.109 249.28C298.36 248.881 295.108 248.43 292.599 247.209C288.311 245.111 288.881 237.663 293.687 236.601C294.949 236.322 296.157 236.681 297.405 236.906C299.091 237.212 300.79 237.437 302.503 237.61C305.968 237.942 309.472 237.955 312.951 237.637C314.756 237.477 316.549 237.225 318.328 236.906C319.814 236.641 321.182 236.243 322.656 236.787C325.271 237.756 325.961 240.146 325.961 242.668C325.961 245.191 329.944 245.23 329.944 242.668C329.944 239.522 329.148 236.614 326.612 234.556C323.638 232.14 320.531 232.499 317.013 233.123C312.619 233.893 308.105 234.065 303.644 233.733C301.653 233.587 299.675 233.322 297.71 232.937C295.984 232.605 294.364 232.353 292.625 232.778C286.054 234.371 283.69 243.013 287.66 248.178C289.93 251.125 293.687 251.908 297.152 252.638C301.334 253.515 305.636 253.9 309.911 253.714C314.185 253.528 318.859 252.798 323.12 251.457C327.143 250.196 329.811 246.93 329.944 242.668C330.024 240.106 326.041 240.106 325.961 242.668V242.655Z" fill="#221F20"/>
<path d="M253.062 227.268C257.51 230.056 261.771 233.534 267.321 233.149C269.485 233.003 271.649 232.778 273.813 232.658C277.012 232.486 279.269 233.919 281.738 235.658C283.73 237.066 285.708 238.473 287.699 239.867C289.797 241.354 291.788 237.902 289.704 236.428C288.005 235.22 286.305 234.026 284.606 232.817C282.389 231.251 280.265 229.578 277.53 228.967C271.994 227.719 266.259 230.799 261.108 227.6C259.09 226.352 257.085 225.077 255.08 223.803C252.903 222.436 250.898 225.874 253.076 227.241L253.062 227.268Z" fill="#221F20"/>
<path d="M258.598 255.506C258.704 255.241 258.279 256.117 258.572 255.586C258.757 255.254 258.903 254.922 259.103 254.603C259.899 253.249 260.205 252.904 261.36 251.723C264.639 248.39 269.126 246.386 273.773 245.31C278.419 244.235 282.76 244.129 287.288 244.354C289.85 244.474 289.837 240.491 287.288 240.372C276.162 239.827 262.422 241.978 255.903 252.2C255.452 252.904 255.053 253.661 254.761 254.444C253.872 256.847 257.722 257.896 258.598 255.506Z" fill="#221F20"/>
</g>
<defs>
<linearGradient id="paint0_linear_785_1558" x1="275.379" y1="295.998" x2="328.191" y2="295.998" gradientUnits="userSpaceOnUse">
<stop stop-color="#9BCB9E"/>
<stop offset="1" stop-color="#78C1C4"/>
</linearGradient>
<clipPath id="clip0_785_1558">
<rect width="182.704" height="188.639" fill="white" transform="translate(209 206)"/>
</clipPath>
</defs>
</svg>
