<svg width="100" height="103" viewBox="0 0 100 103" fill="none" xmlns="http://www.w3.org/2000/svg">
<g clip-path="url(#clip0_434_9813)">
<path d="M43.8538 49.9683C43.8538 49.9683 -1.18277 64.9367 0.589803 65.5932C2.36238 66.2497 35.1879 102.029 35.1879 102.029L97.5563 79.2486L43.8538 49.9683Z" fill="#223838"/>
<path d="M13.1289 50.5588C13.1289 50.5588 17.9214 48.1953 9.84633 40.5142C1.1804 32.1765 2.42777 20.3593 6.30118 19.4402C10.1746 18.5211 26.456 12.8094 26.456 12.8094L36.3037 43.0089L13.1289 50.6244V50.5588Z" fill="#4776C4"/>
<path d="M13.195 50.9528C14.9676 50.0337 14.902 47.6702 14.2455 46.0946C13.1294 43.3373 10.7003 41.4334 8.79643 39.2669C6.6956 36.9691 5.11997 34.2118 4.26651 31.2575C3.61 28.9597 3.28175 26.5306 3.67565 24.1672C3.8726 22.7229 4.39781 20.7533 5.84213 20.0312C6.36734 19.7686 7.02385 19.7029 7.61471 19.506C8.46817 19.2434 9.25599 18.9808 10.1094 18.7182C12.2759 18.0616 14.3768 17.3395 16.5432 16.6173C19.8914 15.5013 23.174 14.3852 26.4565 13.2035L26.1283 13.0065L29.4765 23.1824C31.2491 28.6314 33.0216 34.0148 34.7942 39.4639L36.0416 43.206L36.2385 42.8777C29.4765 45.1098 22.7144 47.342 15.9524 49.5741C14.9676 49.9024 14.0485 50.2306 13.0637 50.4932C12.7355 50.6245 12.8668 51.0841 13.195 50.9528C19.9571 48.7206 26.7191 46.4885 33.4812 44.2564C34.466 43.9281 35.3851 43.5999 36.3698 43.3373C36.5011 43.3373 36.5668 43.1403 36.5668 43.009L33.2186 32.8331C31.446 27.3841 29.6734 22.0007 27.9009 16.5517L26.6535 12.8096C26.6535 12.8096 26.4565 12.6126 26.3252 12.6126C23.5679 13.5974 20.7449 14.5165 17.9219 15.5013C14.1142 16.8143 10.2407 18.1929 6.36734 19.1777C3.08479 20.0312 2.82219 24.8237 3.08479 27.5154C3.28175 30.0758 4.06956 32.5705 5.25128 34.8683C5.90778 36.1813 6.76125 37.4943 7.74601 38.6104C8.86208 39.9891 10.1751 41.1051 11.3568 42.4182C12.7355 43.9938 14.7707 46.4229 14.2455 48.7206C14.1142 49.3772 13.6546 50.0337 13.0637 50.3619C12.8011 50.4932 13.0637 50.9528 13.3263 50.7558L13.195 50.9528Z" fill="#0565AD"/>
<path d="M6.302 19.4401C6.302 19.4401 21.533 14.5163 22.7804 55.023C24.0278 95.5296 44.117 94.8075 44.117 94.8075L98.0164 76.2939C99.2638 75.9 99.7233 74.39 98.9355 73.4052C94.5369 67.628 82.6541 49.7052 81.2098 21.6723C79.6341 -8.19891 52.0607 3.61826 52.0607 3.61826L6.302 19.4401Z" fill="#E9EFF8"/>
<path d="M6.10433 19.5717C7.15475 19.2434 8.40212 19.3747 9.45253 19.6373C12.5381 20.4908 14.8359 23.0512 16.4115 25.7429C20.0223 31.9797 21.1384 39.5952 21.7949 46.6199C22.3201 52.1346 22.2545 57.7149 22.8453 63.2296C23.3049 67.4969 24.0927 71.7642 25.3401 75.9002C26.9813 81.1523 29.4761 86.4044 33.5464 90.2121C35.7786 92.313 38.4703 93.8886 41.4246 94.6108C42.4093 94.8734 43.4597 95.0703 44.4445 94.7421C47.8584 93.5603 51.2722 92.3786 54.6861 91.2626L72.1492 85.2883L89.1528 79.4454C92.0415 78.4606 94.9301 77.5415 97.7531 76.4911C98.6722 76.1628 99.3944 75.375 99.3287 74.3246C99.2631 73.2742 98.2783 72.3551 97.6874 71.5673C96.1775 69.4664 94.7988 67.2343 93.4858 65.0022C89.4154 57.8462 86.3298 50.0994 84.2946 42.1556C82.916 36.8379 81.9969 31.4545 81.4716 26.0055C81.0777 21.4756 81.0777 16.9456 79.5678 12.547C77.7952 7.3606 74.1844 3.15894 68.801 1.64897C64.7307 0.532902 60.2664 0.861157 56.196 1.84592C54.883 2.17418 53.6356 2.50243 52.3883 2.96199C51.8631 3.15894 51.7318 3.22459 51.2722 3.35589L40.1772 7.16365C34.1373 9.26448 28.1631 11.2997 22.1232 13.4005L8.00821 18.2587L5.84173 18.9808C5.84173 18.9808 5.64478 19.5717 5.97303 19.4404L14.1138 16.6174L31.3143 10.6432L47.1362 5.19412L51.2066 3.7498C51.7318 3.55285 51.7974 3.55285 52.3226 3.35589C55.3426 2.23983 58.5595 1.51767 61.7764 1.32071C66.5032 1.05811 71.4271 2.10853 74.8409 5.58803C80.8151 11.4966 80.1586 20.4251 81.0778 28.1063C82.1938 37.6257 84.5573 46.9481 88.2994 55.7454C90.6628 61.3914 93.6171 66.7747 97.1622 71.7642C97.8844 72.8146 99.3944 74.2589 98.0814 75.4407C97.8187 75.7033 97.4248 75.8346 97.0309 75.9659L93.4858 77.2132C88.6276 78.8545 83.7694 80.5614 78.9769 82.2027C72.937 84.3036 66.9628 86.3387 60.9229 88.4396L46.8736 93.2321C45.8888 93.5603 44.8384 93.9542 43.8536 94.2825C43.6567 94.3481 43.5254 94.3481 43.1315 94.2825C40.965 94.1512 38.7985 93.2977 36.8946 92.1817C33.0212 89.8182 30.1326 86.0761 28.1631 82.0714C24.421 74.5872 23.1736 66.0526 22.714 57.7806C22.1888 48.7207 22.0575 39.5296 19.1032 30.8637C17.7902 26.9902 15.8207 22.7886 12.2755 20.3595C10.6342 19.2434 8.66472 18.5869 6.69519 18.7839C6.36694 18.7839 6.10433 18.8495 5.77608 18.9152C5.44782 18.9808 5.57912 19.506 5.90738 19.3747L6.10433 19.5717Z" fill="#0565AD"/>
<path d="M33.2185 73.6025L81.2094 57.3867L87.7745 68.0222L40.5058 84.9601L33.2185 73.6025Z" fill="white"/>
<path d="M33.2189 73.7992C38.6023 71.961 44.0513 70.1228 49.4347 68.3502C58.035 65.4616 66.7009 62.5073 75.3012 59.6186C77.2707 58.9621 79.2402 58.3056 81.2098 57.5834L80.9472 57.4521L87.5123 68.0876L87.6436 67.6937C82.3258 69.5976 77.0081 71.5014 71.6904 73.4053C63.2214 76.4253 54.7524 79.5109 46.2178 82.5308C44.2483 83.253 42.3444 83.9095 40.3749 84.6316L40.6375 84.7629C38.2084 80.9552 35.7793 77.1474 33.3502 73.4053C33.1533 73.1427 32.7593 73.4053 32.9563 73.6679C35.3854 77.4757 37.8145 81.2834 40.2436 85.0255C40.2436 85.0912 40.4405 85.1568 40.5062 85.1568C45.8239 83.253 51.1416 81.3491 56.4594 79.4452C64.9283 76.4253 73.3973 73.3397 81.9319 70.3197C83.9015 69.5976 85.8053 68.9411 87.7749 68.2189C87.9062 68.2189 88.0375 68.0219 87.9062 67.825C85.7397 64.2798 83.5076 60.7347 81.3411 57.1895C81.3411 57.1239 81.1441 57.0582 81.0785 57.0582C75.6951 58.8965 70.2461 60.7347 64.8627 62.5073C56.2624 65.3959 47.5965 68.3502 38.9962 71.2388C37.0267 71.8953 35.0571 72.5519 33.0876 73.274C32.7593 73.4053 32.8906 73.8649 33.2189 73.7336V73.7992Z" fill="#0565AD"/>
<path d="M51.7973 73.3401L51.6003 72.7492L73.3308 65.3307L73.5278 65.9215L51.7973 73.3401Z" fill="#0565AD"/>
<path d="M41.2931 24.1018L41.0962 23.5109L62.8267 16.0923L63.0236 16.6832L41.2931 24.1018Z" fill="#0565AD"/>
<path d="M41.8185 77.7384C43.0659 78.3949 44.3132 79.0514 45.5606 79.7736C45.5606 79.7736 45.5606 79.7736 45.495 79.7736C45.1667 79.9049 44.8385 80.0362 44.5102 80.1018C44.4446 80.1018 44.3789 80.1018 44.3132 80.1018C43.1315 79.4453 41.9498 78.8544 40.7681 78.1979C40.7681 78.1979 40.7024 78.1323 40.6368 78.0666C40.6368 77.9353 40.5711 77.804 40.5055 77.7384C40.5055 77.6071 40.5055 77.6071 40.6368 77.5414C40.8994 77.4758 41.162 77.3445 41.4246 77.2132C41.7529 77.0819 42.0811 76.8849 42.2781 76.6223C42.475 76.3597 42.6063 76.0314 42.5407 75.7032C42.5407 75.6375 42.5407 75.5719 42.4094 75.6375C41.6216 75.9001 40.8337 76.1627 40.0459 76.491C39.9803 76.491 39.9146 76.491 39.849 76.5567C39.9146 76.2941 39.9803 76.0314 40.1116 75.8345C40.1116 75.8345 40.1772 75.8345 40.2429 75.7688C40.8994 75.5719 41.4903 75.3093 42.1468 75.1123H42.2781C42.2781 75.1123 42.2781 75.1123 42.2124 75.0467C41.8842 74.7841 41.4903 74.8497 41.0964 74.9154C40.6368 75.0467 40.1772 75.178 39.652 75.3749C39.652 75.3749 39.5207 75.3749 39.4551 75.3749C39.5207 75.1123 39.5864 74.8497 39.7177 74.6528C39.7177 74.6528 39.7177 74.6528 39.7833 74.6528C41.2933 74.1276 42.7376 73.6024 44.2476 73.0771C44.2476 73.0771 44.2476 73.0771 44.2476 73.1428C44.2476 73.3398 44.1163 73.5367 44.0506 73.668C44.0506 73.7337 43.985 73.7993 43.9193 73.7993C43.5911 73.9306 43.1972 74.0619 42.8689 74.1932C42.9346 74.1932 43.0659 74.3245 43.1315 74.3902C43.2628 74.4558 43.3285 74.5871 43.3941 74.6528C43.3941 74.7184 43.4598 74.7184 43.5911 74.6528C43.985 74.5215 44.3789 74.3902 44.7728 74.1932C44.7728 74.3245 44.6415 74.5215 44.6415 74.6528C44.6415 74.9154 44.4446 75.0467 44.1819 75.1123C44.0506 75.1123 43.9193 75.178 43.788 75.2436C43.788 75.2436 43.7224 75.2436 43.7224 75.3749C43.788 76.0971 43.4598 76.6223 42.9346 77.1475C42.672 77.3445 42.4094 77.5414 42.0811 77.6727C42.0811 77.6727 42.0811 77.6727 42.0155 77.6727L41.8185 77.7384Z" fill="#0565AD"/>
<path d="M44.4447 80.2333C44.4447 80.2333 44.3791 80.2333 44.3134 80.2333C43.1317 79.5767 41.95 78.9859 40.7683 78.3294C40.7683 78.3294 40.637 78.2637 40.637 78.1324C40.637 78.0011 40.5713 77.8698 40.5057 77.8042C40.5057 77.8042 40.5057 77.6729 40.5057 77.6072C40.5057 77.5416 40.637 77.5416 40.7026 77.4759C41.0309 77.4103 41.2935 77.279 41.4905 77.2133C41.8844 77.0164 42.147 76.8851 42.2783 76.6225C42.4752 76.3598 42.6065 76.0972 42.5409 75.769C42.2126 75.9003 41.8187 76.0316 41.4905 76.1629C41.0309 76.2942 40.637 76.4912 40.1774 76.6225C40.1774 76.6225 40.1118 76.6225 40.0461 76.6225H39.7835V76.5568C39.8492 76.2942 39.9148 76.0316 40.0461 75.8346C40.0461 75.769 40.1774 75.7033 40.1774 75.7033C40.5057 75.572 40.8339 75.4407 41.1622 75.3751C41.4905 75.2438 41.8187 75.1781 42.147 75.0468C41.8844 74.8499 41.5561 74.7842 41.0966 74.9155C40.7683 74.9812 40.3744 75.1125 40.0461 75.2438L39.6522 75.3751C39.6522 75.3751 39.5866 75.3751 39.4553 75.3751H39.324V75.2438C39.3896 74.9812 39.4553 74.7186 39.5866 74.5216C39.5866 74.5216 39.6522 74.456 39.7179 74.3903C40.44 74.1277 41.1622 73.8651 41.95 73.6025C42.6722 73.3399 43.46 73.0773 44.1821 72.8147C44.1821 72.8147 44.2478 72.8803 44.1821 73.0116C44.1821 73.0773 44.1821 73.143 44.1165 73.2086C44.1165 73.3399 44.0508 73.4712 43.9852 73.5369C43.9852 73.6682 43.8539 73.7338 43.7882 73.7338C43.46 73.8651 43.1974 73.9308 42.8691 74.0621C42.8691 74.0621 42.9348 74.0621 43.0004 74.1277C43.1317 74.1934 43.1974 74.3247 43.263 74.456C43.263 74.456 43.263 74.456 43.3287 74.456C43.6569 74.3247 43.9195 74.259 44.2478 74.1277L44.6417 73.9964V74.259C44.6417 74.259 44.4447 74.5216 44.4447 74.5873C44.4447 74.8499 44.2478 75.0468 43.9195 75.1125C43.8539 75.1125 43.7882 75.1125 43.6569 75.1781H43.5256C43.5256 75.8346 43.3287 76.4912 42.6722 77.0164C42.4096 77.2133 42.147 77.4103 41.8187 77.5416C43.0004 78.1981 44.2478 78.8546 45.4295 79.5111V79.5767C45.4295 79.6424 45.3639 79.7081 45.2982 79.7081C45.1669 79.7081 44.97 79.8394 44.8387 79.905C44.6417 79.905 44.5104 80.0363 44.3134 80.102C44.3134 80.102 44.2478 80.102 44.1821 80.102L44.4447 80.2333ZM40.637 77.7385C40.637 77.8698 40.7026 77.9355 40.7683 78.0668C40.7683 78.0668 40.7683 78.0668 40.8339 78.1324C42.0157 78.7889 43.1974 79.3798 44.3791 80.0363C44.3791 80.0363 44.4448 80.0363 44.5104 80.0363C44.6417 80.0363 44.8387 79.905 44.97 79.8394C45.1013 79.8394 45.2326 79.7737 45.3639 79.7081C44.1821 79.0515 42.9348 78.395 41.7531 77.7385H41.6874L41.7531 77.6072C41.7531 77.6072 41.7531 77.6072 41.8844 77.6072C42.2126 77.4759 42.4752 77.279 42.7378 77.082C43.3287 76.5568 43.5913 76.0316 43.5256 75.3751C43.5256 75.2438 43.5913 75.1781 43.6569 75.1781H43.7882C43.7882 75.1781 43.9852 75.0468 44.0508 75.0468C44.3134 75.0468 44.3791 74.9155 44.4447 74.6529C44.4447 74.5216 44.4448 74.456 44.5104 74.3247H44.4447C44.4447 74.3247 43.7882 74.5873 43.5256 74.7186C43.46 74.7186 43.3287 74.7186 43.263 74.6529C43.263 74.5216 43.1317 74.456 43.0004 74.3903C42.9348 74.3903 42.8691 74.259 42.7378 74.259H42.6065L42.7378 74.1277C43.1317 73.9964 43.46 73.8651 43.7882 73.7338C43.8539 73.7338 43.8539 73.7338 43.9195 73.6025C43.9195 73.4712 43.9852 73.3399 44.0508 73.2086C44.0508 73.2086 44.0508 73.143 44.0508 73.0773L41.95 73.7995C41.2279 74.0621 40.44 74.3247 39.7179 74.5873C39.7179 74.5873 39.5866 74.9812 39.5209 75.1781C39.6522 75.1781 39.7835 75.1125 39.9148 75.0468C40.2431 74.9155 40.637 74.7842 40.9652 74.7186C41.2935 74.7186 41.7531 74.5873 42.147 74.9155C42.147 74.9155 42.2783 74.9155 42.2783 75.0468C42.2783 75.1781 42.147 75.1781 42.147 75.1781C41.8187 75.3094 41.4905 75.4407 41.1622 75.5064C40.8339 75.6377 40.5057 75.7033 40.1774 75.8346C40.1774 76.0316 40.0461 76.2285 39.9805 76.4255C39.9805 76.4255 39.9805 76.4255 40.0461 76.4255C40.44 76.2942 40.8996 76.0972 41.3592 75.9659C41.6874 75.8346 42.0813 75.7033 42.4096 75.572C42.4096 75.572 42.5409 75.572 42.6065 75.572C42.6065 75.572 42.6722 75.6377 42.6722 75.7033C42.6722 76.0316 42.6722 76.3599 42.4096 76.6881C42.2126 76.9507 41.95 77.1477 41.5561 77.3446C41.2935 77.4759 41.0309 77.5416 40.7683 77.6072C40.7683 77.6072 40.7683 77.6072 40.7026 77.6072L40.637 77.7385Z" fill="#0565AD"/>
<path d="M24.0933 44.9131L78.5836 27.1874C78.9118 30.273 79.5027 33.8181 80.5531 37.6915C81.6692 42.0245 83.1135 45.7666 84.4922 48.8522L26.7193 67.2345C26.7193 67.2345 24.0933 56.7303 24.0933 44.9131Z" fill="#DCEAC0"/>
<path d="M23.9615 45.1754C25.7341 44.5846 27.5723 43.9937 29.3449 43.4029L42.3438 39.1356C47.5958 37.4286 52.7823 35.7217 58.0343 34.0148L71.6897 29.5505L76.154 28.1062L77.5327 27.6466C77.5327 27.6466 78.1235 27.5153 78.2548 27.384C78.2548 27.384 78.3205 27.384 78.3862 27.384L78.0579 27.1214C78.9114 34.6713 80.9465 41.9586 84.0321 48.9176L84.1634 48.5236C82.2596 49.1145 80.3557 49.771 78.3862 50.3619L64.5994 54.7605L47.8584 60.0782L33.4809 64.6738L28.6884 66.1838L27.1784 66.6433C27.1784 66.6433 26.5219 66.7746 26.3906 66.9059C26.3906 66.9059 26.3249 66.9059 26.2593 66.9059L26.5875 67.1029C24.8149 59.8813 23.9615 52.2658 23.9615 44.8472C23.9615 44.5189 23.4363 44.5189 23.4363 44.8472C23.4363 52.3314 24.2897 59.9469 26.0623 67.2342C26.0623 67.3655 26.2593 67.4311 26.3906 67.4311C28.2945 66.8403 30.1983 66.1838 32.1679 65.5929C36.7634 64.1486 41.359 62.7043 45.9546 61.1943L62.6956 55.8766L77.0731 51.281L81.8656 49.771C82.5878 49.5741 83.4413 49.3771 84.0978 49.0489C84.0978 49.0489 84.1634 49.0489 84.2291 49.0489C84.3604 49.0489 84.426 48.8519 84.3604 48.6549C81.3404 41.8272 79.3053 34.54 78.5174 27.1214C78.5174 26.9901 78.3862 26.8588 78.1892 26.8588C76.4166 27.4497 74.5784 28.0405 72.8058 28.6314C68.4729 30.0757 64.1399 31.4544 59.8069 32.8987L44.1163 38.0195L30.4609 42.4838L25.9967 43.9281C25.3402 44.125 24.4867 44.322 23.8302 44.6502C23.8302 44.6502 23.7645 44.6502 23.6989 44.6502C23.3706 44.7159 23.5019 45.2411 23.8302 45.1098L23.9615 45.1754Z" fill="#0565AD"/>
<path d="M24.2245 50.6901C26.0627 50.0992 27.901 49.574 29.6735 48.9832L42.8037 44.8472L58.6913 39.8577C63.2869 38.4134 67.8824 36.9691 72.478 35.5247L77.0079 34.0804C77.7301 33.8835 78.5179 33.7522 79.1744 33.4239C79.1744 33.4239 79.24 33.4239 79.3057 33.4239C79.6339 33.3582 79.5026 32.833 79.1744 32.9643C77.3362 33.5552 75.4979 34.0804 73.7254 34.6713C69.3267 36.0499 64.9938 37.4286 60.5952 38.8073L44.7076 43.7968L30.9209 48.1297L26.391 49.574C25.6688 49.771 24.881 49.9023 24.2245 50.2305C24.2245 50.2305 24.1589 50.2305 24.0932 50.2305C23.765 50.2962 23.8963 50.8214 24.2245 50.6901Z" fill="#0565AD"/>
<path d="M24.8808 55.9422C26.719 55.3513 28.5572 54.8261 30.3954 54.2353C34.8597 52.8566 39.2583 51.4779 43.7226 50.0992C49.106 48.458 54.4237 46.751 59.8071 45.1098C64.4683 43.6655 69.1295 42.2211 73.7907 40.7768L78.3863 39.3325C79.1085 39.1355 79.8963 39.0042 80.5528 38.676H80.6184C80.9467 38.6103 80.8154 38.0851 80.4871 38.2164L74.9725 39.9233C70.5082 41.302 66.1096 42.6807 61.6453 44.0594C56.2619 45.7006 50.9442 47.4076 45.5608 49.0488L31.5772 53.3818L26.9816 54.8261C26.2594 55.0231 25.4716 55.1544 24.8151 55.4826H24.7495C24.4212 55.5483 24.5525 56.0735 24.8808 55.9422Z" fill="#0565AD"/>
<path d="M25.5368 61.1945C27.375 60.6037 29.2789 60.0128 31.1171 59.4219L44.5756 55.1546L60.857 49.9682C65.5839 48.4582 70.3107 46.9483 74.972 45.4383L79.5675 43.994C80.2897 43.797 81.1432 43.6001 81.7997 43.2718C81.7997 43.2718 81.7997 43.2718 81.8653 43.2718C82.1936 43.2061 82.0623 42.6809 81.734 42.8122C79.8958 43.4031 77.9919 43.994 76.1537 44.5848L62.6952 48.8521L46.4138 54.0386L32.2988 58.5685L27.7033 60.0128C26.9811 60.2098 26.1276 60.4067 25.4711 60.735C25.4711 60.735 25.4711 60.735 25.4055 60.735C25.0772 60.8006 25.2085 61.3258 25.5368 61.1945Z" fill="#0565AD"/>
<path d="M37.289 40.3828C37.4203 42.9432 37.6829 45.4379 37.8799 47.9983C38.2738 51.9374 38.6021 56.0077 39.5868 59.8811C39.7838 60.6689 40.0464 62.4415 41.0311 62.7041C41.3594 62.7698 41.4907 62.3102 41.1624 62.2446C40.4403 62.0476 40.1777 60.2094 40.0464 59.6185C39.6525 57.9116 39.3899 56.139 39.1273 54.4321C38.6021 50.6243 38.2738 46.7509 37.9456 42.9432C37.8799 42.0897 37.8142 41.2363 37.7486 40.3828C37.7486 40.0545 37.2234 40.0545 37.2234 40.3828H37.289Z" fill="#0565AD"/>
<path d="M30.001 32.1108C33.4455 32.1108 36.2378 29.6124 36.2378 26.5305C36.2378 23.4485 33.4455 20.9501 30.001 20.9501C26.5565 20.9501 23.7642 23.4485 23.7642 26.5305C23.7642 29.6124 26.5565 32.1108 30.001 32.1108Z" fill="#4776C4"/>
<path d="M30.001 32.1765C26.5215 32.1765 23.6985 29.6161 23.6985 26.5305C23.6985 23.4449 26.5215 20.8845 30.001 20.8845C33.4805 20.8845 36.3035 23.4449 36.3035 26.5305C36.3035 29.6161 33.4805 32.1765 30.001 32.1765ZM30.001 21.0158C26.5871 21.0158 23.8298 23.5106 23.8298 26.5305C23.8298 29.5505 26.5871 32.0452 30.001 32.0452C33.4148 32.0452 36.1722 29.5505 36.1722 26.5305C36.1722 23.5106 33.4148 21.0158 30.001 21.0158Z" fill="#0565AD"/>
</g>
<defs>
<clipPath id="clip0_434_9813">
<rect width="98.7391" height="101.168" fill="white" transform="translate(0.588867 0.92688)"/>
</clipPath>
</defs>
</svg>
