<svg width="600" height="600" viewBox="0 0 600 600" fill="none" xmlns="http://www.w3.org/2000/svg">
<g clip-path="url(#clip0_785_1476)">
<path d="M261.995 389.08H221.755C218.091 389.08 215.117 386.106 215.117 382.442V353.128C215.117 351.336 215.847 349.61 217.135 348.362L236.797 329.351C239.333 326.895 243.342 326.855 245.918 329.258L266.495 348.349C267.849 349.61 268.619 351.363 268.619 353.208V382.442C268.619 386.106 265.646 389.08 261.981 389.08H261.995Z" fill="#C5D8E3"/>
<path d="M325.147 389.08H284.908C281.243 389.08 278.27 386.106 278.27 382.442V325.249C278.27 323.457 279 321.731 280.287 320.483L299.949 301.471C302.485 299.015 306.494 298.976 309.07 301.379L329.648 320.469C331.002 321.731 331.772 323.483 331.772 325.328V382.442C331.772 386.106 328.798 389.08 325.134 389.08H325.147Z" fill="#C5D8E3"/>
<path d="M388.288 389.08H348.048C344.384 389.08 341.41 386.106 341.41 382.442V313.301C341.41 311.508 342.14 309.782 343.428 308.534L363.09 289.523C365.626 287.067 369.635 287.027 372.21 289.43L392.788 308.521C394.142 309.782 394.912 311.535 394.912 313.38V382.442C394.912 386.106 391.939 389.08 388.274 389.08H388.288Z" fill="url(#paint0_linear_785_1476)"/>
<path d="M383.972 265.241C383.893 271.866 379.777 277.973 373.471 280.217C367.165 282.46 359.89 280.482 355.628 275.225C351.366 269.968 351.008 262.613 354.446 256.957C357.885 251.302 364.669 248.288 371.134 249.616C378.582 251.142 383.879 257.674 383.972 265.241C383.999 267.804 387.982 267.804 387.955 265.241C387.849 256.931 382.738 249.523 374.945 246.575C367.152 243.628 358.057 246.084 352.827 252.443C347.596 258.803 346.614 268.295 351.021 275.544C355.429 282.792 363.806 286.324 371.984 284.757C381.251 282.978 387.849 274.561 387.968 265.241C387.995 262.679 384.012 262.679 383.986 265.241H383.972Z" fill="#221F20"/>
<path d="M208.425 336.454C217.068 328.263 225.724 320.071 234.367 311.88C248.001 298.962 261.636 286.045 275.27 273.141C278.297 270.273 281.297 267.366 284.364 264.525C288.546 260.661 295.038 260.157 299.552 263.808C303.455 266.967 306.19 271.056 311.314 272.464C316.744 273.964 322.413 272.304 326.436 268.454C327.724 267.22 329.011 265.958 330.299 264.71C336.207 258.988 342.115 253.253 348.009 247.531L382.554 214.036L383.231 213.385C385.076 211.593 382.261 208.779 380.416 210.571C370.406 220.276 360.396 229.994 350.386 239.698L330.83 258.657L324.909 264.392C323.037 266.211 321.218 267.87 318.603 268.614C315.204 269.583 311.474 268.919 308.619 266.821C306.933 265.587 305.473 263.927 303.973 262.493C299.22 257.953 292.821 255.895 286.502 258.497C282.333 260.21 278.987 264.153 275.761 267.206C262.738 279.54 249.714 291.873 236.69 304.22C226.494 313.871 216.311 323.523 206.115 333.175L205.598 333.666C203.739 335.432 206.553 338.246 208.412 336.48L208.425 336.454Z" fill="#221F20"/>
<path d="M361.14 214.182H382.183L380.192 212.191V232.237C380.192 234.8 384.174 234.8 384.174 232.237V212.191C384.174 211.115 383.258 210.199 382.183 210.199H361.14C358.578 210.199 358.578 214.182 361.14 214.182Z" fill="#221F20"/>
<path d="M370.407 257.634C370.885 258.271 371.19 258.949 371.35 259.692C371.39 259.865 371.522 259.798 371.615 259.798C372.332 259.798 373.049 259.798 373.766 259.798C374.297 259.798 374.443 259.944 374.443 260.489C374.443 260.913 374.443 261.338 374.443 261.763C374.443 262.161 374.284 262.321 373.872 262.321C373.142 262.321 372.412 262.321 371.695 262.321C371.496 262.321 371.416 262.36 371.376 262.56C370.872 265.016 369.305 266.463 366.969 267.18C366.438 267.339 365.893 267.432 365.322 267.538C365.761 268.016 366.185 268.467 366.597 268.932C368.031 270.552 369.438 272.198 370.792 273.884C371.257 274.468 371.735 275.039 372.213 275.61C372.345 275.769 372.399 275.942 372.306 276.141C372.213 276.34 372.053 276.433 371.828 276.433C370.885 276.433 369.929 276.433 368.987 276.433C368.721 276.433 368.575 276.287 368.429 276.128C367.871 275.464 367.327 274.787 366.77 274.136C365.853 273.061 364.924 271.986 363.995 270.91C363.052 269.822 362.083 268.746 361.101 267.697C360.941 267.538 360.875 267.366 360.875 267.127C360.888 266.569 360.875 266.011 360.875 265.467C360.875 265.056 361.048 264.883 361.459 264.87C362.362 264.87 363.278 264.923 364.181 264.803C365.296 264.671 366.345 264.392 367.155 263.529C367.433 263.237 367.593 262.892 367.752 262.533C367.818 262.374 367.779 262.321 367.606 262.321C367.048 262.321 366.491 262.321 365.946 262.321C364.486 262.321 363.012 262.321 361.552 262.321C361.008 262.321 360.888 262.188 360.888 261.644C360.888 261.219 360.888 260.794 360.888 260.369C360.888 259.997 361.048 259.838 361.406 259.811C361.552 259.811 361.685 259.811 361.831 259.811C363.636 259.811 365.442 259.811 367.247 259.811C367.34 259.811 367.486 259.865 367.526 259.772C367.579 259.665 367.46 259.573 367.394 259.493C366.876 258.776 366.119 258.457 365.283 258.285C364.048 258.033 362.8 258.125 361.552 258.112C361.008 258.112 360.888 257.979 360.888 257.435C360.888 256.864 360.888 256.28 360.888 255.709C360.888 255.311 361.048 255.152 361.459 255.152C365.601 255.152 369.743 255.152 373.872 255.152C374.217 255.152 374.403 255.298 374.417 255.656C374.43 256.161 374.43 256.665 374.417 257.17C374.417 257.528 374.217 257.674 373.806 257.674C372.77 257.674 371.748 257.674 370.713 257.674C370.633 257.674 370.54 257.674 370.407 257.674V257.634Z" fill="url(#paint1_linear_785_1476)"/>
</g>
<defs>
<linearGradient id="paint0_linear_785_1476" x1="341.423" y1="338.366" x2="394.926" y2="338.366" gradientUnits="userSpaceOnUse">
<stop stop-color="#9BCB9E"/>
<stop offset="1" stop-color="#78C1C4"/>
</linearGradient>
<linearGradient id="paint1_linear_785_1476" x1="360.862" y1="265.786" x2="374.443" y2="265.786" gradientUnits="userSpaceOnUse">
<stop stop-color="#9BCB9E"/>
<stop offset="1" stop-color="#78C1C4"/>
</linearGradient>
<clipPath id="clip0_785_1476">
<rect width="189.927" height="179.08" fill="white" transform="translate(205 210)"/>
</clipPath>
</defs>
</svg>
