<svg width="600" height="600" viewBox="0 0 600 600" fill="none" xmlns="http://www.w3.org/2000/svg">
<g clip-path="url(#clip0_785_1464)">
<path d="M346.902 280.33C367.943 280.33 385 263.273 385 242.232C385 221.192 367.943 204.135 346.902 204.135C325.862 204.135 308.805 221.192 308.805 242.232C308.805 263.273 325.862 280.33 346.902 280.33Z" fill="url(#paint0_linear_785_1464)"/>
<path d="M259.101 386.764C274.87 386.764 287.652 373.981 287.652 358.213C287.652 342.445 274.87 329.663 259.101 329.663C243.333 329.663 230.551 342.445 230.551 358.213C230.551 373.981 243.333 386.764 259.101 386.764Z" fill="#C5D8E3"/>
<path d="M352.161 248.776V334.354C352.161 335.071 352.131 335.788 352.161 336.505C352.28 339.105 353.969 341.361 356.583 341.898C357.524 342.093 358.54 342.018 359.496 342.018H370.283C371.329 342.018 376.334 341.42 375.348 343.512C375.019 344.229 374.198 344.931 373.705 345.529L369.626 350.564L341.897 384.777C338.117 389.438 334.337 394.1 330.557 398.776C329.646 399.911 328.735 401.047 327.808 402.167C327.061 403.064 326.284 403.452 325.388 402.406C318.396 394.204 311.792 385.628 304.995 377.247C296.613 366.893 288.232 356.555 279.835 346.201C279.163 345.38 278.252 344.528 277.729 343.602C276.653 341.704 280.044 342.018 281.18 342.018H292.101C292.953 342.018 293.819 342.063 294.686 342.018C297.405 341.884 299.736 340.046 300.124 337.282C300.542 334.249 300.154 330.962 300.124 327.929C300.079 321.087 300.034 314.229 299.99 307.387L299.721 267.317C299.721 266.331 299.556 265.225 299.706 264.239C299.975 262.402 303.874 263.149 305.174 263.149H315.692C317.006 263.149 318.276 263.134 319.472 262.476C321.728 261.236 322.848 258.457 322.071 256.007C321.668 254.722 320.652 253.662 319.815 252.631L316.14 248.104C312.002 242.994 307.863 237.885 303.725 232.775C294.82 221.779 285.901 210.783 276.997 199.802C274.845 197.083 272.455 192.75 268.481 193.064C265 193.333 262.579 197.666 260.607 200.101C251.643 211.172 242.679 222.228 233.7 233.298L221.434 248.433L217.908 252.795C216.967 253.96 215.951 255.081 215.652 256.62C215.144 259.204 216.668 261.879 219.133 262.79C220.209 263.194 221.315 263.149 222.435 263.149H233.013C234.327 263.149 238.466 262.387 238.824 264.18C238.974 264.912 238.824 265.823 238.824 266.57V351.893C238.824 354.777 243.306 354.777 243.306 351.893V266.316C243.306 265.599 243.336 264.882 243.306 264.165C243.187 261.565 241.499 259.309 238.884 258.771C237.943 258.577 236.927 258.652 235.971 258.652H225.184C224.138 258.652 219.133 259.249 220.119 257.158C220.448 256.441 221.27 255.738 221.763 255.141L225.841 250.106C235.089 238.707 244.322 227.292 253.57 215.893L264.91 201.894C265.821 200.758 266.733 199.623 267.659 198.502C268.406 197.606 269.183 197.218 270.079 198.263C277.071 206.466 283.675 215.041 290.473 223.423C298.854 233.776 307.236 244.115 315.632 254.468C316.304 255.29 317.216 256.142 317.739 257.068C318.814 258.965 315.423 258.652 314.287 258.652H303.366C302.514 258.652 301.648 258.607 300.781 258.652C298.062 258.786 295.732 260.624 295.343 263.388C294.925 266.421 295.313 269.707 295.343 272.74C295.388 279.583 295.433 286.44 295.478 293.283L295.747 333.353C295.747 334.339 295.911 335.444 295.762 336.43C295.493 338.268 291.593 337.521 290.293 337.521H279.776C278.461 337.521 277.191 337.536 275.996 338.193C273.74 339.433 272.619 342.212 273.396 344.662C273.799 345.947 274.815 347.008 275.652 348.039L279.327 352.566L291.743 367.894C300.647 378.89 309.566 389.886 318.471 400.867C320.637 403.542 323.027 407.889 327.001 407.576C330.483 407.307 332.903 402.974 334.875 400.539C343.839 389.468 352.803 378.412 361.782 367.342L374.048 352.207L377.574 347.845C378.515 346.679 379.531 345.559 379.83 344.02C380.338 341.435 378.814 338.761 376.349 337.85C375.273 337.446 374.168 337.491 373.047 337.491H362.47C361.155 337.491 357.016 338.253 356.658 336.46C356.508 335.728 356.658 334.817 356.658 334.07V248.746C356.658 245.863 352.176 245.863 352.176 248.746L352.161 248.776Z" fill="#221F20"/>
</g>
<defs>
<linearGradient id="paint0_linear_785_1464" x1="308.82" y1="242.232" x2="385" y2="242.232" gradientUnits="userSpaceOnUse">
<stop stop-color="#9BCB9E"/>
<stop offset="1" stop-color="#78C1C4"/>
</linearGradient>
<clipPath id="clip0_785_1464">
<rect width="169.437" height="214.571" fill="white" transform="translate(215.562 193.049)"/>
</clipPath>
</defs>
</svg>
