<svg width="600" height="600" viewBox="0 0 600 600" fill="none" xmlns="http://www.w3.org/2000/svg">
<g clip-path="url(#clip0_785_2053)">
<path d="M207.926 384.574H368.778C376.186 384.574 383.647 384.84 391.055 384.574C391.161 384.574 391.267 384.574 391.373 384.574C393.936 384.574 393.936 380.592 391.373 380.592H230.521C223.113 380.592 215.652 380.326 208.244 380.592C208.138 380.592 208.032 380.592 207.926 380.592C205.363 380.592 205.363 384.574 207.926 384.574Z" fill="#221F20"/>
<path d="M241.235 318.354H227.096C225.263 318.354 223.777 319.839 223.777 321.673V377.365C223.777 379.198 225.263 380.684 227.096 380.684H241.235C243.068 380.684 244.554 379.198 244.554 377.365V321.673C244.554 319.839 243.068 318.354 241.235 318.354Z" fill="#C5D8E3"/>
<path d="M287.132 379.171H266.355L268.346 381.162V277.994L266.355 279.986H287.132L285.14 277.994V381.162C285.14 383.724 289.123 383.724 289.123 381.162V277.994C289.123 276.919 288.207 276.003 287.132 276.003H266.355C265.279 276.003 264.363 276.919 264.363 277.994V381.162C264.363 382.238 265.279 383.154 266.355 383.154H287.132C289.694 383.154 289.694 379.171 287.132 379.171Z" fill="#221F20"/>
<path d="M326.388 318.354H312.249C310.416 318.354 308.93 319.839 308.93 321.673V377.365C308.93 379.198 310.416 380.684 312.249 380.684H326.388C328.221 380.684 329.707 379.198 329.707 377.365V321.673C329.707 319.839 328.221 318.354 326.388 318.354Z" fill="url(#paint0_linear_785_2053)"/>
<path d="M372.271 379.171H351.494L353.485 381.163V262.223C353.485 260.656 353.724 258.891 353.485 257.337C353.485 257.271 353.485 257.191 353.485 257.125L351.494 259.116H372.271L370.28 257.125V365.895C370.28 370.9 370.054 375.958 370.28 380.963C370.28 381.03 370.28 381.109 370.28 381.176C370.28 383.738 374.262 383.738 374.262 381.176V272.392C374.262 267.387 374.488 262.329 374.262 257.324C374.262 257.258 374.262 257.178 374.262 257.112C374.262 256.036 373.346 255.12 372.271 255.12H351.494C350.419 255.12 349.503 256.036 349.503 257.112V365.882C349.503 370.887 349.277 375.945 349.503 380.95C349.503 381.016 349.503 381.096 349.503 381.163C349.503 382.238 350.419 383.154 351.494 383.154H372.271C374.833 383.154 374.833 379.171 372.271 379.171Z" fill="#221F20"/>
<path d="M223.803 290.899C229.126 285.482 234.437 280.066 239.761 274.636C248.244 265.993 256.714 257.364 265.197 248.721C267.149 246.743 269.087 244.751 271.039 242.773H268.224C280.956 252.903 293.688 263.032 306.406 273.162C308.225 274.609 310.057 276.069 311.876 277.517C312.726 278.194 313.854 278.34 314.69 277.517C320.983 271.396 327.276 265.289 333.569 259.169C343.566 249.464 353.549 239.746 363.546 230.042C365.856 227.798 368.166 225.554 370.463 223.311C372.308 221.518 369.48 218.704 367.648 220.496C361.356 226.616 355.063 232.723 348.77 238.844C338.773 248.548 328.789 258.266 318.793 267.971C316.483 270.215 314.173 272.458 311.876 274.702H314.69C301.959 264.572 289.227 254.443 276.509 244.313C274.69 242.866 272.858 241.406 271.039 239.959C270.202 239.295 269.047 239.122 268.224 239.959C262.901 245.375 257.59 250.792 252.267 256.222C243.783 264.865 235.313 273.494 226.83 282.137C224.878 284.115 222.94 286.106 220.988 288.084C219.196 289.916 222.011 292.731 223.803 290.899Z" fill="#221F20"/>
<path d="M271.358 253.673C277.202 253.673 281.939 248.936 281.939 243.092C281.939 237.248 277.202 232.511 271.358 232.511C265.515 232.511 260.777 237.248 260.777 243.092C260.777 248.936 265.515 253.673 271.358 253.673Z" fill="url(#paint1_linear_785_2053)"/>
<path d="M366.202 236.162C372.046 236.162 376.783 231.425 376.783 225.581C376.783 219.737 372.046 215 366.202 215C360.358 215 355.621 219.737 355.621 225.581C355.621 231.425 360.358 236.162 366.202 236.162Z" fill="url(#paint2_linear_785_2053)"/>
<path d="M224.944 300.484C230.788 300.484 235.525 295.747 235.525 289.903C235.525 284.06 230.788 279.322 224.944 279.322C219.101 279.322 214.363 284.06 214.363 289.903C214.363 295.747 219.101 300.484 224.944 300.484Z" fill="url(#paint3_linear_785_2053)"/>
<path d="M315.038 286.757C320.882 286.757 325.619 282.019 325.619 276.176C325.619 270.332 320.882 265.595 315.038 265.595C309.194 265.595 304.457 270.332 304.457 276.176C304.457 282.019 309.194 286.757 315.038 286.757Z" fill="url(#paint4_linear_785_2053)"/>
</g>
<defs>
<linearGradient id="paint0_linear_785_2053" x1="308.93" y1="349.512" x2="329.707" y2="349.512" gradientUnits="userSpaceOnUse">
<stop stop-color="#9BCB9E"/>
<stop offset="1" stop-color="#78C1C4"/>
</linearGradient>
<linearGradient id="paint1_linear_785_2053" x1="260.777" y1="243.092" x2="281.939" y2="243.092" gradientUnits="userSpaceOnUse">
<stop stop-color="#9BCB9E"/>
<stop offset="1" stop-color="#78C1C4"/>
</linearGradient>
<linearGradient id="paint2_linear_785_2053" x1="355.621" y1="225.581" x2="376.783" y2="225.581" gradientUnits="userSpaceOnUse">
<stop stop-color="#9BCB9E"/>
<stop offset="1" stop-color="#78C1C4"/>
</linearGradient>
<linearGradient id="paint3_linear_785_2053" x1="214.363" y1="289.903" x2="235.539" y2="289.903" gradientUnits="userSpaceOnUse">
<stop stop-color="#9BCB9E"/>
<stop offset="1" stop-color="#78C1C4"/>
</linearGradient>
<linearGradient id="paint4_linear_785_2053" x1="304.457" y1="276.176" x2="325.619" y2="276.176" gradientUnits="userSpaceOnUse">
<stop stop-color="#9BCB9E"/>
<stop offset="1" stop-color="#78C1C4"/>
</linearGradient>
<clipPath id="clip0_785_2053">
<rect width="187.298" height="169.694" fill="white" transform="translate(206 215)"/>
</clipPath>
</defs>
</svg>
