<svg width="103" height="103" viewBox="0 0 103 103" fill="none" xmlns="http://www.w3.org/2000/svg">
<g clip-path="url(#clip0_434_9839)">
<path d="M44.7857 49.8156C44.7857 49.8156 -1.1462 65.1485 0.661617 65.8181C2.46943 66.4876 35.9475 102.979 35.9475 102.979L99.5559 79.745L44.7857 49.8156Z" fill="#223838"/>
<path d="M13.4501 50.485C13.4501 50.485 18.3379 48.0746 10.1023 40.2407C1.2641 31.7372 2.53627 19.6851 6.48669 18.6808C10.4371 17.6764 27.0422 11.9182 27.0422 11.9182L37.0857 42.7181L13.4501 50.485Z" fill="#4776C4"/>
<path d="M13.5167 50.8195C15.3245 49.8821 15.2576 47.4716 14.588 45.8647C13.4497 43.0525 10.9724 41.1108 9.03064 38.9013C6.88804 36.5578 5.28109 33.7456 4.41066 30.7326C3.7411 28.3891 3.40632 25.9118 3.80805 23.5013C4.00892 22.0283 4.54457 20.0196 6.01761 19.2831C6.55326 19.0153 7.22282 18.9483 7.82543 18.7474C8.69586 18.4796 9.49933 18.2118 10.3698 17.944C12.5793 17.2744 14.7219 16.5379 16.9315 15.8014C20.3462 14.6631 23.694 13.5249 27.0419 12.3196L26.7071 12.1188C27.8453 15.6005 28.9836 19.0822 30.1218 22.497C31.9297 28.0544 33.7375 33.5448 35.5453 39.1021L36.8175 42.9186L37.0183 42.5838C30.1218 44.8604 23.2253 47.1369 16.3289 49.4134L13.3828 50.3508C13.3828 50.3508 13.1819 50.9534 13.5167 50.8195C20.4132 48.5429 27.3097 46.2664 34.2062 43.9899C35.2105 43.6551 36.1479 43.3204 37.1522 43.0525C37.2861 43.0525 37.3531 42.8517 37.3531 42.7178L33.9383 32.3395C32.1305 26.7822 30.3227 21.2918 28.5149 15.7344L27.2427 11.9179C27.2427 11.9179 27.0419 11.717 26.9079 11.717C24.0958 12.7214 21.2167 13.6588 18.3376 14.6631C14.4541 16.0022 10.5037 17.4083 6.55326 18.4127C3.20545 19.2831 2.93762 24.1709 3.20545 26.9161C3.40632 29.5274 4.20979 32.0717 5.415 34.4152C6.08457 35.7543 6.955 37.0934 7.95934 38.2317C9.09759 39.6378 10.4367 40.776 11.6419 42.1152C13.048 43.7221 15.1237 46.1995 14.588 48.5429C14.4541 49.2125 13.9854 49.8821 13.3828 50.2169C13.115 50.3508 13.3828 50.8195 13.6506 50.6186L13.5167 50.8195Z" fill="#0565AD"/>
<path d="M6.48657 18.6807C6.48657 18.6807 22.0204 13.659 23.2926 54.971C24.5647 96.283 45.0533 95.5464 45.0533 95.5464L102.636 75.7944C102.636 75.7944 84.6244 56.1762 82.8836 20.9572C81.2766 -9.50782 53.155 2.54429 53.155 2.54429L6.48657 18.6807Z" fill="#E9EFF8"/>
<path d="M6.0179 19.0155C7.29006 18.6138 8.83006 18.8816 10.1022 19.2833C13.9857 20.6894 16.3961 24.5729 17.9361 28.1885C21.8865 37.3615 22.0874 47.6058 22.5561 57.4483C23.0248 66.4874 24.3639 76.0622 28.716 84.1639C30.9926 88.3151 34.2065 92.1986 38.4916 94.3412C39.6969 94.9438 41.036 95.4125 42.3751 95.6803C42.9777 95.8142 43.7142 95.9482 44.3838 95.9482C44.9194 95.9482 45.4551 95.6134 45.9238 95.4795L51.2803 93.6716C57.3733 91.596 63.4663 89.5204 69.5593 87.3778L89.5792 80.4813C93.5966 79.1422 97.547 77.7361 101.564 76.3969L102.167 76.1961C102.167 76.1961 102.435 75.9283 102.301 75.7943C100.627 73.9196 99.154 71.8439 97.8148 69.7683C94.1992 64.2779 91.2531 58.3188 88.9766 52.0919C85.5618 42.9189 83.4862 33.2772 82.7497 23.5016C82.4149 19.3503 82.214 15.2659 80.808 11.3155C79.8036 8.63728 78.3306 6.1599 76.2549 4.28513C72.7732 0.937321 68.0863 -0.133978 63.5333 -6.52056e-05C60.1855 0.133847 56.7707 0.803409 53.6237 1.94166C53.289 2.07558 53.0211 2.14253 52.6864 2.27645C52.4855 2.3434 52.6194 2.27645 52.4185 2.41036C51.4142 2.74514 50.3429 3.14688 49.3386 3.48166L34.7421 8.50337C28.9169 10.5121 23.0917 12.5207 17.1996 14.5294L6.35268 18.279L5.81703 18.4798C5.81703 18.4798 5.61616 19.0824 5.95094 18.9485C8.49528 18.0781 11.1066 17.2077 13.6509 16.2703C19.2083 14.3286 24.6987 12.4538 30.256 10.5121L46.3925 4.95469L51.2803 3.28079C51.682 3.14688 52.4185 2.87905 52.6864 2.81209C55.0968 1.87471 57.5742 1.20515 60.1185 0.803409C64.4706 0.133847 69.2245 0.401672 73.108 2.61123C78.7993 5.82512 81.0088 12.3199 81.6784 18.4129C81.9462 20.8903 82.0132 23.4346 82.281 25.9789C82.5488 28.5233 82.8836 31.0676 83.2853 33.6119C84.0888 38.2989 85.1601 42.9189 86.6331 47.4049C88.7757 54.2345 91.7218 60.8631 95.4044 67.0231C97.2122 70.0361 99.1539 72.9822 101.43 75.6604C101.564 75.7943 101.631 75.9283 101.765 75.9952L101.899 75.5935C99.087 76.5978 96.2079 77.5352 93.3957 78.5395L74.3802 85.0343C67.8854 87.2439 61.3907 89.5204 54.829 91.7299C51.4142 92.9351 47.9325 94.2743 44.4507 95.2786C44.2499 95.3456 44.4507 95.2786 44.2499 95.2786C43.9821 95.2786 43.7142 95.2786 43.5134 95.2786C42.4421 95.1447 41.3708 94.8769 40.3664 94.5421C36.349 93.069 33.0682 90.056 30.6578 86.5073C25.9039 79.4769 24.0961 70.7057 23.2926 62.4031C22.69 56.2431 22.7569 50.0162 22.0204 43.7893C21.4848 39.4371 20.7483 35.018 19.3422 30.7998C17.9361 26.5815 15.7265 21.7607 11.6422 19.3503C9.96831 18.4129 7.89267 17.8772 6.0179 18.279C5.95094 18.279 5.81703 18.279 5.75007 18.3459C5.41529 18.4129 5.5492 18.9485 5.88398 18.8146L6.0179 19.0155Z" fill="#0565AD"/>
<path d="M29.3193 40.8432C34.4749 39.0354 39.5636 37.2276 44.7192 35.4198C52.8878 32.5407 61.1235 29.6616 69.2921 26.8494C71.1669 26.1798 73.0417 25.5103 74.9164 24.9077C75.7869 24.6398 76.3225 23.7694 76.0547 22.832C75.8538 22.0285 74.8495 21.359 73.979 21.6938C68.8234 23.5016 63.7347 25.3094 58.5791 27.1172C50.4105 29.9963 42.1749 32.8754 34.0062 35.6876C32.1314 36.3572 30.2566 37.0267 28.3819 37.6293C27.5114 37.8972 26.9758 38.7676 27.2436 39.705C27.4445 40.5085 28.4488 41.178 29.3193 40.8432Z" fill="#0565AD"/>
<path d="M31.3945 52.293C36.5501 50.4852 41.6388 48.6774 46.7944 46.8696C54.963 43.9904 63.1986 41.1113 71.3673 38.2992C73.2421 37.6296 75.1168 36.96 76.9916 36.3574C77.862 36.0896 78.3977 35.2192 78.1299 34.2818C77.929 33.4783 76.9247 32.8088 76.0542 33.1435C70.8986 34.9514 65.8099 36.7592 60.6543 38.567L36.0814 47.1374C34.2066 47.8069 32.3318 48.4765 30.4571 49.0791C29.5866 49.3469 29.051 50.2174 29.3188 51.1547C29.5197 51.9582 30.524 52.6278 31.3945 52.293Z" fill="#0565AD"/>
<path d="M33.4706 63.0059C38.6263 61.1981 43.7149 59.3903 48.8705 57.5824C57.0392 54.7033 65.2748 51.8242 73.4435 49.0121C75.3182 48.3425 77.193 47.6729 79.0678 47.0703C79.9382 46.8025 80.4739 45.9321 80.206 44.9947C80.0052 44.1912 79.0008 43.5216 78.1304 43.8564C72.9748 45.6642 67.8861 47.4721 62.7305 49.2799C54.5618 52.159 46.3262 55.0381 38.1576 57.8503C36.2828 58.5198 34.408 59.1894 32.5332 59.792C31.6628 60.0598 31.1272 60.9303 31.395 61.8676C31.5959 62.6711 32.6002 63.3407 33.4706 63.0059Z" fill="#0565AD"/>
<path d="M36.1484 73.7188C41.304 71.911 46.3927 70.1032 51.5483 68.2953C59.7169 65.4162 67.9526 62.5371 76.1212 59.7249C77.996 59.0554 79.8708 58.3858 81.7455 57.7832C82.616 57.5154 83.1516 56.645 82.8838 55.7076C82.6829 54.9041 81.6786 54.2345 80.8081 54.5693C75.6525 56.3771 70.5638 58.185 65.4082 59.9928C57.2396 62.8719 49.004 65.751 40.8353 68.5632C38.9605 69.2327 37.0857 69.9023 35.211 70.5049C34.3405 70.7727 33.8049 71.6432 34.0727 72.5805C34.2736 73.384 35.2779 74.0536 36.1484 73.7188Z" fill="#0565AD"/>
</g>
<defs>
<clipPath id="clip0_434_9839">
<rect width="101.974" height="102.979" fill="white" transform="translate(0.662109)"/>
</clipPath>
</defs>
</svg>
