<svg width="211" height="197" viewBox="0 0 211 197" fill="none" xmlns="http://www.w3.org/2000/svg">
<path d="M108.577 111.693L94.3116 100.528C92.5993 99.1969 87.7785 95.6893 85.628 94.0154L71.0521 82.5407C70.1151 81.8079 69.0632 81.8003 67.9508 82.2306L45.9319 90.9141C43.4983 91.8687 39.5809 93.3019 38.4889 93.7053L16.1598 101.769C13.6722 102.676 13.1396 106.041 15.2294 107.661L52.1344 136.193C53.0512 136.905 54.1436 136.906 55.2357 136.503L107.647 117.585C110.135 116.677 110.667 113.313 108.577 111.693Z" fill="#2A4850"/>
<path d="M75.394 2.52816C74.3144 1.26964 72.6852 0.701594 71.0523 0.977526L43.7611 5.62942L16.1599 9.66106C13.6161 10.0312 11.6972 12.106 11.1979 14.6231L6.546 37.8825L0.963726 63.9332C0.626349 65.5618 1.12462 67.0164 2.20423 68.2749L18.0207 86.8825L33.527 105.18C34.9979 106.896 37.4893 107.687 39.7295 107.351L67.6409 103.009L94.6218 98.9774C97.1994 98.5938 99.4284 96.5728 99.894 94.0154L104.236 70.1357L109.198 41.9142L91.5206 21.4459L75.394 2.52816Z" fill="#2B63A8"/>
<path d="M94.9324 94.0155L83.4577 80.3699C82.0484 78.7139 78.0847 74.0783 76.3248 71.9965L64.2299 58.0408C63.4611 57.1284 62.3019 56.5976 61.1286 56.8003L37.8691 60.832C35.2933 61.2781 31.269 61.8967 30.116 62.0725L6.54638 65.794C3.93008 66.186 2.96615 69.0519 4.68562 71.0661L34.7679 106.731C35.5231 107.616 36.7228 108.14 37.8691 107.971L93.0716 99.5978C95.6879 99.2057 96.6518 96.0297 94.9324 94.0155Z" fill="#57ABAF"/>
<path d="M94.9322 93.7053C90.1178 88.065 85.4674 82.6123 80.6664 76.9585C75.32 70.6645 69.9131 64.3078 64.5398 58.0408C63.5029 56.8345 62.0569 56.2206 60.5082 56.4901L56.1664 57.4205L41.9006 59.9015C34.945 61.0943 28.098 61.9583 21.1222 63.0028L8.09686 65.1737C6.82424 65.3623 5.33823 65.4168 4.37535 66.4142C2.98152 67.8495 3.14312 69.9004 4.37535 71.3762C8.94062 76.8143 13.7186 82.0983 18.331 87.5027L33.8373 106.11C34.5444 106.939 35.1871 107.688 36.3183 107.971C37.1264 108.173 37.9981 107.776 38.7994 107.661L47.1728 106.42L76.0145 102.389L88.1094 100.528C89.7928 100.279 91.4016 99.9616 93.0714 99.5977C95.7783 99.0114 96.6021 95.7808 94.9322 93.7053C94.7302 93.4492 94.4201 93.7661 94.6221 94.0154C96.2516 96.037 94.8887 98.9034 92.4512 99.2875C91.7442 99.3954 90.9873 99.4898 90.2803 99.5977L80.6664 101.148L52.4449 105.18L41.5905 107.041L38.4892 107.351C37.1627 107.546 36.0879 107.532 35.0778 106.42C33.7985 105.012 32.5886 103.528 31.3563 102.079L22.9829 92.1546L6.2361 72.6167C5.73783 72.0372 5.17028 71.6591 4.68547 71.0661C3.08964 69.132 4.04139 66.2387 6.54623 65.7939C9.65708 65.2413 12.7324 65.0184 15.85 64.5534C23.3578 63.428 31.0084 62.119 38.4892 60.8319C45.9701 59.5448 53.324 58.3233 60.8183 57.1104C62.5084 56.8341 63.5568 57.8121 64.5398 58.9711L68.5715 63.3129C71.0292 66.2106 73.2467 69.0988 75.7044 71.9964C81.2864 78.5802 86.849 85.281 92.4512 91.8445L94.6221 94.0154C94.8308 94.2647 95.1409 93.9479 94.9322 93.7053Z" fill="#2B63A8"/>
<path d="M197.894 171.237L183.628 160.072C181.916 158.741 177.095 155.234 174.944 153.56L160.369 142.085C159.431 141.352 158.38 141.345 157.267 141.775L135.248 150.458C132.815 151.413 128.897 152.846 127.805 153.25L105.476 161.313C102.989 162.22 102.456 165.585 104.546 167.205L141.451 195.737C142.368 196.449 143.46 196.45 144.552 196.047L196.963 177.129C199.451 176.222 199.984 172.857 197.894 171.237Z" fill="#2A4850"/>
<path d="M69.5017 1.28779L46.2422 5.31943C44.867 5.55585 41.4149 6.22219 39.1093 6.55993L14.6094 9.97132C13.2004 10.1807 12.0946 11.3642 11.8182 12.7625L7.47646 33.5409C7.02479 35.8308 6.51235 38.9587 6.23596 40.3637L1.89419 61.7624C1.43578 64.0523 3.31015 66.125 5.61571 65.794L30.4258 62.0725C31.8348 61.8631 35.2262 61.2373 37.5587 60.832L61.1283 57.1105C62.5035 56.8741 63.3396 55.6906 63.6093 54.3194L67.9511 32.9207C68.4162 30.597 69.232 27.4759 69.5017 26.0979L73.5333 5.31943C73.9918 2.99575 71.8342 0.889249 69.5017 1.28779Z" fill="white"/>
<path d="M69.1916 0.977519L47.1726 4.69903C39.6341 5.99389 32.0989 7.0044 24.5334 8.11042C21.1815 8.60274 17.631 9.08781 14.2993 9.66105C12.4954 9.97128 11.5413 11.3662 11.198 13.0724L10.2676 18.0345C8.71953 25.8306 7.17054 33.4978 5.61572 41.2939L3.13471 54.3192L1.89421 60.2116C1.60478 61.6751 1.24183 62.9012 2.20434 64.2433C3.26781 65.7202 4.92397 66.0299 6.5461 65.7939L11.5081 64.8635L25.7739 63.0028C32.7201 61.9912 39.6398 60.7783 46.5524 59.5914L59.5777 57.1104C60.9844 56.8676 62.4107 56.8613 63.2992 55.5597C63.9655 54.5751 64.0007 52.978 64.2296 51.8382C65.9392 43.2463 67.482 34.6897 69.1916 26.0977C70.5714 19.1649 72.2747 12.2724 73.5334 5.31929C73.9978 2.75655 71.7628 0.626828 69.1916 0.977519C68.8685 1.02473 69.1854 1.64498 69.5017 1.59777C71.6489 1.30103 73.2631 3.18817 72.9131 5.31929C72.866 5.60254 72.967 5.65629 72.9131 5.93954L71.6726 11.2117L69.1916 24.237C67.7041 31.7364 66.3373 39.3836 64.8498 46.8762L63.6093 52.4585C63.2728 54.158 62.8374 55.9843 60.8182 56.4901C59.9297 56.7127 59.2391 56.9552 58.3372 57.1104L51.8245 58.0407C44.36 59.3221 36.9869 60.663 29.4954 61.7623L6.23598 65.1736C5.95328 65.2141 5.58829 65.4635 5.3056 65.4838C3.23923 65.6389 1.87452 63.772 2.20434 61.7623C2.37261 60.7506 2.62266 59.6659 2.82459 58.661L5.3056 45.0154C6.70561 37.9949 8.25408 30.9542 9.64736 23.9269C10.381 20.2244 11.0577 16.4581 11.8182 12.7623C12.175 11.0358 13.2907 10.2072 14.9195 9.97118L19.5714 9.35093C27.8369 8.14374 36.1362 7.2344 44.3815 5.93954C51.9604 4.74584 59.462 3.20275 67.0207 1.9079L69.5017 1.59777C69.8181 1.54382 69.5079 0.923566 69.1916 0.977519Z" fill="#2B63A8"/>
<path d="M107.957 40.6738L78.1852 5.93963C76.3389 3.77592 72.7914 4.69294 72.2928 7.49026L68.8814 27.3383C68.6995 28.3359 68.1801 30.514 67.951 31.6801L63.2991 54.9396C63.097 55.9507 63.5624 56.9488 64.2295 57.7307L76.3244 71.9965C77.8068 73.7288 81.2736 77.9769 82.527 79.4396L94.3118 93.0851C96.158 95.2488 99.7055 94.3318 100.204 91.5345L108.888 43.4649C109.07 42.4673 108.611 41.4422 107.957 40.6738Z" fill="#57ABAF"/>
<path d="M107.957 40.6737L96.7929 27.0281L80.3562 8.11042C78.9784 6.48387 77.5439 4.0312 75.084 4.38891C73.2761 4.65212 72.2852 6.10625 71.9828 7.8003L71.0524 12.4522C69.8225 19.3026 68.6885 26.0971 67.3309 32.9205C65.8859 40.1961 64.34 47.3335 62.9891 54.6294C62.7136 56.1007 63.3089 57.271 64.2296 58.3509L67.641 62.3825L75.3942 71.6863C80.3879 77.5513 85.5967 83.4985 90.5904 89.3635L93.6916 93.085C94.8207 94.4078 96.3128 95.0274 98.0334 94.3255C100.285 93.4076 100.455 90.8017 100.825 88.7432L105.166 64.5534L108.888 44.0851C109.123 42.7892 108.811 41.767 107.957 40.6737C107.756 40.4172 107.446 40.7273 107.647 40.9838C108.998 42.7048 107.997 45.5459 107.647 47.4964L105.787 58.3509L101.135 84.0913L99.8941 91.2243C99.6186 92.7563 98.7698 93.8669 97.103 94.0154C95.4362 94.1639 94.3359 92.9716 93.3815 91.8445C88.3475 85.9255 83.2193 80.0931 78.1853 74.1673C73.5814 68.7545 69.1369 63.4536 64.5398 58.0407C64.076 57.4941 63.7371 56.9156 63.6094 56.18C63.5153 55.6198 63.5018 55.1693 63.6094 54.6294L64.5398 50.2876L67.0208 37.2623C68.2171 31.242 69.3501 25.3222 70.4321 19.275L72.603 8.11042C72.6904 7.63798 72.6914 6.99849 72.9132 6.55979C73.5718 5.22345 75.2165 4.57046 76.6347 5.00916C77.5487 5.28588 77.9174 5.87138 78.4954 6.55979L92.4511 22.9965L106.717 40.0534L107.647 40.9838C107.856 41.2335 108.166 40.9166 107.957 40.6737Z" fill="#2B63A8"/>
<path d="M129.977 57.1105C128.332 56.9014 126.969 57.6626 125.945 58.9713L108.888 80.6801L90.9007 102.079C89.2699 104.062 89.2698 107.013 90.5906 109.212L102.685 129.68L116.331 152.629C117.173 154.066 118.402 154.901 120.053 155.11L144.242 158.212L168.122 161.313C170.366 161.603 172.579 160.586 174.015 158.832L192.002 137.123L209.369 115.724C211.013 113.714 211.06 111.108 209.679 108.902L196.654 88.1231L181.458 63.6232L154.787 60.2118L129.977 57.1105Z" fill="#2B63A8"/>
<path d="M205.957 111.693L187.97 109.212C185.818 108.934 179.806 108.33 177.116 107.971L159.128 105.49C157.951 105.335 156.76 105.79 156.027 106.731L141.451 125.338C139.844 127.402 137.222 130.634 136.489 131.541L121.293 150.148C119.618 152.206 120.848 155.392 123.464 155.731L169.673 161.623C170.823 161.772 172.041 161.283 172.774 160.383L208.128 117.275C209.803 115.218 208.574 112.031 205.957 111.693Z" fill="white"/>
<path d="M205.957 111.382C198.594 110.437 191.294 109.557 183.938 108.591C175.753 107.518 167.32 106.22 159.128 105.18C157.559 104.984 156.37 105.502 155.407 106.731L152.615 110.452L143.622 121.927C139.263 127.503 135.076 132.882 130.597 138.363L122.223 148.598C121.408 149.597 120.41 150.625 120.362 152.009C120.288 154.014 121.874 155.474 123.774 155.731C130.813 156.682 137.823 157.617 144.862 158.522L168.742 161.623C169.773 161.758 170.853 161.799 171.843 161.313C172.631 160.928 173.165 160.107 173.704 159.452L178.976 152.939L197.274 130.61C200.898 126.175 204.942 121.818 208.438 117.275C210.143 115.061 208.712 111.821 205.957 111.382C205.641 111.335 205.634 111.645 205.957 111.693C208.497 112.098 209.374 114.994 207.818 116.965C207.373 117.525 207.029 118.272 206.577 118.825L200.065 126.269L182.077 148.598L174.945 156.971L173.084 159.452C172.235 160.492 171.154 161.151 169.672 161.003C167.82 160.82 166.253 160.619 164.4 160.382L151.375 158.832L125.945 155.42C125.17 155.319 124.548 155.218 123.774 155.11C121.342 154.752 120.053 152.167 121.603 150.148C123.523 147.637 125.495 145.149 127.495 142.705C132.319 136.798 137.376 131.036 142.071 125.028C146.74 119.054 151.298 112.968 156.027 107.041C156.795 106.075 157.882 105.679 159.128 105.8C159.451 105.834 159.735 105.76 160.059 105.8L165.641 106.731C169.406 107.23 173.357 107.472 177.115 107.971C185.677 109.105 194.294 110.282 202.856 111.382L205.957 111.693C206.281 111.733 206.274 111.423 205.957 111.382Z" fill="#2B63A8"/>
<path d="M125.014 60.2117L110.128 78.8193C109.262 79.9147 107.274 82.6073 105.786 84.4016L89.6597 103.629C88.7466 104.725 88.9224 106.135 89.6597 107.351L100.514 125.338C101.718 127.327 103.195 130.324 103.926 131.541L115.4 150.148C116.597 152.138 119.184 152.253 120.672 150.458L136.799 131.231C137.712 130.135 139.68 127.503 141.141 125.648L156.027 107.041C156.893 105.945 156.744 104.509 156.027 103.319L145.172 84.7117C143.955 82.6889 142.168 79.7054 141.451 78.5092L130.596 60.5219C129.379 58.499 126.475 58.3636 125.014 60.2117Z" fill="#CCE7A0"/>
<path d="M124.394 59.9015L110.748 77.5787C106.018 83.5961 101.052 89.6631 96.1726 95.566C94.0062 98.1843 91.7857 100.674 89.6599 103.319C88.4991 104.773 88.4387 106.457 89.3498 107.971L92.1409 112.313C96.2306 119.118 100.146 125.976 104.236 132.781L111.059 143.946L114.16 148.908C114.909 150.16 115.695 151.652 117.261 152.009C119.036 152.413 120.24 151.414 121.293 150.148L124.394 146.117L133.698 134.952C138.172 129.54 142.384 124.035 146.723 118.515L155.097 108.281C156.021 107.103 156.924 105.892 156.647 104.25C156.451 103.078 155.38 102.151 154.786 101.148C150.278 93.6367 145.966 86.0207 141.451 78.5091C137.84 72.4985 134.349 66.4449 130.597 60.5218C129.24 58.3814 126.351 57.9361 124.704 59.9015C124.495 60.1506 124.805 60.4607 125.014 60.2116C126.243 58.7443 128.35 58.7241 129.666 60.2116C129.943 60.5213 130.07 60.7853 130.286 61.142L133.078 65.4838L139.9 77.2686C143.788 83.7436 147.798 90.0214 151.685 96.4964L154.786 101.769C155.664 103.229 156.702 104.65 155.717 106.42C155.231 107.289 154.47 108.121 153.856 108.901L150.135 113.863C145.451 119.82 140.701 125.698 135.869 131.541L120.673 149.838C120.497 150.054 120.558 150.256 120.362 150.458C119.019 151.865 116.527 151.75 115.4 150.148C114.813 149.32 114.369 148.536 113.85 147.667L106.717 135.882C103.046 129.764 99.5337 123.393 95.8624 117.275C93.8783 113.97 91.6305 110.669 89.6599 107.351C88.7623 105.836 89.2206 104.598 90.2802 103.319L93.0713 99.9078C98.3892 93.4799 103.637 87.1685 108.888 80.68C113.747 74.6828 118.692 68.447 123.464 62.3825L125.014 60.2116C125.21 59.9559 124.597 59.6457 124.394 59.9015Z" fill="#2B63A8"/>
<path d="M180.217 63.6231L134.628 57.7307C131.809 57.3667 130.023 60.5898 131.527 63.0028L142.071 79.7497C142.604 80.6057 143.938 82.7635 144.552 83.7813L156.647 104.25C157.18 105.133 158.103 105.672 159.128 105.8L177.426 107.971C179.692 108.261 185.434 108.969 187.35 109.212L205.337 111.693C208.156 112.057 209.942 108.834 208.438 106.421L182.698 65.1737C182.165 64.3177 181.215 63.7512 180.217 63.6231Z" fill="#CCE7A0"/>
<path d="M180.217 63.3129L162.85 61.142L137.73 57.7306C135.602 57.4547 133.123 56.7298 131.527 58.661C130.335 60.1077 130.605 61.8393 131.527 63.3129L134.008 67.3445C137.671 73.212 141.307 79.087 144.862 85.0217C148.654 91.3467 152.472 97.6615 156.337 103.939C157.098 105.184 158.058 105.619 159.438 105.8L164.4 106.42L176.495 107.971C184.078 108.947 191.863 110.097 199.445 111.072L204.407 111.693C206.144 111.915 207.893 111.541 208.748 109.832C209.86 107.605 208.012 105.426 206.888 103.629L193.862 82.8508L183.008 65.4838C182.328 64.4004 181.55 63.5349 180.217 63.3129C179.9 63.2591 179.584 63.5692 179.907 63.623C181.253 63.8451 182.045 64.7442 182.698 65.7939L184.248 68.585L190.141 77.5787L204.097 99.9078L207.818 106.11C208.586 107.342 208.761 108.553 207.818 109.832C206.694 111.353 205.072 111.274 203.476 111.072C195.786 110.083 188.217 108.96 180.527 107.971C173.484 107.069 166.482 106.398 159.438 105.49C158.139 105.322 157.011 104.45 156.337 103.319L154.476 99.9078L147.654 88.7432C144.509 83.5016 141.272 78.1147 138.04 72.9268L131.837 63.3129C131.669 63.0437 131.668 62.6651 131.527 62.3825C130.786 60.8887 131.293 59.1247 132.768 58.3509C133.677 57.8731 134.616 57.9129 135.559 58.0407L156.647 60.8319L178.666 63.623H180.217C180.54 63.6634 180.533 63.3533 180.217 63.3129Z" fill="#2B63A8"/>
<path d="M49.0335 15.8637C51.3677 18.2404 52.4114 21.1782 52.1348 24.8574C51.8245 28.9663 50.296 32.0719 47.4829 33.851C44.6698 35.6302 40.8652 36.3643 36.3184 36.0219L35.6981 41.6042L31.0462 41.2941L31.3563 31.9903H33.2171C37.2715 32.2924 40.4497 32.0603 42.831 31.0599C45.2124 30.0595 46.6198 27.79 46.8626 24.5473C47.038 22.1974 46.3713 20.4487 45.0019 18.965C43.6324 17.4879 41.6055 16.672 39.1095 16.484C36.6135 16.296 34.4586 16.8328 32.907 18.0346C31.3554 19.2364 30.5946 20.7341 30.426 22.9966L25.1538 22.6865C25.3292 20.3367 26.0834 18.1826 27.3247 16.484C28.566 14.7854 30.1819 13.5883 32.2867 12.7625C34.3847 11.9367 36.7549 11.6307 39.4196 11.8321C43.474 12.1342 46.7061 13.487 49.0335 15.8637ZM29.8057 52.1485C29.1244 51.3898 28.8011 50.3779 28.8753 49.3574C28.9495 48.3368 29.3265 47.5209 30.1158 46.8763C30.9051 46.2318 31.8411 46.1755 32.907 46.2561C33.9728 46.3367 34.7269 46.7446 35.388 47.4966C36.0491 48.2553 36.3993 48.9638 36.3184 49.9776C36.2374 50.9914 35.8469 51.8074 35.0778 52.4586C34.3088 53.1099 33.3121 53.4696 32.2867 53.389C31.2613 53.3084 30.4938 52.9072 29.8057 52.1485Z" fill="#57ABAF"/>
<path d="M183.008 124.408C184.425 127.146 184.601 130.029 183.318 133.091C181.887 136.511 179.823 138.619 176.805 139.294C173.788 139.968 170.237 139.403 166.261 137.743L164.09 142.395L159.748 140.534L162.85 132.781L164.4 133.402C167.944 134.886 170.977 135.397 173.394 135.262C175.811 135.121 177.539 133.942 178.666 131.231C179.483 129.275 179.483 127.328 178.666 125.648C177.856 123.969 176.511 122.534 174.324 121.617C172.104 120.686 169.85 120.747 168.122 121.307C166.394 121.867 165.19 122.829 164.4 124.718L159.748 122.857C160.565 120.901 161.884 119.595 163.47 118.516C165.056 117.436 166.933 116.729 169.052 116.655C171.165 116.581 173.236 116.924 175.565 117.895C179.109 119.379 181.584 121.669 183.008 124.408ZM155.717 149.528C155.319 148.672 155.366 147.897 155.717 147.047C156.068 146.197 156.687 145.503 157.578 145.186C158.469 144.869 159.437 144.795 160.369 145.186C161.3 145.578 161.845 146.197 162.229 147.047C162.607 147.897 162.58 148.995 162.229 149.838C161.878 150.681 161.239 151.058 160.369 151.389C159.498 151.713 158.475 151.76 157.578 151.389C156.68 151.018 156.115 150.385 155.717 149.528Z" fill="#CCE7A0"/>
</svg>
