<svg width="86" height="102" viewBox="0 0 86 102" fill="none" xmlns="http://www.w3.org/2000/svg">
<g clip-path="url(#clip0_434_9870)">
<path d="M41.6082 56.886C52.5886 56.886 61.4901 46.4716 61.4901 33.6247C61.4901 20.7779 52.5886 10.3635 41.6082 10.3635C30.6277 10.3635 21.7263 20.7779 21.7263 33.6247C21.7263 46.4716 30.6277 56.886 41.6082 56.886Z" fill="#7A9B3D"/>
<path d="M21.5569 33.5687C21.5569 42.5803 26.1753 51.9862 34.7927 55.6471C38.6789 57.2805 43.1284 57.5058 47.1273 56.154C51.1826 54.8023 54.6182 52.0425 57.0401 48.6068C62.6161 40.8343 63.1793 29.8514 58.7861 21.403C56.8148 17.5731 53.7734 14.25 49.9435 12.2224C46.1135 10.1948 41.833 9.63157 37.6651 10.589C28.7662 12.673 22.9649 21.2903 21.7822 29.964C21.6132 31.1468 21.5569 32.3859 21.5569 33.5687C21.5569 33.8503 21.9511 33.8503 22.0075 33.5687C22.0075 24.7823 26.457 15.6018 34.849 11.9408C38.679 10.2511 43.0721 10.0821 47.071 11.3776C51.0699 12.673 54.5056 15.5454 56.9275 18.9811C62.2218 26.641 62.785 37.2296 58.5608 45.4527C56.6459 49.2263 53.6608 52.4931 49.8871 54.5207C46.1135 56.5483 41.833 57.1115 37.7778 56.154C29.1041 54.0701 23.5282 45.7343 22.3454 37.286C22.1764 36.0469 22.1201 34.8078 22.1201 33.5687C22.1201 33.2871 21.6695 33.2871 21.6695 33.5687H21.5569Z" fill="#0565AD"/>
<path d="M44.4239 56.886C55.4043 56.886 64.3057 46.4716 64.3057 33.6247C64.3057 20.7779 55.4043 10.3635 44.4239 10.3635C33.4434 10.3635 24.542 20.7779 24.542 33.6247C24.542 46.4716 33.4434 56.886 44.4239 56.886Z" fill="#AACD76"/>
<path d="M24.3735 33.5687C24.3735 42.5803 28.992 51.9862 37.6093 55.6471C41.4956 57.2805 45.9451 57.5058 49.944 56.154C53.9429 54.8023 57.4349 52.0425 59.8568 48.6068C65.4327 40.8343 65.9959 29.8514 61.6028 21.403C59.6315 17.5731 56.5901 14.25 52.7601 12.2224C48.9302 10.1948 44.6497 9.63157 40.4818 10.589C31.5828 12.673 25.7816 21.2903 24.5988 29.964C24.4299 31.1468 24.3735 32.3859 24.3735 33.5687C24.3735 33.8503 24.7678 33.8503 24.8241 33.5687C24.8241 24.7823 29.2736 15.6018 37.6657 11.9408C41.4956 10.2511 45.8888 10.0821 49.8877 11.3776C53.8866 12.673 57.3222 15.5454 59.7441 18.9811C65.0384 26.641 65.6017 37.2296 61.3775 45.4527C59.4625 49.2263 56.4774 52.4931 52.7038 54.5207C48.9302 56.5483 44.6497 57.1115 40.5944 56.154C31.9208 54.0701 26.3448 45.7343 25.1621 37.286C24.9931 36.0469 24.9368 34.8078 24.9368 33.5687C24.9368 33.2871 24.4862 33.2871 24.4862 33.5687H24.3735Z" fill="#0565AD"/>
<path d="M67.1784 0.169283L65.4887 6.1958L65.2634 7.04064C65.2634 7.04064 65.6014 7.4349 65.6577 7.15328L67.3474 1.12677L67.5727 0.281928C67.5727 0.281928 67.2347 -0.11233 67.1784 0.169283Z" fill="#0565AD"/>
<path d="M85.2586 24.8388C83.1747 24.7261 81.0907 24.6135 79.0068 24.5009H78.1056C78.1056 24.5009 77.824 24.8388 78.1056 24.8951C80.1896 25.0078 82.2735 25.1204 84.3574 25.233H85.2586C85.2586 25.233 85.5402 24.8951 85.2586 24.8388Z" fill="#0565AD"/>
<path d="M80.8089 9.91327L74.5008 14.2501L73.5996 14.8697C73.5996 14.8697 73.5996 15.3766 73.8249 15.2076L80.133 10.8708L81.0342 10.2512C81.0342 10.2512 81.0342 9.7443 80.8089 9.91327Z" fill="#0565AD"/>
<path d="M30.1745 3.8303C42.7908 -0.844476 57.6036 3.21075 66.1083 13.5741C74.5567 23.9375 75.8521 38.8066 68.9245 50.3528C61.9968 61.9552 48.2541 67.9254 34.962 65.4472C19.8675 62.6311 9.16621 49.0573 8.94092 33.9629C9.10989 20.5581 17.4456 8.50507 30.1182 3.8303H30.1745ZM31.9205 59.0828C42.5655 62.9127 54.5622 59.7023 61.8841 51.0849C69.1498 42.5239 70.0509 29.8513 64.306 20.2765C58.5611 10.758 47.0713 5.51998 36.0884 7.71656C23.5285 10.2511 14.5169 21.234 14.4042 33.9629C14.5169 45.0021 21.3882 55.2528 31.9769 59.0828H31.9205Z" fill="#223838"/>
<path d="M32.9912 3.8303C45.6074 -0.844471 60.4203 3.21076 68.925 13.6304C77.3734 24.0501 78.6688 38.9756 71.7411 50.578C64.8134 62.2368 51.0707 68.207 37.7786 65.7288C22.6841 62.9127 11.9829 49.2263 11.7576 34.1319C11.9265 20.6708 20.2623 8.5614 32.9349 3.88663L32.9912 3.8303ZM34.7372 59.308C45.3821 63.138 57.3789 59.9276 64.7008 51.3102C71.9664 42.6929 72.8676 30.0203 67.1227 20.3328C61.3778 10.758 49.888 5.51998 38.9051 7.71656C26.3451 10.2511 17.3335 21.3466 17.2209 34.0755C17.3335 45.1711 24.2049 55.4781 34.7935 59.308H34.7372Z" fill="#994200"/>
<path d="M43.8614 66.5735C41.8338 66.5735 39.8062 66.4046 37.7786 66.0103C22.7404 63.1942 11.7575 49.7894 11.5322 34.1317C11.7012 20.558 20.2622 8.27965 32.8785 3.60488C45.6637 -1.12622 60.5329 2.92901 69.1502 13.5176C77.8239 24.1626 78.9503 39.0881 71.9664 50.7469C66.0525 60.6597 55.2385 66.6298 43.8051 66.6298L43.8614 66.5735ZM33.0475 4.11178C20.6565 8.73023 12.2081 20.7833 12.0391 34.1317C12.2081 49.5078 23.0784 62.6873 37.8349 65.4471C51.127 67.9253 64.6444 61.8987 71.4594 50.4089C78.2745 38.9755 77.148 24.2753 68.6433 13.7993C60.2513 3.43591 45.6074 -0.562995 33.0475 4.11178ZM43.9177 61.2229C40.82 61.2229 37.6659 60.716 34.6808 59.5895C24.2048 55.8159 17.1082 45.5652 16.9392 34.1317C17.1082 21.2338 26.3451 10.0257 38.8487 7.49113C49.8879 5.29455 61.603 10.5326 67.3479 20.22C73.2054 30.0202 72.1916 42.8617 64.8697 51.4791C59.5754 57.7872 51.8029 61.2229 43.8614 61.2229H43.9177ZM34.8498 59.0826C45.3821 62.9126 57.2662 59.7022 64.4754 51.1411C71.5721 42.6927 72.5859 30.0765 66.8973 20.5016C61.2087 10.9831 49.7189 5.85778 38.9613 7.99804C26.683 10.4762 17.6151 21.4591 17.5024 34.0754C17.6714 45.2836 24.6554 55.309 34.8498 59.0263V59.0826Z" fill="black"/>
<path d="M28.3161 68.3757L20.431 63.7572L2.12613 88.3702C0.661745 90.3415 0.267487 92.876 1.056 95.2415C2.2951 98.8462 6.06871 100.986 9.786 100.142L11.0251 99.86C13.3343 99.3531 15.2493 97.776 16.2068 95.5795L28.3161 68.3757Z" fill="#223838"/>
<path d="M23.2093 59.0923L19.9563 64.6281L27.8229 69.2507L31.0759 63.715L23.2093 59.0923Z" fill="#223838"/>
<path d="M30.062 69.446L22.1768 64.8275L3.87198 89.3842C2.4076 91.3554 2.01334 93.89 2.80185 96.2555C4.04095 99.8602 7.81456 102 11.5319 101.156L12.771 100.874C15.0802 100.367 16.9951 98.79 17.9526 96.5934L30.062 69.3896V69.446Z" fill="#0565AD"/>
<path d="M30.344 69.2769C27.6968 67.7562 25.106 66.1792 22.4588 64.6585C22.3461 64.6021 22.2335 64.6585 22.1772 64.7148C19.3611 68.4884 16.5449 72.262 13.7288 76.0356C10.4621 80.3725 7.2517 84.7093 3.98499 89.1025C1.50679 92.4818 1.90105 97.2692 5.28041 99.9164C7.13905 101.381 9.5046 101.831 11.7575 101.381C13.8414 100.93 15.7564 100.254 17.1645 98.5083C18.2909 97.1566 18.9105 95.2416 19.6427 93.6646L23.4726 85.0472C25.7255 79.9782 27.9784 74.9092 30.2313 69.8401L30.344 69.5585C30.344 69.5585 30.0623 69.1079 30.006 69.3332C28.1474 73.5011 26.2887 77.669 24.4301 81.8368C22.2898 86.6806 20.1496 91.468 18.0093 96.3118C17.3898 97.7198 16.4323 98.9589 15.0805 99.8037C13.3345 100.874 10.7437 101.437 8.77241 101.043C6.18157 100.592 3.98499 98.7336 3.14015 96.1991C2.35163 93.8899 2.80221 91.4117 4.2666 89.4404C7.13905 85.5541 10.0678 81.6679 12.9403 77.7816C16.0943 73.5574 19.2484 69.3332 22.4025 65.109L22.5714 64.8838H22.2898C24.937 66.5171 27.5278 68.0378 30.175 69.6148C30.4003 69.7275 30.6256 69.3896 30.4003 69.2769H30.344Z" fill="#0565AD"/>
<path d="M24.96 60.1568L21.707 65.6925L29.5736 70.3152L32.8266 64.7794L24.96 60.1568Z" fill="#AAABAD"/>
<path d="M21.5574 65.8978C24.2046 67.4185 26.7954 68.9955 29.4426 70.5162C29.5552 70.5726 29.6679 70.5162 29.7242 70.4599C30.7943 68.6013 31.9208 66.7426 32.9909 64.884C33.0472 64.7713 32.9909 64.6587 32.9346 64.6024C30.2874 63.0816 27.6966 61.5046 25.0494 59.9839C24.9368 59.9276 24.8241 59.9839 24.7678 60.0402C23.6977 61.8989 22.5712 63.7575 21.5011 65.6162C21.3885 65.8414 21.7264 66.0667 21.839 65.8414C22.9092 63.9828 24.0356 62.1242 25.1058 60.2655H24.8241C27.4713 61.8989 30.0621 63.4196 32.7093 64.9966V64.715C31.5265 66.5736 30.4564 68.4323 29.3863 70.2909H29.6679C27.0207 68.6576 24.4299 67.1369 21.7827 65.5598C21.5574 65.4472 21.3321 65.7851 21.5574 65.8978Z" fill="black"/>
<path d="M50.0567 24.1628C51.2958 25.3455 51.9717 26.8663 51.9717 28.8375C51.9717 31.0341 51.2958 32.6112 49.9441 33.6813C48.5924 34.7514 46.79 35.2583 44.4808 35.2583L44.3682 38.1871H41.89L41.7773 33.287H42.6785C44.7061 33.287 46.3395 32.9491 47.5222 32.3295C48.705 31.71 49.2682 30.5272 49.2682 28.8375C49.2682 27.5985 48.874 26.5846 48.1418 25.9088C47.4096 25.1766 46.3958 24.8386 45.1004 24.8386C43.8049 24.8386 42.7911 25.1766 42.0589 25.9088C41.3267 26.5846 40.9325 27.5421 40.9325 28.7812H38.229C38.229 27.5421 38.5106 26.4157 39.0738 25.5145C39.6371 24.557 40.4256 23.8248 41.4394 23.3179C42.4532 22.811 43.636 22.5294 44.9877 22.5294C47.0153 22.5294 48.705 23.0926 49.9441 24.2754L50.0567 24.1628ZM41.7773 44.0446C41.3831 43.6504 41.2141 43.1998 41.2141 42.6929C41.2141 42.186 41.3831 41.6791 41.7773 41.3412C42.1716 40.9469 42.6222 40.7779 43.1291 40.7779C43.636 40.7779 44.0866 40.9469 44.4245 41.3412C44.7624 41.7354 44.9877 42.186 44.9877 42.6929C44.9877 43.1998 44.8187 43.7067 44.4245 44.0446C44.0866 44.4389 43.636 44.6079 43.1291 44.6079C42.6222 44.6079 42.1153 44.4389 41.7773 44.0446Z" fill="white"/>
</g>
<defs>
<clipPath id="clip0_434_9870">
<rect width="84.8218" height="101.55" fill="white" transform="translate(0.662109)"/>
</clipPath>
</defs>
</svg>
