<svg width="84" height="94" viewBox="0 0 84 94" fill="none" xmlns="http://www.w3.org/2000/svg">
<g clip-path="url(#clip0_434_10052)">
<path d="M38.6418 93.3133C59.822 93.3133 76.9919 74.5693 76.9919 51.4474C76.9919 28.3254 59.822 9.58142 38.6418 9.58142C17.4617 9.58142 0.291748 28.3254 0.291748 51.4474C0.291748 74.5693 17.4617 93.3133 38.6418 93.3133Z" fill="#7A9B3D"/>
<path d="M38.6415 93.3674C17.4921 93.3674 0.237305 74.544 0.237305 51.4474C0.237305 28.3508 17.438 9.52734 38.6415 9.52734C59.8449 9.52734 77.0456 28.3508 77.0456 51.4474C77.0456 74.544 59.7908 93.3674 38.6415 93.3674ZM38.6415 9.68961C17.5462 9.68961 0.399576 28.4049 0.399576 51.4474C0.399576 74.4899 17.5462 93.2051 38.6415 93.2051C59.7367 93.2051 76.8833 74.4899 76.8833 51.4474C76.8833 28.4049 59.7367 9.68961 38.6415 9.68961Z" fill="#0565AD"/>
<path d="M43.7796 93.6918C65.139 93.6918 82.4542 74.7782 82.4542 51.4472C82.4542 28.1162 65.139 9.20264 43.7796 9.20264C22.4202 9.20264 5.10498 28.1162 5.10498 51.4472C5.10498 74.7782 22.4202 93.6918 43.7796 93.6918Z" fill="#AACD76"/>
<path d="M43.7808 93.7999C22.4151 93.7999 4.99805 74.8141 4.99805 51.5012C4.99805 28.1882 22.4151 9.14844 43.7808 9.14844C65.1465 9.14844 82.5636 28.1342 82.5636 51.4471C82.5636 74.76 65.2006 93.7458 43.7808 93.7458V93.7999ZM43.7808 9.25662C22.4692 9.25662 5.16032 28.1882 5.16032 51.4471C5.16032 74.706 22.4692 93.6376 43.7808 93.6376C65.0924 93.6376 82.4013 74.706 82.4013 51.4471C82.4013 28.1882 65.0924 9.25662 43.7808 9.25662Z" fill="#0565AD"/>
<path d="M75.1521 26.1329C73.0966 27.8097 70.5003 28.8374 67.7417 28.8374C60.9263 28.8374 55.355 22.7793 55.355 15.3689C55.355 14.0167 55.5173 12.7185 55.8959 11.4744C55.95 11.204 62.7654 13.9626 66.6599 17.0998C70.5544 20.2911 73.313 23.5906 75.1521 26.1329Z" fill="#223838"/>
<path d="M69.3106 27.2148C76.1217 27.2148 81.6432 21.1848 81.6432 13.7463C81.6432 6.30788 76.1217 0.277832 69.3106 0.277832C62.4995 0.277832 56.978 6.30788 56.978 13.7463C56.978 21.1848 62.4995 27.2148 69.3106 27.2148Z" fill="#AACD76"/>
<path d="M69.3104 27.323C62.4409 27.323 56.8696 21.2649 56.8696 13.7464C56.8696 6.2278 62.4409 0.169678 69.3104 0.169678C76.1799 0.169678 81.7512 6.2278 81.7512 13.7464C81.7512 21.2649 76.1799 27.323 69.3104 27.323ZM69.3104 0.331949C62.5491 0.331949 57.0319 6.33598 57.0319 13.7464C57.0319 21.1567 62.5491 27.1608 69.3104 27.1608C76.0717 27.1608 81.5889 21.1567 81.5889 13.7464C81.5889 6.33598 76.0717 0.331949 69.3104 0.331949Z" fill="#0565AD"/>
<path d="M70.9871 27.377C77.8878 27.377 83.4819 21.2743 83.4819 13.7462C83.4819 6.21818 77.8878 0.115479 70.9871 0.115479C64.0863 0.115479 58.4922 6.21818 58.4922 13.7462C58.4922 21.2743 64.0863 27.377 70.9871 27.377Z" fill="#DCEAC0"/>
<path d="M70.9874 27.4311C64.0639 27.4311 58.4385 21.2648 58.4385 13.7463C58.4385 6.2277 64.0639 0.0614014 70.9874 0.0614014C77.911 0.0614014 83.5364 6.17361 83.5364 13.7463C83.5364 21.3189 77.911 27.4311 70.9874 27.4311ZM70.9874 0.223672C64.118 0.223672 58.6007 6.28179 58.6007 13.7463C58.6007 21.2107 64.1721 27.3229 70.9874 27.3229C77.8028 27.3229 83.3741 21.2648 83.3741 13.7463C83.3741 6.2277 77.8028 0.223672 70.9874 0.223672Z" fill="#0565AD"/>
<path d="M37.4517 56.8561C38.209 57.6675 38.9122 58.4788 39.6153 59.2361C42.3199 62.2111 44.9162 65.2942 47.5125 68.3774C49.1893 70.3787 50.8661 72.4342 52.5429 74.4896C52.8675 74.8682 53.0838 75.2469 52.8675 75.7878C52.597 76.3287 52.2184 76.4368 51.6775 76.4368C49.6221 76.4368 47.6207 76.4368 45.5653 76.4368C45.0785 76.4368 44.6998 76.2746 44.4294 75.8959C41.4544 72.326 38.4253 68.756 35.3422 65.2401C33.0704 62.6438 30.7445 59.9934 28.3645 57.5052C27.8777 56.9643 27.6073 56.4234 27.6614 55.7202C27.6614 54.6384 27.6614 53.5025 27.6614 52.4207C27.6614 51.393 28.04 51.0144 29.1218 51.0144C30.5282 51.0144 31.9345 51.0144 33.3409 51.0144C35.6667 50.9603 37.9926 50.5816 40.0481 49.3376C41.3462 48.5262 42.3199 47.3903 42.8067 45.9299C42.9148 45.5512 42.9148 45.4431 42.4821 45.4431C38.0467 45.4431 33.5572 45.4431 29.1218 45.4431C28.04 45.4431 27.7155 45.1185 27.7155 44.0367C27.7155 43.1172 27.7155 42.1976 27.7155 41.224C27.7155 40.2504 28.04 39.9258 29.0677 39.9258C33.3409 39.9258 37.614 39.9258 41.8871 39.9258C41.9953 39.9258 42.1035 39.9258 42.2117 39.9258C42.4821 39.9258 42.5362 39.8177 42.3739 39.6013C41.833 38.7359 41.1299 38.0327 40.2103 37.5459C38.5335 36.6263 36.7485 36.2477 34.8554 36.1936C32.9622 36.1395 31.0691 36.1936 29.1759 36.1936C28.04 36.1936 27.7155 35.815 27.7155 34.7332C27.7155 33.435 27.7155 32.1909 27.7155 30.8928C27.7155 30.0273 28.0941 29.6487 28.9595 29.6487C38.0467 29.6487 47.1339 29.6487 56.2211 29.6487C57.0865 29.6487 57.4652 30.0273 57.5192 30.8387C57.5192 31.8664 57.5192 32.8941 57.5192 33.9759C57.5192 34.8414 57.1406 35.1659 56.2752 35.1659C53.9493 35.1659 51.5693 35.1659 49.2434 35.1659C49.1352 35.1659 48.9189 35.1118 48.8648 35.1659C48.7566 35.3282 48.973 35.4364 49.0271 35.5445C49.8384 36.7345 50.4334 38.0327 50.7579 39.439C50.812 39.8177 50.9743 39.9258 51.3529 39.9258C53.0297 39.9258 54.6525 39.9258 56.3293 39.9258C57.2488 39.9258 57.6274 40.2504 57.6274 41.1699C57.6274 42.1976 57.6274 43.2254 57.6274 44.2531C57.6274 45.0644 57.2488 45.4431 56.4374 45.4431C54.7606 45.4431 53.0838 45.4431 51.407 45.4431C51.0825 45.4431 50.9743 45.4972 50.9202 45.8217C50.3793 48.7967 48.973 51.2848 46.7012 53.2321C44.6998 54.9089 42.3739 55.9366 39.7776 56.4775C39.0744 56.6398 38.3713 56.748 37.5599 56.9102L37.4517 56.8561Z" fill="#223838"/>
<path d="M42.3196 56.8561C43.0769 57.6675 43.7801 58.4788 44.4833 59.2361C47.1878 62.2111 49.7841 65.2942 52.3805 68.3774C54.0573 70.3787 55.7341 72.4342 57.4109 74.4896C57.7354 74.8682 57.9518 75.2469 57.7354 75.7878C57.4649 76.3287 57.0863 76.4368 56.5454 76.4368C54.49 76.4368 52.4886 76.4368 50.4332 76.4368C49.9464 76.4368 49.5677 76.2746 49.2973 75.8959C46.3223 72.326 43.2933 68.756 40.2101 65.2401C37.9383 62.6438 35.6124 59.9934 33.2325 57.5052C32.7456 56.9643 32.4752 56.4234 32.5293 55.7202C32.5293 54.6384 32.5293 53.5025 32.5293 52.4207C32.5293 51.393 32.9079 51.0144 33.9897 51.0144C35.3961 51.0144 36.8024 51.0144 38.2088 51.0144C40.5347 50.9603 42.8605 50.5816 44.916 49.3376C46.2141 48.5262 47.1878 47.3903 47.6746 45.9299C47.7828 45.5512 47.7828 45.4431 47.35 45.4431C42.9146 45.4431 38.4251 45.4431 33.9897 45.4431C32.9079 45.4431 32.5834 45.1185 32.5834 44.0367C32.5834 43.1172 32.5834 42.1976 32.5834 41.224C32.5834 40.2504 32.9079 39.9258 33.9356 39.9258C38.2088 39.9258 42.4819 39.9258 46.7551 39.9258C46.8632 39.9258 46.9714 39.9258 47.0796 39.9258C47.35 39.9258 47.4041 39.8177 47.2419 39.6013C46.701 38.7359 45.9978 38.0327 45.0782 37.5459C43.4014 36.6263 41.6165 36.2477 39.7233 36.1936C37.8301 36.1395 35.937 36.1936 34.0438 36.1936C32.9079 36.1936 32.5834 35.815 32.5834 34.7332C32.5834 33.435 32.5834 32.1909 32.5834 30.8928C32.5834 30.0273 32.962 29.6487 33.8275 29.6487C42.9146 29.6487 52.0018 29.6487 61.089 29.6487C61.9544 29.6487 62.3331 30.0273 62.3872 30.8387C62.3872 31.8664 62.3872 32.8941 62.3872 33.9759C62.3872 34.8414 62.0085 35.1659 61.1431 35.1659C58.8172 35.1659 56.4372 35.1659 54.1113 35.1659C54.0032 35.1659 53.7868 35.1118 53.7327 35.1659C53.6245 35.3282 53.8409 35.4364 53.895 35.5445C54.7063 36.7345 55.3013 38.0327 55.6259 39.439C55.68 39.8177 55.8422 39.9258 56.2209 39.9258C57.8977 39.9258 59.5204 39.9258 61.1972 39.9258C62.1167 39.9258 62.4953 40.2504 62.4953 41.1699C62.4953 42.1976 62.4953 43.2254 62.4953 44.2531C62.4953 45.0644 62.1167 45.4431 61.3054 45.4431C59.6286 45.4431 57.9518 45.4431 56.275 45.4431C55.9504 45.4431 55.8422 45.4972 55.7881 45.8217C55.2472 48.7967 53.8409 51.2848 51.5691 53.2321C49.5677 54.9089 47.2419 55.9366 44.6455 56.4775C43.9424 56.6398 43.2392 56.748 42.4278 56.9102L42.3196 56.8561Z" fill="white"/>
</g>
<defs>
<clipPath id="clip0_434_10052">
<rect width="83.2992" height="93.7386" fill="white" transform="translate(0.237305 0.0614014)"/>
</clipPath>
</defs>
</svg>
