<svg width="74" height="105" viewBox="0 0 74 105" fill="none" xmlns="http://www.w3.org/2000/svg">
<g clip-path="url(#clip0_434_9779)">
<path d="M33.9993 90.5207C39.4979 92.2271 44.9017 93.8388 50.4003 95.5452C50.4003 95.7348 50.2107 95.8296 50.1159 95.8296C48.8835 96.6829 47.651 97.6309 46.4186 98.4841C46.1342 98.6738 45.9446 98.7686 45.6601 98.6738C40.5408 97.0621 35.4214 95.5452 30.302 94.0284C30.0176 94.0284 29.828 93.8388 29.7332 93.5544C29.5436 93.0803 29.2591 92.6063 28.9747 92.1323C28.6903 91.7531 28.7851 91.4687 29.2591 91.1843C30.302 90.5206 31.3448 89.7622 32.2929 88.909C33.5253 87.8662 34.5681 86.7285 35.2318 85.2116C35.8954 83.6948 36.085 82.2727 35.7058 80.8507C35.611 80.3767 35.4214 80.3767 35.0422 80.6611C32.1032 82.7468 29.1643 84.9272 26.3202 87.0129C26.0358 87.2025 25.8462 87.3921 25.467 87.5817C25.6566 86.2545 25.7514 85.1168 25.8462 83.9792C25.8462 83.6948 26.1306 83.6 26.3202 83.5052C28.6903 81.7987 31.0604 80.0923 33.4305 78.3858C33.6201 78.291 33.8097 78.1962 33.8097 78.0066C33.8097 77.817 33.6201 77.817 33.4305 77.7222C31.9136 76.9637 30.3968 77.4378 28.7851 78.291C26.8891 79.3338 25.1826 80.6611 23.4761 81.8935C23.2865 81.9883 23.0969 82.1779 22.8125 82.3675C23.0021 81.1351 23.0969 79.9027 23.1917 78.765C23.1917 78.5754 23.3813 78.4806 23.4761 78.3858C28.9747 74.404 34.4733 70.4223 39.9719 66.4406C40.1615 66.4406 39.9719 66.725 39.9719 66.8198C39.8771 67.7678 39.7823 68.621 39.6875 69.5691C39.6875 69.9483 39.4979 70.2327 39.1187 70.5171C37.7915 71.4651 36.559 72.4132 35.137 73.3612C35.5162 73.5508 35.8954 73.6456 36.2746 73.8352C36.7486 74.1196 37.1278 74.404 37.507 74.7833C37.6967 75.0677 37.8863 74.9729 38.1707 74.7833C39.5927 73.7404 41.1096 72.6976 42.6264 71.5599C42.6264 72.3184 42.342 73.0768 42.4368 73.7404C42.4368 74.8781 41.9628 75.7313 40.92 76.3001C40.3512 76.5845 39.8771 77.0585 39.4031 77.343C39.2135 77.5326 39.1187 77.6274 39.1187 77.9118C39.9719 80.9455 39.1187 83.8844 37.1278 86.7285C36.2746 87.961 35.2318 89.0986 34.0941 90.0466C33.9993 90.0466 33.9045 90.2362 33.8097 90.331C33.8097 90.331 33.8097 90.331 33.8097 90.5207H33.9993Z" fill="white"/>
<path d="M35.8951 103.982C55.5295 103.982 71.4464 96.215 71.4464 86.6334C71.4464 77.0517 55.5295 69.2843 35.8951 69.2843C16.2606 69.2843 0.34375 77.0517 0.34375 86.6334C0.34375 96.215 16.2606 103.982 35.8951 103.982Z" fill="#C78700"/>
<path d="M71.162 86.6337C71.162 90.9947 67.8439 94.4076 64.431 96.5881C59.5012 99.8114 53.7182 101.518 48.0299 102.561C41.0145 103.793 33.8094 103.888 26.6992 102.94C20.6317 102.181 14.5643 100.57 9.2553 97.5361C5.65277 95.4504 1.76582 92.3219 1.0074 88.0557C0.248968 83.7896 2.99827 80.187 6.12679 77.7222C10.5826 74.2144 16.176 72.3184 21.6746 71.1807C28.5004 69.6639 35.7055 69.3794 42.6261 69.9483C48.978 70.5171 55.4246 71.9391 61.1128 74.7832C64.9998 76.6793 69.2659 79.6182 70.7828 83.8844C71.0672 84.7376 71.2568 85.6857 71.2568 86.6337C71.2568 87.1077 72.0152 87.1077 72.0152 86.6337C72.0152 82.3675 68.9815 78.9546 65.6634 76.5845C60.7336 73.0768 54.5714 71.1807 48.5988 70.0431C41.2041 68.7158 33.6198 68.621 26.2251 69.5691C19.9681 70.4223 13.6163 72.1287 8.11766 75.4469C4.51513 77.6274 0.912593 80.8507 0.248968 85.2116C-0.319853 89.383 2.05024 92.9855 5.17875 95.5452C9.63452 99.2426 15.4175 101.328 21.0109 102.561C28.4056 104.267 36.0847 104.552 43.5742 103.793C50.0208 103.13 56.5623 101.613 62.2505 98.6737C66.1374 96.6829 70.214 93.6491 71.636 89.2882C71.9204 88.435 72.0152 87.4869 72.0152 86.5389C72.0152 86.0649 71.3516 86.0649 71.2568 86.5389L71.162 86.6337Z" fill="#0565AD"/>
<path d="M35.8951 98.1996C55.5295 98.1996 71.4464 90.4321 71.4464 80.8505C71.4464 71.2689 55.5295 63.5015 35.8951 63.5015C16.2606 63.5015 0.34375 71.2689 0.34375 80.8505C0.34375 90.4321 16.2606 98.1996 35.8951 98.1996Z" fill="#FFB800"/>
<path d="M71.162 80.8502C71.162 85.2112 67.8439 88.6241 64.431 90.8046C59.5012 94.0279 53.7182 95.7344 48.0299 96.7772C41.0145 98.0097 33.8094 98.1045 26.6992 97.1564C20.6317 96.398 14.5643 94.7864 9.2553 91.7527C5.65277 89.667 1.76582 86.5385 1.0074 82.2723C0.248968 78.0061 2.99827 74.4036 6.12679 71.9387C10.5826 68.431 16.176 66.5349 21.6746 65.3973C28.5004 63.8804 35.7055 63.596 42.6261 64.1648C48.978 64.7336 55.4246 66.1557 61.1128 68.9998C64.9998 70.8959 69.2659 73.8348 70.7828 78.1009C71.0672 78.9542 71.2568 79.9022 71.2568 80.8502C71.2568 81.3243 72.0152 81.3243 72.0152 80.8502C72.0152 76.5841 68.9815 73.1712 65.6634 70.8011C60.7336 67.2933 54.5714 65.3973 48.5988 64.2596C41.2041 62.9324 33.6198 62.8376 26.2251 63.7856C19.9681 64.6388 13.6163 66.3453 8.11766 69.6634C4.51513 71.8439 0.912593 75.0672 0.248968 79.4282C-0.319853 83.5995 2.05024 87.2021 5.17875 89.7618C9.63452 93.4591 15.4175 95.5448 21.0109 96.7772C28.4056 98.4837 36.0847 98.7681 43.5742 98.0097C50.0208 97.3461 56.5623 95.8292 62.2505 92.8903C66.1374 90.8994 70.214 87.8657 71.636 83.5047C71.9204 82.6515 72.0152 81.7035 72.0152 80.7554C72.0152 80.2814 71.3516 80.2814 71.2568 80.7554L71.162 80.8502Z" fill="#0565AD"/>
<path d="M33.9993 80.0921C39.4979 81.7985 44.9017 83.4102 50.4003 85.1166C50.4003 85.3062 50.2107 85.4011 50.1159 85.4011C48.8835 86.2543 47.651 87.2023 46.4186 88.0556C46.1342 88.2452 45.9446 88.34 45.6601 88.2452C40.5408 86.6335 35.4214 85.1166 30.302 83.5998C30.0176 83.5998 29.828 83.4102 29.7332 83.1258C29.5436 82.6518 29.2591 82.1777 28.9747 81.7037C28.6903 81.3245 28.7851 81.0401 29.2591 80.7557C30.302 80.0921 31.3448 79.3336 32.2929 78.4804C33.5253 77.4376 34.5681 76.2999 35.2318 74.7831C35.8954 73.2662 36.085 71.8442 35.7058 70.4221C35.611 69.9481 35.4214 69.9481 35.0422 70.2325C32.1032 72.3182 29.1643 74.4987 26.3202 76.5843C26.0358 76.7739 25.8462 76.9635 25.467 77.1532C25.6566 75.8259 25.7514 74.6883 25.8462 73.5506C25.8462 73.2662 26.1306 73.1714 26.3202 73.0766C28.6903 71.3701 31.0604 69.6637 33.4305 67.9572C33.6201 67.8624 33.8097 67.7676 33.8097 67.578C33.8097 67.3884 33.6201 67.3884 33.4305 67.2936C31.9136 66.5352 30.3968 67.0092 28.7851 67.8624C26.8891 68.9052 25.1826 70.2325 23.4761 71.4649C23.2865 71.5597 23.0969 71.7494 22.8125 71.939C23.0021 70.7065 23.0969 69.4741 23.1917 68.3364C23.1917 68.1468 23.3813 68.052 23.4761 67.9572C28.9747 63.9755 34.4733 59.9937 39.9719 56.012C40.1615 56.012 39.9719 56.2964 39.9719 56.3912C39.8771 57.3392 39.7823 58.1924 39.6875 59.1405C39.6875 59.5197 39.4979 59.8041 39.1187 60.0885C37.7915 61.0366 36.559 61.9846 35.137 62.9326C35.5162 63.1222 35.8954 63.217 36.2746 63.4066C36.7486 63.6911 37.1278 63.9755 37.507 64.3547C37.6967 64.6391 37.8863 64.5443 38.1707 64.3547C39.5927 63.3118 41.1096 62.269 42.6264 61.1314C42.6264 61.8898 42.342 62.6482 42.4368 63.3118C42.4368 64.4495 41.9628 65.3027 40.92 65.8715C40.3512 66.1559 39.8771 66.63 39.4031 66.9144C39.2135 67.104 39.1187 67.1988 39.1187 67.4832C39.9719 70.5169 39.1187 73.4558 37.1278 76.2999C36.2746 77.5324 35.2318 78.67 34.0941 79.618C33.9993 79.618 33.9045 79.8077 33.8097 79.9025C33.8097 79.9025 33.8097 79.9025 33.8097 80.0921H33.9993Z" fill="white"/>
<path d="M35.8951 95.3553C55.5295 95.3553 71.4464 87.5879 71.4464 78.0063C71.4464 68.4247 55.5295 60.6572 35.8951 60.6572C16.2606 60.6572 0.34375 68.4247 0.34375 78.0063C0.34375 87.5879 16.2606 95.3553 35.8951 95.3553Z" fill="#C78700"/>
<path d="M71.162 78.0064C71.162 82.3673 67.8439 85.7803 64.431 87.9607C59.5012 91.1841 53.7182 92.8905 48.0299 93.9334C41.0145 95.1658 33.8094 95.2606 26.6992 94.3126C20.6317 93.5541 14.5643 91.9425 9.2553 88.9088C5.65277 86.8231 1.76582 83.6946 1.0074 79.4284C0.248968 75.1623 2.99827 71.5597 6.12679 69.0948C10.5826 65.5871 16.176 63.691 21.6746 62.5534C28.5004 61.0365 35.7055 60.7521 42.6261 61.3209C48.978 61.8898 55.4246 63.3118 61.1128 66.1559C64.9998 68.052 69.2659 70.9909 70.7828 75.2571C71.0672 76.1103 71.2568 77.0583 71.2568 78.0064C71.2568 78.4804 72.0152 78.4804 72.0152 78.0064C72.0152 73.7402 68.9815 70.3273 65.6634 67.9572C60.7336 64.4495 54.5714 62.5534 48.5988 61.4158C41.2041 60.0885 33.6198 59.9937 26.2251 60.9417C19.9681 61.795 13.6163 63.5014 8.11766 66.8196C4.51513 69 0.912593 72.2234 0.248968 76.5843C-0.319853 80.7557 2.05024 84.3582 5.17875 86.9179C9.63452 90.6152 15.4175 92.7009 21.0109 93.9334C28.4056 95.6398 36.0847 95.9242 43.5742 95.1658C50.0208 94.5022 56.5623 92.9853 62.2505 90.0464C66.1374 88.0555 70.214 85.0218 71.636 80.6609C71.9204 79.8076 72.0152 78.8596 72.0152 77.9116C72.0152 77.4376 71.3516 77.4376 71.2568 77.9116L71.162 78.0064Z" fill="#0565AD"/>
<path d="M35.8951 89.4779C55.5295 89.4779 71.4464 81.7104 71.4464 72.1288C71.4464 62.5472 55.5295 54.7798 35.8951 54.7798C16.2606 54.7798 0.34375 62.5472 0.34375 72.1288C0.34375 81.7104 16.2606 89.4779 35.8951 89.4779Z" fill="#FFB800"/>
<path d="M71.162 72.1286C71.162 76.4895 67.8439 79.9024 64.431 82.0829C59.5012 85.3062 53.7182 87.0127 48.0299 88.0556C41.0145 89.288 33.8094 89.3828 26.6992 88.4348C20.6317 87.6763 14.5643 86.0647 9.2553 83.031C5.65277 80.9453 1.76582 77.8168 1.0074 73.5506C0.248968 69.2845 2.99827 65.6819 6.12679 63.217C10.5826 59.7093 16.176 57.8132 21.6746 56.6756C28.5004 55.1587 35.7055 54.8743 42.6261 55.4431C48.978 56.012 55.4246 57.434 61.1128 60.2781C64.9998 62.1742 69.2659 65.1131 70.7828 69.3793C71.0672 70.2325 71.2568 71.1805 71.2568 72.1286C71.2568 72.6026 72.0152 72.6026 72.0152 72.1286C72.0152 67.8624 68.9815 64.4495 65.6634 62.0794C60.7336 58.5717 54.5714 56.6756 48.5988 55.5379C41.2041 54.2107 33.6198 54.1159 26.2251 55.0639C19.9681 55.9172 13.6163 57.6236 8.11766 60.9417C4.51513 63.1222 0.912593 66.3455 0.248968 70.7065C-0.319853 74.8779 2.05024 78.4804 5.17875 81.0401C9.63452 84.7374 15.4175 86.8231 21.0109 88.0556C28.4056 89.762 36.0847 90.0464 43.5742 89.288C50.0208 88.6244 56.5623 87.1075 62.2505 84.1686C66.1374 82.1777 70.214 79.144 71.636 74.7831C71.9204 73.9298 72.0152 72.9818 72.0152 72.0338C72.0152 71.5597 71.3516 71.5597 71.2568 72.0338L71.162 72.1286Z" fill="#0565AD"/>
<path d="M33.9993 69.6635C39.4979 71.3699 44.9017 72.9816 50.4003 74.6881C50.4003 74.8777 50.2107 74.9725 50.1159 74.9725C48.8835 75.8257 47.651 76.7737 46.4186 77.627C46.1342 77.8166 45.9446 77.9114 45.6601 77.8166C40.5408 76.2049 35.4214 74.6881 30.302 73.1712C30.0176 73.1712 29.828 72.9816 29.7332 72.6972C29.5436 72.2232 29.2591 71.7491 28.9747 71.2751C28.6903 70.8959 28.7851 70.6115 29.2591 70.3271C30.302 69.6635 31.3448 68.905 32.2929 68.0518C33.5253 67.009 34.5681 65.8713 35.2318 64.3545C35.8954 62.8376 36.085 61.4156 35.7058 59.9935C35.611 59.5195 35.4214 59.5195 35.0422 59.8039C32.1032 61.8896 29.1643 64.0701 26.3202 66.1557C26.0358 66.3453 25.8462 66.535 25.467 66.7246C25.6566 65.3973 25.7514 64.2597 25.8462 63.122C25.8462 62.8376 26.1306 62.7428 26.3202 62.648C28.6903 60.9415 31.0604 59.2351 33.4305 57.5286C33.6201 57.4338 33.8097 57.339 33.8097 57.1494C33.8097 56.9598 33.6201 56.9598 33.4305 56.865C31.9136 56.1066 30.3968 56.5806 28.7851 57.4338C26.8891 58.4767 25.1826 59.8039 23.4761 61.0363C23.2865 61.1312 23.0969 61.3208 22.8125 61.5104C23.0021 60.2779 23.0969 59.0455 23.1917 57.9078C23.1917 57.7182 23.3813 57.6234 23.4761 57.5286C28.9747 53.5469 34.4733 49.5651 39.9719 45.5834C40.1615 45.5834 39.9719 45.8678 39.9719 45.9626C39.8771 46.9106 39.7823 47.7639 39.6875 48.7119C39.6875 49.0911 39.4979 49.3755 39.1187 49.6599C37.7915 50.608 36.559 51.556 35.137 52.504C35.5162 52.6936 35.8954 52.7884 36.2746 52.9781C36.7486 53.2625 37.1278 53.5469 37.507 53.9261C37.6967 54.2105 37.8863 54.1157 38.1707 53.9261C39.5927 52.8832 41.1096 51.8404 42.6264 50.7028C42.6264 51.4612 42.342 52.2196 42.4368 52.8832C42.4368 54.0209 41.9628 54.8741 40.92 55.4429C40.3512 55.7274 39.8771 56.2014 39.4031 56.4858C39.2135 56.6754 39.1187 56.7702 39.1187 57.0546C39.9719 60.0883 39.1187 63.0272 37.1278 65.8713C36.2746 67.1038 35.2318 68.2414 34.0941 69.1895C33.9993 69.1895 33.9045 69.3791 33.8097 69.4739C33.8097 69.4739 33.8097 69.4739 33.8097 69.6635H33.9993Z" fill="white"/>
<path d="M35.8951 86.7285C55.5295 86.7285 71.4464 78.9611 71.4464 69.3794C71.4464 59.7978 55.5295 52.0304 35.8951 52.0304C16.2606 52.0304 0.34375 59.7978 0.34375 69.3794C0.34375 78.9611 16.2606 86.7285 35.8951 86.7285Z" fill="#C78700"/>
<path d="M71.162 69.3792C71.162 73.7401 67.8439 77.1531 64.431 79.3335C59.5012 82.5569 53.7182 84.2633 48.0299 85.3062C41.0145 86.5386 33.8094 86.6334 26.6992 85.6854C20.6317 84.9269 14.5643 83.3153 9.2553 80.2816C5.65277 78.1959 1.76582 75.0674 1.0074 70.8012C0.248968 66.5351 2.99827 62.9325 6.12679 60.4676C10.5826 56.9599 16.176 55.0638 21.6746 53.9262C28.5004 52.4093 35.7055 52.1249 42.6261 52.6938C48.978 53.2626 55.4246 54.6846 61.1128 57.5287C64.9998 59.4248 69.2659 62.3637 70.7828 66.6299C71.0672 67.4831 71.2568 68.4311 71.2568 69.3792C71.2568 69.8532 72.0152 69.8532 72.0152 69.3792C72.0152 65.113 68.9815 61.7001 65.6634 59.33C60.7336 55.8223 54.5714 53.9262 48.5988 52.7886C41.2041 51.4613 33.6198 51.3665 26.2251 52.3145C19.9681 53.1678 13.6163 54.8742 8.11766 58.1924C4.51513 60.3728 0.912593 63.5962 0.248968 67.9571C-0.319853 72.1285 2.05024 75.731 5.17875 78.2907C9.63452 81.988 15.4175 84.0737 21.0109 85.3062C28.4056 87.0126 36.0847 87.297 43.5742 86.5386C50.0208 85.875 56.5623 84.3581 62.2505 81.4192C66.1374 79.4283 70.214 76.3946 71.636 72.0337C71.9204 71.1804 72.0152 70.2324 72.0152 69.2844C72.0152 68.8104 71.3516 68.8104 71.2568 69.2844L71.162 69.3792Z" fill="#0565AD"/>
<path d="M35.8951 80.8506C55.5295 80.8506 71.4464 73.0831 71.4464 63.5015C71.4464 53.9199 55.5295 46.1525 35.8951 46.1525C16.2606 46.1525 0.34375 53.9199 0.34375 63.5015C0.34375 73.0831 16.2606 80.8506 35.8951 80.8506Z" fill="#FFB800"/>
<path d="M71.162 63.5012C71.162 67.8622 67.8439 71.2751 64.431 73.4556C59.5012 76.6789 53.7182 78.3854 48.0299 79.4282C41.0145 80.6607 33.8094 80.7555 26.6992 79.8074C20.6317 79.049 14.5643 77.4374 9.2553 74.4036C5.65277 72.318 1.76582 69.1895 1.0074 64.9233C0.248968 60.6571 2.99827 57.0546 6.12679 54.5897C10.5826 51.082 16.176 49.1859 21.6746 48.0483C28.5004 46.5314 35.7055 46.247 42.6261 46.8158C48.978 47.3846 55.4246 48.8067 61.1128 51.6508C64.9998 53.5469 69.2659 56.4858 70.7828 60.7519C71.0672 61.6052 71.2568 62.5532 71.2568 63.5012C71.2568 63.9753 72.0152 63.9753 72.0152 63.5012C72.0152 59.2351 68.9815 55.8222 65.6634 53.4521C60.7336 49.9443 54.5714 48.0483 48.5988 46.9106C41.2041 45.5834 33.6198 45.4886 26.2251 46.4366C19.9681 47.2898 13.6163 48.9963 8.11766 52.3144C4.51513 54.4949 0.912593 57.7182 0.248968 62.0792C-0.319853 66.2505 2.05024 69.8531 5.17875 72.4128C9.63452 76.1101 15.4175 78.1958 21.0109 79.4282C28.4056 81.1347 36.0847 81.4191 43.5742 80.6607C50.0208 79.9971 56.5623 78.4802 62.2505 75.5413C66.1374 73.5504 70.214 70.5167 71.636 66.1557C71.9204 65.3025 72.0152 64.3545 72.0152 63.4064C72.0152 62.9324 71.3516 62.9324 71.2568 63.4064L71.162 63.5012Z" fill="#0565AD"/>
<path d="M33.9993 59.2355C39.4979 60.942 44.9017 62.5536 50.4003 64.2601C50.4003 64.4497 50.2107 64.5445 50.1159 64.5445C48.8835 65.3977 47.651 66.3458 46.4186 67.199C46.1342 67.3886 45.9446 67.4834 45.6601 67.3886C40.5408 65.7769 35.4214 64.2601 30.302 62.7432C30.0176 62.7432 29.828 62.5536 29.7332 62.2692C29.5436 61.7952 29.2591 61.3212 28.9747 60.8472C28.6903 60.4679 28.7851 60.1835 29.2591 59.8991C30.302 59.2355 31.3448 58.4771 32.2929 57.6238C33.5253 56.581 34.5681 55.4433 35.2318 53.9265C35.8954 52.4096 36.085 50.9876 35.7058 49.5655C35.611 49.0915 35.4214 49.0915 35.0422 49.3759C32.1032 51.4616 29.1643 53.6421 26.3202 55.7278C26.0358 55.9174 25.8462 56.107 25.467 56.2966C25.6566 54.9693 25.7514 53.8317 25.8462 52.694C25.8462 52.4096 26.1306 52.3148 26.3202 52.22C28.6903 50.5136 31.0604 48.8071 33.4305 47.1006C33.6201 47.0058 33.8097 46.911 33.8097 46.7214C33.8097 46.5318 33.6201 46.5318 33.4305 46.437C31.9136 45.6786 30.3968 46.1526 28.7851 47.0058C26.8891 48.0487 25.1826 49.3759 23.4761 50.6084C23.2865 50.7032 23.0969 50.8928 22.8125 51.0824C23.0021 49.8499 23.0969 48.6175 23.1917 47.4799C23.1917 47.2902 23.3813 47.1954 23.4761 47.1006C28.9747 43.1189 34.4733 39.1371 39.9719 35.1554C40.1615 35.1554 39.9719 35.4398 39.9719 35.5346C39.8771 36.4826 39.7823 37.3359 39.6875 38.2839C39.6875 38.6631 39.4979 38.9475 39.1187 39.2319C37.7915 40.18 36.559 41.128 35.137 42.0761C35.5162 42.2657 35.8954 42.3605 36.2746 42.5501C36.7486 42.8345 37.1278 43.1189 37.507 43.4981C37.6967 43.7825 37.8863 43.6877 38.1707 43.4981C39.5927 42.4553 41.1096 41.4124 42.6264 40.2748C42.6264 41.0332 42.342 41.7916 42.4368 42.4553C42.4368 43.5929 41.9628 44.4461 40.92 45.015C40.3512 45.2994 39.8771 45.7734 39.4031 46.0578C39.2135 46.2474 39.1187 46.3422 39.1187 46.6266C39.9719 49.6603 39.1187 52.5992 37.1278 55.4433C36.2746 56.6758 35.2318 57.8134 34.0941 58.7615C33.9993 58.7615 33.9045 58.9511 33.8097 59.0459C33.8097 59.0459 33.8097 59.0459 33.8097 59.2355H33.9993Z" fill="white"/>
<path d="M35.8951 78.1013C55.5295 78.1013 71.4464 70.3339 71.4464 60.7522C71.4464 51.1706 55.5295 43.4032 35.8951 43.4032C16.2606 43.4032 0.34375 51.1706 0.34375 60.7522C0.34375 70.3339 16.2606 78.1013 35.8951 78.1013Z" fill="#C78700"/>
<path d="M71.162 60.7521C71.162 65.1131 67.8439 68.526 64.431 70.7065C59.5012 73.9298 53.7182 75.6362 48.0299 76.6791C41.0145 77.9115 33.8094 78.0063 26.6992 77.0583C20.6317 76.2999 14.5643 74.6882 9.2553 71.6545C5.65277 69.5688 1.76582 66.4403 1.0074 62.1741C0.248968 57.908 2.99827 54.3055 6.12679 51.8406C10.5826 48.3328 16.176 46.4368 21.6746 45.2991C28.5004 43.7823 35.7055 43.4979 42.6261 44.0667C48.978 44.6355 55.4246 46.0575 61.1128 48.9017C64.9998 50.7977 69.2659 53.7366 70.7828 58.0028C71.0672 58.856 71.2568 59.8041 71.2568 60.7521C71.2568 61.2261 72.0152 61.2261 72.0152 60.7521C72.0152 56.4859 68.9815 53.073 65.6634 50.7029C60.7336 47.1952 54.5714 45.2991 48.5988 44.1615C41.2041 42.8342 33.6198 42.7394 26.2251 43.6875C19.9681 44.5407 13.6163 46.2472 8.11766 49.5653C4.51513 51.7458 0.912593 54.9691 0.248968 59.33C-0.319853 63.5014 2.05024 67.1039 5.17875 69.6636C9.63452 73.361 15.4175 75.4466 21.0109 76.6791C28.4056 78.3856 36.0847 78.67 43.5742 77.9115C50.0208 77.2479 56.5623 75.7311 62.2505 72.7921C66.1374 70.8013 70.214 67.7676 71.636 63.4066C71.9204 62.5534 72.0152 61.6053 72.0152 60.6573C72.0152 60.1833 71.3516 60.1833 71.2568 60.6573L71.162 60.7521Z" fill="#0565AD"/>
<path d="M35.8951 72.2234C55.5295 72.2234 71.4464 64.4559 71.4464 54.8743C71.4464 45.2927 55.5295 37.5253 35.8951 37.5253C16.2606 37.5253 0.34375 45.2927 0.34375 54.8743C0.34375 64.4559 16.2606 72.2234 35.8951 72.2234Z" fill="#FFB800"/>
<path d="M71.162 54.8745C71.162 59.2355 67.8439 62.6484 64.431 64.8289C59.5012 68.0522 53.7182 69.7587 48.0299 70.8015C41.0145 72.034 33.8094 72.1288 26.6992 71.1807C20.6317 70.4223 14.5643 68.8107 9.2553 65.7769C5.65277 63.6913 1.76582 60.5627 1.0074 56.2966C0.248968 52.0304 2.99827 48.4279 6.12679 45.963C10.5826 42.4553 16.176 40.5592 21.6746 39.4216C28.5004 37.9047 35.7055 37.6203 42.6261 38.1891C48.978 38.7579 55.4246 40.18 61.1128 43.0241C64.9998 44.9202 69.2659 47.8591 70.7828 52.1252C71.0672 52.9785 71.2568 53.9265 71.2568 54.8745C71.2568 55.3486 72.0152 55.3486 72.0152 54.8745C72.0152 50.6084 68.9815 47.1954 65.6634 44.8254C60.7336 41.3176 54.5714 39.4216 48.5988 38.2839C41.2041 36.9567 33.6198 36.8619 26.2251 37.8099C19.9681 38.6631 13.6163 40.3696 8.11766 43.6877C4.51513 45.8682 0.912593 49.0915 0.248968 53.4525C-0.319853 57.6238 2.05024 61.2264 5.17875 63.7861C9.63452 67.4834 15.4175 69.5691 21.0109 70.8015C28.4056 72.508 36.0847 72.7924 43.5742 72.034C50.0208 71.3703 56.5623 69.8535 62.2505 66.9146C66.1374 64.9237 70.214 61.89 71.636 57.529C71.9204 56.6758 72.0152 55.7278 72.0152 54.7797C72.0152 54.3057 71.3516 54.3057 71.2568 54.7797L71.162 54.8745Z" fill="#0565AD"/>
<path d="M63.7672 45.0146C60.9231 52.1249 55.5193 58.2871 48.1246 61.7949C32.4821 69.2843 13.6162 62.7429 6.12668 47.0055C5.93708 46.5315 5.74747 46.1523 5.55786 45.6783C9.35 43.1186 14.185 40.4641 20.3472 38.6628C40.8248 32.785 58.7426 42.0757 63.7672 44.9198V45.0146Z" fill="#223838"/>
<path d="M37.6964 64.9234C55.0795 64.9234 69.1712 50.8317 69.1712 33.4486C69.1712 16.0656 55.0795 1.97388 37.6964 1.97388C20.3134 1.97388 6.22168 16.0656 6.22168 33.4486C6.22168 50.8317 20.3134 64.9234 37.6964 64.9234Z" fill="#C78700"/>
<path d="M65.758 19.7021C71.2566 31.4578 68.9813 45.6783 59.8802 54.969C50.779 64.2598 36.3689 66.9143 24.5184 61.3209C12.668 55.7275 5.46294 43.1186 6.69539 30.1305C7.92783 17.1424 17.4082 6.14522 30.0171 3.0167C42.6259 -0.111817 56.088 4.91277 63.2931 15.6256C64.2411 16.9528 64.9996 18.3749 65.6632 19.7969C65.8528 20.1761 66.5164 19.7969 66.232 19.4177C60.5438 7.37766 47.6505 0.0777895 34.378 1.49984C21.1055 2.9219 9.91871 12.6867 6.79019 25.5799C3.66167 38.4732 9.06548 52.4093 20.2523 59.7092C31.4391 67.0091 46.5129 66.4403 57.1309 58.2872C67.7489 50.1341 72.015 36.2927 68.2229 23.7787C67.7489 22.2618 67.18 20.745 66.4216 19.2281C66.232 18.8489 65.5684 19.2281 65.8528 19.6073L65.758 19.7021Z" fill="#0565AD"/>
<path d="M41.2992 63.9753C58.6823 63.9753 72.774 49.8836 72.774 32.5005C72.774 15.1175 58.6823 1.02576 41.2992 1.02576C23.9162 1.02576 9.82446 15.1175 9.82446 32.5005C9.82446 49.8836 23.9162 63.9753 41.2992 63.9753Z" fill="#FFB800"/>
<path d="M69.3608 18.7541C74.8594 30.5098 72.5841 44.7303 63.4829 54.021C54.3818 63.3118 39.9717 65.9663 28.1212 60.3729C16.2708 54.7795 9.06572 42.1706 10.2982 29.1825C11.5306 16.1944 21.011 5.19722 33.6198 2.0687C46.1339 -1.15462 59.6908 3.96477 66.8959 14.6776C67.8439 16.0048 68.6023 17.4269 69.266 18.8489C69.4556 19.2281 70.1192 18.8489 69.8348 18.4697C64.1466 6.42966 51.2533 -0.870209 37.9808 0.551845C24.7083 1.9739 13.5215 11.7387 10.393 24.6319C7.26446 37.5252 12.6683 51.4613 23.8551 58.7612C35.0419 66.0611 50.1157 65.4923 60.7336 57.3392C71.3516 49.1861 75.6178 35.3447 71.8257 22.8307C71.3516 21.3138 70.7828 19.797 70.0244 18.2801C69.8348 17.9009 69.1712 18.2801 69.4556 18.6593L69.3608 18.7541Z" fill="#0565AD"/>
<path d="M37.5064 34.4917C43.005 37.5254 48.5036 40.5591 54.0022 43.6877C54.0022 43.8773 53.8126 43.8773 53.7178 43.9721C52.3906 44.5409 51.0633 45.0149 49.7361 45.5837C49.4517 45.6785 49.262 45.6785 48.9776 45.5837C43.8582 42.7396 38.7389 39.8955 33.5247 36.9566C33.2403 36.767 33.1454 36.6722 32.9558 36.3878C32.7662 35.819 32.5766 35.3449 32.2922 34.7761C32.0078 34.3021 32.1026 34.1125 32.6714 33.9229C33.8091 33.5437 34.8519 33.0697 35.8947 32.5008C37.222 31.8372 38.3596 30.984 39.2129 29.6567C40.0661 28.4243 40.3505 27.0022 39.9713 25.4854C39.8765 25.0114 39.6869 24.9166 39.3077 25.1062C36.1792 26.4334 33.0506 27.6659 29.8273 28.9931C29.5429 29.0879 29.2585 29.1827 28.8793 29.3723C29.1637 28.1399 29.3533 27.097 29.5429 25.9594C29.5429 25.675 29.8273 25.675 30.0169 25.675C32.5766 24.6322 35.1363 23.5893 37.696 22.5465C37.8856 22.5465 38.0752 22.5465 38.17 22.2621C38.17 22.0725 37.9804 21.9777 37.7908 21.8828C36.274 20.84 34.6623 20.84 33.0506 21.2192C31.0598 21.6932 29.2585 22.5465 27.3624 23.3049C27.1728 23.3049 26.9832 23.4945 26.604 23.5893C26.8884 22.3569 27.078 21.314 27.2676 20.1764C27.2676 19.9868 27.4572 19.9868 27.552 19.892C33.5247 17.4271 39.4025 15.057 45.3751 12.5921C45.5647 12.6869 45.3751 12.8765 45.3751 12.9713C45.1855 13.8245 44.9959 14.6778 44.9011 15.531C44.9011 15.9102 44.6167 16.0998 44.2375 16.2894C42.8154 16.8583 41.3934 17.4271 39.9713 17.9959C40.3505 18.2803 40.7297 18.4699 41.1089 18.7543C41.583 19.1335 41.9622 19.5128 42.2466 19.9868C42.4362 20.2712 42.6258 20.2712 43.005 20.1764C44.6167 19.5128 46.1335 18.8491 47.84 18.1855C47.6504 18.9439 47.4608 19.6076 47.4608 20.2712C47.4608 21.4088 46.892 22.0725 45.7543 22.3569C45.1855 22.4517 44.6167 22.8309 44.1427 23.0205C43.8582 23.0205 43.7634 23.2101 43.8582 23.4945C44.5219 26.7178 43.3842 29.2775 41.2037 31.5528C40.2557 32.5956 39.1181 33.3541 37.8856 34.0177C37.7908 34.0177 37.696 34.1125 37.5064 34.2073C37.5064 34.2073 37.5064 34.2073 37.5064 34.3021V34.4917Z" fill="white"/>
</g>
<defs>
<clipPath id="clip0_434_9779">
<rect width="72.9987" height="103.999" fill="white" transform="translate(0.0595703 0.362061)"/>
</clipPath>
</defs>
</svg>
