<svg width="600" height="600" viewBox="0 0 600 600" fill="none" xmlns="http://www.w3.org/2000/svg">
<g clip-path="url(#clip0_785_2544)">
<path d="M310.953 212.34C312.059 213.835 312.775 215.424 313.149 217.153C313.242 217.573 313.554 217.417 313.772 217.417C315.438 217.417 317.12 217.417 318.787 217.417C320.017 217.417 320.36 217.776 320.36 219.006C320.36 220.003 320.36 220.984 320.36 221.981C320.36 222.931 319.986 223.289 319.02 223.289C317.323 223.289 315.625 223.305 313.927 223.289C313.476 223.289 313.289 223.398 313.18 223.865C311.996 229.597 308.336 232.961 302.9 234.659C301.67 235.048 300.393 235.235 299.054 235.5C300.066 236.621 301.063 237.68 302.028 238.771C305.377 242.555 308.663 246.387 311.84 250.327C312.931 251.682 314.037 253.022 315.158 254.361C315.469 254.75 315.594 255.14 315.376 255.591C315.142 256.043 314.784 256.277 314.239 256.277C312.027 256.261 309.816 256.246 307.589 256.277C306.981 256.277 306.623 255.95 306.296 255.545C304.988 254.003 303.726 252.43 302.418 250.888C300.268 248.365 298.103 245.873 295.939 243.35C293.742 240.795 291.484 238.303 289.195 235.858C288.836 235.469 288.665 235.064 288.681 234.534C288.712 233.241 288.681 231.949 288.681 230.64C288.681 229.675 289.086 229.27 290.036 229.254C292.154 229.223 294.272 229.363 296.39 229.114C298.976 228.787 301.452 228.149 303.337 226.139C303.975 225.454 304.38 224.644 304.723 223.803C304.878 223.429 304.785 223.305 304.38 223.305C303.087 223.32 301.795 223.305 300.486 223.305C297.076 223.305 293.649 223.305 290.238 223.305C288.977 223.305 288.681 223.009 288.681 221.716C288.681 220.719 288.681 219.738 288.681 218.741C288.681 217.885 289.039 217.495 289.88 217.433C290.207 217.402 290.534 217.433 290.877 217.433C295.097 217.433 299.318 217.433 303.523 217.433C303.742 217.433 304.069 217.558 304.178 217.324C304.287 217.09 304.022 216.872 303.882 216.67C302.667 214.988 300.907 214.24 298.96 213.835C296.079 213.243 293.151 213.461 290.238 213.415C288.961 213.399 288.681 213.119 288.681 211.826C288.681 210.487 288.681 209.147 288.681 207.792C288.681 206.858 289.07 206.484 290.02 206.484C299.677 206.484 309.348 206.484 319.005 206.484C319.83 206.484 320.251 206.842 320.282 207.652C320.329 208.836 320.329 210.004 320.282 211.187C320.251 212.029 319.815 212.371 318.849 212.371C316.451 212.371 314.037 212.371 311.638 212.356C311.436 212.356 311.233 212.356 310.937 212.356L310.953 212.34Z" fill="url(#paint0_linear_785_2544)"/>
<path d="M247.464 306.412V337.188C247.464 348.527 247.62 359.881 247.464 371.219C247.417 374.443 245.05 376.063 242.044 376.063C239.038 376.063 234.412 376.966 232.17 374.708C230.799 373.337 230.815 371.671 230.815 369.926V307.222C230.815 304.652 232.014 302.191 234.864 301.833C237.418 301.522 240.284 301.693 242.854 301.818C245.424 301.942 247.355 303.811 247.449 306.412C247.558 309.403 252.23 309.418 252.121 306.412C251.903 300.743 247.511 297.145 242.029 297.145C238.4 297.145 233.992 296.507 230.721 298.407C225.426 301.506 226.127 307.347 226.127 312.518V358.152C226.127 362.513 226.018 366.905 226.127 371.266C226.236 375.876 229.319 379.91 234.007 380.611C236.998 381.047 240.378 380.938 243.384 380.72C248.414 380.346 251.981 376.265 252.105 371.328C252.137 369.942 252.105 368.54 252.105 367.154V347.047C252.105 333.762 252.277 320.476 252.105 307.191C252.105 306.942 252.105 306.677 252.105 306.428C252.105 303.422 247.433 303.422 247.433 306.428L247.464 306.412Z" fill="#221F20"/>
<path d="M384.042 407.587C377.438 407.587 370.834 407.587 364.215 407.587H318.098C300.467 407.587 282.836 407.587 265.221 407.587H225.1C222.032 407.587 218.979 407.587 215.911 407.587C214.4 407.587 212.968 407.384 211.815 406.232C210.32 404.736 210.46 402.867 210.46 400.936C210.46 399.176 210.382 397.401 210.46 395.641C210.662 390.89 214.743 390.937 218.185 390.937H230.645C245.285 390.937 259.941 390.937 274.582 390.937H327.692C341.943 390.937 356.178 390.937 370.429 390.937H381.83C382.531 390.937 383.232 390.906 383.933 390.937C385.288 390.984 386.534 391.42 387.468 392.463C388.792 393.959 388.636 395.75 388.636 397.572C388.636 401.372 389.508 407.369 384.042 407.571C381.051 407.68 381.036 412.353 384.042 412.243C387.328 412.119 390.35 410.53 392.047 407.649C393.215 405.64 393.309 403.506 393.309 401.263C393.309 396.466 393.901 391.342 389.555 388.087C386.674 385.922 383.294 386.249 379.93 386.249C368.171 386.249 356.412 386.249 344.653 386.249C326.835 386.249 309.002 386.249 291.184 386.249C274.395 386.249 257.59 386.249 240.8 386.249C232.327 386.249 223.854 386.156 215.397 386.249C211.908 386.296 208.638 387.931 206.925 391.062C205.118 394.364 205.663 399.207 205.788 402.867C205.959 408.101 209.853 412.088 215.117 412.243C215.802 412.259 216.487 412.243 217.173 412.243C227.639 412.243 238.09 412.243 248.556 412.243C266.078 412.243 283.584 412.243 301.106 412.243C318.627 412.243 335.729 412.243 353.048 412.243H382.624C383.092 412.243 383.559 412.243 384.042 412.243C387.048 412.243 387.048 407.571 384.042 407.571V407.587Z" fill="#221F20"/>
<path d="M370.491 306.412V337.188C370.491 348.527 370.647 359.881 370.491 371.219C370.445 374.443 368.077 376.063 365.071 376.063C362.065 376.063 357.44 376.966 355.197 374.708C353.826 373.337 353.842 371.671 353.842 369.926V307.222C353.842 304.652 355.041 302.191 357.891 301.833C360.446 301.522 363.311 301.693 365.881 301.818C368.451 301.942 370.382 303.811 370.476 306.412C370.585 309.403 375.257 309.418 375.148 306.412C374.93 300.743 370.538 297.145 365.056 297.145C361.427 297.145 357.019 296.507 353.748 298.407C348.453 301.506 349.154 307.347 349.154 312.518V358.152C349.154 362.513 349.045 366.905 349.154 371.266C349.263 375.876 352.347 379.91 357.035 380.611C360.025 381.047 363.405 380.938 366.411 380.72C371.442 380.346 375.008 376.265 375.133 371.328C375.164 369.942 375.133 368.54 375.133 367.154V347.047C375.133 333.762 375.304 320.476 375.133 307.191C375.133 306.942 375.133 306.677 375.133 306.428C375.133 303.422 370.46 303.422 370.46 306.428L370.491 306.412Z" fill="#221F20"/>
<path d="M328.316 306.412V337.188C328.316 348.527 328.471 359.881 328.316 371.219C328.269 374.443 325.902 376.063 322.896 376.063C319.89 376.063 315.264 376.966 313.021 374.708C311.651 373.337 311.666 371.671 311.666 369.926V307.222C311.666 304.652 312.865 302.191 315.716 301.833C318.27 301.522 321.136 301.693 323.706 301.818C326.275 301.942 328.207 303.811 328.3 306.412C328.409 309.403 333.082 309.418 332.973 306.412C332.755 300.743 328.362 297.145 322.88 297.145C319.251 297.145 314.843 296.507 311.573 298.407C306.277 301.506 306.978 307.347 306.978 312.518V358.152C306.978 362.513 306.869 366.905 306.978 371.266C307.087 375.876 310.171 379.91 314.859 380.611C317.849 381.047 321.229 380.938 324.235 380.72C329.266 380.346 332.832 376.265 332.957 371.328C332.988 369.942 332.957 368.54 332.957 367.154V347.047C332.957 333.762 333.128 320.476 332.957 307.191C332.957 306.942 332.957 306.677 332.957 306.428C332.957 303.422 328.285 303.422 328.285 306.428L328.316 306.412Z" fill="#221F20"/>
<path d="M287.663 306.412V337.188C287.663 348.527 287.819 359.881 287.663 371.219C287.617 374.443 285.249 376.063 282.243 376.063C279.237 376.063 274.612 376.966 272.369 374.708C270.998 373.337 271.014 371.671 271.014 369.926V307.222C271.014 304.652 272.213 302.191 275.063 301.833C277.618 301.522 280.483 301.693 283.053 301.818C285.623 301.942 287.554 303.811 287.648 306.412C287.757 309.403 292.429 309.418 292.32 306.412C292.102 300.743 287.71 297.145 282.228 297.145C278.599 297.145 274.191 296.507 270.92 298.407C265.625 301.506 266.326 307.347 266.326 312.518V358.152C266.326 362.513 266.217 366.905 266.326 371.266C266.435 375.876 269.519 379.91 274.207 380.611C277.197 381.047 280.577 380.938 283.583 380.72C288.613 380.346 292.18 376.265 292.305 371.328C292.336 369.942 292.305 368.54 292.305 367.154V347.047C292.305 333.762 292.476 320.476 292.305 307.191C292.305 306.942 292.305 306.677 292.305 306.428C292.305 303.422 287.632 303.422 287.632 306.428L287.663 306.412Z" fill="#221F20"/>
<path d="M392.888 274.39L341.351 241.153C336.756 258.8 320.714 271.836 301.635 271.836C282.556 271.836 265.626 258.068 261.561 239.658L208.03 274.188C203.046 277.412 204.417 284.576 209.385 286.32C210.21 286.679 211.129 286.912 212.173 286.912H389.212C395.987 286.912 398.604 278.081 392.903 274.406L392.888 274.39Z" fill="#C5D8E3"/>
<path d="M301.636 187.405C284.005 187.514 267.994 198.307 261.375 214.661C254.382 231.902 259.693 252.554 274.115 264.298C288.179 275.745 308.395 277.381 324.001 267.973C340.059 258.27 348.174 238.88 343.828 220.61C339.203 201.266 321.4 187.529 301.636 187.405C298.63 187.389 298.63 192.062 301.636 192.077C317.117 192.171 331.431 201.547 337.396 215.907C343.875 231.513 339.203 249.829 326.291 260.622C313.847 271.042 295.515 272.288 281.669 263.94C267.262 255.249 259.958 237.68 264.085 221.327C268.399 204.226 284.068 192.186 301.636 192.062C304.642 192.046 304.642 187.374 301.636 187.389V187.405Z" fill="#221F20"/>
</g>
<defs>
<linearGradient id="paint0_linear_785_2544" x1="288.681" y1="231.372" x2="320.36" y2="231.372" gradientUnits="userSpaceOnUse">
<stop stop-color="#9BCB9E"/>
<stop offset="1" stop-color="#78C1C4"/>
</linearGradient>
<clipPath id="clip0_785_2544">
<rect width="191.103" height="224.87" fill="white" transform="translate(204.898 187.405)"/>
</clipPath>
</defs>
</svg>
