<svg width="83" height="92" viewBox="0 0 83 92" fill="none" xmlns="http://www.w3.org/2000/svg">
<g clip-path="url(#clip0_434_9935)">
<path d="M48.8355 74.2706C53.7983 75.8108 58.6755 77.2654 63.6383 78.8056C63.6383 78.9767 63.4672 79.0623 63.3816 79.0623C62.2692 79.8323 61.1569 80.688 60.0445 81.4581C59.7879 81.6292 59.6167 81.7148 59.36 81.6292C54.7395 80.1746 50.119 78.8056 45.4984 77.4365C45.2417 77.4365 45.0706 77.2654 44.985 77.0087C44.8139 76.5809 44.5572 76.153 44.3005 75.7252C44.0438 75.3829 44.1294 75.1262 44.5572 74.8695C45.4984 74.2706 46.4397 73.5861 47.2953 72.816C48.4077 71.8748 49.3489 70.848 49.9478 69.4789C50.5468 68.1099 50.7179 66.8264 50.3757 65.5429C50.2901 65.1151 50.119 65.1151 49.7767 65.3718C47.1242 67.2542 44.4717 69.2222 41.9047 71.1047C41.648 71.2758 41.4769 71.4469 41.1346 71.6181C41.3057 70.4201 41.3913 69.3934 41.4769 68.3666C41.4769 68.1099 41.7336 68.0243 41.9047 67.9388C44.0438 66.3986 46.183 64.8584 48.3221 63.3182C48.4932 63.2327 48.6644 63.1471 48.6644 62.976C48.6644 62.8048 48.4932 62.8048 48.3221 62.7193C46.953 62.0347 45.584 62.4626 44.1294 63.2327C42.4181 64.1739 40.8779 65.3718 39.3377 66.4841C39.1666 66.5697 38.9955 66.7408 38.7388 66.912C38.9099 65.7996 38.9955 64.6873 39.081 63.6605C39.081 63.4894 39.2522 63.4038 39.3377 63.3182C44.3005 59.7245 49.2633 56.1307 54.2261 52.537C54.3972 52.537 54.2261 52.7937 54.2261 52.8792C54.1405 53.7349 54.055 54.505 53.9694 55.3606C53.9694 55.7029 53.7983 55.9596 53.456 56.2163C52.2581 57.072 51.1457 57.9276 49.8623 58.7833C50.2045 58.9544 50.5468 59.04 50.8891 59.2111C51.3169 59.4678 51.6591 59.7245 52.0014 60.0667C52.1725 60.3234 52.3437 60.2379 52.6004 60.0667C53.8838 59.1255 55.2529 58.1843 56.6219 57.1575C56.6219 57.842 56.3652 58.5266 56.4508 59.1255C56.4508 60.1523 56.023 60.9224 55.0818 61.4358C54.5684 61.6925 54.1405 62.1203 53.7127 62.377C53.5416 62.5481 53.456 62.6337 53.456 62.8904C54.2261 65.6285 53.456 68.281 51.6591 70.848C50.8891 71.9603 49.9478 72.9871 48.921 73.8428C48.8355 73.8428 48.7499 74.0139 48.6644 74.0995C48.6644 74.0995 48.6644 74.0995 48.6644 74.2706H48.8355Z" fill="white"/>
<path d="M50.547 86.5064C68.2681 86.5064 82.634 79.4958 82.634 70.8479C82.634 62.2 68.2681 55.1895 50.547 55.1895C32.8258 55.1895 18.46 62.2 18.46 70.8479C18.46 79.4958 32.8258 86.5064 50.547 86.5064Z" fill="#C78700"/>
<path d="M82.2912 70.8479C82.2912 74.784 79.2964 77.8643 76.2161 79.8323C71.7667 82.7415 66.5472 84.2817 61.4133 85.2229C55.0814 86.3353 48.5785 86.4208 42.1611 85.5652C36.6849 84.8807 31.2087 83.4261 26.417 80.688C23.1656 78.8055 19.6574 75.9819 18.9729 72.1314C18.2883 68.281 20.7697 65.0295 23.5934 62.8048C27.615 59.6389 32.6633 57.9276 37.6261 56.9008C43.7868 55.5317 50.2898 55.275 56.536 55.7884C62.2689 56.3018 68.0874 57.5853 73.2213 60.1523C76.7295 61.8636 80.5799 64.5161 81.949 68.3665C82.2057 69.1366 82.3768 69.9923 82.3768 70.8479C82.3768 71.2758 83.0613 71.2758 83.0613 70.8479C83.0613 66.9975 80.3232 63.9171 77.3284 61.778C72.879 58.6121 67.3173 56.9008 61.9267 55.874C55.2526 54.6761 48.4073 54.5905 41.7332 55.4462C36.0859 56.2163 30.353 57.7564 25.3903 60.7512C22.1388 62.7192 18.8873 65.6285 18.2883 69.5645C17.7749 73.3293 19.9141 76.5808 22.7377 78.8911C26.7593 82.2281 31.9788 84.1106 37.0271 85.2229C43.7012 86.7631 50.632 87.0198 57.3917 86.3353C63.2101 85.7363 69.1142 84.3673 74.2481 81.7148C77.7563 79.9179 81.4356 77.1798 82.719 73.2438C82.9757 72.4737 83.0613 71.618 83.0613 70.7624C83.0613 70.3346 82.4624 70.3346 82.3768 70.7624L82.2912 70.8479Z" fill="#0565AD"/>
<path d="M50.547 81.2014C68.2681 81.2014 82.634 74.1909 82.634 65.543C82.634 56.8951 68.2681 49.8845 50.547 49.8845C32.8258 49.8845 18.46 56.8951 18.46 65.543C18.46 74.1909 32.8258 81.2014 50.547 81.2014Z" fill="#FFB800"/>
<path d="M82.2912 65.5428C82.2912 69.4788 79.2964 72.5591 76.2161 74.5271C71.7667 77.4364 66.5472 78.9765 61.4133 79.9178C55.0814 81.0301 48.5785 81.1157 42.1611 80.26C36.6849 79.5755 31.2087 78.1209 26.417 75.3828C23.1656 73.5004 19.6574 70.6767 18.9729 66.8263C18.2883 62.9758 20.7697 59.7243 23.5934 57.4996C27.615 54.3337 32.6633 52.6224 37.6261 51.5956C43.7868 50.2266 50.2898 49.9699 56.536 50.4833C62.2689 50.9967 68.0874 52.2801 73.2213 54.8471C76.7295 56.5584 80.5799 59.2109 81.949 63.0614C82.2057 63.8315 82.3768 64.6871 82.3768 65.5428C82.3768 65.9706 83.0613 65.9706 83.0613 65.5428C83.0613 61.6923 80.3232 58.612 77.3284 56.4728C72.879 53.3069 67.3173 51.5956 61.9267 50.5688C55.2526 49.3709 48.4073 49.2854 41.7332 50.141C36.0859 50.9111 30.353 52.4513 25.3903 55.4461C22.1388 57.4141 18.8873 60.3233 18.2883 64.2593C17.7749 68.0242 19.9141 71.2757 22.7377 73.5859C26.7593 76.923 31.9788 78.8054 37.0271 79.9178C43.7012 81.4579 50.632 81.7146 57.3917 81.0301C63.2101 80.4311 69.1142 79.0621 74.2481 76.4096C77.7563 74.6127 81.4356 71.8746 82.719 67.9386C82.9757 67.1685 83.0613 66.3129 83.0613 65.4572C83.0613 65.0294 82.4624 65.0294 82.3768 65.4572L82.2912 65.5428Z" fill="#0565AD"/>
<path d="M48.8355 64.8584C53.7983 66.3985 58.6755 67.8531 63.6383 69.3933C63.6383 69.5645 63.4672 69.65 63.3816 69.65C62.2692 70.4201 61.1569 71.2758 60.0445 72.0459C59.7879 72.217 59.6167 72.3025 59.36 72.217C54.7395 70.7624 50.119 69.3933 45.4984 68.0243C45.2417 68.0243 45.0706 67.8531 44.985 67.5965C44.8139 67.1686 44.5572 66.7408 44.3005 66.313C44.0438 65.9707 44.1294 65.714 44.5572 65.4573C45.4984 64.8584 46.4397 64.1738 47.2953 63.4037C48.4077 62.4625 49.3489 61.4357 49.9478 60.0667C50.5468 58.6977 50.7179 57.4142 50.3757 56.1307C50.2901 55.7029 50.119 55.7029 49.7767 55.9596C47.1242 57.842 44.4717 59.81 41.9047 61.6924C41.648 61.8636 41.4769 62.0347 41.1346 62.2058C41.3057 61.0079 41.3913 59.9811 41.4769 58.9543C41.4769 58.6977 41.7336 58.6121 41.9047 58.5265C44.0438 56.9863 46.183 55.4462 48.3221 53.906C48.4932 53.8204 48.6644 53.7349 48.6644 53.5637C48.6644 53.3926 48.4932 53.3926 48.3221 53.307C46.953 52.6225 45.584 53.0503 44.1294 53.8204C42.4181 54.7616 40.8779 55.9596 39.3377 57.0719C39.1666 57.1575 38.9955 57.3286 38.7388 57.4997C38.9099 56.3874 38.9955 55.275 39.081 54.2483C39.081 54.0771 39.2522 53.9916 39.3377 53.906C44.3005 50.3122 49.2633 46.7185 54.2261 43.1248C54.3972 43.1248 54.2261 43.3815 54.2261 43.467C54.1405 44.3227 54.055 45.0928 53.9694 45.9484C53.9694 46.2907 53.7983 46.5474 53.456 46.8041C52.2581 47.6597 51.1457 48.5154 49.8623 49.371C50.2045 49.5422 50.5468 49.6277 50.8891 49.7989C51.3169 50.0556 51.6591 50.3122 52.0014 50.6545C52.1725 50.9112 52.3437 50.8256 52.6004 50.6545C53.8838 49.7133 55.2529 48.7721 56.6219 47.7453C56.6219 48.4298 56.3652 49.1143 56.4508 49.7133C56.4508 50.7401 56.023 51.5102 55.0818 52.0236C54.5684 52.2802 54.1405 52.7081 53.7127 52.9648C53.5416 53.1359 53.456 53.2215 53.456 53.4782C54.2261 56.2163 53.456 58.8688 51.6591 61.4357C50.8891 62.5481 49.9478 63.5749 48.921 64.4305C48.8355 64.4305 48.7499 64.6017 48.6644 64.6872C48.6644 64.6872 48.6644 64.6872 48.6644 64.8584H48.8355Z" fill="white"/>
<path d="M50.547 78.6348C68.2681 78.6348 82.634 71.6243 82.634 62.9763C82.634 54.3284 68.2681 47.3179 50.547 47.3179C32.8258 47.3179 18.46 54.3284 18.46 62.9763C18.46 71.6243 32.8258 78.6348 50.547 78.6348Z" fill="#C78700"/>
<path d="M82.2912 63.0614C82.2912 66.9975 79.2964 70.0778 76.2161 72.0458C71.7667 74.955 66.5472 76.4952 61.4133 77.4364C55.0814 78.5488 48.5785 78.6343 42.1611 77.7787C36.6849 77.0942 31.2087 75.6396 26.417 72.9015C23.1656 71.019 19.6574 68.1954 18.9729 64.3449C18.2883 60.4945 20.7697 57.243 23.5934 55.0183C27.615 51.8524 32.6633 50.1411 37.6261 49.1143C43.7868 47.7452 50.2898 47.4886 56.536 48.0019C62.2689 48.5153 68.0874 49.7988 73.2213 52.3658C76.7295 54.0771 80.5799 56.7296 81.949 60.5801C82.2057 61.3501 82.3768 62.2058 82.3768 63.0614C82.3768 63.4893 83.0613 63.4893 83.0613 63.0614C83.0613 59.211 80.3232 56.1307 77.3284 53.9915C72.879 50.8256 67.3173 49.1143 61.9267 48.0875C55.2526 46.8896 48.4073 46.804 41.7332 47.6597C36.0859 48.4298 30.353 49.9699 25.3903 52.9647C22.1388 54.9327 18.8873 57.842 18.2883 61.778C17.7749 65.5428 19.9141 68.7943 22.7377 71.1046C26.7593 74.4416 31.9788 76.3241 37.0271 77.4364C43.7012 78.9766 50.632 79.2333 57.3917 78.5488C63.2101 77.9498 69.1142 76.5808 74.2481 73.9283C77.7563 72.1314 81.4356 69.3933 82.719 65.4573C82.9757 64.6872 83.0613 63.8315 83.0613 62.9759C83.0613 62.5481 82.4624 62.5481 82.3768 62.9759L82.2912 63.0614Z" fill="#0565AD"/>
<path d="M50.547 73.4149C68.2681 73.4149 82.634 66.4044 82.634 57.7565C82.634 49.1086 68.2681 42.098 50.547 42.098C32.8258 42.098 18.46 49.1086 18.46 57.7565C18.46 66.4044 32.8258 73.4149 50.547 73.4149Z" fill="#FFB800"/>
<path d="M82.2912 57.7565C82.2912 61.6925 79.2964 64.7729 76.2161 66.7409C71.7667 69.6501 66.5472 71.1903 61.4133 72.1315C55.0814 73.2438 48.5785 73.3294 42.1611 72.4738C36.6849 71.7892 31.2087 70.3346 26.417 67.5965C23.1656 65.7141 19.6574 62.8904 18.9729 59.04C18.2883 55.1896 20.7697 51.9381 23.5934 49.7134C27.615 46.5475 32.6633 44.8361 37.6261 43.8094C43.7868 42.4403 50.2898 42.1836 56.536 42.697C62.2689 43.2104 68.0874 44.4939 73.2213 47.0608C76.7295 48.7722 80.5799 51.4247 81.949 55.2751C82.2057 56.0452 82.3768 56.9009 82.3768 57.7565C82.3768 58.1843 83.0613 58.1843 83.0613 57.7565C83.0613 53.9061 80.3232 50.8257 77.3284 48.6866C72.879 45.5207 67.3173 43.8094 61.9267 42.7826C55.2526 41.5847 48.4073 41.4991 41.7332 42.3547C36.0859 43.1248 30.353 44.665 25.3903 47.6598C22.1388 49.6278 18.8873 52.537 18.2883 56.473C17.7749 60.2379 19.9141 63.4894 22.7377 65.7997C26.7593 69.1367 31.9788 71.0191 37.0271 72.1315C43.7012 73.6717 50.632 73.9284 57.3917 73.2439C63.2101 72.6449 69.1142 71.2758 74.2481 68.6233C77.7563 66.8264 81.4356 64.0884 82.719 60.1523C82.9757 59.3823 83.0613 58.5266 83.0613 57.6709C83.0613 57.2431 82.4624 57.2431 82.3768 57.6709L82.2912 57.7565Z" fill="#0565AD"/>
<path d="M48.8355 55.4465C53.7983 56.9867 58.6755 58.4413 63.6383 59.9815C63.6383 60.1526 63.4672 60.2382 63.3816 60.2382C62.2692 61.0082 61.1569 61.8639 60.0445 62.634C59.7879 62.8051 59.6167 62.8907 59.36 62.8051C54.7395 61.3505 50.119 59.9815 45.4984 58.6124C45.2417 58.6124 45.0706 58.4413 44.985 58.1846C44.8139 57.7568 44.5572 57.3289 44.3005 56.9011C44.0438 56.5588 44.1294 56.3021 44.5572 56.0455C45.4984 55.4465 46.4397 54.762 47.2953 53.9919C48.4077 53.0507 49.3489 52.0239 49.9478 50.6548C50.5468 49.2858 50.7179 48.0023 50.3757 46.7188C50.2901 46.291 50.119 46.291 49.7767 46.5477C47.1242 48.4301 44.4717 50.3981 41.9047 52.2806C41.648 52.4517 41.4769 52.6228 41.1346 52.794C41.3057 51.5961 41.3913 50.5693 41.4769 49.5425C41.4769 49.2858 41.7336 49.2002 41.9047 49.1147C44.0438 47.5745 46.183 46.0343 48.3221 44.4941C48.4932 44.4086 48.6644 44.323 48.6644 44.1519C48.6644 43.9807 48.4932 43.9807 48.3221 43.8952C46.953 43.2106 45.584 43.6385 44.1294 44.4086C42.4181 45.3498 40.8779 46.5477 39.3377 47.66C39.1666 47.7456 38.9955 47.9167 38.7388 48.0879C38.9099 46.9755 38.9955 45.8632 39.081 44.8364C39.081 44.6653 39.2522 44.5797 39.3377 44.4941C44.3005 40.9004 49.2633 37.3066 54.2261 33.7129C54.3972 33.7129 54.2261 33.9696 54.2261 34.0552C54.1405 34.9108 54.055 35.6809 53.9694 36.5365C53.9694 36.8788 53.7983 37.1355 53.456 37.3922C52.2581 38.2479 51.1457 39.1035 49.8623 39.9592C50.2045 40.1303 50.5468 40.2159 50.8891 40.387C51.3169 40.6437 51.6591 40.9004 52.0014 41.2426C52.1725 41.4993 52.3437 41.4138 52.6004 41.2426C53.8838 40.3014 55.2529 39.3602 56.6219 38.3334C56.6219 39.0179 56.3652 39.7025 56.4508 40.3014C56.4508 41.3282 56.023 42.0983 55.0818 42.6117C54.5684 42.8684 54.1405 43.2962 53.7127 43.5529C53.5416 43.724 53.456 43.8096 53.456 44.0663C54.2261 46.8044 53.456 49.4569 51.6591 52.0239C50.8891 53.1362 49.9478 54.163 48.921 55.0187C48.8355 55.0187 48.7499 55.1898 48.6644 55.2754C48.6644 55.2754 48.6644 55.2754 48.6644 55.4465H48.8355Z" fill="white"/>
<path d="M50.547 70.8483C68.2681 70.8483 82.634 63.8378 82.634 55.1898C82.634 46.5419 68.2681 39.5314 50.547 39.5314C32.8258 39.5314 18.46 46.5419 18.46 55.1898C18.46 63.8378 32.8258 70.8483 50.547 70.8483Z" fill="#C78700"/>
<path d="M82.2912 55.1897C82.2912 59.1257 79.2964 62.2061 76.2161 64.1741C71.7667 67.0833 66.5472 68.6235 61.4133 69.5647C55.0814 70.6771 48.5785 70.7626 42.1611 69.907C36.6849 69.2225 31.2087 67.7679 26.417 65.0298C23.1656 63.1473 19.6574 60.3237 18.9729 56.4732C18.2883 52.6228 20.7697 49.3713 23.5934 47.1466C27.615 43.9807 32.6633 42.2694 37.6261 41.2426C43.7868 39.8735 50.2898 39.6168 56.536 40.1302C62.2689 40.6436 68.0874 41.9271 73.2213 44.4941C76.7295 46.2054 80.5799 48.8579 81.949 52.7083C82.2057 53.4784 82.3768 54.3341 82.3768 55.1897C82.3768 55.6176 83.0613 55.6176 83.0613 55.1897C83.0613 51.3393 80.3232 48.2589 77.3284 46.1198C72.879 42.9539 67.3173 41.2426 61.9267 40.2158C55.2526 39.0179 48.4073 38.9323 41.7332 39.788C36.0859 40.5581 30.353 42.0982 25.3903 45.093C22.1388 47.061 18.8873 49.9703 18.2883 53.9063C17.7749 57.6711 19.9141 60.9226 22.7377 63.2329C26.7593 66.5699 31.9788 68.4524 37.0271 69.5647C43.7012 71.1049 50.632 71.3616 57.3917 70.6771C63.2101 70.0781 69.1142 68.7091 74.2481 66.0565C77.7563 64.2597 81.4356 61.5216 82.719 57.5856C82.9757 56.8155 83.0613 55.9598 83.0613 55.1042C83.0613 54.6764 82.4624 54.6764 82.3768 55.1042L82.2912 55.1897Z" fill="#0565AD"/>
<path d="M50.547 65.5431C68.2681 65.5431 82.634 58.5326 82.634 49.8847C82.634 41.2367 68.2681 34.2262 50.547 34.2262C32.8258 34.2262 18.46 41.2367 18.46 49.8847C18.46 58.5326 32.8258 65.5431 50.547 65.5431Z" fill="#FFB800"/>
<path d="M82.2912 49.8846C82.2912 53.8206 79.2964 56.9009 76.2161 58.8689C71.7667 61.7782 66.5472 63.3183 61.4133 64.2596C55.0814 65.3719 48.5785 65.4575 42.1611 64.6018C36.6849 63.9173 31.2087 62.4627 26.417 59.7246C23.1656 57.8421 19.6574 55.0185 18.9729 51.168C18.2883 47.3176 20.7697 44.0661 23.5934 41.8414C27.615 38.6755 32.6633 36.9642 37.6261 35.9374C43.7868 34.5684 50.2898 34.3117 56.536 34.8251C62.2689 35.3385 68.0874 36.6219 73.2213 39.1889C76.7295 40.9002 80.5799 43.5527 81.949 47.4032C82.2057 48.1733 82.3768 49.0289 82.3768 49.8846C82.3768 50.3124 83.0613 50.3124 83.0613 49.8846C83.0613 46.0341 80.3232 42.9538 77.3284 40.8146C72.879 37.6487 67.3173 35.9374 61.9267 34.9106C55.2526 33.7127 48.4073 33.6271 41.7332 34.4828C36.0859 35.2529 30.353 36.7931 25.3903 39.7879C22.1388 41.7559 18.8873 44.6651 18.2883 48.6011C17.7749 52.366 19.9141 55.6174 22.7377 57.9277C26.7593 61.2648 31.9788 63.1472 37.0271 64.2596C43.7012 65.7997 50.632 66.0564 57.3917 65.3719C63.2101 64.7729 69.1142 63.4039 74.2481 60.7514C77.7563 58.9545 81.4356 56.2164 82.719 52.2804C82.9757 51.5103 83.0613 50.6547 83.0613 49.799C83.0613 49.3712 82.4624 49.3712 82.3768 49.799L82.2912 49.8846Z" fill="#0565AD"/>
<path d="M48.8355 46.0341C53.7983 47.5743 58.6755 49.0289 63.6383 50.5691C63.6383 50.7402 63.4672 50.8258 63.3816 50.8258C62.2692 51.5959 61.1569 52.4515 60.0445 53.2216C59.7879 53.3928 59.6167 53.4783 59.36 53.3928C54.7395 51.9381 50.119 50.5691 45.4984 49.2001C45.2417 49.2001 45.0706 49.0289 44.985 48.7722C44.8139 48.3444 44.5572 47.9166 44.3005 47.4888C44.0438 47.1465 44.1294 46.8898 44.5572 46.6331C45.4984 46.0341 46.4397 45.3496 47.2953 44.5795C48.4077 43.6383 49.3489 42.6115 49.9478 41.2425C50.5468 39.8734 50.7179 38.59 50.3757 37.3065C50.2901 36.8786 50.119 36.8786 49.7767 37.1353C47.1242 39.0178 44.4717 40.9858 41.9047 42.8682C41.648 43.0394 41.4769 43.2105 41.1346 43.3816C41.3057 42.1837 41.3913 41.1569 41.4769 40.1301C41.4769 39.8734 41.7336 39.7879 41.9047 39.7023C44.0438 38.1621 46.183 36.622 48.3221 35.0818C48.4932 34.9962 48.6644 34.9106 48.6644 34.7395C48.6644 34.5684 48.4932 34.5684 48.3221 34.4828C46.953 33.7983 45.584 34.2261 44.1294 34.9962C42.4181 35.9374 40.8779 37.1353 39.3377 38.2477C39.1666 38.3333 38.9955 38.5044 38.7388 38.6755C38.9099 37.5632 38.9955 36.4508 39.081 35.424C39.081 35.2529 39.2522 35.1673 39.3377 35.0818C44.3005 31.488 49.2633 27.8943 54.2261 24.3005C54.3972 24.3005 54.2261 24.5572 54.2261 24.6428C54.1405 25.4985 54.055 26.2685 53.9694 27.1242C53.9694 27.4665 53.7983 27.7232 53.456 27.9798C52.2581 28.8355 51.1457 29.6912 49.8623 30.5468C50.2045 30.7179 50.5468 30.8035 50.8891 30.9746C51.3169 31.2313 51.6591 31.488 52.0014 31.8303C52.1725 32.087 52.3437 32.0014 52.6004 31.8303C53.8838 30.8891 55.2529 29.9479 56.6219 28.9211C56.6219 29.6056 56.3652 30.2901 56.4508 30.8891C56.4508 31.9159 56.023 32.6859 55.0818 33.1993C54.5684 33.456 54.1405 33.8839 53.7127 34.1406C53.5416 34.3117 53.456 34.3973 53.456 34.6539C54.2261 37.392 53.456 40.0446 51.6591 42.6115C50.8891 43.7239 49.9478 44.7507 48.921 45.6063C48.8355 45.6063 48.7499 45.7774 48.6644 45.863C48.6644 45.863 48.6644 45.863 48.6644 46.0341H48.8355Z" fill="white"/>
<path d="M50.547 63.0618C68.2681 63.0618 82.634 56.0513 82.634 47.4033C82.634 38.7554 68.2681 31.7449 50.547 31.7449C32.8258 31.7449 18.46 38.7554 18.46 47.4033C18.46 56.0513 32.8258 63.0618 50.547 63.0618Z" fill="#C78700"/>
<path d="M82.2912 47.4032C82.2912 51.3393 79.2964 54.4196 76.2161 56.3876C71.7667 59.2968 66.5472 60.837 61.4133 61.7782C55.0814 62.8906 48.5785 62.9761 42.1611 62.1205C36.6849 61.436 31.2087 59.9814 26.417 57.2433C23.1656 55.3608 19.6574 52.5372 18.9729 48.6867C18.2883 44.8363 20.7697 41.5848 23.5934 39.3601C27.615 36.1942 32.6633 34.4829 37.6261 33.4561C43.7868 32.087 50.2898 31.8303 56.536 32.3437C62.2689 32.8571 68.0874 34.1406 73.2213 36.7076C76.7295 38.4189 80.5799 41.0714 81.949 44.9218C82.2057 45.6919 82.3768 46.5476 82.3768 47.4032C82.3768 47.8311 83.0613 47.8311 83.0613 47.4032C83.0613 43.5528 80.3232 40.4725 77.3284 38.3333C72.879 35.1674 67.3173 33.4561 61.9267 32.4293C55.2526 31.2314 48.4073 31.1458 41.7332 32.0015C36.0859 32.7716 30.353 34.3117 25.3903 37.3065C22.1388 39.2745 18.8873 42.1838 18.2883 46.1198C17.7749 49.8846 19.9141 53.1361 22.7377 55.4464C26.7593 58.7834 31.9788 60.6659 37.0271 61.7782C43.7012 63.3184 50.632 63.5751 57.3917 62.8906C63.2101 62.2916 69.1142 60.9226 74.2481 58.27C77.7563 56.4732 81.4356 53.7351 82.719 49.7991C82.9757 49.029 83.0613 48.1733 83.0613 47.3177C83.0613 46.8899 82.4624 46.8899 82.3768 47.3177L82.2912 47.4032Z" fill="#0565AD"/>
<path d="M50.547 57.7569C68.2681 57.7569 82.634 50.7463 82.634 42.0984C82.634 33.4505 68.2681 26.4399 50.547 26.4399C32.8258 26.4399 18.46 33.4505 18.46 42.0984C18.46 50.7463 32.8258 57.7569 50.547 57.7569Z" fill="#FFB800"/>
<path d="M82.2912 42.0982C82.2912 46.0342 79.2964 49.1145 76.2161 51.0826C71.7667 53.9918 66.5472 55.532 61.4133 56.4732C55.0814 57.5855 48.5785 57.6711 42.1611 56.8154C36.6849 56.1309 31.2087 54.6763 26.417 51.9382C23.1656 50.0558 19.6574 47.2321 18.9729 43.3817C18.2883 39.5312 20.7697 36.2797 23.5934 34.055C27.615 30.8891 32.6633 29.1778 37.6261 28.151C43.7868 26.782 50.2898 26.5253 56.536 27.0387C62.2689 27.5521 68.0874 28.8356 73.2213 31.4025C76.7295 33.1138 80.5799 35.7664 81.949 39.6168C82.2057 40.3869 82.3768 41.2425 82.3768 42.0982C82.3768 42.526 83.0613 42.526 83.0613 42.0982C83.0613 38.2478 80.3232 35.1674 77.3284 33.0283C72.879 29.8623 67.3173 28.151 61.9267 27.1243C55.2526 25.9263 48.4073 25.8408 41.7332 26.6964C36.0859 27.4665 30.353 29.0067 25.3903 32.0015C22.1388 33.9695 18.8873 36.8787 18.2883 40.8147C17.7749 44.5796 19.9141 47.8311 22.7377 50.1413C26.7593 53.4784 31.9788 55.3608 37.0271 56.4732C43.7012 58.0133 50.632 58.27 57.3917 57.5855C63.2101 56.9866 69.1142 55.6175 74.2481 52.965C77.7563 51.1681 81.4356 48.43 82.719 44.494C82.9757 43.7239 83.0613 42.8683 83.0613 42.0126C83.0613 41.5848 82.4624 41.5848 82.3768 42.0126L82.2912 42.0982Z" fill="#0565AD"/>
<path d="M69.7986 7.61498C69.7986 7.61498 48.4928 5.30472 51.9155 27.3806C51.9155 27.6373 73.7346 27.295 69.7986 7.61498Z" fill="#7A9B3D"/>
<path d="M69.7124 7.18753C63.0383 6.503 55.2518 9.15553 52.4282 15.6585C51.1447 18.5677 50.9736 21.9048 51.2303 25.0707C51.2303 25.5841 51.3158 26.183 51.4014 26.6964C51.4014 26.9531 51.4014 27.2954 51.5725 27.4665C51.6581 27.6377 51.8292 27.5521 51.9148 27.6377C52.2571 27.6377 52.6849 27.6377 53.1127 27.6377C56.8776 27.381 60.8136 26.3542 64.0651 24.215C66.3753 22.6749 68.2578 20.6213 69.3701 18.0543C70.8247 14.7173 70.7392 10.9524 70.0547 7.44422C70.0547 7.0164 69.3701 7.18753 69.4557 7.61535C70.568 13.2627 69.5413 19.1667 64.8352 22.846C61.8404 25.2418 57.9044 26.4397 54.1395 26.8676C53.6261 26.8676 53.1127 26.9531 52.5138 26.9531C52.3426 26.9531 52.1715 26.9531 52.0859 26.9531C52.0859 26.9531 52.0004 26.9531 51.9148 26.9531C52.0859 27.1243 52.0859 26.6109 52.0004 26.4397C51.5725 23.2738 51.5725 19.8512 52.6849 16.7708C54.2251 12.4926 57.8188 9.66892 62.0971 8.55657C64.4929 7.87205 67.231 7.61535 69.7124 7.87205C70.1402 7.87205 70.1402 7.27309 69.7124 7.27309V7.18753Z" fill="#0565AD"/>
<path d="M50.8024 40.9856C49.6045 29.9476 55.0807 19.3375 64.5785 13.6902C64.9207 13.5191 64.5785 12.9201 64.2362 13.1768C54.5673 18.9097 48.92 29.7765 50.1179 40.9856C50.1179 41.4134 50.8024 41.4134 50.8024 40.9856Z" fill="#0565AD"/>
<path d="M31.38 0.256705C31.38 0.256705 52.6858 -2.05356 49.2632 20.0223C49.2632 20.279 27.444 19.9367 31.38 0.256705Z" fill="#7A9B3D"/>
<path d="M31.6363 0.769981C37.7114 0.0854584 44.8989 2.31016 47.8937 7.95747C49.2627 10.5244 49.6906 13.6048 49.605 16.514C49.605 17.4552 49.5194 18.3109 49.3483 19.2521C49.3483 19.4232 49.2627 20.0222 49.3483 19.9366C49.006 19.9366 48.5782 19.9366 48.236 19.9366C44.6422 19.6799 40.9629 18.6531 37.9681 16.7707C35.7434 15.4017 33.861 13.4337 32.7486 11.0378C31.294 7.78634 31.294 4.10703 31.9785 0.598851C31.9785 0.171024 31.4651 -0.00010699 31.3796 0.42772C30.2672 6.24616 31.2085 12.3213 36.0857 16.2573C39.2516 18.8243 43.4443 20.1078 47.4659 20.5356C47.9793 20.5356 49.4339 20.9634 49.8617 20.5356C50.204 20.1933 50.204 18.7387 50.204 18.2253C50.2895 17.1985 50.3751 16.1717 50.2895 15.145C50.2895 13.6048 50.0328 12.0646 49.605 10.5244C48.3215 5.9039 44.7278 2.65242 40.1928 1.19781C37.5403 0.342154 34.4599 -0.00010699 31.6363 0.256589C31.2085 0.256589 31.2085 0.941112 31.6363 0.941112V0.769981Z" fill="#0565AD"/>
<path d="M51.0601 33.5418C52.258 22.3327 46.6962 11.3804 36.9418 5.73305C36.5995 5.56192 36.2573 6.07531 36.5995 6.24644C46.0973 11.8082 51.5735 22.5039 50.3756 33.5418C50.3756 33.9696 50.9745 33.9696 51.0601 33.5418Z" fill="#0565AD"/>
<path d="M29.3266 91.8972C45.0158 91.8972 57.7343 79.1786 57.7343 63.4895C57.7343 47.8004 45.0158 35.0818 29.3266 35.0818C13.6375 35.0818 0.918945 47.8004 0.918945 63.4895C0.918945 79.1786 13.6375 91.8972 29.3266 91.8972Z" fill="#C78700"/>
<path d="M54.6534 51.0823C59.6162 61.6924 57.5626 74.5272 49.3483 82.9126C41.134 91.298 28.1281 93.6938 17.4324 88.6455C6.82232 83.6827 0.319355 72.2169 1.4317 60.4945C2.54405 48.772 11.1006 38.8465 22.4808 35.9372C33.861 33.028 46.0113 37.6485 52.5142 47.3174C53.3699 48.5153 54.0544 49.7988 54.6534 51.0823C54.8245 51.4246 55.4235 51.0823 55.1668 50.74C49.9473 39.9588 38.2248 33.3703 26.3312 34.6538C14.4376 35.9372 4.34093 44.7505 1.4317 56.3874C-1.47752 68.0242 3.48527 80.6023 13.582 87.1909C23.6787 93.865 37.2836 93.266 46.8669 85.9074C56.4502 78.5488 60.3007 66.0562 56.8781 54.7616C56.4502 53.3926 55.9368 52.0235 55.2523 50.6545C55.0812 50.3122 54.4822 50.6545 54.7389 50.9967L54.6534 51.0823Z" fill="#0565AD"/>
<path d="M32.6638 90.9559C48.3529 90.9559 61.0715 78.2373 61.0715 62.5482C61.0715 46.8591 48.3529 34.1405 32.6638 34.1405C16.9747 34.1405 4.2561 46.8591 4.2561 62.5482C4.2561 78.2373 16.9747 90.9559 32.6638 90.9559Z" fill="#FFB800"/>
<path d="M57.9054 50.2267C62.8682 60.8368 60.8146 73.6716 52.6004 82.057C44.3861 90.4424 31.3801 92.8383 20.6845 87.7899C9.9888 82.8271 3.48583 71.3614 4.59818 59.6389C5.71053 47.9164 14.2671 37.9909 25.6473 35.0816C36.9419 32.1724 49.1777 36.7929 55.6807 46.4618C56.5364 47.6597 57.2209 48.9432 57.8198 50.2267C57.991 50.569 58.5899 50.2267 58.3332 49.8844C53.1137 39.1032 41.3913 32.5147 29.4977 33.7982C17.5186 35.0816 7.42184 43.8949 4.59818 55.5318C1.77452 67.1686 6.65175 79.7468 16.7485 86.3353C26.8452 93.0094 40.4501 92.4104 50.0334 85.0518C59.6167 77.6932 63.4672 65.2006 60.0445 53.906C59.6167 52.537 59.1033 51.1679 58.4188 49.7989C58.2477 49.4566 57.6487 49.7989 57.9054 50.1411V50.2267Z" fill="#0565AD"/>
<path d="M29.2404 64.4309C34.2032 67.169 39.166 69.9071 44.1288 72.7307C44.1288 72.9019 43.9577 72.9019 43.8721 72.9874C42.6742 73.5008 41.4763 73.9286 40.2783 74.442C40.0216 74.5276 39.8505 74.5276 39.5938 74.442C34.9733 71.8751 30.3528 69.3081 25.6467 66.6556C25.39 66.4845 25.3044 66.3989 25.1333 66.1422C24.9621 65.6288 24.791 65.201 24.5343 64.6876C24.2776 64.2598 24.3632 64.0886 24.8766 63.9175C25.9034 63.5752 26.8446 63.1474 27.7858 62.634C28.9837 62.0351 30.0105 61.265 30.7806 60.0671C31.5507 58.9547 31.8074 57.6712 31.4651 56.3022C31.3795 55.8743 31.2084 55.7888 30.8661 55.9599C28.0425 57.1578 25.2188 58.2702 22.3096 59.4681C22.0529 59.5537 21.7962 59.6392 21.454 59.8104C21.7107 58.698 21.8818 57.7568 22.0529 56.73C22.0529 56.4733 22.3096 56.4733 22.4807 56.4733C24.791 55.5321 27.1013 54.5909 29.4115 53.6496C29.5827 53.6496 29.7538 53.6496 29.8394 53.393C29.8394 53.2218 29.6682 53.1363 29.4971 53.0507C28.1281 52.1095 26.6734 52.1095 25.2188 52.4517C23.422 52.8796 21.7962 53.6496 20.0849 54.3342C19.9138 54.3342 19.7427 54.5053 19.4004 54.5909C19.6571 53.4785 19.8282 52.5373 19.9993 51.5105C19.9993 51.3394 20.1705 51.3394 20.256 51.2538C25.6467 49.0291 30.9517 46.89 36.3423 44.6653C36.5135 44.7508 36.3423 44.922 36.3423 45.0075C36.1712 45.7776 36.0001 46.5477 35.9145 47.3178C35.9145 47.6601 35.6578 47.8312 35.3155 48.0023C34.0321 48.5157 32.7486 49.0291 31.4651 49.5425C31.8074 49.7992 32.1496 49.9703 32.4919 50.227C32.9197 50.5693 33.262 50.9116 33.5187 51.3394C33.6898 51.5961 33.8609 51.5961 34.2032 51.5105C35.6578 50.9116 37.0269 50.3126 38.567 49.7136C38.3959 50.3982 38.2248 50.9971 38.2248 51.5961C38.2248 52.6229 37.7114 53.2218 36.6846 53.4785C36.1712 53.5641 35.6578 53.9063 35.23 54.0775C34.9733 54.0775 34.8877 54.2486 34.9733 54.5053C35.5722 57.4145 34.5455 59.7248 32.5775 61.7784C31.7218 62.7196 30.695 63.4041 29.5827 64.0031C29.4971 64.0031 29.4115 64.0886 29.2404 64.1742C29.2404 64.1742 29.2404 64.1742 29.2404 64.2598V64.4309Z" fill="white"/>
</g>
<defs>
<clipPath id="clip0_434_9935">
<rect width="82.3139" height="91.8972" fill="white" transform="translate(0.662109)"/>
</clipPath>
</defs>
</svg>
