<svg width="600" height="600" viewBox="0 0 600 600" fill="none" xmlns="http://www.w3.org/2000/svg">
<g clip-path="url(#clip0_785_1515)">
<path d="M261.995 389.08H221.755C218.091 389.08 215.117 386.106 215.117 382.442V353.128C215.117 351.336 215.847 349.61 217.135 348.362L236.797 329.351C239.333 326.895 243.342 326.855 245.918 329.258L266.495 348.349C267.849 349.61 268.619 351.363 268.619 353.208V382.442C268.619 386.106 265.646 389.08 261.981 389.08H261.995Z" fill="#C5D8E3"/>
<path d="M325.147 389.08H284.908C281.243 389.08 278.27 386.106 278.27 382.442V325.249C278.27 323.457 279 321.731 280.287 320.483L299.949 301.471C302.485 299.015 306.494 298.976 309.07 301.379L329.648 320.469C331.002 321.731 331.772 323.483 331.772 325.328V382.442C331.772 386.106 328.798 389.08 325.134 389.08H325.147Z" fill="#C5D8E3"/>
<path d="M388.288 389.08H348.048C344.384 389.08 341.41 386.106 341.41 382.442V313.301C341.41 311.508 342.14 309.782 343.428 308.534L363.09 289.523C365.626 287.067 369.635 287.027 372.21 289.43L392.788 308.521C394.142 309.782 394.912 311.535 394.912 313.38V382.442C394.912 386.106 391.939 389.08 388.274 389.08H388.288Z" fill="url(#paint0_linear_785_1515)"/>
<path d="M368.389 275.636C368.03 275.636 367.659 275.636 367.3 275.636C366.982 275.636 366.849 275.517 366.836 275.185C366.836 274.68 366.836 274.189 366.836 273.685C366.836 273.565 366.796 273.512 366.676 273.486C364.937 273.048 363.463 272.171 362.269 270.844C362.202 270.764 362.123 270.684 362.056 270.605C361.844 270.339 361.857 270.167 362.096 269.928C362.401 269.622 362.733 269.317 363.039 269.012C363.357 268.706 363.689 268.401 364.008 268.096C364.366 267.75 364.565 267.737 364.95 268.069C365.428 268.467 365.893 268.892 366.437 269.224C367.3 269.742 368.203 269.994 369.199 269.782C370.009 269.622 370.447 269.118 370.46 268.335C370.46 268.042 370.354 267.817 370.155 267.618C369.743 267.219 369.239 266.98 368.707 266.795C367.632 266.423 366.57 266.038 365.574 265.493C364.685 265.002 363.875 264.392 363.317 263.515C361.857 261.219 362.693 258.338 365.163 257.143C365.627 256.917 366.105 256.745 366.61 256.652C366.809 256.612 366.849 256.532 366.849 256.346C366.836 255.921 366.849 255.497 366.849 255.072C366.849 254.7 367.021 254.541 367.38 254.541C368.044 254.541 368.721 254.541 369.385 254.541C369.783 254.541 369.995 254.753 369.995 255.151C369.995 255.536 369.995 255.935 369.995 256.32C369.995 256.479 370.035 256.545 370.208 256.585C371.615 256.864 372.85 257.501 373.912 258.47C374.456 258.962 374.456 259.214 373.951 259.745C373.42 260.303 372.903 260.86 372.372 261.418C372.066 261.75 371.841 261.763 371.495 261.471C371.097 261.139 370.699 260.807 370.247 260.555C369.517 260.143 368.747 260.024 367.924 260.236C367.738 260.289 367.552 260.356 367.393 260.475C366.889 260.834 366.822 261.537 367.26 261.975C367.539 262.267 367.898 262.44 368.256 262.573C369.079 262.865 369.902 263.144 370.712 263.449C371.628 263.781 372.518 264.166 373.301 264.763C374.336 265.56 374.894 266.609 374.96 267.923C375.093 270.392 373.646 272.171 371.748 273.021C371.256 273.247 370.739 273.406 370.208 273.512C370.062 273.539 369.995 273.592 369.995 273.751C369.995 274.203 369.995 274.654 369.995 275.105C369.995 275.49 369.862 275.636 369.477 275.636C369.119 275.636 368.761 275.636 368.402 275.636H368.389Z" fill="url(#paint1_linear_785_1515)"/>
<path d="M383.972 265.241C383.893 271.866 379.777 277.973 373.471 280.217C367.165 282.46 359.89 280.482 355.628 275.225C351.366 269.967 351.008 262.613 354.446 256.957C357.885 251.301 364.669 248.288 371.134 249.615C378.582 251.142 383.879 257.674 383.972 265.241C383.999 267.804 387.982 267.804 387.955 265.241C387.849 256.93 382.738 249.522 374.945 246.575C367.152 243.628 358.057 246.084 352.827 252.443C347.596 258.802 346.614 268.295 351.021 275.543C355.429 282.792 363.806 286.324 371.984 284.757C381.251 282.978 387.849 274.561 387.968 265.241C387.995 262.679 384.012 262.679 383.986 265.241H383.972Z" fill="#221F20"/>
<path d="M208.425 336.454C217.068 328.263 225.724 320.071 234.367 311.88L275.27 273.141C278.297 270.273 281.297 267.366 284.364 264.525C288.546 260.661 295.038 260.157 299.552 263.808C303.455 266.967 306.19 271.056 311.314 272.464C316.744 273.964 322.413 272.304 326.436 268.454C327.724 267.22 329.011 265.958 330.299 264.71C336.207 258.988 342.115 253.253 348.009 247.531C359.52 236.366 371.043 225.201 382.554 214.036L383.231 213.385C385.076 211.593 382.261 208.779 380.416 210.571C370.406 220.276 360.396 229.994 350.386 239.698L330.83 258.657L324.909 264.392C323.037 266.211 321.218 267.87 318.603 268.614C315.204 269.583 311.474 268.919 308.619 266.821C306.933 265.587 305.473 263.927 303.973 262.493C299.22 257.953 292.821 255.895 286.502 258.497C282.333 260.21 278.987 264.153 275.761 267.206C262.738 279.54 249.714 291.873 236.69 304.22C226.494 313.871 216.311 323.523 206.115 333.175L205.598 333.666C203.739 335.432 206.553 338.246 208.412 336.48L208.425 336.454Z" fill="#221F20"/>
<path d="M361.14 214.182H382.183L380.192 212.19V232.237C380.192 234.799 384.174 234.799 384.174 232.237V212.19C384.174 211.115 383.258 210.199 382.183 210.199H361.14C358.578 210.199 358.578 214.182 361.14 214.182Z" fill="#221F20"/>
</g>
<defs>
<linearGradient id="paint0_linear_785_1515" x1="341.423" y1="338.366" x2="394.926" y2="338.366" gradientUnits="userSpaceOnUse">
<stop stop-color="#9BCB9E"/>
<stop offset="1" stop-color="#78C1C4"/>
</linearGradient>
<linearGradient id="paint1_linear_785_1515" x1="361.897" y1="265.082" x2="374.96" y2="265.082" gradientUnits="userSpaceOnUse">
<stop stop-color="#9BCB9E"/>
<stop offset="1" stop-color="#78C1C4"/>
</linearGradient>
<clipPath id="clip0_785_1515">
<rect width="189.927" height="179.08" fill="white" transform="translate(205 210)"/>
</clipPath>
</defs>
</svg>
