<svg width="96" height="112" viewBox="0 0 96 112" fill="none" xmlns="http://www.w3.org/2000/svg">
<g clip-path="url(#clip0_434_9687)">
<path d="M94.26 90.1858L55.0667 111.622L0.779541 82.0681L39.9094 60.6323L94.26 90.1858Z" fill="#223838"/>
<path d="M94.26 83.273L55.0667 104.709L0.779541 75.0918L1.16006 67.862L39.9094 53.656L94.3869 76.1065L94.26 83.273Z" fill="#6E94D0"/>
<path d="M55.0666 104.772L0.652588 75.1553L1.09653 67.7986L39.9093 53.5927L94.4502 76.0432L94.3233 83.273L55.13 104.772H55.0666ZM0.842847 75.0919L55.13 104.645L94.2599 83.273L94.3868 76.2335L39.9727 53.8463L1.22336 67.9255L0.779427 75.0919H0.842847Z" fill="#0565AD"/>
<path d="M94.26 76.297L55.0667 97.7328L0.779541 68.1159L39.9094 46.6801L94.26 76.297Z" fill="#E9EFF8"/>
<path d="M55.0663 97.7963L0.588867 68.1159H0.715706L39.909 46.5532L94.3865 76.2336H94.2596L55.0663 97.7963ZM0.905965 68.1159L55.0663 97.606L94.0694 76.2336L39.909 46.8069L0.905965 68.1159Z" fill="#0565AD"/>
<path d="M19.9961 72.7455C25.1098 72.7455 29.2553 70.5876 29.2553 67.9256C29.2553 65.2637 25.1098 63.1057 19.9961 63.1057C14.8823 63.1057 10.7368 65.2637 10.7368 67.9256C10.7368 70.5876 14.8823 72.7455 19.9961 72.7455Z" fill="#375D97"/>
<path d="M19.9947 72.8723C14.7943 72.8723 10.6086 70.6527 10.6086 67.9256C10.6086 65.1986 14.8578 62.9789 19.9947 62.9789C25.1317 62.9789 29.3808 65.1986 29.3808 67.9256C29.3808 70.6527 25.1951 72.8723 19.9947 72.8723ZM19.9947 63.2326C14.9846 63.2326 10.9257 65.3254 10.9257 67.8622C10.9257 70.399 14.9846 72.4918 19.9947 72.4918C25.0049 72.4918 29.0637 70.399 29.0637 67.8622C29.0637 65.3254 25.0049 63.2326 19.9947 63.2326Z" fill="#0565AD"/>
<path d="M36.9924 82.2584C42.1062 82.2584 46.2517 80.1004 46.2517 77.4385C46.2517 74.7765 42.1062 72.6186 36.9924 72.6186C31.8787 72.6186 27.7332 74.7765 27.7332 77.4385C27.7332 80.1004 31.8787 82.2584 36.9924 82.2584Z" fill="#375D97"/>
<path d="M37.0548 82.3852C31.8544 82.3852 27.6687 80.1655 27.6687 77.4385C27.6687 74.7114 31.9178 72.4918 37.0548 72.4918C42.1918 72.4918 46.4409 74.7114 46.4409 77.4385C46.4409 80.1655 42.2552 82.3852 37.0548 82.3852ZM37.0548 72.8089C32.0447 72.8089 27.9858 74.9017 27.9858 77.4385C27.9858 79.9753 32.0447 82.0681 37.0548 82.0681C42.065 82.0681 46.1238 79.9753 46.1238 77.4385C46.1238 74.9017 42.065 72.8089 37.0548 72.8089Z" fill="#0565AD"/>
<path d="M53.3535 91.7714C58.4672 91.7714 62.6128 89.6134 62.6128 86.9515C62.6128 84.2895 58.4672 82.1316 53.3535 82.1316C48.2397 82.1316 44.0942 84.2895 44.0942 86.9515C44.0942 89.6134 48.2397 91.7714 53.3535 91.7714Z" fill="#375D97"/>
<path d="M53.3548 91.9616C48.1544 91.9616 43.9688 89.7419 43.9688 87.0148C43.9688 84.2878 48.1544 82.0681 53.3548 82.0681C58.5553 82.0681 62.741 84.2878 62.741 87.0148C62.741 89.7419 58.4918 91.9616 53.3548 91.9616ZM53.3548 82.3218C48.3447 82.3218 44.2858 84.4146 44.2858 86.9514C44.2858 89.4882 48.3447 91.5811 53.3548 91.5811C58.365 91.5811 62.4239 89.4882 62.4239 86.9514C62.4239 84.4146 58.365 82.3218 53.3548 82.3218Z" fill="#0565AD"/>
<path d="M58.3013 69.9549C63.415 69.9549 67.5605 67.797 67.5605 65.135C67.5605 62.4731 63.415 60.3151 58.3013 60.3151C53.1875 60.3151 49.042 62.4731 49.042 65.135C49.042 67.797 53.1875 69.9549 58.3013 69.9549Z" fill="#375D97"/>
<path d="M58.3011 70.1452C53.1007 70.1452 48.915 67.9255 48.915 65.1985C48.915 62.4715 53.1007 60.2518 58.3011 60.2518C63.5015 60.2518 67.6872 62.4715 67.6872 65.1985C67.6872 67.9255 63.4381 70.1452 58.3011 70.1452ZM58.3011 60.5054C53.291 60.5054 49.2321 62.5983 49.2321 65.1351C49.2321 67.6719 53.291 69.7647 58.3011 69.7647C63.3113 69.7647 67.3701 67.6719 67.3701 65.1351C67.3701 62.5983 63.3113 60.5054 58.3011 60.5054Z" fill="#0565AD"/>
<path d="M53.1006 64.6277V29.1127H64.199V64.6277C64.199 67.6718 53.1006 67.6718 53.1006 64.6277Z" fill="#4776C4"/>
<path d="M58.6812 67.0377C55.9542 67.0377 53.0369 66.2767 53.0369 64.6278V29.0494H64.2621V64.6278C64.2621 66.2767 61.3448 67.0377 58.6178 67.0377H58.6812ZM53.2271 29.2396V64.6278C53.2271 66.0864 55.9542 66.8475 58.6812 66.8475C61.4082 66.8475 64.1353 66.0864 64.1353 64.6278V29.2396H53.2271Z" fill="#0565AD"/>
<path d="M41.051 61.7105C46.1648 61.7105 50.3103 59.5525 50.3103 56.8906C50.3103 54.2286 46.1648 52.0707 41.051 52.0707C35.9373 52.0707 31.7917 54.2286 31.7917 56.8906C31.7917 59.5525 35.9373 61.7105 41.051 61.7105Z" fill="#375D97"/>
<path d="M41.0509 61.9007C35.8505 61.9007 31.6648 59.681 31.6648 56.9539C31.6648 54.2269 35.9139 52.0072 41.0509 52.0072C46.1879 52.0072 50.437 54.2269 50.437 56.9539C50.437 59.681 46.2513 61.9007 41.0509 61.9007ZM41.0509 52.2609C36.0407 52.2609 31.9819 54.3537 31.9819 56.8905C31.9819 59.4273 36.0407 61.5201 41.0509 61.5201C46.061 61.5201 50.1199 59.4273 50.1199 56.8905C50.1199 54.3537 46.061 52.2609 41.0509 52.2609Z" fill="#0565AD"/>
<path d="M35.8503 57.0173V21.5658H46.9488V57.0808C46.9488 60.1249 35.8503 60.1249 35.8503 57.0808V57.0173Z" fill="#4776C4"/>
<path d="M41.4312 59.4273C38.7042 59.4273 35.7869 58.6663 35.7869 57.0174V21.439H47.0121V57.0174C47.0121 58.6663 44.0948 59.4273 41.3678 59.4273H41.4312ZM35.9137 21.6292V57.0174C35.9137 58.476 38.6407 59.237 41.3678 59.237C44.0948 59.237 46.8219 58.476 46.8219 57.0174V21.6292H35.9137Z" fill="#0565AD"/>
<path d="M74.2195 78.58C79.3332 78.58 83.4787 76.422 83.4787 73.7601C83.4787 71.0981 79.3332 68.9402 74.2195 68.9402C69.1057 68.9402 64.9602 71.0981 64.9602 73.7601C64.9602 76.422 69.1057 78.58 74.2195 78.58Z" fill="#375D97"/>
<path d="M74.2196 78.7703C69.0192 78.7703 64.8335 76.5506 64.8335 73.8236C64.8335 71.0965 69.0192 68.8768 74.2196 68.8768C79.42 68.8768 83.6057 71.0965 83.6057 73.8236C83.6057 76.5506 79.3566 78.7703 74.2196 78.7703ZM74.2196 69.1305C69.2094 69.1305 65.1506 71.2234 65.1506 73.7601C65.1506 76.2969 69.2094 78.3898 74.2196 78.3898C79.2297 78.3898 83.2886 76.2969 83.2886 73.7601C83.2886 71.2234 79.2297 69.1305 74.2196 69.1305Z" fill="#0565AD"/>
<path d="M69.082 72.6188V37.1038H80.1805V72.6188C80.1805 75.6629 69.082 75.6629 69.082 72.6188Z" fill="#4776C4"/>
<path d="M74.5994 74.965C71.8724 74.965 68.9551 74.2039 68.9551 72.6184V37.04H80.1803V72.6184C80.1803 74.2673 77.263 74.965 74.536 74.965H74.5994ZM69.1453 37.2303V72.6184C69.1453 74.0771 71.8724 74.8381 74.5994 74.8381C77.3265 74.8381 80.0535 74.0771 80.0535 72.6184V37.2303H69.1453Z" fill="#0565AD"/>
<path d="M14.7954 67.3546V31.8397H25.8938V67.3546C25.8938 70.3988 14.7954 70.3988 14.7954 67.3546Z" fill="#4776C4"/>
<path d="M20.3763 69.7646C17.6492 69.7646 14.7319 69.0036 14.7319 67.4181V31.8397H25.9572V67.4181C25.9572 69.067 23.0399 69.7646 20.3129 69.7646H20.3763ZM14.8588 31.9665V67.3546C14.8588 68.8133 17.5858 69.5743 20.3129 69.5743C23.0399 69.5743 25.7669 68.8133 25.7669 67.3546V31.9665H14.8588Z" fill="#0565AD"/>
<path d="M31.855 76.9313V41.4163H42.9534V76.9313C42.9534 79.9754 31.855 79.9754 31.855 76.9313Z" fill="#4776C4"/>
<path d="M37.3726 79.2775C34.6456 79.2775 31.7283 78.5165 31.7283 76.931V41.3526H42.9535V76.931C42.9535 78.5799 40.0362 79.2775 37.3092 79.2775H37.3726ZM31.9185 41.4794V76.8676C31.9185 78.3262 34.6456 79.0873 37.3726 79.0873C40.0997 79.0873 42.8267 78.3262 42.8267 76.8676V41.4794H31.9185Z" fill="#0565AD"/>
<path d="M48.1541 86.4442V50.9292H59.2525V86.4442C59.2525 89.4883 48.1541 89.4883 48.1541 86.4442Z" fill="#4776C4"/>
<path d="M53.7349 88.7906C51.0079 88.7906 48.0906 88.0296 48.0906 86.4441V50.8657H59.3158V86.4441C59.3158 88.093 56.3985 88.7906 53.6715 88.7906H53.7349ZM48.2174 51.056V86.4441C48.2174 87.9028 50.9445 88.6638 53.6715 88.6638C56.3985 88.6638 59.1256 87.9028 59.1256 86.4441V51.056H48.2174Z" fill="#0565AD"/>
<path d="M94.8938 41.9869L55.7004 63.4227L77.2631 30.4445L94.8938 41.9869Z" fill="#E9EFF8"/>
<path d="M55.5103 63.613L55.7005 63.3593L77.2632 30.3177H77.3266L95.0841 41.9235H94.9572L55.5103 63.613ZM77.3266 30.5714L56.0176 63.169L94.8304 41.9235L77.39 30.5079L77.3266 30.5714Z" fill="#0565AD"/>
<path d="M77.3267 30.508L55.5737 63.5496L1.22314 33.9961L23.0395 0.954468L77.3267 30.508Z" fill="#6E94D0"/>
<path d="M55.6371 63.6765L1.09619 33.9961L22.976 0.827637L77.39 30.4446L55.5736 63.613L55.6371 63.6765ZM1.34987 33.9327L55.5736 63.4228L77.2631 30.508L23.0394 1.0179L1.34987 33.9327Z" fill="#0565AD"/>
<path d="M78.5315 48.8997C81.8239 48.8997 84.4929 45.6912 84.4929 41.7333C84.4929 37.7754 81.8239 34.5669 78.5315 34.5669C75.2391 34.5669 72.5701 37.7754 72.5701 41.7333C72.5701 45.6912 75.2391 48.8997 78.5315 48.8997Z" fill="#375D97"/>
<path d="M83.9861 41.4796C83.9861 44.0164 82.9714 46.7434 80.6248 47.9484C78.2783 49.1534 75.8049 48.2021 74.3463 46.236C72.7608 44.0798 72.5071 41.0356 73.5853 38.6257C74.5366 36.406 76.8197 34.6303 79.293 35.1376C82.2103 35.7084 83.7958 38.7525 83.9227 41.4796C83.9227 42.1138 84.8739 42.1138 84.8739 41.4796C84.7471 38.5623 83.225 35.5816 80.4346 34.5034C77.6441 33.4253 74.8537 34.8205 73.3316 37.167C71.6827 39.7673 71.6193 43.3187 73.0779 46.0458C74.4097 48.4557 77.1368 50.0412 79.9272 49.2802C83.2885 48.3923 85.0008 44.7774 84.9374 41.4796C84.9374 40.8454 83.9861 40.8454 83.9861 41.4796Z" fill="#0565AD"/>
<path d="M78.087 42.4942C78.7212 43.2552 79.2919 43.9528 79.8627 44.6504C79.6725 44.7773 79.4822 44.8407 79.2919 44.9675C79.2919 44.9675 79.2285 44.9675 79.1651 44.9675C78.5943 44.3333 78.0236 43.6357 77.4528 42.9381C77.4528 42.9381 77.4528 42.8747 77.4528 42.8113C77.4528 42.6844 77.4528 42.5576 77.4528 42.4307C77.4528 42.3039 77.4528 42.2405 77.5162 42.2405C77.7065 42.1771 77.8967 42.0502 78.0236 41.9868C78.2138 41.86 78.4675 41.6697 78.5943 41.416C78.7846 41.1623 78.848 40.8452 78.9114 40.4647C78.9114 40.3379 78.9114 40.3379 78.848 40.3379C78.3407 40.5916 77.8333 40.8452 77.3259 41.0989C77.3259 41.0989 77.2625 41.0989 77.1991 41.1623C77.2625 40.8452 77.3894 40.5916 77.4528 40.3379C77.4528 40.3379 77.4528 40.3379 77.5162 40.2745C77.9601 40.0842 78.3407 39.894 78.7846 39.7037H78.848C78.848 39.7037 78.848 39.6403 78.848 39.5769C78.6578 39.2598 78.4675 39.2598 78.1504 39.3232C77.8333 39.3866 77.5162 39.5769 77.1991 39.7037C77.1991 39.7037 77.1357 39.7037 77.0723 39.7037C77.1357 39.3866 77.2625 39.1329 77.3259 38.8792C78.3407 38.4353 79.2919 37.9279 80.3067 37.484C80.3067 37.484 80.3067 37.5474 80.3067 37.6108C80.2432 37.8011 80.1798 38.0548 80.1164 38.245C80.1164 38.3719 80.053 38.3719 79.9896 38.4353C79.7359 38.5621 79.5456 38.6256 79.2919 38.7524C79.2919 38.8158 79.3554 38.8792 79.4188 38.9427C79.4188 39.0695 79.4822 39.1329 79.5456 39.2598C79.5456 39.3232 79.5456 39.3232 79.609 39.2598C79.8627 39.1329 80.1164 39.0061 80.3701 38.8792C80.3701 39.0695 80.2432 39.1963 80.1798 39.3866C80.1164 39.6403 79.9896 39.8305 79.8627 39.8305C79.7993 39.8305 79.6725 39.894 79.609 39.9574C79.609 39.9574 79.609 39.9574 79.609 40.0842C79.5456 40.8452 79.2919 41.416 78.848 41.9234C78.6578 42.1136 78.4675 42.3039 78.2772 42.4307L78.087 42.4942Z" fill="white"/>
</g>
<defs>
<clipPath id="clip0_434_9687">
<rect width="94.4952" height="110.794" fill="white" transform="translate(0.588867 0.827637)"/>
</clipPath>
</defs>
</svg>
