<svg width="600" height="600" viewBox="0 0 600 600" fill="none" xmlns="http://www.w3.org/2000/svg">
<g clip-path="url(#clip0_843_1218)">
<path d="M395.555 201.151C405.418 201.258 414.623 207.294 418.184 216.605C419.572 220.219 419.822 223.887 419.822 227.679C419.822 236.492 419.822 245.323 419.822 254.136C419.822 268.202 419.822 282.285 419.822 296.35C419.822 310.415 419.822 323.751 419.822 337.46C419.822 351.169 419.822 352.398 419.822 359.875C419.804 373.691 409.193 384.854 395.216 384.908C389.875 384.926 384.552 384.908 379.21 384.908H224.279C218.439 384.908 212.581 384.908 206.742 384.908C192.961 384.89 181.834 374.225 181.78 360.32C181.762 353.501 181.78 346.665 181.78 339.846C181.78 333.027 181.78 312.926 181.78 299.466V228.73C181.78 226.024 181.691 223.3 182.243 220.629C184.273 210.89 192.071 203.288 201.845 201.507C205.139 200.902 208.7 201.151 212.029 201.151H277.798C281.234 201.151 281.234 195.81 277.798 195.81H210.57C206.047 195.81 201.614 195.774 197.216 197.145C187.478 200.225 179.733 208.362 177.311 218.332C175.673 225.062 176.457 232.718 176.457 239.573V354.837C176.457 356.742 176.457 358.665 176.457 360.57C176.528 369.899 180.837 378.659 188.297 384.303C193.602 388.308 199.994 390.231 206.617 390.249C208.593 390.249 210.587 390.249 212.564 390.249H391.602C392.92 390.249 394.237 390.249 395.555 390.249C405.294 390.16 414.32 385.442 419.929 377.466C425.537 369.49 425.181 360.534 425.181 351.347C425.181 339.561 425.181 327.757 425.181 315.97C425.181 304.184 425.181 286.095 425.181 271.139C425.181 256.184 425.181 247.246 425.181 235.3C425.181 226.326 425.697 217.531 420.57 209.537C415.104 200.991 405.667 195.899 395.555 195.792C392.118 195.757 392.118 201.098 395.555 201.133V201.151Z" fill="#231F20"/>
<path d="M195.754 251.217V324.054C195.754 325.496 196.982 326.724 198.425 326.724H272.614C276.051 326.724 276.051 321.383 272.614 321.383H198.425L201.095 324.054V251.217C201.095 247.781 195.754 247.781 195.754 251.217Z" fill="#231F20"/>
<path d="M213.454 310.611C220.718 304.148 227.982 297.685 235.264 291.24H231.489C236.279 295.335 241.068 299.412 245.875 303.507C247.032 304.487 248.492 304.522 249.649 303.507C257.839 296.386 266.047 289.264 274.237 282.16C276.836 279.899 273.044 276.142 270.462 278.386C262.273 285.507 254.065 292.629 245.875 299.733H249.649C244.86 295.638 240.071 291.561 235.264 287.466C234.124 286.487 232.646 286.451 231.489 287.466C224.225 293.929 216.961 300.392 209.679 306.837C207.098 309.133 210.89 312.89 213.454 310.611Z" fill="#231F20"/>
<path d="M307.44 290.564H373.138C376.574 290.564 376.574 285.223 373.138 285.223H307.44C304.004 285.223 304.004 290.564 307.44 290.564Z" fill="#231F20"/>
<path d="M307.44 307.745H365.553C368.989 307.745 368.989 302.403 365.553 302.403H307.44C304.004 302.403 304.004 307.745 307.44 307.745Z" fill="#231F20"/>
<path d="M307.44 325.497H340.77C344.206 325.497 344.206 320.155 340.77 320.155H307.44C304.004 320.155 304.004 325.497 307.44 325.497Z" fill="#231F20"/>
<path d="M176.672 346.22V365.751C176.672 379.389 187.728 390.445 201.366 390.445H400.167C413.805 390.445 424.862 379.389 424.862 365.751V346.22H176.672ZM310.025 370.433H291.989C289.141 370.433 286.844 368.119 286.844 365.288C286.844 362.457 289.159 360.143 291.989 360.143H310.025C312.874 360.143 315.17 362.457 315.17 365.288C315.17 368.119 312.856 370.433 310.025 370.433Z" fill="url(#paint0_linear_843_1218)"/>
<path d="M337.957 418.059H266.687C265.459 418.059 264.07 418.219 262.859 417.952C260.011 417.347 258.64 414.196 259.797 411.614C260.331 410.421 261.097 409.282 261.738 408.142C263.643 404.742 265.548 401.341 267.453 397.941L265.138 399.258H336.657L334.343 397.941C336.284 401.395 338.206 404.849 340.147 408.32C340.824 409.531 341.714 410.777 342.177 412.095C343.227 415.05 340.948 417.952 337.939 418.059C334.521 418.184 334.503 423.525 337.939 423.4C342.23 423.24 345.987 420.659 347.322 416.51C348.301 413.43 347.482 410.528 345.969 407.804C343.619 403.62 341.286 399.436 338.936 395.252C338.473 394.433 337.565 393.935 336.622 393.935H265.103C264.177 393.935 263.251 394.433 262.788 395.252C261.079 398.314 259.37 401.359 257.66 404.421C255.613 408.071 253.156 411.578 254.278 416.012C255.399 420.445 259.583 423.347 264.141 423.4C265.975 423.418 267.791 423.4 269.625 423.4H337.921C341.358 423.4 341.358 418.059 337.921 418.059H337.957Z" fill="#231F20"/>
<path d="M392.098 178.042H268.359C261.24 178.042 255.469 183.813 255.469 190.932V260.351C255.469 267.47 261.24 273.241 268.359 273.241H392.098C399.217 273.241 404.988 267.47 404.988 260.351V190.932C404.988 183.813 399.217 178.042 392.098 178.042Z" fill="#C1D9E5"/>
<path d="M261.095 248.35C276.282 234.516 291.468 220.682 306.655 206.849C308.792 204.908 310.928 202.95 313.065 201.009H309.29C320.418 213.757 331.528 226.504 342.655 239.252C344.222 241.05 345.789 242.831 347.338 244.629C349.599 247.228 353.373 243.436 351.112 240.855C339.985 228.107 328.875 215.359 317.747 202.611C316.181 200.813 314.614 199.033 313.065 197.234C312.086 196.113 310.305 196.309 309.29 197.234C294.103 211.068 278.917 224.902 263.73 238.736C261.593 240.677 259.457 242.635 257.32 244.576C254.774 246.89 258.566 250.665 261.095 248.35Z" fill="#231F20"/>
<path d="M397.944 235.228C390.324 226.504 382.704 217.762 375.083 209.038C373.98 207.774 372.876 206.51 371.79 205.246C370.81 204.124 369.03 204.32 368.015 205.246C359.042 213.418 350.086 221.573 341.113 229.745C338.567 232.059 342.359 235.834 344.888 233.519C353.861 225.347 362.816 217.193 371.79 209.021H368.015C375.635 217.745 383.255 226.486 390.876 235.211C391.98 236.475 393.083 237.739 394.169 239.003C396.431 241.602 400.205 237.81 397.944 235.228Z" fill="#231F20"/>
<path d="M347.502 197.038C347.484 198.711 347.074 199.993 346.006 201.524C345.543 202.201 346.184 201.346 345.864 201.702C345.721 201.863 345.579 202.023 345.419 202.183C345.294 202.308 345.169 202.432 345.045 202.557C345.045 202.557 344.386 203.127 344.778 202.806C344.439 203.073 344.048 203.305 343.674 203.518C343.514 203.607 343.353 203.679 343.211 203.768C342.926 203.892 342.89 203.91 343.122 203.821C342.997 203.874 342.873 203.91 342.748 203.964C341.751 204.302 341.235 204.409 340.522 204.426C340.06 204.444 339.579 204.426 339.116 204.391C338.617 204.337 339.703 204.533 338.867 204.355C338.6 204.302 338.333 204.248 338.065 204.159C337.798 204.07 337.549 203.999 337.3 203.91C337.229 203.892 336.837 203.714 337.193 203.874C336.801 203.696 336.41 203.483 336.036 203.234C335.858 203.109 335.662 203.002 335.484 202.86C335.11 202.575 335.893 203.269 335.306 202.699C334.932 202.326 334.54 201.987 334.202 201.578C334.451 201.88 334.184 201.542 334.131 201.489C333.988 201.275 333.828 201.061 333.703 200.83C333.614 200.688 333.525 200.527 333.436 200.367C333.436 200.367 333.063 199.566 333.258 200.047C333.08 199.637 332.956 199.21 332.849 198.765C332.813 198.587 332.778 198.409 332.724 198.231C332.671 197.91 332.653 197.874 332.689 198.124C332.689 197.981 332.653 197.839 332.653 197.714C332.617 197.287 332.617 196.877 332.653 196.45C332.653 196.45 332.76 195.542 332.671 196.058C332.706 195.88 332.742 195.702 332.778 195.524C332.884 195.079 333.009 194.652 333.152 194.225C333.419 193.477 332.92 194.581 333.312 193.886C333.436 193.655 333.561 193.423 333.686 193.192C333.792 192.996 333.917 192.818 334.042 192.64C334.095 192.551 334.451 192.124 334.184 192.444C334.469 192.106 334.772 191.785 335.092 191.501C335.039 191.554 335.698 190.984 335.43 191.198C335.163 191.412 335.84 190.895 335.804 190.931C336.249 190.628 336.712 190.379 337.193 190.147C337.086 190.201 336.784 190.29 337.3 190.112C337.549 190.023 337.798 189.934 338.065 189.863C338.244 189.809 338.422 189.774 338.6 189.738C338.528 189.738 339.401 189.596 339.063 189.649C338.724 189.702 339.597 189.613 339.543 189.613C339.775 189.613 340.006 189.613 340.255 189.613C340.505 189.613 340.718 189.631 340.95 189.649C341.537 189.685 340.807 189.578 341.324 189.702C341.84 189.827 342.374 189.952 342.89 190.13C343.674 190.397 342.677 190.005 343.104 190.219C343.389 190.361 343.656 190.504 343.923 190.664C344.065 190.753 344.226 190.842 344.368 190.949C344.511 191.038 344.653 191.145 344.795 191.251C344.6 191.109 344.617 191.127 344.867 191.323C345.187 191.625 345.49 191.928 345.793 192.248C346.344 192.818 345.579 191.892 346.024 192.533C346.166 192.747 346.327 192.961 346.451 193.192C346.576 193.423 346.701 193.655 346.825 193.886C347.074 194.349 346.79 193.691 346.985 194.225C347.181 194.759 347.288 195.257 347.413 195.791C347.413 195.863 347.502 196.308 347.448 195.898C347.502 196.272 347.502 196.646 347.502 197.02C347.555 200.456 352.896 200.456 352.843 197.02C352.772 191.625 349.442 186.925 344.404 185.02C339.365 183.115 333.632 184.753 330.356 188.777C327.08 192.8 326.315 198.854 329.11 203.536C331.905 208.219 337.3 210.48 342.588 209.518C348.534 208.45 352.754 202.931 352.843 197.02C352.896 193.584 347.555 193.584 347.502 197.02V197.038Z" fill="#231F20"/>
</g>
<defs>
<linearGradient id="paint0_linear_843_1218" x1="176.672" y1="368.332" x2="424.844" y2="368.332" gradientUnits="userSpaceOnUse">
<stop stop-color="#8DCC9A"/>
<stop offset="1" stop-color="#5DC4C6"/>
</linearGradient>
<clipPath id="clip0_843_1218">
<rect width="248.92" height="245.377" fill="white" transform="translate(176.262 178.042)"/>
</clipPath>
</defs>
</svg>
