<svg width="600" height="600" viewBox="0 0 600 600" fill="none" xmlns="http://www.w3.org/2000/svg">
<g clip-path="url(#clip0_785_1210)">
<path d="M391.609 396.64H186.902C184.205 396.64 181.264 396.309 178.583 396.64C178.462 396.64 178.322 396.64 178.2 396.64L180.811 399.25V278.553L178.2 281.164H382.907C385.605 281.164 388.546 281.494 391.226 281.164C391.348 281.164 391.487 281.164 391.609 281.164L388.999 278.553V399.25C388.999 402.609 394.22 402.609 394.22 399.25V278.553C394.22 277.143 393.019 275.942 391.609 275.942H204.376C195.796 275.942 187.164 275.629 178.583 275.942C178.462 275.942 178.34 275.942 178.2 275.942C176.791 275.942 175.59 277.143 175.59 278.553V399.25C175.59 400.66 176.791 401.861 178.2 401.861H365.451C374.031 401.861 382.663 402.174 391.244 401.861C391.366 401.861 391.487 401.861 391.627 401.861C394.986 401.861 394.986 396.64 391.627 396.64H391.609Z" fill="#221F20"/>
<path d="M357.535 298.15H215.118C215.118 308.366 206.833 316.65 196.617 316.65V365.765C206.833 365.765 215.118 374.049 215.118 384.265H357.535C357.535 374.049 365.82 365.765 376.036 365.765V316.65C365.82 316.65 357.535 308.366 357.535 298.15ZM227.109 351.024C222.288 351.024 218.372 347.108 218.372 342.287C218.372 337.466 222.288 333.55 227.109 333.55C231.93 333.55 235.846 337.466 235.846 342.287C235.846 347.108 231.93 351.024 227.109 351.024ZM288.041 364.181C275.092 364.181 264.597 353.686 264.597 340.738C264.597 327.789 275.092 317.294 288.041 317.294C300.989 317.294 311.484 327.789 311.484 340.738C311.484 353.686 300.989 364.181 288.041 364.181ZM349.477 351.024C344.656 351.024 340.74 347.108 340.74 342.287C340.74 337.466 344.656 333.55 349.477 333.55C354.298 333.55 358.214 337.466 358.214 342.287C358.214 347.108 354.298 351.024 349.477 351.024Z" fill="url(#paint0_linear_785_1210)"/>
<path d="M409.447 276.586C406.036 267.954 402.624 259.321 399.213 250.706C393.748 236.87 388.283 223.051 382.819 209.215C381.565 206.065 380.33 202.897 379.077 199.747C378.607 198.546 377.284 197.363 375.857 197.92C369.383 200.478 362.926 203.037 356.451 205.595L310.07 223.922C291.378 231.301 272.668 238.698 253.976 246.077C237.756 252.482 221.518 258.904 205.297 265.308C197.43 268.406 189.546 271.469 181.714 274.62C181.61 274.672 181.488 274.707 181.384 274.759C178.303 275.977 179.643 281.024 182.776 279.789C189.25 277.23 195.707 274.672 202.182 272.113L248.564 253.787C267.256 246.408 285.965 239.011 304.657 231.632C320.877 225.227 337.115 218.805 353.336 212.4L369.278 206.1C371.732 205.125 374.621 204.394 376.919 203.071C377.023 203.019 377.145 202.984 377.249 202.932L374.029 201.105C377.441 209.737 380.852 218.37 384.263 226.985C389.728 240.821 395.193 254.64 400.658 268.476C401.911 271.626 403.146 274.794 404.4 277.944C405.653 281.094 410.665 279.684 409.429 276.551L409.447 276.586Z" fill="#221F20"/>
<path d="M352.416 229.317L235.426 275.542H390.2L375.981 239.55C366.652 243.24 356.106 238.663 352.416 229.334V229.317Z" fill="#C5D8E3"/>
<path d="M404.416 277.979C408.488 288.282 412.561 298.568 416.616 308.871C417.208 310.368 417.8 311.882 418.409 313.378L420.236 310.159C410.629 313.953 401.022 317.747 391.415 321.541C388.335 322.759 389.675 327.806 392.807 326.571C402.414 322.777 412.021 318.983 421.629 315.189C422.829 314.719 424.013 313.396 423.456 311.969C419.383 301.666 415.311 291.38 411.256 281.077C410.664 279.58 410.072 278.066 409.463 276.569C408.245 273.488 403.198 274.828 404.433 277.961L404.416 277.979Z" fill="#221F20"/>
</g>
<defs>
<linearGradient id="paint0_linear_785_1210" x1="196.617" y1="341.225" x2="376.036" y2="341.225" gradientUnits="userSpaceOnUse">
<stop stop-color="#9BCB9E"/>
<stop offset="1" stop-color="#78C1C4"/>
</linearGradient>
<clipPath id="clip0_785_1210">
<rect width="248.008" height="204.219" fill="white" transform="translate(175.586 197.781)"/>
</clipPath>
</defs>
</svg>
