<svg width="600" height="600" viewBox="0 0 600 600" fill="none" xmlns="http://www.w3.org/2000/svg">
<g clip-path="url(#clip0_785_1382)">
<path d="M388.802 302.973V366.61C388.802 368.024 388.831 369.408 388.492 370.793C387.314 375.492 383.13 379.013 378.269 379.204C376.826 379.263 375.382 379.204 373.939 379.204C365.041 379.204 356.144 379.204 347.247 379.204C333.414 379.204 319.582 379.204 305.765 379.204C291.947 379.204 277.173 379.204 262.869 379.204H223.98C218.485 379.204 213.58 376.14 212.299 370.543C211.606 367.493 212.048 363.914 212.048 360.82V302.958C212.048 300.115 207.629 300.115 207.629 302.958V367.11C207.629 374.49 211.827 381.311 219.296 383.152C221.608 383.727 223.951 383.624 226.307 383.624H294.908C309.492 383.624 324.06 383.624 338.644 383.624H370.256C372.569 383.624 374.881 383.624 377.194 383.624C384.029 383.609 390.128 379.69 392.426 373.121C393.648 369.6 393.236 365.446 393.236 361.778V302.973C393.236 300.13 388.817 300.13 388.817 302.973H388.802Z" fill="#221F20"/>
<path d="M390.041 298.524C376.577 302.502 363.128 306.479 349.664 310.456C334.285 315.008 318.936 319.604 303.542 324.097C299.3 325.334 295.278 323.566 291.213 322.373C282.993 319.957 274.773 317.542 266.554 315.126C248.995 309.955 231.421 304.8 213.862 299.629C212.595 299.261 211.313 298.907 210.061 298.51C207.041 297.567 204.67 295.225 203.815 292.161C203.432 290.805 203.477 289.45 203.477 288.051C203.477 279.463 203.447 270.875 203.477 262.287C203.491 256.984 207.174 252.609 212.669 252.506C213.39 252.506 214.112 252.506 214.849 252.506H385.033C385.813 252.506 386.594 252.506 387.375 252.506C392.722 252.609 396.552 256.822 396.581 262.08C396.626 270.61 396.581 279.153 396.581 287.682C396.581 288.699 396.655 289.745 396.537 290.761C396.125 294.429 393.517 297.405 390.041 298.524C387.345 299.393 388.494 303.651 391.219 302.781C397.465 300.778 401.001 295.298 401.001 288.876V262.684C401.001 256.925 398.305 251.622 392.84 249.235C389.29 247.689 385.209 248.086 381.424 248.086H240.804C231.436 248.086 222.037 247.895 212.669 248.086C205.126 248.248 199.205 254.214 199.057 261.727C198.999 265.115 199.057 268.518 199.057 271.921V286.813C199.057 291.645 199.617 296.285 203.491 299.762C205.672 301.721 208.205 302.59 210.916 303.385L218.988 305.757C228.165 308.453 237.357 311.148 246.534 313.859C262.871 318.661 279.207 323.463 295.544 328.266C298.445 329.12 301.347 329.326 304.308 328.487C305.988 328.015 307.652 327.5 309.317 326.999C317.522 324.568 325.727 322.152 333.932 319.722C351.888 314.404 369.86 309.101 387.817 303.783C388.951 303.444 390.085 303.106 391.219 302.781C393.945 301.971 392.781 297.714 390.041 298.524Z" fill="#221F20"/>
<path d="M339.706 247.968H319.451V239.808C319.451 237.686 317.727 235.963 315.606 235.963H283.803C281.681 235.963 279.958 237.686 279.958 239.808V247.968H259.703V239.808C259.688 226.521 270.501 215.708 283.803 215.708H315.606C328.893 215.708 339.72 226.521 339.72 239.822V247.983L339.706 247.968Z" fill="url(#paint0_linear_785_1382)"/>
<path d="M267.439 311.605C267.439 305.869 262.793 301.22 257.061 301.22C251.33 301.22 246.684 305.869 246.684 311.605V324.936C246.684 330.672 251.33 335.321 257.061 335.321C262.793 335.321 267.439 330.672 267.439 324.936V311.605Z" fill="#C5D8E3"/>
<path d="M355.674 311.605C355.674 305.869 351.027 301.22 345.296 301.22C339.564 301.22 334.918 305.869 334.918 311.605V324.936C334.918 330.672 339.564 335.321 345.296 335.321C351.027 335.321 355.674 330.672 355.674 324.936V311.605Z" fill="#C5D8E3"/>
</g>
<defs>
<linearGradient id="paint0_linear_785_1382" x1="259.688" y1="231.838" x2="339.706" y2="231.838" gradientUnits="userSpaceOnUse">
<stop stop-color="#9BCB9E"/>
<stop offset="1" stop-color="#78C1C4"/>
</linearGradient>
<clipPath id="clip0_785_1382">
<rect width="201.973" height="167.93" fill="white" transform="translate(199.027 215.708)"/>
</clipPath>
</defs>
</svg>
