<svg width="84" height="94" viewBox="0 0 84 94" fill="none" xmlns="http://www.w3.org/2000/svg">
<g clip-path="url(#clip0_434_9852)">
<path d="M39.0659 93.2518C60.246 93.2518 77.4159 74.5077 77.4159 51.3858C77.4159 28.2639 60.246 9.5199 39.0659 9.5199C17.8857 9.5199 0.71582 28.2639 0.71582 51.3858C0.71582 74.5077 17.8857 93.2518 39.0659 93.2518Z" fill="#4776C4"/>
<path d="M39.0663 93.306C17.9169 93.306 0.662109 74.4826 0.662109 51.386C0.662109 28.2894 17.9169 9.46594 39.0663 9.46594C60.2156 9.46594 77.4704 28.2894 77.4704 51.386C77.4704 74.4826 60.2697 93.306 39.0663 93.306ZM39.0663 9.62821C17.971 9.62821 0.82438 28.3435 0.82438 51.386C0.82438 74.4285 17.971 93.1437 39.0663 93.1437C60.1615 93.1437 77.3082 74.4285 77.3082 51.386C77.3082 28.3435 60.1615 9.62821 39.0663 9.62821Z" fill="#0565AD"/>
<path d="M44.2046 93.6302C65.564 93.6302 82.8792 74.7167 82.8792 51.3857C82.8792 28.0546 65.564 9.14111 44.2046 9.14111C22.8452 9.14111 5.53003 28.0546 5.53003 51.3857C5.53003 74.7167 22.8452 93.6302 44.2046 93.6302Z" fill="#6E94D0"/>
<path d="M44.2056 93.7383C22.8399 93.7383 5.42285 74.7526 5.42285 51.4397C5.42285 28.1267 22.8399 9.08691 44.2056 9.08691C65.5713 9.08691 82.9884 28.0726 82.9884 51.3856C82.9884 74.6985 65.6254 93.6842 44.2056 93.6842V93.7383ZM44.2056 9.1951C22.894 9.1951 5.58512 28.1267 5.58512 51.3856C5.58512 74.6444 22.894 93.576 44.2056 93.576C65.5172 93.576 82.8261 74.6444 82.8261 51.3856C82.8261 28.1267 65.5172 9.1951 44.2056 9.1951Z" fill="#0565AD"/>
<path d="M75.5769 26.0714C73.5214 27.7482 70.9251 28.7759 68.1665 28.7759C61.3511 28.7759 55.7798 22.7178 55.7798 15.3074C55.7798 13.9551 55.9421 12.657 56.3207 11.4129C56.3748 11.1424 63.1902 13.901 67.0847 17.0383C70.9792 20.2296 73.7378 23.5291 75.5769 26.0714Z" fill="#223838"/>
<path d="M69.7352 27.1534C76.5463 27.1534 82.0678 21.1234 82.0678 13.6849C82.0678 6.24648 76.5463 0.216431 69.7352 0.216431C62.9241 0.216431 57.4026 6.24648 57.4026 13.6849C57.4026 21.1234 62.9241 27.1534 69.7352 27.1534Z" fill="#6E94D0"/>
<path d="M69.7352 27.2615C62.8657 27.2615 57.2944 21.2034 57.2944 13.6848C57.2944 6.16627 62.9198 0.108154 69.7352 0.108154C76.5506 0.108154 82.176 6.16627 82.176 13.6848C82.176 21.2034 76.6047 27.2615 69.7352 27.2615ZM69.7352 0.270425C62.9739 0.270425 57.4567 6.27445 57.4567 13.6848C57.4567 21.0952 62.9739 27.0992 69.7352 27.0992C76.4965 27.0992 82.0137 21.0952 82.0137 13.6848C82.0137 6.27445 76.5506 0.270425 69.7352 0.270425Z" fill="#0565AD"/>
<path d="M71.4121 27.3155C78.3128 27.3155 83.907 21.2128 83.907 13.6847C83.907 6.15666 78.3128 0.0539551 71.4121 0.0539551C64.5114 0.0539551 58.9172 6.15666 58.9172 13.6847C58.9172 21.2128 64.5114 27.3155 71.4121 27.3155Z" fill="#E9EFF8"/>
<path d="M71.4122 27.3697C64.4887 27.3697 58.8633 21.2034 58.8633 13.6849C58.8633 6.1663 64.4887 0 71.4122 0C78.3358 0 83.9612 6.11221 83.9612 13.6849C83.9612 21.2575 78.3358 27.3697 71.4122 27.3697ZM71.4122 0.162271C64.5969 0.162271 59.0256 6.22039 59.0256 13.6849C59.0256 21.1493 64.5969 27.2615 71.4122 27.2615C78.2276 27.2615 83.7989 21.2034 83.7989 13.6849C83.7989 6.1663 78.2276 0.162271 71.4122 0.162271Z" fill="#0565AD"/>
<path d="M37.3351 57.444C38.5251 57.444 39.6069 58.1472 40.1478 59.229C40.7969 60.5272 42.1492 61.3385 43.9882 61.3385C46.4764 61.3385 48.0991 60.0944 48.0991 57.9849C48.0991 54.9559 44.7996 54.7395 42.9064 54.5772C37.0647 54.1445 31.2229 51.0073 31.2229 43.1642C31.2229 35.8079 36.2533 31.2643 43.7719 31.2643C50.1004 31.2643 54.5358 34.672 55.7799 40.0269C56.1586 41.8119 54.8063 43.5428 52.9672 43.5428H49.7218C48.5859 43.5428 47.6123 42.8396 47.1796 41.7578C46.6927 40.5137 45.5028 39.7024 43.9341 39.7024C41.7164 39.7024 40.3642 41.0005 40.3642 43.1101C40.3642 44.7869 41.6083 45.9228 44.475 46.3014C51.2904 47.0046 57.2945 48.9518 57.2945 58.0931C57.2945 65.2871 52.0477 69.8307 44.1505 69.8307C37.5515 69.8307 32.8456 66.5853 31.4393 61.3385C30.8984 59.3913 32.3588 57.4981 34.4142 57.4981H37.3892L37.3351 57.444Z" fill="#223838"/>
<path d="M46.6929 34.6178H40.0398V29.1006C40.0398 27.6942 41.1757 26.5583 42.582 26.5583H44.0966C45.5029 26.5583 46.6388 27.6942 46.6388 29.1006V34.6178H46.6929Z" fill="#223838"/>
<path d="M44.3129 73.6168H42.4198C41.1216 73.6168 40.0398 72.535 40.0398 71.2369V65.5574H46.6929V71.2369C46.6929 72.535 45.6111 73.6168 44.3129 73.6168Z" fill="#223838"/>
<path d="M40.5814 57.444C41.7714 57.444 42.8532 58.1472 43.3941 59.229C44.0432 60.5272 45.3955 61.3385 47.2346 61.3385C49.7227 61.3385 51.3454 60.0944 51.3454 57.9849C51.3454 54.9559 48.0459 54.7395 46.1528 54.5772C40.311 54.1445 34.4692 51.0073 34.4692 43.1642C34.4692 35.8079 39.4996 31.2643 47.0182 31.2643C53.3468 31.2643 57.7822 34.672 59.0263 40.0269C59.4049 41.8119 58.0526 43.5428 56.2136 43.5428H52.9681C51.8322 43.5428 50.8586 42.8396 50.4259 41.7578C49.9391 40.5137 48.7491 39.7024 47.1805 39.7024C44.9628 39.7024 43.6105 41.0005 43.6105 43.1101C43.6105 44.7869 44.8546 45.9228 47.7214 46.3014C54.5368 47.0046 60.5408 48.9518 60.5408 58.0931C60.5408 65.2871 55.294 69.8307 47.3968 69.8307C40.7978 69.8307 36.0919 66.5853 34.6856 61.3385C34.1447 59.3913 35.6051 57.4981 37.6606 57.4981H40.6355L40.5814 57.444Z" fill="white"/>
<path d="M49.938 34.6178H43.2849V29.1006C43.2849 27.6942 44.4208 26.5583 45.8272 26.5583H47.3417C48.748 26.5583 49.8839 27.6942 49.8839 29.1006V34.6178H49.938Z" fill="white"/>
<path d="M47.5581 73.6168H45.6649C44.3667 73.6168 43.2849 72.535 43.2849 71.2369V65.5574H49.938V71.2369C49.938 72.535 48.8562 73.6168 47.5581 73.6168Z" fill="white"/>
</g>
<defs>
<clipPath id="clip0_434_9852">
<rect width="83.2992" height="93.7386" fill="white" transform="translate(0.662109)"/>
</clipPath>
</defs>
</svg>
