<svg width="91" height="84" viewBox="0 0 91 84" fill="none" xmlns="http://www.w3.org/2000/svg">
<g clip-path="url(#clip0_434_9983)">
<path d="M79.6619 83.5679H18.4967C14.3699 83.5679 10.7589 79.8832 9.72723 74.5773L0.884066 28.2981C-0.368715 21.6658 3.46332 15.1808 8.62183 15.1808H70.0081C73.9875 15.1808 77.5248 18.7917 78.4828 23.8766L87.3997 70.4505C88.6524 77.0829 84.8204 83.5679 79.6619 83.5679Z" fill="#0565AD"/>
<path d="M80.6937 83.1991H21.9604C17.981 83.1991 14.5174 79.5144 13.5594 74.2085L5.01099 28.0767C3.75821 21.4443 7.44286 14.9594 12.454 14.9594H71.4821C75.3141 14.9594 78.704 18.4966 79.5883 23.6551L88.1367 70.1554C89.3895 76.7878 85.7048 83.2728 80.6937 83.2728V83.1991Z" fill="#A8CDD0"/>
<path d="M80.6932 82.9784H28.3712C26.2341 82.9784 24.0233 82.9784 21.8862 82.9784C17.8331 82.9784 15.1065 79.22 14.0748 75.6091C13.78 74.6511 13.6326 73.6194 13.4852 72.6614C11.7166 63.0813 9.94796 53.5012 8.17933 43.9211L5.74746 30.7301C5.60007 29.8457 5.45269 28.9614 5.23161 28.1508C4.56837 24.5399 5.23161 20.3394 7.81086 17.539C9.21103 15.9915 10.906 15.3282 12.8957 15.3282H70.8184C72.7344 15.3282 74.4293 15.8441 75.8295 17.1706C77.8192 19.0129 78.8509 21.5184 79.2931 24.1714C80.9143 32.8672 82.4619 41.5629 84.0831 50.185C84.9674 55.1224 85.9254 60.1336 86.8097 65.071C87.3993 68.3135 88.3573 71.7034 87.8414 74.9459C87.2519 78.6305 84.82 82.9047 80.6195 82.9784C80.2511 82.9784 80.2511 83.5679 80.6195 83.5679C84.3779 83.5679 86.9571 80.2517 87.9888 76.9356C88.7258 74.5774 88.7258 72.0718 88.2836 69.64L86.3676 59.3966L80.5458 27.7087C79.8826 24.0977 79.4404 20.3394 76.9349 17.4653C75.3873 15.7704 73.3976 14.8124 71.1868 14.8124C70.2288 14.8124 69.2708 14.8124 68.3128 14.8124H12.8957C6.48439 14.8124 3.83144 22.2554 4.64207 27.7087C5.01053 30.2879 5.60007 32.8672 6.04223 35.3727L12.0114 67.5766C12.5272 70.2295 12.822 72.9561 13.5589 75.5354C14.5169 79.0727 16.9488 82.7573 20.8545 83.4942C21.6651 83.6416 22.5495 83.5679 23.3601 83.5679H80.8406C80.8406 83.5679 81.2091 82.9784 80.8406 82.9784H80.6932Z" fill="#0565AD"/>
<path d="M49.0791 46.2056C52.7828 46.2056 55.7852 43.3681 55.7852 39.868C55.7852 36.3678 52.7828 33.5304 49.0791 33.5304C45.3755 33.5304 42.373 36.3678 42.373 39.868C42.373 43.3681 45.3755 46.2056 49.0791 46.2056Z" fill="white"/>
<path d="M55.5637 39.8678C55.5637 42.5208 53.7214 44.7316 51.2896 45.5422C48.8577 46.3528 45.91 45.6896 44.1413 43.6998C42.3727 41.7101 42.2253 38.9835 43.5518 36.7727C44.952 34.4882 47.7523 33.3828 50.4052 33.8987C53.2793 34.4145 55.5637 36.8464 55.5637 39.8678C55.5637 40.2363 56.1533 40.2363 56.0796 39.8678C56.0796 36.9938 54.1636 34.5619 51.4369 33.6776C48.7103 32.7933 45.4678 33.5302 43.5518 35.8147C41.6358 38.0992 41.5621 41.0469 43.1096 43.4051C44.6572 45.7633 47.6786 46.9423 50.4789 46.4265C53.574 45.8369 56.0059 43.184 56.0796 39.9415C56.0796 39.573 55.5637 39.573 55.5637 39.9415V39.8678Z" fill="#0565AD"/>
<path d="M62.5646 61.1651C62.5646 54.6064 56.964 49.3005 50.0368 49.3005C43.1097 49.3005 37.509 54.6064 37.509 61.1651H62.6383H62.5646Z" fill="white"/>
<path d="M62.8598 61.239C62.8598 56.0805 59.3225 51.5852 54.5324 49.8903C49.5213 48.1217 43.6259 49.5218 40.1623 53.5013C38.32 55.6383 37.2883 58.365 37.2146 61.239C37.2146 61.3864 37.362 61.5338 37.5094 61.5338H62.6387C62.6387 61.5338 63.0071 60.9442 62.6387 60.9442H37.5094L37.8041 61.239C37.8041 56.3016 41.194 51.9537 45.8367 50.4061C50.4793 48.8586 56.08 50.0377 59.3962 53.796C61.2385 55.8594 62.2702 58.5124 62.3439 61.3127C62.3439 61.6812 62.9334 61.6812 62.9334 61.3127L62.8598 61.239Z" fill="#0565AD"/>
<path d="M42.586 66.7844C42.5974 66.0926 41.9468 65.521 41.1329 65.5076C40.319 65.4943 39.6501 66.0442 39.6387 66.736C39.6274 67.4278 40.2779 67.9995 41.0918 68.0128C41.9057 68.0262 42.5747 67.4762 42.586 66.7844Z" fill="#0565AD"/>
<path d="M52.7738 66.9362C52.7851 66.2444 52.1346 65.6728 51.3207 65.6595C50.5068 65.6461 49.8378 66.1961 49.8265 66.8879C49.8151 67.5797 50.4657 68.1513 51.2796 68.1647C52.0934 68.178 52.7624 67.628 52.7738 66.9362Z" fill="#0565AD"/>
<path d="M62.9632 67.0876C62.9746 66.3958 62.324 65.8242 61.5101 65.8108C60.6963 65.7975 60.0273 66.3475 60.0159 67.0393C60.0046 67.7311 60.6551 68.3027 61.469 68.316C62.2829 68.3294 62.9519 67.7794 62.9632 67.0876Z" fill="#0565AD"/>
<path d="M69.9344 36.5515C79.9465 36.5515 88.0629 28.4351 88.0629 18.423C88.0629 8.41095 79.9465 0.294556 69.9344 0.294556C59.9223 0.294556 51.8059 8.41095 51.8059 18.423C51.8059 28.4351 59.9223 36.5515 69.9344 36.5515Z" fill="#0565AD"/>
<path d="M51.364 18.4232C51.364 26.0873 56.3015 33.1618 63.5234 35.7411C70.7453 38.3203 79.1463 36.0359 84.01 29.993C88.8738 23.9502 89.4633 15.4018 85.4102 8.84315C81.3571 2.28447 73.693 -1.10541 66.1763 0.368454C57.6279 2.06339 51.4377 9.72746 51.364 18.4232C51.364 18.7917 51.8799 18.7917 51.8799 18.4232C51.8799 10.9802 56.5962 4.20049 63.6708 1.62123C70.6716 -0.884327 78.7041 1.32646 83.4942 7.00082C88.2842 12.6752 88.8738 21.2236 84.968 27.6349C81.0623 34.0461 73.4719 37.3623 66.1763 35.8148C57.9227 34.1198 51.9536 26.6768 51.8799 18.3495C51.8799 17.9811 51.2903 17.9811 51.364 18.3495V18.4232Z" fill="#0565AD"/>
<path d="M71.9981 36.8465C82.0509 36.8465 90.2002 28.6971 90.2002 18.6443C90.2002 8.59153 82.0509 0.442139 71.9981 0.442139C61.9453 0.442139 53.7959 8.59153 53.7959 18.6443C53.7959 28.6971 61.9453 36.8465 71.9981 36.8465Z" fill="#AACD76"/>
<path d="M90.0525 18.6441C90.0525 26.0871 85.2624 33.0142 78.1879 35.5198C71.1134 38.0254 63.0808 35.8146 58.2171 30.0665C53.3534 24.3185 52.7638 15.7701 56.7433 9.28509C60.7227 2.80011 68.3867 -0.442385 75.756 1.10517C84.0833 2.80011 90.0525 10.2431 90.1262 18.7178C90.1262 19.0863 90.7157 19.0863 90.7157 18.7178C90.7157 10.98 85.7783 3.9055 78.4827 1.32625C71.1871 -1.25301 62.7124 1.03147 57.8486 7.0743C52.9849 13.1171 52.3954 21.7392 56.4485 28.3716C60.5016 35.0039 68.3131 38.3938 75.9034 36.92C84.5255 35.225 90.7157 27.4873 90.7894 18.7915C90.7894 18.423 90.2736 18.423 90.1999 18.7915L90.0525 18.6441Z" fill="#0565AD"/>
<path d="M65.6599 19.2337L67.5022 17.6862L70.8184 20.7076L76.8613 13.1172C76.8613 13.1172 79.7353 13.8541 79.5879 16.4334C79.5879 16.4334 71.5554 24.7607 70.9658 24.4659C70.3763 24.1711 65.6599 19.16 65.6599 19.16V19.2337Z" fill="white"/>
</g>
<defs>
<clipPath id="clip0_434_9983">
<rect width="89.9791" height="83.5678" fill="white" transform="translate(0.662109)"/>
</clipPath>
</defs>
</svg>
