<svg width="600" height="600" viewBox="0 0 600 600" fill="none" xmlns="http://www.w3.org/2000/svg">
<g clip-path="url(#clip0_785_1308)">
<path d="M209.656 257.283C209.656 247.316 209.511 237.329 209.656 227.341C209.78 218.263 216.542 210.281 225.703 209.206C230.624 208.627 235.814 209.103 240.756 209.103H257.754C261.745 209.103 261.745 202.899 257.754 202.899H242.287C237.014 202.899 231.658 202.61 226.406 202.94C215.88 203.644 206.575 211.253 204.135 221.592C202.853 227.051 203.453 233.172 203.453 238.735V257.283C203.453 261.274 209.656 261.274 209.656 257.283Z" fill="url(#paint0_linear_785_1308)"/>
<path d="M380.629 257.283V241.775C380.629 236.502 380.919 231.125 380.588 225.852C379.906 215.327 372.296 206.022 361.957 203.582C356.498 202.299 350.398 202.899 344.856 202.899H326.349C322.358 202.899 322.358 209.103 326.349 209.103C336.295 209.103 346.262 208.958 356.208 209.103C365.286 209.227 373.268 215.989 374.343 225.149C374.922 230.071 374.447 235.282 374.447 240.244V257.283C374.447 261.274 380.65 261.274 380.65 257.283H380.629Z" fill="url(#paint1_linear_785_1308)"/>
<path d="M201.677 322.255V338.302C201.677 343.761 201.367 349.303 201.719 354.762C202.442 365.659 210.3 375.275 221.011 377.756C226.636 379.059 232.943 378.418 238.671 378.418H257.736C261.727 378.418 261.727 372.214 257.736 372.214C247.438 372.214 237.12 372.359 226.822 372.214C217.145 372.069 208.584 364.605 207.922 354.762C207.591 349.819 207.881 344.774 207.881 339.832V322.255C207.881 318.264 201.677 318.264 201.677 322.255Z" fill="url(#paint2_linear_785_1308)"/>
<path d="M374.423 324.364C374.423 334.331 374.568 344.319 374.423 354.307C374.299 363.385 367.537 371.366 358.377 372.442C353.455 373.021 348.265 372.545 343.323 372.545H326.325C322.334 372.545 322.334 378.749 326.325 378.749H341.793C347.066 378.749 352.421 379.038 357.674 378.707C368.199 378.025 377.504 370.415 379.944 360.076C381.226 354.617 380.627 348.496 380.627 342.934V324.385C380.627 320.394 374.423 320.394 374.423 324.385V324.364Z" fill="url(#paint3_linear_785_1308)"/>
<path d="M264.915 273.743C253.315 273.743 241.714 273.805 230.113 273.743C227.053 273.743 224.22 272.523 223.207 269.36C222.649 267.643 222.917 265.472 222.917 263.694V241.63C222.917 237.287 221.47 229.471 225.647 226.576C227.549 225.253 229.824 225.501 232.016 225.501H262.641C264.853 225.501 267.004 225.397 268.865 226.886C271.119 228.685 271.181 231.187 271.181 233.772V257.139C271.181 262.618 273.145 273.433 264.915 273.743C260.945 273.888 260.924 280.092 264.915 279.947C271.222 279.719 276.536 275.253 277.281 268.863C277.508 266.878 277.384 264.831 277.384 262.825V238.528C277.384 236.295 277.446 234.062 277.384 231.828C277.24 226.411 273.993 221.634 268.761 219.897C266.383 219.09 263.778 219.277 261.297 219.277H250.13C243.286 219.277 236.441 219.194 229.597 219.277C224.861 219.339 220.415 221.634 218.182 225.935C216.776 228.602 216.735 231.394 216.735 234.289V257.821C216.735 264.479 215.515 272.42 221.367 277.135C226.474 281.229 234.621 279.926 240.742 279.926H264.936C268.927 279.926 268.927 273.723 264.936 273.723L264.915 273.743Z" fill="#221F20"/>
<path d="M308.13 225.501H349.569C351.596 225.501 353.953 225.232 355.835 226.121C358.978 227.589 359.495 230.587 359.495 233.648V276.866C359.495 280.857 365.699 280.857 365.699 276.866V234.206C365.699 230.918 365.492 227.734 363.548 224.88C360.943 221.034 356.807 219.318 352.278 219.297C344.793 219.256 337.328 219.297 329.842 219.297H308.13C304.139 219.297 304.139 225.501 308.13 225.501Z" fill="#221F20"/>
<path d="M339.833 290.741C328.233 290.741 316.632 290.803 305.031 290.741C301.971 290.741 299.138 289.521 298.125 286.357C297.567 284.641 297.835 282.47 297.835 280.691V258.627C297.835 254.285 296.388 246.469 300.565 243.574C302.467 242.25 304.742 242.498 306.934 242.498H337.559C339.771 242.498 341.922 242.395 343.783 243.884C346.037 245.683 346.099 248.185 346.099 250.77V274.136C346.099 279.616 348.063 290.431 339.833 290.741C335.863 290.886 335.842 297.089 339.833 296.944C346.14 296.717 351.454 292.25 352.199 285.861C352.426 283.876 352.302 281.829 352.302 279.823V255.526C352.302 253.292 352.364 251.059 352.302 248.826C352.158 243.408 348.911 238.631 343.679 236.894C341.301 236.088 338.696 236.274 336.214 236.274H325.048C318.204 236.274 311.359 236.191 304.514 236.274C299.779 236.336 295.333 238.631 293.1 242.933C291.694 245.6 291.653 248.392 291.653 251.287V274.819C291.653 281.477 290.432 289.418 296.284 294.132C301.392 298.227 309.539 296.924 315.66 296.924H339.854C343.845 296.924 343.845 290.72 339.854 290.72L339.833 290.741Z" fill="#221F20"/>
<path d="M346.092 305.402V312.929C346.092 315.328 346.836 319.174 343.507 319.525C340.178 319.877 336.601 319.525 333.23 319.525H312.965C308.891 319.525 304.652 319.856 300.599 319.525C297.456 319.277 297.829 316.465 297.829 314.107V305.402C297.829 301.411 291.625 301.411 291.625 305.402V314.107C291.625 317.933 291.832 321.552 295.285 324.054C299.028 326.763 305.438 325.729 309.801 325.729H331.865C336.104 325.729 340.84 326.328 345.037 325.584C354.363 323.909 352.275 312.288 352.275 305.402C352.275 301.411 346.071 301.411 346.071 305.402H346.092Z" fill="#221F20"/>
<path d="M264.915 359.228C253.315 359.228 241.714 359.29 230.113 359.228C227.053 359.228 224.22 358.008 223.207 354.844C222.649 353.128 222.917 350.957 222.917 349.178V327.114C222.917 322.772 221.47 314.956 225.647 312.061C227.549 310.737 229.824 310.985 232.016 310.985H262.641C264.853 310.985 267.004 310.882 268.865 312.371C271.119 314.17 271.181 316.672 271.181 319.257V342.623C271.181 348.103 273.145 358.918 264.915 359.228C260.945 359.373 260.924 365.576 264.915 365.432C271.222 365.204 276.536 360.738 277.281 354.348C277.508 352.363 277.384 350.316 277.384 348.31V324.013C277.384 321.779 277.446 319.546 277.384 317.313C277.24 311.895 273.993 307.118 268.761 305.381C266.383 304.575 263.778 304.761 261.297 304.761H250.13C243.286 304.761 236.441 304.678 229.597 304.761C224.861 304.823 220.415 307.118 218.182 311.42C216.776 314.087 216.735 316.879 216.735 319.774V343.306C216.735 349.964 215.515 357.905 221.367 362.619C226.474 366.714 234.621 365.411 240.742 365.411H264.936C268.927 365.411 268.927 359.207 264.936 359.207L264.915 359.228Z" fill="#221F20"/>
<path d="M365.676 312.723V287.619C365.676 283.628 359.473 283.628 359.473 287.619V312.723C359.473 316.713 365.676 316.713 365.676 312.723Z" fill="#221F20"/>
<path d="M308.129 365.887H341.276C345.205 365.887 349.155 366.011 353.084 365.887C358.108 365.721 362.637 362.93 364.643 358.236C365.759 355.63 365.677 353.004 365.677 350.254V331.395C365.677 327.404 359.473 327.404 359.473 331.395V346.842C359.473 352.011 360.321 359.373 353.042 359.683C342.434 360.138 331.723 359.683 321.115 359.683H308.149C304.159 359.683 304.159 365.887 308.149 365.887H308.129Z" fill="#221F20"/>
<path d="M218.759 294.215H274.818C278.809 294.215 278.809 288.011 274.818 288.011H218.759C214.768 288.011 214.768 294.215 218.759 294.215Z" fill="#221F20"/>
<path d="M294.646 347.834H350.705C354.696 347.834 354.696 341.63 350.705 341.63H294.646C290.655 341.63 290.655 347.834 294.646 347.834Z" fill="#221F20"/>
<path d="M285.902 366.031H297.585C299.198 366.031 300.77 364.604 300.687 362.929C300.604 361.254 299.322 359.828 297.585 359.828H285.902C284.289 359.828 282.717 361.254 282.8 362.929C282.883 364.604 284.165 366.031 285.902 366.031Z" fill="#221F20"/>
<path d="M357.716 398C380.477 398 398.928 379.549 398.928 356.788C398.928 334.027 380.477 315.576 357.716 315.576C334.955 315.576 316.504 334.027 316.504 356.788C316.504 379.549 334.955 398 357.716 398Z" fill="#C5D8E3"/>
<path d="M336.994 358.732C340.861 362.598 344.728 366.465 348.595 370.332C349.856 371.594 351.697 371.407 352.979 370.332C361.312 363.302 369.625 356.271 377.958 349.261C379.158 348.248 380.336 347.255 381.536 346.242C384.596 343.657 380.191 339.294 377.152 341.858C368.818 348.889 360.506 355.919 352.172 362.929C350.973 363.943 349.794 364.935 348.595 365.948H352.979C349.112 362.081 345.245 358.215 341.378 354.348C338.545 351.515 334.161 355.899 336.994 358.732Z" fill="#221F20"/>
</g>
<defs>
<linearGradient id="paint0_linear_785_1308" x1="205.52" y1="231.539" x2="257.754" y2="231.539" gradientUnits="userSpaceOnUse">
<stop stop-color="#9BCB9E"/>
<stop offset="1" stop-color="#78C1C4"/>
</linearGradient>
<linearGradient id="paint1_linear_785_1308" x1="326.349" y1="231.518" x2="378.562" y2="231.518" gradientUnits="userSpaceOnUse">
<stop stop-color="#9BCB9E"/>
<stop offset="1" stop-color="#78C1C4"/>
</linearGradient>
<linearGradient id="paint2_linear_785_1308" x1="203.745" y1="348.91" x2="257.757" y2="348.91" gradientUnits="userSpaceOnUse">
<stop stop-color="#9BCB9E"/>
<stop offset="1" stop-color="#78C1C4"/>
</linearGradient>
<linearGradient id="paint3_linear_785_1308" x1="326.346" y1="350.13" x2="378.559" y2="350.13" gradientUnits="userSpaceOnUse">
<stop stop-color="#9BCB9E"/>
<stop offset="1" stop-color="#78C1C4"/>
</linearGradient>
<clipPath id="clip0_785_1308">
<rect width="197.355" height="195.245" fill="white" transform="translate(201.559 202.755)"/>
</clipPath>
</defs>
</svg>
