<svg width="233" height="185" viewBox="0 0 233 185" fill="none" xmlns="http://www.w3.org/2000/svg">
<path d="M179.943 172.71C208.829 172.71 232.246 168.452 232.246 163.199C232.246 157.946 208.829 153.688 179.943 153.688C151.056 153.688 127.639 157.946 127.639 163.199C127.639 168.452 151.056 172.71 179.943 172.71Z" fill="#273738"/>
<path d="M58.4271 153.466L86.3473 145.574L72.7366 138.773L82.2819 128.98L36.9841 96.867L45.805 92.1199L0.924805 85.958L3.78841 122.597L8.84234 117.637L23.5183 128.418L23.4757 128.426L57.1402 153.832L57.8305 153.636L58.0776 153.824L58.4271 153.466Z" fill="#273738"/>
<path d="M191.611 165.27C209.963 165.27 224.84 150.392 224.84 132.04C224.84 113.688 209.963 98.8103 191.611 98.8103C173.258 98.8103 158.381 113.688 158.381 132.04C158.381 150.392 173.258 165.27 191.611 165.27Z" fill="#BF8B0A"/>
<path d="M223.153 122.631C227.005 135.773 222.266 150.295 211.221 158.477C200.141 166.684 184.733 167.025 173.287 159.372C161.815 151.702 156.275 137.179 159.736 123.816C163.196 110.452 174.974 100.446 188.738 99.2362C202.178 98.0516 215.346 105.517 221.235 117.662C222.011 119.264 222.641 120.926 223.161 122.631C223.28 123.023 223.894 122.852 223.775 122.46C219.735 109.114 207.641 99.4067 193.69 98.5374C179.645 97.6595 166.238 105.978 160.741 118.906C155.244 131.835 158.602 147.44 169.093 156.917C179.483 166.301 194.977 168.218 207.36 161.673C219.624 155.187 226.732 141.287 224.866 127.548C224.636 125.827 224.261 124.131 223.775 122.469C223.655 122.077 223.042 122.239 223.161 122.639L223.153 122.631Z" fill="#2B63A8"/>
<path d="M186.395 163.301C204.747 163.301 219.625 148.424 219.625 130.071C219.625 111.719 204.747 96.8414 186.395 96.8414C168.043 96.8414 153.165 111.719 153.165 130.071C153.165 148.424 168.043 163.301 186.395 163.301Z" fill="#FCBC00"/>
<path d="M217.937 120.671C221.789 133.813 217.05 148.336 206.005 156.517C194.926 164.725 179.517 165.066 168.071 157.412C156.599 149.742 151.06 135.219 154.52 121.856C157.98 108.492 169.758 98.4868 183.522 97.2766C197.286 96.0664 210.13 103.558 216.019 115.703C216.795 117.305 217.425 118.967 217.945 120.671C218.065 121.063 218.678 120.893 218.559 120.501C214.519 107.154 202.426 97.4471 188.474 96.5778C174.429 95.6999 161.023 104.018 155.525 116.947C149.994 129.935 153.386 145.481 163.878 154.958C174.267 164.341 189.761 166.259 202.144 159.713C214.408 153.228 221.516 139.327 219.65 125.589C219.42 123.867 219.045 122.171 218.559 120.509C218.44 120.117 217.826 120.279 217.945 120.68L217.937 120.671Z" fill="#2B63A8"/>
<path d="M182.124 131.571L197.78 143.869C197.729 144.074 197.559 144.04 197.44 144.074C195.974 144.423 194.508 144.756 193.042 145.113C192.726 145.19 192.496 145.139 192.241 144.935C187.357 141.091 182.474 137.247 177.582 133.42C177.335 133.224 177.19 133.011 177.13 132.705C177.011 132.108 176.891 131.511 176.712 130.94C176.542 130.412 176.653 130.19 177.224 130.08C178.451 129.832 179.678 129.568 180.863 129.176C182.346 128.682 183.71 127.974 184.783 126.807C185.866 125.631 186.386 124.242 186.3 122.631C186.275 122.145 186.147 122.009 185.636 122.128C182.141 122.972 178.639 123.781 175.136 124.599C174.837 124.668 174.539 124.736 174.122 124.838C174.582 123.619 174.991 122.503 175.408 121.403C175.502 121.156 175.758 121.182 175.954 121.139C178.792 120.466 181.621 119.81 184.46 119.136C184.639 119.094 184.911 119.136 184.954 118.932C184.996 118.744 184.766 118.608 184.63 118.48C183.266 117.108 181.553 116.886 179.747 117.031C177.59 117.202 175.519 117.815 173.423 118.284C173.201 118.335 172.98 118.386 172.622 118.472C173.073 117.253 173.491 116.145 173.9 115.037C173.968 114.858 174.122 114.841 174.275 114.807C180.88 113.256 187.485 111.713 194.082 110.171C194.244 110.341 194.107 110.477 194.056 110.614C193.741 111.475 193.391 112.327 193.11 113.205C192.974 113.614 192.752 113.776 192.343 113.869C190.775 114.21 189.224 114.594 187.579 114.977C187.945 115.335 188.286 115.651 188.593 115.975C189.011 116.418 189.369 116.912 189.616 117.466C189.778 117.824 189.974 117.875 190.349 117.781C192.096 117.347 193.843 116.955 195.735 116.512C195.454 117.27 195.13 117.918 194.976 118.608C194.712 119.793 194.056 120.381 192.846 120.483C192.232 120.534 191.627 120.764 191.013 120.892C190.749 120.952 190.621 121.037 190.63 121.352C190.766 124.787 189.147 127.327 186.496 129.321C185.312 130.207 184.008 130.864 182.602 131.315C182.474 131.358 182.346 131.409 182.218 131.46C182.184 131.477 182.175 131.52 182.124 131.588V131.571Z" fill="white"/>
<path d="M47.3389 63.3644V146.724L63.7109 160.616V59.7849L47.3389 63.3644Z" fill="#819B4B"/>
<path d="M47.0153 63.3645V145.386C47.0153 145.77 46.9216 146.298 47.0153 146.673C47.1517 147.219 47.9272 147.636 48.3363 147.986L53.0578 151.991L62.8504 160.301L63.481 160.838C63.6856 161.008 64.0265 160.906 64.0265 160.608V126.534C64.0265 116.793 64.0265 107.06 64.0265 97.3187C64.0265 88.958 64.0265 80.5973 64.0265 72.2281V63.8844C64.0265 62.6145 64.2055 61.1912 64.0265 59.9299C64.0265 59.8787 64.0265 59.8106 64.0265 59.7594C64.0265 59.5464 63.8219 59.41 63.6259 59.4526L47.2539 63.0406C46.8534 63.1259 47.0238 63.748 47.4244 63.6543L63.7964 60.0662L63.3958 59.7594V69.8417C63.3958 77.836 63.3958 85.8302 63.3958 93.833C63.3958 101.836 63.3958 113.307 63.3958 123.049V159.057C63.3958 159.415 63.2595 160.088 63.3958 160.429C63.4129 160.472 63.3958 160.548 63.3958 160.599L63.9413 160.369L56.3987 153.969L50.8846 149.29L48.8391 147.551C48.5068 147.27 48.0977 146.759 47.6971 146.58C47.4244 146.46 47.663 146.759 47.663 146.605C47.663 146.435 47.663 146.273 47.663 146.102V135.193C47.663 126.023 47.663 116.853 47.663 107.674C47.663 98.4948 47.663 88.4722 47.663 78.8757V68.6145C47.663 66.9611 47.8164 65.2139 47.663 63.5691C47.663 63.4923 47.663 63.4156 47.663 63.3389C47.663 62.9299 47.0238 62.9299 47.0238 63.3389L47.0153 63.3645Z" fill="#2B63A8"/>
<path d="M119.943 66.5008L85.8782 11.828L54.5063 74.12L63.7108 73.0547V160.616L108.676 154.344V67.8132L119.943 66.5008Z" fill="#A5C661"/>
<path d="M120.216 66.3394L108.719 47.8878L90.3784 18.4506L86.1512 11.6581C86.0319 11.4621 85.708 11.4365 85.5972 11.6581L74.995 32.7175L58.0946 66.2712L54.2254 73.9586C54.1316 74.1546 54.2424 74.47 54.4981 74.4359L63.7025 73.362L63.3787 73.0382V102.68C63.3787 111.083 63.3787 119.487 63.3787 127.89C63.3787 135.194 63.3787 142.489 63.3787 149.793V157.037C63.3787 158.137 63.2168 159.364 63.3787 160.455C63.3787 160.506 63.3787 160.557 63.3787 160.608C63.3787 160.838 63.5832 160.941 63.7792 160.915L79.0007 158.793L103.154 155.418L108.736 154.642C108.873 154.625 108.975 154.463 108.975 154.336V125.094C108.975 116.768 108.975 108.441 108.975 100.106C108.975 91.7709 108.975 85.6943 108.975 78.4927V69.1177C108.975 68.828 109.094 68.2314 108.975 67.9587C108.958 67.9246 108.975 67.8479 108.975 67.8053L108.651 68.1291L119.918 66.8166C120.318 66.7655 120.327 66.1263 119.918 66.1774L108.651 67.4899C108.481 67.507 108.327 67.6178 108.327 67.8138V97.055C108.327 105.382 108.327 113.708 108.327 122.043C108.327 129.245 108.327 136.455 108.327 143.657V153.032C108.327 153.33 108.208 153.918 108.327 154.191C108.344 154.225 108.327 154.302 108.327 154.344L108.566 154.037L93.3443 156.16L69.1911 159.534L63.6088 160.31L64.0094 160.617V76.6177C64.0094 75.5183 64.1713 74.291 64.0094 73.2001C64.0094 73.149 64.0094 73.0978 64.0094 73.0467C64.0094 72.8848 63.8645 72.7058 63.6855 72.7228L54.481 73.7967L54.7538 74.274L65.3559 53.2145L82.2563 19.6609L86.1256 11.9734H85.5716L97.0687 30.425L115.409 59.8622L119.637 66.6547C119.85 67.0041 120.404 66.6803 120.191 66.3308L120.216 66.3394Z" fill="#2B63A8"/>
<path d="M64.8106 8.24036L85.8785 11.8284L54.5067 74.1204L35.6802 66.058L64.8106 8.24036Z" fill="#819B4B"/>
<path d="M64.7252 8.5472L83.1427 11.6835L85.7932 12.1352L85.6057 11.6665L75.0035 32.7259L58.1031 66.2796L54.2339 73.967L54.6685 73.8562L38.1943 66.7909L35.8505 65.7853L35.9613 66.2199L45.8135 46.669L61.5037 15.5272L65.0917 8.40231C65.2792 8.03584 64.7252 7.71198 64.5377 8.07845L54.6856 27.6294L38.9954 58.7711L35.4074 65.8961C35.3392 66.0324 35.3562 66.2625 35.5181 66.3307L51.9924 73.396L54.3361 74.4017C54.4895 74.4698 54.6856 74.4528 54.7708 74.2909L65.373 53.2314L82.2734 19.6778L86.1426 11.9903C86.2279 11.8199 86.1682 11.5557 85.9551 11.5216L67.5377 8.38527L64.8872 7.93357C64.4866 7.86539 64.3162 8.47902 64.7167 8.5472H64.7252Z" fill="#2B63A8"/>
<path d="M117.353 56.0945C132.768 56.0945 145.264 43.5981 145.264 28.1829C145.264 12.7677 132.768 0.27124 117.353 0.27124C101.937 0.27124 89.4409 12.7677 89.4409 28.1829C89.4409 43.5981 101.937 56.0945 117.353 56.0945Z" fill="#E0EBC5"/>
<path d="M144.949 28.1831C144.889 39.6461 137.636 50.1801 126.821 54.109C116.006 58.0379 103.546 54.6886 96.1567 45.842C88.7165 36.9444 87.7193 23.9048 93.7022 13.9674C99.6595 4.06406 111.497 -1.16032 122.833 1.12374C133.946 3.3652 142.759 12.5185 144.599 23.7087C144.838 25.1917 144.949 26.6831 144.957 28.1831C144.957 28.5922 145.597 28.5922 145.597 28.1831C145.537 16.4645 138.148 5.76006 127.128 1.68624C116.108 -2.38758 103.06 1.08965 95.5261 10.2856C88.0261 19.4389 87.0546 32.7087 93.2164 42.8336C99.3272 52.8732 111.319 58.1487 122.85 55.8817C134.33 53.6232 143.474 44.1034 145.247 32.5382C145.469 31.0979 145.58 29.6405 145.58 28.1831C145.58 27.774 144.94 27.774 144.94 28.1831H144.949Z" fill="#2B63A8"/>
<path d="M117.489 47.4018C127.647 47.4018 135.881 39.1674 135.881 29.0099C135.881 18.8524 127.647 10.618 117.489 10.618C107.331 10.618 99.0972 18.8524 99.0972 29.0099C99.0972 39.1674 107.331 47.4018 117.489 47.4018Z" fill="#A5C661"/>
<path d="M135.557 29.0101C135.498 36.5356 130.759 43.439 123.643 46.0128C116.535 48.5781 108.421 46.3622 103.589 40.5669C98.7054 34.7203 98.0832 26.1551 102.029 19.6523C105.975 13.1495 113.756 9.76602 121.188 11.3171C129.515 13.0558 135.506 20.5472 135.566 29.0101C135.566 29.4192 136.205 29.4192 136.205 29.0101C136.145 21.229 131.279 14.1467 123.949 11.445C116.535 8.70069 107.935 11.0785 102.967 17.2233C97.998 23.3682 97.427 32.0186 101.484 38.7004C105.523 45.3566 113.441 48.8509 121.077 47.385C129.813 45.7145 136.137 37.8481 136.214 29.0187C136.214 28.6096 135.574 28.6096 135.574 29.0187L135.557 29.0101Z" fill="#2B63A8"/>
<path d="M158.56 174.764C181.153 174.764 199.468 166.518 199.468 156.347C199.468 146.175 181.153 137.929 158.56 137.929C135.966 137.929 117.651 146.175 117.651 156.347C117.651 166.518 135.966 174.764 158.56 174.764Z" fill="#BF8B0A"/>
<path d="M199.145 156.347C199.094 161.102 195.165 164.639 191.415 166.949C185.713 170.452 179.006 172.284 172.443 173.358C164.304 174.688 155.926 174.807 147.745 173.801C140.799 172.94 133.708 171.278 127.486 167.972C123.498 165.85 118.981 162.577 118.103 157.821C117.225 153.066 120.583 149.324 124.086 146.819C129.31 143.086 135.736 141.091 141.966 139.83C150.003 138.211 158.321 137.87 166.477 138.594C173.713 139.233 181.077 140.708 187.699 143.776C192.011 145.77 196.98 148.796 198.65 153.534C198.974 154.446 199.136 155.392 199.145 156.355C199.145 156.764 199.784 156.764 199.784 156.355C199.733 151.625 196.076 148.012 192.361 145.6C186.548 141.824 179.56 139.881 172.784 138.765C164.304 137.358 155.56 137.239 147.037 138.364C139.972 139.293 132.745 141.049 126.481 144.569C122.518 146.793 118.197 150.202 117.447 154.983C116.739 159.466 119.654 163.293 123.02 165.892C128.253 169.932 134.918 172.063 141.31 173.401C149.671 175.148 158.355 175.514 166.852 174.73C174.259 174.04 181.784 172.489 188.525 169.267C192.855 167.196 197.67 164.06 199.298 159.279C199.613 158.341 199.775 157.361 199.784 156.372C199.784 155.963 199.145 155.963 199.145 156.372V156.347Z" fill="#2B63A8"/>
<path d="M158.56 168.525C181.153 168.525 199.468 160.28 199.468 150.108C199.468 139.936 181.153 131.69 158.56 131.69C135.966 131.69 117.651 139.936 117.651 150.108C117.651 160.28 135.966 168.525 158.56 168.525Z" fill="#FCBC00"/>
<path d="M199.145 150.108C199.094 154.864 195.165 158.401 191.415 160.71C185.713 164.213 179.006 166.045 172.443 167.119C164.304 168.449 155.926 168.568 147.745 167.562C140.799 166.702 133.708 165.04 127.486 161.733C123.498 159.611 118.981 156.338 118.103 151.582C117.225 146.827 120.583 143.085 124.086 140.58C129.31 136.847 135.736 134.853 141.966 133.591C150.003 131.972 158.321 131.631 166.477 132.355C173.713 132.995 181.077 134.469 187.699 137.537C192.011 139.531 196.98 142.557 198.65 147.296C198.974 148.208 199.136 149.154 199.145 150.117C199.145 150.526 199.784 150.526 199.784 150.117C199.733 145.387 196.076 141.773 192.361 139.361C186.548 135.585 179.56 133.642 172.784 132.526C164.304 131.12 155.56 131 147.037 132.125C139.972 133.054 132.745 134.81 126.481 138.33C122.518 140.554 118.197 143.963 117.447 148.744C116.739 153.227 119.654 157.054 123.02 159.653C128.253 163.693 134.918 165.824 141.31 167.162C149.671 168.909 158.355 169.275 166.852 168.491C174.259 167.801 181.784 166.25 188.525 163.028C192.855 160.957 197.67 157.821 199.298 153.04C199.613 152.102 199.775 151.122 199.784 150.134C199.784 149.725 199.145 149.725 199.145 150.134V150.108Z" fill="#2B63A8"/>
<path d="M157.417 154.326L173.074 158.741C173.074 158.929 172.92 158.954 172.826 159.022C171.659 159.806 170.491 160.582 169.332 161.366C169.085 161.537 168.88 161.579 168.625 161.502C163.741 160.113 158.858 158.741 153.966 157.369C153.719 157.301 153.557 157.173 153.446 156.951C153.224 156.517 153.011 156.082 152.739 155.681C152.491 155.315 152.534 155.102 152.994 154.812C153.974 154.19 154.954 153.559 155.875 152.835C157.025 151.923 158.031 150.892 158.696 149.588C159.369 148.275 159.531 146.988 159.131 145.736C159.011 145.361 158.875 145.292 158.466 145.565C155.687 147.44 152.9 149.298 150.114 151.164C149.875 151.326 149.645 151.48 149.304 151.701C149.44 150.568 149.568 149.545 149.696 148.514C149.722 148.284 149.952 148.216 150.105 148.113C152.355 146.605 154.614 145.096 156.872 143.579C157.017 143.486 157.256 143.426 157.247 143.247C157.247 143.076 157.025 143.059 156.881 143C155.457 142.369 153.974 142.787 152.474 143.528C150.693 144.406 149.074 145.608 147.403 146.716C147.224 146.835 147.045 146.954 146.764 147.142C146.901 146.017 147.028 144.986 147.148 143.963C147.165 143.801 147.301 143.724 147.42 143.648C152.67 140.136 157.929 136.616 163.17 133.114C163.341 133.19 163.255 133.352 163.238 133.471C163.145 134.273 163.025 135.065 162.957 135.866C162.923 136.241 162.77 136.446 162.446 136.659C161.193 137.469 159.957 138.312 158.653 139.182C159.037 139.344 159.378 139.471 159.71 139.633C160.145 139.846 160.545 140.119 160.869 140.477C161.074 140.707 161.253 140.682 161.542 140.477C162.923 139.531 164.321 138.611 165.821 137.605C165.736 138.312 165.591 138.943 165.599 139.54C165.616 140.571 165.182 141.27 164.184 141.764C163.673 142.02 163.213 142.403 162.727 142.719C162.514 142.855 162.429 142.974 162.497 143.221C163.298 145.915 162.446 148.505 160.613 151.011C159.795 152.128 158.824 153.099 157.733 153.951C157.631 154.028 157.537 154.113 157.443 154.199C157.417 154.216 157.417 154.258 157.383 154.335L157.417 154.326Z" fill="white"/>
<path d="M163.597 157.872C186.19 157.872 204.505 149.626 204.505 139.455C204.505 129.283 186.19 121.037 163.597 121.037C141.003 121.037 122.688 129.283 122.688 139.455C122.688 149.626 141.003 157.872 163.597 157.872Z" fill="#BF8B0A"/>
<path d="M204.19 139.454C204.139 144.21 200.21 147.747 196.46 150.057C190.758 153.559 184.051 155.392 177.489 156.466C169.35 157.795 160.972 157.915 152.79 156.909C145.844 156.048 138.753 154.386 132.532 151.079C128.543 148.957 124.026 145.685 123.148 140.929C122.27 136.173 125.628 132.432 129.131 129.926C134.356 126.193 140.782 124.199 147.012 122.938C155.049 121.318 163.367 120.977 171.523 121.702C178.759 122.341 186.122 123.815 192.744 126.884C197.057 128.878 202.025 131.903 203.696 136.642C204.02 137.554 204.182 138.5 204.19 139.463C204.19 139.872 204.829 139.872 204.829 139.463C204.778 134.733 201.122 131.119 197.406 128.707C191.594 124.932 184.605 122.989 177.83 121.872C169.35 120.466 160.605 120.347 152.083 121.472C145.017 122.401 137.79 124.156 131.526 127.676C127.563 129.901 123.242 133.31 122.492 138.091C121.785 142.574 124.699 146.4 128.066 149C133.299 153.04 139.963 155.17 146.355 156.508C154.716 158.255 163.401 158.622 171.898 157.838C179.304 157.147 186.829 155.596 193.571 152.375C197.9 150.304 202.716 147.167 204.343 142.386C204.659 141.449 204.821 140.469 204.829 139.48C204.829 139.071 204.19 139.071 204.19 139.48V139.454Z" fill="#2B63A8"/>
<path d="M163.597 151.633C186.19 151.633 204.505 143.387 204.505 133.216C204.505 123.044 186.19 114.798 163.597 114.798C141.003 114.798 122.688 123.044 122.688 133.216C122.688 143.387 141.003 151.633 163.597 151.633Z" fill="#FCBC00"/>
<path d="M204.19 133.216C204.139 137.972 200.21 141.508 196.46 143.818C190.758 147.321 184.051 149.153 177.489 150.227C169.35 151.557 160.972 151.676 152.79 150.67C145.844 149.81 138.753 148.148 132.532 144.841C128.543 142.719 124.026 139.446 123.148 134.69C122.27 129.935 125.628 126.193 129.131 123.688C134.356 119.955 140.782 117.96 147.012 116.699C155.049 115.08 163.367 114.739 171.523 115.463C178.759 116.102 186.122 117.577 192.744 120.645C197.057 122.639 202.025 125.665 203.696 130.403C204.02 131.315 204.182 132.261 204.19 133.224C204.19 133.634 204.829 133.634 204.829 133.224C204.778 128.494 201.122 124.881 197.406 122.469C191.594 118.693 184.605 116.75 177.83 115.634C169.35 114.228 160.605 114.108 152.083 115.233C145.017 116.162 137.79 117.918 131.526 121.438C127.563 123.662 123.242 127.071 122.492 131.852C121.785 136.335 124.699 140.162 128.066 142.761C133.299 146.801 139.963 148.932 146.355 150.27C154.716 152.017 163.401 152.383 171.898 151.599C179.304 150.909 186.829 149.358 193.571 146.136C197.9 144.065 202.716 140.929 204.343 136.148C204.659 135.21 204.821 134.23 204.829 133.242C204.829 132.832 204.19 132.832 204.19 133.242V133.216Z" fill="#2B63A8"/>
<path d="M162.455 137.435L178.111 141.85C178.111 142.037 177.957 142.063 177.864 142.131C176.696 142.915 175.528 143.691 174.369 144.475C174.122 144.645 173.918 144.688 173.662 144.611C168.778 143.222 163.895 141.85 159.003 140.477C158.756 140.409 158.594 140.281 158.483 140.06C158.261 139.625 158.048 139.191 157.776 138.79C157.528 138.424 157.571 138.21 158.031 137.921C159.011 137.299 159.992 136.668 160.912 135.943C162.063 135.032 163.068 134 163.733 132.696C164.406 131.384 164.568 130.097 164.168 128.844C164.048 128.469 163.912 128.401 163.503 128.674C160.724 130.549 157.938 132.407 155.151 134.273C154.912 134.435 154.682 134.588 154.341 134.81C154.477 133.676 154.605 132.654 154.733 131.622C154.759 131.392 154.989 131.324 155.142 131.222C157.392 129.713 159.651 128.205 161.909 126.688C162.054 126.594 162.293 126.534 162.284 126.355C162.284 126.185 162.063 126.168 161.918 126.108C160.494 125.478 159.011 125.895 157.511 126.637C155.73 127.515 154.111 128.716 152.44 129.824C152.261 129.944 152.083 130.063 151.801 130.25C151.938 129.125 152.065 128.094 152.185 127.071C152.202 126.909 152.338 126.833 152.458 126.756C157.707 123.245 162.966 119.725 168.207 116.222C168.378 116.299 168.293 116.461 168.276 116.58C168.182 117.381 168.062 118.174 167.994 118.975C167.96 119.35 167.807 119.554 167.483 119.767C166.23 120.577 164.994 121.421 163.69 122.29C164.074 122.452 164.415 122.58 164.747 122.742C165.182 122.955 165.582 123.228 165.906 123.586C166.111 123.816 166.29 123.79 166.58 123.586C167.96 122.64 169.358 121.719 170.858 120.713C170.773 121.421 170.628 122.052 170.636 122.648C170.653 123.679 170.219 124.378 169.222 124.873C168.71 125.128 168.25 125.512 167.764 125.827C167.551 125.963 167.466 126.083 167.534 126.33C168.335 129.023 167.483 131.614 165.651 134.12C164.832 135.236 163.861 136.208 162.77 137.06C162.668 137.137 162.574 137.222 162.48 137.307C162.455 137.324 162.455 137.367 162.42 137.443L162.455 137.435Z" fill="white"/>
<path d="M153.514 144.142C176.107 144.142 194.423 135.896 194.423 125.725C194.423 115.553 176.107 107.307 153.514 107.307C130.921 107.307 112.605 115.553 112.605 125.725C112.605 135.896 130.921 144.142 153.514 144.142Z" fill="#BF8B0A"/>
<path d="M194.099 125.725C194.048 130.48 190.119 134.017 186.369 136.327C180.667 139.83 173.96 141.662 167.397 142.736C159.258 144.065 150.88 144.185 142.699 143.179C135.753 142.318 128.662 140.656 122.44 137.35C118.452 135.227 113.935 131.955 113.057 127.199C112.179 122.443 115.537 118.702 119.04 116.196C124.264 112.463 130.69 110.469 136.92 109.208C144.957 107.588 153.275 107.248 161.431 107.972C168.667 108.611 176.031 110.086 182.653 113.154C186.965 115.148 191.934 118.174 193.604 122.912C193.928 123.824 194.09 124.77 194.099 125.733C194.099 126.142 194.738 126.142 194.738 125.733C194.687 121.003 191.031 117.389 187.315 114.978C181.502 111.202 174.514 109.259 167.738 108.142C159.258 106.736 150.514 106.617 141.991 107.742C134.926 108.671 127.699 110.426 121.435 113.946C117.472 116.171 113.151 119.58 112.401 124.361C111.693 128.844 114.608 132.671 117.975 135.27C123.207 139.31 129.872 141.44 136.264 142.778C144.625 144.526 153.309 144.892 161.806 144.108C169.213 143.418 176.738 141.867 183.48 138.645C187.809 136.574 192.624 133.438 194.252 128.656C194.567 127.719 194.729 126.739 194.738 125.75C194.738 125.341 194.099 125.341 194.099 125.75V125.725Z" fill="#2B63A8"/>
<path d="M153.514 137.912C176.107 137.912 194.423 129.666 194.423 119.495C194.423 109.323 176.107 101.077 153.514 101.077C130.921 101.077 112.605 109.323 112.605 119.495C112.605 129.666 130.921 137.912 153.514 137.912Z" fill="#FCBC00"/>
<path d="M194.099 119.495C194.048 124.25 190.119 127.787 186.369 130.097C180.667 133.6 173.96 135.432 167.397 136.506C159.258 137.835 150.88 137.955 142.699 136.949C135.753 136.088 128.662 134.426 122.44 131.12C118.452 128.998 113.935 125.725 113.057 120.969C112.179 116.214 115.537 112.472 119.04 109.966C124.264 106.234 130.69 104.239 136.92 102.978C144.957 101.359 153.275 101.018 161.431 101.742C168.667 102.381 176.031 103.856 182.653 106.924C186.965 108.918 191.934 111.944 193.604 116.682C193.928 117.594 194.09 118.54 194.099 119.503C194.099 119.912 194.738 119.912 194.738 119.503C194.687 114.773 191.031 111.16 187.315 108.748C181.502 104.972 174.514 103.029 167.738 101.913C159.258 100.506 150.514 100.387 141.991 101.512C134.926 102.441 127.699 104.197 121.435 107.716C117.472 109.941 113.151 113.35 112.401 118.131C111.693 122.614 114.608 126.441 117.975 129.04C123.207 133.08 129.872 135.211 136.264 136.549C144.625 138.296 153.309 138.662 161.806 137.878C169.213 137.188 176.738 135.637 183.48 132.415C187.809 130.344 192.624 127.208 194.252 122.427C194.567 121.489 194.729 120.509 194.738 119.52C194.738 119.111 194.099 119.111 194.099 119.52V119.495Z" fill="#2B63A8"/>
<path d="M152.372 123.713L168.028 128.128C168.028 128.315 167.875 128.341 167.781 128.409C166.613 129.193 165.446 129.969 164.287 130.753C164.04 130.923 163.835 130.966 163.579 130.889C158.696 129.5 153.812 128.128 148.92 126.756C148.673 126.687 148.511 126.56 148.4 126.338C148.179 125.903 147.966 125.469 147.693 125.068C147.446 124.702 147.489 124.489 147.949 124.199C148.929 123.577 149.909 122.946 150.829 122.222C151.98 121.31 152.986 120.278 153.65 118.975C154.324 117.662 154.486 116.375 154.085 115.122C153.966 114.747 153.829 114.679 153.42 114.952C150.642 116.827 147.855 118.685 145.068 120.551C144.83 120.713 144.599 120.867 144.258 121.088C144.395 119.955 144.523 118.932 144.651 117.901C144.676 117.671 144.906 117.602 145.06 117.5C147.31 115.992 149.568 114.483 151.827 112.966C151.971 112.872 152.21 112.813 152.202 112.634C152.202 112.463 151.98 112.446 151.835 112.387C150.412 111.756 148.929 112.173 147.429 112.915C145.648 113.793 144.028 114.994 142.358 116.102C142.179 116.222 142 116.341 141.719 116.529C141.855 115.404 141.983 114.372 142.102 113.35C142.119 113.188 142.256 113.111 142.375 113.034C147.625 109.523 152.883 106.003 158.125 102.5C158.295 102.577 158.21 102.739 158.193 102.858C158.099 103.659 157.98 104.452 157.912 105.253C157.878 105.628 157.724 105.833 157.4 106.046C156.148 106.855 154.912 107.699 153.608 108.568C153.991 108.73 154.332 108.858 154.665 109.02C155.099 109.233 155.5 109.506 155.824 109.864C156.028 110.094 156.207 110.068 156.497 109.864C157.878 108.918 159.275 107.997 160.775 106.992C160.69 107.699 160.545 108.33 160.554 108.926C160.571 109.958 160.136 110.656 159.139 111.151C158.628 111.406 158.167 111.79 157.682 112.105C157.469 112.242 157.383 112.361 157.452 112.608C158.253 115.301 157.4 117.892 155.568 120.398C154.75 121.514 153.778 122.486 152.687 123.338C152.585 123.415 152.491 123.5 152.398 123.585C152.372 123.602 152.372 123.645 152.338 123.722L152.372 123.713Z" fill="white"/>
<path d="M153.241 129.943C175.684 129.943 193.877 121.697 193.877 111.526C193.877 101.354 175.684 93.1083 153.241 93.1083C130.799 93.1083 112.605 101.354 112.605 111.526C112.605 121.697 130.799 129.943 153.241 129.943Z" fill="#BF8B0A"/>
<path d="M193.562 111.526C193.511 116.299 189.574 119.861 185.798 122.179C180.173 125.631 173.577 127.455 167.117 128.52C158.995 129.867 150.617 129.986 142.452 128.963C135.566 128.103 128.535 126.432 122.373 123.134C118.401 121.003 113.944 117.739 113.066 113.001C112.188 108.262 115.503 104.52 118.981 102.015C124.145 98.2904 130.503 96.2876 136.682 95.0263C144.642 93.407 152.892 93.049 160.98 93.7564C168.173 94.3871 175.486 95.853 182.074 98.887C186.403 100.89 191.398 103.924 193.068 108.688C193.392 109.609 193.554 110.555 193.562 111.526C193.562 111.935 194.202 111.935 194.202 111.526C194.15 106.813 190.545 103.208 186.846 100.779C181.043 96.978 174.054 95.0348 167.279 93.9098C158.858 92.5121 150.191 92.4098 141.736 93.5348C134.765 94.4638 127.648 96.2109 121.478 99.6711C117.498 101.904 113.16 105.33 112.41 110.137C111.702 114.645 114.626 118.489 118.001 121.097C123.208 125.111 129.821 127.242 136.179 128.571C144.472 130.301 153.097 130.676 161.526 129.884C168.872 129.194 176.33 127.642 183.011 124.421C187.324 122.341 192.088 119.214 193.707 114.449C194.031 113.503 194.184 112.523 194.202 111.526C194.202 111.117 193.562 111.117 193.562 111.526Z" fill="#2B63A8"/>
<path d="M153.241 123.706C175.684 123.706 193.877 115.46 193.877 105.288C193.877 95.1165 175.684 86.8707 153.241 86.8707C130.799 86.8707 112.605 95.1165 112.605 105.288C112.605 115.46 130.799 123.706 153.241 123.706Z" fill="#FCBC00"/>
<path d="M193.562 105.288C193.511 110.061 189.574 113.623 185.798 115.941C180.173 119.393 173.577 121.217 167.117 122.282C158.995 123.629 150.617 123.748 142.452 122.725C135.566 121.864 128.535 120.194 122.373 116.896C118.401 114.765 113.944 111.501 113.066 106.762C112.188 102.024 115.503 98.2823 118.981 95.7767C124.145 92.0523 130.503 90.0495 136.682 88.7881C144.642 87.1688 152.892 86.8109 160.98 87.5182C168.173 88.1489 175.486 89.6148 182.074 92.6489C186.403 94.6517 191.398 97.6858 193.068 102.45C193.392 103.37 193.554 104.316 193.562 105.288C193.562 105.697 194.202 105.697 194.202 105.288C194.15 100.575 190.545 96.9698 186.846 94.5409C181.043 90.7398 174.054 88.7966 167.279 87.6716C158.858 86.2739 150.191 86.1717 141.736 87.2966C134.765 88.2256 127.648 89.9728 121.478 93.433C117.498 95.6659 113.16 99.092 112.41 103.899C111.702 108.407 114.626 112.251 118.001 114.859C123.208 118.873 129.821 121.004 136.179 122.333C144.472 124.063 153.097 124.438 161.526 123.646C168.872 122.955 176.33 121.404 183.011 118.183C187.324 116.103 192.088 112.975 193.707 108.211C194.031 107.265 194.184 106.285 194.202 105.288C194.202 104.879 193.562 104.879 193.562 105.288Z" fill="#2B63A8"/>
<path d="M152.108 109.506L167.661 113.921C167.661 114.109 167.517 114.134 167.423 114.202C166.264 114.986 165.105 115.762 163.954 116.546C163.707 116.716 163.502 116.759 163.247 116.682C158.397 115.293 153.539 113.921 148.682 112.549C148.434 112.481 148.272 112.353 148.162 112.131C147.94 111.697 147.727 111.262 147.454 110.861C147.207 110.495 147.258 110.282 147.71 109.992C148.69 109.37 149.662 108.739 150.574 108.015C151.716 107.103 152.713 106.072 153.378 104.768C154.051 103.455 154.213 102.168 153.812 100.915C153.693 100.54 153.557 100.472 153.156 100.745C150.395 102.62 147.625 104.478 144.863 106.344C144.625 106.506 144.395 106.66 144.062 106.881C144.199 105.748 144.327 104.725 144.454 103.694C144.48 103.464 144.701 103.396 144.863 103.293C147.105 101.785 149.346 100.276 151.579 98.7593C151.716 98.6655 151.954 98.6059 151.954 98.4269C151.954 98.2564 151.733 98.2394 151.596 98.1797C150.182 97.5491 148.707 97.9667 147.224 98.7081C145.46 99.586 143.849 100.788 142.187 101.896C142.008 102.015 141.838 102.134 141.557 102.322C141.693 101.197 141.821 100.165 141.94 99.1428C141.957 98.9809 142.085 98.9041 142.204 98.8274C147.42 95.3161 152.636 91.7963 157.852 88.2935C158.022 88.3702 157.937 88.5321 157.92 88.6514C157.826 89.4525 157.707 90.2451 157.647 91.0463C157.613 91.4213 157.46 91.6258 157.136 91.8389C155.892 92.6485 154.664 93.4923 153.369 94.3616C153.753 94.5235 154.093 94.6513 154.417 94.8133C154.852 95.0263 155.253 95.2991 155.568 95.657C155.772 95.8871 155.951 95.8616 156.241 95.657C157.613 94.711 159.002 93.7906 160.494 92.7849C160.409 93.4923 160.264 94.1229 160.272 94.7195C160.289 95.7508 159.855 96.4496 158.866 96.9439C158.363 97.1996 157.903 97.5831 157.417 97.8985C157.204 98.0348 157.119 98.1542 157.196 98.4013C157.997 101.094 157.145 103.685 155.329 106.191C154.52 107.307 153.557 108.279 152.466 109.131C152.363 109.208 152.27 109.293 152.176 109.378C152.15 109.396 152.15 109.438 152.116 109.515L152.108 109.506Z" fill="white"/>
<path d="M165.667 115.148C188.11 115.148 206.303 106.903 206.303 96.731C206.303 86.5594 188.11 78.3136 165.667 78.3136C143.225 78.3136 125.031 86.5594 125.031 96.731C125.031 106.903 143.225 115.148 165.667 115.148Z" fill="#BF8B0A"/>
<path d="M205.988 96.7309C205.937 101.504 201.999 105.066 198.224 107.384C192.599 110.836 186.002 112.66 179.542 113.725C171.42 115.072 163.042 115.191 154.877 114.168C147.991 113.307 140.96 111.637 134.798 108.339C130.826 106.208 126.369 102.944 125.491 98.2054C124.613 93.4668 127.929 89.7253 131.406 87.2197C136.571 83.4953 142.929 81.4925 149.108 80.2311C157.068 78.6118 165.318 78.2539 173.406 78.9612C180.599 79.5919 187.911 81.0578 194.499 84.0919C198.829 86.0947 203.823 89.1287 205.493 93.8929C205.817 94.8133 205.979 95.7594 205.988 96.7309C205.988 97.14 206.627 97.14 206.627 96.7309C206.576 92.0179 202.971 88.4128 199.272 85.9839C193.468 82.1828 186.479 80.2396 179.704 79.1146C171.283 77.7169 162.616 77.6147 154.161 78.7396C147.19 79.6686 140.074 81.4158 133.903 84.8759C129.923 87.1089 125.585 90.535 124.835 95.3418C124.128 99.8502 127.051 103.694 130.426 106.302C135.633 110.316 142.247 112.447 148.605 113.776C156.897 115.506 165.522 115.881 173.951 115.089C181.298 114.398 188.755 112.847 195.437 109.626C199.749 107.546 204.513 104.418 206.133 99.6542C206.456 98.7082 206.61 97.7281 206.627 96.7309C206.627 96.3219 205.988 96.3219 205.988 96.7309Z" fill="#2B63A8"/>
<path d="M165.667 108.918C188.11 108.918 206.303 100.673 206.303 90.5009C206.303 80.3293 188.11 72.0835 165.667 72.0835C143.225 72.0835 125.031 80.3293 125.031 90.5009C125.031 100.673 143.225 108.918 165.667 108.918Z" fill="#FCBC00"/>
<path d="M205.988 90.5007C205.937 95.2734 201.999 98.8359 198.224 101.154C192.599 104.606 186.002 106.43 179.542 107.495C171.42 108.841 163.042 108.961 154.877 107.938C147.991 107.077 140.96 105.407 134.798 102.109C130.826 99.9779 126.369 96.7137 125.491 91.9751C124.613 87.2365 127.929 83.4951 131.406 80.9894C136.571 77.265 142.929 75.2622 149.108 74.0009C157.068 72.3816 165.318 72.0236 173.406 72.731C180.599 73.3617 187.911 74.8276 194.499 77.8616C198.829 79.8645 203.823 82.8985 205.493 87.6627C205.817 88.5831 205.979 89.5291 205.988 90.5007C205.988 90.9098 206.627 90.9098 206.627 90.5007C206.576 85.7877 202.971 82.1826 199.272 79.7537C193.468 75.9526 186.479 74.0094 179.704 72.8844C171.283 71.4867 162.616 71.3844 154.161 72.5094C147.19 73.4384 140.074 75.1855 133.903 78.6457C129.923 80.8786 125.585 84.3048 124.835 89.1115C124.128 93.62 127.051 97.4637 130.426 100.072C135.633 104.086 142.247 106.216 148.605 107.546C156.897 109.276 165.522 109.651 173.951 108.858C181.298 108.168 188.755 106.617 195.437 103.395C199.749 101.316 204.513 98.1881 206.133 93.424C206.456 92.478 206.61 91.4979 206.627 90.5007C206.627 90.0916 205.988 90.0916 205.988 90.5007Z" fill="#2B63A8"/>
<path d="M164.534 94.7197L180.088 99.1344C180.088 99.3219 179.943 99.3475 179.849 99.4157C178.69 100.2 177.531 100.975 176.38 101.759C176.133 101.93 175.929 101.972 175.673 101.896C170.824 100.507 165.966 99.1344 161.108 97.7623C160.861 97.6941 160.699 97.5663 160.588 97.3447C160.366 96.91 160.153 96.4754 159.881 96.0748C159.633 95.7083 159.685 95.4953 160.136 95.2055C161.116 94.5833 162.088 93.9527 163 93.2282C164.142 92.3163 165.139 91.2851 165.804 89.9811C166.477 88.6686 166.639 87.3817 166.238 86.1289C166.119 85.7539 165.983 85.6857 165.582 85.9584C162.821 87.8334 160.051 89.6913 157.29 91.5578C157.051 91.7197 156.821 91.8731 156.489 92.0947C156.625 90.9612 156.753 89.9385 156.881 88.9073C156.906 88.6771 157.128 88.609 157.29 88.5067C159.531 86.9982 161.773 85.4897 164.006 83.9726C164.142 83.8789 164.381 83.8192 164.381 83.6403C164.381 83.4698 164.159 83.4528 164.023 83.3931C162.608 82.7624 161.133 83.18 159.65 83.9215C157.886 84.7993 156.276 86.001 154.614 87.109C154.435 87.2283 154.264 87.3476 153.983 87.5351C154.119 86.4101 154.247 85.3789 154.366 84.3562C154.383 84.1942 154.511 84.1175 154.631 84.0408C159.846 80.5295 165.062 77.0096 170.278 73.5068C170.449 73.5835 170.363 73.7455 170.346 73.8648C170.253 74.6659 170.133 75.4585 170.074 76.2597C170.04 76.6346 169.886 76.8392 169.562 77.0523C168.318 77.8619 167.091 78.7056 165.795 79.575C166.179 79.7369 166.52 79.8647 166.844 80.0267C167.278 80.2397 167.679 80.5124 167.994 80.8704C168.199 81.1005 168.378 81.0749 168.667 80.8704C170.04 79.9244 171.429 79.0039 172.92 77.9983C172.835 78.7057 172.69 79.3363 172.699 79.9329C172.716 80.9641 172.281 81.663 171.292 82.1573C170.79 82.413 170.329 82.7965 169.844 83.1119C169.63 83.2482 169.545 83.3675 169.622 83.6147C170.423 86.3078 169.571 88.8987 167.756 91.4044C166.946 92.5209 165.983 93.4924 164.892 94.3447C164.79 94.4214 164.696 94.5066 164.602 94.5919C164.577 94.6089 164.577 94.6515 164.542 94.7282L164.534 94.7197Z" fill="white"/>
<path d="M103.724 184.497C122.077 184.497 136.954 169.619 136.954 151.267C136.954 132.915 122.077 118.037 103.724 118.037C85.3721 118.037 70.4946 132.915 70.4946 151.267C70.4946 169.619 85.3721 184.497 103.724 184.497Z" fill="#BF8B0A"/>
<path d="M135.685 159.133C132.352 172.386 120.949 182.519 107.304 183.994C93.6169 185.477 80.1597 178.037 74.1256 165.67C68.066 153.244 70.6058 137.869 80.3642 128.068C90.08 118.31 105.276 115.608 117.753 121.489C130.23 127.369 137.611 140.366 136.537 153.858C136.392 155.639 136.102 157.403 135.676 159.142C135.582 159.542 136.196 159.713 136.29 159.312C139.562 145.778 134.074 131.315 122.517 123.483C110.824 115.557 94.9379 115.941 83.6369 124.395C72.37 132.815 67.4609 147.849 71.6796 161.29C75.8813 174.67 88.2988 184.207 102.31 184.812C116.151 185.409 129.293 177.048 134.645 164.281C135.318 162.67 135.864 161.017 136.281 159.321C136.384 158.92 135.761 158.75 135.668 159.15L135.685 159.133Z" fill="#2B63A8"/>
<path d="M100.222 180.151C118.574 180.151 133.452 165.273 133.452 146.921C133.452 128.569 118.574 113.691 100.222 113.691C81.8697 113.691 66.9922 128.569 66.9922 146.921C66.9922 165.273 81.8697 180.151 100.222 180.151Z" fill="#FCBC00"/>
<path d="M132.182 154.787C128.849 168.04 117.446 178.173 103.801 179.648C90.1141 181.13 76.6568 173.69 70.6228 161.324C64.5632 148.898 67.1029 133.523 76.8614 123.722C86.5772 113.964 101.773 111.262 114.25 117.142C126.489 122.912 134.108 136.02 133.034 149.511C132.889 151.293 132.599 153.057 132.173 154.795C132.08 155.196 132.693 155.367 132.787 154.966C136.06 141.432 130.571 126.969 119.014 119.137C107.321 111.211 91.4351 111.594 80.1341 120.049C68.833 128.503 63.9581 143.503 68.1768 156.943C72.3955 170.383 84.7959 179.861 98.8072 180.466C112.818 181.071 125.79 172.702 131.142 159.935C131.815 158.324 132.361 156.67 132.778 154.974C132.881 154.574 132.259 154.403 132.165 154.804L132.182 154.787Z" fill="#2B63A8"/>
<path d="M95.7732 146.051L103.043 164.579C102.89 164.733 102.762 164.622 102.651 164.579C101.211 164.136 99.7789 163.684 98.3385 163.25C98.0232 163.156 97.8613 163.003 97.7419 162.696C95.4834 156.909 93.2079 151.122 90.9323 145.335C90.8216 145.045 90.8045 144.781 90.9068 144.491C91.1028 143.92 91.3073 143.341 91.4437 142.753C91.563 142.207 91.7676 142.079 92.3215 142.267C93.5062 142.676 94.6908 143.068 95.9181 143.332C97.4522 143.656 98.9777 143.741 100.495 143.273C102.02 142.804 103.179 141.875 103.912 140.435C104.134 140 104.091 139.821 103.588 139.668C100.145 138.619 96.7107 137.545 93.2761 136.48C92.9863 136.386 92.6965 136.301 92.2789 136.173C93.2931 135.347 94.205 134.605 95.1255 133.864C95.33 133.693 95.5431 133.855 95.7306 133.915C98.5175 134.776 101.296 135.636 104.083 136.497C104.253 136.548 104.466 136.727 104.62 136.574C104.756 136.429 104.62 136.199 104.569 136.02C104.091 134.145 102.728 133.088 101.091 132.295C99.1482 131.358 97.0516 130.83 95.0062 130.182C94.7846 130.114 94.5715 130.046 94.2221 129.935C95.2278 129.117 96.1482 128.367 97.0601 127.625C97.205 127.506 97.3499 127.565 97.5033 127.617C103.981 129.628 110.458 131.639 116.926 133.642C116.978 133.872 116.79 133.923 116.688 134.009C115.98 134.597 115.247 135.151 114.557 135.756C114.233 136.037 113.952 136.071 113.56 135.943C112.034 135.449 110.5 134.98 108.89 134.486C109.026 134.98 109.154 135.423 109.256 135.858C109.384 136.455 109.444 137.06 109.375 137.665C109.333 138.057 109.478 138.202 109.844 138.304C111.566 138.815 113.279 139.361 115.128 139.932C114.497 140.443 113.892 140.844 113.415 141.355C112.588 142.241 111.719 142.42 110.628 141.892C110.074 141.619 109.435 141.517 108.847 141.312C108.591 141.227 108.438 141.244 108.284 141.517C106.665 144.551 103.981 145.923 100.682 146.298C99.2164 146.469 97.759 146.366 96.3101 146.051C96.1738 146.025 96.0459 146 95.9096 145.983C95.8755 145.983 95.8414 146.008 95.7647 146.043L95.7732 146.051Z" fill="white"/>
<path d="M116.279 24.3396C116.296 28.7543 113.986 30.9446 111.276 30.9531C108.566 30.9617 106.41 28.8736 106.358 24.6549C106.341 20.4703 108.626 18.1095 111.395 18.101C114.327 18.0925 116.262 20.3424 116.279 24.331V24.3396ZM108.617 24.5611C108.557 27.2373 109.563 29.2571 111.336 29.2571C113.202 29.2571 114.037 27.2543 114.02 24.4844C114.02 21.9447 113.262 19.814 111.302 19.8226C109.529 19.8226 108.6 21.9277 108.617 24.5697V24.5611ZM111.114 39.7485L123.344 18.0669H125.151L112.921 39.74H111.114V39.7485ZM129.932 32.9645C129.949 37.3792 127.64 39.5695 124.963 39.578C122.287 39.5866 120.097 37.4985 120.046 33.3139C120.029 29.0952 122.313 26.7344 125.083 26.7259C128.015 26.7174 129.924 28.9674 129.932 32.956V32.9645ZM122.27 33.1861C122.245 35.8622 123.284 37.882 125.023 37.8735C126.89 37.8735 127.725 35.8707 127.708 33.1008C127.708 30.5611 126.949 28.439 124.989 28.439C123.216 28.439 122.262 30.544 122.27 33.1775V33.1861Z" fill="white"/>
</svg>
