<svg width="600" height="600" viewBox="0 0 600 600" fill="none" xmlns="http://www.w3.org/2000/svg">
<g clip-path="url(#clip0_785_2069)">
<path d="M389.982 365.074H201.598C195.218 365.074 188.857 365.112 182.476 365.074C176.096 365.035 170.903 360.284 170.808 353.731C170.769 351.106 170.808 348.481 170.808 345.856V240.762C170.808 238.233 170.52 235.397 171.018 232.887C172.187 226.948 177.38 223.805 183.089 223.805H387.395C390.25 223.805 392.951 223.805 395.576 225.281C400.366 228.021 401.229 232.772 401.229 237.735V321.465C401.229 331.85 401.229 342.254 401.229 352.639C401.229 359.268 397.033 364.901 390.001 365.055C386.303 365.131 386.303 370.879 390.001 370.803C399.619 370.573 406.919 362.947 406.977 353.405C406.996 350.167 406.977 346.929 406.977 343.71V238.061C406.977 232.906 406.364 228.116 402.838 223.939C396.975 217.023 388.238 218.057 380.191 218.057H183.013C176.517 218.057 170.386 220.97 167.186 226.833C165.04 230.741 165.06 234.784 165.06 239.019V326.504C165.06 335.548 164.925 344.611 165.06 353.673C165.194 362.736 172.59 370.649 182.074 370.822C183.664 370.86 185.254 370.822 186.845 370.822H389.982C393.679 370.822 393.679 365.074 389.982 365.074Z" fill="#221F20"/>
<path d="M401.346 253.006H170.887V280.079H401.346V253.006Z" fill="url(#paint0_linear_785_2069)"/>
<path d="M426.503 366.645L405.963 379.233C399.813 382.989 392.091 382.989 385.941 379.233L365.401 366.645C359.73 363.158 356.262 356.988 356.262 350.321V300.983C360.63 297.534 374.157 287.705 394.103 287.13C416.31 286.498 431.561 297.745 435.643 300.983V350.321C435.643 356.988 432.175 363.177 426.503 366.645Z" fill="#C5D8E3"/>
<path d="M369.365 335.05C373.944 339.629 378.523 344.208 383.083 348.769C384.252 349.937 385.957 349.765 387.145 348.769C396.994 340.453 406.842 332.138 416.69 323.841C418.108 322.653 419.507 321.465 420.925 320.258C423.76 317.863 419.679 313.82 416.863 316.196C407.014 324.512 397.166 332.827 387.318 341.124C385.9 342.312 384.501 343.5 383.083 344.707H387.145C382.566 340.127 377.987 335.548 373.427 330.988C370.802 328.363 366.74 332.425 369.365 335.05Z" fill="#221F20"/>
<path d="M217.135 331.927C217.059 337.023 213.936 341.794 209.069 343.557C204.202 345.32 198.378 343.825 195.044 339.667C191.71 335.51 191.499 329.934 194.105 325.566C196.711 321.197 201.903 318.802 206.904 319.722C212.824 320.814 217.059 325.968 217.135 331.946C217.193 335.644 222.941 335.644 222.883 331.946C222.788 324.339 218.093 317.614 210.985 314.912C203.877 312.211 195.599 314.51 190.848 320.296C186.096 326.083 185.195 334.628 189.142 341.219C193.089 347.811 200.734 351.087 208.226 349.746C216.714 348.213 222.769 340.434 222.883 331.946C222.941 328.248 217.193 328.248 217.135 331.946V331.927Z" fill="#221F20"/>
<path d="M218.156 322.5C224.211 317.327 233.58 319.3 237.24 326.255C240.631 332.693 237.374 341.085 230.534 343.557C226.088 345.166 221.164 344.151 217.696 340.951C214.975 338.441 210.914 342.503 213.634 345.013C218.137 349.19 224.268 350.934 230.285 349.612C235.228 348.52 239.673 345.128 242.087 340.683C247.375 330.988 242.681 318.802 232.43 314.893C226.127 312.498 219.114 314.127 214.056 318.438C212.868 319.453 213.021 321.465 214.056 322.5C215.225 323.669 216.93 323.515 218.118 322.5H218.156Z" fill="#221F20"/>
</g>
<defs>
<linearGradient id="paint0_linear_785_2069" x1="170.887" y1="266.533" x2="401.346" y2="266.533" gradientUnits="userSpaceOnUse">
<stop stop-color="#9BCB9E"/>
<stop offset="1" stop-color="#78C1C4"/>
</linearGradient>
<clipPath id="clip0_785_2069">
<rect width="270.638" height="164.05" fill="white" transform="translate(165 218)"/>
</clipPath>
</defs>
</svg>
