<svg width="103" height="114" viewBox="0 0 103 114" fill="none" xmlns="http://www.w3.org/2000/svg">
<g clip-path="url(#clip0_434_9666)">
<path d="M61.1781 50.4859L33.4775 22.8526L12.3819 44.5548L8.00098 40.3088L33.4101 14.2257L60.9759 41.7915L92.5182 7.68805L96.9665 11.7993L61.1781 50.4859Z" fill="#0565AD"/>
<path d="M9.82026 51.5644C15.0315 51.5644 19.256 47.3399 19.256 42.1287C19.256 36.9175 15.0315 32.6929 9.82026 32.6929C4.60905 32.6929 0.384521 36.9175 0.384521 42.1287C0.384521 47.3399 4.60905 51.5644 9.82026 51.5644Z" fill="#0565AD"/>
<path d="M19.1214 42.1283C19.1214 45.97 16.6951 49.4747 13.0556 50.7553C9.41606 52.0359 5.30477 50.8901 2.87844 47.9246C0.452105 44.9591 0.115115 40.6456 2.06966 37.3431C4.02421 34.0406 7.9333 32.2882 11.7076 33.0296C16.0211 33.9058 19.054 37.6801 19.1214 42.061C19.1214 42.3979 19.6606 42.3979 19.6606 42.061C19.6606 38.0845 17.1668 34.445 13.3926 33.0296C9.61825 31.6142 5.03518 32.76 2.47405 35.9951C-0.0870795 39.2302 -0.42407 43.6111 1.66527 47.1158C3.75461 50.6205 7.7985 52.3729 11.775 51.6315C16.3581 50.7553 19.5932 46.7114 19.6606 42.1283C19.6606 41.7914 19.1888 41.7914 19.1214 42.1283Z" fill="#0565AD"/>
<path d="M33.4101 27.9748C38.6213 27.9748 42.8458 23.7503 42.8458 18.5391C42.8458 13.3279 38.6213 9.10333 33.4101 9.10333C28.1989 9.10333 23.9744 13.3279 23.9744 18.5391C23.9744 23.7503 28.1989 27.9748 33.4101 27.9748Z" fill="#0565AD"/>
<path d="M42.711 18.5391C42.711 22.3808 40.2847 25.8855 36.6452 27.1661C33.0057 28.4466 28.8944 27.3009 26.468 24.3354C24.0417 21.3698 23.7047 17.0564 25.6593 13.7538C27.6138 10.4513 31.5229 8.69899 35.2972 9.44037C39.6107 10.3165 42.6436 14.0908 42.711 18.4717C42.711 18.8087 43.2502 18.8087 43.2502 18.4717C43.2502 14.4952 40.7564 10.8557 36.9821 9.44037C33.2079 8.02501 28.6248 9.17078 26.0636 12.4059C23.5025 15.641 23.1655 20.0219 25.2549 23.5266C27.3442 27.0313 31.3881 28.7836 35.3646 28.0423C39.9477 27.1661 43.1828 23.1222 43.2502 18.5391C43.2502 18.2021 42.7784 18.2021 42.711 18.5391Z" fill="#0565AD"/>
<path d="M92.7199 19.8872C97.9311 19.8872 102.156 15.6626 102.156 10.4514C102.156 5.24021 97.9311 1.01569 92.7199 1.01569C87.5087 1.01569 83.2842 5.24021 83.2842 10.4514C83.2842 15.6626 87.5087 19.8872 92.7199 19.8872Z" fill="#0565AD"/>
<path d="M102.021 10.4513C102.021 14.293 99.5947 17.7977 95.9552 19.0783C92.3157 20.3589 88.2044 19.2131 85.7781 16.2476C83.3518 13.2821 83.0148 8.96857 84.9693 5.66606C86.9239 2.36356 90.833 0.678602 94.6073 1.41998C98.9207 2.29616 101.954 6.07045 102.021 10.4513C102.021 10.7883 102.56 10.7883 102.56 10.4513C102.56 6.47484 100.067 2.83534 96.2922 1.41998C92.5179 0.00462067 87.9348 1.15039 85.3737 4.3855C82.8126 7.62061 82.4756 12.0015 84.5649 15.5062C86.6543 19.0109 90.6982 20.7632 94.6747 20.0219C99.2577 19.1457 102.493 15.1018 102.56 10.5187C102.56 10.1817 102.088 10.1817 102.021 10.5187V10.4513Z" fill="#0565AD"/>
<path d="M62.0543 59.6519C70.0573 59.6519 76.5449 53.1643 76.5449 45.1613C76.5449 37.1584 70.0573 30.6707 62.0543 30.6707C54.0514 30.6707 47.5637 37.1584 47.5637 45.1613C47.5637 53.1643 54.0514 59.6519 62.0543 59.6519Z" fill="#0565AD"/>
<path d="M76.41 45.1611C76.41 51.0922 72.6357 56.484 67.0417 58.506C61.4476 60.5279 54.9774 58.843 51.2031 54.1925C47.4288 49.542 46.8896 42.8696 49.99 37.7473C53.0903 32.6251 59.1561 29.9292 65.0197 31.1423C71.6248 32.4903 76.41 38.4213 76.41 45.0937C76.41 45.4307 76.9492 45.4307 76.9492 45.0937C76.9492 38.9605 73.0401 33.3665 67.2439 31.2097C61.4476 29.053 54.7752 30.9401 50.7987 35.7254C46.8222 40.5107 46.3505 47.4527 49.5856 52.7771C52.8207 58.1016 59.0213 60.7301 65.0197 59.517C71.8943 58.169 76.8818 51.9684 76.9492 45.0264C76.9492 44.6894 76.4774 44.6894 76.41 45.0264V45.1611Z" fill="#0565AD"/>
<path d="M48.9791 13.4843C61.9869 8.69905 77.2189 12.8103 85.9133 23.5266C94.6076 34.1756 95.8882 49.4749 88.8114 61.2696C81.6672 73.1991 67.581 79.3323 53.9665 76.7712C38.465 73.8731 27.4117 59.9216 27.2095 44.4201C27.4117 30.6708 35.9712 18.2696 48.9791 13.4843ZM50.7988 70.2336C61.7173 74.1426 74.1186 70.9075 81.5998 62.011C89.081 53.1818 90.0245 40.2414 84.0935 30.3339C78.2299 20.4937 66.3678 15.1693 55.1123 17.4608C42.1719 20.0219 32.9383 31.3448 32.8035 44.4201C32.9383 55.8104 40.0151 66.3245 50.8662 70.2336H50.7988Z" fill="#223838"/>
<path d="M51.8765 13.4844C64.8844 8.63175 80.1164 12.8104 88.8107 23.5941C97.5051 34.3104 98.7856 49.6772 91.7088 61.5393C84.5646 73.5362 70.4784 79.6694 56.864 77.1083C41.3624 74.2101 30.3091 60.1913 30.1069 44.6224C30.3091 30.8057 38.8687 18.3371 51.8765 13.4844ZM53.6963 70.5032C64.6148 74.4797 77.016 71.1772 84.4972 62.2807C91.9784 53.4515 92.922 40.3763 86.991 30.4687C81.1273 20.6286 69.2653 15.2368 58.0098 17.5283C45.0693 20.1568 35.8358 31.4797 35.701 44.6224C35.8358 56.0126 42.9126 66.5941 53.7637 70.5032H53.6963Z" fill="#994200"/>
<path d="M63.0649 77.9842C60.9756 77.9842 58.8863 77.782 56.7969 77.3776C41.3627 74.4795 29.9725 60.6629 29.7703 44.5547C29.9725 30.6033 38.8016 17.9325 51.7421 13.1472C64.8847 8.29453 80.2515 12.4732 89.0806 23.3243C97.9772 34.2428 99.1903 49.677 91.9787 61.6739C85.9129 71.9184 74.7248 77.9842 62.9975 77.9842H63.0649ZM51.8769 13.4842L52.0116 13.8212C39.2734 18.539 30.6464 30.9403 30.4442 44.6221C30.6464 60.3933 41.7671 73.9403 56.8643 76.771C70.4787 79.3322 84.3628 73.1315 91.3722 61.3369C98.3816 49.6096 97.2358 34.5124 88.474 23.7961C79.7797 13.1472 64.7499 9.03591 51.9443 13.8212L51.8095 13.4842H51.8769ZM63.1323 72.525C59.9646 72.525 56.7295 71.9858 53.5618 70.84C42.7781 66.9309 35.4317 56.4168 35.2969 44.6221C35.4317 31.3447 44.9348 19.7522 57.8753 17.1911C69.1308 14.8995 81.2624 20.2914 87.2609 30.3337C93.2593 40.376 92.2483 53.6535 84.7671 62.55C79.3079 69.0203 71.3549 72.5924 63.1323 72.5924V72.525ZM63.1323 17.3259C61.4474 17.3259 59.695 17.4607 58.0101 17.8651C45.4066 20.4262 36.1057 31.6817 35.9709 44.6221C36.1057 56.1472 43.2499 66.3917 53.764 70.2334C64.5477 74.1425 76.7468 70.84 84.1606 62.0783C91.4396 53.3839 92.4505 40.4434 86.5869 30.6707C81.6668 22.3807 72.4333 17.3259 63.0649 17.3259H63.1323Z" fill="black"/>
<path d="M47.092 79.8042L39.0043 75.0189L20.2002 100.293C18.7174 102.315 18.2456 104.944 19.0544 107.37C20.335 111.077 24.1767 113.301 28.0184 112.425L29.2989 112.155C31.6579 111.616 33.6124 109.999 34.6234 107.774L47.092 79.8042Z" fill="#223838"/>
<path d="M41.8207 70.269L38.4744 75.9636L46.5514 80.7099L49.8977 75.0153L41.8207 70.269Z" fill="#223838"/>
<path d="M48.9116 80.8826L40.8238 76.0974L22.0198 101.372C20.537 103.394 20.0652 106.022 20.874 108.448C22.1545 112.155 25.9962 114.379 29.8379 113.503L31.1185 113.234C33.4774 112.695 35.432 111.077 36.443 108.853L48.9116 80.8826Z" fill="#A8CDD0"/>
<path d="M49.1139 80.7474L41.0261 75.9622C41.0261 75.9622 40.7565 75.9622 40.6891 76.0296L31.9947 87.6894C28.6922 92.1377 25.3223 96.586 22.0198 101.102C19.4587 104.606 19.8631 109.526 23.3678 112.222C25.2549 113.705 27.6812 114.244 30.0402 113.705C32.1295 113.233 34.0167 112.627 35.4994 110.942C36.78 109.526 37.3866 107.572 38.1954 105.887L42.1718 97.0578C44.5308 91.8007 46.8223 86.5437 49.1813 81.2866C49.1813 81.2192 49.2486 81.0844 49.316 81.017C49.4508 80.7474 48.9791 80.4778 48.9117 80.7474C47.0245 84.9935 45.1374 89.307 43.1828 93.5531C40.9587 98.5405 38.8019 103.461 36.5778 108.448C35.9038 109.931 34.8928 111.211 33.5449 112.02C31.7925 113.099 29.0966 113.638 27.0747 113.301C21.6154 112.29 19.2565 105.887 22.4916 101.439C25.3897 97.3948 28.4226 93.4857 31.3881 89.4418L37.5214 81.2192L39.8129 78.1189C40.2173 77.5797 40.7565 76.9731 41.0935 76.3665C41.0935 76.2992 41.2283 76.2318 41.2957 76.097H40.9587C43.6546 77.7819 46.3505 79.3321 49.0465 80.9496C49.316 81.0844 49.5856 80.68 49.316 80.5452L49.1139 80.7474Z" fill="#0565AD"/>
<path d="M43.5712 71.3938L40.2249 77.0884L48.3019 81.8347L51.6482 76.1401L43.5712 71.3938Z" fill="#AAABAD"/>
<path d="M40.0816 77.3103L48.1694 82.0956C48.1694 82.0956 48.439 82.0956 48.5064 82.0282C49.6522 80.141 50.7305 78.2539 51.8763 76.2993C51.9437 76.1645 51.8763 76.0297 51.8089 75.9623L43.7211 71.1771C43.7211 71.1771 43.4515 71.1771 43.3842 71.2445L40.0142 76.9733C40.0142 76.9733 40.2838 77.5125 40.4186 77.2429L43.7885 71.5141H43.4515C46.1475 73.199 48.8434 74.7492 51.5393 76.3667V76.0297C50.3262 77.9169 49.1804 79.804 48.102 81.7586H48.439C45.7431 80.0736 43.0472 78.5235 40.3512 76.9059C40.0816 76.7711 39.812 77.1755 40.0816 77.3103Z" fill="black"/>
</g>
<defs>
<clipPath id="clip0_434_9666">
<rect width="102.243" height="113.229" fill="white" transform="translate(0.25 0.745972)"/>
</clipPath>
</defs>
</svg>
