<svg width="233" height="213" viewBox="0 0 233 213" fill="none" xmlns="http://www.w3.org/2000/svg">
<path d="M173.366 83.6651L225.997 113.832L214.28 122.083L161.968 92.5542L173.366 83.6651Z" fill="#273738"/>
<path d="M100.11 107.536L210.761 162.585L129.201 213L9.93457 154.778L100.11 107.536Z" fill="#273738"/>
<path d="M0.940918 132.437L98.1803 75.6357L142.789 85.5805L187.078 128.586L232.006 137.253L136.37 193.729L91.4418 185.388L46.8333 141.424L0.940918 132.437Z" fill="#EBF0F8"/>
<path d="M1.06489 132.646L14.2226 124.963L44.1159 107.497L76.2183 88.7415L96.6229 76.822C97.1378 76.5223 97.6461 76.1834 98.1805 75.9162C98.4477 75.7793 98.0241 75.8771 98.1805 75.8836C98.5193 75.9097 98.8908 76.04 99.2232 76.1182L112.57 79.0965L130.954 83.1956C134.741 84.0428 138.527 85.0529 142.346 85.7372C142.561 85.7763 142.756 85.861 142.646 85.7894C142.854 85.9197 143.03 86.1673 143.206 86.3368L146.184 89.2303L157.185 99.9116L182.516 124.513L185.886 127.785C186.224 128.11 186.596 128.625 187.026 128.827C187.821 129.199 189.027 129.212 189.88 129.381L196.437 130.646L229.608 137.045L231.928 137.495L231.869 137.045L218.601 144.879L188.616 162.592L156.624 181.484L137.347 192.869C137.008 193.071 136.617 193.397 136.239 193.521C136.546 193.417 136.181 193.456 135.946 193.41L134.297 193.104L119.465 190.347L101.178 186.952L94.5114 185.714C93.599 185.544 92.3869 185.525 91.5201 185.16C91.6961 185.232 91.4615 185.095 91.3442 184.964C91.0574 184.658 90.7446 184.371 90.4448 184.078L86.9974 180.683L75.5471 169.395L50.7827 144.983L47.7067 141.952C47.3939 141.646 47.1397 141.307 46.7422 141.157C45.706 140.766 44.4026 140.701 43.3208 140.486L36.4389 139.137L3.28717 132.646L1.00624 132.203C0.699945 132.144 0.569606 132.614 0.875903 132.672L27.8756 137.958L43.4511 141.007C44.4743 141.209 45.706 141.268 46.6835 141.64C46.7813 141.679 46.5923 141.542 46.8334 141.77C47.1137 142.024 47.3743 142.304 47.6415 142.565L69.2061 163.823L90.4318 184.743C90.7511 185.056 91.0574 185.479 91.468 185.642C92.439 186.033 93.7424 186.066 94.7656 186.255L110.784 189.226L128.634 192.544L134.532 193.638C135.086 193.743 135.94 194.082 136.5 193.938C136.865 193.847 137.289 193.475 137.608 193.286L140.449 191.605L150.329 185.766L180.535 167.929L212.559 149.017L231.237 137.99L232.13 137.462C232.299 137.364 232.286 137.058 232.071 137.013L205.111 131.812L189.789 128.86C188.981 128.703 187.906 128.684 187.143 128.352C187.384 128.456 187.013 128.189 186.928 128.104C186.602 127.772 186.257 127.452 185.925 127.126L163.448 105.301L143.31 85.7503C142.965 85.4114 142.802 85.3332 142.326 85.2289L137.979 84.2579L121.114 80.4976L104.033 76.6852L99.1059 75.5838C98.6758 75.4861 98.3369 75.3492 97.9328 75.4861C97.3984 75.6751 96.864 76.1117 96.3753 76.3919L93.195 78.2493L82.7092 84.3752L52.0209 102.303L20.2312 120.877L1.69704 131.714L0.81725 132.229C0.543538 132.386 0.791182 132.809 1.06489 132.653V132.646Z" fill="#2B63A8"/>
<path d="M46.834 141.425L142.79 85.5812L187.079 128.587L91.4425 185.388L46.834 141.425Z" fill="#E0EBC5"/>
<path d="M46.9574 141.633L56.5243 136.067L79.4965 122.701L107.128 106.624L131.13 92.6579L139.029 88.0635L141.486 86.6363C141.87 86.4147 142.444 86.2062 142.763 85.8933C142.802 85.8542 142.874 85.8282 142.919 85.8021L142.626 85.763L147.025 90.0316L157.589 100.289L170.375 112.704L181.441 123.444L185.091 126.989L186.238 128.104C186.374 128.24 186.642 128.625 186.831 128.677C186.857 128.684 186.889 128.736 186.909 128.755L186.961 128.371L184.406 129.889L177.459 134.014L167.182 140.121L154.637 147.57L140.893 155.735L126.946 164.019L114.01 171.702L103.075 178.193L95.2089 182.866L92.7585 184.319C92.3675 184.553 91.807 184.762 91.4747 185.081C91.4356 185.12 91.3639 185.146 91.3117 185.179L91.605 185.218L87.18 180.858L76.5443 170.379L63.6147 157.638L52.4838 146.67L48.8277 143.067C48.2673 142.519 47.7133 141.783 47.0682 141.333C47.0421 141.313 47.016 141.281 46.99 141.255C46.7684 141.033 46.423 141.379 46.6446 141.6L51.0696 145.96L61.7052 156.439L74.6349 169.18L85.7658 180.148L89.4218 183.752C89.9823 184.306 90.5362 185.016 91.1814 185.485C91.2075 185.505 91.2335 185.537 91.2596 185.564C91.3378 185.642 91.4616 185.655 91.5529 185.603L94.1075 184.084L101.055 179.959L111.332 173.853L123.877 166.404L137.621 158.238L151.567 149.955L164.504 142.271L175.439 135.781L183.305 131.108C184.53 130.378 185.873 129.72 187.033 128.892C187.085 128.853 187.143 128.827 187.196 128.794C187.326 128.716 187.359 128.521 187.248 128.41L182.849 124.141L172.285 113.884L159.499 101.469L148.433 90.7289L144.783 87.1837C144.229 86.6428 143.675 85.9455 143.043 85.4893C143.017 85.4697 142.991 85.4371 142.965 85.4111C142.887 85.3329 142.763 85.3198 142.672 85.372L133.105 90.9374L110.133 104.304L82.5008 120.381L58.4989 134.347L50.6004 138.941C49.3752 139.652 48.0262 140.29 46.8661 141.111C46.8205 141.144 46.7619 141.17 46.7097 141.203C46.436 141.359 46.6837 141.783 46.9574 141.626V141.633Z" fill="#2B63A8"/>
<path d="M95.2417 172.634L95.0657 172.464L63.9473 142.643L138.351 99.2986L169 129.622L168.636 129.837L95.2547 172.64L95.2417 172.634ZM65.016 142.767L95.3329 171.819L167.925 129.472L138.24 100.1L65.016 142.76V142.767Z" fill="#2B63A8"/>
<path d="M85.5655 130.281L85.1172 130.754L115.926 159.96L116.374 159.487L85.5655 130.281Z" fill="#2B63A8"/>
<path d="M145.822 107.098L72.356 150.148L72.6854 150.71L146.151 107.66L145.822 107.098Z" fill="#2B63A8"/>
<path d="M153.208 114.479L79.7417 157.53L80.0712 158.092L153.537 115.042L153.208 114.479Z" fill="#2B63A8"/>
<path d="M160.585 121.859L87.1187 164.909L87.4481 165.471L160.914 122.421L160.585 121.859Z" fill="#2B63A8"/>
<path d="M39.6127 131.799C45.3714 131.799 50.0398 129.284 50.0398 126.181C50.0398 123.079 45.3714 120.564 39.6127 120.564C33.8539 120.564 29.1855 123.079 29.1855 126.181C29.1855 129.284 33.8539 131.799 39.6127 131.799Z" fill="#5275BF"/>
<path d="M49.799 126.181C49.7208 129.341 45.576 130.749 43.0474 131.238C39.424 131.935 35.1228 131.649 31.91 129.687C30.8216 129.022 29.7268 128.038 29.4791 126.722C29.2315 125.405 30.007 124.154 31.0106 123.32C33.7673 121.019 37.9773 120.576 41.4117 120.896C43.4189 121.085 45.4783 121.586 47.2248 122.629C48.5217 123.398 49.7599 124.578 49.799 126.187C49.8055 126.5 50.2943 126.5 50.2878 126.187C50.203 122.818 46.0452 121.234 43.3016 120.687C39.4045 119.911 34.608 120.205 31.2452 122.538C30.1634 123.287 29.1729 124.35 28.9773 125.705C28.7818 127.061 29.44 128.266 30.3915 129.159C33.2785 131.87 38.0685 132.359 41.8157 131.929C44.8852 131.577 50.19 130.097 50.2878 126.194C50.2943 125.881 49.8055 125.881 49.799 126.194V126.181Z" fill="#2B63A8"/>
<path d="M55.9443 118.204L60.8385 115.389L72.5169 108.67L86.7173 100.504L99.0018 93.44L103.049 91.1135C103.655 90.7681 104.43 90.4618 104.971 90.0121C104.997 89.9926 105.03 89.9795 105.056 89.9665C105.33 89.8101 105.082 89.3865 104.808 89.5429L99.9142 92.3582L88.2358 99.0772L74.0353 107.243L61.7509 114.307L57.7039 116.634C57.0978 116.979 56.3223 117.286 55.7814 117.735C55.7553 117.755 55.7227 117.768 55.6966 117.781C55.4229 117.937 55.6706 118.361 55.9443 118.204Z" fill="#2B63A8"/>
<path d="M111.338 179.614L186.114 135.97L214.352 141.425L139.576 185.707L111.338 179.614Z" fill="white"/>
<path d="M111.463 179.823L114.91 177.809L124.001 172.504L136.683 165.101L151.027 156.727L165.143 148.489L176.932 141.607L184.498 137.189C185 136.896 185.651 136.641 186.095 136.257C186.284 136.094 186.186 136.224 186.101 136.205C186.473 136.276 186.851 136.348 187.222 136.42L200.732 139.027L213.557 141.503L214.293 141.646L214.235 141.197L210.781 143.243L201.67 148.639L188.969 156.16L174.605 164.664L160.483 173.032L148.7 180.012L141.16 184.476C140.678 184.763 140.007 185.023 139.596 185.401C139.414 185.571 139.557 185.44 139.596 185.447C139.225 185.356 138.84 185.284 138.469 185.206L124.9 182.28L112.14 179.523L111.417 179.367C111.111 179.301 110.98 179.771 111.287 179.836L120.879 181.908L136.11 185.199L138.41 185.694C138.742 185.766 139.153 185.929 139.492 185.929C139.811 185.929 140.078 185.694 140.352 185.532L146.432 181.934L157.322 175.482L171.034 167.362L185.645 158.708L199.011 150.79L209.217 144.748C210.898 143.751 212.612 142.8 214.261 141.757C214.333 141.712 214.411 141.672 214.482 141.627C214.652 141.529 214.639 141.223 214.424 141.177L204.792 139.313L189.542 136.368L187.255 135.925C186.935 135.866 186.544 135.716 186.218 135.722C185.893 135.729 185.619 135.964 185.345 136.127L179.239 139.691L168.277 146.091L154.566 154.094L140.039 162.572L126.686 170.367L116.494 176.317C114.812 177.294 113.105 178.233 111.449 179.262C111.378 179.308 111.3 179.347 111.228 179.393C110.954 179.549 111.202 179.973 111.476 179.816L111.463 179.823Z" fill="#2B63A8"/>
<path d="M187.554 145.947L149.369 168.1L149.696 168.663L187.881 146.51L187.554 145.947Z" fill="#2B63A8"/>
<path d="M172.637 33.2693L225.268 63.4362V108.683L172.956 79.1616L165.573 38.4046C165.586 37.8898 165.69 36.1954 166.98 34.8008C168.349 33.3149 170.526 32.7414 172.637 33.2693Z" fill="#405C94"/>
<path d="M172.39 33.6931L177.61 36.6844L190.155 43.8791L205.346 52.5857L218.543 60.1519L222.87 62.6349L224.206 63.4039C224.408 63.5212 224.688 63.7623 224.923 63.8144C224.955 63.821 224.988 63.8535 225.014 63.8666L224.773 63.443V78.7774C224.773 86.891 224.773 94.9981 224.773 103.112V108.69L225.509 108.267L211.27 100.231L185.436 85.6527L176.085 80.374L173.699 79.025C173.628 78.9859 173.308 78.7383 173.23 78.7578C173.413 78.7187 173.4 79.2596 173.387 78.823C173.354 77.8911 173.035 76.894 172.872 75.9816L171.914 70.7094L169.294 56.2613L166.889 42.9993L166.198 39.1869C165.964 37.9096 166.075 36.9125 166.889 35.6938C168.114 33.856 170.421 33.2695 172.494 33.7452C173.106 33.8886 173.367 32.9437 172.754 32.8003C169.118 31.9661 165.312 34.1688 165.091 38.0986C165.051 38.7437 165.247 39.4019 165.364 40.0341L167.365 51.0934L172.161 77.5913C172.253 78.0996 172.233 78.9533 172.52 79.4095C172.735 79.7614 173.38 79.97 173.719 80.159L181.35 84.4667L207.216 99.0646L224.721 108.944L225.007 109.107C225.327 109.29 225.744 109.062 225.744 108.684V63.4365C225.744 63.267 225.653 63.0976 225.503 63.0129L220.283 60.0216L207.737 52.8269L192.546 44.1202L179.35 36.554L175.022 34.0711C174.345 33.6866 173.673 33.2174 172.963 32.8915C172.93 32.8785 172.904 32.8589 172.872 32.8394C172.324 32.5266 171.829 33.3673 172.376 33.6866L172.39 33.6931Z" fill="#2B63A8"/>
<path d="M139.101 174.622L146.967 176.922C146.967 177.007 146.895 177.02 146.849 177.046C146.282 177.398 145.709 177.737 145.142 178.089C145.018 178.167 144.92 178.18 144.79 178.141C142.333 177.417 139.876 176.701 137.419 175.99C137.295 175.951 137.211 175.893 137.152 175.788C137.035 175.58 136.924 175.371 136.781 175.182C136.65 175.006 136.67 174.908 136.898 174.778C137.38 174.504 137.862 174.224 138.312 173.892C138.873 173.481 139.361 173.019 139.674 172.419C139.993 171.813 140.059 171.213 139.844 170.62C139.778 170.444 139.707 170.412 139.511 170.529C138.149 171.37 136.787 172.197 135.419 173.025C135.301 173.097 135.184 173.168 135.021 173.266C135.073 172.738 135.125 172.263 135.171 171.78C135.184 171.67 135.295 171.643 135.366 171.598C136.468 170.927 137.576 170.249 138.677 169.578C138.749 169.538 138.866 169.512 138.86 169.428C138.86 169.349 138.742 169.336 138.677 169.304C137.96 168.991 137.224 169.16 136.487 169.486C135.614 169.871 134.819 170.412 133.998 170.901C133.913 170.953 133.822 171.005 133.685 171.089C133.737 170.562 133.789 170.086 133.835 169.61C133.841 169.532 133.907 169.499 133.965 169.467C136.539 167.903 139.107 166.332 141.681 164.768C141.766 164.807 141.727 164.879 141.72 164.938C141.688 165.309 141.636 165.68 141.616 166.052C141.603 166.228 141.531 166.319 141.369 166.417C140.756 166.782 140.15 167.153 139.511 167.544C139.707 167.622 139.876 167.694 140.046 167.772C140.267 167.877 140.469 168.014 140.632 168.183C140.736 168.294 140.828 168.281 140.971 168.196C141.649 167.772 142.333 167.362 143.069 166.919C143.037 167.244 142.972 167.538 142.985 167.818C143.011 168.3 142.802 168.626 142.307 168.841C142.059 168.952 141.831 169.128 141.59 169.265C141.486 169.323 141.447 169.376 141.486 169.493C141.922 170.764 141.531 171.963 140.652 173.11C140.261 173.618 139.791 174.061 139.257 174.439C139.205 174.472 139.159 174.511 139.114 174.55C139.101 174.557 139.101 174.576 139.088 174.615L139.101 174.622Z" fill="#2B63A8"/>
<path d="M144.92 178.245C144.875 178.245 144.822 178.239 144.77 178.219C142.313 177.496 139.857 176.779 137.4 176.069C137.256 176.023 137.152 175.951 137.087 175.827L137.061 175.788C136.956 175.599 136.846 175.41 136.722 175.234C136.67 175.163 136.611 175.065 136.631 174.961C136.65 174.869 136.722 174.798 136.865 174.713C137.321 174.452 137.81 174.166 138.266 173.833C138.905 173.37 139.329 172.908 139.609 172.386C139.922 171.787 139.974 171.22 139.772 170.653C139.739 170.568 139.72 170.549 139.707 170.542C139.694 170.542 139.661 170.542 139.557 170.601C138.494 171.252 137.432 171.904 136.363 172.549L135.464 173.097C135.347 173.168 135.236 173.24 135.067 173.338L134.93 173.423L134.995 172.817C135.034 172.458 135.067 172.113 135.106 171.774C135.119 171.643 135.223 171.591 135.295 171.559C135.314 171.552 135.327 171.539 135.34 171.533L138.651 169.512C138.651 169.512 138.696 169.486 138.723 169.48C138.749 169.467 138.794 169.447 138.801 169.434C138.794 169.434 138.749 169.415 138.723 169.408C138.703 169.402 138.677 169.395 138.664 169.382C138.071 169.121 137.413 169.174 136.539 169.565C135.881 169.858 135.256 170.242 134.649 170.614C134.454 170.738 134.258 170.855 134.063 170.972L133.613 171.246L133.665 170.705C133.705 170.321 133.744 169.962 133.776 169.597C133.789 169.486 133.867 169.434 133.926 169.402L141.694 164.677L141.733 164.696C141.864 164.755 141.838 164.872 141.825 164.918C141.825 164.925 141.825 164.938 141.825 164.944C141.812 165.074 141.799 165.205 141.786 165.335C141.759 165.57 141.733 165.817 141.72 166.058C141.707 166.247 141.629 166.378 141.434 166.489C140.977 166.756 140.528 167.036 140.065 167.316L139.72 167.531L139.752 167.544C139.876 167.596 139.993 167.642 140.104 167.701C140.358 167.818 140.56 167.961 140.717 168.131C140.775 168.196 140.815 168.209 140.951 168.131C141.44 167.825 141.935 167.525 142.45 167.212L143.187 166.762L143.167 166.925C143.154 167.029 143.141 167.134 143.128 167.232C143.102 167.44 143.076 167.636 143.082 167.818C143.108 168.339 142.874 168.691 142.359 168.919C142.203 168.985 142.059 169.082 141.909 169.18C141.825 169.232 141.74 169.291 141.655 169.343C141.564 169.395 141.564 169.415 141.584 169.473C142.001 170.679 141.72 171.885 140.736 173.168C140.358 173.664 139.876 174.12 139.322 174.517C139.296 174.537 139.27 174.557 139.244 174.583L147.058 176.864V176.922C147.058 177.04 146.973 177.085 146.927 177.105C146.921 177.105 146.908 177.111 146.901 177.118C146.693 177.248 146.484 177.372 146.276 177.502C145.911 177.724 145.552 177.945 145.194 178.167C145.103 178.226 145.018 178.252 144.927 178.252L144.92 178.245ZM139.7 170.386C139.7 170.386 139.739 170.386 139.765 170.399C139.85 170.431 139.896 170.523 139.928 170.607C140.15 171.213 140.091 171.839 139.759 172.471C139.472 173.019 139.029 173.494 138.371 173.977C137.901 174.315 137.393 174.615 136.95 174.863C136.852 174.915 136.807 174.961 136.794 175C136.794 175.032 136.807 175.078 136.859 175.143C136.996 175.326 137.106 175.521 137.211 175.71L137.237 175.749C137.282 175.834 137.347 175.886 137.452 175.912C139.909 176.629 142.366 177.346 144.822 178.063C144.933 178.095 145.005 178.082 145.109 178.017C145.468 177.795 145.833 177.574 146.198 177.352C146.406 177.229 146.615 177.098 146.823 176.974C146.83 176.974 146.836 176.968 146.849 176.961L139.009 174.674L139.048 174.563C139.048 174.563 139.061 174.517 139.088 174.491C139.133 174.452 139.185 174.413 139.231 174.374C139.772 173.983 140.241 173.54 140.612 173.058C141.557 171.826 141.831 170.666 141.434 169.519C141.375 169.343 141.466 169.258 141.577 169.193C141.662 169.141 141.746 169.089 141.825 169.037C141.975 168.939 142.131 168.835 142.3 168.763C142.757 168.561 142.952 168.268 142.926 167.818C142.919 167.623 142.946 167.421 142.972 167.205C142.972 167.16 142.985 167.114 142.991 167.069L142.535 167.349C142.02 167.662 141.531 167.961 141.036 168.268C140.899 168.352 140.756 168.411 140.599 168.242C140.456 168.092 140.267 167.961 140.032 167.851C139.922 167.798 139.811 167.753 139.687 167.701C139.628 167.675 139.57 167.649 139.505 167.623L139.361 167.564L139.98 167.186C140.443 166.899 140.899 166.625 141.355 166.358C141.499 166.274 141.551 166.195 141.564 166.058C141.577 165.817 141.603 165.57 141.629 165.329C141.642 165.198 141.655 165.068 141.668 164.944C141.668 164.931 141.668 164.911 141.675 164.898L134.037 169.545C133.965 169.591 133.946 169.604 133.946 169.63C133.913 169.988 133.874 170.353 133.835 170.738L133.815 170.953L133.985 170.848C134.18 170.731 134.376 170.607 134.571 170.49C135.177 170.112 135.809 169.728 136.481 169.428C137.1 169.154 137.914 168.887 138.736 169.245C138.749 169.245 138.768 169.258 138.781 169.265C138.846 169.291 138.964 169.323 138.964 169.441C138.964 169.558 138.859 169.61 138.794 169.643C138.775 169.649 138.755 169.662 138.742 169.669L135.432 171.689C135.432 171.689 135.392 171.709 135.373 171.722C135.308 171.754 135.275 171.774 135.269 171.813C135.229 172.152 135.197 172.497 135.158 172.856L135.132 173.136C135.229 173.077 135.308 173.032 135.386 172.979L136.285 172.432C137.347 171.787 138.416 171.135 139.472 170.483C139.544 170.438 139.622 170.399 139.7 170.399V170.386Z" fill="#2B63A8"/>
<path d="M193.25 49.9851C199.599 49.9851 204.746 44.8382 204.746 38.4892C204.746 32.1402 199.599 26.9933 193.25 26.9933C186.901 26.9933 181.754 32.1402 181.754 38.4892C181.754 44.8382 186.901 49.9851 193.25 49.9851Z" fill="#2B63A8"/>
<path d="M204.277 40.7374C203.299 45.2732 199.663 48.8444 195.062 49.6004C190.461 50.3564 185.619 48.0103 183.364 43.859C181.109 39.7077 181.741 34.3964 184.941 30.9033C188.095 27.4623 193.152 26.3154 197.486 28.0619C202.485 30.0756 205.306 35.4912 204.283 40.7374C204.225 41.0437 204.694 41.174 204.753 40.8677C205.684 36.0843 203.632 31.1314 199.474 28.5311C195.316 25.9309 189.803 26.2502 185.958 29.3001C182.067 32.3826 180.516 37.7852 182.204 42.4578C183.892 47.1305 188.258 50.1739 193.126 50.2391C198.711 50.3108 203.593 46.2963 204.759 40.8677C204.824 40.5614 204.355 40.4311 204.29 40.7374H204.277Z" fill="#2B63A8"/>
<path d="M191.979 48.5383C198.328 48.5383 203.475 43.3914 203.475 37.0424C203.475 30.6934 198.328 25.5465 191.979 25.5465C185.63 25.5465 180.483 30.6934 180.483 37.0424C180.483 43.3914 185.63 48.5383 191.979 48.5383Z" fill="#FCBC00"/>
<path d="M203.006 39.2844C202.028 43.8202 198.392 47.3915 193.791 48.1474C189.19 48.9034 184.348 46.5573 182.093 42.406C179.832 38.2482 180.47 32.9434 183.67 29.4503C186.87 25.9572 191.881 24.8624 196.215 26.6089C201.214 28.6227 204.036 34.0382 203.012 39.2844C202.954 39.5907 203.423 39.721 203.482 39.4147C204.414 34.6313 202.361 29.6784 198.203 27.0781C194.032 24.4714 188.532 24.7972 184.687 27.8471C180.842 30.8971 179.245 36.3322 180.933 41.0049C182.588 45.5798 186.987 48.7209 191.855 48.7861C197.44 48.8578 202.322 44.8433 203.488 39.4147C203.553 39.1084 203.084 38.9781 203.019 39.2844H203.006Z" fill="#2B63A8"/>
<path d="M190.428 36.8013L193.192 43.1097C193.14 43.1618 193.094 43.1293 193.055 43.1162C192.553 42.9859 192.051 42.8425 191.543 42.7187C191.432 42.6926 191.373 42.6405 191.328 42.5362C190.468 40.5681 189.601 38.6 188.741 36.6319C188.695 36.5341 188.688 36.4429 188.721 36.3386C188.78 36.1366 188.845 35.9346 188.884 35.7325C188.917 35.5435 188.988 35.4979 189.184 35.5501C189.601 35.6739 190.011 35.7977 190.442 35.8694C190.976 35.9606 191.504 35.9671 192.025 35.7847C192.546 35.6022 192.931 35.2633 193.172 34.755C193.244 34.6051 193.224 34.5399 193.048 34.4943C191.843 34.1815 190.644 33.8556 189.438 33.5363C189.334 33.5103 189.236 33.4842 189.086 33.4451C189.425 33.1453 189.731 32.8781 190.037 32.6044C190.109 32.5457 190.181 32.5914 190.246 32.6109C191.217 32.8716 192.195 33.1323 193.166 33.3929C193.224 33.406 193.302 33.4711 193.348 33.4125C193.394 33.3604 193.348 33.2822 193.322 33.2235C193.133 32.5848 192.644 32.2329 192.071 31.9853C191.386 31.6855 190.657 31.5356 189.94 31.3336C189.862 31.314 189.79 31.2945 189.666 31.2619C190.005 30.9621 190.311 30.6949 190.617 30.4212C190.67 30.3756 190.715 30.3951 190.767 30.4082C193.035 31.0143 195.303 31.6203 197.565 32.2264C197.584 32.3046 197.519 32.3242 197.486 32.3568C197.252 32.5718 197.004 32.7738 196.776 32.9889C196.672 33.0932 196.574 33.1062 196.431 33.0671C195.896 32.9172 195.362 32.7804 194.795 32.6239C194.847 32.7934 194.899 32.9433 194.938 33.0932C194.99 33.2952 195.023 33.5037 195.003 33.7188C194.99 33.8557 195.049 33.9013 195.173 33.9339C195.772 34.0837 196.372 34.2532 197.024 34.4226C196.815 34.6116 196.607 34.755 196.45 34.9375C196.176 35.2568 195.877 35.3285 195.492 35.159C195.297 35.0743 195.075 35.0417 194.867 34.9831C194.775 34.957 194.723 34.9635 194.678 35.0613C194.156 36.1301 193.25 36.6449 192.116 36.8143C191.608 36.8925 191.106 36.8795 190.604 36.7883C190.559 36.7818 190.513 36.7752 190.461 36.7687C190.448 36.7687 190.435 36.7818 190.409 36.7948L190.428 36.8013Z" fill="white"/>
<path d="M214.886 24.7646C221.235 24.7646 226.382 19.6177 226.382 13.2687C226.382 6.91965 221.235 1.77277 214.886 1.77277C208.537 1.77277 203.39 6.91965 203.39 13.2687C203.39 19.6177 208.537 24.7646 214.886 24.7646Z" fill="#2B63A8"/>
<path d="M225.782 10.454C226.91 15.0028 225.15 19.8905 221.259 22.5494C217.369 25.2084 212.175 25.1497 208.356 22.4387C204.491 19.695 202.751 14.6509 204.087 10.1086C205.423 5.56628 209.561 2.29477 214.273 2.03409C219.604 1.74734 224.401 5.33818 225.776 10.454C225.86 10.7603 226.33 10.6299 226.245 10.3236C224.974 5.61841 220.927 2.09274 216.059 1.59094C211.191 1.08913 206.264 3.87839 204.204 8.38812C202.158 12.8587 203.168 18.2939 206.707 21.7153C210.207 25.0976 215.551 25.9578 219.943 23.8724C224.994 21.4741 227.581 15.7132 226.245 10.3302C226.167 10.0239 225.697 10.1542 225.776 10.4605L225.782 10.454Z" fill="#2B63A8"/>
<path d="M213.107 24.0221C219.456 24.0221 224.603 18.8752 224.603 12.5262C224.603 6.17716 219.456 1.03027 213.107 1.03027C206.758 1.03027 201.611 6.17716 201.611 12.5262C201.611 18.8752 206.758 24.0221 213.107 24.0221Z" fill="#FCBC00"/>
<path d="M224.003 9.7038C225.131 14.2526 223.371 19.1403 219.481 21.7993C215.59 24.4582 210.396 24.3995 206.577 21.6885C202.712 18.9448 200.972 13.9007 202.308 9.35841C203.644 4.81609 207.783 1.54458 212.494 1.28391C217.825 0.997161 222.622 4.588 223.997 9.7038C224.082 10.0101 224.551 9.87976 224.466 9.57347C223.195 4.86823 219.148 1.34256 214.28 0.840754C209.412 0.338949 204.485 3.1282 202.426 7.63793C200.379 12.1086 201.389 17.5437 204.928 20.9651C208.428 24.3474 213.772 25.2076 218.164 23.1222C223.215 20.724 225.802 14.963 224.466 9.57998C224.388 9.27369 223.919 9.40403 223.997 9.71032L224.003 9.7038Z" fill="#2B63A8"/>
<path d="M211.615 12.9955L216.874 17.44C216.854 17.5117 216.796 17.4987 216.756 17.5052C216.248 17.6095 215.733 17.7072 215.225 17.8115C215.114 17.8376 215.036 17.8115 214.951 17.7398C213.309 16.3517 211.667 14.9636 210.024 13.5755C209.94 13.5038 209.894 13.4321 209.875 13.3213C209.842 13.1128 209.809 12.9042 209.751 12.7022C209.699 12.5197 209.738 12.4415 209.94 12.4089C210.363 12.3373 210.793 12.2656 211.211 12.1417C211.732 11.9919 212.208 11.7638 212.592 11.3727C212.983 10.9752 213.179 10.506 213.166 9.94553C213.166 9.77609 213.12 9.73047 212.944 9.76306C211.725 10.0107 210.5 10.2453 209.282 10.4864C209.177 10.506 209.073 10.5255 208.93 10.5581C209.106 10.141 209.255 9.76306 209.418 9.38507C209.451 9.30035 209.542 9.31339 209.614 9.30035C210.605 9.10484 211.589 8.90934 212.579 8.71383C212.638 8.70079 212.736 8.72034 212.755 8.64866C212.775 8.58349 212.69 8.53787 212.651 8.48573C212.195 7.99045 211.608 7.89269 210.982 7.92528C210.233 7.95786 209.51 8.14685 208.78 8.28371C208.702 8.29674 208.623 8.31629 208.5 8.33584C208.669 7.91876 208.825 7.54078 208.982 7.16279C209.008 7.10414 209.06 7.09762 209.112 7.08459C211.413 6.6284 213.72 6.17873 216.014 5.72906C216.066 5.78772 216.014 5.83334 216.001 5.87895C215.883 6.17222 215.753 6.46548 215.642 6.75874C215.59 6.8956 215.512 6.95425 215.368 6.98032C214.821 7.07807 214.28 7.18886 213.707 7.30617C213.83 7.43651 213.941 7.54729 214.045 7.6646C214.182 7.82101 214.3 7.99696 214.378 8.19247C214.43 8.31629 214.495 8.33584 214.625 8.30978C215.232 8.17944 215.844 8.06865 216.502 7.93831C216.398 8.19899 216.274 8.42056 216.216 8.65518C216.111 9.05923 215.877 9.25473 215.46 9.27429C215.245 9.2808 215.036 9.35249 214.821 9.39159C214.73 9.40462 214.684 9.43721 214.684 9.548C214.684 10.7406 214.098 11.5943 213.159 12.2525C212.742 12.5458 212.279 12.7543 211.791 12.8977C211.745 12.9107 211.699 12.9238 211.66 12.9433C211.647 12.9433 211.641 12.9629 211.628 12.9889L211.615 12.9955Z" fill="white"/>
<path d="M209.353 79.9824C215.702 79.9824 220.849 74.8355 220.849 68.4865C220.849 62.1375 215.702 56.9906 209.353 56.9906C203.004 56.9906 197.857 62.1375 197.857 68.4865C197.857 74.8355 203.004 79.9824 209.353 79.9824Z" fill="#2B63A8"/>
<path d="M220.25 65.6647C221.377 70.2135 219.618 75.1012 215.727 77.7602C211.863 80.406 206.642 80.3604 202.824 77.6494C199.005 74.9383 197.219 69.8616 198.555 65.3193C199.891 60.777 204.029 57.5055 208.741 57.2448C214.072 56.9581 218.868 60.5489 220.243 65.6647C220.328 65.971 220.797 65.8407 220.713 65.5344C219.442 60.8291 215.395 57.3035 210.527 56.8016C205.587 56.2933 200.732 59.0891 198.672 63.5988C196.626 68.0694 197.636 73.5046 201.175 76.926C204.713 80.3474 210.018 81.1685 214.411 79.0831C219.461 76.6849 222.049 70.9239 220.713 65.5409C220.634 65.2346 220.165 65.3649 220.243 65.6712L220.25 65.6647Z" fill="#2B63A8"/>
<path d="M207.574 79.2397C213.923 79.2397 219.07 74.0928 219.07 67.7438C219.07 61.3948 213.923 56.2479 207.574 56.2479C201.225 56.2479 196.078 61.3948 196.078 67.7438C196.078 74.0928 201.225 79.2397 207.574 79.2397Z" fill="#FCBC00"/>
<path d="M218.471 64.9223C219.598 69.4711 217.838 74.3589 213.948 77.0178C210.057 79.6767 204.863 79.618 201.044 76.907C197.18 74.1633 195.44 69.1192 196.776 64.5769C198.112 60.0346 202.25 56.7631 206.962 56.5024C212.292 56.2157 217.089 59.8065 218.464 64.9223C218.549 65.2286 219.018 65.0983 218.933 64.792C217.662 60.0867 213.615 56.5611 208.747 56.0593C203.879 55.5575 198.952 58.3467 196.893 62.8564C194.834 67.3662 195.857 72.7622 199.395 76.1836C202.934 79.605 208.239 80.4261 212.631 78.3407C217.682 75.9425 220.269 70.1815 218.933 64.7985C218.855 64.4922 218.386 64.6225 218.464 64.9288L218.471 64.9223Z" fill="#2B63A8"/>
<path d="M206.082 68.2134L211.341 72.6579C211.322 72.7296 211.263 72.7166 211.224 72.7231C210.715 72.8274 210.201 72.9251 209.692 73.0294C209.582 73.0555 209.503 73.0294 209.419 72.9577C207.776 71.5696 206.134 70.1815 204.492 68.7934C204.407 68.7217 204.361 68.65 204.342 68.5392C204.309 68.3307 204.277 68.1221 204.218 67.9201C204.166 67.7376 204.205 67.6594 204.407 67.6268C204.831 67.5551 205.261 67.4835 205.678 67.3596C206.199 67.2098 206.675 66.9817 207.059 66.5906C207.45 66.1931 207.646 65.7239 207.633 65.1634C207.633 64.994 207.587 64.9484 207.411 64.981C206.193 65.2286 204.968 65.4632 203.749 65.7043C203.645 65.7239 203.54 65.7434 203.397 65.776C203.573 65.3589 203.723 64.981 203.886 64.603C203.918 64.5182 204.01 64.5313 204.081 64.5183C205.072 64.3227 206.056 64.1272 207.046 63.9317C207.105 63.9187 207.203 63.9382 207.222 63.8666C207.242 63.8014 207.157 63.7558 207.118 63.7036C206.662 63.2083 206.075 63.1106 205.45 63.1432C204.7 63.1758 203.977 63.3647 203.247 63.5016C203.169 63.5146 203.091 63.5342 202.967 63.5537C203.136 63.1367 203.293 62.7587 203.449 62.3807C203.475 62.322 203.527 62.3155 203.579 62.3025C205.88 61.8463 208.187 61.3966 210.481 60.947C210.533 61.0056 210.481 61.0512 210.468 61.0969C210.351 61.3901 210.22 61.6834 210.109 61.9766C210.057 62.1135 209.979 62.1721 209.836 62.1982C209.288 62.296 208.747 62.4068 208.174 62.5241C208.298 62.6544 208.408 62.7652 208.513 62.8825C208.65 63.0389 208.767 63.2149 208.845 63.4104C208.897 63.5342 208.962 63.5537 209.093 63.5277C209.699 63.3973 210.311 63.2865 210.97 63.1562C210.865 63.4169 210.742 63.6385 210.683 63.8731C210.579 64.2771 210.344 64.4726 209.927 64.4922C209.712 64.4987 209.503 64.5704 209.288 64.6095C209.197 64.6225 209.151 64.6551 209.151 64.7659C209.151 65.9585 208.565 66.8122 207.626 67.4704C207.209 67.7637 206.747 67.9722 206.258 68.1156C206.212 68.1286 206.167 68.1417 206.128 68.1612C206.114 68.1612 206.108 68.1808 206.095 68.2068L206.082 68.2134Z" fill="white"/>
<path d="M165.572 38.405L218.203 68.5719V113.826L165.892 84.2973L165.572 38.405Z" fill="#5275BF"/>
<path d="M165.325 38.828L170.545 41.8193L183.09 49.014L198.281 57.7206L211.478 65.2868L215.805 67.7698L217.141 68.5388C217.343 68.6561 217.623 68.8972 217.858 68.9493C217.89 68.9559 217.923 68.9884 217.949 69.0015L217.708 68.5779C217.708 73.6872 217.708 78.803 217.708 83.9123C217.708 89.0215 217.708 100.133 217.708 108.247V113.825L218.444 113.401L213.257 110.475L200.79 103.437L185.631 94.8803L172.584 87.5161L168.283 85.0853L166.941 84.3293C166.739 84.2186 166.459 83.9774 166.237 83.9318C166.204 83.9318 166.172 83.8927 166.146 83.8797L166.387 84.3033L166.276 68.806L166.1 44.0937L166.061 38.4174C166.061 37.7918 165.077 37.7853 165.083 38.4174L165.194 53.9147L165.37 78.627L165.409 84.3033C165.409 84.4727 165.501 84.6422 165.65 84.7269L170.838 87.653L183.305 94.6913L198.463 103.248L211.51 110.612L215.811 113.043C216.483 113.421 217.154 113.877 217.858 114.197C217.89 114.21 217.916 114.229 217.949 114.249C218.268 114.431 218.685 114.203 218.685 113.825C218.685 108.716 218.685 103.6 218.685 98.4907C218.685 90.3771 218.685 82.27 218.685 74.1564V68.5779C218.685 68.4084 218.594 68.239 218.444 68.1543L213.224 65.163L200.679 57.9683L185.488 49.2616L172.291 41.6955L167.964 39.2125C167.286 38.828 166.615 38.3588 165.905 38.0329C165.872 38.0199 165.846 38.0004 165.813 37.9808C165.266 37.668 164.771 38.5087 165.318 38.828H165.325Z" fill="#2B63A8"/>
</svg>
