<svg width="78" height="90" viewBox="0 0 78 90" fill="none" xmlns="http://www.w3.org/2000/svg">
<g clip-path="url(#clip0_434_9974)">
<path d="M70.4172 18.5394C70.4172 16.9859 70.4172 15.4323 70.3654 13.8269C70.3654 13.1537 70.0029 13.2573 69.5886 13.2573C64.8243 13.1537 60.1118 12.6876 55.5028 11.4448C48.0457 9.47691 45.7153 5.38583 40.1742 0.0518912C40.0707 -0.0516804 35.5135 0.0518912 35.4099 0.0518912C34.3742 1.34654 33.1314 2.33047 31.8367 3.3144C25.3117 8.49298 17.9063 11.4966 9.72416 12.6358C6.97952 12.9983 4.28665 13.1537 1.542 13.2573C1.02415 13.2573 0.868788 13.3608 0.817002 13.9305C0.71343 20.0412 0.558073 26.1002 0.71343 32.2109C0.868788 39.7716 1.59379 47.3324 3.97594 54.5824C7.08309 64.0074 12.6242 71.5681 20.8063 77.161C25.2599 80.2163 30.076 82.4949 35.0992 84.3074C35.4099 84.411 39.8117 84.6181 40.1742 84.5146C46.2332 82.3396 47.7867 79.336 52.8618 75.3485C59.335 70.2735 63.8921 63.8002 66.6886 56.0842C68.5529 50.9056 69.5368 45.5198 70.0547 40.0305C70.21 38.4252 70.3136 36.8198 70.3654 35.2145C70.6243 29.6734 70.5207 24.0805 70.4172 18.5394Z" fill="#223838"/>
<path d="M75.0778 18.5391C75.0778 16.9856 75.0778 15.432 75.026 13.8266C75.026 13.1534 74.6635 13.257 74.2492 13.257C69.4849 13.1534 64.7724 12.6873 60.1635 11.4445C52.7063 9.47663 46.2331 5.74805 40.692 0.465894C40.5884 0.362323 40.4331 0.258751 40.4331 0.103394H40.1223C39.0866 1.39804 37.8438 2.38197 36.5491 3.3659C30.0241 8.54448 22.6187 11.5481 14.4366 12.6873C11.6919 13.0499 8.99905 13.2052 6.25441 13.3088C5.73655 13.3088 5.58119 13.4124 5.5294 13.982C5.42583 20.0927 5.27048 26.1517 5.42583 32.2624C5.58119 39.8231 6.30619 47.3839 8.68834 54.6339C11.7955 64.0589 17.3366 71.6196 25.5187 77.2125C29.9723 80.2679 34.7884 82.5464 39.8116 84.3589C40.1223 84.4625 40.4331 84.4625 40.7438 84.3589C46.8027 82.1839 52.4991 79.3875 57.5742 75.3482C64.0474 70.2732 68.6045 63.8 71.401 56.0839C73.2653 50.9053 74.2492 45.5196 74.7671 40.0303C74.9224 38.4249 75.026 36.8195 75.0778 35.2142C75.3367 29.6731 75.2331 24.0802 75.1296 18.5391H75.0778Z" fill="#DCEAC0"/>
<path d="M40.2776 84.4109C40.2776 84.4109 39.9668 84.4109 39.8115 84.3073C34.2704 82.3395 29.6097 80.0091 25.5186 77.1609C17.44 71.568 11.7436 64.0073 8.63641 54.5305C5.99534 46.5037 5.52926 38.3733 5.37391 32.159C5.27033 27.3429 5.37391 22.4751 5.42569 17.7625C5.42569 16.4679 5.42569 15.1732 5.47748 13.8786C5.47748 13.2572 5.73641 13.1536 6.25427 13.1536C9.20606 13.1018 11.8989 12.8947 14.4364 12.5322C22.7739 11.3929 30.2311 8.28573 36.549 3.26251L36.8597 3.00358C37.999 2.12322 39.1383 1.19107 40.0704 0H40.4847C40.4847 0 40.5883 0.258929 40.6401 0.310715C40.6401 0.310715 40.6918 0.310715 40.7436 0.362501C46.3365 5.69644 52.8615 9.42502 60.1633 11.3411C64.3062 12.4286 68.9151 13.05 74.1973 13.1018C74.1973 13.1018 74.3008 13.1018 74.3526 13.1018H74.4562C74.4562 13.1018 74.7669 13.1018 74.8705 13.2054C74.9741 13.309 75.0258 13.4643 75.0258 13.7232C75.0258 15.1215 75.0258 16.6233 75.0776 18.4358V19.6786C75.1812 24.7536 75.2848 29.984 75.0258 35.1108C74.9223 36.8715 74.8187 38.4251 74.7151 39.8751C74.1455 45.9858 73.058 51.2162 71.3491 55.9287C68.5526 63.6966 63.8919 70.1698 57.5222 75.193C52.9133 78.8698 47.3722 81.7698 40.6918 84.2038C40.5365 84.2555 40.3811 84.3073 40.2258 84.3073L40.2776 84.4109ZM40.1222 0.155357C39.1901 1.29465 38.0508 2.22679 36.9115 3.15894L36.6008 3.41787C30.2829 8.44109 22.7739 11.6 14.4364 12.7393C11.8989 13.1018 9.20606 13.2572 6.25427 13.3607C5.78819 13.3607 5.63283 13.4643 5.63283 13.9822C5.63283 15.2768 5.63283 16.5715 5.58105 17.8661C5.47748 22.5786 5.42569 27.4465 5.52926 32.2626C5.68462 38.4769 6.15069 46.6073 8.79177 54.6341C11.8989 64.0591 17.5436 71.6198 25.6222 77.1609C29.7132 79.9573 34.374 82.2877 39.9151 84.3073C40.2258 84.4109 40.4847 84.4109 40.7954 84.3073C47.4758 81.9252 52.9651 78.9734 57.574 75.3484C63.9437 70.3252 68.5526 63.8519 71.3491 56.1358C73.058 51.4233 74.1455 46.193 74.6633 40.134C74.8187 38.684 74.9223 37.1304 74.9741 35.3697C75.233 30.2429 75.1294 25.0126 75.0258 19.9375V18.6947C75.0258 16.934 74.9741 15.4322 74.9741 13.9822C74.9741 13.775 74.9741 13.6197 74.8705 13.5679C74.7669 13.5161 74.6633 13.4643 74.508 13.4643C74.4562 13.4643 74.3526 13.4643 74.3008 13.4643C68.9669 13.3607 64.358 12.7911 60.2151 11.6518C52.8615 9.73574 46.3365 6.00716 40.7436 0.62143C40.7436 0.62143 40.7436 0.62143 40.6918 0.569644C40.5883 0.517858 40.4847 0.414287 40.4847 0.258929H40.2258L40.1222 0.155357Z" fill="#0565AD"/>
<path d="M40.692 68.4092C55.2783 68.4092 67.1028 56.5847 67.1028 41.9984C67.1028 27.4121 55.2783 15.5876 40.692 15.5876C26.1058 15.5876 14.2812 27.4121 14.2812 41.9984C14.2812 56.5847 26.1058 68.4092 40.692 68.4092Z" fill="#AACD76"/>
<path d="M67.1546 42.0501C67.1546 52.9769 60.1636 62.9716 49.91 66.7002C39.5528 70.4287 27.6938 67.1662 20.7028 58.7251C13.7117 50.284 12.8313 37.959 18.476 28.534C24.1206 19.109 35.4099 14.1893 46.2332 16.3643C57.0564 18.5393 65.1868 27.2911 66.8439 38.0108C67.0511 39.3572 67.1546 40.7037 67.1546 42.0501C67.1546 42.309 67.5689 42.309 67.5689 42.0501C67.5689 36.5608 65.86 31.1233 62.6493 26.6179C59.5421 22.2679 55.1921 18.9018 50.1689 17.0893C39.6564 13.2054 27.5385 16.5197 20.4438 25.1161C13.3492 33.7126 12.417 46.193 18.1653 55.7733C23.9135 65.3019 35.2546 70.3252 46.1814 68.1502C56.9528 66.0269 65.5493 57.068 67.2582 46.193C67.4654 44.7948 67.5689 43.4483 67.5689 42.0501C67.5689 41.7912 67.2064 41.7912 67.1546 42.0501Z" fill="#0565AD"/>
<path d="M56.7453 29.6734C48.9774 35.6805 41.2095 41.6359 33.4417 47.6431C31.3702 45.5716 29.3506 43.552 27.2792 41.4805C24.897 39.0984 21.272 42.7752 23.6024 45.1573L31.3702 52.9252C32.0952 53.6502 33.597 54.0127 34.5292 53.3395C42.8149 46.9698 51.1006 40.5484 59.3864 34.1787C61.9757 32.1591 59.3864 27.6537 56.7971 29.7252L56.7453 29.6734Z" fill="white"/>
</g>
<defs>
<clipPath id="clip0_434_9974">
<rect width="76.8502" height="89.0199" fill="white" transform="translate(0.662109)"/>
</clipPath>
</defs>
</svg>
