<svg width="600" height="600" viewBox="0 0 600 600" fill="none" xmlns="http://www.w3.org/2000/svg">
<g clip-path="url(#clip0_843_1293)">
<path d="M366.942 235.586C346.788 235.711 328.485 248.049 320.918 266.743C312.924 286.453 318.995 310.061 335.482 323.485C351.969 336.91 374.669 338.441 392.509 327.687C410.349 316.933 420.141 294.429 415.173 273.545C409.921 251.432 389.553 235.746 366.96 235.586C363.524 235.568 363.524 240.91 366.96 240.927C384.657 241.034 401.019 251.752 407.838 268.168C415.245 286.008 409.903 306.945 395.144 319.284C380.384 331.622 359.963 332.619 344.135 323.076C328.307 313.533 319.316 293.058 324.034 274.364C328.966 254.815 346.877 241.052 366.96 240.91C370.396 240.892 370.396 235.551 366.96 235.568L366.942 235.586Z" fill="#231F20"/>
<path d="M227.363 324.89V227.056C227.363 224.493 227.256 221.982 228.2 219.543C229.856 215.27 233.897 212.137 238.437 211.62C240.485 211.389 242.639 211.549 244.686 211.549H260.87C264.307 211.549 264.307 206.208 260.87 206.208H246.271C240.271 206.208 234.396 205.887 229.286 209.715C224.461 213.329 222.04 218.777 222.004 224.742C222.004 227.377 222.004 230.03 222.004 232.665V324.908C222.004 328.344 227.345 328.344 227.345 324.908L227.363 324.89Z" fill="#231F20"/>
<path d="M349.658 413.838H286.187C282.75 413.838 282.75 419.179 286.187 419.179H349.658C353.095 419.179 353.095 413.838 349.658 413.838Z" fill="#231F20"/>
<path d="M378.215 330.712V352.914C378.215 356.35 383.556 356.35 383.556 352.914V330.712C383.556 327.276 378.215 327.276 378.215 330.712Z" fill="#231F20"/>
<path d="M342.161 211.55H363.081C366.891 211.55 370.488 211.799 373.603 214.363C377.396 217.497 378.215 221.716 378.215 226.345V238.096C378.215 241.532 383.556 241.532 383.556 238.096V226.951C383.556 221.663 382.862 216.802 379.336 212.565C375.811 208.328 370.488 206.209 364.968 206.209C361.034 206.209 357.081 206.209 353.147 206.209H342.144C338.707 206.209 338.707 211.55 342.144 211.55H342.161Z" fill="#231F20"/>
<path d="M244.839 326.155V235.372C244.839 234.143 244.803 232.915 244.839 231.686C244.963 227.591 248.115 224.921 252.067 224.885C256.999 224.85 261.931 224.885 266.862 224.885H348.014C349.794 224.885 351.575 224.885 353.355 224.885C357.361 224.903 360.601 227.502 360.726 231.686C360.779 233.395 360.726 235.105 360.726 236.814C360.726 240.25 366.067 240.25 366.067 236.814C366.067 231.188 366.174 225.704 361.153 221.947C358.589 220.025 355.634 219.544 352.536 219.544H334.411C314.186 219.544 293.943 219.544 273.717 219.544H253.937C251.996 219.544 250.073 219.473 248.204 220.042C242.862 221.627 239.551 226.523 239.497 231.989C239.337 247.105 239.497 262.238 239.497 277.354C239.497 293.324 239.266 309.312 239.497 325.283C239.497 325.568 239.497 325.87 239.497 326.155C239.497 329.591 244.839 329.591 244.839 326.155Z" fill="#231F20"/>
<path d="M346.823 387.828H272.972C269.535 387.828 269.535 393.169 272.972 393.169H346.823C350.26 393.169 350.26 387.828 346.823 387.828Z" fill="#231F20"/>
<path d="M360.73 333.452V353.963C360.73 357.399 366.072 357.399 366.072 353.963V333.452C366.072 330.016 360.73 330.016 360.73 333.452Z" fill="#231F20"/>
<path d="M318.285 196.736C318.053 187.514 310.682 179.822 301.335 179.822C291.988 179.822 284.599 187.531 284.368 196.736L287.038 194.066H263.003C261.561 194.066 260.332 195.294 260.332 196.736V223.656C260.332 225.098 261.561 226.327 263.003 226.327H339.65C341.092 226.327 342.32 225.098 342.32 223.656V196.736C342.32 195.294 341.092 194.066 339.65 194.066H315.614C312.178 194.066 312.178 199.407 315.614 199.407H339.65L336.979 196.736V223.656L339.65 220.985H263.003L265.673 223.656V196.736L263.003 199.407H287.038C288.516 199.407 289.673 198.178 289.709 196.736C289.869 190.416 294.908 185.164 301.335 185.164C307.762 185.164 312.801 190.416 312.961 196.736C313.05 200.172 318.391 200.172 318.302 196.736H318.285Z" fill="#231F20"/>
<path d="M266.194 269.519C271.917 269.519 276.556 264.88 276.556 259.157C276.556 253.434 271.917 248.795 266.194 248.795C260.471 248.795 255.832 253.434 255.832 259.157C255.832 264.88 260.471 269.519 266.194 269.519Z" fill="#C1D9E5"/>
<path d="M266.194 308.048C271.917 308.048 276.556 303.409 276.556 297.686C276.556 291.963 271.917 287.324 266.194 287.324C260.471 287.324 255.832 291.963 255.832 297.686C255.832 303.409 260.471 308.048 266.194 308.048Z" fill="#C1D9E5"/>
<path d="M282.764 360.195C271.458 360.195 260.135 360.195 248.829 360.195C230.829 360.195 212.811 360.195 194.811 360.195H182.491L185.162 362.865V346.592L182.491 349.263H282.764L280.093 346.592V362.865C280.093 366.302 285.435 366.302 285.435 362.865V346.592C285.435 345.15 284.206 343.922 282.764 343.922H182.491C181.049 343.922 179.82 345.15 179.82 346.592V362.865C179.82 364.308 181.049 365.536 182.491 365.536C193.797 365.536 205.12 365.536 216.426 365.536C234.426 365.536 252.443 365.536 270.443 365.536H282.764C286.2 365.536 286.2 360.195 282.764 360.195Z" fill="#231F20"/>
<path d="M273.365 343.177H192.339L195.009 345.847V337.711L193.051 340.292C204.819 336.055 216.606 331.818 228.374 327.58L231.597 326.423C231.899 326.316 232.896 326.156 233.11 325.889C233.021 325.996 231.49 325.586 231.864 325.924C232.024 326.049 232.38 326.102 232.558 326.174C233.431 326.53 234.339 326.797 235.229 327.117C242.19 329.574 249.169 332.031 256.131 334.488C261.632 336.429 267.152 338.37 272.653 340.31L270.695 337.729V345.865C270.695 349.301 276.036 349.301 276.036 345.865V337.729C276.036 336.482 275.199 335.556 274.077 335.147C262.149 330.945 250.202 326.726 238.273 322.524C236.653 321.954 234.944 321.117 233.253 320.743C231.81 320.423 230.457 321.171 229.104 321.651C222.25 324.108 215.413 326.583 208.558 329.04C202.914 331.07 197.27 333.1 191.626 335.129C190.505 335.539 189.668 336.464 189.668 337.711V345.847C189.668 347.289 190.896 348.518 192.339 348.518H273.383C276.819 348.518 276.819 343.177 273.383 343.177H273.365Z" fill="#231F20"/>
<path d="M282.764 417.918H182.491L185.162 420.588V404.315L182.491 406.986H282.764L280.093 404.315V420.588C280.093 424.024 285.435 424.024 285.435 420.588V404.315C285.435 402.873 284.206 401.645 282.764 401.645H182.491C181.049 401.645 179.82 402.873 179.82 404.315V420.588C179.82 422.03 181.049 423.259 182.491 423.259H282.764C286.2 423.259 286.2 417.918 282.764 417.918Z" fill="#231F20"/>
<path d="M190.914 364.362V402.766C190.914 406.202 196.255 406.202 196.255 402.766V364.362C196.255 360.926 190.914 360.926 190.914 364.362Z" fill="#231F20"/>
<path d="M366.586 348.087V358.147C366.586 359.535 367.814 360.889 369.257 360.817C370.699 360.746 371.927 359.642 371.927 358.147V348.087C371.927 346.699 370.699 345.346 369.257 345.417C367.814 345.488 366.586 346.592 366.586 348.087Z" fill="#231F20"/>
<path d="M397.156 348.087V358.147C397.156 359.535 398.385 360.889 399.827 360.817C401.269 360.746 402.497 359.642 402.497 358.147V348.087C402.497 346.699 401.269 345.346 399.827 345.417C398.385 345.488 397.156 346.592 397.156 348.087Z" fill="#231F20"/>
<path d="M206.617 364.362V402.766C206.617 406.202 211.958 406.202 211.958 402.766V364.362C211.958 360.926 206.617 360.926 206.617 364.362Z" fill="#231F20"/>
<path d="M222.324 364.362V402.766C222.324 406.202 227.665 406.202 227.665 402.766V364.362C227.665 360.926 222.324 360.926 222.324 364.362Z" fill="#231F20"/>
<path d="M238.027 364.362V402.766C238.027 406.202 243.369 406.202 243.369 402.766V364.362C243.369 360.926 238.027 360.926 238.027 364.362Z" fill="#231F20"/>
<path d="M253.73 364.362V402.766C253.73 406.202 259.072 406.202 259.072 402.766V364.362C259.072 360.926 253.73 360.926 253.73 364.362Z" fill="#231F20"/>
<path d="M269.449 364.362V402.766C269.449 406.202 274.79 406.202 274.79 402.766V364.362C274.79 360.926 269.449 360.926 269.449 364.362Z" fill="#231F20"/>
<path d="M409.196 416.583C393.493 416.583 377.789 416.583 362.104 416.583C359.611 416.583 356.905 416.885 354.68 415.586C351.261 413.574 351.048 410.173 351.048 406.701V366.749C351.048 363.526 350.976 360.357 353.825 358.096C356.157 356.245 358.988 356.529 361.748 356.529H403.018C405.065 356.529 407.131 356.476 409.196 356.529C413.914 356.654 416.549 360.375 416.549 364.791V403.96C416.549 406.167 416.87 408.713 416.353 410.903C415.588 414.268 412.579 416.476 409.214 416.565C405.849 416.654 405.778 422.013 409.214 421.906C416.335 421.693 421.748 416.173 421.89 409.052C421.944 406.132 421.89 403.212 421.89 400.31V369.277C421.89 366.518 422.175 363.473 421.516 360.767C420.074 354.838 414.626 351.224 408.733 351.17C400.347 351.117 391.979 351.17 383.594 351.17C375.208 351.17 367.071 351.099 358.81 351.17C352.757 351.224 347.149 355.176 345.991 361.336C345.493 364.007 345.742 366.874 345.742 369.58V400.488C345.742 403.354 345.689 406.239 345.742 409.105C345.884 416.191 351.332 421.71 358.419 421.888C374.763 422.334 391.16 421.888 407.522 421.888H409.249C412.686 421.888 412.686 416.547 409.249 416.547L409.196 416.583Z" fill="#231F20"/>
<path d="M348.694 374.812H418.95C422.386 374.812 422.386 369.471 418.95 369.471H348.694C345.258 369.471 345.258 374.812 348.694 374.812Z" fill="#231F20"/>
<path d="M362.103 392.777H367.996C368.673 392.777 369.403 392.474 369.883 391.993C370.364 391.513 370.702 390.765 370.667 390.106C370.631 389.447 370.417 388.7 369.883 388.219C369.349 387.738 368.726 387.436 367.996 387.436H362.103C361.426 387.436 360.696 387.738 360.216 388.219C359.735 388.7 359.397 389.447 359.432 390.106C359.468 390.765 359.682 391.513 360.216 391.993C360.75 392.474 361.373 392.777 362.103 392.777Z" fill="#231F20"/>
<path d="M289.726 254.955H318.586C322.022 254.955 322.022 249.613 318.586 249.613H289.726C286.289 249.613 286.289 254.955 289.726 254.955Z" fill="#231F20"/>
<path d="M289.726 269.945H318.586C322.022 269.945 322.022 264.604 318.586 264.604H289.726C286.289 264.604 286.289 269.945 289.726 269.945Z" fill="#231F20"/>
<path d="M289.726 292.22H318.586C322.022 292.22 322.022 286.879 318.586 286.879H289.726C286.289 286.879 286.289 292.22 289.726 292.22Z" fill="#231F20"/>
<path d="M289.726 307.212H318.586C322.022 307.212 322.022 301.871 318.586 301.871H289.726C286.289 301.871 286.289 307.212 289.726 307.212Z" fill="#231F20"/>
<path d="M289.726 328.966H333.595C337.031 328.966 337.031 323.625 333.595 323.625H289.726C286.289 323.625 286.289 328.966 289.726 328.966Z" fill="#231F20"/>
<path d="M289.726 343.958H318.586C322.022 343.958 322.022 338.617 318.586 338.617H289.726C286.289 338.617 286.289 343.958 289.726 343.958Z" fill="#231F20"/>
<path d="M381.4 392.777H387.293C387.969 392.777 388.699 392.474 389.18 391.993C389.661 391.513 389.999 390.765 389.964 390.106C389.928 389.447 389.714 388.7 389.18 388.219C388.646 387.738 388.023 387.436 387.293 387.436H381.4C380.723 387.436 379.993 387.738 379.513 388.219C379.032 388.7 378.694 389.447 378.729 390.106C378.765 390.765 378.978 391.513 379.513 391.993C380.047 392.474 380.67 392.777 381.4 392.777Z" fill="#231F20"/>
<path d="M400.72 392.777H406.613C407.29 392.777 408.02 392.474 408.5 391.993C408.981 391.513 409.319 390.765 409.284 390.106C409.248 389.447 409.035 388.7 408.5 388.219C407.966 387.738 407.343 387.436 406.613 387.436H400.72C400.044 387.436 399.314 387.738 398.833 388.219C398.352 388.7 398.014 389.447 398.049 390.106C398.085 390.765 398.299 391.513 398.833 391.993C399.367 392.474 399.99 392.777 400.72 392.777Z" fill="#231F20"/>
<path d="M362.103 407.806H367.996C368.673 407.806 369.403 407.503 369.883 407.023C370.364 406.542 370.702 405.794 370.667 405.135C370.631 404.477 370.417 403.729 369.883 403.248C369.349 402.768 368.726 402.465 367.996 402.465H362.103C361.426 402.465 360.696 402.768 360.216 403.248C359.735 403.729 359.397 404.477 359.432 405.135C359.468 405.794 359.682 406.542 360.216 407.023C360.75 407.503 361.373 407.806 362.103 407.806Z" fill="#231F20"/>
<path d="M381.4 407.806H387.293C387.969 407.806 388.699 407.503 389.18 407.023C389.661 406.542 389.999 405.794 389.964 405.135C389.928 404.477 389.714 403.729 389.18 403.248C388.646 402.768 388.023 402.465 387.293 402.465H381.4C380.723 402.465 379.993 402.768 379.513 403.248C379.032 403.729 378.694 404.477 378.729 405.135C378.765 405.794 378.978 406.542 379.513 407.023C380.047 407.503 380.67 407.806 381.4 407.806Z" fill="#231F20"/>
<path d="M400.72 407.806H406.613C407.29 407.806 408.02 407.503 408.5 407.023C408.981 406.542 409.319 405.794 409.284 405.135C409.248 404.477 409.035 403.729 408.5 403.248C407.966 402.768 407.343 402.465 406.613 402.465H400.72C400.044 402.465 399.314 402.768 398.833 403.248C398.352 403.729 398.014 404.477 398.049 405.135C398.085 405.794 398.299 406.542 398.833 407.023C399.367 407.503 399.99 407.806 400.72 407.806Z" fill="#231F20"/>
<path d="M375.027 263.964C376.345 265.744 377.199 267.632 377.644 269.697C377.751 270.196 378.125 270 378.374 270C380.368 270 382.362 270 384.356 270C385.834 270 386.244 270.427 386.244 271.905C386.244 273.08 386.244 274.255 386.244 275.448C386.244 276.569 385.799 277.015 384.659 277.015C382.63 277.015 380.618 277.032 378.588 277.015C378.054 277.015 377.822 277.139 377.698 277.691C376.291 284.51 371.929 288.534 365.448 290.546C363.971 291.009 362.457 291.24 360.873 291.543C362.084 292.878 363.259 294.142 364.416 295.442C368.404 299.964 372.321 304.522 376.095 309.204C377.395 310.807 378.713 312.409 380.048 313.994C380.422 314.457 380.564 314.92 380.297 315.454C380.03 316.006 379.603 316.273 378.944 316.255C376.309 316.237 373.674 316.219 371.021 316.255C370.291 316.255 369.882 315.863 369.49 315.382C367.941 313.549 366.428 311.679 364.861 309.845C362.297 306.836 359.716 303.863 357.152 300.872C354.535 297.828 351.846 294.872 349.122 291.934C348.695 291.471 348.499 290.991 348.517 290.35C348.552 288.801 348.517 287.27 348.517 285.721C348.517 284.563 348.997 284.083 350.137 284.065C352.665 284.029 355.193 284.207 357.704 283.887C360.784 283.495 363.721 282.73 365.965 280.344C366.73 279.543 367.193 278.563 367.621 277.566C367.799 277.121 367.71 276.979 367.211 276.979C365.662 276.997 364.131 276.979 362.582 276.979C358.505 276.979 354.446 276.979 350.368 276.979C348.855 276.979 348.517 276.623 348.517 275.092C348.517 273.917 348.517 272.742 348.517 271.549C348.517 270.516 348.944 270.053 349.959 269.982C350.351 269.946 350.742 269.982 351.134 269.982C356.155 269.982 361.175 269.982 366.214 269.982C366.481 269.982 366.873 270.124 366.997 269.857C367.14 269.572 366.819 269.323 366.641 269.074C365.199 267.062 363.098 266.19 360.784 265.709C357.348 264.997 353.876 265.264 350.404 265.21C348.891 265.193 348.552 264.854 348.552 263.323C348.552 261.721 348.552 260.118 348.552 258.516C348.552 257.394 349.015 256.949 350.137 256.949C361.638 256.949 373.158 256.949 384.659 256.949C385.638 256.949 386.155 257.377 386.173 258.338C386.226 259.744 386.226 261.151 386.173 262.54C386.137 263.537 385.621 263.946 384.463 263.946C381.597 263.946 378.73 263.946 375.864 263.928C375.632 263.928 375.383 263.928 375.027 263.928V263.964Z" fill="url(#paint0_linear_843_1293)"/>
</g>
<defs>
<linearGradient id="paint0_linear_843_1293" x1="348.517" y1="286.629" x2="386.244" y2="286.629" gradientUnits="userSpaceOnUse">
<stop stop-color="#8DCC9A"/>
<stop offset="1" stop-color="#5DC4C6"/>
</linearGradient>
<clipPath id="clip0_843_1293">
<rect width="242.101" height="243.436" fill="white" transform="translate(179.82 179.822)"/>
</clipPath>
</defs>
</svg>
