<svg width="600" height="600" viewBox="0 0 600 600" fill="none" xmlns="http://www.w3.org/2000/svg">
<g clip-path="url(#clip0_785_2569)">
<path d="M243.578 306.894V339.924C243.578 352.093 243.745 364.279 243.578 376.448C243.528 379.908 240.987 381.647 237.761 381.647C234.534 381.647 229.57 382.616 227.163 380.193C225.692 378.722 225.708 376.933 225.708 375.061V307.763C225.708 305.005 226.996 302.364 230.055 301.979C232.796 301.645 235.872 301.829 238.63 301.962C241.388 302.096 243.461 304.102 243.561 306.894C243.678 310.103 248.693 310.12 248.576 306.894C248.342 300.809 243.628 296.948 237.744 296.948C233.849 296.948 229.119 296.262 225.608 298.302C219.925 301.628 220.677 307.897 220.677 313.446V362.424C220.677 367.104 220.56 371.818 220.677 376.498C220.794 381.446 224.104 385.776 229.135 386.528C232.345 386.996 235.972 386.879 239.198 386.645C244.597 386.244 248.425 381.864 248.559 376.565C248.592 375.078 248.559 373.573 248.559 372.085V350.505C248.559 336.247 248.743 321.988 248.559 307.729C248.559 307.462 248.559 307.178 248.559 306.91C248.559 303.684 243.544 303.684 243.544 306.91L243.578 306.894Z" fill="#221F20"/>
<path d="M390.16 415.479C383.073 415.479 375.985 415.479 368.881 415.479H319.385C300.463 415.479 281.54 415.479 262.635 415.479H219.575C216.282 415.479 213.006 415.479 209.712 415.479C208.091 415.479 206.553 415.262 205.316 414.025C203.711 412.42 203.862 410.415 203.862 408.342C203.862 406.453 203.778 404.547 203.862 402.658C204.079 397.56 208.459 397.61 212.153 397.61H225.526C241.239 397.61 256.968 397.61 272.681 397.61H329.682C344.977 397.61 360.255 397.61 375.55 397.61H387.786C388.539 397.61 389.291 397.577 390.043 397.61C391.497 397.66 392.835 398.128 393.838 399.248C395.258 400.853 395.091 402.775 395.091 404.731C395.091 408.81 396.027 415.245 390.16 415.463C386.951 415.58 386.934 420.595 390.16 420.478C393.687 420.344 396.93 418.639 398.752 415.546C400.006 413.39 400.106 411.1 400.106 408.693C400.106 403.544 400.741 398.045 396.077 394.551C392.985 392.228 389.358 392.579 385.747 392.579C373.127 392.579 360.506 392.579 347.886 392.579C328.763 392.579 309.623 392.579 290.5 392.579C272.48 392.579 254.444 392.579 236.424 392.579C227.331 392.579 218.238 392.478 209.161 392.579C205.417 392.629 201.906 394.384 200.067 397.744C198.128 401.288 198.713 406.486 198.847 410.415C199.031 416.031 203.21 420.31 208.86 420.478C209.595 420.494 210.331 420.478 211.066 420.478C222.3 420.478 233.516 420.478 244.749 420.478C263.554 420.478 282.343 420.478 301.148 420.478C319.953 420.478 338.307 420.478 356.896 420.478H388.639C389.14 420.478 389.642 420.478 390.16 420.478C393.386 420.478 393.386 415.463 390.16 415.463V415.479Z" fill="#221F20"/>
<path d="M375.617 306.894V339.924C375.617 352.093 375.784 364.279 375.617 376.448C375.567 379.908 373.026 381.647 369.8 381.647C366.573 381.647 361.609 382.616 359.202 380.193C357.731 378.722 357.748 376.933 357.748 375.061V307.763C357.748 305.005 359.035 302.364 362.094 301.979C364.835 301.645 367.911 301.829 370.669 301.962C373.427 302.096 375.5 304.102 375.6 306.894C375.717 310.103 380.732 310.12 380.615 306.894C380.381 300.809 375.667 296.948 369.783 296.948C365.888 296.948 361.158 296.262 357.647 298.302C351.964 301.628 352.716 307.897 352.716 313.446V362.424C352.716 367.104 352.599 371.818 352.716 376.498C352.833 381.446 356.143 385.776 361.174 386.528C364.384 386.996 368.011 386.879 371.237 386.645C376.636 386.244 380.464 381.864 380.598 376.565C380.632 375.078 380.598 373.573 380.598 372.085V350.505C380.598 336.247 380.782 321.988 380.598 307.729C380.598 307.462 380.598 307.178 380.598 306.91C380.598 303.684 375.583 303.684 375.583 306.91L375.617 306.894Z" fill="#221F20"/>
<path d="M330.351 306.894V339.924C330.351 352.093 330.518 364.279 330.351 376.448C330.301 379.908 327.76 381.647 324.534 381.647C321.308 381.647 316.343 382.616 313.936 380.193C312.465 378.722 312.482 376.933 312.482 375.061V307.763C312.482 305.005 313.769 302.364 316.828 301.979C319.569 301.645 322.645 301.829 325.403 301.962C328.161 302.096 330.234 304.102 330.334 306.894C330.451 310.103 335.466 310.12 335.349 306.894C335.115 300.809 330.401 296.948 324.517 296.948C320.623 296.948 315.892 296.262 312.382 298.302C306.698 301.628 307.45 307.897 307.45 313.446V362.424C307.45 367.104 307.333 371.818 307.45 376.498C307.567 381.446 310.877 385.776 315.909 386.528C319.118 386.996 322.745 386.879 325.972 386.645C331.371 386.244 335.199 381.864 335.332 376.565C335.366 375.078 335.332 373.573 335.332 372.085V350.505C335.332 336.247 335.516 321.988 335.332 307.729C335.332 307.462 335.332 307.178 335.332 306.91C335.332 303.684 330.318 303.684 330.318 306.91L330.351 306.894Z" fill="#221F20"/>
<path d="M286.722 306.894V339.924C286.722 352.093 286.889 364.279 286.722 376.448C286.672 379.908 284.131 381.647 280.905 381.647C277.679 381.647 272.714 382.616 270.307 380.193C268.836 378.722 268.853 376.933 268.853 375.061V307.763C268.853 305.005 270.14 302.364 273.199 301.979C275.941 301.645 279.016 301.829 281.774 301.962C284.532 302.096 286.605 304.102 286.706 306.894C286.823 310.103 291.837 310.12 291.72 306.894C291.486 300.809 286.772 296.948 280.888 296.948C276.994 296.948 272.263 296.262 268.753 298.302C263.069 301.628 263.822 307.897 263.822 313.446V362.424C263.822 367.104 263.705 371.818 263.822 376.498C263.939 381.446 267.248 385.776 272.28 386.528C275.489 386.996 279.117 386.879 282.343 386.645C287.742 386.244 291.57 381.864 291.704 376.565C291.737 375.078 291.704 373.573 291.704 372.085V350.505C291.704 336.247 291.887 321.988 291.704 307.729C291.704 307.462 291.704 307.178 291.704 306.91C291.704 303.684 286.689 303.684 286.689 306.91L286.722 306.894Z" fill="#221F20"/>
<path d="M399.655 272.525L344.343 236.854C339.411 255.793 322.194 269.784 301.717 269.784C281.24 269.784 263.07 255.007 258.707 235.249L201.255 272.308C195.906 275.768 197.377 283.458 202.709 285.33C203.595 285.714 204.581 285.965 205.701 285.965H395.71C402.982 285.965 405.79 276.487 399.672 272.542L399.655 272.525Z" fill="#C5D8E3"/>
<path d="M301.72 179.168C282.797 179.285 265.613 190.869 258.509 208.42C251.004 226.925 256.704 249.09 272.183 261.694C287.662 274.298 308.974 275.735 325.724 265.639C342.473 255.542 351.667 234.414 347.003 214.806C342.038 194.045 322.932 179.301 301.72 179.168C298.494 179.151 298.494 184.166 301.72 184.182C318.335 184.283 333.697 194.346 340.099 209.758C347.053 226.507 342.038 246.165 328.181 257.749C314.825 268.932 295.15 270.269 280.29 261.309C264.828 251.982 256.988 233.126 261.418 215.575C266.048 197.221 282.864 184.299 301.72 184.166C304.946 184.149 304.946 179.134 301.72 179.151V179.168Z" fill="#221F20"/>
<path d="M301.902 251.898C300.949 251.898 300.013 251.898 299.06 251.898C298.224 251.898 297.873 251.58 297.856 250.728C297.84 249.424 297.856 248.137 297.856 246.833C297.856 246.516 297.756 246.382 297.438 246.298C292.925 245.162 289.081 242.888 285.971 239.428C285.787 239.227 285.587 239.027 285.403 238.81C284.868 238.124 284.868 237.673 285.487 237.054C286.289 236.252 287.125 235.466 287.961 234.681C288.796 233.878 289.649 233.093 290.485 232.29C291.437 231.388 291.922 231.371 292.925 232.223C294.179 233.277 295.382 234.38 296.787 235.216C299.026 236.553 301.383 237.205 303.991 236.687C306.097 236.269 307.251 234.948 307.284 232.926C307.284 232.173 307.017 231.572 306.482 231.053C305.412 230.017 304.091 229.398 302.721 228.914C299.929 227.944 297.154 226.958 294.58 225.52C292.257 224.233 290.15 222.662 288.696 220.372C284.902 214.388 287.075 206.899 293.477 203.807C294.68 203.221 295.934 202.77 297.255 202.519C297.773 202.419 297.89 202.202 297.873 201.717C297.84 200.614 297.856 199.511 297.873 198.407C297.873 197.455 298.308 197.037 299.26 197.037C300.999 197.037 302.737 197.037 304.476 197.037C305.529 197.037 306.064 197.588 306.064 198.625C306.064 199.644 306.081 200.664 306.064 201.667C306.064 202.102 306.164 202.269 306.615 202.352C310.293 203.071 313.486 204.726 316.244 207.25C317.648 208.537 317.648 209.189 316.344 210.576C314.973 212.031 313.603 213.485 312.232 214.939C311.43 215.792 310.861 215.842 309.959 215.09C308.906 214.237 307.886 213.351 306.699 212.699C304.793 211.63 302.788 211.312 300.648 211.864C300.146 211.997 299.678 212.181 299.26 212.482C297.957 213.418 297.789 215.24 298.909 216.394C299.645 217.146 300.548 217.597 301.517 217.948C303.64 218.717 305.796 219.436 307.919 220.221C310.293 221.091 312.616 222.077 314.639 223.648C317.347 225.738 318.768 228.462 318.968 231.872C319.319 238.291 315.542 242.922 310.594 245.128C309.307 245.696 307.969 246.148 306.582 246.399C306.198 246.465 306.03 246.599 306.047 247.034C306.081 248.204 306.047 249.391 306.047 250.561C306.047 251.58 305.696 251.931 304.693 251.931C303.757 251.931 302.838 251.931 301.902 251.931V251.898Z" fill="url(#paint0_linear_785_2569)"/>
</g>
<defs>
<linearGradient id="paint0_linear_785_2569" x1="285.019" y1="224.451" x2="318.985" y2="224.451" gradientUnits="userSpaceOnUse">
<stop stop-color="#9BCB9E"/>
<stop offset="1" stop-color="#78C1C4"/>
</linearGradient>
<clipPath id="clip0_785_2569">
<rect width="205.103" height="241.343" fill="white" transform="translate(197.898 179.168)"/>
</clipPath>
</defs>
</svg>
