<svg width="600" height="600" viewBox="0 0 600 600" fill="none" xmlns="http://www.w3.org/2000/svg">
<g clip-path="url(#clip0_785_1995)">
<path d="M270.325 379.524C247.775 377.321 228.694 362.993 217.766 343.53C217.125 342.403 216.535 341.258 215.962 340.096C215.806 339.766 215.026 337.962 215.598 339.367C215.147 338.292 214.332 337.459 213.083 337.459H197.68L199.518 338.222C192.614 332.776 188.382 324.831 185.728 316.557C185.208 314.909 184.739 313.227 184.323 311.544C184.028 310.33 183.248 308.491 183.924 307.312C184.757 305.889 187.775 305.508 189.18 305.057C194.609 303.287 200.75 301.917 205.537 298.708C210.776 295.204 213.707 290.26 216.726 284.97C219.328 280.425 221.929 275.88 224.549 271.336C226.214 268.422 221.721 265.802 220.056 268.716C217.021 274.007 213.985 279.298 210.949 284.606C209.197 287.658 207.445 290.521 204.722 292.862C201.704 295.464 198.131 296.678 194.418 297.893C191.053 298.985 187.671 300.078 184.306 301.188C179.726 302.715 177.818 306.288 178.824 310.989C180.993 321.119 185.173 331.492 192.51 338.986C194.037 340.53 195.806 342.594 198.078 342.68C199.709 342.732 201.374 342.68 203.005 342.68H213.014L210.498 340.772C212.597 345.785 215.563 350.469 218.79 354.805C225.902 364.363 234.956 372.551 245.659 377.858C253.378 381.692 261.652 383.93 270.221 384.762C273.552 385.092 273.534 379.888 270.221 379.558L270.325 379.524Z" fill="#221F20"/>
<path d="M231.294 370.07C230.739 375.17 230.167 380.27 229.612 385.387C229.369 387.642 228.97 389.862 229.334 392.117C230.098 396.939 233.723 400.964 238.424 402.247C243.124 403.531 248.207 404.294 253.046 405.317C259.152 406.584 265.015 408.197 271.104 405.682C276.047 403.635 279.898 399.663 281.824 394.684C282.83 392.082 283.541 389.342 284.391 386.67L281.182 388.492C291.971 391.371 304.096 391.388 314.903 388.752L311.607 386.237C311.711 390.538 310.931 396.037 314.4 399.281C316.533 401.276 319.916 402.23 322.622 403.149C326.247 404.381 329.959 405.265 333.758 405.786C338.216 406.393 342.674 406.462 347.149 405.838C351.312 405.265 356.239 404.502 359.066 401.085C362.796 396.592 365.727 391.059 368.277 385.855C372.006 378.292 375.094 369.914 374.816 361.362L373.533 363.617C382.813 356.523 389.509 345.369 392.943 334.372C400.766 309.463 392.024 280.408 373.568 262.437C367.548 256.574 360.523 252.081 353.221 247.988C346.403 244.172 339.344 240.529 331.954 237.927C328.797 236.817 327.427 241.83 330.566 242.94C340.506 246.444 350.081 251.787 358.945 257.441C367.809 263.096 374.921 270.347 380.263 279.055C389.804 294.632 393.446 314.684 388.138 332.325C385.242 341.987 379.76 350.92 372.423 357.772C371.816 358.344 371.174 358.882 370.532 359.419C370.306 359.61 370.237 359.818 370.896 359.142C370.15 359.905 369.734 360.217 369.613 361.397C369.335 363.825 369.491 366.184 369.006 368.613C367.219 377.512 362.882 385.82 358.043 393.418C357.175 394.771 356.325 396.193 355.354 397.46C353.463 399.905 349.439 400.339 346.542 400.755C340.436 401.623 334.192 400.998 328.242 399.454C325.97 398.865 323.749 398.136 321.564 397.286C319.812 396.61 317.505 395.985 317.054 393.886C316.533 391.51 316.88 388.717 316.828 386.289C316.794 384.571 315.198 383.375 313.533 383.773C303.628 386.202 292.474 386.15 282.587 383.513C281.199 383.149 279.812 383.982 279.378 385.335C277.591 391.059 276.36 396.974 270.688 400.183C265.605 403.062 260.488 401.605 255.215 400.513C250.375 399.506 245.518 398.552 240.679 397.494C237.539 396.8 235.006 394.667 234.451 391.371C234.157 389.602 234.59 387.555 234.781 385.768C235.353 380.547 235.926 375.326 236.498 370.122C236.863 366.792 231.659 366.826 231.294 370.122V370.07Z" fill="#221F20"/>
<path d="M236.707 271.908C226.525 268.925 209.751 260.529 213.082 247.311L211.885 248.872C213.238 248.075 214.365 247.641 215.562 247.19C219.205 245.82 223.039 244.883 226.907 244.414C232.926 243.669 239.101 243.911 245.051 245.056C246.803 245.386 248.537 245.785 250.255 246.253C252.059 246.739 253.897 247.641 255.736 247.97C257.106 248.213 258.459 247.398 259.691 246.86C262.883 245.473 266.074 244.068 269.266 242.68C272.458 241.292 269.682 236.852 266.647 238.187C262.796 239.87 258.962 241.535 255.112 243.218L257.124 242.957C247.115 239.471 236.43 237.962 225.883 239.349C220.489 240.061 214.851 241.396 210.012 243.998C207.878 245.143 207.618 247.45 207.462 249.722C207.236 253.07 208.086 256.401 209.647 259.35C212.648 264.952 218.164 269.011 223.628 271.995C227.323 274.007 231.278 275.759 235.32 276.956C238.546 277.893 239.916 272.88 236.707 271.943V271.908Z" fill="#221F20"/>
<path d="M258.181 285.959C258.181 282.366 255.269 279.454 251.677 279.454C248.084 279.454 245.172 282.366 245.172 285.959V298.083C245.172 301.676 248.084 304.588 251.677 304.588C255.269 304.588 258.181 301.676 258.181 298.083V285.959Z" fill="#C5D8E3"/>
<path d="M260.856 263.981C281.932 253.33 306.737 251.37 329.235 258.482C333.883 259.957 338.376 261.795 342.73 263.981C345.714 265.49 348.35 260.997 345.349 259.488C322.973 248.179 296.607 245.906 272.669 253.556C267.708 255.134 262.868 257.147 258.202 259.488C255.219 260.997 257.838 265.49 260.821 263.981H260.856Z" fill="#221F20"/>
<path d="M301.48 245.594C300.838 245.594 300.196 245.594 299.537 245.594C298.965 245.594 298.722 245.369 298.722 244.796C298.722 243.911 298.722 243.027 298.722 242.142C298.722 241.917 298.653 241.83 298.444 241.778C295.374 240.997 292.755 239.453 290.621 237.094C290.5 236.956 290.361 236.817 290.24 236.678C289.875 236.21 289.875 235.898 290.292 235.481C290.847 234.926 291.419 234.406 291.974 233.868C292.547 233.33 293.119 232.775 293.692 232.237C294.333 231.63 294.663 231.613 295.357 232.185C296.207 232.897 297.022 233.643 297.993 234.232C299.52 235.152 301.116 235.585 302.902 235.238C304.342 234.961 305.123 234.059 305.14 232.671C305.14 232.151 304.949 231.752 304.585 231.405C303.856 230.694 302.954 230.277 302.018 229.948C300.127 229.289 298.236 228.612 296.467 227.623C294.888 226.739 293.449 225.681 292.46 224.119C289.875 220.043 291.367 214.943 295.721 212.827C296.536 212.428 297.404 212.116 298.288 211.942C298.635 211.873 298.722 211.734 298.705 211.405C298.687 210.659 298.705 209.896 298.705 209.15C298.705 208.491 298.999 208.213 299.659 208.213C300.838 208.213 302.035 208.213 303.215 208.213C303.926 208.213 304.307 208.595 304.307 209.288C304.307 209.982 304.307 210.676 304.307 211.37C304.307 211.665 304.377 211.769 304.689 211.838C307.187 212.341 309.372 213.452 311.246 215.186C312.2 216.071 312.2 216.504 311.315 217.441C310.379 218.43 309.442 219.419 308.523 220.407C307.967 220.98 307.586 221.014 306.979 220.511C306.268 219.922 305.574 219.332 304.758 218.881C303.457 218.152 302.087 217.944 300.63 218.308C300.3 218.395 299.971 218.517 299.693 218.725C298.809 219.367 298.687 220.598 299.45 221.379C299.954 221.882 300.578 222.194 301.22 222.437C302.677 222.957 304.134 223.443 305.574 223.981C307.187 224.57 308.783 225.247 310.153 226.322C311.992 227.745 312.963 229.601 313.102 231.925C313.345 236.296 310.76 239.453 307.395 240.963C306.51 241.362 305.608 241.656 304.672 241.83C304.411 241.882 304.29 241.969 304.307 242.264C304.325 243.061 304.307 243.859 304.307 244.657C304.307 245.351 304.065 245.594 303.388 245.594C302.746 245.594 302.122 245.594 301.48 245.594Z" fill="url(#paint0_linear_785_1995)"/>
<path d="M283.091 250.295C275.06 243.842 270.671 233.885 271.92 223.564C272.978 214.909 278.096 206.981 285.502 202.402C301.426 192.549 323.161 200.546 328.694 218.499C332.146 229.67 328.503 241.656 319.796 249.341C317.281 251.561 320.975 255.238 323.473 253.018C332.424 245.108 336.604 233.157 334.713 221.396C333.066 211.179 326.439 202.003 317.367 197.042C307.827 191.821 296.274 191.526 286.404 196.019C276.534 200.511 269.873 209.063 267.48 219.072C264.409 231.943 269.093 245.681 279.414 253.972C281.998 256.054 285.711 252.394 283.091 250.295Z" fill="#221F20"/>
<path d="M383.635 277.91C383.964 277.736 384.311 277.58 384.658 277.424C384.849 277.337 385.057 277.251 385.248 277.164C385.317 277.129 385.005 277.251 385.456 277.077C386.046 276.834 386.653 276.609 387.26 276.401C390.278 275.325 393.452 274.527 396.662 274.233C400.738 273.868 404.918 274.198 408.717 275.776C411.978 277.129 414.944 279.384 415.205 283.166C415.413 286.184 413.678 288.838 410.868 289.931C407.364 291.284 404.606 289.584 402.837 286.531C399.593 280.963 401.449 274.666 404.641 269.549C406.861 265.993 409.723 262.663 412.984 259.974C415.569 257.84 411.874 254.18 409.307 256.297C400.044 263.946 391.354 278.083 398.674 289.723C401.345 293.972 405.577 296.366 410.625 295.412C414.944 294.597 418.622 291.405 419.923 287.207C421.224 283.01 419.853 277.841 416.61 274.666C412.984 271.128 407.52 269.549 402.594 269.063C395.395 268.335 387.451 270.104 381.015 273.452C378.049 274.996 380.668 279.488 383.635 277.945V277.91Z" fill="#221F20"/>
</g>
<defs>
<linearGradient id="paint0_linear_785_1995" x1="289.962" y1="226.895" x2="313.102" y2="226.895" gradientUnits="userSpaceOnUse">
<stop stop-color="#9BCB9E"/>
<stop offset="1" stop-color="#78C1C4"/>
</linearGradient>
<clipPath id="clip0_785_1995">
<rect width="241.788" height="214.121" fill="white" transform="translate(178.633 192.879)"/>
</clipPath>
</defs>
</svg>
