<svg width="600" height="600" viewBox="0 0 600 600" fill="none" xmlns="http://www.w3.org/2000/svg">
<path d="M289.414 345.713C310.939 322.216 331.546 297.948 351.247 272.909C361.863 259.428 372.405 245.874 381.319 231.181C383.412 227.728 385.212 224.03 386.62 220.247C386.645 220.185 386.657 220.136 386.682 220.075C388.322 215.471 383.633 211.125 379.176 213.12C379.151 213.12 379.127 213.145 379.103 213.157C376.935 214.137 374.707 215.043 372.821 216.414C365.107 222.034 357.308 227.593 350.035 233.752C319.853 259.318 291.508 286.843 264.203 315.445C263.174 316.523 260.701 318.984 260.701 318.984L289.169 346.019C289.242 345.921 289.316 345.811 289.402 345.713H289.414Z" fill="#FBB03B"/>
<path d="M289.205 346.288L289.058 346.141L260.456 318.971L260.591 318.837C260.591 318.837 263.076 316.363 264.08 315.298C294.164 283.769 322.24 257.04 349.924 233.58C356.389 228.107 363.368 223.038 370.115 218.128L372.711 216.243C374.327 215.067 376.225 214.222 378.049 213.402C378.38 213.255 378.698 213.108 379.017 212.961L379.09 212.924C381.221 211.969 383.608 212.361 385.322 213.953C387.049 215.545 387.624 217.908 386.841 220.112L386.792 220.246C385.371 224.079 383.584 227.764 381.465 231.242C372.833 245.47 362.732 258.571 351.381 272.994C331.717 297.973 310.914 322.473 289.536 345.811C289.487 345.86 289.45 345.921 289.401 345.982C289.377 346.019 289.34 346.068 289.316 346.105L289.193 346.264L289.205 346.288ZM260.983 318.971L289.156 345.737C289.156 345.737 289.23 345.639 289.279 345.59C310.645 322.253 331.448 297.764 351.1 272.799C362.45 258.387 372.539 245.298 381.159 231.083C383.265 227.617 385.041 223.956 386.437 220.185L386.498 220.014C387.232 217.957 386.694 215.741 385.077 214.259C383.473 212.778 381.233 212.398 379.249 213.292L379.188 213.329C378.857 213.475 378.539 213.622 378.208 213.769C376.396 214.577 374.523 215.41 372.931 216.573L370.335 218.459C363.589 223.357 356.61 228.426 350.157 233.899C322.485 257.346 294.421 284.063 264.35 315.58C263.468 316.498 261.509 318.457 260.983 318.984V318.971Z" fill="black"/>
<path d="M231.952 341.244C230.948 344.243 230.25 347.366 229.552 350.463C228.389 355.63 227.52 360.871 226.185 365.989C224.826 371.144 221.312 374.242 215.924 374.891C215.851 374.891 215.777 374.915 215.692 374.915C212.398 375.405 211.406 379.972 214.333 381.564C214.455 381.637 214.59 381.698 214.724 381.735C227.177 385.959 239.898 387.918 253 385.665C263.799 383.804 272.909 378.919 279.717 370.152C284.724 363.687 287.577 356.255 289.39 348.357C289.61 347.39 289.39 346.043 289.39 346.043L260.493 318.984C257.995 320.355 256.134 320.404 253.771 320.869C244.759 322.632 235.784 329.918 231.976 341.256L231.952 341.244Z" fill="#754C24"/>
<path d="M241.846 386.792C233.251 386.792 224.276 385.176 214.652 381.919C214.505 381.87 214.37 381.809 214.235 381.735C212.864 380.988 212.191 379.519 212.472 377.915C212.778 376.225 214.027 374.976 215.656 374.732L215.888 374.707C221.153 374.07 224.655 371.046 225.99 365.94C226.81 362.806 227.471 359.561 228.096 356.426C228.488 354.455 228.904 352.423 229.357 350.427L229.418 350.17C230.092 347.194 230.777 344.121 231.769 341.195C235.32 330.652 243.928 322.596 253.699 320.686C254.201 320.588 254.69 320.502 255.168 320.429C256.919 320.135 258.437 319.89 260.372 318.825L260.494 318.763L289.537 345.958V346.019C289.537 346.019 289.782 347.415 289.549 348.406C287.468 357.467 284.395 364.41 279.84 370.275C273.326 378.674 264.302 383.927 253.013 385.861C249.352 386.486 245.63 386.804 241.834 386.804L241.846 386.792ZM232.124 341.293C231.145 344.207 230.459 347.268 229.786 350.231L229.724 350.488C229.271 352.472 228.867 354.516 228.463 356.488C227.827 359.622 227.178 362.867 226.345 366.026C224.961 371.279 221.362 374.413 215.925 375.062L215.705 375.087C214.223 375.307 213.097 376.433 212.827 377.964C212.631 379.09 212.938 380.584 214.407 381.392C214.529 381.454 214.652 381.515 214.774 381.552C228.573 386.229 241.062 387.514 252.964 385.47C264.155 383.547 273.106 378.344 279.558 370.017C284.064 364.201 287.125 357.296 289.194 348.296C289.378 347.488 289.231 346.386 289.194 346.117L260.445 319.192C258.51 320.233 256.919 320.49 255.241 320.771C254.776 320.845 254.286 320.931 253.784 321.028C244.136 322.914 235.638 330.873 232.124 341.293Z" fill="black"/>
<path d="M252.951 385.641C239.948 388.433 227.128 385.935 214.676 381.711C214.541 381.662 214.406 381.6 214.284 381.539C211.37 379.935 212.361 375.38 215.643 374.891C215.716 374.891 215.79 374.866 215.875 374.866C221.263 374.217 224.777 371.132 226.136 365.965C227.483 360.847 228.34 355.606 229.503 350.439C230.201 347.341 230.899 344.219 231.903 341.219C231.903 341.219 229.295 352.08 240.645 357.051C251.996 362.022 260.322 384.062 252.951 385.641Z" fill="#C1272D"/>
<path d="M241.65 387C233.544 387 224.716 385.31 214.615 381.882C214.48 381.833 214.333 381.772 214.198 381.698C212.827 380.951 212.154 379.482 212.435 377.878C212.741 376.188 213.99 374.94 215.619 374.695C215.692 374.695 215.766 374.67 215.851 374.658C221.116 374.021 224.618 370.997 225.953 365.891C226.773 362.757 227.434 359.512 228.059 356.377C228.463 354.406 228.867 352.361 229.32 350.378L229.381 350.133C230.055 347.157 230.753 344.072 231.732 341.146L232.087 341.244C232.087 341.244 231.45 343.962 232.21 347.231C232.907 350.231 234.94 354.333 240.732 356.867C249.743 360.81 256.551 375.221 255.89 381.845C255.669 384.086 254.665 385.457 253 385.812C249.351 386.596 245.592 386.988 241.662 386.988L241.65 387ZM231.475 343.203C230.801 345.529 230.263 347.904 229.736 350.231L229.675 350.476C229.222 352.471 228.818 354.504 228.414 356.475C227.777 359.61 227.128 362.855 226.296 366.001C224.912 371.254 221.312 374.389 215.876 375.038C215.802 375.038 215.729 375.05 215.655 375.062C214.174 375.282 213.047 376.409 212.778 377.939C212.582 379.066 212.888 380.56 214.358 381.368C214.48 381.441 214.602 381.49 214.725 381.527C229.663 386.596 241.797 387.845 252.902 385.445C254.788 385.041 255.351 383.241 255.498 381.809C256.159 375.295 249.449 361.091 240.56 357.21C234.622 354.614 232.54 350.39 231.83 347.304C231.463 345.725 231.414 344.28 231.463 343.19L231.475 343.203Z" fill="black"/>
<path d="M260.407 318.996L289.181 346.019L304.523 329.012L276.9 303.066L260.407 318.996Z" fill="#4D4D4D"/>
<path d="M289.194 346.276L289.059 346.154L260.139 319.008L276.889 302.821L277.011 302.944L304.769 329.012L289.182 346.288L289.194 346.276ZM260.677 318.996L289.182 345.749L304.279 329.024L276.913 303.311L260.69 318.984L260.677 318.996Z" fill="black"/>
</svg>
