<svg width="600" height="600" viewBox="0 0 600 600" fill="none" xmlns="http://www.w3.org/2000/svg">
<path d="M208.957 251.032C212.128 244.293 219.528 229.066 235.914 216.358C241.847 211.756 248.496 207.888 255.905 204.827C273.958 197.372 292.382 196.502 310.552 204.446C323.885 210.271 332.572 220.633 337.092 234.41C340.271 244.093 340.027 253.867 337.328 263.622C335.851 268.976 334.23 274.302 332.962 279.7C330.652 289.565 338.233 298.532 348.342 297.825C350.697 297.662 353.016 296.63 355.29 295.824C359.647 294.284 363.859 294.556 367.799 296.893C374.067 300.615 376.567 307.164 374.556 314.202C370.561 328.188 363.723 340.625 353.56 351.032C333.568 371.503 309.221 380.688 280.642 378.406C277.526 378.152 274.438 377.609 271.331 377.156C270.688 377.065 270.063 376.929 269.438 376.766L261.63 374.61C260.833 374.393 260.063 374.067 259.32 373.714C259.202 373.659 259.084 373.614 258.967 373.569C247.236 369.438 236.783 363.143 227.916 354.465C217.58 344.357 210.126 333.152 205.57 320.851C204.926 319.112 198.667 301.702 200.551 281.566C201.24 274.202 202.879 267.907 203.187 266.756C203.722 264.746 205.461 258.468 208.957 251.014V251.032Z" fill="#E6F7FF"/>
<path d="M288.994 378.913C286.25 378.913 283.469 378.804 280.643 378.578C278.288 378.387 275.905 378.025 273.605 377.672C272.844 377.554 272.083 377.436 271.331 377.328C270.679 377.237 270.036 377.101 269.42 376.929L261.612 374.773C260.733 374.529 259.9 374.166 259.275 373.868C259.166 373.813 259.048 373.768 258.94 373.732C246.974 369.511 236.503 363.07 227.834 354.592C217.526 344.51 209.99 333.179 205.452 320.923C204.736 319.003 198.559 301.594 200.425 281.584C201.077 274.601 202.608 268.468 203.061 266.747C204.419 261.62 206.476 256.023 208.84 250.977C211.63 245.044 219.039 229.274 235.833 216.258C241.838 211.602 248.577 207.716 255.86 204.709C274.846 196.874 293.27 196.747 310.616 204.328C323.596 210.008 332.554 220.117 337.237 234.383C340.281 243.658 340.362 253.233 337.473 263.677C337.047 265.226 336.603 266.774 336.159 268.323C335.1 272.055 334.003 275.914 333.098 279.755C332.002 284.429 333.098 289.139 336.123 292.68C339.13 296.213 343.578 298.052 348.342 297.717C350.235 297.581 352.129 296.883 353.958 296.204C354.393 296.041 354.828 295.878 355.254 295.733C359.737 294.148 363.986 294.51 367.871 296.811C374.194 300.561 376.739 307.092 374.692 314.275C370.58 328.677 363.505 341.096 353.668 351.168C335.661 369.61 313.931 378.922 288.994 378.922V378.913ZM208.957 251.032L209.084 251.086C206.72 256.113 204.673 261.702 203.323 266.802C202.87 268.514 201.34 274.619 200.697 281.593C198.831 301.539 204.999 318.903 205.706 320.815C210.235 333.034 217.744 344.329 228.025 354.384C236.666 362.835 247.101 369.257 259.03 373.46C259.157 373.505 259.275 373.551 259.393 373.614C260.008 373.904 260.824 374.266 261.684 374.502L269.492 376.657C270.099 376.82 270.724 376.956 271.367 377.047C272.128 377.156 272.889 377.273 273.65 377.391C275.951 377.744 278.324 378.107 280.67 378.297C309.049 380.561 333.551 371.368 353.478 350.969C363.288 340.923 370.335 328.55 374.438 314.193C376.458 307.137 373.949 300.724 367.745 297.037C363.931 294.773 359.755 294.42 355.353 295.978C354.928 296.132 354.493 296.286 354.058 296.449C352.21 297.137 350.29 297.844 348.37 297.979C343.523 298.324 338.985 296.449 335.933 292.853C332.862 289.238 331.739 284.447 332.853 279.682C333.75 275.842 334.855 271.974 335.915 268.242C336.359 266.693 336.793 265.144 337.219 263.595C340.081 253.206 340.009 243.677 336.984 234.455C332.328 220.271 323.424 210.216 310.516 204.573C293.242 197.019 274.891 197.145 255.978 204.953C248.722 207.952 242.001 211.819 236.014 216.466C219.275 229.446 211.883 245.171 209.102 251.086L208.976 251.032H208.957Z" fill="black"/>
<path d="M246.23 333.84C243.64 341.875 248.305 350.434 256.348 352.654C264.165 354.809 272.399 350.145 274.564 342.346C276.801 334.275 271.756 325.797 263.459 323.967C256.122 322.345 248.54 326.693 246.23 333.849V333.84Z" fill="#00A99D"/>
<path d="M260.281 353.315C258.967 353.315 257.627 353.143 256.304 352.771C252.364 351.684 249.121 349.094 247.174 345.471C245.217 341.847 244.837 337.699 246.096 333.786C248.433 326.557 256.069 322.173 263.478 323.813C267.518 324.701 270.915 327.155 273.062 330.715C275.172 334.221 275.761 338.46 274.683 342.364C272.853 348.967 266.83 353.306 260.281 353.306V353.315ZM246.232 333.84L246.359 333.885C245.118 337.726 245.489 341.793 247.409 345.353C249.33 348.913 252.509 351.458 256.377 352.518C264.176 354.665 272.265 350.09 274.42 342.3C275.48 338.478 274.901 334.311 272.826 330.869C270.725 327.373 267.382 324.963 263.415 324.094C256.132 322.49 248.641 326.784 246.35 333.885L246.223 333.84H246.232Z" fill="black"/>
<path d="M285.063 247.807C292.844 250.108 301.014 245.651 303.424 237.789C305.77 230.126 301.186 221.774 293.369 219.437C285.607 217.118 277.391 221.62 275.045 229.483C272.717 237.273 277.21 245.488 285.063 247.807Z" fill="#29ABE2"/>
<path d="M289.175 248.541C287.798 248.541 286.403 248.35 285.027 247.934C281.168 246.792 277.997 244.22 276.086 240.696C274.202 237.218 273.786 233.214 274.918 229.437C277.291 221.512 285.588 216.964 293.414 219.301C297.282 220.452 300.47 223.069 302.391 226.666C304.266 230.171 304.682 234.129 303.55 237.825C301.566 244.32 295.579 248.532 289.175 248.532V248.541ZM285.108 247.68C292.771 249.945 300.932 245.497 303.297 237.753C304.402 234.129 304.003 230.243 302.155 226.801C300.262 223.269 297.128 220.705 293.333 219.573C285.652 217.281 277.499 221.747 275.171 229.528C274.066 233.233 274.474 237.164 276.322 240.579C278.197 244.039 281.313 246.566 285.099 247.68H285.108Z" fill="black"/>
<path d="M234.809 285.343C227.472 282.608 219.084 286.603 216.204 294.22C213.251 302.001 217.291 310.507 225.679 313.36C232.97 315.833 240.978 312.101 243.885 304.528C246.865 296.784 242.753 287.871 234.809 285.334V285.343Z" fill="#FBB03B"/>
<path d="M230.226 314.257C228.704 314.257 227.155 314.012 225.633 313.496C221.494 312.092 218.242 309.257 216.485 305.525C214.8 301.956 214.664 297.934 216.077 294.184C219.003 286.467 227.427 282.454 234.854 285.226C238.668 286.449 241.739 289.139 243.505 292.816C245.28 296.512 245.461 300.806 244.012 304.592C241.711 310.561 236.141 314.266 230.226 314.266V314.257ZM229.999 284.61C224.175 284.61 218.586 288.324 216.331 294.275C214.936 297.952 215.081 301.911 216.729 305.407C218.459 309.076 221.648 311.856 225.724 313.233C232.998 315.706 240.923 311.865 243.759 304.483C245.19 300.769 245.009 296.557 243.26 292.925C241.53 289.311 238.514 286.666 234.764 285.47C233.197 284.882 231.594 284.61 229.999 284.61Z" fill="black"/>
<path d="M257.508 255.47C259.356 248.595 255.896 241.222 249.437 238.224C241.149 234.374 231.511 239.066 229.02 247.562C226.729 255.389 231.385 263.749 239.274 265.95C247.136 268.142 255.361 263.45 257.508 255.47Z" fill="#C1272D"/>
<path d="M243.215 266.621C241.883 266.621 240.552 266.439 239.239 266.077C235.38 264.999 232.173 262.454 230.199 258.903C228.242 255.371 227.771 251.331 228.894 247.517C230.126 243.332 233.133 239.881 237.164 238.061C241.114 236.276 245.606 236.285 249.501 238.097C255.996 241.113 259.501 248.595 257.644 255.497C256.594 259.401 254.085 262.653 250.57 264.655C248.287 265.959 245.76 266.621 243.215 266.621ZM243.306 237.01C241.249 237.01 239.193 237.445 237.273 238.314C233.315 240.108 230.362 243.486 229.157 247.599C228.061 251.34 228.514 255.307 230.443 258.776C232.382 262.264 235.525 264.764 239.32 265.814C243.079 266.865 247.028 266.367 250.443 264.42C253.885 262.454 256.358 259.266 257.391 255.434C259.211 248.659 255.778 241.313 249.402 238.351C247.481 237.454 245.407 237.01 243.324 237.01H243.306Z" fill="black"/>
<path d="M301.956 325.76C319.012 342.029 336.657 357.636 354.882 372.581C364.692 380.634 374.556 388.632 385.299 395.444C387.817 397.047 390.525 398.424 393.306 399.529C393.351 399.547 393.387 399.565 393.433 399.583C396.811 400.87 400.099 397.464 398.686 394.139C398.686 394.121 398.668 394.103 398.668 394.085C397.971 392.464 397.337 390.806 396.358 389.393C392.319 383.605 388.324 377.753 383.876 372.282C365.416 349.574 345.489 328.197 324.737 307.581C323.958 306.802 322.101 304.719 322.101 304.719L301.738 325.588C301.811 325.643 301.892 325.697 301.965 325.76H301.956Z" fill="#FBB03B"/>
<path d="M394.909 399.991C394.402 399.991 393.886 399.9 393.378 399.71C393.333 399.692 393.288 399.674 393.243 399.656C390.462 398.56 387.762 397.183 385.217 395.561C374.818 388.967 365.28 381.295 354.791 372.69C336.612 357.771 318.804 342.019 301.865 325.86C301.829 325.824 301.784 325.787 301.738 325.76C301.711 325.742 301.684 325.715 301.657 325.697L301.539 325.606L301.648 325.498L322.11 304.519L322.209 304.628C322.209 304.628 324.066 306.72 324.836 307.481C347.708 330.199 367.056 351.367 383.985 372.192C387.944 377.056 391.594 382.3 395.118 387.373L396.467 389.311C397.31 390.525 397.907 391.929 398.487 393.297C398.587 393.541 398.695 393.786 398.795 394.031L398.813 394.085C399.483 395.67 399.157 397.427 397.962 398.677C397.128 399.538 396.041 400 394.918 400L394.909 399.991ZM301.938 325.57C301.938 325.57 302.01 325.624 302.046 325.661C318.976 341.811 336.784 357.563 354.963 372.472C365.452 381.078 374.982 388.741 385.362 395.326C387.889 396.929 390.579 398.306 393.342 399.393C393.387 399.411 393.424 399.429 393.469 399.438C394.982 400.009 396.621 399.647 397.753 398.469C398.877 397.301 399.185 395.652 398.55 394.166L398.532 394.112C398.424 393.868 398.324 393.623 398.224 393.378C397.654 392.029 397.065 390.634 396.232 389.447L394.882 387.509C391.358 382.445 387.708 377.201 383.759 372.346C366.838 351.53 347.49 330.371 324.628 307.653C323.958 306.983 322.481 305.334 322.092 304.891L301.947 325.552L301.938 325.57Z" fill="black"/>
<path d="M305.235 282.49C303.025 281.702 300.733 281.14 298.45 280.579C294.646 279.637 290.787 278.921 287.019 277.852C283.224 276.774 280.986 274.13 280.588 270.135C280.588 270.081 280.579 270.026 280.57 269.963C280.253 267.517 276.901 266.72 275.669 268.858C275.615 268.948 275.57 269.048 275.533 269.148C272.227 278.296 270.588 287.671 272.055 297.4C273.269 305.416 276.747 312.228 283.133 317.391C287.834 321.195 293.287 323.414 299.102 324.873C299.818 325.054 301.122 325.199 301.702 325.652L322.001 304.718C321.023 302.853 320.28 300.688 319.972 298.939C318.804 292.246 313.55 285.506 305.226 282.517L305.235 282.49Z" fill="#754C24"/>
<path d="M301.729 325.824L301.63 325.751C301.222 325.434 300.389 325.271 299.718 325.136C299.483 325.09 299.265 325.045 299.084 325C292.418 323.333 287.327 320.942 283.061 317.491C276.937 312.545 273.196 305.788 271.937 297.418C270.597 288.541 271.738 279.284 275.425 269.103C275.461 269.003 275.506 268.894 275.57 268.795C276.149 267.789 277.236 267.309 278.414 267.545C279.655 267.789 280.561 268.74 280.715 269.954C280.715 270.008 280.733 270.072 280.733 270.126C281.122 274.03 283.305 276.657 287.064 277.726C289.374 278.387 291.765 278.912 294.075 279.429C295.524 279.755 297.028 280.09 298.486 280.452L298.704 280.507C300.887 281.05 303.142 281.603 305.28 282.373C313.025 285.153 318.849 291.648 320.117 298.903C320.425 300.679 321.177 302.826 322.128 304.646L322.173 304.737L322.101 304.809L301.72 325.833L301.729 325.824ZM277.834 267.753C277.1 267.753 276.285 268.052 275.796 268.921C275.742 269.012 275.705 269.103 275.669 269.184C272.001 279.32 270.869 288.541 272.2 297.373C273.45 305.679 277.164 312.373 283.233 317.273C287.472 320.697 292.526 323.061 299.157 324.728C299.338 324.773 299.546 324.818 299.782 324.864C300.434 324.991 301.231 325.154 301.711 325.462L321.856 304.683C320.914 302.862 320.171 300.724 319.863 298.949C318.613 291.784 312.852 285.38 305.198 282.626C303.07 281.865 300.823 281.304 298.649 280.769L298.432 280.715C296.965 280.353 295.47 280.018 294.021 279.7C291.711 279.184 289.311 278.65 287.001 277.989C283.133 276.883 280.878 274.175 280.479 270.153C280.479 270.099 280.47 270.045 280.461 269.99C280.316 268.894 279.501 268.043 278.378 267.816C278.215 267.78 278.042 267.762 277.861 267.762L277.834 267.753Z" fill="black"/>
<path d="M272.182 297.336C270.307 287.68 272.354 278.224 275.66 269.084C275.696 268.985 275.742 268.885 275.796 268.794C277.019 266.657 280.379 267.463 280.696 269.899C280.696 269.954 280.705 270.008 280.714 270.072C281.113 274.066 283.35 276.711 287.146 277.789C290.905 278.858 294.772 279.573 298.577 280.515C300.859 281.077 303.151 281.639 305.361 282.427C305.361 282.427 297.363 280.334 293.522 288.659C289.682 296.983 273.251 302.807 272.191 297.327L272.182 297.336Z" fill="#C1272D"/>
<path d="M275.805 299.61C275.497 299.61 275.208 299.592 274.936 299.565C273.287 299.365 272.291 298.604 272.046 297.373C270.434 289.066 271.539 280.063 275.525 269.048C275.561 268.949 275.615 268.84 275.67 268.74C276.249 267.735 277.336 267.255 278.514 267.49C279.755 267.735 280.66 268.686 280.814 269.9C280.814 269.954 280.833 270.017 280.833 270.072C281.222 273.976 283.414 276.603 287.164 277.671C289.474 278.333 291.865 278.858 294.175 279.374C295.624 279.7 297.128 280.036 298.595 280.398L298.767 280.443C300.96 280.987 303.233 281.548 305.389 282.318L305.307 282.581C305.307 282.581 303.306 282.074 300.878 282.581C298.65 283.052 295.579 284.492 293.623 288.74C290.742 294.981 280.987 299.628 275.796 299.628L275.805 299.61ZM277.952 267.698C277.218 267.698 276.403 267.997 275.914 268.867C275.86 268.958 275.823 269.048 275.787 269.13C271.82 280.099 270.715 289.057 272.318 297.309C272.59 298.713 273.912 299.157 274.972 299.284C279.782 299.873 290.38 295.117 293.387 288.604C295.398 284.257 298.55 282.771 300.842 282.291C302.019 282.046 303.088 282.028 303.885 282.083C302.173 281.548 300.416 281.113 298.704 280.688L298.532 280.642C297.065 280.28 295.57 279.945 294.121 279.628C291.811 279.112 289.42 278.577 287.101 277.916C283.233 276.811 280.978 274.103 280.579 270.081C280.579 270.026 280.57 269.972 280.561 269.918C280.416 268.822 279.601 267.97 278.477 267.744C278.314 267.708 278.142 267.689 277.961 267.689L277.952 267.698Z" fill="black"/>
<path d="M322.146 304.71L301.738 325.588L314.075 337.192L333.686 317.137L322.146 304.71Z" fill="#4D4D4D"/>
<path d="M314.084 337.373L301.539 325.588L322.146 304.51L322.246 304.619L333.867 317.146L333.777 317.237L314.075 337.382L314.084 337.373ZM301.929 325.579L314.075 336.992L333.496 317.137L322.146 304.9L301.929 325.579Z" fill="black"/>
</svg>
