<svg width="600" height="600" viewBox="0 0 600 600" fill="none" xmlns="http://www.w3.org/2000/svg">
<path d="M383.329 207.782H216.685C204.694 207.782 194.973 217.504 194.973 229.495V337.166C194.973 349.158 204.694 358.879 216.685 358.879H383.329C395.321 358.879 405.042 349.158 405.042 337.166V229.495C405.042 217.504 395.321 207.782 383.329 207.782Z" fill="#E6F7FF"/>
<path d="M383.737 359.102H216.278C204.385 359.102 194.74 349.457 194.74 337.563V229.078C194.74 217.185 204.385 207.54 216.278 207.54H383.737C395.63 207.54 405.275 217.185 405.275 229.078V337.563C405.275 349.457 395.63 359.102 383.737 359.102ZM216.278 208.015C204.637 208.015 195.206 217.446 195.206 229.088V337.573C195.206 349.205 204.637 358.646 216.278 358.646H383.746C395.378 358.646 404.819 349.215 404.819 337.573V229.088C404.819 217.446 395.388 208.015 383.746 208.015H216.278Z" fill="black"/>
<path d="M405.429 340.006C405.429 351.773 395.891 361.311 384.124 361.311H216.666C204.898 361.311 195.36 351.773 195.36 340.006C195.36 340.006 405.429 339.696 405.429 340.006Z" fill="#4D4D4D"/>
<path d="M384.134 361.544H216.666C204.792 361.544 195.128 351.88 195.128 340.006V339.773H195.361C405.216 339.463 405.498 339.744 405.594 339.841L405.662 339.909V340.006C405.662 351.88 395.998 361.544 384.124 361.544H384.134ZM195.603 340.239C195.729 351.754 205.131 361.079 216.676 361.079H384.134C395.678 361.079 405.09 351.744 405.207 340.219C398.073 339.948 203.551 340.219 195.613 340.239H195.603Z" fill="black"/>
<path d="M262.786 233.876C238.882 233.857 219.39 253.301 219.37 277.185C219.351 301.078 238.805 320.571 262.689 320.591C286.582 320.61 306.085 301.156 306.104 277.272C306.123 253.369 286.679 233.886 262.786 233.866V233.876Z" fill="#C1272D"/>
<path d="M262.727 320.823H262.688C238.649 320.804 219.117 301.224 219.137 277.185C219.156 253.165 238.717 233.644 262.746 233.644H262.775C274.397 233.644 285.331 238.199 293.57 246.458C301.809 254.707 306.336 265.66 306.326 277.282C306.326 288.894 301.761 299.828 293.502 308.067C285.253 316.297 274.32 320.833 262.717 320.833L262.727 320.823ZM262.746 234.109C238.969 234.109 219.621 253.427 219.602 277.185C219.583 300.972 238.911 320.339 262.688 320.358H262.727C274.213 320.358 285.021 315.88 293.182 307.738C301.354 299.586 305.851 288.768 305.861 277.282C305.861 265.786 301.383 254.959 293.241 246.787C285.089 238.626 274.271 234.119 262.775 234.109H262.746Z" fill="black"/>
<path d="M378.414 241.708H332.062C327.891 241.708 324.511 245.089 324.511 249.259V249.269C324.511 253.439 327.891 256.82 332.062 256.82H378.414C382.584 256.82 385.965 253.439 385.965 249.269V249.259C385.965 245.089 382.584 241.708 378.414 241.708Z" fill="#29ABE2"/>
<path d="M378.415 257.052H332.073C327.779 257.052 324.279 253.553 324.279 249.259C324.279 244.965 327.769 241.466 332.073 241.466H378.415C382.709 241.466 386.209 244.965 386.209 249.259C386.209 253.553 382.719 257.052 378.415 257.052ZM332.073 241.95C328.031 241.95 324.754 245.236 324.754 249.269C324.754 253.301 328.04 256.587 332.073 256.587H378.415C382.457 256.587 385.734 253.301 385.734 249.269C385.734 245.236 382.448 241.95 378.415 241.95H332.073Z" fill="black"/>
<path d="M378.414 274.229H332.062C327.891 274.229 324.511 277.609 324.511 281.78V281.789C324.511 285.96 327.891 289.34 332.062 289.34H378.414C382.584 289.34 385.965 285.96 385.965 281.789V281.78C385.965 277.609 382.584 274.229 378.414 274.229Z" fill="#29ABE2"/>
<path d="M378.415 289.573H332.073C327.779 289.573 324.279 286.074 324.279 281.78C324.279 277.486 327.769 273.986 332.073 273.986H378.415C382.709 273.986 386.209 277.486 386.209 281.78C386.209 286.074 382.719 289.573 378.415 289.573ZM332.073 274.471C328.031 274.471 324.754 277.757 324.754 281.789C324.754 285.822 328.04 289.108 332.073 289.108H378.415C382.457 289.108 385.734 285.822 385.734 281.789C385.734 277.757 382.448 274.471 378.415 274.471H332.073Z" fill="black"/>
<path d="M378.414 306.759H332.062C327.891 306.759 324.511 310.139 324.511 314.31V314.319C324.511 318.49 327.891 321.87 332.062 321.87H378.414C382.584 321.87 385.965 318.49 385.965 314.319V314.31C385.965 310.139 382.584 306.759 378.414 306.759Z" fill="#29ABE2"/>
<path d="M378.415 322.103H332.073C327.779 322.103 324.279 318.604 324.279 314.31C324.279 310.016 327.769 306.516 332.073 306.516H378.415C382.709 306.516 386.209 310.016 386.209 314.31C386.209 318.604 382.719 322.103 378.415 322.103ZM332.073 306.991C328.031 306.991 324.754 310.277 324.754 314.31C324.754 318.342 328.04 321.628 332.073 321.628H378.415C382.457 321.628 385.734 318.342 385.734 314.31C385.734 310.277 382.448 306.991 378.415 306.991H332.073Z" fill="black"/>
<path d="M352.311 384.178C352.311 388.365 348.909 391.767 344.722 391.767H252.201C248.014 391.767 244.611 388.365 244.611 384.178V384.158C244.611 379.971 248.014 376.568 252.201 376.568H259.917C268.35 376.568 275.193 369.725 275.193 361.292H321.458V361.312C321.458 369.745 328.302 376.588 336.735 376.588H344.731C348.919 376.588 352.321 379.99 352.321 384.178H352.311Z" fill="#4D4D4D"/>
<path d="M344.721 392H252.2C247.887 392 244.378 388.491 244.378 384.178C244.378 379.864 247.887 376.336 252.2 376.336H259.916C268.213 376.336 274.96 369.59 274.96 361.292V361.06H321.69V361.292C321.69 369.599 328.437 376.346 336.734 376.346H344.731C349.044 376.346 352.553 379.855 352.553 384.168C352.553 388.481 349.044 391.99 344.731 391.99L344.721 392ZM252.2 376.811C248.149 376.811 244.843 380.107 244.843 384.168C244.843 388.229 248.139 391.535 252.2 391.535H344.721C348.773 391.535 352.078 388.239 352.078 384.178C352.078 380.116 348.782 376.821 344.721 376.821H336.724C328.243 376.821 321.332 369.977 321.215 361.535H275.415C275.289 369.977 268.378 376.811 259.906 376.811H252.191H252.2Z" fill="black"/>
<path d="M251.969 292.578V261.899C251.969 259.611 254.518 258.254 256.418 259.524L279.439 274.859C281.116 275.973 281.126 278.484 279.42 279.608C271.743 284.726 264.153 289.786 256.418 294.952C254.518 296.222 251.969 294.865 251.969 292.578Z" fill="#E6F7FF"/>
<path d="M254.838 295.67C254.344 295.67 253.84 295.544 253.365 295.292C252.337 294.749 251.727 293.731 251.727 292.568V261.889C251.727 260.736 252.337 259.718 253.355 259.165C254.382 258.613 255.565 258.671 256.534 259.321L279.555 274.655C280.408 275.227 280.913 276.177 280.922 277.214C280.922 278.251 280.408 279.22 279.546 279.792L256.544 295.137C256.021 295.486 255.429 295.66 254.828 295.66L254.838 295.67ZM254.838 259.272C254.412 259.272 253.985 259.379 253.588 259.592C252.725 260.057 252.202 260.92 252.202 261.909V292.587C252.202 293.566 252.725 294.429 253.588 294.894C254.46 295.36 255.468 295.311 256.292 294.768L279.294 279.424C280.03 278.939 280.467 278.115 280.467 277.233C280.467 276.351 280.03 275.547 279.313 275.062L256.292 259.728C255.846 259.427 255.342 259.282 254.838 259.282V259.272Z" fill="black"/>
</svg>
