<svg width="600" height="600" viewBox="0 0 600 600" fill="none" xmlns="http://www.w3.org/2000/svg">
<path d="M238.074 227.19H391.92C396.082 227.19 399.463 230.57 399.463 234.733V406.524C399.463 410.686 396.082 414.067 391.92 414.067H245.627C241.464 414.067 238.084 410.686 238.084 406.524V227.19H238.074Z" fill="#FBB03B"/>
<path d="M391.919 414.221H245.626C241.386 414.221 237.938 410.773 237.938 406.533V227.045H391.929C396.169 227.045 399.617 230.493 399.617 234.733V406.524C399.617 410.763 396.169 414.211 391.929 414.211L391.919 414.221ZM238.219 227.335V406.533C238.219 410.619 241.541 413.931 245.617 413.931H391.91C395.995 413.931 399.308 410.609 399.308 406.533V234.733C399.308 230.648 395.985 227.335 391.91 227.335H238.219Z" fill="black"/>
<path d="M359.603 379.403L401.539 236.365C402.708 232.367 400.419 228.175 396.42 226.997L256.038 185.853C252.04 184.684 247.848 186.973 246.67 190.972L198.331 355.828C197.162 359.826 199.451 364.018 203.45 365.196L321.743 399.879L359.594 379.413L359.603 379.403Z" fill="#F9D447"/>
<path d="M321.772 400.024L321.714 400.004L203.42 365.322C201.45 364.742 199.818 363.429 198.832 361.632C197.847 359.826 197.625 357.75 198.205 355.779L246.534 190.923C247.732 186.857 252.011 184.51 256.077 185.708L396.468 226.871C398.439 227.451 400.071 228.764 401.056 230.561C402.041 232.367 402.263 234.443 401.684 236.414L359.729 379.51L359.68 379.539L321.772 400.033V400.024ZM253.913 185.689C250.716 185.689 247.751 187.784 246.805 191.01L198.465 355.866C197.905 357.759 198.127 359.768 199.074 361.497C200.02 363.226 201.585 364.491 203.488 365.051L321.724 399.715L359.468 379.307L401.384 236.327C401.945 234.434 401.722 232.425 400.776 230.696C399.829 228.967 398.265 227.702 396.362 227.142L255.99 185.988C255.294 185.785 254.599 185.689 253.913 185.689Z" fill="#221F20"/>
<path d="M322.244 398.053L328.753 374.149C329.082 372.932 330.328 372.198 331.554 372.507L357.574 378.911C358.288 379.085 358.414 380.05 357.767 380.408L323.412 398.98C322.785 399.318 322.06 398.739 322.253 398.053H322.244Z" fill="white"/>
<path d="M323.019 399.212C322.806 399.212 322.604 399.145 322.43 399C322.13 398.758 322.005 398.382 322.101 398.005L328.611 374.101C328.968 372.797 330.272 372.024 331.586 372.353L357.605 378.756C358.001 378.853 358.271 379.162 358.32 379.558C358.368 379.954 358.184 380.321 357.827 380.514L323.473 399.087C323.328 399.164 323.173 399.203 323.019 399.203V399.212ZM322.391 398.092C322.304 398.401 322.449 398.652 322.623 398.787C322.787 398.913 323.067 399 323.347 398.855L357.701 380.282C358.001 380.118 358.069 379.838 358.04 379.616C358.011 379.394 357.866 379.133 357.537 379.056L331.518 372.652C330.359 372.372 329.21 373.048 328.891 374.198L322.381 398.102L322.391 398.092Z" fill="black"/>
<path d="M257.458 251.133L260.047 251.876L267.03 253.876C270.497 254.87 273.964 255.865 277.422 256.85L290.016 260.463C294.643 261.786 299.278 263.119 303.905 264.442C308.531 265.765 313.186 267.098 317.832 268.431L330.909 272.178C334.57 273.221 338.23 274.274 341.881 275.317C344.527 276.08 347.174 276.833 349.83 277.596C351.075 277.954 352.321 278.321 353.567 278.668C353.625 278.688 353.674 278.697 353.731 278.717C355.064 279.103 356.677 278.292 357.006 276.901C357.334 275.51 356.619 274.032 355.19 273.627L352.601 272.883C350.274 272.217 347.946 271.55 345.619 270.884C342.151 269.889 338.684 268.894 335.226 267.909C331.025 266.702 326.824 265.504 322.632 264.297C318.006 262.974 313.37 261.641 308.744 260.318C304.117 258.994 299.462 257.662 294.816 256.329C290.461 255.083 286.105 253.827 281.739 252.581L270.767 249.442C268.121 248.679 265.475 247.926 262.819 247.163C261.573 246.806 260.327 246.439 259.081 246.091C259.023 246.072 258.975 246.062 258.917 246.043C257.584 245.656 255.971 246.468 255.643 247.859C255.305 249.259 256.029 250.727 257.458 251.133Z" fill="#4D4D4D"/>
<path d="M354.436 278.948C354.185 278.948 353.943 278.919 353.702 278.852L353.537 278.803C352.717 278.581 351.896 278.34 351.084 278.108C350.65 277.982 350.225 277.857 349.79 277.731L257.409 251.268C255.97 250.852 255.13 249.336 255.487 247.82C255.652 247.153 256.086 246.584 256.733 246.207C257.419 245.801 258.23 245.695 258.945 245.898L259.109 245.946C259.959 246.178 260.799 246.419 261.64 246.67C262.045 246.786 262.441 246.902 262.847 247.018L355.228 273.482C356.667 273.897 357.507 275.413 357.15 276.93C356.985 277.596 356.551 278.166 355.904 278.543C355.44 278.813 354.928 278.948 354.416 278.948H354.436ZM258.23 246.091C257.767 246.091 257.293 246.217 256.888 246.458C256.318 246.796 255.922 247.298 255.777 247.887C255.449 249.259 256.202 250.621 257.496 250.988L349.877 277.451C350.312 277.577 350.737 277.702 351.171 277.828C351.983 278.069 352.803 278.301 353.615 278.523L353.779 278.572C354.416 278.755 355.16 278.649 355.769 278.291C356.338 277.953 356.734 277.451 356.879 276.862C357.208 275.491 356.454 274.129 355.16 273.762L262.779 247.298C262.374 247.182 261.968 247.066 261.572 246.951C260.732 246.709 259.891 246.458 259.042 246.226L258.887 246.178C258.675 246.12 258.452 246.091 258.23 246.091Z" fill="black"/>
<path d="M314.973 229.836L315.967 229.064L318.652 226.987C319.985 225.963 321.308 224.93 322.641 223.906C324.254 222.66 325.867 221.414 327.48 220.169C329.257 218.797 331.034 217.416 332.811 216.044C334.598 214.663 336.375 213.292 338.162 211.911L343.184 208.028C344.585 206.946 345.995 205.855 347.395 204.773C348.409 203.991 349.433 203.199 350.447 202.417C350.93 202.05 351.413 201.692 351.886 201.306C351.906 201.287 351.925 201.277 351.944 201.258C352.456 200.862 352.205 199.519 351.297 198.409C350.389 197.298 349.25 196.641 348.699 197.066L347.704 197.839C346.806 198.534 345.918 199.22 345.019 199.915C343.687 200.939 342.363 201.972 341.031 202.996C339.418 204.242 337.805 205.488 336.192 206.734C334.415 208.105 332.638 209.487 330.86 210.858C329.074 212.239 327.297 213.611 325.51 214.992L320.488 218.874C319.087 219.956 317.677 221.047 316.277 222.129L313.225 224.486C312.742 224.853 312.259 225.21 311.785 225.596C311.766 225.616 311.747 225.625 311.728 225.645C311.216 226.041 311.467 227.383 312.375 228.494C313.273 229.614 314.422 230.261 314.973 229.836Z" fill="#333333"/>
<path d="M314.568 230.107C313.931 230.107 313.032 229.537 312.269 228.581C311.632 227.789 311.265 226.823 311.342 226.137C311.371 225.867 311.477 225.654 311.651 225.519L311.709 225.471C312.028 225.21 312.347 224.969 312.675 224.717C312.83 224.602 312.994 224.476 313.148 224.35L348.613 196.94C349.212 196.477 350.41 197.066 351.414 198.302C352.061 199.094 352.419 200.06 352.341 200.746C352.312 201.016 352.206 201.229 352.032 201.364L351.974 201.412C351.665 201.663 351.337 201.914 351.008 202.156C350.854 202.272 350.69 202.397 350.535 202.523L315.07 229.933C314.935 230.039 314.761 230.087 314.568 230.087V230.107ZM349.115 197.085C348.99 197.085 348.874 197.114 348.787 197.182L313.322 224.592C313.168 224.717 313.003 224.833 312.849 224.959C312.53 225.2 312.202 225.451 311.893 225.703L311.844 225.741C311.69 225.857 311.651 226.041 311.632 226.176C311.574 226.678 311.815 227.557 312.492 228.397C313.361 229.469 314.433 230.068 314.887 229.711L350.352 202.301C350.506 202.175 350.67 202.059 350.825 201.934C351.144 201.692 351.472 201.441 351.781 201.19L351.829 201.151C351.974 201.036 352.023 200.852 352.042 200.717C352.1 200.215 351.858 199.336 351.182 198.495C350.487 197.626 349.647 197.076 349.115 197.076V197.085Z" fill="black"/>
<path d="M249.442 277.983L252.03 278.726L259.013 280.725C262.48 281.72 265.948 282.715 269.405 283.7L282 287.312C286.626 288.636 291.262 289.968 295.888 291.292C300.514 292.615 305.17 293.948 309.815 295.28C314.171 296.526 318.527 297.782 322.893 299.028C326.553 300.071 330.213 301.124 333.864 302.167C336.511 302.93 339.157 303.683 341.813 304.446C343.059 304.803 344.305 305.17 345.551 305.518C345.609 305.537 345.657 305.547 345.715 305.566C347.048 305.953 348.661 305.141 348.989 303.751C349.317 302.36 348.603 300.882 347.173 300.476L344.585 299.733C342.257 299.066 339.93 298.4 337.602 297.734L327.21 294.759C323.008 293.552 318.807 292.354 314.615 291.147C309.989 289.823 305.353 288.491 300.727 287.167L286.8 283.179C282.444 281.933 278.088 280.677 273.723 279.431L262.751 276.292C260.105 275.529 257.458 274.776 254.802 274.013C253.556 273.656 252.31 273.289 251.064 272.941C251.006 272.922 250.958 272.912 250.9 272.893C249.567 272.506 247.954 273.318 247.626 274.708C247.288 276.109 248.012 277.577 249.442 277.983Z" fill="#4D4D4D"/>
<path d="M346.429 305.798C346.178 305.798 345.936 305.769 345.695 305.701L345.531 305.653C344.71 305.431 343.898 305.19 343.077 304.958C342.643 304.832 342.218 304.707 341.783 304.581L249.403 278.118C247.963 277.702 247.123 276.186 247.481 274.67C247.635 274.003 248.079 273.433 248.717 273.057C249.403 272.651 250.214 272.545 250.938 272.748L251.102 272.796C251.952 273.028 252.793 273.269 253.633 273.52C254.038 273.636 254.444 273.752 254.84 273.868L347.221 300.332C348.66 300.747 349.5 302.263 349.143 303.779C348.988 304.446 348.544 305.025 347.897 305.392C347.433 305.663 346.921 305.798 346.41 305.798H346.429ZM249.48 277.838L341.861 304.301C342.295 304.427 342.72 304.552 343.155 304.678C343.966 304.919 344.787 305.151 345.598 305.373L345.762 305.421C346.4 305.605 347.144 305.499 347.752 305.141C348.322 304.803 348.718 304.301 348.863 303.712C349.191 302.34 348.438 300.979 347.144 300.612L254.763 274.148C254.357 274.032 253.952 273.916 253.556 273.8C252.715 273.559 251.875 273.308 251.025 273.076L250.871 273.028C250.223 272.844 249.48 272.95 248.871 273.308C248.301 273.646 247.905 274.148 247.77 274.737C247.442 276.109 248.195 277.471 249.489 277.838H249.48Z" fill="black"/>
<path d="M241.425 304.832L244.013 305.576L250.996 307.575C254.463 308.57 257.931 309.565 261.388 310.55L273.983 314.162C278.609 315.485 283.245 316.818 287.871 318.141L301.798 322.13C306.154 323.376 310.51 324.632 314.876 325.877L325.847 329.016L333.796 331.296C335.042 331.653 336.288 332.02 337.534 332.368C337.592 332.387 337.64 332.397 337.698 332.416C339.031 332.802 340.644 331.991 340.972 330.6C341.3 329.21 340.586 327.732 339.156 327.326L336.568 326.582C334.24 325.916 331.913 325.25 329.585 324.583L319.193 321.608C314.991 320.401 310.79 319.204 306.598 317.996L292.71 314.017L278.783 310.028C274.427 308.782 270.071 307.527 265.706 306.281L254.734 303.142L246.785 300.863C245.539 300.505 244.293 300.138 243.047 299.791C242.99 299.771 242.941 299.762 242.883 299.742C241.55 299.356 239.938 300.167 239.609 301.558C239.281 302.949 239.995 304.427 241.425 304.832Z" fill="#4D4D4D"/>
<path d="M338.404 332.648C338.153 332.648 337.912 332.609 337.67 332.551L337.506 332.503C336.656 332.271 335.816 332.03 334.976 331.779C334.57 331.663 334.164 331.547 333.759 331.431L241.378 304.967C239.939 304.552 239.099 303.036 239.456 301.52C239.611 300.853 240.055 300.283 240.702 299.907C241.388 299.501 242.199 299.395 242.914 299.598L243.078 299.646C243.928 299.878 244.768 300.119 245.608 300.37C246.014 300.486 246.42 300.602 246.816 300.718L339.196 327.181C340.635 327.597 341.476 329.113 341.118 330.629C340.964 331.296 340.52 331.866 339.872 332.242C339.409 332.513 338.897 332.648 338.385 332.648H338.404ZM241.465 304.687L333.846 331.151C334.251 331.267 334.657 331.383 335.063 331.499C335.903 331.74 336.743 331.991 337.583 332.223L337.748 332.271C338.385 332.455 339.129 332.349 339.737 331.991C340.307 331.653 340.703 331.151 340.838 330.562C341.167 329.19 340.413 327.828 339.119 327.461L246.738 300.998C246.333 300.882 245.927 300.766 245.531 300.65C244.691 300.409 243.851 300.158 243.001 299.926L242.836 299.878C242.199 299.694 241.455 299.8 240.847 300.158C240.277 300.496 239.881 300.998 239.746 301.587C239.417 302.959 240.171 304.32 241.465 304.687Z" fill="black"/>
</svg>
