<svg width="600" height="600" viewBox="0 0 600 600" fill="none" xmlns="http://www.w3.org/2000/svg">
<path d="M375.508 243.497V359.55C375.508 374.1 363.716 385.892 349.166 385.892H247.663C233.113 385.892 221.321 374.1 221.321 359.55V233.698C221.321 219.148 233.113 207.356 247.663 207.356H340.161C344.091 207.356 347.865 208.906 350.661 211.674L370.378 231.216C373.654 234.464 375.499 238.883 375.499 243.497H375.508Z" fill="#E6F7FF"/>
<path d="M349.167 386.04H247.664C233.068 386.04 221.184 374.165 221.184 359.559V233.698C221.184 219.101 233.058 207.218 247.664 207.218H340.161C344.157 207.218 347.921 208.768 350.754 211.582L370.471 231.124C373.747 234.372 375.629 238.883 375.629 243.497V359.559C375.629 374.156 363.754 386.04 349.148 386.04H349.167ZM247.673 207.504C233.224 207.504 221.47 219.258 221.47 233.707V359.568C221.47 374.017 233.224 385.772 247.673 385.772H349.176C363.625 385.772 375.38 374.017 375.38 359.568V243.506C375.38 238.966 373.525 234.519 370.305 231.327L350.588 211.785C347.801 209.026 344.111 207.504 340.189 207.504H247.692H247.673Z" fill="black"/>
<path d="M342.643 212.274L341.933 230.496C341.73 235.719 345.808 240.101 351.031 240.286L371.043 240.978C373.793 241.07 375.417 236.577 373.534 234.575L348.991 209.902C346.759 207.531 342.782 209.026 342.653 212.274H342.643Z" fill="#FBB03B"/>
<path d="M371.125 241.116C371.125 241.116 371.061 241.116 371.033 241.116L351.021 240.424C348.455 240.332 346.084 239.253 344.34 237.37C342.597 235.488 341.692 233.052 341.794 230.487L342.504 212.265C342.569 210.705 343.51 209.395 344.977 208.841C346.444 208.297 348.013 208.657 349.083 209.792L373.626 234.464C374.752 235.654 374.641 237.555 374.023 238.902C373.395 240.286 372.316 241.107 371.125 241.107V241.116ZM346.333 208.878C345.918 208.878 345.485 208.952 345.069 209.109C343.713 209.616 342.836 210.834 342.781 212.283L342.071 230.506C341.978 232.997 342.855 235.368 344.543 237.186C346.241 239.013 348.539 240.064 351.03 240.148L371.042 240.84C372.159 240.886 373.174 240.111 373.773 238.8C374.346 237.536 374.456 235.765 373.423 234.667L348.88 209.995C348.188 209.266 347.274 208.878 346.333 208.878Z" fill="black"/>
<path d="M270.131 264.109H272.29C274.237 264.109 276.184 264.109 278.121 264.109C281.018 264.109 283.916 264.109 286.803 264.109C290.31 264.109 293.816 264.109 297.331 264.109C301.197 264.109 305.072 264.109 308.938 264.109H320.573C324.218 264.109 327.853 264.109 331.497 264.109C334.551 264.109 337.605 264.109 340.669 264.109H347.303C348.345 264.109 349.388 264.1 350.431 264.109C350.477 264.109 350.523 264.109 350.569 264.109C351.685 264.109 352.746 265.087 352.7 266.241C352.645 267.394 351.768 268.372 350.569 268.372H348.41C346.463 268.372 344.516 268.372 342.579 268.372C339.681 268.372 336.784 268.372 333.896 268.372H323.369C319.503 268.372 315.628 268.372 311.762 268.372H300.127C296.482 268.372 292.847 268.372 289.202 268.372C286.148 268.372 283.094 268.372 280.031 268.372C277.817 268.372 275.602 268.372 273.397 268.372C272.354 268.372 271.312 268.381 270.269 268.372C270.223 268.372 270.177 268.372 270.131 268.372C269.014 268.372 267.953 267.394 267.999 266.241C268.055 265.087 268.931 264.109 270.131 264.109Z" fill="#4D4D4D"/>
<path d="M271.311 268.51C270.961 268.51 270.619 268.51 270.269 268.51H270.177H270.13C269.522 268.51 268.922 268.243 268.47 267.772C268.054 267.338 267.833 266.794 267.861 266.231C267.916 264.967 268.913 263.971 270.13 263.971H347.312C347.662 263.971 348.004 263.971 348.354 263.971C349.046 263.971 349.747 263.971 350.439 263.971H350.532H350.578C351.187 263.971 351.786 264.238 352.239 264.709C352.654 265.143 352.875 265.696 352.848 266.25C352.792 267.514 351.796 268.51 350.578 268.51H273.397C273.046 268.51 272.705 268.51 272.354 268.51C272.003 268.51 271.662 268.51 271.311 268.51ZM270.177 268.233H270.269C270.961 268.243 271.653 268.233 272.345 268.233C272.695 268.233 273.037 268.233 273.387 268.233H350.569C351.63 268.233 352.506 267.357 352.562 266.241C352.58 265.761 352.395 265.29 352.026 264.903C351.639 264.497 351.094 264.257 350.569 264.257H350.43C349.738 264.257 349.046 264.257 348.354 264.257C348.004 264.257 347.662 264.257 347.312 264.257H270.13C269.069 264.257 268.193 265.133 268.138 266.25C268.119 266.73 268.304 267.2 268.673 267.588C269.06 267.994 269.605 268.233 270.13 268.233H270.177Z" fill="black"/>
<path d="M270.131 296.495H272.29C274.237 296.495 276.184 296.495 278.121 296.495C281.018 296.495 283.916 296.495 286.803 296.495H297.331C301.197 296.495 305.072 296.495 308.938 296.495C312.813 296.495 316.698 296.495 320.573 296.495C324.218 296.495 327.853 296.495 331.497 296.495H340.669C342.883 296.495 345.098 296.495 347.303 296.495C348.345 296.495 349.388 296.486 350.431 296.495C350.477 296.495 350.523 296.495 350.569 296.495C351.685 296.495 352.746 297.473 352.7 298.626C352.645 299.779 351.768 300.757 350.569 300.757H348.41C346.463 300.757 344.516 300.757 342.579 300.757C339.681 300.757 336.784 300.757 333.896 300.757C330.39 300.757 326.884 300.757 323.369 300.757C319.503 300.757 315.628 300.757 311.762 300.757H300.127C296.482 300.757 292.847 300.757 289.202 300.757C286.148 300.757 283.094 300.757 280.031 300.757H273.397C272.354 300.757 271.312 300.767 270.269 300.757C270.223 300.757 270.177 300.757 270.131 300.757C269.014 300.757 267.953 299.779 267.999 298.626C268.055 297.473 268.931 296.495 270.131 296.495Z" fill="#4D4D4D"/>
<path d="M271.311 300.896C270.961 300.896 270.619 300.896 270.269 300.896H270.13C269.522 300.896 268.922 300.628 268.47 300.158C268.054 299.724 267.833 299.18 267.861 298.617C267.916 297.353 268.913 296.356 270.13 296.356H347.312C347.662 296.356 348.004 296.356 348.354 296.356C349.046 296.356 349.747 296.356 350.439 296.356H350.578C351.187 296.356 351.786 296.624 352.239 297.095C352.654 297.528 352.875 298.073 352.848 298.635C352.792 299.899 351.796 300.896 350.578 300.896H273.397C273.046 300.896 272.705 300.896 272.354 300.896C272.003 300.896 271.662 300.896 271.311 300.896ZM270.13 296.633C269.069 296.633 268.193 297.51 268.138 298.626C268.119 299.106 268.304 299.576 268.673 299.964C269.06 300.37 269.605 300.61 270.13 300.61H270.269C270.961 300.61 271.653 300.61 272.354 300.61C272.705 300.61 273.046 300.61 273.397 300.61H350.578C351.639 300.61 352.515 299.733 352.571 298.617C352.589 298.137 352.405 297.667 352.036 297.279C351.648 296.873 351.104 296.633 350.578 296.633H350.439C349.747 296.624 349.046 296.633 348.354 296.633C348.004 296.633 347.662 296.633 347.312 296.633H270.13Z" fill="black"/>
<path d="M270.131 328.88H272.29C274.237 328.88 276.184 328.88 278.121 328.88C281.018 328.88 283.916 328.88 286.803 328.88C290.31 328.88 293.816 328.88 297.331 328.88C301.197 328.88 305.072 328.88 308.938 328.88H320.573C324.218 328.88 327.853 328.88 331.497 328.88C334.551 328.88 337.605 328.88 340.669 328.88H347.303C348.345 328.88 349.388 328.871 350.431 328.88C350.477 328.88 350.523 328.88 350.569 328.88C351.685 328.88 352.746 329.858 352.7 331.012C352.645 332.165 351.768 333.143 350.569 333.143H348.41C346.463 333.143 344.516 333.143 342.579 333.143C339.681 333.143 336.784 333.143 333.896 333.143H323.369C319.503 333.143 315.628 333.143 311.762 333.143H300.127C296.482 333.143 292.847 333.143 289.202 333.143C286.148 333.143 283.094 333.143 280.031 333.143C277.817 333.143 275.602 333.143 273.397 333.143C272.354 333.143 271.312 333.152 270.269 333.143C270.223 333.143 270.177 333.143 270.131 333.143C269.014 333.143 267.953 332.165 267.999 331.012C268.055 329.858 268.931 328.88 270.131 328.88Z" fill="#4D4D4D"/>
<path d="M271.311 333.281C270.961 333.281 270.619 333.281 270.269 333.281H270.177H270.13C269.522 333.281 268.922 333.014 268.47 332.543C268.054 332.11 267.833 331.556 267.861 331.002C267.916 329.738 268.913 328.742 270.13 328.742H347.312C347.662 328.742 348.004 328.742 348.354 328.742C349.046 328.742 349.747 328.742 350.439 328.742H350.532H350.578C351.187 328.742 351.786 329.01 352.239 329.48C352.654 329.914 352.875 330.458 352.848 331.021C352.792 332.285 351.796 333.281 350.578 333.281H273.397C273.046 333.281 272.705 333.281 272.354 333.281C272.003 333.281 271.662 333.281 271.311 333.281ZM270.177 333.005H270.269C270.961 333.014 271.653 333.005 272.345 333.005C272.695 333.005 273.037 333.005 273.387 333.005H350.569C351.63 333.005 352.506 332.128 352.562 331.012C352.58 330.532 352.395 330.061 352.026 329.674C351.639 329.268 351.094 329.028 350.569 329.028H350.43C349.738 329.028 349.046 329.028 348.354 329.028C348.004 329.028 347.662 329.028 347.312 329.028H270.13C269.069 329.028 268.193 329.905 268.138 331.021C268.119 331.501 268.304 331.971 268.673 332.359C269.06 332.765 269.605 333.005 270.13 333.005H270.177Z" fill="black"/>
<path d="M254.381 252.668H239.397C236.605 252.668 234.341 254.932 234.341 257.724V272.708C234.341 275.501 236.605 277.765 239.397 277.765H254.381C257.174 277.765 259.437 275.501 259.437 272.708V257.724C259.437 254.932 257.174 252.668 254.381 252.668Z" fill="#00A99D"/>
<path d="M254.381 277.903H239.397C236.536 277.903 234.202 275.569 234.202 272.708V257.724C234.202 254.864 236.527 252.53 239.397 252.53H254.381C257.241 252.53 259.575 254.864 259.575 257.724V272.708C259.575 275.569 257.25 277.903 254.381 277.903ZM239.397 252.806C236.684 252.806 234.479 255.012 234.479 257.724V272.708C234.479 275.421 236.684 277.626 239.397 277.626H254.381C257.094 277.626 259.299 275.421 259.299 272.708V257.724C259.299 255.012 257.094 252.806 254.381 252.806H239.397Z" fill="black"/>
<path d="M254.381 284.685H239.397C236.605 284.685 234.341 286.948 234.341 289.741V304.725C234.341 307.517 236.605 309.781 239.397 309.781H254.381C257.174 309.781 259.437 307.517 259.437 304.725V289.741C259.437 286.948 257.174 284.685 254.381 284.685Z" fill="#C1272D"/>
<path d="M254.381 309.92H239.397C236.536 309.92 234.202 307.594 234.202 304.725V289.741C234.202 286.881 236.527 284.546 239.397 284.546H254.381C257.241 284.546 259.575 286.871 259.575 289.741V304.725C259.575 307.585 257.25 309.92 254.381 309.92ZM239.397 284.823C236.684 284.823 234.479 287.028 234.479 289.741V304.725C234.479 307.438 236.684 309.643 239.397 309.643H254.381C257.094 309.643 259.299 307.438 259.299 304.725V289.741C259.299 287.028 257.094 284.823 254.381 284.823H239.397Z" fill="black"/>
<path d="M254.381 316.701H239.397C236.605 316.701 234.341 318.965 234.341 321.757V336.741C234.341 339.534 236.605 341.798 239.397 341.798H254.381C257.174 341.798 259.437 339.534 259.437 336.741V321.757C259.437 318.965 257.174 316.701 254.381 316.701Z" fill="#C1272D"/>
<path d="M254.381 341.936H239.397C236.536 341.936 234.202 339.602 234.202 336.741V321.757C234.202 318.897 236.527 316.563 239.397 316.563H254.381C257.241 316.563 259.575 318.897 259.575 321.757V336.741C259.575 339.602 257.25 341.936 254.381 341.936ZM239.397 316.84C236.684 316.84 234.479 319.045 234.479 321.757V336.741C234.479 339.454 236.684 341.659 239.397 341.659H254.381C257.094 341.659 259.299 339.454 259.299 336.741V321.757C259.299 319.045 257.094 316.84 254.381 316.84H239.397Z" fill="black"/>
<path d="M266.8 253.102C266.689 252.76 266.495 252.465 266.228 252.207C266.043 252.059 265.859 251.921 265.665 251.773C265.231 251.524 264.77 251.395 264.272 251.395C264.023 251.432 263.783 251.459 263.534 251.496C263.063 251.625 262.657 251.865 262.316 252.207C262.168 252.327 262.02 252.447 261.882 252.567C261.485 252.889 261.089 253.212 260.692 253.535C260.111 254.015 259.52 254.495 258.939 254.975C258.228 255.556 257.509 256.146 256.798 256.728C256.014 257.364 255.23 258.01 254.455 258.647C253.661 259.293 252.877 259.939 252.083 260.584C251.345 261.184 250.607 261.793 249.869 262.393C249.297 262.863 248.716 263.334 248.144 263.805C248.051 263.712 247.968 263.629 247.876 263.537C247.304 262.965 246.723 262.384 246.151 261.812L244.647 260.308C244.407 260.068 244.167 259.819 243.918 259.579C243.918 259.579 243.918 259.579 243.909 259.57C243.659 259.302 243.364 259.108 243.014 258.997C242.681 258.822 242.331 258.748 241.943 258.758C241.565 258.739 241.205 258.822 240.873 258.997C240.532 259.108 240.236 259.302 239.978 259.57C239.83 259.754 239.692 259.939 239.544 260.132C239.295 260.566 239.166 261.027 239.166 261.526C239.203 261.775 239.231 262.015 239.268 262.264C239.397 262.734 239.637 263.14 239.978 263.482L240.578 264.081L242.008 265.512C242.58 266.084 243.161 266.665 243.733 267.237C244.231 267.735 244.73 268.243 245.237 268.741C245.477 268.981 245.717 269.23 245.966 269.47C245.966 269.47 245.966 269.47 245.975 269.479C246.224 269.747 246.52 269.94 246.87 270.051C247.202 270.226 247.553 270.3 247.941 270.291C248.19 270.254 248.43 270.226 248.679 270.189C249.149 270.06 249.555 269.82 249.897 269.479C250.044 269.359 250.192 269.239 250.33 269.119C250.727 268.796 251.124 268.473 251.521 268.15C252.102 267.671 252.692 267.191 253.274 266.711C253.984 266.13 254.704 265.539 255.414 264.958C256.198 264.321 256.983 263.675 257.758 263.039C258.551 262.393 259.336 261.747 260.129 261.101C260.867 260.501 261.605 259.892 262.343 259.293C262.971 258.785 263.589 258.269 264.216 257.761C264.669 257.392 265.111 257.023 265.564 256.663C265.776 256.488 265.988 256.313 266.2 256.137C266.2 256.137 266.219 256.119 266.228 256.119C266.495 255.87 266.689 255.574 266.8 255.224C266.975 254.892 267.049 254.541 267.04 254.153C267.058 253.775 266.975 253.415 266.8 253.083V253.102Z" fill="#4D4D4D"/>
<path d="M247.857 270.448C247.479 270.448 247.128 270.365 246.805 270.19C246.464 270.079 246.141 269.876 245.873 269.59C245.689 269.405 245.513 269.23 245.338 269.055L239.885 263.602C239.525 263.242 239.276 262.808 239.138 262.319L239.036 261.563C239.036 261.018 239.175 260.529 239.433 260.077L239.876 259.505C240.153 259.21 240.466 259.007 240.835 258.887C241.167 258.712 241.546 258.629 241.952 258.638C242.349 258.619 242.727 258.712 243.077 258.896C243.419 259.007 243.742 259.21 244.009 259.496C244.175 259.662 244.332 259.819 244.489 259.976L248.152 263.639L262.232 252.105C262.583 251.755 263.016 251.506 263.505 251.367L264.262 251.266C264.806 251.266 265.295 251.404 265.747 251.662L266.319 252.105C266.615 252.373 266.818 252.696 266.938 253.056C267.122 253.406 267.205 253.785 267.187 254.181C267.205 254.578 267.113 254.956 266.928 255.307C266.818 255.648 266.615 255.971 266.329 256.239L266.301 256.266C266.126 256.414 265.95 256.553 265.775 256.7L249.997 269.627C249.647 269.977 249.213 270.226 248.724 270.365L247.968 270.466C247.968 270.466 247.903 270.466 247.866 270.466L247.857 270.448ZM241.859 258.915C241.527 258.915 241.223 258.988 240.937 259.136C240.595 259.247 240.319 259.431 240.079 259.68L239.654 260.234C239.424 260.631 239.304 261.074 239.304 261.544L239.405 262.264C239.525 262.688 239.756 263.076 240.079 263.408L245.541 268.87C245.716 269.045 245.892 269.221 246.067 269.396C246.316 269.664 246.593 269.839 246.916 269.95C247.248 270.116 247.58 270.19 247.931 270.18L248.65 270.079C249.075 269.959 249.462 269.728 249.794 269.405L265.59 256.469C265.766 256.331 265.941 256.183 266.107 256.045L266.135 256.017C266.375 255.787 266.559 255.51 266.661 255.187C266.827 254.864 266.91 254.523 266.891 254.172C266.901 253.803 266.827 253.471 266.67 253.166V253.148C266.559 252.825 266.375 252.548 266.126 252.317L265.572 251.893C265.175 251.662 264.732 251.542 264.262 251.542L263.542 251.644C263.118 251.764 262.73 251.995 262.398 252.317L248.115 264.026L244.277 260.188C244.12 260.031 243.963 259.874 243.806 259.717C243.557 259.45 243.28 259.274 242.957 259.164C242.625 258.998 242.293 258.915 241.943 258.933C241.915 258.933 241.887 258.933 241.859 258.933V258.915Z" fill="black"/>
<path d="M224.311 391.862C243.135 391.862 258.394 376.602 258.394 357.778C258.394 338.955 243.135 323.695 224.311 323.695C205.487 323.695 190.228 338.955 190.228 357.778C190.228 376.602 205.487 391.862 224.311 391.862Z" fill="#29ABE2"/>
<path d="M224.311 392C205.442 392 190.089 376.647 190.089 357.778C190.089 338.91 205.442 323.557 224.311 323.557C243.179 323.557 258.532 338.91 258.532 357.778C258.532 376.647 243.179 392 224.311 392ZM224.311 323.833C205.59 323.833 190.366 339.057 190.366 357.778C190.366 376.499 205.599 391.723 224.311 391.723C243.022 391.723 258.256 376.499 258.256 357.778C258.256 339.057 243.022 323.833 224.311 323.833Z" fill="black"/>
<path d="M224.071 385.191C239.481 385.191 251.973 372.699 251.973 357.289C251.973 341.88 239.481 329.388 224.071 329.388C208.662 329.388 196.17 341.88 196.17 357.289C196.17 372.699 208.662 385.191 224.071 385.191Z" fill="white"/>
<path d="M224.071 385.338C208.607 385.338 196.031 372.762 196.031 357.299C196.031 341.835 208.607 329.259 224.071 329.259C239.535 329.259 252.111 341.835 252.111 357.299C252.111 372.762 239.535 385.338 224.071 385.338ZM224.071 329.526C208.764 329.526 196.308 341.982 196.308 357.289C196.308 372.596 208.764 385.052 224.071 385.052C239.378 385.052 251.834 372.596 251.834 357.289C251.834 341.982 239.378 329.526 224.071 329.526Z" fill="black"/>
<path d="M231.935 339.61L225.612 355.852L226.214 356.087L232.537 339.845L231.935 339.61Z" fill="black"/>
<path d="M224.099 363.896C221.783 363.896 219.9 362.013 219.9 359.697C219.9 357.382 221.783 355.499 224.099 355.499C226.414 355.499 228.297 357.382 228.297 359.697C228.297 362.013 226.414 363.896 224.099 363.896ZM224.099 356.145C222.142 356.145 220.546 357.741 220.546 359.697C220.546 361.654 222.142 363.25 224.099 363.25C226.055 363.25 227.651 361.654 227.651 359.697C227.651 357.741 226.055 356.145 224.099 356.145Z" fill="black"/>
<path d="M229.45 322.007H219.393C215.195 322.007 211.781 318.593 211.781 314.395V313.61C211.781 306.644 217.456 300.97 224.422 300.97C231.388 300.97 237.062 306.644 237.062 313.61V314.395C237.062 318.593 233.648 322.007 229.45 322.007ZM224.422 301.616C217.806 301.616 212.427 306.995 212.427 313.61V314.395C212.427 318.233 215.555 321.361 219.393 321.361H229.45C233.289 321.361 236.416 318.233 236.416 314.395V313.61C236.416 306.995 231.037 301.616 224.422 301.616Z" fill="black"/>
<path d="M230.373 324.083C230.373 320.669 227.605 317.901 224.191 317.901C220.777 317.901 218.009 320.669 218.009 324.083H230.373Z" fill="#29ABE2"/>
<path d="M230.511 324.221H217.87V324.083C217.87 320.595 220.703 317.762 224.19 317.762C227.678 317.762 230.511 320.595 230.511 324.083V324.221ZM218.147 323.944H230.234C230.16 320.678 227.475 318.039 224.19 318.039C220.906 318.039 218.221 320.678 218.147 323.944Z" fill="black"/>
<path d="M224.284 335.155C225.099 335.155 225.76 334.494 225.76 333.678C225.76 332.863 225.099 332.202 224.284 332.202C223.469 332.202 222.808 332.863 222.808 333.678C222.808 334.494 223.469 335.155 224.284 335.155Z" fill="black"/>
<path d="M224.284 382.395C225.099 382.395 225.76 381.734 225.76 380.919C225.76 380.103 225.099 379.443 224.284 379.443C223.469 379.443 222.808 380.103 222.808 380.919C222.808 381.734 223.469 382.395 224.284 382.395Z" fill="black"/>
<path d="M200.295 357.852C201.11 357.852 201.771 357.191 201.771 356.376C201.771 355.561 201.11 354.9 200.295 354.9C199.479 354.9 198.818 355.561 198.818 356.376C198.818 357.191 199.479 357.852 200.295 357.852Z" fill="black"/>
<path d="M247.534 357.852C248.349 357.852 249.01 357.191 249.01 356.376C249.01 355.561 248.349 354.9 247.534 354.9C246.719 354.9 246.058 355.561 246.058 356.376C246.058 357.191 246.719 357.852 247.534 357.852Z" fill="black"/>
<path d="M203.541 346.9C204.356 346.9 205.017 346.239 205.017 345.424C205.017 344.608 204.356 343.948 203.541 343.948C202.725 343.948 202.064 344.608 202.064 345.424C202.064 346.239 202.725 346.9 203.541 346.9Z" fill="black"/>
<path d="M244.452 370.52C245.267 370.52 245.928 369.859 245.928 369.044C245.928 368.229 245.267 367.568 244.452 367.568C243.637 367.568 242.976 368.229 242.976 369.044C242.976 369.859 243.637 370.52 244.452 370.52Z" fill="black"/>
<path d="M244.36 347.177C245.175 347.177 245.836 346.516 245.836 345.701C245.836 344.885 245.175 344.224 244.36 344.224C243.545 344.224 242.884 344.885 242.884 345.701C242.884 346.516 243.545 347.177 244.36 347.177Z" fill="black"/>
<path d="M203.45 370.797C204.265 370.797 204.926 370.136 204.926 369.321C204.926 368.505 204.265 367.845 203.45 367.845C202.635 367.845 201.974 368.505 201.974 369.321C201.974 370.136 202.635 370.797 203.45 370.797Z" fill="black"/>
<path d="M236.38 338.301C237.195 338.301 237.856 337.64 237.856 336.825C237.856 336.009 237.195 335.348 236.38 335.348C235.564 335.348 234.903 336.009 234.903 336.825C234.903 337.64 235.564 338.301 236.38 338.301Z" fill="black"/>
<path d="M211.975 378.751C212.791 378.751 213.452 378.09 213.452 377.274C213.452 376.459 212.791 375.798 211.975 375.798C211.16 375.798 210.499 376.459 210.499 377.274C210.499 378.09 211.16 378.751 211.975 378.751Z" fill="black"/>
<path d="M211.883 338.485C212.699 338.485 213.36 337.824 213.36 337.009C213.36 336.194 212.699 335.533 211.883 335.533C211.068 335.533 210.407 336.194 210.407 337.009C210.407 337.824 211.068 338.485 211.883 338.485Z" fill="black"/>
<path d="M236.287 378.935C237.102 378.935 237.763 378.274 237.763 377.459C237.763 376.643 237.102 375.982 236.287 375.982C235.471 375.982 234.811 376.643 234.811 377.459C234.811 378.274 235.471 378.935 236.287 378.935Z" fill="black"/>
<path d="M408.255 223.014C408.255 218.649 404.721 215.116 400.357 215.116H392.726C388.362 215.116 384.828 218.649 384.828 223.014V236.752H408.255V223.014Z" fill="#C1272D"/>
<path d="M408.393 236.891H384.689V223.014C384.689 218.585 388.297 214.977 392.726 214.977H400.356C404.785 214.977 408.393 218.585 408.393 223.014V236.891ZM384.966 236.614H408.116V223.014C408.116 218.732 404.638 215.254 400.356 215.254H392.726C388.445 215.254 384.966 218.732 384.966 223.014V236.614Z" fill="black"/>
<path d="M408.255 365.962V254.818H384.828V366.267H408.079L408.255 365.962Z" fill="#FBB03B"/>
<path d="M408.162 366.405H384.689V254.679H408.393V365.999L408.162 366.405ZM384.966 366.128H408.005L408.125 365.925V254.956H384.975V366.119L384.966 366.128Z" fill="black"/>
<path d="M397.828 383.696L407.996 366.461L384.754 366.424L396.684 383.733C396.961 384.139 397.57 384.12 397.819 383.696H397.828Z" fill="#FFCCD0"/>
<path d="M397.237 384.167C396.969 384.167 396.72 384.037 396.564 383.816L384.477 366.285H384.744L408.226 366.322L397.938 383.761C397.8 384 397.542 384.148 397.265 384.157C397.255 384.157 397.246 384.157 397.237 384.157V384.167ZM385.012 366.571L396.794 383.659C396.896 383.807 397.071 383.908 397.256 383.89C397.44 383.89 397.606 383.788 397.698 383.622L407.746 366.599L385.012 366.562V366.571Z" fill="black"/>
<path d="M397.55 383.834L400.844 378.261H392.965L396.831 383.862C397.006 384.12 397.384 384.102 397.55 383.834Z" fill="#4D4D4D"/>
<path d="M397.181 384.176C396.997 384.176 396.822 384.084 396.72 383.936L392.697 378.105L401.075 378.123L397.661 383.908C397.56 384.074 397.394 384.176 397.2 384.185C397.2 384.185 397.191 384.185 397.181 384.185V384.176ZM393.232 378.381L396.951 383.779C397.006 383.862 397.098 383.908 397.2 383.899C397.301 383.899 397.384 383.844 397.44 383.761L400.605 378.391H393.232V378.381Z" fill="black"/>
<path d="M408.255 236.752H384.828V254.818H408.255V236.752Z" fill="#4D4D4D"/>
<path d="M408.393 254.956H384.689V236.614H408.393V254.956ZM384.966 254.68H408.116V236.891H384.966V254.68Z" fill="black"/>
</svg>
