<svg width="600" height="600" viewBox="0 0 600 600" fill="none" xmlns="http://www.w3.org/2000/svg">
<path d="M339.589 352.664L339.557 352.652L339.48 352.62L339.5 352.562L339.563 352.537H339.621L339.691 352.626L339.659 352.696L339.589 352.664Z" fill="black"/>
<path d="M376.337 275.673C375.138 275.086 374.717 274.493 374.717 273.122C374.729 255.098 361.406 240.309 343.345 238.166C342.86 238.108 342.152 237.815 341.769 237.502C336.533 233.274 330.966 230.653 325.073 229.613C319.824 228.688 314.307 229.026 308.535 230.614C308.025 230.755 307.234 230.646 306.775 230.378C296.807 224.492 286.985 224.67 277.234 230.927C276.743 231.246 275.811 231.239 275.231 231.01C264.07 226.648 253.145 229.97 246.149 239.843C245.779 240.366 244.937 240.832 244.299 240.87C232.08 241.654 223.093 250.373 221.863 262.669C221.85 262.803 221.824 262.943 221.786 263.09C214.841 266.738 210.096 274.015 210.096 282.408C210.096 288.288 212.424 293.62 216.206 297.542C216.231 297.791 216.257 298.033 216.301 298.275C218.788 312.823 230.421 322.849 245.167 323.187C246.072 323.206 246.748 323.187 247.131 324.303C252.852 340.84 273.203 349.367 289.67 339.647C289.766 339.59 289.881 339.571 290.161 339.469C290.384 339.947 290.614 340.438 290.856 340.929C293.407 346.165 297.559 349.137 303.389 349.552C305.117 349.673 306.392 350.247 307.534 351.58C312.203 357.033 317.011 362.365 321.654 367.843C323.823 370.401 326.112 372.633 329.537 373.303C330.251 373.251 331.336 373.181 332.056 373.13C332.477 372.984 332.905 372.837 333.325 372.69C337.018 371.44 339.416 368.188 339.48 364.214C339.544 360.413 339.531 356.606 339.556 352.798C343.587 352.498 347.478 352.511 351.247 351.861C359.729 350.4 367.012 346.567 372.376 339.667C377.325 333.302 378.983 326.165 376.815 318.276C376.77 318.116 376.789 317.938 376.783 317.804C378.371 316.643 380.036 315.604 381.49 314.334C394.086 303.295 391.394 283.052 376.343 275.679L376.337 275.673Z" fill="#E5838A"/>
<path d="M329.537 373.392H329.524C325.895 372.678 323.523 370.184 321.584 367.901C319.065 364.935 316.456 361.957 313.937 359.08C311.807 356.65 309.6 354.138 307.464 351.638C306.373 350.362 305.155 349.769 303.382 349.641C297.623 349.233 293.376 346.312 290.773 340.968C290.608 340.623 290.448 340.285 290.289 339.947L290.117 339.584C290.046 339.609 289.989 339.628 289.938 339.641C289.836 339.673 289.772 339.692 289.721 339.724C282.081 344.233 272.935 345.068 264.631 342.014C256.277 338.94 249.867 332.498 247.042 324.328C246.691 323.314 246.117 323.301 245.249 323.282H245.167C230.345 322.944 218.706 312.899 216.212 298.288C216.174 298.084 216.148 297.861 216.116 297.58C212.175 293.479 210 288.09 210 282.408C210 274.257 214.484 266.833 221.703 263.026C221.735 262.898 221.754 262.777 221.767 262.662C222.998 250.36 232.054 241.565 244.293 240.781C244.905 240.742 245.721 240.289 246.072 239.792C253.113 229.849 264.032 226.539 275.269 230.927C275.811 231.137 276.711 231.157 277.183 230.85C282.049 227.725 287.011 226.093 291.921 226.003C296.826 225.92 301.845 227.355 306.826 230.296C307.266 230.557 308.019 230.659 308.51 230.525C314.282 228.944 319.862 228.605 325.092 229.524C330.985 230.557 336.616 233.217 341.833 237.432C342.203 237.732 342.886 238.019 343.357 238.07C352.127 239.11 360.124 243.21 365.883 249.62C371.649 256.036 374.825 264.384 374.812 273.115C374.812 274.416 375.176 274.997 376.375 275.584C383.473 279.059 388.333 285.801 389.373 293.62C390.412 301.426 387.485 309.194 381.547 314.398C380.552 315.272 379.436 316.044 378.365 316.796C377.874 317.134 377.37 317.485 376.879 317.849C376.879 317.874 376.879 317.906 376.879 317.931C376.879 318.04 376.879 318.148 376.904 318.25C379.028 325.967 377.529 333.193 372.446 339.724C367.331 346.299 360.201 350.413 351.259 351.95C348.651 352.396 346.036 352.53 343.268 352.671C342.088 352.728 340.87 352.792 339.646 352.881C339.639 354.093 339.633 355.298 339.633 356.51C339.627 359.036 339.614 361.638 339.576 364.208C339.512 368.213 337.126 371.498 333.357 372.773C333.006 372.894 332.649 373.016 332.299 373.137L332.063 373.213L329.531 373.385L329.537 373.392ZM290.219 339.348L290.461 339.864C290.62 340.202 290.78 340.547 290.946 340.885C293.522 346.165 297.712 349.048 303.395 349.45C305.219 349.578 306.482 350.196 307.604 351.51C309.741 354.01 311.947 356.523 314.077 358.953C316.603 361.829 319.212 364.807 321.731 367.773C323.644 370.031 325.985 372.493 329.55 373.194L332.043 373.022L332.241 372.952C332.592 372.831 332.949 372.709 333.3 372.588C336.993 371.338 339.327 368.124 339.391 364.202C339.435 361.638 339.442 359.029 339.448 356.51C339.448 355.273 339.454 354.029 339.461 352.792V352.703H339.55C340.8 352.613 342.05 352.55 343.262 352.486C346.023 352.345 348.632 352.212 351.228 351.765C360.124 350.234 367.21 346.146 372.293 339.609C377.331 333.129 378.824 325.961 376.719 318.301C376.687 318.174 376.687 318.046 376.687 317.931C376.687 317.887 376.687 317.842 376.687 317.804V317.753L376.726 317.721C377.229 317.351 377.752 316.988 378.256 316.637C379.328 315.891 380.437 315.119 381.426 314.251C387.313 309.092 390.221 301.388 389.188 293.639C388.161 285.89 383.339 279.2 376.298 275.749C375.035 275.131 374.627 274.487 374.627 273.109C374.634 264.423 371.477 256.125 365.743 249.741C360.016 243.363 352.057 239.288 343.338 238.249C342.835 238.191 342.107 237.885 341.718 237.566C336.527 233.376 330.921 230.729 325.066 229.696C319.862 228.784 314.313 229.116 308.567 230.691C308.031 230.838 307.215 230.729 306.737 230.442C301.941 227.611 297.106 226.169 292.368 226.169C292.221 226.169 292.081 226.169 291.934 226.169C287.055 226.259 282.132 227.878 277.297 230.984C276.755 231.335 275.792 231.303 275.212 231.074C264.064 226.718 253.234 230.009 246.244 239.868C245.862 240.411 244.994 240.889 244.318 240.934C232.175 241.712 223.189 250.436 221.971 262.643C221.958 262.777 221.933 262.924 221.888 263.077L221.875 263.115L221.837 263.134C214.656 266.904 210.198 274.276 210.198 282.369C210.198 288.014 212.36 293.365 216.282 297.434L216.308 297.459V297.491C216.339 297.784 216.371 298.014 216.403 298.218C218.884 312.734 230.447 322.715 245.179 323.046H245.262C246.142 323.065 246.838 323.085 247.233 324.226C250.039 332.339 256.41 338.748 264.708 341.797C272.961 344.833 282.042 344.003 289.632 339.52C289.702 339.482 289.779 339.456 289.887 339.418C289.951 339.399 290.034 339.367 290.142 339.335L290.225 339.309L290.219 339.348Z" fill="black"/>
<path d="M231.971 304.251C219.891 304.251 210.063 294.423 210.063 282.344C210.063 270.265 219.891 260.437 231.971 260.437V260.628C219.994 260.628 210.255 270.367 210.255 282.344C210.255 294.321 219.994 304.06 231.971 304.06V304.251Z" fill="black"/>
<path d="M243.152 252.292C242.897 246.297 244.988 240.57 249.045 236.15C253.101 231.73 258.637 229.16 264.625 228.905C264.951 228.892 265.276 228.886 265.595 228.886C277.54 228.886 287.502 238.338 288.012 250.379H287.821C287.298 238.127 276.902 228.573 264.632 229.096C258.694 229.352 253.203 231.903 249.185 236.284C245.161 240.666 243.088 246.348 243.343 252.286H243.152V252.292Z" fill="black"/>
<path d="M313.913 335.693C309.028 335.693 304.308 334.067 300.418 331.018L300.539 330.865C304.997 334.367 310.558 335.974 316.196 335.381C321.968 334.781 327.153 331.969 330.808 327.466C334.462 322.963 336.146 317.306 335.546 311.535L335.738 311.516C336.343 317.338 334.647 323.046 330.961 327.587C327.274 332.128 322.038 334.966 316.216 335.572C315.444 335.649 314.678 335.693 313.913 335.693Z" fill="black"/>
<path d="M274.645 343.959C267.247 343.959 260.238 341.204 254.791 336.133C249.09 330.821 245.799 323.614 245.525 315.827L245.461 312.714C245.735 304.927 249.026 297.714 254.728 292.401C260.429 287.095 267.853 284.308 275.64 284.595H298.81C300.271 284.595 301.457 283.409 301.457 281.948V277.465C301.457 275.896 302.733 274.627 304.295 274.627H316.706V274.818H304.295C302.835 274.818 301.648 276.004 301.648 277.465V281.948C301.648 283.517 300.373 284.786 298.81 284.786H275.64C267.904 284.512 260.525 287.267 254.862 292.542C249.198 297.816 245.933 304.978 245.659 312.714L245.722 315.82C245.997 323.55 249.268 330.719 254.925 335.993C260.327 341.025 267.298 343.767 274.645 343.767C274.996 343.767 275.347 343.767 275.698 343.748C283.434 343.474 290.596 340.209 295.87 334.545C301.145 328.882 303.9 321.503 303.625 313.773H303.817C304.091 321.554 301.323 328.977 296.011 334.679C290.704 340.381 283.491 343.672 275.704 343.946C275.353 343.959 274.996 343.965 274.645 343.965V343.959Z" fill="black"/>
<path d="M339.608 352.887C334.467 352.875 329.41 351.612 324.971 349.233C320.474 346.822 316.712 343.315 314.084 339.086L314.243 338.984C316.852 343.187 320.589 346.669 325.06 349.061C329.467 351.421 334.499 352.677 339.608 352.69V352.881V352.887Z" fill="black"/>
<path d="M342.018 289.493L341.89 289.353C356.03 276.534 357.101 254.601 344.282 240.462C338.07 233.612 329.569 229.594 320.334 229.141C311.099 228.689 302.24 231.858 295.397 238.07L295.27 237.93C302.157 231.686 311.067 228.497 320.347 228.95C329.633 229.403 338.185 233.446 344.429 240.334C357.318 254.55 356.24 276.604 342.024 289.493H342.018Z" fill="black"/>
</svg>
