<svg width="600" height="600" viewBox="0 0 600 600" fill="none" xmlns="http://www.w3.org/2000/svg">
<path d="M356.115 263.997H229.348C217.668 263.997 208.195 254.524 208.195 242.844V237.573C208.195 225.893 217.668 216.42 229.348 216.42H358.675C360.257 216.42 360.932 218.435 359.662 219.383C353.313 224.139 349.363 231.597 349.202 239.659C349.041 247.308 352.296 254.524 357.838 259.532C359.582 261.104 358.463 264.007 356.115 264.007V263.997Z" fill="#FFECD2"/>
<path d="M356.116 264.147H229.349C217.599 264.147 208.045 254.594 208.045 242.843V237.573C208.045 225.822 217.599 216.269 229.349 216.269H358.676C359.462 216.269 360.137 216.752 360.379 217.498C360.631 218.244 360.379 219.03 359.754 219.503C353.405 224.27 349.515 231.808 349.354 239.669C349.193 247.157 352.327 254.352 357.94 259.421C358.797 260.187 359.069 261.336 358.655 262.414C358.242 263.492 357.265 264.158 356.116 264.158V264.147ZM229.349 216.561C217.77 216.561 208.347 225.983 208.347 237.563V242.833C208.347 254.412 217.77 263.835 229.349 263.835H356.116C357.144 263.835 358.01 263.24 358.373 262.283C358.736 261.326 358.494 260.308 357.738 259.623C352.055 254.493 348.89 247.217 349.051 239.639C349.223 231.687 353.153 224.059 359.573 219.241C360.207 218.768 360.258 218.062 360.097 217.569C359.935 217.075 359.472 216.551 358.676 216.551H229.349V216.561Z" fill="black"/>
<path d="M366.092 262.505C364.561 262.505 363.029 262.505 361.497 262.505H349.273C343.387 262.505 337.512 262.505 331.627 262.505C324.653 262.505 317.679 262.505 310.706 262.505H288.887C282.035 262.505 275.172 262.505 268.319 262.505C262.595 262.505 256.881 262.505 251.157 262.505C247.367 262.505 243.578 262.505 239.789 262.505H236.897C236.695 262.505 236.484 262.505 236.282 262.505C236.252 262.505 236.232 262.505 236.201 262.505C235.617 262.505 235.032 262.485 234.458 262.444C234.166 262.424 233.884 262.404 233.591 262.374C233.45 262.364 233.309 262.344 233.168 262.324C232.362 262.243 234.146 262.475 233.349 262.354C232.13 262.162 230.921 261.9 229.742 261.548C229.177 261.376 228.613 261.195 228.059 260.983C227.797 260.882 227.545 260.772 227.283 260.681C228.472 261.084 227.394 260.721 227.071 260.57C225.952 260.046 224.874 259.441 223.846 258.766C223.393 258.464 222.949 258.151 222.506 257.829C222.012 257.466 222.778 258.041 222.798 258.061C222.677 257.95 222.526 257.849 222.395 257.738C222.153 257.547 221.921 257.345 221.69 257.144C220.773 256.337 219.906 255.461 219.1 254.534C218.918 254.332 218.747 254.12 218.576 253.909C218.495 253.808 218.414 253.687 218.324 253.586C219.019 254.372 218.707 254.09 218.555 253.878C218.173 253.354 217.8 252.83 217.447 252.276C216.802 251.268 216.228 250.21 215.724 249.122C215.663 249.001 215.613 248.87 215.552 248.749C215.29 248.185 215.693 249.071 215.704 249.102C215.613 248.809 215.472 248.517 215.361 248.235C215.139 247.65 214.948 247.056 214.776 246.451C214.434 245.252 214.232 244.053 214 242.833C214.242 244.113 214.031 243.015 214 242.692C213.97 242.4 213.95 242.118 213.93 241.826C213.89 241.211 213.879 240.586 213.879 239.971C213.879 239.387 213.91 238.812 213.95 238.228C213.97 237.905 214 237.583 214.041 237.26C214.061 237.099 214.131 236.595 214.041 237.24C213.94 237.936 214.041 237.281 214.061 237.119C214.262 235.87 214.545 234.63 214.928 233.421C215.099 232.856 215.3 232.302 215.512 231.748C215.562 231.617 215.613 231.496 215.663 231.365C215.835 230.912 215.31 232.151 215.512 231.718C215.663 231.405 215.794 231.093 215.945 230.78C216.469 229.702 217.064 228.654 217.729 227.656C217.88 227.425 218.031 227.203 218.193 226.981C218.273 226.86 218.938 225.984 218.495 226.548C218.052 227.112 218.737 226.256 218.828 226.145C219.049 225.883 219.271 225.631 219.493 225.379C220.269 224.522 221.105 223.716 221.982 222.97C222.214 222.769 222.456 222.587 222.697 222.386C223.06 222.073 222.012 222.89 222.395 222.618C222.536 222.517 222.667 222.416 222.808 222.315C223.302 221.952 223.816 221.61 224.34 221.287C225.368 220.652 226.426 220.108 227.525 219.604C228.351 219.221 226.708 219.917 227.555 219.594C227.847 219.483 228.139 219.373 228.432 219.262C229.026 219.05 229.621 218.859 230.225 218.697C230.83 218.536 231.384 218.395 231.969 218.284C232.251 218.224 232.523 218.173 232.805 218.133C232.977 218.103 233.158 218.073 233.329 218.052C234.005 217.942 232.553 218.143 233.047 218.093C234.347 217.962 235.647 217.901 236.947 217.901H244.818C249.695 217.901 254.573 217.901 259.451 217.901C265.87 217.901 272.279 217.901 278.699 217.901C285.864 217.901 293.029 217.901 300.195 217.901C307.39 217.901 314.585 217.901 321.791 217.901C328.301 217.901 334.811 217.901 341.321 217.901C346.36 217.901 351.389 217.901 356.428 217.901C359.27 217.901 362.122 217.901 364.964 217.901H366.072C368.098 217.901 370.043 216.118 369.942 214.031C369.851 211.935 368.239 210.162 366.072 210.162C364.52 210.162 362.968 210.162 361.416 210.162C357.274 210.162 353.122 210.162 348.98 210.162C343.025 210.162 337.069 210.162 331.123 210.162H310C302.674 210.162 295.357 210.162 288.031 210.162C281.138 210.162 274.245 210.162 267.351 210.162C261.678 210.162 255.994 210.162 250.32 210.162C246.622 210.162 242.933 210.162 239.235 210.162C235.95 210.162 232.745 210.202 229.49 210.917C218.858 213.266 210.11 221.731 207.208 232.191C204.255 242.854 207.571 254.745 215.734 262.243C221.488 267.524 228.905 270.265 236.695 270.265H244.122C248.93 270.265 253.726 270.265 258.534 270.265C264.933 270.265 271.342 270.265 277.742 270.265H299.338C306.624 270.265 313.91 270.265 321.196 270.265C327.777 270.265 334.368 270.265 340.949 270.265C346.048 270.265 351.157 270.265 356.257 270.265C359.159 270.265 362.051 270.265 364.954 270.265H366.082C368.108 270.265 370.053 268.481 369.952 266.395C369.861 264.299 368.249 262.525 366.082 262.525L366.092 262.505Z" fill="#F28564"/>
<path d="M366.093 270.405H236.716C228.805 270.405 221.317 267.543 215.653 262.343C207.45 254.815 204.084 242.954 207.077 232.141C210.02 221.499 218.808 213.104 229.47 210.756C232.644 210.06 235.778 210 239.245 210H366.093C368.249 210 370.013 211.764 370.114 214.021C370.154 215.009 369.771 215.976 369.035 216.752C368.239 217.578 367.171 218.062 366.093 218.062H236.958C235.587 218.062 234.347 218.123 233.178 218.233L232.836 218.284C232.554 218.334 232.282 218.385 232.009 218.435C231.435 218.556 230.85 218.687 230.276 218.848C229.671 219.019 229.077 219.201 228.492 219.413C228.271 219.493 228.049 219.574 227.817 219.664L227.616 219.745C227.616 219.745 227.595 219.745 227.585 219.755C226.356 220.32 225.348 220.854 224.431 221.428C223.917 221.751 223.403 222.093 222.909 222.446C222.849 222.486 222.788 222.537 222.728 222.577L222.667 222.617C222.597 222.678 222.526 222.738 222.456 222.789C222.335 222.889 222.214 222.98 222.093 223.091C221.216 223.837 220.38 224.643 219.614 225.489C219.382 225.741 219.16 225.993 218.949 226.255C218.919 226.285 218.828 226.406 218.737 226.517C218.707 226.558 218.667 226.598 218.646 226.638C218.606 226.689 218.566 226.749 218.515 226.82C218.425 226.941 218.344 227.051 218.324 227.082C218.163 227.303 218.012 227.525 217.86 227.757C217.205 228.744 216.601 229.793 216.087 230.861C216.006 231.022 215.936 231.193 215.855 231.365C215.815 231.465 215.764 231.556 215.724 231.657L215.653 231.828C215.442 232.372 215.25 232.937 215.069 233.491C214.696 234.69 214.404 235.93 214.212 237.169V237.21C214.212 237.21 214.202 237.28 214.192 237.3C214.152 237.623 214.132 237.935 214.101 238.258C214.061 238.832 214.031 239.417 214.031 239.991C214.031 240.606 214.041 241.231 214.081 241.835C214.101 242.128 214.122 242.41 214.152 242.692C214.162 242.853 214.232 243.206 214.253 243.357C214.253 243.367 214.253 243.387 214.253 243.407C214.253 243.407 214.253 243.407 214.253 243.417C214.253 243.448 214.263 243.478 214.273 243.508C214.454 244.466 214.636 245.453 214.908 246.421C215.079 247.015 215.281 247.62 215.492 248.194C215.532 248.305 215.583 248.426 215.633 248.537C215.694 248.678 215.754 248.819 215.805 248.96L215.855 249.071C216.349 250.149 216.923 251.208 217.568 252.215C217.881 252.699 218.213 253.173 218.536 253.616C218.788 253.898 218.878 254.009 218.898 254.08C218.999 254.201 219.1 254.322 219.211 254.453C220.007 255.37 220.864 256.246 221.781 257.042C222.012 257.244 222.244 257.436 222.476 257.637C222.526 257.677 222.577 257.718 222.627 257.758C222.657 257.778 222.678 257.798 222.708 257.818C223.101 258.101 223.504 258.393 223.907 258.655C224.935 259.33 226.013 259.935 227.122 260.449C227.273 260.519 227.636 260.65 227.787 260.711C227.807 260.711 227.827 260.721 227.847 260.731C227.847 260.731 227.918 260.771 227.938 260.801C227.988 260.822 228.039 260.842 228.089 260.862C228.633 261.063 229.198 261.255 229.762 261.426C230.83 261.749 231.959 262.001 233.209 262.202L233.592 262.243C233.874 262.273 234.166 262.293 234.448 262.313C235.002 262.353 235.577 262.363 236.182 262.374H366.072C368.229 262.374 369.993 264.137 370.093 266.395C370.134 267.382 369.751 268.35 369.015 269.126C368.219 269.952 367.151 270.436 366.072 270.436L366.093 270.405ZM239.245 210.302C235.789 210.302 232.675 210.363 229.53 211.048C218.979 213.376 210.282 221.69 207.37 232.221C204.407 242.934 207.742 254.664 215.855 262.122C221.468 267.271 228.865 270.103 236.706 270.103H366.083C367.06 270.103 368.088 269.65 368.814 268.894C369.499 268.178 369.852 267.291 369.811 266.395C369.721 264.298 368.078 262.666 366.093 262.666H236.232C235.587 262.666 235.013 262.646 234.448 262.605C234.176 262.585 233.904 262.565 233.632 262.535C233.571 262.555 233.461 262.535 233.289 262.525C233.027 262.494 232.896 262.474 232.836 262.434C231.707 262.243 230.669 262.001 229.692 261.708C229.117 261.537 228.553 261.346 227.999 261.144C227.888 261.104 227.787 261.063 227.676 261.013C227.535 260.953 227.384 260.892 227.243 260.842V260.822C227.152 260.781 227.071 260.751 227.011 260.721C225.892 260.197 224.804 259.592 223.766 258.907C223.413 258.675 223.06 258.423 222.718 258.171C222.718 258.171 222.597 258.08 222.486 258C222.405 257.939 222.335 257.889 222.295 257.849L222.274 257.839C222.274 257.839 222.224 257.788 222.204 257.768C222.002 257.607 221.811 257.436 221.609 257.264C220.682 256.458 219.805 255.571 219.009 254.644C218.878 254.493 218.757 254.342 218.626 254.191C218.586 254.15 218.526 254.08 218.455 253.979C218.445 253.959 218.425 253.939 218.415 253.918C218.415 253.908 218.395 253.898 218.384 253.878C218.334 253.818 218.284 253.747 218.233 253.687H218.243C217.941 253.263 217.639 252.82 217.346 252.366C216.701 251.349 216.117 250.28 215.613 249.192L215.593 249.152C215.593 249.152 215.522 249.001 215.472 248.87C215.432 248.789 215.401 248.718 215.381 248.668C215.381 248.648 215.371 248.648 215.371 248.638C215.371 248.638 215.351 248.557 215.351 248.527C215.321 248.446 215.291 248.366 215.26 248.285C215.049 247.701 214.847 247.096 214.666 246.491C214.384 245.514 214.202 244.516 214.021 243.549C213.981 243.337 213.94 243.135 213.9 242.924V242.853C213.9 242.793 213.88 242.742 213.88 242.702C213.849 242.41 213.829 242.128 213.809 241.835C213.769 241.21 213.759 240.586 213.759 239.971C213.759 239.386 213.789 238.792 213.829 238.217C213.839 238.016 213.86 237.824 213.88 237.623C213.88 237.603 213.88 237.572 213.88 237.532C213.88 237.532 213.88 237.492 213.89 237.462C213.89 237.401 213.91 237.321 213.92 237.23C213.93 237.129 213.95 237.048 213.96 236.988V236.917V236.887C214.162 235.708 214.444 234.529 214.797 233.39C214.958 232.876 215.139 232.362 215.331 231.858C215.331 231.788 215.371 231.677 215.452 231.486C215.532 231.294 215.573 231.193 215.633 231.143C215.694 231.002 215.764 230.861 215.825 230.72C216.349 229.641 216.953 228.583 217.619 227.575C217.77 227.344 217.931 227.122 218.082 226.9C218.102 226.87 218.153 226.799 218.223 226.719C218.223 226.699 218.243 226.679 218.264 226.648C218.294 226.598 218.334 226.548 218.395 226.477C218.455 226.406 218.495 226.346 218.536 226.306C218.536 226.306 218.566 226.275 218.586 226.265C218.657 226.175 218.717 226.104 218.737 226.074C218.959 225.812 219.181 225.55 219.412 225.298C220.188 224.441 221.025 223.625 221.912 222.869C222.002 222.789 222.093 222.718 222.184 222.647C222.214 222.587 222.305 222.516 222.476 222.375C222.627 222.265 222.718 222.194 222.778 222.174C223.262 221.821 223.766 221.489 224.28 221.166C225.136 220.632 226.064 220.138 227.182 219.614C227.223 219.554 227.323 219.513 227.505 219.443C227.656 219.382 227.747 219.342 227.817 219.352C228.009 219.282 228.2 219.201 228.392 219.14C228.976 218.929 229.591 218.737 230.195 218.566C230.77 218.405 231.364 218.264 231.949 218.143C232.231 218.082 232.513 218.032 232.785 217.992H232.846C232.906 217.951 233.047 217.931 233.32 217.891C233.451 217.871 233.541 217.861 233.602 217.891C234.65 217.8 235.748 217.76 236.958 217.76H366.093C367.07 217.76 368.098 217.306 368.824 216.55C369.509 215.835 369.862 214.948 369.821 214.041C369.731 211.945 368.088 210.312 366.103 210.312H239.255L239.245 210.302Z" fill="black"/>
<path d="M356.115 384.273H229.348C217.668 384.273 208.195 374.8 208.195 363.12V357.85C208.195 346.17 217.668 336.697 229.348 336.697H358.675C360.257 336.697 360.932 338.712 359.662 339.659C353.313 344.416 349.363 351.873 349.202 359.936C349.041 367.585 352.296 374.8 357.838 379.809C359.582 381.381 358.463 384.283 356.115 384.283V384.273Z" fill="#FFECD2"/>
<path d="M356.116 384.424H229.349C217.599 384.424 208.045 374.861 208.045 363.12V357.849C208.045 346.099 217.599 336.545 229.349 336.545H358.676C359.462 336.545 360.137 337.029 360.379 337.775C360.631 338.521 360.379 339.307 359.754 339.78C353.405 344.547 349.515 352.085 349.354 359.946C349.193 367.433 352.327 374.629 357.94 379.698C358.797 380.464 359.069 381.613 358.655 382.691C358.242 383.769 357.265 384.434 356.116 384.434V384.424ZM229.349 336.848C217.77 336.848 208.347 346.27 208.347 357.849V363.12C208.347 374.699 217.77 384.122 229.349 384.122H356.116C357.144 384.122 358.01 383.527 358.373 382.57C358.736 381.613 358.494 380.595 357.738 379.909C352.055 374.78 348.89 367.504 349.051 359.925C349.223 351.974 353.153 344.345 359.573 339.528C360.207 339.055 360.258 338.349 360.097 337.855C359.935 337.362 359.472 336.838 358.676 336.838H229.349V336.848Z" fill="black"/>
<path d="M366.092 382.792C364.561 382.792 363.029 382.792 361.497 382.792H349.273C343.387 382.792 337.512 382.792 331.627 382.792C324.653 382.792 317.679 382.792 310.706 382.792H288.887C282.035 382.792 275.172 382.792 268.319 382.792H251.157C247.367 382.792 243.578 382.792 239.789 382.792H236.897C236.695 382.792 236.484 382.792 236.282 382.792C236.252 382.792 236.232 382.792 236.201 382.792C235.617 382.792 235.032 382.771 234.458 382.731C234.166 382.711 233.884 382.691 233.591 382.661C233.45 382.65 233.309 382.63 233.168 382.61C232.362 382.53 234.146 382.761 233.349 382.64C232.13 382.449 230.921 382.187 229.742 381.834C229.177 381.663 228.613 381.481 228.059 381.27C227.797 381.169 227.545 381.058 227.283 380.968C228.472 381.371 227.394 381.008 227.071 380.857C225.952 380.333 224.874 379.728 223.846 379.053C223.393 378.75 222.949 378.438 222.506 378.116C222.012 377.753 222.778 378.327 222.798 378.347C222.677 378.236 222.526 378.136 222.395 378.025C222.153 377.833 221.921 377.632 221.69 377.43C220.773 376.624 219.906 375.747 219.1 374.82C218.918 374.619 218.747 374.407 218.576 374.195C218.495 374.095 218.414 373.974 218.324 373.873C219.019 374.659 218.707 374.377 218.555 374.165C218.173 373.641 217.8 373.117 217.447 372.563C216.802 371.555 216.228 370.497 215.724 369.408C215.663 369.288 215.613 369.156 215.552 369.036C215.29 368.471 215.693 369.358 215.704 369.388C215.613 369.096 215.472 368.804 215.361 368.522C215.139 367.937 214.948 367.343 214.776 366.738C214.434 365.539 214.232 364.339 214 363.12C214.242 364.4 214.031 363.301 214 362.979C213.97 362.687 213.95 362.404 213.93 362.112C213.89 361.497 213.879 360.873 213.879 360.258C213.879 359.673 213.91 359.099 213.95 358.514C213.97 358.192 214 357.87 214.041 357.547C214.061 357.386 214.131 356.882 214.041 357.527C213.94 358.222 214.041 357.567 214.061 357.406C214.262 356.156 214.545 354.917 214.928 353.707C215.099 353.143 215.3 352.589 215.512 352.035C215.562 351.904 215.613 351.783 215.663 351.652C215.835 351.198 215.31 352.438 215.512 352.004C215.663 351.692 215.794 351.38 215.945 351.067C216.469 349.989 217.064 348.941 217.729 347.943C217.88 347.711 218.031 347.49 218.193 347.268C218.273 347.147 218.938 346.27 218.495 346.834C218.052 347.399 218.737 346.542 218.828 346.431C219.049 346.169 219.271 345.917 219.493 345.665C220.269 344.809 221.105 344.003 221.982 343.257C222.214 343.055 222.456 342.874 222.697 342.672C223.06 342.36 222.012 343.176 222.395 342.904C222.536 342.803 222.667 342.703 222.808 342.602C223.302 342.239 223.816 341.896 224.34 341.574C225.368 340.939 226.426 340.395 227.525 339.891C228.351 339.508 226.708 340.203 227.555 339.881C227.847 339.77 228.139 339.659 228.432 339.548C229.026 339.337 229.621 339.145 230.225 338.984C230.83 338.823 231.384 338.682 231.969 338.571C232.251 338.51 232.523 338.46 232.805 338.42C232.977 338.389 233.158 338.359 233.329 338.339C234.005 338.228 232.553 338.43 233.047 338.379C234.347 338.248 235.647 338.188 236.947 338.188H244.818C249.695 338.188 254.573 338.188 259.451 338.188H278.699C285.864 338.188 293.029 338.188 300.195 338.188H321.791C328.301 338.188 334.811 338.188 341.321 338.188C346.36 338.188 351.389 338.188 356.428 338.188C359.27 338.188 362.122 338.188 364.964 338.188H366.072C368.098 338.188 370.043 336.404 369.942 334.318C369.851 332.222 368.239 330.448 366.072 330.448C364.52 330.448 362.968 330.448 361.416 330.448C357.274 330.448 353.122 330.448 348.98 330.448C343.025 330.448 337.069 330.448 331.123 330.448H310C302.674 330.448 295.357 330.448 288.031 330.448C281.138 330.448 274.245 330.448 267.351 330.448C261.678 330.448 255.994 330.448 250.32 330.448C246.622 330.448 242.933 330.448 239.235 330.448C235.95 330.448 232.745 330.489 229.49 331.204C218.858 333.552 210.11 342.017 207.208 352.478C204.255 363.14 207.571 375.032 215.734 382.53C221.488 387.81 228.905 390.551 236.695 390.551H244.122C248.93 390.551 253.726 390.551 258.534 390.551C264.933 390.551 271.342 390.551 277.742 390.551C284.937 390.551 292.143 390.551 299.338 390.551C306.624 390.551 313.91 390.551 321.196 390.551C327.777 390.551 334.368 390.551 340.949 390.551C346.048 390.551 351.157 390.551 356.257 390.551C359.159 390.551 362.051 390.551 364.954 390.551H366.082C368.108 390.551 370.053 388.768 369.952 386.682C369.861 384.585 368.249 382.812 366.082 382.812L366.092 382.792Z" fill="#C1272D"/>
<path d="M366.093 390.693H236.716C228.805 390.693 221.317 387.831 215.653 382.631C207.45 375.103 204.084 363.241 207.077 352.428C210.02 341.786 218.808 333.391 229.47 331.043C232.644 330.338 235.778 330.287 239.245 330.287H366.093C368.249 330.287 370.013 332.051 370.114 334.308C370.154 335.296 369.771 336.263 369.035 337.039C368.239 337.866 367.171 338.349 366.093 338.349H236.958C235.587 338.349 234.358 338.41 233.189 338.521C233.068 338.541 232.957 338.561 232.836 338.581C232.554 338.632 232.282 338.682 232.009 338.732C231.415 338.853 230.84 338.994 230.276 339.145C229.671 339.317 229.077 339.498 228.492 339.71C228.291 339.78 228.089 339.861 227.888 339.932L227.626 340.032C227.626 340.032 227.605 340.032 227.595 340.042C226.386 340.597 225.348 341.151 224.441 341.715C223.927 342.038 223.413 342.38 222.919 342.733L222.758 342.854C222.758 342.854 222.708 342.894 222.688 342.904C222.607 342.965 222.536 343.025 222.456 343.096C222.335 343.187 222.224 343.287 222.113 343.378C221.236 344.124 220.41 344.93 219.634 345.777C219.402 346.029 219.181 346.28 218.969 346.542C218.939 346.573 218.848 346.694 218.757 346.805C218.717 346.845 218.687 346.885 218.657 346.925C218.616 346.976 218.576 347.036 218.526 347.097C218.435 347.218 218.354 347.329 218.334 347.359C218.173 347.58 218.022 347.802 217.87 348.034C217.215 349.022 216.611 350.07 216.097 351.138C216.016 351.299 215.946 351.47 215.865 351.642C215.825 351.743 215.774 351.833 215.734 351.934L215.663 352.105C215.452 352.65 215.26 353.214 215.079 353.768C214.706 354.967 214.414 356.207 214.222 357.446V357.487C214.222 357.487 214.212 357.557 214.202 357.578C214.162 357.9 214.142 358.222 214.112 358.535C214.071 359.109 214.041 359.694 214.041 360.268C214.041 360.883 214.051 361.498 214.091 362.112C214.112 362.395 214.132 362.687 214.162 362.969C214.172 363.13 214.243 363.483 214.263 363.634C214.263 363.644 214.263 363.664 214.263 363.685C214.263 363.685 214.263 363.685 214.263 363.695C214.263 363.725 214.273 363.755 214.283 363.785C214.464 364.743 214.646 365.73 214.918 366.698C215.089 367.302 215.291 367.897 215.502 368.471C215.543 368.582 215.593 368.703 215.643 368.814C215.704 368.955 215.764 369.096 215.815 369.247L215.865 369.358C216.359 370.437 216.933 371.495 217.578 372.503C217.87 372.966 218.183 373.41 218.546 373.913C218.798 374.196 218.888 374.306 218.908 374.367C219.009 374.488 219.11 374.609 219.221 374.73C220.017 375.647 220.884 376.523 221.791 377.32C222.022 377.521 222.254 377.713 222.486 377.904C222.536 377.944 222.587 377.985 222.637 378.025C222.657 378.045 222.678 378.065 222.708 378.075C223.101 378.358 223.504 378.65 223.917 378.922C224.935 379.587 226.023 380.192 227.132 380.716C227.293 380.786 227.666 380.927 227.807 380.978C227.817 380.978 227.837 380.988 227.857 380.998C227.857 380.998 227.918 381.038 227.948 381.058C227.999 381.079 228.049 381.099 228.099 381.119C228.654 381.331 229.218 381.512 229.772 381.683C230.85 382.006 231.989 382.258 233.239 382.459L233.602 382.5C233.884 382.53 234.176 382.55 234.458 382.57C235.013 382.61 235.587 382.62 236.192 382.631H366.083C368.239 382.631 370.003 384.394 370.103 386.652C370.144 387.639 369.761 388.607 369.025 389.383C368.229 390.209 367.161 390.693 366.083 390.693H366.093ZM239.245 330.579C235.789 330.579 232.675 330.64 229.53 331.325C218.979 333.653 210.282 341.957 207.37 352.498C204.407 363.211 207.742 374.941 215.855 382.399C221.468 387.548 228.865 390.38 236.706 390.38H366.083C367.06 390.38 368.088 389.927 368.814 389.171C369.499 388.455 369.852 387.569 369.811 386.672C369.721 384.576 368.078 382.943 366.093 382.943H236.202C235.587 382.943 235.013 382.923 234.448 382.882C234.176 382.862 233.904 382.842 233.632 382.812C233.571 382.832 233.461 382.812 233.269 382.802C233.017 382.772 232.896 382.751 232.836 382.711C231.717 382.52 230.679 382.278 229.692 381.986C229.137 381.824 228.563 381.633 227.999 381.421C227.888 381.381 227.787 381.341 227.676 381.29C227.525 381.23 227.374 381.169 227.223 381.119V381.099C227.142 381.058 227.051 381.028 226.991 380.998C225.872 380.474 224.774 379.859 223.746 379.184C223.393 378.952 223.04 378.7 222.698 378.458C222.698 378.458 222.597 378.388 222.496 378.317C222.395 378.247 222.325 378.186 222.274 378.146L222.254 378.136C222.254 378.136 222.194 378.086 222.184 378.055C221.982 377.894 221.791 377.723 221.599 377.551C220.672 376.745 219.805 375.858 218.999 374.931C218.868 374.78 218.747 374.639 218.616 374.478C218.576 374.437 218.515 374.367 218.445 374.266C218.425 374.246 218.405 374.216 218.395 374.196L218.374 374.175C218.324 374.115 218.274 374.044 218.223 373.994H218.233C217.901 373.52 217.608 373.107 217.336 372.674C216.691 371.656 216.107 370.588 215.603 369.499L215.583 369.459C215.583 369.459 215.512 369.308 215.462 369.177C215.422 369.096 215.391 369.026 215.371 368.975C215.371 368.965 215.361 368.955 215.361 368.945C215.361 368.945 215.341 368.864 215.341 368.834C215.311 368.754 215.281 368.673 215.25 368.592C215.039 368.008 214.837 367.403 214.656 366.799C214.374 365.821 214.192 364.823 214.011 363.856C213.97 363.644 213.93 363.443 213.89 363.231V363.161C213.89 363.1 213.87 363.05 213.87 363.009C213.839 362.717 213.819 362.435 213.799 362.143C213.759 361.518 213.749 360.893 213.749 360.278C213.749 359.694 213.779 359.099 213.819 358.525C213.829 358.323 213.849 358.132 213.87 357.93C213.87 357.91 213.87 357.88 213.87 357.84C213.87 357.84 213.87 357.799 213.88 357.769C213.88 357.709 213.9 357.628 213.91 357.537C213.92 357.436 213.94 357.356 213.95 357.295V357.225V357.195C214.152 356.015 214.434 354.836 214.787 353.698C214.948 353.184 215.129 352.67 215.321 352.166C215.321 352.095 215.361 351.984 215.442 351.793C215.522 351.601 215.563 351.501 215.623 351.45C215.684 351.309 215.754 351.168 215.815 351.027C216.339 349.949 216.943 348.891 217.608 347.883C217.76 347.651 217.921 347.429 218.072 347.208C218.092 347.177 218.143 347.107 218.213 347.026C218.213 347.006 218.233 346.986 218.253 346.956C218.284 346.905 218.324 346.855 218.384 346.784C218.445 346.714 218.485 346.653 218.526 346.613C218.526 346.613 218.556 346.583 218.576 346.573C218.646 346.482 218.707 346.411 218.727 346.381C218.949 346.119 219.17 345.857 219.402 345.605C220.178 344.749 221.025 343.922 221.902 343.177C221.992 343.096 222.083 343.025 222.174 342.955C222.204 342.894 222.295 342.814 222.476 342.683C222.627 342.572 222.708 342.501 222.778 342.481C223.262 342.128 223.766 341.796 224.28 341.473C225.126 340.949 226.084 340.435 227.182 339.921C227.223 339.861 227.323 339.821 227.505 339.75C227.656 339.69 227.757 339.649 227.817 339.659C228.009 339.589 228.2 339.508 228.392 339.448C228.976 339.236 229.591 339.045 230.195 338.873C230.76 338.712 231.354 338.571 231.949 338.45C232.231 338.39 232.513 338.339 232.785 338.289H232.856C232.916 338.249 233.047 338.228 233.299 338.198C233.44 338.178 233.541 338.168 233.602 338.198C234.65 338.107 235.748 338.067 236.958 338.067H366.093C367.07 338.067 368.098 337.614 368.824 336.858C369.509 336.142 369.862 335.256 369.821 334.359C369.731 332.262 368.088 330.63 366.103 330.63H239.255L239.245 330.579Z" fill="black"/>
<path d="M243.337 324.099H370.104C381.784 324.099 391.257 314.626 391.257 302.946V297.676C391.257 285.996 381.784 276.523 370.104 276.523H240.777C239.195 276.523 238.52 278.538 239.79 279.486C246.138 284.242 250.089 291.7 250.25 299.762C250.411 307.411 247.156 314.626 241.614 319.635C239.87 321.207 240.989 324.109 243.337 324.109V324.099Z" fill="#FFECD2"/>
<path d="M370.104 324.251H243.338C242.189 324.251 241.211 323.585 240.798 322.507C240.385 321.439 240.657 320.29 241.514 319.514C247.127 314.445 250.261 307.25 250.1 299.762C249.938 291.901 246.048 284.363 239.7 279.596C239.065 279.123 238.823 278.337 239.075 277.591C239.327 276.845 239.992 276.362 240.778 276.362H370.104C381.855 276.362 391.408 285.915 391.408 297.666V302.936C391.408 314.687 381.855 324.24 370.104 324.24V324.251ZM240.778 276.674C239.982 276.674 239.518 277.198 239.357 277.692C239.196 278.186 239.246 278.881 239.881 279.365C246.3 284.182 250.241 291.811 250.402 299.762C250.563 307.34 247.399 314.616 241.715 319.746C240.959 320.431 240.717 321.449 241.08 322.406C241.443 323.364 242.31 323.958 243.338 323.958H370.104C381.684 323.958 391.106 314.536 391.106 302.957V297.686C391.106 286.107 381.684 276.684 370.104 276.684H240.778V276.674Z" fill="black"/>
<path d="M233.35 322.618C234.882 322.618 236.413 322.618 237.945 322.618C242.017 322.618 246.098 322.618 250.169 322.618C256.055 322.618 261.93 322.618 267.815 322.618C274.789 322.618 281.763 322.618 288.737 322.618H310.555C317.408 322.618 324.27 322.618 331.123 322.618C336.847 322.618 342.561 322.618 348.285 322.618C352.075 322.618 355.864 322.618 359.653 322.618H362.545C362.747 322.618 362.958 322.618 363.16 322.618C363.19 322.618 363.21 322.618 363.241 322.618C363.825 322.618 364.41 322.598 364.984 322.558C365.276 322.537 365.559 322.517 365.851 322.487C365.992 322.477 366.133 322.457 366.274 322.437C367.08 322.356 365.297 322.588 366.093 322.467C367.312 322.275 368.521 322.013 369.7 321.661C370.265 321.489 370.829 321.308 371.383 321.096C371.645 320.995 371.897 320.885 372.159 320.794C370.97 321.197 372.049 320.834 372.371 320.683C373.49 320.159 374.568 319.554 375.596 318.879C376.049 318.577 376.493 318.264 376.936 317.942C377.43 317.579 376.664 318.154 376.644 318.174C376.765 318.063 376.916 317.962 377.047 317.851C377.289 317.66 377.521 317.458 377.753 317.257C378.67 316.45 379.536 315.574 380.342 314.647C380.524 314.445 380.695 314.233 380.867 314.022C380.947 313.921 381.028 313.8 381.118 313.699C380.423 314.485 380.735 314.203 380.887 313.992C381.27 313.467 381.642 312.943 381.995 312.389C382.64 311.381 383.215 310.323 383.718 309.235C383.779 309.114 383.829 308.983 383.89 308.862C384.152 308.298 383.749 309.184 383.739 309.215C383.829 308.922 383.97 308.63 384.081 308.348C384.303 307.764 384.494 307.169 384.666 306.564C385.008 305.365 385.21 304.166 385.442 302.946C385.2 304.226 385.412 303.128 385.442 302.805C385.472 302.513 385.492 302.231 385.512 301.939C385.553 301.324 385.563 300.699 385.563 300.084C385.563 299.5 385.532 298.925 385.492 298.341C385.472 298.018 385.442 297.696 385.401 297.373C385.381 297.212 385.311 296.708 385.401 297.353C385.502 298.049 385.401 297.394 385.381 297.232C385.18 295.983 384.898 294.743 384.515 293.534C384.343 292.97 384.142 292.415 383.93 291.861C383.88 291.73 383.829 291.609 383.779 291.478C383.608 291.025 384.132 292.264 383.93 291.831C383.779 291.518 383.648 291.206 383.497 290.894C382.973 289.815 382.378 288.767 381.713 287.769C381.562 287.538 381.411 287.316 381.249 287.094C381.169 286.973 380.504 286.097 380.947 286.661C381.391 287.225 380.705 286.369 380.615 286.258C380.393 285.996 380.171 285.744 379.949 285.492C379.173 284.635 378.337 283.829 377.46 283.083C377.228 282.882 376.987 282.7 376.745 282.499C376.382 282.186 377.43 283.003 377.047 282.731C376.906 282.63 376.775 282.529 376.634 282.428C376.14 282.066 375.626 281.723 375.102 281.4C374.074 280.765 373.016 280.221 371.918 279.717C371.091 279.334 372.734 280.03 371.887 279.707C371.595 279.596 371.303 279.486 371.011 279.375C370.416 279.163 369.821 278.972 369.217 278.81C368.612 278.649 368.058 278.508 367.473 278.397C367.191 278.337 366.919 278.286 366.637 278.246C366.466 278.216 366.284 278.186 366.113 278.165C365.438 278.055 366.889 278.256 366.395 278.206C365.095 278.075 363.795 278.014 362.495 278.014H354.624C349.747 278.014 344.869 278.014 339.992 278.014H320.743C313.578 278.014 306.413 278.014 299.248 278.014H277.651C271.141 278.014 264.631 278.014 258.121 278.014H243.014C240.172 278.014 237.32 278.014 234.479 278.014H233.37C231.344 278.014 229.399 276.231 229.5 274.144C229.601 272.058 231.203 270.275 233.37 270.275C234.922 270.275 236.474 270.275 238.026 270.275C242.168 270.275 246.32 270.275 250.462 270.275C256.418 270.275 262.373 270.275 268.319 270.275H289.442C296.768 270.275 304.085 270.275 311.411 270.275C318.304 270.275 325.198 270.275 332.091 270.275C337.764 270.275 343.448 270.275 349.122 270.275C352.82 270.275 356.509 270.275 360.207 270.275C363.493 270.275 366.697 270.315 369.952 271.03C380.584 273.379 389.332 281.844 392.234 292.304C395.187 302.967 391.871 314.858 383.708 322.356C377.954 327.637 370.537 330.378 362.747 330.378C360.268 330.378 357.799 330.378 355.32 330.378C350.513 330.378 345.716 330.378 340.909 330.378C334.509 330.378 328.1 330.378 321.701 330.378H300.104C292.818 330.378 285.532 330.378 278.246 330.378C271.665 330.378 265.074 330.378 258.494 330.378H243.186C240.283 330.378 237.391 330.378 234.489 330.378H233.36C231.334 330.378 229.389 328.594 229.49 326.508C229.591 324.422 231.193 322.638 233.36 322.638L233.35 322.618Z" fill="#00A99D"/>
<path d="M362.727 330.519H233.35C232.272 330.519 231.193 330.045 230.407 329.209C229.672 328.433 229.289 327.465 229.329 326.478C229.43 324.22 231.193 322.457 233.35 322.457H363.241C363.866 322.457 364.43 322.437 364.974 322.396C365.256 322.376 365.549 322.356 365.831 322.326L366.012 322.306C366.083 322.306 366.153 322.285 366.214 322.285C367.463 322.084 368.592 321.832 369.66 321.509C370.225 321.338 370.789 321.147 371.333 320.945C371.384 320.925 371.434 320.905 371.484 320.885C371.505 320.854 371.535 320.834 371.575 320.824C371.595 320.824 371.615 320.804 371.636 320.804C371.787 320.744 372.15 320.623 372.301 320.542C373.399 320.028 374.488 319.423 375.515 318.748C375.919 318.486 376.322 318.194 376.715 317.912L376.795 317.851C376.846 317.811 376.896 317.771 376.946 317.73C377.178 317.539 377.42 317.337 377.642 317.136C378.559 316.34 379.416 315.463 380.212 314.546C380.312 314.425 380.423 314.304 380.524 314.173C380.544 314.112 380.635 314.002 380.887 313.719C381.209 313.276 381.542 312.802 381.854 312.319C382.499 311.311 383.074 310.253 383.567 309.174L383.618 309.064C383.668 308.922 383.729 308.771 383.789 308.63C383.84 308.519 383.88 308.408 383.93 308.288C384.142 307.703 384.343 307.108 384.515 306.514C384.797 305.557 384.978 304.569 385.15 303.601C385.15 303.571 385.16 303.541 385.17 303.511C385.17 303.511 385.17 303.511 385.17 303.501C385.17 303.481 385.17 303.46 385.17 303.45C385.2 303.299 385.261 302.946 385.271 302.785C385.301 302.503 385.321 302.211 385.341 301.929C385.381 301.314 385.392 300.689 385.392 300.084C385.392 299.51 385.361 298.925 385.321 298.351C385.301 298.029 385.271 297.706 385.23 297.394C385.23 297.373 385.23 297.343 385.22 297.303V297.263C385.019 296.023 384.726 294.784 384.354 293.584C384.182 293.03 383.981 292.466 383.769 291.921L383.699 291.75C383.658 291.649 383.608 291.559 383.567 291.458C383.497 291.287 383.416 291.125 383.336 290.954C382.822 289.886 382.227 288.838 381.562 287.85C381.411 287.628 381.26 287.397 381.098 287.175C381.068 287.135 380.988 287.024 380.907 286.913C380.857 286.842 380.806 286.782 380.776 286.731C380.756 286.701 380.726 286.671 380.705 286.641C380.605 286.52 380.504 286.389 380.474 286.349C380.252 286.086 380.03 285.835 379.809 285.583C379.043 284.726 378.206 283.92 377.329 283.184C377.209 283.083 377.088 282.983 376.967 282.882C376.896 282.821 376.826 282.761 376.755 282.71L376.695 282.67C376.634 282.63 376.574 282.579 376.513 282.539C376.019 282.186 375.505 281.844 374.991 281.521C374.074 280.947 373.067 280.423 371.837 279.848C371.837 279.848 371.817 279.848 371.807 279.838L371.595 279.758C371.374 279.677 371.162 279.586 370.94 279.516C370.356 279.304 369.751 279.113 369.156 278.952C368.582 278.79 367.998 278.649 367.423 278.538C367.151 278.478 366.869 278.427 366.597 278.387C366.486 278.367 366.375 278.347 366.264 278.337H366.254C365.075 278.216 363.846 278.155 362.475 278.155H233.35C232.272 278.155 231.193 277.682 230.407 276.845C229.672 276.069 229.289 275.102 229.329 274.114C229.43 271.857 231.193 270.093 233.35 270.093H360.197C363.664 270.093 366.798 270.154 369.973 270.849C380.635 273.197 389.423 281.592 392.365 292.234C395.358 303.047 391.992 314.909 383.789 322.437C378.126 327.637 370.648 330.499 362.727 330.499V330.519ZM233.35 322.769C231.355 322.769 229.722 324.402 229.631 326.498C229.591 327.395 229.944 328.292 230.629 328.997C231.355 329.753 232.373 330.206 233.36 330.206H362.737C370.577 330.206 377.984 327.375 383.588 322.225C391.7 314.767 395.036 303.037 392.073 292.325C389.161 281.793 380.464 273.479 369.912 271.151C366.768 270.456 363.654 270.406 360.197 270.406H233.35C231.355 270.406 229.722 272.038 229.631 274.134C229.591 275.031 229.944 275.928 230.629 276.634C231.355 277.389 232.373 277.843 233.36 277.843H362.495C363.694 277.843 364.803 277.883 365.851 277.974C365.911 277.944 366.002 277.954 366.133 277.974C366.395 278.004 366.536 278.024 366.597 278.065H366.667C366.949 278.125 367.232 278.176 367.504 278.236C368.088 278.357 368.683 278.498 369.257 278.659C369.862 278.831 370.467 279.022 371.061 279.224C371.253 279.294 371.444 279.365 371.636 279.435C371.706 279.435 371.797 279.465 371.948 279.526C372.119 279.596 372.22 279.647 372.27 279.697C373.389 280.221 374.316 280.715 375.173 281.249C375.687 281.562 376.191 281.904 376.674 282.257C376.745 282.267 376.836 282.338 376.977 282.459C377.148 282.59 377.239 282.66 377.269 282.731C377.36 282.801 377.45 282.882 377.541 282.952C378.428 283.698 379.264 284.514 380.04 285.381C380.272 285.633 380.494 285.895 380.716 286.157C380.736 286.187 380.796 286.258 380.867 286.349C380.877 286.359 380.897 286.379 380.907 286.389C380.947 286.429 380.988 286.49 381.048 286.56C381.098 286.631 381.149 286.681 381.179 286.731C381.179 286.731 381.179 286.731 381.179 286.742C381.179 286.742 381.209 286.792 381.219 286.812C381.28 286.893 381.34 286.973 381.361 286.993C381.522 287.215 381.673 287.447 381.824 287.669C382.489 288.676 383.094 289.725 383.618 290.813C383.688 290.954 383.749 291.095 383.809 291.236C383.86 291.276 383.91 291.387 383.981 291.579C384.061 291.77 384.112 291.881 384.102 291.952C384.293 292.456 384.474 292.97 384.636 293.483C384.988 294.622 385.271 295.801 385.462 296.98C385.462 296.98 385.462 297.001 385.462 297.011V297.081C385.472 297.142 385.482 297.222 385.502 297.323C385.512 297.424 385.523 297.494 385.533 297.555C385.533 297.595 385.533 297.615 385.543 297.625C385.543 297.625 385.543 297.696 385.543 297.726C385.563 297.928 385.583 298.119 385.593 298.321C385.633 298.895 385.664 299.49 385.664 300.074C385.664 300.689 385.654 301.324 385.613 301.939C385.593 302.231 385.573 302.523 385.543 302.805C385.543 302.846 385.533 302.906 385.523 302.956H385.543C385.543 302.956 385.543 302.967 385.543 302.977V303.007C385.492 303.219 385.452 303.44 385.412 303.652C385.23 304.619 385.049 305.617 384.767 306.595C384.595 307.199 384.394 307.804 384.172 308.388C384.142 308.469 384.112 308.55 384.081 308.63C384.081 308.66 384.081 308.691 384.061 308.741C384.061 308.741 384.061 308.751 384.051 308.771C384.031 308.822 384.001 308.892 383.971 308.973C383.91 309.104 383.85 309.235 383.84 309.265L383.819 309.305C383.316 310.394 382.741 311.462 382.086 312.48C381.794 312.933 381.492 313.377 381.189 313.79H381.199C381.199 313.79 381.199 313.8 381.199 313.81C381.149 313.871 381.098 313.931 381.058 313.992C381.058 314.002 381.038 314.022 381.028 314.032C381.018 314.052 380.998 314.072 380.988 314.092C380.917 314.193 380.857 314.264 380.816 314.304C380.695 314.455 380.564 314.606 380.433 314.757C379.637 315.685 378.76 316.571 377.833 317.378C377.642 317.549 377.44 317.71 377.249 317.881C377.239 317.902 377.208 317.922 377.178 317.952C377.178 317.952 377.168 317.952 377.158 317.972C377.108 318.012 377.037 318.063 376.946 318.133C376.846 318.204 376.745 318.285 376.735 318.295C376.392 318.526 376.039 318.778 375.687 319.01C374.649 319.685 373.55 320.3 372.442 320.824C372.381 320.854 372.301 320.885 372.21 320.925V320.945C372.069 320.995 371.918 321.056 371.777 321.116C371.666 321.157 371.565 321.207 371.454 321.247C370.91 321.449 370.336 321.64 369.761 321.812C368.773 322.104 367.746 322.346 366.617 322.537C366.556 322.578 366.425 322.598 366.163 322.628C365.992 322.648 365.891 322.658 365.831 322.638C365.559 322.668 365.287 322.689 365.015 322.709C364.46 322.749 363.886 322.759 363.261 322.769H233.35Z" fill="black"/>
<path d="M354.615 298.119H267.393V298.825H354.615V298.119Z" fill="black"/>
<path d="M336.797 353.405L330.518 348.004C329.984 347.55 329.198 347.55 328.664 348.004L322.547 353.355C321.63 354.151 320.209 353.506 320.209 352.297V300.064C320.209 299.288 320.844 298.653 321.62 298.653H337.714C338.49 298.653 339.125 299.288 339.125 300.064V352.327C339.125 353.536 337.704 354.181 336.797 353.395V353.405Z" fill="#FBB03B"/>
<path d="M337.703 353.909C337.34 353.909 336.977 353.778 336.685 353.526L330.407 348.125C329.933 347.721 329.228 347.721 328.754 348.125L322.637 353.476C322.173 353.889 321.528 353.98 320.964 353.718C320.4 353.466 320.047 352.911 320.047 352.297V300.064C320.047 299.198 320.752 298.502 321.609 298.502H337.703C338.56 298.502 339.265 299.208 339.265 300.064V352.327C339.265 352.942 338.912 353.486 338.358 353.748C338.146 353.849 337.925 353.889 337.703 353.889V353.909ZM336.887 353.294C337.27 353.617 337.784 353.697 338.237 353.486C338.691 353.274 338.973 352.841 338.973 352.337V300.074C338.973 299.379 338.408 298.815 337.713 298.815H321.619C320.924 298.815 320.359 299.379 320.359 300.074V352.307C320.359 352.811 320.641 353.244 321.095 353.456C321.548 353.667 322.072 353.587 322.445 353.254L328.563 347.903C329.147 347.399 330.024 347.389 330.608 347.903L336.887 353.294Z" fill="black"/>
</svg>
