<svg width="600" height="600" viewBox="0 0 600 600" fill="none" xmlns="http://www.w3.org/2000/svg">
<path d="M403.607 187.501C403.607 187.501 403.503 186.834 403.281 185.709C403.353 186.211 403.421 186.73 403.482 187.257C403.568 187.411 403.611 187.501 403.611 187.501H403.607Z" fill="#2C1B18"/>
<path d="M376.636 166.63C376.561 167.103 376.557 167.568 376.604 168.023C376.647 167.561 376.665 167.095 376.636 166.63Z" fill="#2C1B18"/>
<path d="M324.951 205.176C324.869 205.617 324.822 206.068 324.812 206.53C324.847 206.287 324.912 205.814 324.951 205.176Z" fill="#2C1B18"/>
<path d="M309.733 224.468L310.736 222.741C309.697 222.913 308.63 223.01 307.534 223.01C297.456 223.01 289.285 215.304 289.285 205.8C289.285 197.99 294.802 191.398 302.361 189.296C302.375 189.245 302.386 189.192 302.396 189.141C298.416 190.317 295.73 192.505 294.694 193.419C295.676 188.396 300.881 164.577 322.325 151.952C323.479 151.272 324.647 150.645 325.822 150.061C321.398 145.583 315.995 142.104 309.841 141.151C304.714 140.36 299.448 141.388 294.583 143.179C287.236 145.88 280.031 151.05 278.222 158.666C277.28 162.635 277.914 166.791 277.746 170.868C277.578 174.944 276.284 179.408 272.784 181.504C271.025 182.557 268.933 182.872 267.042 183.657C259.963 186.594 257.219 195.357 257.523 203.016C257.828 210.675 260.282 218.198 259.88 225.85C259.751 228.29 259.318 230.766 258.132 232.901C255.936 236.859 251.594 239.027 248.212 242.039C243.065 246.625 240.073 253.539 240.256 260.431C240.439 267.324 243.788 274.07 249.173 278.379C252.436 280.995 264.785 284.43 260.113 289.961C266.365 291.874 273.558 287.862 278.91 284.989C288.5 279.837 298.409 274.392 305.66 266.45C303.736 264.884 301.787 263.172 299.824 261.295L309.737 224.475L309.733 224.468Z" fill="#2C1B18"/>
<path d="M263.555 290.807C262.351 290.807 261.162 290.653 260.008 290.298L259.489 290.141L259.84 289.725C260.632 288.79 260.929 287.905 260.746 287.02C260.252 284.595 256.197 282.557 252.94 280.923C251.267 280.081 249.827 279.357 248.946 278.655C243.465 274.267 240.08 267.457 239.897 260.439C239.711 253.421 242.73 246.442 247.975 241.771C249.053 240.811 250.239 239.926 251.386 239.073C253.94 237.171 256.351 235.373 257.82 232.729C258.819 230.93 259.374 228.673 259.525 225.833C259.751 221.512 259.045 217.135 258.361 212.904C257.841 209.68 257.3 206.348 257.168 203.031C256.885 195.923 259.267 186.498 266.908 183.327C267.657 183.016 268.441 182.776 269.201 182.543C270.419 182.17 271.565 181.819 272.604 181.196C276.491 178.867 277.272 173.716 277.394 170.853C277.451 169.485 277.415 168.081 277.383 166.723C277.315 164.036 277.247 161.256 277.881 158.587C280.145 149.054 290.237 144.404 294.468 142.846C300.096 140.775 305.287 140.088 309.904 140.8C315.6 141.682 321.046 144.712 326.082 149.81L326.43 150.161L325.986 150.383C324.789 150.978 323.618 151.612 322.514 152.264C303.467 163.477 297.187 183.417 295.259 192.488C296.875 191.201 299.243 189.704 302.306 188.801L302.911 188.622L302.668 189.589L302.467 189.647C294.923 191.746 289.653 198.391 289.653 205.807C289.653 215.1 297.678 222.659 307.543 222.659C308.575 222.659 309.632 222.569 310.685 222.394L311.438 222.268L310.073 224.611L300.228 261.18C302.07 262.936 303.972 264.612 305.888 266.171L306.182 266.411L305.928 266.69C298.408 274.926 287.693 280.679 279.085 285.304L278.658 285.534C274.392 287.826 268.843 290.81 263.566 290.81L263.555 290.807ZM260.721 289.754C266.557 291.219 273.328 287.576 278.311 284.899L278.737 284.67C287.203 280.124 297.71 274.482 305.133 266.482C303.248 264.938 301.378 263.28 299.573 261.549L299.419 261.402L309.424 224.289L310.055 223.207C309.209 223.314 308.367 223.372 307.536 223.372C297.276 223.372 288.929 215.49 288.929 205.803C288.929 201.092 290.961 196.683 294.324 193.458L294.346 193.351C296.03 184.739 302.113 163.438 322.145 151.644C323.131 151.064 324.159 150.502 325.219 149.964C320.39 145.189 315.199 142.345 309.79 141.506C305.294 140.811 300.221 141.488 294.708 143.516C290.584 145.031 280.754 149.556 278.569 158.748C277.956 161.331 278.024 164.061 278.089 166.701C278.125 168.073 278.157 169.488 278.1 170.882C277.974 173.891 277.14 179.311 272.962 181.812C271.848 182.478 270.605 182.862 269.402 183.227C268.66 183.453 267.893 183.689 267.177 183.986C262.613 185.878 257.44 191.993 257.877 202.998C258.006 206.273 258.543 209.583 259.059 212.785C259.751 217.052 260.463 221.466 260.234 225.865C260.08 228.817 259.493 231.174 258.439 233.069C256.899 235.845 254.309 237.776 251.808 239.643C250.673 240.488 249.501 241.362 248.448 242.301C243.361 246.833 240.431 253.603 240.61 260.417C240.789 267.227 244.074 273.837 249.39 278.093C250.211 278.748 251.69 279.494 253.256 280.282C256.827 282.076 260.875 284.111 261.441 286.877C261.635 287.83 261.391 288.794 260.714 289.754H260.721Z" fill="#231F20"/>
<path d="M403.477 187.257C402.825 186.082 399.561 180.887 391.429 178.075C387.327 176.657 385.407 176.087 381.964 174.443C379.342 173.192 376.906 170.792 376.608 168.023C376.239 171.838 373.442 175.381 369.737 176.46C368.1 176.936 366.363 176.968 364.711 177.398C357.951 179.146 354.516 186.666 348.694 190.524C344.449 193.336 339.187 194.031 334.429 195.844C330.102 197.492 325.77 200.766 324.95 205.173C324.911 205.81 324.846 206.283 324.81 206.527C324.817 206.065 324.868 205.613 324.95 205.173C325.068 203.249 324.964 199.795 323.184 196.392C319.927 191.692 314.303 188.586 307.905 188.586C306.107 188.586 304.373 188.833 302.735 189.292C295.177 191.395 289.66 197.986 289.66 205.796C289.66 215.3 297.828 223.006 307.908 223.006C309.001 223.006 310.069 222.909 311.111 222.737L310.108 224.464L300.196 261.284C302.159 263.165 304.104 264.873 306.031 266.439C336.507 291.219 361.566 278.279 361.566 278.279L360.151 273.557C385.224 276.004 395.538 254.836 396.598 247.735C396.838 246.127 396.856 244.49 397.103 242.881L401.22 216.439C403.971 203.987 404.322 194.472 403.487 187.253L403.477 187.257Z" fill="#FCD1C7"/>
<path d="M344.579 282.019C335.315 282.019 321.261 279.296 305.796 266.722C303.811 265.11 301.841 263.369 299.939 261.549L299.785 261.402L309.79 224.288L310.421 223.206C309.575 223.314 308.734 223.371 307.902 223.371C297.642 223.371 289.295 215.49 289.295 205.803C289.295 198.069 294.78 191.137 302.633 188.951C304.345 188.475 306.118 188.231 307.899 188.231C314.197 188.231 320.018 191.208 323.472 196.192L323.493 196.231C324.722 198.577 325.184 200.945 325.302 202.926C326.75 199.846 329.959 197.166 334.294 195.511C335.942 194.884 337.672 194.382 339.345 193.895C342.494 192.982 345.747 192.039 348.488 190.223C350.78 188.704 352.736 186.566 354.628 184.495C357.49 181.364 360.453 178.125 364.612 177.047C365.407 176.843 366.224 176.725 367.016 176.61C367.883 176.485 368.782 176.356 369.627 176.112C373.16 175.084 375.879 171.742 376.241 167.984L376.577 164.48L376.953 167.98C377.258 170.835 379.92 173.071 382.109 174.113C384.996 175.492 386.791 176.105 389.761 177.122C390.309 177.309 390.896 177.509 391.534 177.731C392.992 178.236 400.443 181.059 403.779 187.078L403.814 187.139L403.822 187.21C404.778 195.493 404.011 205.355 401.547 216.515L397.434 242.935C397.309 243.744 397.241 244.579 397.176 245.389C397.112 246.173 397.047 246.987 396.929 247.785C395.768 255.552 385.017 276.036 360.625 273.959L361.975 278.454L361.71 278.591C361.646 278.623 355.255 281.865 345.213 282.005C345.002 282.005 344.787 282.008 344.568 282.008L344.579 282.019ZM300.587 261.176C302.429 262.932 304.331 264.608 306.247 266.167C321.888 278.884 336.039 281.421 345.17 281.299C353.911 281.188 359.83 278.691 361.123 278.093L359.64 273.152L360.17 273.206C384.423 275.574 395.084 255.33 396.227 247.689C396.341 246.915 396.406 246.112 396.47 245.339C396.535 244.518 396.607 243.666 396.736 242.831L400.852 216.389C403.299 205.316 404.062 195.561 403.127 187.372C402.475 186.222 399.229 181.156 391.308 178.416C390.671 178.193 390.083 177.993 389.535 177.807C386.54 176.782 384.731 176.166 381.804 174.769C379.877 173.848 377.602 172.05 376.66 169.696C375.75 173.046 373.117 175.851 369.832 176.807C368.94 177.069 368.015 177.198 367.123 177.327C366.353 177.438 365.554 177.552 364.795 177.746C360.84 178.767 358.081 181.787 355.162 184.982C353.241 187.081 351.253 189.256 348.889 190.821C346.059 192.699 342.749 193.655 339.549 194.583C337.891 195.063 336.175 195.561 334.552 196.181C330.622 197.678 326.13 200.838 325.299 205.219C325.27 205.688 325.223 206.143 325.159 206.58L324.446 206.523C324.453 206.061 324.503 205.595 324.586 205.133C324.715 202.98 324.521 199.756 322.866 196.582C319.545 191.803 313.95 188.948 307.895 188.948C306.179 188.948 304.471 189.181 302.819 189.639C295.274 191.739 290.005 198.384 290.005 205.8C290.005 215.092 298.029 222.651 307.895 222.651C308.927 222.651 309.984 222.562 311.037 222.386L311.789 222.261L310.424 224.604L300.58 261.173L300.587 261.176Z" fill="#231F20"/>
<path d="M403.405 185.516C403 183.489 402.603 180.282 401.342 176.478C400.07 172.634 398.322 168.518 396.025 165.394C382.925 147.6 352.431 137.602 326.34 150.427C325.162 151.007 323.99 151.63 322.83 152.304C301.281 164.842 296.051 188.504 295.066 193.491C296.105 192.584 298.806 190.41 302.808 189.242C305.817 188.583 308.296 188.64 309.897 188.791C316.98 189.457 321.056 193.247 321.647 193.953C322.016 194.397 322.357 194.874 322.357 194.874C322.722 195.393 323.045 195.92 323.324 196.446C325.115 199.828 325.219 203.256 325.101 205.169C325.928 200.792 330.281 197.539 334.626 195.902C339.409 194.1 344.693 193.408 348.96 190.618C354.81 186.788 358.26 179.315 365.052 177.581C366.711 177.159 368.455 177.123 370.103 176.65C373.825 175.579 376.637 172.061 377.006 168.267C376.956 167.816 376.96 167.354 377.039 166.881C377.067 167.343 377.053 167.805 377.006 168.267C377.304 171.015 379.754 173.401 382.387 174.644C385.848 176.277 387.775 176.843 391.899 178.251C400.074 181.046 402.825 186.086 403.48 187.25C403.42 186.727 403.48 186.011 403.409 185.509L403.405 185.516Z" fill="#2C1B18"/>
<path d="M325.449 205.244L324.74 205.155C324.872 203.013 324.682 199.792 323.006 196.625C322.726 196.095 322.407 195.579 322.064 195.092C322.064 195.088 321.73 194.623 321.372 194.196C321.336 194.153 317.442 189.872 309.862 189.159C307.558 188.944 305.212 189.091 302.883 189.604C299.405 190.621 296.84 192.434 295.303 193.774L294.511 194.461L294.715 193.433C296.41 184.878 302.518 163.717 322.651 152.006C323.78 151.351 324.969 150.713 326.187 150.115C352.958 136.953 383.434 147.693 396.32 165.19C398.326 167.916 400.135 171.677 401.686 176.37C402.675 179.351 403.141 182.002 403.481 183.936C403.578 184.495 403.667 185 403.757 185.452V185.47C403.803 185.756 403.804 186.096 403.804 186.422C403.804 186.702 403.803 186.988 403.832 187.218L404.04 188.998L403.141 187.397C400.325 182.374 395.41 179.842 391.777 178.598C391.136 178.38 390.545 178.179 389.993 177.993C386.984 176.976 385.168 176.363 382.23 174.977C380.292 174.063 378.003 172.272 377.057 169.933C376.144 173.261 373.496 176.055 370.197 177.004C369.301 177.262 368.373 177.395 367.474 177.52C366.697 177.631 365.898 177.742 365.135 177.939C361.162 178.953 358.389 181.952 355.452 185.129C353.521 187.218 351.525 189.374 349.147 190.933C346.302 192.796 342.978 193.749 339.764 194.669C338.098 195.146 336.372 195.64 334.742 196.256C328.709 198.527 325.983 202.393 325.442 205.255L325.449 205.244ZM307.809 188.343C308.518 188.343 309.224 188.375 309.926 188.443C316.629 189.073 320.935 192.563 321.917 193.734C322.293 194.182 322.63 194.658 322.64 194.676C323.002 195.189 323.335 195.73 323.629 196.288C324.865 198.621 325.331 200.978 325.449 202.948C326.903 199.885 330.128 197.216 334.487 195.576C336.146 194.952 337.884 194.454 339.564 193.971C342.727 193.064 345.998 192.126 348.753 190.324C351.056 188.816 353.023 186.691 354.921 184.635C357.798 181.522 360.775 178.305 364.952 177.237C365.751 177.033 366.571 176.918 367.367 176.804C368.241 176.682 369.144 176.553 369.993 176.309C373.532 175.292 376.258 171.989 376.634 168.274C376.584 167.769 376.595 167.296 376.674 166.83L377.183 163.728L377.383 166.866C377.412 167.307 377.401 167.769 377.355 168.27C377.681 171.09 380.342 173.293 382.528 174.325C385.429 175.693 387.231 176.302 390.215 177.312C390.767 177.499 391.358 177.699 391.999 177.918C395.467 179.104 400.081 181.439 403.069 185.921C403.066 185.799 403.055 185.681 403.04 185.581C402.951 185.129 402.861 184.621 402.761 184.058C402.424 182.145 401.962 179.526 400.991 176.592C399.462 171.971 397.688 168.278 395.725 165.609C383.011 148.341 352.926 137.752 326.488 150.752C325.284 151.343 324.113 151.97 322.999 152.619C303.861 163.753 297.549 183.564 295.611 192.57C297.234 191.291 299.616 189.804 302.693 188.905C304.402 188.529 306.108 188.343 307.798 188.343H307.809Z" fill="#231F20"/>
<path d="M296.636 254.306C296.636 254.306 341.957 287.095 360.141 273.565C360.141 273.565 393.21 285.225 398.935 295.532C404.66 305.839 424.126 350.501 424.126 350.501L381.374 369.204L356.945 444.783H210.84C190.929 444.783 177.366 424.606 184.886 406.168L222.644 313.562C231.937 290.771 251.741 273.923 275.729 268.399L290.527 264.992L296.636 254.306Z" fill="#F3EDE3"/>
<path d="M357.206 445.137H210.843C201.375 445.137 192.566 440.444 187.282 432.585C181.997 424.725 180.98 414.798 184.555 406.028L222.314 313.423C231.639 290.553 251.579 273.586 275.649 268.048L290.294 264.677L296.52 253.779L296.842 254.012C296.957 254.095 308.31 262.27 321.729 268.686C344.048 279.358 354.82 277.072 359.925 273.271L360.079 273.157L360.258 273.221C360.341 273.25 368.645 276.191 377.54 280.354C389.53 285.964 396.835 291.011 399.246 295.353C404.913 305.556 424.258 349.906 424.455 350.35L424.598 350.68L381.667 369.463L357.206 445.137ZM296.749 254.825L290.76 265.307L275.807 268.75C251.962 274.238 232.212 291.044 222.977 313.699L185.218 406.304C181.732 414.852 182.725 424.528 187.876 432.191C193.028 439.853 201.611 444.425 210.843 444.425H356.687L381.086 368.94L423.66 350.315C421.872 346.22 404.017 305.416 398.626 295.708C393.245 286.025 362.823 274.908 360.201 273.966C352.524 279.53 339.477 277.971 321.418 269.334C309.209 263.495 298.709 256.212 296.753 254.829L296.749 254.825Z" fill="#231F20"/>
<path d="M267.98 393.289L267.267 393.206C269.606 372.568 269.091 353.735 265.737 337.235C262.793 322.737 258.487 314.39 256.774 311.477C255.9 309.991 255.33 309.281 255.205 309.185L255.606 308.59C255.911 308.79 256.609 309.783 257.39 311.112C259.121 314.057 263.47 322.49 266.44 337.092C269.807 353.667 270.326 372.575 267.976 393.289H267.98Z" fill="#231F20"/>
<path d="M276.426 444.424C275.233 426.731 282.631 416.155 289.047 410.398C294.575 405.44 300.349 403.108 302.517 402.352C272.679 388.933 240.906 394.686 240.588 394.743L240.455 394.038C240.781 393.977 273.363 388.069 303.656 402.08L304.541 402.488L303.599 402.75C303.527 402.771 296.326 404.813 289.502 410.947C283.215 416.596 275.971 426.978 277.143 444.37L276.426 444.417V444.424Z" fill="#231F20"/>
<path d="M383.631 344.866L382.94 344.676C385.322 336.035 378.659 323.482 375.811 318.123C374.836 316.289 374.528 315.69 374.528 315.382H375.245H374.887L375.245 315.368C375.277 315.59 375.843 316.658 376.445 317.79C379.332 323.224 386.089 335.956 383.631 344.873V344.866Z" fill="#231F20"/>
<path d="M303.505 402.409C303.505 402.409 330.606 402.793 337.477 426.838L338.624 445.162C333.024 445.094 328.403 445.004 323.782 444.918C316.28 444.775 310.24 447.025 308.94 444.675C308.399 443.697 309.341 443.235 309.216 440.852C308.979 436.342 305.304 432.391 305.049 432.527C305.035 432.534 305.031 432.559 305.031 432.566C304.978 433.021 301.216 440.942 292.35 444.277C285.059 447.018 278.633 445.04 276.784 444.399C276.426 441.196 275.548 429.797 282.892 418.441C290.039 407.393 300.396 403.459 303.505 402.409Z" fill="#FCD1C7"/>
<path d="M311.881 446.108C310.291 446.108 309.155 445.807 308.625 444.847C308.281 444.227 308.417 443.74 308.578 443.181C308.729 442.651 308.915 441.995 308.858 440.87C308.664 437.17 306.103 433.931 305.218 433.072C304.38 434.956 300.428 441.619 292.475 444.611C285.723 447.15 279.672 445.778 276.666 444.736L276.451 444.661L276.426 444.435C275.835 439.129 275.846 428.669 282.588 418.244C289.173 408.063 298.447 403.739 303.388 402.066L303.445 402.044H303.506C303.574 402.044 310.438 402.177 318.047 405.268C325.086 408.127 334.232 414.174 337.818 426.734L337.832 426.81L339 445.517H338.613C333.01 445.442 328.314 445.356 323.768 445.27C320.898 445.212 318.28 445.51 315.973 445.768C314.407 445.943 313.024 446.101 311.878 446.101L311.881 446.108ZM305.064 432.165C305.136 432.165 305.218 432.183 305.315 432.237C306.092 432.67 309.345 436.493 309.574 440.831C309.639 442.074 309.427 442.827 309.27 443.375C309.123 443.898 309.055 444.134 309.256 444.496C309.94 445.728 312.44 445.449 315.901 445.058C318.229 444.797 320.87 444.499 323.793 444.553C328.232 444.636 332.817 444.725 338.244 444.793L337.127 426.896C333.612 414.647 324.681 408.74 317.807 405.942C310.696 403.047 304.251 402.782 303.563 402.764C298.695 404.419 289.638 408.672 283.197 418.631C276.67 428.723 276.566 438.85 277.121 444.127C280.102 445.126 285.841 446.337 292.228 443.933C301.274 440.534 304.666 432.57 304.684 432.498C304.695 432.384 304.77 432.269 304.885 432.208C304.932 432.183 304.996 432.162 305.071 432.162L305.064 432.165ZM305.387 432.606C305.387 432.606 305.383 432.631 305.379 432.645C305.383 432.631 305.387 432.617 305.387 432.606Z" fill="#231F20"/>
<path d="M331.015 439.484C330.044 432.301 327.042 427.78 324.692 425.251C322.144 422.51 319.798 421.453 319.773 421.443L320.063 420.787C320.16 420.83 329.811 425.229 331.724 439.391L331.015 439.487V439.484Z" fill="#231F20"/>
<path d="M320.272 442.178L319.57 442.038C321.411 432.839 311.807 426.44 311.71 426.376L312.1 425.778C312.201 425.842 322.206 432.513 320.272 442.181V442.178Z" fill="#231F20"/>
<path d="M292.461 444.617L292.235 443.937C293.492 443.518 303.211 438.735 304.684 432.484L304.816 431.928L305.261 432.29C305.325 432.34 311.533 437.488 309.19 444.513L308.51 444.288C310.344 438.789 306.529 434.49 305.225 433.225C304.2 436.489 301.184 439.237 298.762 441.003C295.85 443.127 293.009 444.438 292.464 444.617H292.461Z" fill="#231F20"/>
<path d="M359.75 273.299C359.75 273.299 347.831 273.858 335.708 264.458C323.586 255.061 321.135 249.885 321.135 249.885C321.135 249.885 330.123 274.539 354.914 275.764C355.569 275.682 356.58 275.47 357.679 274.883C358.647 274.367 359.324 273.751 359.75 273.299Z" fill="#231F20"/>
<path d="M301.403 257.594L302.503 253.686C302.503 253.686 297.853 252.969 296.635 254.306" fill="#231F20"/>
<path d="M303.384 200.982L302.954 201.555L314.788 210.431L315.217 209.857L303.384 200.982Z" fill="#231F20"/>
<path d="M294.699 193.418C296.29 186.565 300.277 173.876 311.024 162.259C316.294 156.563 321.757 152.672 326.188 150.061C323.398 150.225 319.256 150.795 314.675 152.722C311.368 154.112 302.917 158.275 297.637 167.933C291.274 179.569 294.029 190.918 294.695 193.415L294.699 193.418Z" fill="#BC84B2"/>
<path d="M294.726 194.894L294.354 193.512C293.254 189.413 291.344 178.702 297.323 167.765C302.346 158.576 310.263 154.191 314.537 152.393C318.209 150.849 322.124 149.942 326.169 149.702L327.652 149.613L326.373 150.369C320.742 153.686 315.669 157.766 311.288 162.499C303.388 171.036 297.771 181.754 295.048 193.497L294.726 194.894ZM324.704 150.541C321.275 150.892 317.954 151.734 314.813 153.055C310.625 154.818 302.869 159.113 297.95 168.109C292.695 177.724 293.666 187.164 294.697 191.9C297.567 180.601 303.102 170.294 310.761 162.015C314.848 157.598 319.531 153.743 324.704 150.541Z" fill="white"/>
<path d="M348.62 290.775C337.737 290.775 324.514 285.458 314.749 280.626C302.586 274.611 293.014 268.033 292.917 267.965L293.326 267.374C293.706 267.636 331.482 293.483 353.281 289.678L353.403 290.384C351.877 290.649 350.275 290.775 348.62 290.775Z" fill="#231F20"/>
<path d="M357.277 288.124L356.937 287.493C359.455 286.135 366.112 282.198 366.66 280.289L367.348 280.486C366.62 283.033 358.23 287.611 357.277 288.124Z" fill="#231F20"/>
<path d="M267.624 393.249L275.993 394.388C276.853 385.372 277.043 373.944 275.054 360.968C271.655 338.75 263.379 321.816 257.085 311.294C261.316 320.702 266.317 334.541 268.495 351.908C270.623 368.867 269.315 383.204 267.624 393.246V393.249Z" fill="#231F20"/>
<path d="M276.311 394.793L267.208 393.553L267.269 393.188C269.569 379.546 269.863 365.671 268.14 351.954C266.381 337.951 262.551 324.32 256.758 311.441L257.392 311.111C266.66 326.598 272.722 343.353 275.408 360.914C277.096 371.951 277.414 383.225 276.347 394.42L276.311 394.793ZM268.036 392.944L275.666 393.983C276.684 382.967 276.358 371.883 274.695 361.021C272.327 345.553 267.326 330.707 259.811 316.815C264.299 328.063 267.334 339.828 268.845 351.865C270.561 365.532 270.289 379.349 268.032 392.944H268.036Z" fill="#231F20"/>
<path d="M347.08 211.898C347.152 211.802 354.324 202.126 374.848 207.327L375.095 206.356C353.855 200.972 346.564 210.895 346.263 211.318L347.08 211.895V211.898Z" fill="#231F20"/>
<path d="M407.132 212.898L407.741 212.103C405.223 210.175 401.049 207.729 395.482 207.03C392.48 206.654 389.446 206.826 386.469 207.546L386.702 208.517C389.564 207.825 392.477 207.661 395.357 208.022C400.702 208.692 404.71 211.042 407.132 212.898Z" fill="#231F20"/>
<path d="M360.672 224.415C358.533 224.415 356.799 222.082 356.799 219.203C356.799 216.324 358.533 213.99 360.672 213.99C362.811 213.99 364.544 216.324 364.544 219.203C364.544 222.082 362.811 224.415 360.672 224.415Z" fill="#231F20"/>
<path d="M391.649 227.245C389.51 227.245 387.776 224.912 387.776 222.033C387.776 219.154 389.51 216.821 391.649 216.821C393.788 216.821 395.521 219.154 395.521 222.033C395.521 224.912 393.788 227.245 391.649 227.245Z" fill="#231F20"/>
<path d="M374.475 243.431C376.75 243.431 378.519 242.413 379.77 240.375C382.173 236.456 381.983 229.61 381.403 224.555C380.826 219.558 379.558 214.123 378.845 213.589L378.243 214.388C378.211 214.363 378.197 214.345 378.197 214.345C379.006 215.413 383.474 234.428 378.387 240.601C376.499 242.89 373.421 243.005 369.234 240.945L368.793 241.844C370.942 242.901 372.841 243.431 374.478 243.431H374.475Z" fill="#231F20"/>
<path d="M365.365 257.083L365.508 256.091C355.503 254.662 350.767 241.074 350.72 240.938L349.774 241.26C349.825 241.407 351.017 244.867 353.518 248.564C356.864 253.508 360.959 256.453 365.365 257.083Z" fill="#231F20"/>
<path d="M230.461 458.592H113.47C119.087 455.175 122.193 448.945 121.365 442.801C120.377 435.468 114.254 431.771 113.47 431.316H230.461C237.991 431.316 244.099 437.42 244.099 444.954C244.099 452.488 237.994 458.592 230.461 458.592Z" fill="#FEDEBD"/>
<path d="M230.461 458.95H112.191L113.283 458.288C118.79 454.938 121.824 448.88 121.011 442.851C120.072 435.894 114.415 432.283 113.291 431.627L112.141 430.961H230.464C238.181 430.961 244.461 437.237 244.461 444.958C244.461 452.678 238.181 458.954 230.464 458.954L230.461 458.95ZM114.666 458.234H230.457C237.779 458.234 243.737 452.276 243.737 444.954C243.737 437.632 237.779 431.674 230.457 431.674H114.681C116.783 433.153 120.91 436.768 121.716 442.751C122.515 448.68 119.771 454.634 114.666 458.23V458.234Z" fill="#231F20"/>
<path d="M134.735 431.47H251.726C246.109 428.052 243.003 421.822 243.83 415.679C244.819 408.345 250.941 404.648 251.726 404.193H134.735C127.205 404.193 121.097 410.298 121.097 417.832C121.097 425.365 127.201 431.47 134.735 431.47Z" fill="#FDB956"/>
<path d="M253.005 431.828H134.735C127.018 431.828 120.738 425.548 120.738 417.832C120.738 410.115 127.018 403.835 134.735 403.835H253.058L251.908 404.501C250.783 405.153 245.127 408.765 244.188 415.725C243.375 421.754 246.406 427.812 251.915 431.162L253.008 431.824L253.005 431.828ZM134.735 404.552C127.412 404.552 121.455 410.509 121.455 417.832C121.455 425.154 127.412 431.112 134.735 431.112H250.526C245.421 427.515 242.676 421.561 243.475 415.632C244.281 409.649 248.408 406.035 250.511 404.555H134.731L134.735 404.552Z" fill="#231F20"/>
<path d="M247.624 428.328H136.458C130.866 428.328 126.205 423.904 126.066 418.466C126.058 418.251 126.062 418.039 126.066 417.821C126.08 417.394 126.116 416.968 126.177 416.549C126.882 411.595 131.296 407.854 136.44 407.854H246.933V408.571H136.44C131.651 408.571 127.542 412.042 126.882 416.649C126.825 417.043 126.793 417.441 126.779 417.842C126.771 418.043 126.771 418.243 126.779 418.444C126.908 423.499 131.249 427.608 136.455 427.608H247.621V428.324L247.624 428.328Z" fill="#231F20"/>
<path d="M244.747 410.993H129.358V411.709H244.747V410.993Z" fill="#231F20"/>
<path d="M243.465 418.516H126.223V419.232H243.465V418.516Z" fill="#231F20"/>
<path d="M245.059 421.966H127.817V422.682H245.059V421.966Z" fill="#231F20"/>
<path d="M245.829 424.581H129.483V425.297H245.829V424.581Z" fill="#231F20"/>
<path d="M243.83 414.754H126.85V415.471H243.83V414.754Z" fill="#231F20"/>
<path d="M228.687 455.608H117.521V454.892H228.687C233.893 454.892 238.234 450.779 238.363 445.728C238.367 445.527 238.367 445.327 238.363 445.126C238.353 444.728 238.317 444.327 238.26 443.933C237.6 439.326 233.495 435.855 228.702 435.855H118.213V435.138H228.702C233.846 435.138 238.26 438.875 238.965 443.833C239.026 444.252 239.062 444.678 239.076 445.104C239.083 445.319 239.083 445.534 239.076 445.749C238.937 451.187 234.276 455.612 228.684 455.612L228.687 455.608Z" fill="#231F20"/>
<path d="M235.787 438.273H120.398V438.989H235.787V438.273Z" fill="#231F20"/>
<path d="M238.922 445.799H121.681V446.516H238.922V445.799Z" fill="#231F20"/>
<path d="M237.331 449.249H120.09V449.966H237.331V449.249Z" fill="#231F20"/>
<path d="M235.666 451.861H119.32V452.577H235.666V451.861Z" fill="#231F20"/>
<path d="M238.295 442.038H121.315V442.754H238.295V442.038Z" fill="#231F20"/>
<path d="M259.171 443.975H339.303V455.235H247.912C247.912 449.023 252.956 443.975 259.171 443.975Z" fill="#454E68"/>
<path d="M339.664 455.593H247.557V455.235C247.557 448.83 252.769 443.617 259.174 443.617H339.664V455.593ZM248.277 454.877H338.944V444.334H259.171C253.281 444.334 248.467 449.03 248.277 454.877Z" fill="#231F20"/>
<path d="M447.455 455.575H317.213L347.04 351.184C348.86 344.818 354.678 340.429 361.298 340.429H476.498C483.233 340.429 488.094 346.874 486.245 353.351L459.671 446.368C458.113 451.821 453.13 455.579 447.459 455.579L447.455 455.575Z" fill="#7D8FC7"/>
<path d="M447.455 455.934H316.736L346.692 351.084C348.545 344.599 354.552 340.068 361.298 340.068H476.498C479.822 340.068 482.874 341.59 484.877 344.241C486.879 346.896 487.503 350.249 486.589 353.444L460.015 446.462C458.421 452.04 453.259 455.934 447.459 455.934H447.455ZM317.689 455.217H447.455C452.936 455.217 457.819 451.534 459.324 446.265L485.898 353.247C486.75 350.27 486.167 347.146 484.304 344.675C482.441 342.203 479.593 340.784 476.498 340.784H361.298C354.871 340.784 349.15 345.101 347.384 351.281L317.689 455.217Z" fill="#231F20"/>
<path d="M407.186 404.633C413.753 404.633 419.133 399.758 419.133 393.678C419.133 387.598 413.753 382.723 407.186 382.723C400.618 382.723 395.238 387.598 395.238 393.678C395.238 399.758 400.618 404.633 407.186 404.633Z" fill="#F3EDE3" stroke="#231F20" stroke-width="0.716483"/>
</svg>
