<svg width="600" height="600" viewBox="0 0 600 600" fill="none" xmlns="http://www.w3.org/2000/svg">
<path d="M356.39 358.84L315.241 288.676C310.803 281.096 308.456 272.502 308.456 263.754V210.676C308.456 206.482 305.005 203.082 300.747 203.082H271.027C266.768 203.082 263.318 206.482 263.318 210.676V263.138C263.318 271.886 260.983 280.48 256.533 288.061L215.025 358.827C205.058 375.835 217.513 397.089 237.459 397.089H333.956C353.902 397.089 366.369 375.835 356.39 358.827V358.84Z" fill="#E6F7FF"/>
<path d="M333.956 397.295H237.459C227.916 397.295 219.411 392.408 214.717 384.211C210.138 376.22 210.189 366.69 214.845 358.75L256.353 287.984C260.778 280.441 263.113 271.86 263.113 263.164V210.702C263.113 206.405 266.653 202.916 271.014 202.916H300.734C305.095 202.916 308.635 206.405 308.635 210.702V263.779C308.635 272.489 310.97 281.07 315.395 288.599L356.544 358.763C361.213 366.715 361.264 376.233 356.672 384.224C351.978 392.408 343.486 397.307 333.93 397.307L333.956 397.295ZM271.014 203.288C266.871 203.288 263.498 206.61 263.498 210.689V263.151C263.498 271.924 261.137 280.57 256.686 288.176L215.179 358.942C210.587 366.779 210.535 376.156 215.05 384.019C219.668 392.087 228.044 396.91 237.459 396.91H333.956C343.358 396.91 351.734 392.1 356.364 384.019C360.879 376.143 360.828 366.767 356.236 358.942L315.087 288.779C310.636 281.185 308.276 272.527 308.276 263.754V210.676C308.276 206.597 304.903 203.275 300.76 203.275H271.04L271.014 203.288Z" fill="black"/>
<path d="M215.05 359.211C204.994 376.156 217.5 396.294 237.433 396.294H333.93C353.876 396.294 364.83 375.194 354.851 358.185C354.851 358.185 328.684 374.732 299.439 352.157C277.646 335.328 237.433 321.475 215.038 359.211H215.05Z" fill="#0071BC"/>
<path d="M333.942 396.474H237.446C227.659 396.474 219.065 391.651 214.46 383.557C210.137 375.976 210.304 366.831 214.896 359.096C222.643 346.051 233.059 338.201 245.847 335.751C265.165 332.07 286.265 341.716 299.579 351.99C314.625 363.611 328.825 364.624 338.098 363.432C348.142 362.136 354.709 358.044 354.773 358.006L354.94 357.903L355.043 358.07C359.93 366.407 360.097 376.207 355.492 384.262C351.118 391.907 343.062 396.474 333.955 396.474H333.942ZM215.217 359.301C210.702 366.908 210.535 375.912 214.781 383.377C219.321 391.343 227.787 396.102 237.433 396.102H333.93C342.896 396.102 350.823 391.612 355.133 384.083C359.648 376.207 359.519 366.638 354.786 358.442C353.683 359.096 347.359 362.623 338.137 363.816C328.799 365.022 314.484 363.996 299.323 352.298C286.085 342.075 265.1 332.467 245.899 336.136C233.213 338.56 222.887 346.359 215.204 359.301H215.217Z" fill="black"/>
<path d="M305.607 200.543H266.87C261.345 200.543 256.865 205.022 256.865 210.548C256.865 216.073 261.345 220.553 266.87 220.553H305.607C311.133 220.553 315.612 216.073 315.612 210.548C315.612 205.022 311.133 200.543 305.607 200.543Z" fill="#5EA8D1"/>
<path d="M305.609 220.745H266.872C261.254 220.745 256.675 216.166 256.675 210.548C256.675 204.929 261.254 200.35 266.872 200.35H305.609C311.228 200.35 315.807 204.929 315.807 210.548C315.807 216.166 311.228 220.745 305.609 220.745ZM266.872 200.735C261.459 200.735 257.06 205.135 257.06 210.548C257.06 215.961 261.459 220.36 266.872 220.36H305.609C311.022 220.36 315.422 215.961 315.422 210.548C315.422 205.135 311.022 200.735 305.609 200.735H266.872Z" fill="black"/>
<path d="M356.223 359.802C366.357 376.874 353.761 397.153 333.674 397.153H236.471C216.384 397.153 205.353 375.899 215.397 358.775C215.397 358.775 241.756 375.438 271.207 352.708C293.166 335.764 333.661 321.808 356.223 359.814V359.802Z" fill="#29ABE2"/>
<path d="M333.674 397.346H236.472C227.301 397.346 219.194 392.754 214.782 385.045C210.138 376.925 210.305 367.074 215.231 358.673L215.333 358.506L215.5 358.609C215.564 358.647 222.183 362.777 232.303 364.073C241.628 365.279 255.943 364.24 271.092 352.541C284.496 342.203 305.75 332.467 325.208 336.187C338.1 338.65 348.592 346.564 356.391 359.699C361.008 367.485 361.175 376.695 356.827 384.327C352.183 392.472 343.538 397.333 333.674 397.333V397.346ZM215.461 359.032C210.703 367.28 210.574 376.913 215.115 384.852C219.451 392.433 227.442 396.948 236.472 396.948H333.674C343.397 396.948 351.927 392.164 356.493 384.134C360.778 376.618 360.611 367.549 356.057 359.891C348.31 346.846 337.907 338.996 325.132 336.559C305.801 332.865 284.663 342.549 271.323 352.836C256.059 364.624 241.641 365.651 232.226 364.432C222.927 363.239 216.565 359.673 215.461 359.019V359.032Z" fill="black"/>
<path d="M276.684 232.982H263.793V233.88H276.684V232.982Z" fill="black"/>
<path d="M276.684 244.911H263.793V245.809H276.684V244.911Z" fill="black"/>
<path d="M276.684 256.84H263.793V257.738H276.684V256.84Z" fill="black"/>
<path d="M279.25 308.019C283.713 308.019 287.331 304.401 287.331 299.938C287.331 295.475 283.713 291.857 279.25 291.857C274.787 291.857 271.169 295.475 271.169 299.938C271.169 304.401 274.787 308.019 279.25 308.019Z" fill="#5EA8D1"/>
<path d="M279.248 308.212C274.682 308.212 270.975 304.505 270.975 299.938C270.975 295.372 274.682 291.665 279.248 291.665C283.814 291.665 287.521 295.372 287.521 299.938C287.521 304.505 283.814 308.212 279.248 308.212ZM279.248 292.05C274.9 292.05 271.359 295.59 271.359 299.938C271.359 304.287 274.9 307.827 279.248 307.827C283.596 307.827 287.137 304.287 287.137 299.938C287.137 295.59 283.596 292.05 279.248 292.05Z" fill="black"/>
<path d="M318.5 378.439C325.584 378.439 331.327 372.696 331.327 365.612C331.327 358.528 325.584 352.785 318.5 352.785C311.416 352.785 305.673 358.528 305.673 365.612C305.673 372.696 311.416 378.439 318.5 378.439Z" fill="#5EA8D1"/>
<path d="M318.5 378.632C311.317 378.632 305.48 372.795 305.48 365.612C305.48 358.429 311.317 352.593 318.5 352.593C325.683 352.593 331.519 358.429 331.519 365.612C331.519 372.795 325.683 378.632 318.5 378.632ZM318.5 352.978C311.535 352.978 305.865 358.647 305.865 365.612C305.865 372.577 311.535 378.247 318.5 378.247C325.465 378.247 331.134 372.577 331.134 365.612C331.134 358.647 325.465 352.978 318.5 352.978Z" fill="black"/>
<path d="M258.789 383.826C262.438 383.826 265.395 380.869 265.395 377.22C265.395 373.572 262.438 370.615 258.789 370.615C255.141 370.615 252.184 373.572 252.184 377.22C252.184 380.869 255.141 383.826 258.789 383.826Z" fill="#5EA8D1"/>
<path d="M258.789 384.019C255.044 384.019 251.991 380.966 251.991 377.22C251.991 373.475 255.044 370.422 258.789 370.422C262.535 370.422 265.588 373.475 265.588 377.22C265.588 380.966 262.535 384.019 258.789 384.019ZM258.789 370.807C255.249 370.807 252.376 373.68 252.376 377.22C252.376 380.761 255.249 383.634 258.789 383.634C262.33 383.634 265.203 380.761 265.203 377.22C265.203 373.68 262.33 370.807 258.789 370.807Z" fill="black"/>
<path d="M281.815 363.432C283.09 363.432 284.124 362.398 284.124 361.123C284.124 359.848 283.09 358.814 281.815 358.814C280.54 358.814 279.506 359.848 279.506 361.123C279.506 362.398 280.54 363.432 281.815 363.432Z" fill="black"/>
<path d="M300.669 384.724C301.944 384.724 302.978 383.691 302.978 382.415C302.978 381.14 301.944 380.107 300.669 380.107C299.394 380.107 298.36 381.14 298.36 382.415C298.36 383.691 299.394 384.724 300.669 384.724Z" fill="black"/>
<path d="M339.125 249.721H380.145V376.374C380.145 387.7 370.961 396.884 359.635 396.884C348.309 396.884 339.125 387.7 339.125 376.374V249.721Z" fill="#E6F7FF"/>
<path d="M359.635 397.077C348.219 397.077 338.933 387.79 338.933 376.374V249.516H380.338V376.374C380.338 387.79 371.051 397.077 359.635 397.077ZM339.317 249.913V376.374C339.317 387.572 348.437 396.692 359.635 396.692C370.833 396.692 379.953 387.572 379.953 376.374V249.913H339.317Z" fill="black"/>
<path d="M359.635 397.808C348.309 397.808 339.125 388.624 339.125 377.297V311.2C341.524 309.443 345.359 307.237 349.977 307.429C356.313 307.699 358.878 312.239 365.625 313.599C368.755 314.228 373.565 314.33 380.133 311.2V377.297C380.133 388.624 370.949 397.808 359.622 397.808H359.635Z" fill="#C1272D"/>
<path d="M359.635 398C348.219 398 338.933 388.713 338.933 377.297V311.098L339.01 311.046C342.665 308.366 346.347 307.07 349.989 307.237C353.427 307.378 355.749 308.763 358.224 310.213C360.354 311.47 362.56 312.778 365.677 313.407C370.051 314.292 374.899 313.484 380.069 311.021L380.338 310.892V377.297C380.338 388.713 371.051 398 359.635 398ZM339.317 311.29V377.297C339.317 388.495 348.437 397.615 359.635 397.615C370.833 397.615 379.953 388.495 379.953 377.297V311.495C374.809 313.894 369.987 314.664 365.6 313.779C362.419 313.137 360.187 311.816 358.032 310.533C355.608 309.097 353.312 307.75 349.977 307.609C346.475 307.468 342.883 308.699 339.317 311.29Z" fill="black"/>
<path d="M356.197 334.853C359.449 334.853 362.085 332.217 362.085 328.966C362.085 325.714 359.449 323.078 356.197 323.078C352.946 323.078 350.31 325.714 350.31 328.966C350.31 332.217 352.946 334.853 356.197 334.853Z" fill="#5EA8D1"/>
<path d="M356.197 335.033C352.849 335.033 350.117 332.313 350.117 328.953C350.117 325.592 352.849 322.873 356.197 322.873C359.545 322.873 362.277 325.605 362.277 328.953C362.277 332.301 359.558 335.033 356.197 335.033ZM356.197 323.271C353.055 323.271 350.502 325.823 350.502 328.966C350.502 332.108 353.055 334.661 356.197 334.661C359.34 334.661 361.892 332.108 361.892 328.966C361.892 325.823 359.34 323.271 356.197 323.271Z" fill="black"/>
<path d="M356.377 365.009C357.737 365.009 358.84 363.907 358.84 362.547C358.84 361.186 357.737 360.084 356.377 360.084C355.017 360.084 353.914 361.186 353.914 362.547C353.914 363.907 355.017 365.009 356.377 365.009Z" fill="black"/>
<path d="M368.152 345.474C369.512 345.474 370.615 344.371 370.615 343.011C370.615 341.651 369.512 340.548 368.152 340.548C366.792 340.548 365.689 341.651 365.689 343.011C365.689 344.371 366.792 345.474 368.152 345.474Z" fill="black"/>
<path d="M350.721 258.815H339.241V259.713H350.721V258.815Z" fill="black"/>
<path d="M350.721 269.449H339.241V270.347H350.721V269.449Z" fill="black"/>
<path d="M350.721 280.069H339.241V280.967H350.721V280.069Z" fill="black"/>
<path d="M378.465 233.739H342.961C338.037 233.739 334.046 237.73 334.046 242.653C334.046 247.577 338.037 251.568 342.961 251.568H378.465C383.389 251.568 387.38 247.577 387.38 242.653C387.38 237.73 383.389 233.739 378.465 233.739Z" fill="#5EA8D1"/>
<path d="M378.466 251.76H342.948C337.933 251.76 333.841 247.681 333.841 242.653C333.841 237.625 337.92 233.546 342.948 233.546H378.466C383.481 233.546 387.573 237.625 387.573 242.653C387.573 247.681 383.494 251.76 378.466 251.76ZM342.948 233.931C338.138 233.931 334.226 237.843 334.226 242.653C334.226 247.463 338.138 251.376 342.948 251.376H378.466C383.276 251.376 387.188 247.463 387.188 242.653C387.188 237.843 383.276 233.931 378.466 233.931H342.948Z" fill="black"/>
</svg>
