<svg width="600" height="600" viewBox="0 0 600 600" fill="none" xmlns="http://www.w3.org/2000/svg">
<path d="M385.844 272.381V240.139C385.844 229.007 376.815 219.978 365.683 219.978H190.571C179.439 219.978 170.41 229.007 170.41 240.139V331.236C170.41 342.368 179.439 351.397 190.571 351.397H411.334C422.466 351.397 431.496 342.368 431.496 331.236V296.706C431.496 287.873 425.26 280.256 416.591 278.524L385.834 272.37L385.844 272.381Z" fill="#F9D447"/>
<path d="M411.345 351.552H190.572C179.368 351.552 170.256 342.44 170.256 331.236V240.139C170.256 228.935 179.368 219.824 190.572 219.824H365.673C376.877 219.824 385.989 228.935 385.989 240.139V272.257L416.622 278.38C425.332 280.122 431.65 287.832 431.65 296.716V331.246C431.65 342.45 422.539 351.562 411.335 351.562L411.345 351.552ZM190.572 220.133C179.543 220.133 170.565 229.11 170.565 240.139V331.236C170.565 342.265 179.543 351.242 190.572 351.242H411.335C422.364 351.242 431.341 342.265 431.341 331.236V296.706C431.341 287.976 425.126 280.39 416.561 278.679L385.68 272.504V240.129C385.68 229.1 376.702 220.122 365.673 220.122H190.572V220.133Z" fill="#221F20"/>
<path d="M208.662 251.931H170.73V294.706H208.662V251.931Z" fill="#53A6DB"/>
<path d="M208.764 294.81H170.627V251.828H208.764V294.81ZM170.833 294.603H208.558V252.034H170.833V294.603Z" fill="#221F20"/>
<path d="M245.871 251.931H207.939V294.706H245.871V251.931Z" fill="#53A6DB"/>
<path d="M245.972 294.81H207.835V251.828H245.972V294.81ZM208.041 294.603H245.766V252.034H208.041V294.603Z" fill="#221F20"/>
<path d="M283.08 251.931H245.149V294.706H283.08V251.931Z" fill="#53A6DB"/>
<path d="M283.183 294.81H245.046V251.828H283.183V294.81ZM245.252 294.603H282.977V252.034H245.252V294.603Z" fill="#221F20"/>
<path d="M337.296 251.931H299.365V350.675H337.296V251.931Z" fill="#53A6DB"/>
<path d="M337.399 350.779H299.262V251.828H337.399V350.779ZM299.468 350.572H337.193V252.034H299.468V350.572Z" fill="#221F20"/>
<path d="M385.639 237.253H359.046V272.401H385.639V237.253Z" fill="#53A6DB"/>
<path d="M385.742 272.505H358.942V237.15H385.742V272.505ZM359.149 272.298H385.535V237.356H359.149V272.298Z" fill="#221F20"/>
<path d="M170.833 327.896H185.573V351.397H170.833C167.473 351.397 164.752 348.676 164.752 345.316V333.977C164.752 330.617 167.473 327.896 170.833 327.896Z" fill="#333333"/>
<path d="M185.727 351.552H170.833C167.39 351.552 164.597 348.758 164.597 345.316V333.978C164.597 330.535 167.39 327.742 170.833 327.742H185.727V351.552ZM170.833 328.051C167.565 328.051 164.906 330.71 164.906 333.978V345.316C164.906 348.583 167.565 351.242 170.833 351.242H185.418V328.051H170.833Z" fill="black"/>
<path d="M414.293 327.896H429.455C432.578 327.896 435.114 330.432 435.114 333.555V345.738C435.114 348.861 432.578 351.397 429.455 351.397H414.293V327.896Z" fill="#333333"/>
<path d="M429.445 351.552H414.128V327.742H429.445C432.65 327.742 435.258 330.349 435.258 333.555V345.738C435.258 348.944 432.65 351.552 429.445 351.552ZM414.447 351.242H429.455C432.496 351.242 434.959 348.769 434.959 345.738V333.555C434.959 330.514 432.485 328.051 429.455 328.051H414.447V351.242Z" fill="black"/>
<path d="M232.161 379.845C248.385 379.845 261.537 366.693 261.537 350.469C261.537 334.245 248.385 321.093 232.161 321.093C215.937 321.093 202.785 334.245 202.785 350.469C202.785 366.693 215.937 379.845 232.161 379.845Z" fill="#333333"/>
<path d="M232.161 380C215.876 380 202.631 366.755 202.631 350.469C202.631 334.184 215.876 320.939 232.161 320.939C248.447 320.939 261.692 334.184 261.692 350.469C261.692 366.755 248.447 380 232.161 380ZM232.161 321.248C216.051 321.248 202.94 334.359 202.94 350.469C202.94 366.58 216.051 379.691 232.161 379.691C248.272 379.691 261.383 366.58 261.383 350.469C261.383 334.359 248.272 321.248 232.161 321.248Z" fill="black"/>
<path d="M232.419 363.147C239.791 363.147 245.767 357.171 245.767 349.799C245.767 342.428 239.791 336.451 232.419 336.451C225.047 336.451 219.071 342.428 219.071 349.799C219.071 357.171 225.047 363.147 232.419 363.147Z" fill="white"/>
<path d="M232.419 363.302C224.977 363.302 218.916 357.241 218.916 349.799C218.916 342.357 224.977 336.297 232.419 336.297C239.861 336.297 245.921 342.357 245.921 349.799C245.921 357.241 239.861 363.302 232.419 363.302ZM232.419 336.606C225.142 336.606 219.225 342.522 219.225 349.799C219.225 357.076 225.142 362.993 232.419 362.993C239.696 362.993 245.612 357.076 245.612 349.799C245.612 342.522 239.696 336.606 232.419 336.606Z" fill="black"/>
<path d="M376.052 379.845C392.276 379.845 405.428 366.693 405.428 350.469C405.428 334.245 392.276 321.093 376.052 321.093C359.828 321.093 346.676 334.245 346.676 350.469C346.676 366.693 359.828 379.845 376.052 379.845Z" fill="#333333"/>
<path d="M376.051 380C359.765 380 346.521 366.755 346.521 350.469C346.521 334.184 359.765 320.939 376.051 320.939C392.337 320.939 405.582 334.184 405.582 350.469C405.582 366.755 392.337 380 376.051 380ZM376.051 321.248C359.941 321.248 346.83 334.359 346.83 350.469C346.83 366.58 359.941 379.691 376.051 379.691C392.162 379.691 405.272 366.58 405.272 350.469C405.272 334.359 392.162 321.248 376.051 321.248Z" fill="black"/>
<path d="M376.311 363.147C383.683 363.147 389.659 357.171 389.659 349.799C389.659 342.428 383.683 336.451 376.311 336.451C368.939 336.451 362.963 342.428 362.963 349.799C362.963 357.171 368.939 363.147 376.311 363.147Z" fill="white"/>
<path d="M376.309 363.302C368.867 363.302 362.807 357.241 362.807 349.799C362.807 342.357 368.867 336.297 376.309 336.297C383.751 336.297 389.812 342.357 389.812 349.799C389.812 357.241 383.751 363.302 376.309 363.302ZM376.309 336.606C369.032 336.606 363.116 342.522 363.116 349.799C363.116 357.076 369.032 362.993 376.309 362.993C383.586 362.993 389.503 357.076 389.503 349.799C389.503 342.522 383.586 336.606 376.309 336.606Z" fill="black"/>
<path d="M318.3 252.549H317.991V352.18H318.3V252.549Z" fill="black"/>
</svg>
