<svg width="600" height="600" viewBox="0 0 600 600" fill="none" xmlns="http://www.w3.org/2000/svg">
<path d="M359.37 205.386H241.305C227.803 205.386 216.857 216.331 216.857 229.834V390.734C216.857 404.236 227.803 415.181 241.305 415.181H359.37C372.872 415.181 383.818 404.236 383.818 390.734V229.834C383.818 216.331 372.872 205.386 359.37 205.386Z" fill="#FFB85A"/>
<path d="M359.37 415.364H241.305C227.724 415.364 216.675 404.314 216.675 390.733V229.833C216.675 216.253 227.724 205.203 241.305 205.203H359.37C372.951 205.203 384 216.253 384 229.833V390.733C384 404.314 372.951 415.364 359.37 415.364ZM241.305 205.568C227.919 205.568 217.04 216.447 217.04 229.833V390.733C217.04 404.12 227.919 414.999 241.305 414.999H359.37C372.744 414.999 383.635 404.12 383.635 390.733V229.833C383.635 216.447 372.744 205.568 359.37 205.568H241.305Z" fill="black"/>
<path d="M375.068 247.284V369.742C375.068 385.087 363.848 397.536 350 397.536H253.377C239.529 397.536 228.309 385.099 228.309 369.742V236.952C228.309 221.607 239.529 209.158 253.377 209.158H341.433C345.181 209.158 348.771 210.801 351.424 213.721L370.201 234.336C373.316 237.755 375.068 242.428 375.068 247.296V247.284Z" fill="#DEF3FF"/>
<path d="M350 397.719H253.377C239.455 397.719 228.126 385.172 228.126 369.742V236.952C228.126 221.522 239.455 208.975 253.377 208.975H341.433C345.254 208.975 348.856 210.618 351.557 213.6L370.334 234.214C373.462 237.646 375.251 242.416 375.251 247.296V369.754C375.251 385.184 363.921 397.731 350 397.731V397.719ZM253.377 209.341C239.65 209.341 228.491 221.729 228.491 236.952V369.742C228.491 384.965 239.662 397.354 253.377 397.354H350C363.727 397.354 374.886 384.965 374.886 369.742V247.284C374.886 242.501 373.121 237.816 370.055 234.458L351.278 213.843C348.637 210.947 345.132 209.341 341.421 209.341H253.365H253.377Z" fill="black"/>
<path d="M342.894 213.648L342.419 231.002C342.285 235.967 346.216 240.104 351.181 240.214L370.238 240.652C372.854 240.713 374.351 236.405 372.538 234.531L348.893 211.324C346.739 209.097 342.967 210.557 342.882 213.661L342.894 213.648Z" fill="#5EA8D1"/>
<path d="M370.298 240.834H370.237L351.181 240.396C348.722 240.335 346.447 239.325 344.755 237.549C343.064 235.772 342.175 233.435 342.236 230.989L342.711 213.636C342.747 212.127 343.648 210.85 345.06 210.302C346.471 209.754 347.992 210.095 349.039 211.178L372.683 234.385C373.791 235.529 373.694 237.354 373.122 238.656C372.537 239.995 371.454 240.822 370.31 240.822L370.298 240.834ZM343.076 213.661L342.601 231.014C342.541 233.375 343.392 235.602 345.023 237.317C346.642 239.021 348.844 239.995 351.193 240.043L370.25 240.481C370.25 240.481 370.286 240.481 370.298 240.481C371.321 240.481 372.245 239.763 372.781 238.534C373.304 237.342 373.389 235.675 372.416 234.665L348.771 211.458C347.822 210.472 346.447 210.18 345.181 210.667C343.916 211.154 343.1 212.31 343.064 213.661H343.076Z" fill="black"/>
<path d="M263.319 266.828H265.375C267.225 266.828 269.075 266.828 270.924 266.828C273.675 266.828 276.437 266.828 279.187 266.828C282.522 266.828 285.868 266.828 289.202 266.828C292.89 266.828 296.565 266.828 300.252 266.828H311.326C314.794 266.828 318.262 266.828 321.718 266.828C324.627 266.828 327.535 266.828 330.444 266.828H336.759C337.745 266.828 338.743 266.828 339.729 266.828C339.777 266.828 339.814 266.828 339.862 266.828C340.921 266.828 341.931 267.765 341.882 268.848C341.834 269.931 340.994 270.868 339.862 270.868H337.806C335.956 270.868 334.106 270.868 332.257 270.868H323.994C320.66 270.868 317.313 270.868 313.979 270.868H302.929C299.242 270.868 295.542 270.868 291.855 270.868C288.387 270.868 284.919 270.868 281.463 270.868H272.738C270.632 270.868 268.527 270.868 266.422 270.868C265.436 270.868 264.438 270.868 263.452 270.868C263.404 270.868 263.367 270.868 263.319 270.868C262.26 270.868 261.25 269.931 261.299 268.848C261.347 267.752 262.187 266.828 263.319 266.828Z" fill="#4D4D4D"/>
<path d="M264.438 271.062C264.11 271.062 263.781 271.062 263.44 271.062H263.306C262.71 271.062 262.126 270.807 261.688 270.344C261.286 269.918 261.067 269.383 261.092 268.835C261.153 267.606 262.114 266.633 263.294 266.633H337.757C338.414 266.633 339.084 266.633 339.741 266.633H339.862C340.459 266.633 341.043 266.888 341.481 267.351C341.882 267.777 342.102 268.312 342.077 268.848C342.016 270.077 341.055 271.05 339.875 271.05H265.412C265.083 271.05 264.755 271.05 264.414 271.05L264.438 271.062ZM263.319 267.01C262.333 267.01 261.518 267.825 261.481 268.86C261.457 269.298 261.639 269.736 261.968 270.089C262.333 270.466 262.832 270.685 263.319 270.685H263.452C264.122 270.685 264.779 270.685 265.436 270.685H281.475H339.899C340.885 270.685 341.7 269.87 341.749 268.835C341.773 268.397 341.59 267.959 341.262 267.606C340.897 267.229 340.398 267.01 339.911 267.01H339.777C339.12 267.01 338.451 267.01 337.794 267.01H330.48H263.331H263.319Z" fill="black"/>
<path d="M263.319 297.652H265.375C267.225 297.652 269.075 297.652 270.924 297.652H279.187C282.522 297.652 285.868 297.652 289.202 297.652C292.89 297.652 296.565 297.652 300.252 297.652H311.326C314.794 297.652 318.262 297.652 321.718 297.652H330.444C332.549 297.652 334.654 297.652 336.759 297.652C337.745 297.652 338.743 297.652 339.729 297.652C339.777 297.652 339.814 297.652 339.862 297.652C340.921 297.652 341.931 298.589 341.882 299.672C341.834 300.755 340.994 301.692 339.862 301.692H337.806C335.956 301.692 334.106 301.692 332.257 301.692H323.994C320.66 301.692 317.313 301.692 313.979 301.692C310.291 301.692 306.616 301.692 302.929 301.692H291.855C288.387 301.692 284.919 301.692 281.463 301.692H272.738C270.632 301.692 268.527 301.692 266.422 301.692C265.436 301.692 264.438 301.692 263.452 301.692C263.404 301.692 263.367 301.692 263.319 301.692C262.26 301.692 261.25 300.755 261.299 299.672C261.347 298.577 262.187 297.652 263.319 297.652Z" fill="#4D4D4D"/>
<path d="M264.438 301.899C264.11 301.899 263.781 301.899 263.44 301.899H263.306C262.71 301.899 262.126 301.643 261.688 301.181C261.286 300.755 261.067 300.22 261.092 299.672C261.153 298.443 262.114 297.469 263.294 297.469H337.757C338.414 297.469 339.084 297.469 339.741 297.469H339.862C340.459 297.469 341.043 297.725 341.481 298.187C341.882 298.613 342.102 299.149 342.077 299.684C342.016 300.913 341.055 301.887 339.875 301.887H265.412C265.083 301.887 264.755 301.887 264.414 301.887L264.438 301.899ZM263.319 297.835C262.333 297.835 261.518 298.65 261.481 299.684C261.457 300.122 261.639 300.56 261.968 300.913C262.333 301.291 262.832 301.51 263.319 301.51H263.452C264.122 301.51 264.779 301.51 265.436 301.51H281.475H339.899C340.885 301.51 341.7 300.694 341.749 299.66C341.773 299.222 341.59 298.784 341.262 298.431C340.897 298.054 340.398 297.835 339.911 297.835H339.777C339.12 297.835 338.451 297.835 337.794 297.835H330.48H263.331H263.319Z" fill="black"/>
<path d="M263.319 328.489H265.375C267.225 328.489 269.075 328.489 270.924 328.489H279.187C282.522 328.489 285.868 328.489 289.202 328.489C292.89 328.489 296.565 328.489 300.252 328.489H311.326C314.794 328.489 318.262 328.489 321.718 328.489C324.627 328.489 327.535 328.489 330.444 328.489H336.759C337.745 328.489 338.743 328.489 339.729 328.489C339.777 328.489 339.814 328.489 339.862 328.489C340.921 328.489 341.931 329.426 341.882 330.509C341.834 331.592 340.994 332.529 339.862 332.529H337.806C335.956 332.529 334.106 332.529 332.257 332.529H323.994C320.66 332.529 317.313 332.529 313.979 332.529C310.291 332.529 306.616 332.529 302.929 332.529H291.855C288.387 332.529 284.919 332.529 281.463 332.529H272.738C270.632 332.529 268.527 332.529 266.422 332.529C265.436 332.529 264.438 332.529 263.452 332.529C263.404 332.529 263.367 332.529 263.319 332.529C262.26 332.529 261.25 331.592 261.299 330.509C261.347 329.413 262.187 328.489 263.319 328.489Z" fill="#4D4D4D"/>
<path d="M264.438 332.724C264.11 332.724 263.781 332.724 263.44 332.724H263.306C262.71 332.724 262.126 332.468 261.688 332.006C261.286 331.58 261.067 331.044 261.092 330.497C261.153 329.267 262.114 328.294 263.294 328.294H337.757C338.414 328.294 339.084 328.294 339.741 328.294H339.862C340.459 328.294 341.043 328.549 341.481 329.012C341.882 329.438 342.102 329.973 342.077 330.509C342.016 331.738 341.055 332.711 339.875 332.711H265.412C265.083 332.711 264.755 332.711 264.414 332.711L264.438 332.724ZM263.319 328.671C262.333 328.671 261.518 329.487 261.481 330.521C261.457 330.959 261.639 331.397 261.968 331.75C262.333 332.127 262.832 332.346 263.319 332.346H263.452C264.122 332.346 264.779 332.346 265.436 332.346H281.475H339.899C340.885 332.346 341.7 331.531 341.749 330.497C341.773 330.058 341.59 329.62 341.262 329.267C340.897 328.89 340.398 328.671 339.911 328.671H339.777C339.12 328.671 338.451 328.671 337.794 328.671H330.48H263.331H263.319Z" fill="black"/>
<path d="M309.988 196.016C310.037 195.614 310.073 195.212 310.073 194.799C310.073 189.42 305.717 185.063 300.338 185.063C294.959 185.063 290.603 189.42 290.603 194.799C290.603 195.212 290.639 195.614 290.688 196.016H279.456C275.403 196.016 272.105 199.301 272.105 203.366V209.122C272.105 213.174 275.391 216.472 279.456 216.472H321.232C325.285 216.472 328.582 213.186 328.582 209.122V203.366C328.582 199.313 325.297 196.016 321.232 196.016H310H309.988Z" fill="#4D4D4D"/>
<path d="M321.219 216.642H279.443C275.293 216.642 271.91 213.259 271.91 209.109V203.353C271.91 199.204 275.281 195.821 279.443 195.821H290.48C290.444 195.444 290.419 195.103 290.419 194.786C290.419 189.322 294.873 184.869 300.337 184.869C305.801 184.869 310.255 189.322 310.255 194.786C310.255 195.103 310.231 195.444 310.194 195.821H321.219C325.369 195.821 328.752 199.204 328.752 203.353V209.109C328.752 213.259 325.381 216.642 321.219 216.642ZM279.443 196.198C275.488 196.198 272.275 199.411 272.275 203.353V209.109C272.275 213.064 275.488 216.265 279.443 216.265H321.219C325.174 216.265 328.387 213.052 328.387 209.109V203.353C328.387 199.398 325.174 196.198 321.219 196.198H309.78L309.805 195.991C309.866 195.553 309.89 195.164 309.89 194.799C309.89 189.529 305.606 185.246 300.337 185.246C295.068 185.246 290.784 189.529 290.784 194.799C290.784 195.164 290.809 195.541 290.87 195.991L290.894 196.198H279.455H279.443Z" fill="black"/>
</svg>
