<svg width="600" height="600" viewBox="0 0 600 600" fill="none" xmlns="http://www.w3.org/2000/svg">
<path d="M274.252 139.869H273.683V155.431H274.252V139.869Z" fill="#231F20"/>
<path d="M277.877 142.284H277.308V157.244H277.877V142.284Z" fill="#231F20"/>
<path d="M141.403 474.256C141.403 474.256 138.195 500.378 140.945 506.793H208.771C208.771 506.793 208.54 485.484 179.211 487.545L178.753 473.795L141.403 474.253V474.256Z" fill="#2C1B18"/>
<path d="M90.3244 429.273C90.3244 429.273 62.9701 450.818 60.4229 457.318L108.725 504.934C108.725 504.934 123.522 489.597 101.185 470.476L110.512 460.364L90.3244 429.275V429.273Z" fill="#2C1B18"/>
<path d="M213.731 216.897C217.983 208.138 219.683 200.19 217.529 199.144C215.376 198.099 210.183 204.352 205.932 213.111C201.681 221.87 199.98 229.818 202.134 230.864C204.288 231.909 209.48 225.656 213.731 216.897Z" fill="#231F20"/>
<path d="M154.837 140.449L166.137 167.624C166.137 167.624 154.029 172.468 147.571 171.66C141.113 170.851 138.854 155.946 138.854 155.946L154.835 140.449H154.837Z" fill="#2C1B18"/>
<path d="M140.104 104.047C140.104 104.047 177.679 113.354 168.904 147.687C168.002 151.21 166.149 154.446 163.448 156.883C160.368 159.661 155.638 162.057 149.027 160.54L152.277 171.814C152.277 171.814 146.858 191.108 122.145 176.584C124.259 166.716 126.07 159.197 128.184 149.329C126.81 149.984 122.586 149.614 119.515 147.687C114.13 144.309 115.525 130.368 121.541 128.268C124.826 127.124 129.491 126.995 132.923 130.767C135.399 120.996 137.628 113.821 140.101 104.05L140.104 104.047Z" fill="#FCD1C7"/>
<path d="M138.365 182.282C133.669 182.282 128.193 180.457 122.006 176.82L121.829 176.715L121.872 176.513C122.928 171.577 123.927 167.157 124.892 162.882C125.825 158.75 126.787 154.484 127.806 149.748C126.044 150.174 122.273 149.739 119.37 147.917C116.774 146.289 115.451 142.109 115.995 137.267C116.521 132.602 118.664 128.962 121.454 127.989C123.07 127.425 128.558 125.962 132.778 130.189C133.971 125.507 135.126 121.349 136.242 117.324C137.398 113.16 138.593 108.854 139.831 103.973L139.899 103.7L140.175 103.768C140.355 103.811 158.069 108.336 166.306 122.114C170.689 129.446 171.657 138.073 169.18 147.755C168.238 151.444 166.323 154.671 163.639 157.091C160.844 159.609 156.134 162.285 149.434 160.916L152.576 171.808L152.553 171.885C152.533 171.95 150.598 178.607 144.109 181.22C142.35 181.929 140.432 182.282 138.362 182.282H138.365ZM122.47 176.436C131.136 181.493 138.343 182.925 143.89 180.697C149.753 178.34 151.751 172.534 151.981 171.808L148.62 160.153L149.092 160.261C154.48 161.496 159.247 160.29 163.261 156.672C165.859 154.33 167.715 151.199 168.631 147.619C171.067 138.09 170.123 129.608 165.819 122.41C158.26 109.768 142.578 105.026 140.312 104.4C139.1 109.173 137.927 113.397 136.791 117.484C135.636 121.648 134.44 125.954 133.202 130.835L133.071 131.347L132.716 130.954C128.688 126.526 123.218 127.98 121.639 128.532C119.054 129.435 117.062 132.89 116.558 137.338C115.963 142.598 117.694 146.201 119.669 147.442C122.626 149.298 126.736 149.702 128.062 149.067L128.583 148.817L128.461 149.383C127.405 154.318 126.406 158.739 125.441 163.013C124.49 167.229 123.506 171.586 122.467 176.436H122.47Z" fill="#231F20"/>
<path d="M97.3491 114.828C102.89 114.828 107.382 110.336 107.382 104.795C107.382 99.2546 102.89 94.7628 97.3491 94.7628C91.8082 94.7628 87.3164 99.2546 87.3164 104.795C87.3164 110.336 91.8082 114.828 97.3491 114.828Z" fill="#2C1B18"/>
<path d="M80.3994 227.504C80.3994 227.504 95.225 170.826 122.147 176.575C149.071 182.324 152.193 170.003 152.193 170.003C152.193 170.003 194.743 172.96 220.373 200.725C217.31 203.545 213.735 207.353 210.343 212.294C205.798 218.909 203.185 225.216 201.645 229.969C201.645 229.969 188.846 224.521 187.352 223.562C187.352 223.562 201.133 262.022 198.833 268.429C188.029 266.265 177.854 266.863 172.401 268.084C155.153 271.952 148.806 282.406 133.867 282.83C125.767 283.061 119.104 280.229 114.9 277.94C113.97 264.524 113.039 251.107 112.108 237.69C112.108 237.69 96.5826 246.234 80.3994 227.504Z" fill="#BC84B2"/>
<path d="M132.94 283.129C126.897 283.129 120.787 281.469 114.764 278.193L114.628 278.119L111.853 238.137C110.717 238.669 107.225 240.078 102.312 239.907C92.4506 239.563 84.8371 233.076 80.1837 227.692L80.0869 227.578L80.1239 227.433C80.1609 227.29 83.9207 213.077 90.925 199.751C95.0462 191.91 99.472 185.902 104.08 181.891C109.875 176.848 115.974 174.964 122.207 176.296C129.809 177.921 140.297 179.051 147.077 175.226C151.098 172.955 151.909 169.963 151.918 169.932L151.978 169.701L152.214 169.718C152.319 169.727 163.043 170.507 176.756 174.679C189.419 178.53 207.301 186.141 220.584 200.531L220.777 200.741L220.567 200.935C216.818 204.39 213.457 208.267 210.577 212.456C206.863 217.864 203.948 223.784 201.913 230.057L201.816 230.353L201.529 230.23C201.054 230.028 190.862 225.688 187.865 224.168C189.783 229.584 201.259 262.497 199.095 268.522L199.013 268.753L198.771 268.704C187.913 266.53 177.809 267.159 172.458 268.36C164.543 270.136 159.039 273.247 153.714 276.255C147.683 279.662 141.988 282.881 133.87 283.112C133.56 283.12 133.247 283.126 132.937 283.126L132.94 283.129ZM115.174 277.767C121.376 281.114 127.66 282.719 133.859 282.545C141.837 282.318 147.472 279.133 153.441 275.763C158.8 272.735 164.344 269.601 172.342 267.808C177.707 266.604 187.788 265.966 198.64 268.101C200.49 261.208 187.221 224.04 187.085 223.659L186.803 222.87L187.506 223.323C188.841 224.179 199.574 228.776 201.472 229.587C203.518 223.374 206.424 217.502 210.11 212.137C212.959 207.991 216.275 204.148 219.972 200.713C206.797 186.553 189.125 179.04 176.591 175.229C164.028 171.409 154.004 170.444 152.399 170.308C152.128 171.087 151.004 173.646 147.41 175.695C140.479 179.643 129.815 178.507 122.09 176.857C116.042 175.564 110.111 177.403 104.458 182.321C99.9074 186.283 95.5244 192.234 91.4345 200.01C84.8371 212.559 81.1286 225.901 80.7159 227.433C85.301 232.706 92.7466 239.002 102.335 239.338C108.093 239.537 111.935 237.462 111.972 237.442L112.362 237.229L115.174 277.769V277.767Z" fill="#231F20"/>
<path d="M152.194 170.003C152.194 170.003 175.601 173.868 186.832 223.004L190.865 225.463C190.865 225.463 181.333 177.275 152.197 170.006L152.194 170.003Z" fill="#231F20"/>
<path d="M137.374 477.799C137.374 477.799 193.69 479.811 202.408 470.425L187.933 391.023C191.411 388.752 207.728 371.612 210.924 351.023C212.142 343.168 211.038 336.431 209.794 331.821C204.975 305.753 201.466 294.095 196.647 268.027C186.566 266.584 178.469 266.604 172.401 268.081C156.349 271.986 150.657 280.493 136.503 281.814C127.888 282.616 120.394 280.359 114.901 277.94C116.312 291.616 117.974 305.511 119.654 319.642C122.232 341.344 125.212 364.745 126.823 371.547C126.823 371.547 88.2493 402.154 77.8666 401.079C67.4839 400.006 110.091 460.512 110.091 460.512L135.236 425.461C135.236 425.461 139.235 472.884 137.371 477.796L137.374 477.799Z" fill="#6AA393"/>
<path d="M150.188 478.28C143.112 478.28 138.038 478.109 137.366 478.084L136.97 478.07L137.11 477.7C138.8 473.243 135.525 432.409 135.021 426.258L110.091 461.004L109.861 460.677C109.767 460.546 100.46 447.311 91.7111 433.508C79.9053 414.885 74.6997 404.113 76.2366 401.491C76.4557 401.118 76.9197 400.694 77.9016 400.797C87.7378 401.813 123.938 373.462 126.511 371.436C124.832 364.161 121.709 339.32 119.376 319.676L119.131 317.627C117.503 303.926 115.966 290.987 114.62 277.969L114.568 277.482L115.015 277.678C122.287 280.883 129.508 282.178 136.475 281.529C144 280.826 149.209 278.029 154.725 275.066C159.7 272.39 164.846 269.627 172.337 267.805C178.424 266.325 186.616 266.305 196.691 267.745L196.893 267.774L196.93 267.976C199.338 281.006 201.455 290.591 203.502 299.861C205.548 309.137 207.666 318.728 210.076 331.767C211.813 338.205 212.194 344.705 211.206 351.066C209.49 362.126 204.04 371.846 199.771 378.05C195.143 384.779 190.256 389.748 188.246 391.151L202.713 470.51L202.617 470.616C196.446 477.258 167.404 478.277 150.188 478.277V478.28ZM137.753 477.526C142.623 477.674 193.637 479.009 202.102 470.334L187.618 390.889L187.777 390.787C189.638 389.572 194.588 384.582 199.301 377.732C203.536 371.576 208.944 361.936 210.643 350.981C211.619 344.699 211.24 338.278 209.519 331.895C207.105 318.842 204.988 309.256 202.941 299.987C200.903 290.759 198.797 281.219 196.404 268.283C186.496 266.883 178.444 266.909 172.467 268.36C165.05 270.165 159.936 272.911 154.992 275.569C149.425 278.561 144.168 281.387 136.526 282.099C129.605 282.745 122.444 281.498 115.232 278.396C116.564 291.246 118.083 304.031 119.691 317.559L119.936 319.608C123.309 347.99 125.785 365.929 127.1 371.482L127.143 371.658L127 371.772C126.904 371.849 117.224 379.516 106.4 386.953C91.8221 396.969 82.2135 401.819 77.839 401.366C77.2868 401.309 76.9225 401.446 76.7233 401.782C74.8619 404.958 85.6118 422.832 92.1864 433.203C100.164 445.789 108.603 457.899 110.091 460.025L135.453 424.673L135.519 425.442C135.678 427.34 139.338 471.042 137.75 477.529L137.753 477.526Z" fill="#231F20"/>
<path d="M171.23 290.05L170.669 290.144L188.706 398.742L189.267 398.649L171.23 290.05Z" fill="#231F20"/>
<path d="M126.824 371.547L135.175 424.858L128.657 434.187L126.824 371.547Z" fill="#231F20"/>
<path d="M128.397 435.056L126.538 371.556L127.104 371.505L135.475 424.929L128.399 435.059L128.397 435.056ZM127.238 376.044L128.915 433.32L134.874 424.79L127.238 376.044Z" fill="#231F20"/>
<path d="M154.971 125.648C155.023 125.617 160.36 122.584 164.844 124.343L165.052 123.811C162.565 122.836 159.876 123.255 158.056 123.777C156.099 124.34 154.74 125.121 154.684 125.154L154.971 125.648Z" fill="#2A1C19"/>
<path d="M157.713 131.268C158.013 130.871 159.64 128.892 162.362 128.757C164.254 128.667 165.661 129.496 166.332 129.997L166.674 129.539C165.942 128.992 164.405 128.087 162.335 128.186C159.355 128.332 157.583 130.49 157.257 130.922L157.713 131.266L157.713 131.268Z" fill="#2A1C19"/>
<path d="M143.953 134.702C144.252 134.305 145.881 132.324 148.602 132.191C150.493 132.101 151.9 132.93 152.571 133.431L152.914 132.973C152.182 132.426 150.645 131.521 148.574 131.62C145.597 131.764 143.822 133.924 143.496 134.356L143.953 134.7L143.953 134.702Z" fill="#2A1C19"/>
<path d="M141.382 130.556C141.426 130.514 145.996 126.419 150.752 127.182L150.843 126.617C148.205 126.193 145.665 127.174 144.001 128.071C142.207 129.037 141.046 130.089 140.998 130.133L141.383 130.555L141.382 130.556Z" fill="#2A1C19"/>
<path d="M161.015 144.833C162.226 144.438 163.207 143.512 163.855 142.15C165.602 138.473 156.386 132.637 155.993 132.391L155.689 132.875C158.247 134.479 164.607 139.232 163.338 141.904C162.76 143.12 161.896 143.944 160.838 144.289L161.015 144.831L161.015 144.833Z" fill="#2A1C19"/>
<path d="M161.006 146.967L157.473 153.796C157.315 154.099 157.085 154.358 156.795 154.542C155.751 155.205 153.077 156.449 150.271 154.16C150.271 154.16 147.876 152.024 150.52 148.52L161.006 146.967Z" fill="#231F20"/>
<path d="M138.858 155.946C138.858 155.946 145.188 160.087 148.777 160.218L150.027 164.451C150.027 164.451 141.687 158.997 138.858 155.943V155.946Z" fill="#231F20"/>
<path d="M159.49 107.502C150.547 95.8102 133.513 97.9676 131.814 98.2095C115.303 100.558 106.651 115.133 105.199 117.58C98.9863 128.046 104.07 134.771 99.1059 155.619C97.384 162.848 95.2949 168.637 93.7637 172.465C104.047 180.173 115.383 181.818 120.939 177.31C122.769 175.824 124.846 172.961 126.05 169.776C127.291 166.491 127.075 164.263 127.397 159.282C127.579 156.447 127.966 152.275 128.894 147.146C128.478 147.317 127.9 147.508 127.192 147.616C126.824 147.673 126.449 147.701 126.065 147.701C121.548 147.701 117.885 143.657 117.885 138.667C117.885 133.678 121.548 129.634 126.065 129.634C128.785 129.634 131.193 131.102 132.682 133.357C134.802 131.794 137.11 129.793 139.353 127.246C145.341 120.438 149.525 112.992 150.541 108.934C152.628 110.792 154.953 112.716 157.531 114.646C159.811 116.354 162.028 117.871 164.143 119.22C163.779 116.342 162.754 111.763 159.498 107.502H159.49Z" fill="#2C1B18"/>
<path d="M123.081 136.331L122.724 136.775L127.238 140.408L127.595 139.965L123.081 136.331Z" fill="#231F20"/>
<path d="M197.321 272.245C197.825 270.973 198.328 269.701 198.832 268.426C192.687 266.954 185.128 266.075 176.769 267.39C158.639 270.239 151.811 281.037 135.227 281.931C129.537 282.238 122.721 281.376 114.899 277.941C117.489 280.035 124.189 284.834 133.345 284.814C139.937 284.8 145.08 282.298 147.9 280.923C152.864 278.507 152.924 277.22 157.358 274.574C170.203 266.909 185.097 268.503 189.75 269.001C192.906 269.339 195.459 269.866 197.09 270.247C197.167 270.911 197.241 271.577 197.318 272.24L197.321 272.245Z" fill="#231F20"/>
<path d="M152.303 475.77C152.101 474.623 151.938 473.416 151.802 472.073L152.368 472.016C152.502 473.342 152.664 474.538 152.863 475.67L152.303 475.77Z" fill="#F3EDE3"/>
<path d="M151.503 468.168C151.454 467.36 151.411 466.549 151.369 465.74L151.323 464.852L151.892 464.821L151.938 465.709C151.981 466.517 152.023 467.326 152.072 468.134L151.503 468.168Z" fill="#F3EDE3"/>
<path d="M151.079 460.993C150.973 459.652 150.848 458.459 150.697 457.344L151.261 457.267C151.414 458.394 151.54 459.598 151.645 460.947L151.079 460.993Z" fill="#F3EDE3"/>
<path d="M150.321 453.619C150.176 452.295 150.02 450.98 149.854 449.711L150.418 449.637C150.583 450.912 150.742 452.23 150.888 453.556L150.321 453.619Z" fill="#F3EDE3"/>
<path d="M149.328 445.843C149.126 444.423 148.919 443.005 148.708 441.585L149.272 441.5C149.485 442.92 149.693 444.34 149.895 445.76L149.331 445.84L149.328 445.843Z" fill="#F3EDE3"/>
<path d="M148.123 437.714C147.958 436.618 147.796 435.52 147.634 434.424L148.197 434.341C148.36 435.437 148.522 436.536 148.687 437.632L148.123 437.717V437.714Z" fill="#F3EDE3"/>
<path d="M147.085 430.562C146.942 429.532 146.806 428.502 146.672 427.471L147.235 427.4C147.366 428.43 147.506 429.458 147.645 430.485L147.082 430.562H147.085Z" fill="#F3EDE3"/>
<path d="M146.192 423.549C146.039 422.24 145.893 420.919 145.754 419.621L146.32 419.562C146.457 420.857 146.605 422.177 146.756 423.484L146.189 423.549H146.192Z" fill="#F3EDE3"/>
<path d="M145.264 415.793C145.07 414.726 144.834 413.647 144.606 412.606C144.484 412.042 144.359 411.476 144.242 410.909L144.8 410.793C144.917 411.356 145.039 411.92 145.164 412.483C145.392 413.531 145.631 414.615 145.825 415.691L145.264 415.793Z" fill="#F3EDE3"/>
<path d="M143.383 407.061C143.033 405.686 142.663 404.477 142.244 403.364L142.776 403.165C143.2 404.297 143.579 405.524 143.932 406.922L143.38 407.061H143.383Z" fill="#F3EDE3"/>
<path d="M141.183 399.553C140.773 398.065 140.446 396.849 140.158 395.728L140.71 395.586C140.998 396.704 141.322 397.917 141.732 399.402L141.183 399.553Z" fill="#F3EDE3"/>
<path d="M139.43 391.735C139.248 390.468 139.103 389.159 138.986 387.739L139.553 387.693C139.669 389.105 139.812 390.4 139.991 391.655L139.427 391.735H139.43Z" fill="#F3EDE3"/>
<path d="M138.52 383.842C138.384 382.701 138.219 381.349 138.02 379.98L138.583 379.898C138.782 381.272 138.947 382.63 139.087 383.774L138.52 383.842Z" fill="#F3EDE3"/>
<path d="M137.443 376.141C137.244 374.868 137.042 373.633 136.84 372.466L137.401 372.369C137.603 373.539 137.805 374.777 138.004 376.052L137.44 376.141H137.443Z" fill="#F3EDE3"/>
<path d="M136.237 368.71C136.043 367.52 135.844 366.33 135.645 365.14L136.205 365.047C136.404 366.236 136.604 367.429 136.797 368.618L136.237 368.71Z" fill="#F3EDE3"/>
<path d="M134.864 361.358C134.539 359.841 134.232 358.353 134.019 356.858L134.582 356.779C134.793 358.256 135.1 359.73 135.422 361.239L134.864 361.358Z" fill="#F3EDE3"/>
<path d="M133.33 353.102C133.088 351.781 132.843 350.46 132.599 349.14L133.159 349.037C133.404 350.358 133.649 351.678 133.891 353.002L133.33 353.104V353.102Z" fill="#F3EDE3"/>
<path d="M131.897 345.291C131.647 343.948 131.394 342.605 131.132 341.261L131.69 341.153C131.952 342.496 132.205 343.843 132.455 345.186L131.895 345.291H131.897Z" fill="#F3EDE3"/>
<path d="M130.468 337.453C130.28 336.372 130.095 335.29 129.91 334.209L130.471 334.115C130.656 335.196 130.841 336.278 131.026 337.356L130.465 337.453H130.468Z" fill="#F3EDE3"/>
<path d="M129.26 330.443C128.998 328.954 128.754 327.591 128.509 326.279L129.069 326.177C129.314 327.492 129.559 328.855 129.821 330.346L129.26 330.446V330.443Z" fill="#F3EDE3"/>
<path d="M127.788 322.556C127.489 321.042 127.181 319.537 126.874 318.079L127.432 317.963C127.739 319.423 128.047 320.931 128.345 322.445L127.788 322.556Z" fill="#F3EDE3"/>
<path d="M125.889 310.117L125.33 310.226L126.132 314.347L126.691 314.238L125.889 310.117Z" fill="#F3EDE3"/>
<path d="M124.315 301.541L123.755 301.645L124.6 306.218L125.16 306.115L124.315 301.541Z" fill="#F3EDE3"/>
<path d="M123.073 297.977C122.948 297.297 122.822 296.64 122.7 295.999C122.546 295.197 122.398 294.423 122.262 293.671L122.822 293.572C122.956 294.32 123.104 295.091 123.258 295.894C123.38 296.534 123.505 297.195 123.634 297.875L123.073 297.977Z" fill="#F3EDE3"/>
<path d="M154.461 208.321L168.082 260.86C155.539 264.649 142.996 268.434 130.453 272.222C127.152 253.887 123.847 235.553 120.546 217.218L154.461 208.321Z" fill="#231F20"/>
<path d="M112.497 237.69L112.702 241.453C115.107 239.497 124.178 231.656 126.278 218.148C129.088 200.09 117.048 187.305 115.62 185.839C119.624 189.881 122.536 195.334 123.643 198.299C130.983 217.946 113.306 236.318 112.107 237.687" fill="#231F20"/>
<path d="M112.447 242.028L112.216 237.787L111.892 237.505C111.94 237.448 112.017 237.366 112.116 237.258C128.584 219.068 125.476 204.026 123.376 198.405C122.778 196.803 121.771 194.753 120.481 192.644C118.347 189.198 116.258 186.909 115.412 186.041L115.819 185.643C117.78 187.621 119.559 190.043 120.988 192.385C124.571 198.186 128.265 207.197 126.555 218.194C124.568 230.968 116.326 238.871 112.876 241.675L112.444 242.028H112.447ZM112.782 237.676L112.956 240.875C116.568 237.835 124.119 230.179 125.997 218.106C126.766 213.171 126.427 208.645 125.499 204.635C126.273 210.806 125.027 217.323 121.768 224.097C120.202 227.356 117.328 232.348 112.541 237.636C112.523 237.656 112.506 237.673 112.492 237.69L112.782 237.673V237.676Z" fill="#231F20"/>
<path d="M156.237 206.01L169.859 258.549C157.316 262.338 144.773 266.123 132.23 269.911C128.928 251.576 125.624 233.242 122.322 214.907L156.237 206.01Z" fill="#FDB956"/>
<path d="M132.005 270.276L121.995 214.696L156.439 205.663L170.2 258.743L132.002 270.276H132.005ZM122.65 215.115L132.455 269.547L169.517 258.359L156.035 206.36L122.65 215.117V215.115Z" fill="#231F20"/>
<path d="M154.834 206.186L168.455 258.726C156.271 262.361 144.087 265.992 131.902 269.627C128.242 251.446 124.582 233.265 120.919 215.083L154.834 206.186Z" fill="#F3EDE3"/>
<path d="M131.682 269.988L120.585 214.875L155.035 205.839L168.796 258.922L131.679 269.991L131.682 269.988ZM121.248 215.288L132.115 269.262L168.107 258.529L154.625 206.53L121.245 215.285L121.248 215.288Z" fill="#231F20"/>
<path d="M151.912 206.801L165.533 259.341L131.898 269.627L117.997 215.695L151.912 206.801Z" fill="#FDB956"/>
<path d="M131.696 269.985L117.65 215.493L152.114 206.454L165.875 259.534L131.693 269.988L131.696 269.985ZM118.345 215.9L132.1 269.268L165.192 259.15L151.71 207.151L118.345 215.903V215.9Z" fill="#231F20"/>
<path d="M84.397 231.355C84.397 231.355 84.3913 231.349 84.3885 231.349C84.0868 231.38 80.993 252.18 88.8398 261.458C100.113 274.787 131.634 261.575 149.369 254.141C155.283 251.662 163.878 247.529 167.544 238.971C168.495 236.751 170.843 231.278 168.088 226.457C165.871 222.574 161.613 221.345 160.278 221.015C160.824 223.266 161.374 225.517 161.92 227.771C160.119 227.308 159.057 226.511 158.411 225.845C156.7 224.08 156.962 222.25 154.99 220.907C154.247 220.4 152.98 219.822 152.457 220.263C151.816 220.801 152.568 222.611 152.992 223.79C153.78 225.976 154.586 229.158 154.657 233.518C140.677 236.862 126.699 240.209 112.719 243.553L112.494 237.69C111.125 238.336 109.03 239.15 106.381 239.515C104.815 239.728 99.0347 240.516 93.9003 237.5C92.4601 236.654 84.8581 231.853 84.397 231.355Z" fill="#FCD1C7"/>
<path d="M104.184 267.429C97.0941 267.429 91.8828 265.497 88.6211 261.64C80.9195 252.536 83.6831 232.305 84.0958 231.286C84.1641 231.121 84.2751 231.076 84.3605 231.067L84.4971 231.053L84.6052 231.161C85.0094 231.594 92.3154 236.236 94.0459 237.255C97.3958 239.224 101.534 239.89 106.344 239.233C108.416 238.951 110.445 238.345 112.375 237.434L112.765 237.249L112.993 243.195L154.37 233.293C154.293 229.866 153.741 226.701 152.725 223.886L152.6 223.545C152.127 222.258 151.538 220.659 152.272 220.044C153.126 219.327 154.945 220.531 155.15 220.67C156.302 221.456 156.726 222.381 157.176 223.36C157.523 224.111 157.879 224.891 158.613 225.648C159.359 226.417 160.335 226.994 161.525 227.367L159.889 220.63L160.344 220.744C162.433 221.259 166.247 222.671 168.333 226.323C171.156 231.263 168.805 236.748 167.804 239.088C164.269 247.339 156.152 251.608 149.474 254.408C140.526 258.16 128.271 263.297 116.738 265.87C112.053 266.914 107.861 267.438 104.178 267.438L104.184 267.429ZM84.5398 231.827C84.2722 233.131 83.6717 237.844 83.8567 243.36C84.0445 248.949 85.1005 256.594 89.0566 261.27C93.8637 266.954 103.136 268.312 116.619 265.303C128.1 262.742 140.33 257.616 149.258 253.873C161.778 248.625 165.467 243.089 167.283 238.854C168.253 236.591 170.525 231.289 167.841 226.596C166.002 223.38 162.726 221.988 160.666 221.41L162.308 228.164L161.847 228.045C160.344 227.657 159.12 226.983 158.204 226.041C157.401 225.213 157.022 224.39 156.658 223.596C156.223 222.651 155.85 221.837 154.828 221.14C154.037 220.602 152.975 220.195 152.639 220.479C152.212 220.838 152.79 222.409 153.135 223.348L153.26 223.693C154.319 226.63 154.885 229.934 154.942 233.512V233.74L154.723 233.794L112.449 243.912L112.227 238.128C110.363 238.965 108.41 239.526 106.421 239.796C101.48 240.471 97.2193 239.779 93.7584 237.744C92.7025 237.124 86.182 233.031 84.5398 231.83V231.827Z" fill="#231F20"/>
<path d="M112.284 243.27L106.232 244.32L106.33 244.881L112.381 243.831L112.284 243.27Z" fill="#231F20"/>
<path d="M165.464 242.964C161.268 247.933 154.09 255.211 143.329 261.239C131.891 267.646 121.303 269.897 114.697 270.782C114.56 269.157 114.427 267.532 114.29 265.91C124.138 263.53 131.768 261 136.931 259.107C140.6 257.761 143.338 256.623 146.881 255.148C154.443 252.001 156.148 250.973 156.934 250.478C159.148 249.083 162.276 246.764 165.461 242.964H165.464Z" fill="#231F20"/>
<path d="M125.348 219.313L147.622 213.566L150.735 226.499L129.42 232.487L125.348 219.313Z" fill="#F3EDE3"/>
<path d="M129.229 232.835L124.988 219.11L147.831 213.216L151.076 226.698L129.229 232.835ZM125.708 219.515L129.61 232.137L150.396 226.3L147.413 213.913L125.708 219.515Z" fill="#231F20"/>
<path d="M145.864 231.028L130.773 235.338L130.93 235.886L146.02 231.576L145.864 231.028Z" fill="#231F20"/>
<path d="M150.908 230.06L147.794 230.778L147.922 231.333L151.036 230.614L150.908 230.06Z" fill="#231F20"/>
<path d="M78.7298 461.815C75.8552 461.815 73.5186 459.063 73.5186 455.679C73.5186 452.295 75.8552 449.542 78.7298 449.542C81.6044 449.542 83.9411 452.295 83.9411 455.679C83.9411 459.063 81.6044 461.815 78.7298 461.815ZM78.7298 450.115C76.1712 450.115 74.0878 452.611 74.0878 455.682C74.0878 458.753 76.1712 461.249 78.7298 461.249C81.2885 461.249 83.3719 458.753 83.3719 455.682C83.3719 452.611 81.2885 450.115 78.7298 450.115Z" fill="#F3EDE3"/>
<path d="M150.785 500.617C147.91 500.617 145.573 497.864 145.573 494.48C145.573 491.096 147.91 488.344 150.785 488.344C153.659 488.344 155.996 491.096 155.996 494.48C155.996 497.864 153.659 500.617 150.785 500.617ZM150.785 488.916C148.226 488.916 146.142 491.412 146.142 494.483C146.142 497.554 148.226 500.05 150.785 500.05C153.343 500.05 155.427 497.554 155.427 494.483C155.427 491.412 153.343 488.916 150.785 488.916Z" fill="#F3EDE3"/>
<path d="M101.159 470.482C98.5575 467.992 94.2257 468.885 94.183 468.894L94.0635 468.336C94.2542 468.296 98.7312 467.368 101.555 470.069L101.162 470.479L101.159 470.482Z" fill="#F3EDE3"/>
<path d="M62.4829 454.3L62.085 454.707L110.542 502.093L110.94 501.686L62.4829 454.3Z" fill="#F3EDE3"/>
<path d="M208.371 503.13H140.194V503.699H208.371V503.13Z" fill="#F3EDE3"/>
<path d="M172.74 491.21L172.379 490.769C172.567 490.615 176.981 487.023 179.193 486.975L179.204 487.544C177.186 487.59 172.78 491.176 172.738 491.21H172.74Z" fill="#F3EDE3"/>
<path d="M150.968 478.141H150.398V488.631H150.968V478.141Z" fill="#F3EDE3"/>
<path d="M151.09 500.321L150.521 500.334L150.592 503.319L151.161 503.305L151.09 500.321Z" fill="#F3EDE3"/>
<path d="M95.4466 439.392L81.7295 451.199L82.1008 451.63L95.8179 439.823L95.4466 439.392Z" fill="#F3EDE3"/>
<path d="M74.7348 459.318L71.2158 463.285L71.6416 463.662L75.1606 459.696L74.7348 459.318Z" fill="#F3EDE3"/>
<path d="M204.312 223.269C204.213 223.736 215.19 236.717 239.365 217.83C263.54 198.943 285.447 186.554 286.355 168.876C287.263 151.199 285.447 150.746 283.788 153.615C282.126 156.487 281.673 161.926 281.673 161.926L280.973 146.355C280.922 145.236 280.555 144.146 279.863 143.264C279.288 142.527 278.505 141.932 277.595 142.285C277.595 142.285 276.385 137.904 273.969 139.868C273.664 138.505 272.722 137.534 271.754 137.486C270.209 137.412 269.347 139.743 269.247 140.016C268.931 140.867 268.937 141.641 268.982 142.134C268.447 142.185 267.491 142.356 266.671 143.036C265.285 144.183 265.12 146.096 265.055 147.12C264.844 150.413 264.67 160.54 264.753 174.164C264.753 174.164 223.444 200.241 220.379 200.725C220.379 200.725 205.829 216.168 204.318 223.269H204.312Z" fill="#FCD1C7"/>
<path d="M215.804 228.338C211.64 228.338 208.68 227.091 206.83 225.936C205.299 224.979 203.941 223.656 204.035 223.212C205.546 216.114 219.572 201.166 220.167 200.531L220.232 200.46L220.329 200.446C222.703 200.07 250.154 183.042 264.464 174.011C264.382 160.11 264.564 150.322 264.769 147.103C264.826 146.198 264.959 144.084 266.488 142.817C267.083 142.325 267.817 142.012 268.676 141.886C268.645 141.2 268.748 140.54 268.975 139.92C269.217 139.262 270.137 137.128 271.765 137.204C272.769 137.253 273.72 138.155 274.13 139.402C274.653 139.08 275.168 138.998 275.664 139.157C276.862 139.541 277.548 141.257 277.776 141.938C278.382 141.812 279.204 141.972 280.081 143.093C280.79 144.001 281.194 145.125 281.251 146.346L281.814 158.832C282.139 157.088 282.677 154.964 283.539 153.479C284.194 152.346 284.786 151.876 285.346 152.044C286.26 152.315 287.384 154.355 286.638 168.896C285.896 183.403 271.261 194.29 252.735 208.073C248.469 211.247 244.057 214.531 239.538 218.061C231.904 224.023 224.806 227.43 218.436 228.184C217.509 228.295 216.632 228.344 215.801 228.344L215.804 228.338ZM204.607 223.258C204.886 223.781 207.106 226.075 211.082 227.16C216.453 228.625 225.691 228.156 239.19 217.608C243.713 214.073 248.127 210.789 252.397 207.612C270.803 193.92 285.341 183.101 286.069 168.862C286.801 154.623 285.694 152.736 285.184 152.585C284.991 152.525 284.586 152.807 284.031 153.76C282.42 156.541 281.957 161.898 281.954 161.952L281.384 161.94L280.684 146.369C280.636 145.268 280.272 144.254 279.637 143.44C278.985 142.606 278.331 142.308 277.693 142.552L277.4 142.666L277.317 142.365C277.141 141.73 276.469 140.011 275.493 139.701C275.075 139.567 274.633 139.695 274.144 140.093L273.785 140.384L273.686 139.934C273.415 138.724 272.596 137.816 271.736 137.774C270.458 137.708 269.656 139.715 269.508 140.119C269.277 140.742 269.194 141.414 269.26 142.111L269.286 142.393L269.004 142.421C268.141 142.507 267.413 142.789 266.846 143.258C265.509 144.365 265.383 146.312 265.332 147.143C265.122 150.467 264.951 160.819 265.031 174.17V174.33L264.897 174.415C263.226 175.471 224.285 200.033 220.517 200.995C219.498 202.085 206.113 216.521 204.604 223.266L204.607 223.258Z" fill="#231F20"/>
<path d="M269.265 142.134H268.695V156.088H269.265V142.134Z" fill="#231F20"/>
<path d="M264.87 174.423L264.625 173.908C264.745 173.851 267.591 172.519 270.053 172.673L270.018 173.242C267.702 173.1 264.898 174.412 264.87 174.423Z" fill="#231F20"/>
<path d="M282.769 110.653L283.746 137.962L279.368 110.989L282.769 110.653Z" fill="#F47B20"/>
<path d="M316.656 124.482L295.396 141.647L314.348 121.964L316.656 124.482Z" fill="#F47B20"/>
<path d="M300.95 109.896L290.875 135.297L297.703 108.837L300.95 109.896Z" fill="#F47B20"/>
<path d="M306.005 153.314L290.437 164.479C293.986 176.174 300.717 193.405 313.843 211.315C326.022 227.928 339.228 239.023 348.819 245.887C352.488 247.766 356.914 247.404 360.193 244.957C360.306 244.871 360.417 244.786 360.526 244.698C364.692 241.322 364.357 234.827 359.959 231.754C350.758 225.318 338.474 215.027 327.411 199.601C314.458 181.539 308.703 164.149 306.005 153.314Z" fill="#C4C0BB"/>
<path d="M353.756 247.356C352.022 247.356 350.28 246.955 348.689 246.141L348.652 246.118C335.182 236.478 323.393 224.823 313.614 211.483C303.185 197.255 295.296 181.471 290.164 164.562L290.104 164.365L306.179 152.836L306.282 153.243C310.437 169.924 317.627 185.464 327.645 199.433C336.596 211.913 347.525 222.708 360.125 231.517C362.331 233.06 363.649 235.49 363.746 238.191C363.839 240.827 362.732 243.278 360.709 244.917C360.598 245.008 360.484 245.096 360.367 245.182C358.443 246.619 356.109 247.353 353.761 247.353L353.756 247.356ZM348.968 245.646C352.518 247.453 356.855 247.094 360.023 244.729C360.134 244.647 360.242 244.564 360.347 244.476C362.231 242.95 363.262 240.668 363.173 238.214C363.085 235.695 361.853 233.424 359.798 231.987C347.144 223.141 336.169 212.3 327.181 199.766C317.203 185.851 310.022 170.385 305.832 153.789L290.768 164.593C295.882 181.365 303.723 197.028 314.075 211.147C323.814 224.433 335.555 236.04 348.968 245.643V245.646Z" fill="#231F20"/>
<path d="M299.504 172.431C306.265 172.431 311.745 166.951 311.745 160.19C311.745 153.429 306.265 147.949 299.504 147.949C292.743 147.949 287.263 153.429 287.263 160.19C287.263 166.951 292.743 172.431 299.504 172.431Z" fill="#27AAE1"/>
<path d="M299.527 172.719C299.126 172.719 298.725 172.699 298.318 172.662C291.441 172.007 286.381 165.882 287.036 159.006C287.351 155.676 288.948 152.668 291.527 150.536C294.105 148.404 297.361 147.405 300.691 147.721C307.568 148.376 312.628 154.501 311.973 161.377C311.657 164.707 310.061 167.715 307.482 169.847C305.217 171.72 302.427 172.719 299.527 172.719ZM299.482 148.233C296.712 148.233 294.051 149.187 291.888 150.974C289.426 153.009 287.904 155.881 287.602 159.06C286.979 165.623 291.808 171.469 298.372 172.095C301.551 172.397 304.659 171.444 307.121 169.409C309.583 167.374 311.105 164.502 311.407 161.323C312.03 154.76 307.2 148.914 300.637 148.287C300.25 148.25 299.866 148.233 299.485 148.233H299.482Z" fill="#231F20"/>
<path d="M350.719 245.25C349.285 245.25 347.819 244.982 346.41 244.427L346.621 243.898C351.081 245.662 356.155 244.37 358.686 240.827C361.424 236.987 359.878 232.368 359.693 231.853L360.228 231.659C360.425 232.203 362.055 237.081 359.147 241.157C357.268 243.787 354.078 245.25 350.719 245.25Z" fill="#231F20"/>
<path d="M347.152 242.734C345.717 242.734 344.252 242.466 342.843 241.911L343.053 241.382C347.513 243.146 352.588 241.854 355.118 238.311C357.856 234.471 356.311 229.852 356.126 229.337L356.661 229.143C356.857 229.687 358.488 234.565 355.579 238.641C353.704 241.271 350.51 242.734 347.152 242.734Z" fill="#231F20"/>
<path d="M343.624 239.817C342.189 239.817 340.723 239.549 339.314 238.994L339.525 238.465C343.985 240.229 349.06 238.937 351.59 235.394C354.328 231.554 352.782 226.935 352.597 226.42L353.132 226.226C353.329 226.77 354.96 231.648 352.051 235.724C350.175 238.354 346.982 239.817 343.624 239.817Z" fill="#231F20"/>
<path d="M340.182 236.689C338.804 236.689 337.401 236.444 336.044 235.932L335.975 235.895L335.201 235.309L335.548 234.856L336.283 235.414C340.763 237.087 345.795 235.713 348.259 232.138C350.937 228.256 349.321 223.662 349.127 223.15L349.66 222.948C349.865 223.488 351.572 228.341 348.729 232.46C346.859 235.169 343.609 236.686 340.182 236.686V236.689Z" fill="#231F20"/>
<path d="M336.573 233.635C335.318 233.635 334.037 233.43 332.779 233.003L332.961 232.465C337.401 233.971 342.189 232.576 344.608 229.072C347.09 225.475 345.889 221.513 345.459 220.386L345.985 220.172L345.718 220.272L345.988 220.184C346.441 221.379 347.71 225.572 345.072 229.397C343.199 232.112 339.989 233.638 336.567 233.638L336.573 233.635Z" fill="#231F20"/>
<path d="M333.083 230.504C331.879 230.504 330.652 230.307 329.454 229.9L329.636 229.362C333.914 230.817 338.57 229.436 340.958 226.004C343.688 222.079 342.026 217.525 341.826 217.022L342.356 216.814C342.566 217.349 344.325 222.165 341.425 226.331C339.566 229.004 336.413 230.507 333.083 230.507V230.504Z" fill="#231F20"/>
<path d="M330.369 226.277C328.641 226.277 326.873 225.862 325.254 225.002L324.488 224.581L324.062 224.248L324.412 223.798L324.821 224.117L325.524 224.499C329.523 226.616 334.441 225.896 337.219 222.785C340.467 219.148 339.086 214.159 339.027 213.948L339.573 213.791C339.636 214.013 341.101 219.293 337.643 223.164C335.825 225.199 333.149 226.275 330.371 226.275L330.369 226.277Z" fill="#231F20"/>
<path d="M326.608 221.684C324.314 221.684 321.951 220.969 319.928 219.538L320.258 219.074C324.174 221.846 329.408 221.795 332.707 218.949C336.276 215.869 335.872 211.014 335.815 210.47L336.381 210.41C336.444 210.985 336.871 216.111 333.08 219.381C331.301 220.915 328.993 221.687 326.61 221.687L326.608 221.684Z" fill="#231F20"/>
<path d="M323.355 217.107C320.56 217.107 317.703 215.98 315.537 213.826L315.21 213.544L315.002 213.328L315.415 212.935L315.605 213.134L315.927 213.41C319.342 216.803 324.525 217.526 328.265 215.141C332.676 212.329 332.506 206.821 332.497 206.588L333.066 206.565C333.075 206.813 333.254 212.636 328.572 215.622C327.001 216.623 325.194 217.107 323.358 217.107H323.355Z" fill="#231F20"/>
<path d="M319.661 212.243C316.829 212.243 314.003 211.079 311.882 208.916L311.862 208.893L310.963 207.769L311.407 207.413L312.298 208.526C315.152 211.429 319.345 212.431 322.985 211.076C326.466 209.781 328.976 206.44 329.383 202.561L329.949 202.621C329.52 206.713 326.864 210.243 323.184 211.612C322.043 212.036 320.85 212.241 319.661 212.241V212.243Z" fill="#231F20"/>
<path d="M317.03 208.964C314.591 208.964 312.123 208.119 310.125 206.502L310.484 206.061C313.486 208.492 317.599 209.084 320.955 207.564C324.396 206.007 326.536 202.751 326.675 198.852L327.245 198.872C327.097 202.993 324.834 206.437 321.191 208.085C319.879 208.677 318.459 208.967 317.03 208.967V208.964Z" fill="#231F20"/>
<path d="M314.613 204.926C311.904 204.926 309.172 203.864 307.1 201.9L307.492 201.488C310.27 204.123 314.292 205.045 317.738 203.833C321.242 202.6 323.812 199.302 324.287 195.431L324.851 195.499C324.35 199.584 321.632 203.064 317.926 204.368C316.859 204.744 315.738 204.926 314.613 204.926Z" fill="#231F20"/>
<path d="M312.05 199.498C307.804 199.498 303.791 197.042 302.092 193.222L302.613 192.992C304.44 197.104 309.11 199.546 313.718 198.795C317.367 198.2 320.592 195.291 321.744 191.552L322.288 191.72C321.073 195.659 317.666 198.73 313.809 199.356C313.223 199.453 312.634 199.498 312.05 199.498Z" fill="#231F20"/>
<path d="M309.514 195.18C305.624 195.18 301.855 192.832 299.889 188.993L300.395 188.734C302.593 193.02 307.141 195.351 311.455 194.401C315.081 193.601 318.033 190.638 318.972 186.853L319.524 186.989C318.531 190.982 315.412 194.11 311.578 194.956C310.892 195.106 310.203 195.18 309.514 195.18Z" fill="#231F20"/>
<path d="M307.588 191.29C303.492 191.29 299.607 188.708 297.78 184.613L298.301 184.382C300.254 188.762 304.679 191.321 309.065 190.604C312.734 190.003 315.973 187.08 317.126 183.329L317.669 183.497C316.457 187.45 313.036 190.53 309.156 191.167C308.633 191.253 308.109 191.295 307.588 191.295V191.29Z" fill="#231F20"/>
<path d="M305.863 187.015C301.44 187.015 297.253 184.117 295.671 179.834L296.206 179.638C297.817 183.998 302.265 186.841 306.782 186.403C310.428 186.047 313.818 183.338 315.215 179.657L315.748 179.86C314.251 183.799 310.753 186.588 306.836 186.969C306.512 187.001 306.185 187.018 305.86 187.018L305.863 187.015Z" fill="#231F20"/>
<path d="M302.122 177.688C297.736 177.688 293.698 174.827 292.087 170.461L292.622 170.265C294.264 174.711 298.55 177.509 303.047 177.073C306.762 176.712 309.932 174.218 311.321 170.567L311.853 170.769C310.388 174.625 307.035 177.258 303.104 177.639C302.777 177.671 302.45 177.688 302.125 177.688H302.122Z" fill="#231F20"/>
<path d="M304.062 182.484C299.511 182.484 295.248 179.453 293.745 175.044L294.283 174.859C295.786 179.262 300.189 182.217 304.757 181.886C308.46 181.619 311.807 179.111 313.284 175.503L313.81 175.719C312.254 179.527 308.716 182.174 304.797 182.456C304.552 182.473 304.304 182.481 304.062 182.481V182.484Z" fill="#231F20"/>
<path d="M377.1 289.829C383.091 308.303 400.444 321.66 420.913 321.66C434.321 321.66 446.389 315.931 454.805 306.786L456.994 304.942L377.097 289.829H377.1Z" fill="#27AAE1"/>
<path d="M420.913 321.942C410.925 321.942 401.416 318.814 393.407 312.9C385.558 307.099 379.826 299.153 376.829 289.917L376.681 289.462L457.636 304.774L455.001 306.994C446.249 316.494 433.823 321.945 420.913 321.945V321.942ZM377.52 290.199C380.52 299.127 386.121 306.812 393.746 312.444C401.656 318.288 411.051 321.376 420.913 321.376C433.672 321.376 445.95 315.988 454.594 306.596L454.619 306.57L456.35 305.11L377.517 290.199H377.52Z" fill="#231F20"/>
<path d="M364.084 262.906L481.214 280.829C478.81 296.539 464.102 307.343 448.392 304.939L388.194 295.728C372.484 293.324 361.68 278.616 364.084 262.906Z" fill="white"/>
<path d="M452.808 305.562C451.328 305.562 449.84 305.449 448.348 305.221L388.15 296.011C372.297 293.586 361.376 278.715 363.801 262.865L363.844 262.583L364.125 262.626L481.537 280.59L481.495 280.872C480.319 288.551 476.223 295.314 469.965 299.913C464.919 303.619 458.953 305.562 452.808 305.562ZM364.322 263.232C362.116 278.666 372.789 293.085 388.235 295.447L448.434 304.657C455.962 305.81 463.49 303.96 469.626 299.452C475.688 295 479.679 288.48 480.885 281.066L364.319 263.229L364.322 263.232Z" fill="#231F20"/>
<path d="M466.389 302.6L465.976 302.207C468.495 299.555 469.881 296.077 469.881 292.419C469.881 286.69 466.471 281.547 461.194 279.316L461.416 278.792C466.904 281.112 470.45 286.462 470.45 292.419C470.45 296.225 469.007 299.842 466.389 302.6Z" fill="#231F20"/>
<path d="M453.475 303.302C459.926 303.302 465.155 298.073 465.155 291.622C465.155 285.171 459.926 279.941 453.475 279.941C447.024 279.941 441.794 285.171 441.794 291.622C441.794 298.073 447.024 303.302 453.475 303.302Z" fill="#27AAE1"/>
<path d="M453.476 303.587C446.879 303.587 441.511 298.219 441.511 291.622C441.511 285.025 446.879 279.657 453.476 279.657C460.073 279.657 465.441 285.025 465.441 291.622C465.441 298.219 460.073 303.587 453.476 303.587ZM453.476 280.226C447.192 280.226 442.08 285.338 442.08 291.622C442.08 297.906 447.192 303.018 453.476 303.018C459.76 303.018 464.872 297.906 464.872 291.622C464.872 285.338 459.76 280.226 453.476 280.226Z" fill="#231F20"/>
<path d="M437.534 288.656C412.875 284.305 365.988 276.059 365.037 275.997L365.046 275.428C365.817 275.428 430.282 286.801 437.631 288.096L437.531 288.656H437.534Z" fill="#231F20"/>
<path d="M430.446 136.413C430.87 136.413 432.157 134.432 432.92 133.399C434.306 131.518 436.611 130.542 438.922 130.889L451.01 132.702C453.494 133.075 455.518 134.893 456.153 137.324L457.12 141.032L430.449 136.416L430.446 136.413Z" fill="#9BCDEE"/>
<path d="M457.505 141.388L430.398 136.695L430.447 136.129C430.427 136.129 430.415 136.131 430.415 136.131C430.7 136.032 431.637 134.706 432.14 133.994C432.34 133.715 432.524 133.45 432.69 133.228C434.15 131.247 436.552 130.243 438.962 130.604L451.05 132.417C453.651 132.807 455.76 134.703 456.424 137.25L457.502 141.385L457.505 141.388ZM431.147 136.248L456.731 140.677L455.874 137.395C455.268 135.07 453.341 133.339 450.965 132.984L438.877 131.171C436.677 130.84 434.48 131.76 433.145 133.57C432.983 133.789 432.798 134.051 432.601 134.327C431.933 135.272 431.48 135.884 431.144 136.248H431.147Z" fill="#231F20"/>
<path d="M535.933 348.699L523.344 363.143C512.036 358.501 495.523 350.17 478.933 335.407C463.547 321.711 453.753 307.512 447.827 297.317C446.305 293.486 447.085 289.115 449.831 286.083C449.925 285.978 450.022 285.876 450.121 285.776C453.875 281.948 460.311 282.899 462.955 287.563C468.488 297.334 477.572 310.535 491.883 323.009C508.638 337.616 525.405 344.987 535.935 348.701L535.933 348.699Z" fill="#C4C0BB"/>
<path d="M523.426 363.481L523.238 363.405C506.892 356.693 491.922 347.344 478.747 335.618C466.392 324.62 455.907 311.781 447.584 297.457L447.567 297.42C446.013 293.509 446.822 288.984 449.625 285.89C449.722 285.782 449.822 285.677 449.921 285.574C451.746 283.716 454.29 282.845 456.903 283.186C459.581 283.536 461.878 285.079 463.204 287.421C470.781 300.798 480.494 312.701 492.073 322.793C505.031 334.089 519.82 342.713 536.034 348.431L536.43 348.571L523.431 363.484L523.426 363.481ZM448.085 297.189C456.376 311.454 466.819 324.239 479.123 335.191C492.201 346.832 507.049 356.119 523.263 362.798L535.445 348.824C519.321 343.083 504.601 334.468 491.694 323.217C480.068 313.082 470.314 301.131 462.706 287.697C461.471 285.514 459.328 284.074 456.826 283.747C454.39 283.428 452.022 284.239 450.325 285.967C450.229 286.064 450.135 286.163 450.044 286.266C447.388 289.197 446.622 293.481 448.085 297.183V297.189Z" fill="#231F20"/>
<path d="M528.475 366.76C535.235 366.76 540.716 361.279 540.716 354.519C540.716 347.758 535.235 342.278 528.475 342.278C521.714 342.278 516.233 347.758 516.233 354.519C516.233 361.279 521.714 366.76 528.475 366.76Z" fill="#27AAE1"/>
<path d="M528.474 367.045C521.567 367.045 515.948 361.426 515.948 354.519C515.948 347.611 521.567 341.993 528.474 341.993C535.382 341.993 541 347.611 541 354.519C541 361.426 535.382 367.045 528.474 367.045ZM528.474 342.562C521.882 342.562 516.517 347.924 516.517 354.519C516.517 361.113 521.88 366.475 528.474 366.475C535.069 366.475 540.431 361.113 540.431 354.519C540.431 347.924 535.069 342.562 528.474 342.562Z" fill="#231F20"/>
<path d="M449.058 299.85C447.652 294.995 449.527 289.792 453.518 287.481C457.849 284.973 462.551 287.057 463.075 287.304L462.833 287.82C462.338 287.586 457.884 285.611 453.805 287.973C450.037 290.156 448.269 295.083 449.604 299.691L449.058 299.85Z" fill="#231F20"/>
<path d="M451.221 303.639C449.815 298.783 451.69 293.58 455.681 291.269C460.013 288.762 464.714 290.845 465.238 291.093L464.996 291.608C464.501 291.375 460.047 289.4 455.968 291.762C452.2 293.945 450.432 298.871 451.767 303.479L451.221 303.639Z" fill="#231F20"/>
<path d="M453.794 307.429C452.388 302.574 454.264 297.371 458.254 295.06C462.586 292.553 467.288 294.636 467.811 294.884L467.569 295.399C467.074 295.165 462.623 293.19 458.541 295.552C454.773 297.735 453.006 302.662 454.341 307.27L453.794 307.429Z" fill="#231F20"/>
<path d="M457.072 311.872L456.531 310.973C455.202 306.095 457.16 300.923 461.187 298.675C465.556 296.236 470.227 298.393 470.745 298.649L470.494 299.162C470.005 298.92 465.582 296.876 461.463 299.173C457.672 301.29 455.828 306.169 457.069 310.785L457.553 311.571L457.069 311.872H457.072Z" fill="#231F20"/>
<path d="M459.136 314.499C457.997 309.692 459.955 304.797 463.892 302.599C467.947 300.334 472.003 301.996 473.15 302.56L472.911 303.078L472.9 303.072C471.815 302.54 467.984 300.969 464.17 303.098C460.453 305.172 458.612 309.809 459.691 314.371L459.136 314.502V314.499Z" fill="#231F20"/>
<path d="M461.912 318.105C460.81 313.463 462.74 308.702 466.599 306.524C471.022 304.031 475.647 306.24 476.162 306.499L475.906 307.005C475.422 306.761 471.045 304.672 466.881 307.02C463.238 309.072 461.425 313.577 462.467 317.974L461.912 318.105Z" fill="#231F20"/>
<path d="M467.027 324.008L466.714 323.51L466.389 322.753C464.559 318.327 465.823 313.213 469.389 310.592C473.567 307.518 478.687 309.473 478.901 309.558L478.693 310.088C478.488 310.008 473.655 308.161 469.725 311.05C466.367 313.52 465.183 318.35 466.913 322.534L467.226 323.265L467.505 323.704L467.024 324.008H467.027Z" fill="#231F20"/>
<path d="M471.327 328.568C468.808 324.185 469.4 318.686 472.73 315.493C476.345 312.029 481.408 312.94 481.971 313.057L481.858 313.614C481.322 313.503 476.527 312.641 473.123 315.906C469.978 318.92 469.431 324.125 471.819 328.286L471.327 328.571V328.568Z" fill="#231F20"/>
<path d="M477.043 334.06L476.864 333.853L476.585 333.463C473.386 329.566 473.155 324.039 476.044 320.336C479.46 315.956 485.24 316.685 485.485 316.719L485.408 317.282C485.177 317.251 479.71 316.559 476.494 320.686C473.767 324.184 473.995 329.413 477.038 333.118L477.311 333.503L477.473 333.69L477.043 334.063V334.06Z" fill="#231F20"/>
<path d="M482.19 338.603L481.136 337.582C478.364 334.292 477.733 329.775 479.523 326.075C481.233 322.54 484.999 320.229 489.114 320.192L489.12 320.761C485.218 320.798 481.652 322.981 480.035 326.325C478.344 329.82 478.942 334.089 481.563 337.206L482.588 338.196L482.192 338.606L482.19 338.603Z" fill="#231F20"/>
<path d="M483.375 339.562C481.121 336.164 480.916 331.781 482.851 328.397C484.835 324.925 488.478 322.998 492.594 323.243L492.56 323.812C488.663 323.584 485.219 325.403 483.344 328.682C481.514 331.881 481.713 336.028 483.85 339.249L483.375 339.565V339.562Z" fill="#231F20"/>
<path d="M487.673 343.006C485.182 339.824 484.619 335.501 486.241 331.994C487.889 328.431 491.612 326.054 495.727 325.941L495.741 326.51C491.842 326.618 488.316 328.864 486.756 332.233C485.225 335.549 485.76 339.639 488.119 342.653L487.673 343.003V343.006Z" fill="#231F20"/>
<path d="M495.837 348.815C491.693 346.481 489.593 341.333 490.84 336.571C491.83 332.791 495.208 329.689 499.244 328.855L499.361 329.413C495.53 330.207 492.328 333.141 491.392 336.716C490.208 341.23 492.197 346.111 496.119 348.32L495.84 348.815H495.837Z" fill="#231F20"/>
<path d="M499.835 351.408C495.557 348.676 493.571 343.658 495.005 339.206C496.209 335.469 499.619 332.66 503.689 332.048L503.774 332.612C499.915 333.19 496.687 335.848 495.549 339.38C494.194 343.584 496.084 348.334 500.142 350.927L499.835 351.408Z" fill="#231F20"/>
<path d="M503.997 353.921C499.594 351.436 497.357 346.524 498.553 341.976C499.552 338.176 502.944 335.062 506.994 334.228L507.108 334.786C503.266 335.578 500.05 338.526 499.102 342.121C497.972 346.419 500.098 351.066 504.276 353.426L503.997 353.921Z" fill="#231F20"/>
<path d="M508.553 356.477C504.136 354.351 501.595 349.393 502.508 344.685C503.26 340.823 506.368 337.604 510.429 336.486L510.58 337.035C506.783 338.079 503.763 341.196 503.066 344.793C502.201 349.251 504.612 353.949 508.798 355.965L508.551 356.477H508.553Z" fill="#231F20"/>
<path d="M517.544 360.931C513.042 358.762 510.531 353.975 511.442 349.288C512.196 345.411 515.134 342.323 519.11 341.227L519.261 341.777C515.492 342.813 512.712 345.733 512 349.396C511.138 353.83 513.52 358.364 517.792 360.419L517.544 360.931Z" fill="#231F20"/>
<path d="M513.143 358.848C508.671 356.83 506.007 351.906 506.81 347.142C507.462 343.268 510.43 339.998 514.369 338.808L514.534 339.352C510.8 340.482 507.988 343.576 507.371 347.236C506.611 351.75 509.135 356.415 513.376 358.327L513.143 358.845V358.848Z" fill="#231F20"/>
<path d="M470.525 292.038L470.433 292.599L476.03 293.518L476.122 292.956L470.525 292.038Z" fill="#231F20"/>
<path d="M358.021 254.861L367.047 192.269C372.281 155.972 406.022 130.843 442.296 136.231C478.356 141.585 503.303 175.084 498.1 211.167L489.217 272.778L358.021 254.864V254.861Z" fill="white"/>
<path d="M489.46 273.094L357.7 255.103L366.765 192.226C369.307 174.597 378.574 159.026 392.861 148.387C407.149 137.748 424.718 133.328 442.339 135.947C459.854 138.548 475.326 147.801 485.902 162.003C496.478 176.205 500.91 193.678 498.385 211.204L489.462 273.094H489.46ZM358.346 254.616L488.978 272.453L497.821 211.124C500.326 193.749 495.932 176.424 485.446 162.344C474.961 148.265 459.623 139.089 442.256 136.51C424.787 133.917 407.365 138.297 393.203 148.845C379.038 159.393 369.85 174.828 367.329 192.309L358.343 254.619L358.346 254.616Z" fill="#231F20"/>
<path d="M357.54 264.365C361.747 265.056 365.95 265.748 370.157 266.437C380.258 268.096 390.356 269.755 400.457 271.417C412.678 273.427 424.9 275.433 437.121 277.443C447.692 279.179 458.259 280.918 468.83 282.654C473.976 283.499 479.116 284.364 484.264 285.19C484.338 285.201 484.412 285.215 484.486 285.227C487.404 285.705 490.068 285.696 492.712 284.151C494.926 282.856 497.038 280.317 497.616 277.773C498.239 275.04 498.102 271.975 496.54 269.547C495.125 267.353 492.848 265.085 490.162 264.643C485.955 263.952 481.751 263.26 477.545 262.571C467.444 260.912 457.346 259.253 447.245 257.591C435.023 255.581 422.802 253.575 410.581 251.565C400.01 249.829 389.442 248.09 378.872 246.354C373.726 245.509 368.586 244.644 363.437 243.818C363.363 243.807 363.289 243.793 363.215 243.781C360.298 243.303 357.634 243.312 354.99 244.857C352.776 246.152 350.664 248.691 350.086 251.235C349.463 253.968 349.599 257.033 351.162 259.461C352.576 261.655 354.853 263.923 357.54 264.365Z" fill="#9BCDEE"/>
<path d="M487.483 285.79C486.422 285.79 485.4 285.665 484.441 285.509L484.219 285.472C480.789 284.92 477.306 284.345 473.936 283.787C472.22 283.502 470.503 283.218 468.784 282.936L357.494 264.646C354.136 264.094 351.779 260.944 350.923 259.614C349.477 257.369 349.081 254.372 349.81 251.173C350.379 248.68 352.403 246.044 354.847 244.612C357.779 242.896 360.748 243.087 363.261 243.502L363.483 243.539C366.912 244.092 370.396 244.667 373.766 245.224C375.482 245.509 377.198 245.794 378.917 246.075L490.207 264.365C493.566 264.917 495.922 268.068 496.779 269.397C498.225 271.642 498.62 274.639 497.895 277.838C497.325 280.332 495.302 282.967 492.857 284.399C491.041 285.46 489.211 285.793 487.486 285.793L487.483 285.79ZM360.19 243.779C358.545 243.779 356.848 244.1 355.135 245.102C352.852 246.437 350.891 248.984 350.365 251.298C349.964 253.063 349.562 256.452 351.404 259.304C352.221 260.568 354.455 263.568 357.588 264.083L468.878 282.372C470.594 282.654 472.313 282.939 474.03 283.223C477.399 283.781 480.883 284.359 484.313 284.908L484.535 284.945C487.071 285.361 489.8 285.526 492.569 283.903C494.852 282.569 496.813 280.018 497.34 277.707C497.741 275.943 498.142 272.553 496.301 269.701C495.484 268.438 493.25 265.438 490.116 264.923L378.826 246.633C377.11 246.351 375.391 246.067 373.675 245.782C370.305 245.224 366.821 244.647 363.392 244.097L363.17 244.06C362.202 243.901 361.206 243.779 360.19 243.779Z" fill="#231F20"/>
<path d="M387.759 152.949L387.667 153.51L490.296 170.243L490.387 169.681L387.759 152.949Z" fill="#231F20"/>
<path d="M445.728 183.934L385.129 174.282C383.266 173.986 381.515 175.255 381.219 177.118L376.081 209.377C375.784 211.239 377.053 212.99 378.916 213.287L439.515 222.939C441.378 223.235 443.128 221.966 443.425 220.103L448.563 187.845C448.86 185.982 447.59 184.231 445.728 183.934Z" fill="#9BCDEE"/>
<path d="M440.054 223.272C439.86 223.272 439.667 223.258 439.471 223.226L378.871 213.572C376.855 213.25 375.478 211.352 375.8 209.337L380.937 177.079C381.258 175.064 383.157 173.686 385.172 174.008L445.772 183.662C447.787 183.984 449.165 185.882 448.843 187.897L443.706 220.155C443.415 221.974 441.839 223.275 440.054 223.275V223.272ZM439.562 222.663C441.266 222.936 442.875 221.769 443.145 220.064L448.282 187.806C448.553 186.101 447.389 184.493 445.684 184.223L385.084 174.569C383.379 174.295 381.771 175.462 381.5 177.167L376.363 209.425C376.093 211.13 377.257 212.738 378.962 213.009L439.562 222.663Z" fill="#231F20"/>
<path d="M405.456 199.606C404.389 195.288 400.865 192.05 396.474 191.349C391.957 190.629 387.406 192.815 385.143 196.788L384.4 196.367C386.837 192.087 391.741 189.733 396.607 190.507C401.338 191.261 405.135 194.751 406.284 199.401L405.456 199.606Z" fill="white"/>
<path d="M436.452 204.544C435.385 200.227 431.861 196.988 427.47 196.288C422.953 195.568 418.402 197.753 416.139 201.727L415.396 201.305C417.833 197.025 422.74 194.671 427.604 195.445C432.334 196.199 436.131 199.692 437.28 204.339L436.452 204.544Z" fill="white"/>
<path d="M470.196 261.874L469.633 261.791C469.721 261.188 478.373 201.413 479.942 190.962C481.498 180.588 477.093 168.495 477.05 168.375L477.585 168.179C477.63 168.301 482.085 180.526 480.508 191.048C478.94 201.499 470.287 261.273 470.202 261.874H470.196Z" fill="#231F20"/>
<path d="M489.633 217.793C491.309 203.293 486.142 190.785 478.094 189.855C470.046 188.926 462.164 199.926 460.489 214.427C458.814 228.927 463.98 241.435 472.028 242.365C480.076 243.294 487.958 232.293 489.633 217.793Z" fill="#231F20"/>
<path d="M472.997 242.708C472.664 242.708 472.333 242.688 472.003 242.651C468.004 242.19 464.578 238.974 462.358 233.598C460.161 228.278 459.401 221.459 460.215 214.398C461.905 199.766 469.943 188.629 478.134 189.577C482.133 190.038 485.56 193.254 487.78 198.63C489.977 203.95 490.737 210.769 489.923 217.83C489.106 224.892 486.812 231.355 483.459 236.034C480.351 240.372 476.671 242.708 472.997 242.708ZM477.149 190.089C469.596 190.089 462.372 200.699 460.781 214.463C459.976 221.428 460.724 228.148 462.884 233.379C465.022 238.556 468.283 241.647 472.069 242.085C475.854 242.523 479.733 240.255 482.995 235.704C486.294 231.102 488.551 224.732 489.356 217.765C490.162 210.797 489.413 204.081 487.253 198.849C485.116 193.672 481.854 190.581 478.068 190.143C477.761 190.109 477.454 190.089 477.146 190.089H477.149Z" fill="#231F20"/>
<path d="M493.067 218.057C494.742 203.557 489.576 191.049 481.528 190.119C473.48 189.189 465.598 200.19 463.923 214.69C462.248 229.19 467.414 241.698 475.462 242.628C483.51 243.558 491.392 232.557 493.067 218.057Z" fill="#27AAE1"/>
<path d="M476.433 242.97C476.1 242.97 475.77 242.95 475.44 242.913C471.441 242.452 468.014 239.236 465.794 233.859C463.597 228.54 462.837 221.721 463.651 214.659C465.342 200.027 473.382 188.89 481.57 189.838C485.569 190.299 488.996 193.515 491.216 198.892C493.413 204.211 494.173 211.03 493.359 218.092C492.542 225.153 490.248 231.617 486.896 236.296C483.788 240.633 480.108 242.97 476.433 242.97ZM480.586 190.353C473.032 190.353 465.809 200.964 464.218 214.728C463.412 221.692 464.161 228.412 466.321 233.643C468.458 238.82 471.72 241.911 475.505 242.349C479.291 242.785 483.17 240.519 486.432 235.968C489.73 231.366 491.987 224.996 492.793 218.029C493.598 211.065 492.85 204.345 490.689 199.114C488.552 193.937 485.29 190.846 481.505 190.407C481.198 190.373 480.89 190.353 480.583 190.353H480.586Z" fill="#231F20"/>
<path d="M485.782 217.215C486.62 209.965 484.036 203.711 480.013 203.246C475.989 202.781 472.047 208.282 471.21 215.532C470.372 222.782 472.955 229.036 476.979 229.501C481.003 229.966 484.944 224.465 485.782 217.215Z" fill="#231F20"/>
<path d="M477.469 229.818C477.298 229.818 477.128 229.809 476.957 229.789C474.905 229.553 473.149 227.914 472.019 225.176C470.912 222.495 470.527 219.059 470.937 215.505C471.347 211.95 472.505 208.694 474.196 206.337C475.921 203.929 478.001 202.731 480.056 202.97C482.108 203.206 483.864 204.846 484.994 207.584C486.101 210.265 486.486 213.7 486.076 217.255C485.666 220.81 484.508 224.066 482.817 226.422C481.235 228.631 479.356 229.818 477.472 229.818H477.469ZM479.544 203.508C477.848 203.508 476.129 204.615 474.657 206.667C473.023 208.95 471.902 212.112 471.501 215.57C471.099 219.028 471.472 222.364 472.542 224.957C473.59 227.495 475.181 229.009 477.019 229.223C478.858 229.436 480.751 228.324 482.35 226.089C483.984 223.807 485.105 220.645 485.507 217.187C485.908 213.729 485.535 210.393 484.465 207.8C483.418 205.261 481.827 203.747 479.988 203.534C479.84 203.517 479.692 203.508 479.541 203.508H479.544Z" fill="#231F20"/>
<path d="M487.885 217.768C488.722 210.518 486.139 204.264 482.115 203.799C478.091 203.334 474.15 208.834 473.312 216.084C472.475 223.334 475.058 229.589 479.082 230.053C483.106 230.518 487.047 225.018 487.885 217.768Z" fill="#9BCDEE"/>
<path d="M479.572 230.368C479.401 230.368 479.23 230.359 479.059 230.339C477.007 230.103 475.251 228.464 474.121 225.726C473.014 223.045 472.63 219.609 473.04 216.054C473.45 212.5 474.608 209.244 476.299 206.887C478.023 204.479 480.104 203.281 482.159 203.52C484.211 203.756 485.967 205.396 487.097 208.134C488.204 210.815 488.588 214.25 488.178 217.805C487.769 221.36 486.61 224.616 484.92 226.972C483.337 229.181 481.459 230.368 479.575 230.368H479.572ZM481.647 204.058C479.95 204.058 478.231 205.165 476.76 207.217C475.126 209.5 474.005 212.662 473.603 216.12C473.202 219.578 473.575 222.914 474.645 225.507C475.692 228.045 477.283 229.559 479.122 229.773C480.961 229.986 482.853 228.874 484.453 226.639C486.086 224.357 487.208 221.195 487.609 217.737C488.01 214.278 487.638 210.943 486.567 208.35C485.52 205.811 483.929 204.297 482.091 204.084C481.943 204.067 481.795 204.058 481.644 204.058H481.647Z" fill="#231F20"/>
<path d="M447.299 110.607L444.039 131.568L446.008 131.874L449.268 110.914L447.299 110.607Z" fill="#231F20"/>
<path d="M448.842 114.239C453.264 114.239 456.848 110.655 456.848 106.233C456.848 101.811 453.264 98.2266 448.842 98.2266C444.42 98.2266 440.836 101.811 440.836 106.233C440.836 110.655 444.42 114.239 448.842 114.239Z" fill="#27AAE1"/>
<path d="M448.842 114.521C444.271 114.521 440.551 110.801 440.551 106.23C440.551 101.659 444.271 97.939 448.842 97.939C453.412 97.939 457.132 101.659 457.132 106.23C457.132 110.801 453.412 114.521 448.842 114.521ZM448.842 98.5111C444.584 98.5111 441.12 101.975 441.12 106.233C441.12 110.491 444.584 113.954 448.842 113.954C453.099 113.954 456.563 110.491 456.563 106.233C456.563 101.975 453.099 98.5111 448.842 98.5111Z" fill="#231F20"/>
<path d="M443.309 304.458L442.1 304.265L442.051 304.233C441.653 303.983 441.288 303.684 440.967 303.348C437.039 299.244 436.709 295.211 436.709 291.75C436.709 285.608 439.76 280.795 445.082 278.544L445.304 279.068C440.204 281.225 437.278 285.847 437.278 291.75C437.278 295.1 437.594 299.002 441.377 302.952C441.653 303.243 441.966 303.499 442.305 303.721L443.397 303.895L443.306 304.455L443.309 304.458Z" fill="#231F20"/>
</svg>
