<svg width="600" height="600" viewBox="0 0 600 600" fill="none" xmlns="http://www.w3.org/2000/svg">
<path d="M293.452 240.228V221.724C293.452 220.846 293.428 219.96 293.475 219.081C293.499 218.733 293.531 218.393 293.578 218.053L293.491 218.686C293.657 217.483 293.974 216.313 294.441 215.197L294.203 215.767C294.662 214.675 295.263 213.654 295.991 212.721L295.619 213.203C296.331 212.286 297.154 211.463 298.072 210.751L297.589 211.123C298.523 210.403 299.551 209.802 300.635 209.335L300.065 209.572C301.181 209.106 302.352 208.781 303.554 208.623L302.921 208.71C304.14 208.544 305.382 208.544 306.608 208.71L305.975 208.623C307.178 208.789 308.348 209.106 309.464 209.572L308.894 209.335C309.986 209.794 311.007 210.395 311.94 211.123L311.458 210.751C312.375 211.463 313.198 212.286 313.91 213.203L313.538 212.721C314.258 213.654 314.859 214.683 315.326 215.767L315.089 215.197C315.555 216.313 315.88 217.483 316.038 218.686L315.951 218.053C316.093 219.129 316.078 220.213 316.078 221.297V237.522C316.078 238.408 316.078 239.302 316.078 240.188C316.078 240.204 316.078 240.212 316.078 240.228C316.078 240.837 316.339 241.478 316.774 241.905C316.987 242.135 317.241 242.301 317.541 242.396C317.826 242.546 318.127 242.609 318.459 242.601C319.076 242.578 319.709 242.372 320.136 241.905C320.563 241.438 320.832 240.869 320.832 240.228V220.482C320.832 220.3 320.832 220.118 320.832 219.936C320.832 219.042 320.737 218.164 320.603 217.278C320.452 216.257 320.191 215.252 319.812 214.287C319.377 213.172 318.87 212.088 318.206 211.091C316.877 209.106 315.168 207.428 313.135 206.17C312.122 205.546 311.015 205.047 309.883 204.659C308.752 204.272 307.51 204.042 306.284 203.908C305.247 203.797 304.195 203.797 303.159 203.916C301.925 204.058 300.722 204.28 299.551 204.691C297.289 205.498 295.224 206.74 293.507 208.425C292.669 209.248 291.917 210.189 291.268 211.17C290.612 212.167 290.105 213.259 289.678 214.374C289.314 215.332 289.061 216.336 288.919 217.349C288.8 218.203 288.705 219.05 288.705 219.92C288.705 220.474 288.705 221.036 288.705 221.589V240.204C288.705 240.813 288.966 241.454 289.401 241.881C289.615 242.111 289.868 242.277 290.169 242.372C290.453 242.522 290.754 242.585 291.086 242.578C291.703 242.554 292.336 242.348 292.763 241.881C293.191 241.415 293.46 240.845 293.46 240.204L293.452 240.228Z" fill="white"/>
<path d="M291.008 242.878C290.66 242.878 290.335 242.799 290.035 242.641C289.742 242.546 289.441 242.356 289.196 242.095C288.721 241.62 288.429 240.908 288.429 240.228V219.944C288.429 219.01 288.539 218.1 288.642 217.333C288.785 216.289 289.046 215.268 289.418 214.295C289.9 213.014 290.43 211.954 291.031 211.036C291.72 209.984 292.487 209.042 293.302 208.243C295.019 206.566 297.083 205.284 299.441 204.446C300.493 204.074 301.624 203.829 303.112 203.655C304.172 203.528 305.24 203.528 306.3 203.647C307.748 203.805 308.911 204.05 309.955 204.414C311.181 204.841 312.289 205.356 313.262 205.949C315.311 207.207 317.043 208.892 318.42 210.949C319.029 211.859 319.543 212.887 320.057 214.192C320.437 215.173 320.714 216.202 320.864 217.246C320.975 218.029 321.094 218.963 321.094 219.936V240.228C321.094 240.9 320.825 241.549 320.326 242.095C319.891 242.57 319.227 242.847 318.459 242.878C318.08 242.886 317.732 242.815 317.407 242.641C317.115 242.546 316.814 242.356 316.569 242.095C316.094 241.62 315.801 240.908 315.801 240.228C315.801 239.603 315.801 239.01 315.801 238.416V220.941C315.801 220.102 315.801 219.24 315.722 218.393C315.572 217.436 315.311 216.502 314.955 215.601C314.567 214.738 314.085 213.908 313.523 213.148C312.93 212.412 312.257 211.74 311.521 211.147C310.754 210.585 309.923 210.102 309.061 209.707C308.159 209.351 307.218 209.098 306.268 208.939C305.279 208.829 304.275 208.829 303.286 208.939C302.329 209.09 301.395 209.351 300.485 209.707C299.615 210.094 298.792 210.577 298.025 211.147C297.289 211.74 296.617 212.412 296.023 213.148C295.462 213.915 294.979 214.738 294.584 215.608C294.228 216.51 293.967 217.46 293.816 218.417C293.792 218.646 293.769 218.876 293.761 219.105C293.721 219.746 293.729 220.403 293.737 221.043V240.228C293.737 240.9 293.476 241.549 292.97 242.095C292.535 242.57 291.87 242.847 291.103 242.878C291.071 242.878 291.047 242.878 291.016 242.878H291.008ZM304.765 204.114C304.235 204.114 303.713 204.145 303.183 204.209C301.743 204.375 300.644 204.612 299.631 204.976C297.345 205.791 295.343 207.025 293.69 208.647C292.899 209.422 292.163 210.332 291.49 211.352C290.913 212.23 290.399 213.267 289.932 214.501C289.576 215.434 289.323 216.415 289.188 217.42C289.085 218.164 288.975 219.05 288.975 219.952V240.236C288.975 240.774 289.212 241.335 289.592 241.715C289.782 241.921 289.995 242.055 290.248 242.135C290.533 242.277 290.786 242.34 291.063 242.324C291.427 242.309 292.099 242.206 292.55 241.715C292.954 241.272 293.175 240.758 293.175 240.228V221.043C293.167 220.395 293.16 219.722 293.199 219.066C293.207 218.923 293.215 218.789 293.231 218.646H293.215L293.294 218.061C293.294 218.061 293.294 218.037 293.294 218.021H293.31C293.46 217.222 293.674 216.431 293.959 215.672H293.943L294.18 215.102H294.196C294.536 214.39 294.94 213.702 295.406 213.045H295.398L295.77 212.555H295.786C296.292 211.969 296.838 211.423 297.432 210.917V210.901L297.898 210.53L297.906 210.537C298.555 210.079 299.251 209.675 299.963 209.327V209.311L300.525 209.074V209.09C301.292 208.805 302.083 208.591 302.882 208.441V208.425L303.507 208.338V208.354C304.338 208.283 305.169 208.283 305.999 208.354V208.338L306.632 208.425V208.441C307.431 208.591 308.222 208.805 308.982 209.09V209.074L309.551 209.311V209.327C310.263 209.667 310.952 210.071 311.608 210.537H311.616V210.53L312.099 210.901V210.917C312.684 211.416 313.23 211.969 313.736 212.563H313.752L314.124 213.037H314.116C314.575 213.694 314.979 214.39 315.327 215.102H315.342L315.58 215.664H315.564C315.849 216.431 316.062 217.222 316.213 218.021H316.228L316.308 218.607C316.308 218.607 316.308 218.631 316.308 218.646H316.292C316.355 219.414 316.355 220.189 316.347 220.941V238.416C316.347 239.01 316.347 239.595 316.347 240.188C316.347 240.766 316.584 241.328 316.964 241.707C317.154 241.913 317.368 242.047 317.621 242.127C317.906 242.269 318.159 242.332 318.436 242.316C318.8 242.301 319.472 242.198 319.923 241.707C320.326 241.264 320.548 240.75 320.548 240.22V219.928C320.548 218.987 320.437 218.077 320.326 217.317C320.184 216.313 319.923 215.332 319.551 214.39C319.053 213.124 318.554 212.128 317.969 211.249C316.64 209.256 314.963 207.634 312.977 206.416C312.043 205.838 310.968 205.34 309.781 204.928C308.776 204.58 307.653 204.343 306.245 204.193C305.754 204.137 305.256 204.114 304.757 204.114H304.765Z" fill="black"/>
<path d="M347.966 202.749L333.896 207.056C330.825 207.996 329.098 211.248 330.038 214.318L348.5 274.631C349.44 277.702 352.692 279.429 355.763 278.489L369.833 274.182C372.903 273.242 374.631 269.991 373.691 266.92L355.228 206.607C354.288 203.537 351.037 201.809 347.966 202.749Z" fill="#333333"/>
<path d="M354.052 278.85C353.095 278.85 352.146 278.613 351.276 278.154C349.875 277.41 348.847 276.168 348.388 274.649L329.924 214.335C328.966 211.21 330.73 207.879 333.863 206.922L347.937 202.618C349.456 202.16 351.054 202.31 352.454 203.054C353.855 203.797 354.883 205.039 355.342 206.558L373.807 266.873C374.764 269.998 373 273.328 369.867 274.285L355.793 278.589C355.215 278.763 354.63 278.85 354.045 278.85H354.052ZM349.678 202.603C349.116 202.603 348.554 202.69 348 202.856L333.927 207.159C330.92 208.077 329.227 211.273 330.145 214.272L348.61 274.586C349.053 276.042 350.042 277.236 351.386 277.948C352.731 278.66 354.274 278.811 355.73 278.368L369.804 274.064C372.81 273.146 374.503 269.95 373.585 266.952L355.12 206.637C354.677 205.182 353.689 203.987 352.344 203.275C351.505 202.832 350.595 202.603 349.678 202.603Z" fill="black"/>
<path d="M349.891 202.65H332.66C330.144 202.65 328.104 204.69 328.104 207.207V345.557C328.104 348.074 330.144 350.114 332.66 350.114H349.891C352.407 350.114 354.448 348.074 354.448 345.557V207.207C354.448 204.69 352.407 202.65 349.891 202.65Z" fill="#333333"/>
<path d="M349.889 350.232H332.651C330.072 350.232 327.976 348.136 327.976 345.557V207.199C327.976 204.62 330.072 202.523 332.651 202.523H349.889C352.468 202.523 354.565 204.62 354.565 207.199V345.557C354.565 348.136 352.468 350.232 349.889 350.232ZM332.659 202.769C330.214 202.769 328.221 204.754 328.221 207.207V345.565C328.221 348.009 330.214 350.003 332.659 350.003H349.897C352.342 350.003 354.336 348.017 354.336 345.565V207.199C354.336 204.754 352.342 202.761 349.897 202.761H332.659V202.769Z" fill="black"/>
<path d="M267.498 203.532L254.086 209.585C251.159 210.906 249.857 214.35 251.178 217.277L277.124 274.768C278.446 277.695 281.889 278.997 284.816 277.676L298.228 271.623C301.156 270.302 302.457 266.859 301.136 263.932L275.19 206.44C273.869 203.513 270.425 202.211 267.498 203.532Z" fill="#333333"/>
<path d="M282.431 278.312C280.169 278.312 278.001 277.015 277.012 274.815L251.072 217.325C249.727 214.343 251.056 210.822 254.038 209.477L267.448 203.425C268.896 202.777 270.501 202.721 271.989 203.283C273.468 203.845 274.647 204.944 275.296 206.392L301.236 263.882C301.885 265.33 301.94 266.936 301.379 268.423C300.817 269.903 299.717 271.081 298.27 271.73L284.86 277.782C284.069 278.138 283.246 278.304 282.431 278.304V278.312ZM269.884 203.133C269.085 203.133 268.294 203.299 267.543 203.639L254.133 209.691C251.269 210.98 249.996 214.366 251.285 217.222L277.226 274.713C278.515 277.576 281.901 278.858 284.757 277.561L298.167 271.509C299.551 270.884 300.611 269.752 301.149 268.328C301.687 266.904 301.64 265.362 301.015 263.969L275.074 206.479C274.449 205.095 273.318 204.034 271.894 203.496C271.237 203.251 270.557 203.125 269.877 203.125L269.884 203.133Z" fill="black"/>
<path d="M269.909 202.65H252.679C250.162 202.65 248.122 204.69 248.122 207.207V345.557C248.122 348.074 250.162 350.114 252.679 350.114H269.909C272.426 350.114 274.466 348.074 274.466 345.557V207.207C274.466 204.69 272.426 202.65 269.909 202.65Z" fill="#333333"/>
<path d="M269.908 350.232H252.67C250.091 350.232 247.994 348.136 247.994 345.557V207.199C247.994 204.62 250.091 202.523 252.67 202.523H269.908C272.487 202.523 274.583 204.62 274.583 207.199V345.557C274.583 348.136 272.487 350.232 269.908 350.232ZM252.678 202.769C250.233 202.769 248.239 204.754 248.239 207.207V345.565C248.239 348.009 250.233 350.003 252.678 350.003H269.916C272.36 350.003 274.354 348.017 274.354 345.565V207.199C274.354 204.754 272.36 202.761 269.916 202.761H252.678V202.769Z" fill="black"/>
<path d="M310.579 222.309C348.829 222.309 379.881 253.36 379.881 291.611V380.461C379.881 389.804 372.302 397.383 362.959 397.383H258.199C248.856 397.383 241.277 389.804 241.277 380.461V291.611C241.277 253.36 272.329 222.309 310.579 222.309Z" fill="#0071BC"/>
<path d="M362.959 397.501H258.2C248.801 397.501 241.159 389.859 241.159 380.461V291.611C241.159 273.067 248.382 255.639 261.491 242.522C274.6 229.413 292.036 222.19 310.579 222.19C329.123 222.19 346.551 229.413 359.668 242.522C372.777 255.631 380 273.067 380 291.611V380.461C380 389.859 372.358 397.501 362.959 397.501ZM310.579 222.428C292.099 222.428 274.726 229.627 261.657 242.688C248.588 255.757 241.397 273.13 241.397 291.611V380.461C241.397 389.725 248.936 397.264 258.2 397.264H362.959C372.223 397.264 379.762 389.725 379.762 380.461V291.611C379.762 273.13 372.563 255.757 359.502 242.688C346.433 229.619 329.06 222.428 310.579 222.428Z" fill="black"/>
<path d="M292.503 222.27C330.753 222.27 361.804 253.321 361.804 291.571V380.421C361.804 389.764 354.225 397.343 344.882 397.343H240.123C230.78 397.343 223.201 389.764 223.201 380.421V291.571C223.201 253.321 254.252 222.27 292.503 222.27Z" fill="#53A6DB"/>
<path d="M344.883 397.462H240.124C230.725 397.462 223.083 389.82 223.083 380.421V291.571C223.083 273.027 230.306 255.599 243.415 242.483C256.523 229.374 273.96 222.151 292.503 222.151C311.047 222.151 328.475 229.374 341.592 242.483C354.701 255.591 361.924 273.027 361.924 291.571V380.421C361.924 389.82 354.281 397.462 344.883 397.462ZM292.503 222.388C274.023 222.388 256.65 229.587 243.581 242.649C230.512 255.718 223.32 273.091 223.32 291.571V380.421C223.32 389.685 230.86 397.225 240.124 397.225H344.883C354.147 397.225 361.686 389.685 361.686 380.421V291.571C361.686 273.091 354.487 255.718 341.426 242.649C328.357 229.58 310.984 222.388 292.503 222.388Z" fill="#221F20"/>
<path d="M271.483 334.212H311.695C333.103 334.212 350.491 351.593 350.491 373.009V381.458C350.491 390.381 343.253 397.62 334.329 397.62H248.857C239.933 397.62 232.694 390.381 232.694 381.458V373.009C232.694 351.601 250.075 334.212 271.491 334.212H271.483Z" fill="#F1BB67"/>
<path d="M334.329 397.739H248.857C239.878 397.739 232.576 390.437 232.576 381.458V373.009C232.576 351.554 250.028 334.094 271.491 334.094H311.703C333.158 334.094 350.618 351.546 350.618 373.009V381.458C350.618 390.437 343.316 397.739 334.337 397.739H334.329ZM271.483 334.331C250.155 334.331 232.806 351.68 232.806 373.001V381.45C232.806 390.294 240.005 397.494 248.849 397.494H334.321C343.166 397.494 350.365 390.294 350.365 381.45V373.001C350.365 351.672 333.016 334.331 311.688 334.331H271.475H271.483Z" fill="#221F20"/>
<path d="M250.74 360.224H329.456C330.516 360.224 331.584 360.24 332.644 360.224C332.692 360.224 332.739 360.224 332.786 360.224C333.926 360.224 335.009 359.227 334.954 358.057C334.899 356.886 333.997 355.889 332.786 355.889H254.071C253.011 355.889 251.942 355.873 250.882 355.889C250.835 355.889 250.787 355.889 250.74 355.889C249.601 355.889 248.517 356.886 248.572 358.057C248.628 359.227 249.53 360.224 250.74 360.224Z" fill="#333333"/>
<path d="M331.584 360.351C331.228 360.351 330.872 360.351 330.524 360.351C330.168 360.351 329.82 360.351 329.464 360.351H250.748C249.522 360.351 248.517 359.346 248.462 358.064C248.438 357.503 248.652 356.949 249.079 356.514C249.53 356.039 250.139 355.77 250.756 355.77H250.898C251.602 355.77 252.314 355.77 253.026 355.77C253.382 355.77 253.731 355.77 254.087 355.77H332.802C334.029 355.77 335.033 356.775 335.089 358.057C335.112 358.618 334.899 359.172 334.472 359.607C334.021 360.082 333.412 360.351 332.794 360.351H332.652C332.296 360.351 331.948 360.351 331.592 360.351H331.584ZM251.943 356C251.587 356 251.239 356 250.883 356H250.74C250.202 356 249.633 356.253 249.237 356.664C248.865 357.06 248.667 357.55 248.691 358.041C248.747 359.196 249.641 360.098 250.74 360.098H329.456C329.812 360.098 330.168 360.098 330.516 360.098C331.22 360.098 331.932 360.098 332.636 360.098H332.779C333.317 360.098 333.886 359.844 334.282 359.433C334.654 359.038 334.851 358.547 334.828 358.057C334.772 356.901 333.878 356 332.779 356H254.063C253.707 356 253.351 356 253.003 356C252.647 356 252.291 356 251.943 356Z" fill="black"/>
<path d="M248.636 357.194L245.416 364.164C243.739 367.795 246.389 371.941 250.392 371.941C254.395 371.941 257.045 367.795 255.368 364.164L252.148 357.194C251.452 355.691 249.324 355.691 248.628 357.194H248.636Z" fill="#333333"/>
<path d="M250.4 372.067C248.477 372.067 246.721 371.102 245.685 369.488C244.648 367.874 244.514 365.865 245.321 364.124L248.541 357.155C248.881 356.419 249.593 355.96 250.408 355.96C251.222 355.96 251.934 356.419 252.275 357.155L255.494 364.124C256.301 365.865 256.159 367.874 255.131 369.488C254.094 371.102 252.33 372.067 250.416 372.067H250.4ZM250.4 356.189C249.68 356.189 249.047 356.593 248.746 357.25L245.526 364.219C244.759 365.889 244.886 367.811 245.882 369.354C246.871 370.904 248.564 371.822 250.4 371.822C252.235 371.822 253.928 370.896 254.917 369.354C255.906 367.803 256.04 365.889 255.273 364.219L252.053 357.25C251.752 356.601 251.12 356.189 250.4 356.189Z" fill="black"/>
<path d="M292.424 221.716C331.853 221.716 363.862 253.724 363.862 293.153C363.862 295.377 362.05 297.188 359.827 297.188H225.021C222.798 297.188 220.986 295.377 220.986 293.153C220.986 253.724 252.995 221.716 292.424 221.716Z" fill="#F1BB67"/>
<path d="M359.826 297.307H225.021C222.734 297.307 220.867 295.44 220.867 293.153C220.867 274.04 228.312 256.074 241.824 242.554C255.336 229.042 273.31 221.597 292.423 221.597C311.537 221.597 329.503 229.042 343.023 242.554C356.535 256.066 363.98 274.04 363.98 293.153C363.98 295.448 362.113 297.307 359.826 297.307ZM292.423 221.835C273.373 221.835 255.463 229.255 241.99 242.72C228.517 256.193 221.105 274.103 221.105 293.153C221.105 295.313 222.861 297.069 225.021 297.069H359.826C361.986 297.069 363.742 295.313 363.742 293.153C363.742 274.103 356.322 256.193 342.857 242.72C329.384 229.247 311.473 221.835 292.423 221.835Z" fill="#221F20"/>
<path d="M289.844 283.66H281.553C277.42 283.66 274.069 287.011 274.069 291.144V305.447C274.069 309.581 277.42 312.931 281.553 312.931H289.844C293.977 312.931 297.328 309.581 297.328 305.447V291.144C297.328 287.011 293.977 283.66 289.844 283.66Z" fill="#333333"/>
<path d="M289.844 313.05H281.553C277.36 313.05 273.95 309.64 273.95 305.447V291.144C273.95 286.951 277.36 283.541 281.553 283.541H289.844C294.037 283.541 297.446 286.951 297.446 291.144V305.447C297.446 309.64 294.037 313.05 289.844 313.05ZM281.553 283.779C277.494 283.779 274.188 287.086 274.188 291.144V305.447C274.188 309.506 277.494 312.813 281.553 312.813H289.844C293.902 312.813 297.209 309.506 297.209 305.447V291.144C297.209 287.086 293.902 283.779 289.844 283.779H281.553Z" fill="black"/>
</svg>
