<svg width="600" height="600" viewBox="0 0 600 600" fill="none" xmlns="http://www.w3.org/2000/svg">
<path d="M399.987 206.64H200.14C187.825 206.64 177.842 216.623 177.842 228.938V370.522C177.842 382.837 187.825 392.82 200.14 392.82H399.987C412.302 392.82 422.286 382.837 422.286 370.522V228.938C422.286 216.623 412.302 206.64 399.987 206.64Z" fill="#DEF3FF"/>
<path d="M399.987 393H200.152C187.756 393 177.674 382.918 177.674 370.522V228.938C177.674 216.542 187.756 206.46 200.152 206.46H399.987C412.383 206.46 422.466 216.542 422.466 228.938V370.522C422.466 382.918 412.383 393 399.987 393ZM200.152 206.82C187.96 206.82 178.033 216.746 178.033 228.938V370.522C178.033 382.714 187.96 392.64 200.152 392.64H399.987C412.179 392.64 422.106 382.714 422.106 370.522V228.938C422.106 216.746 412.179 206.82 399.987 206.82H200.152Z" fill="black"/>
<path d="M367.774 231.336H231.358C219.043 231.336 209.06 241.32 209.06 253.635V346.905C209.06 359.22 219.043 369.203 231.358 369.203H367.774C380.089 369.203 390.073 359.22 390.073 346.905V253.635C390.073 241.32 380.089 231.336 367.774 231.336Z" fill="white"/>
<path d="M367.763 369.383H231.358C218.962 369.383 208.88 359.301 208.88 346.905V253.647C208.88 241.251 218.962 231.168 231.358 231.168H367.763C380.159 231.168 390.241 241.251 390.241 253.647V346.905C390.241 359.301 380.159 369.383 367.763 369.383ZM231.358 231.516C219.166 231.516 209.24 241.442 209.24 253.635V346.893C209.24 359.085 219.166 369.011 231.358 369.011H367.763C379.955 369.011 389.881 359.085 389.881 346.893V253.635C389.881 241.442 379.955 231.516 367.763 231.516H231.358Z" fill="black"/>
<path d="M347.633 313.145C343.689 323.251 339.769 333.286 335.788 343.512C334.973 342.001 334.266 340.683 333.559 339.364C332.06 336.547 330.562 333.717 329.051 330.912C328.284 329.485 327.445 329.126 325.946 329.653C322.457 330.864 318.981 332.087 315.504 333.31C314.725 333.585 313.934 333.873 313.154 334.137C312.974 334.197 312.771 334.197 312.459 334.257C313.046 332.734 313.586 331.344 314.125 329.941C316.487 323.887 318.849 317.833 321.211 311.778C322.757 307.798 324.316 303.818 325.85 299.826C326.078 299.215 326.378 299.119 327.001 299.215C328.452 299.442 329.914 299.55 331.257 300.186C333.463 301.229 334.913 302.955 335.884 305.161C337.623 309.117 340.644 311.575 344.792 312.666C345.679 312.893 346.602 312.965 347.645 313.133L347.633 313.145Z" fill="#C1272D"/>
<path d="M335.801 343.943L334.938 342.337C334.399 341.33 333.895 340.395 333.392 339.448L331.641 336.163C330.718 334.437 329.807 332.71 328.884 330.984C328.153 329.629 327.397 329.317 325.995 329.809C323.417 330.696 320.852 331.607 318.286 332.506L314.774 333.753C314.246 333.945 313.731 334.125 313.203 334.305C313.071 334.353 312.927 334.365 312.76 334.389C312.676 334.389 312.58 334.413 312.472 334.425L312.16 334.473L312.772 332.89C313.167 331.859 313.551 330.864 313.946 329.869L321.763 309.824C323.046 306.527 324.376 303.123 325.659 299.754C325.947 299.011 326.354 298.927 327.002 299.035C327.278 299.083 327.553 299.119 327.829 299.155C328.992 299.322 330.191 299.49 331.306 300.018C333.428 301.013 334.962 302.667 336.017 305.077C337.696 308.901 340.645 311.395 344.805 312.486C345.392 312.642 346.003 312.725 346.651 312.809C346.975 312.857 347.298 312.893 347.634 312.953L347.85 312.989L335.777 343.931L335.801 343.943ZM327.086 329.246C327.985 329.246 328.62 329.749 329.196 330.828C330.119 332.554 331.042 334.281 331.953 336.007L333.703 339.292C334.207 340.227 334.71 341.174 335.25 342.181L335.741 343.092L347.37 313.289C347.118 313.253 346.867 313.217 346.615 313.181C345.956 313.097 345.332 313.013 344.721 312.857C340.453 311.742 337.42 309.177 335.693 305.245C334.674 302.919 333.188 301.325 331.15 300.365C330.083 299.862 328.956 299.706 327.769 299.526C327.493 299.49 327.218 299.442 326.942 299.406C326.354 299.31 326.175 299.406 325.983 299.898C324.7 303.255 323.369 306.671 322.087 309.968L314.27 330.013C313.886 331.008 313.503 331.991 313.107 333.034L312.712 334.053C312.867 334.029 312.975 334.017 313.071 333.993C313.599 333.813 314.114 333.633 314.642 333.442L318.166 332.195C320.732 331.296 323.297 330.384 325.875 329.497C326.33 329.341 326.726 329.258 327.086 329.258V329.246Z" fill="black"/>
<path d="M377.687 343.752C373.875 333.466 370.135 323.383 366.358 313.205C366.922 313.145 367.401 313.109 367.869 313.037C372.808 312.33 376.309 309.693 378.407 305.173C379.833 302.092 382.219 300.294 385.6 299.862C386.223 299.778 386.859 299.754 387.482 299.622C387.926 299.526 388.129 299.646 388.285 300.078C389.172 302.524 390.095 304.969 391.007 307.415C393.452 313.996 395.886 320.566 398.332 327.148C399.207 329.509 400.082 331.871 400.957 334.233C401.029 334.413 401.053 334.617 401.125 334.916C400.825 334.844 400.585 334.808 400.37 334.736C396.174 333.19 391.978 331.631 387.782 330.085C386.283 329.533 385.444 329.881 384.653 331.296C382.495 335.168 380.349 339.04 378.191 342.913C378.071 343.128 377.939 343.332 377.699 343.74L377.687 343.752Z" fill="#C1272D"/>
<path d="M377.64 344.171L366.095 313.049L366.814 312.977C367.174 312.941 367.497 312.905 367.833 312.869C372.664 312.186 376.165 309.573 378.239 305.113C379.702 301.96 382.171 300.138 385.576 299.694C385.792 299.67 386.019 299.646 386.235 299.622C386.631 299.586 387.051 299.538 387.434 299.466C387.974 299.359 388.249 299.514 388.441 300.03C389.041 301.684 389.664 303.339 390.275 304.981C390.575 305.772 390.863 306.564 391.163 307.367L399.482 329.773C400.034 331.248 400.573 332.71 401.113 334.185C401.161 334.317 401.197 334.449 401.221 334.616C401.233 334.7 401.257 334.796 401.281 334.892L401.353 335.18L401.065 335.108C400.957 335.084 400.873 335.06 400.777 335.048C400.597 335.012 400.442 334.976 400.286 334.916C398.691 334.329 397.109 333.741 395.514 333.154C392.913 332.195 390.299 331.224 387.698 330.277C386.295 329.761 385.54 330.061 384.785 331.404C383.382 333.933 381.979 336.451 380.565 338.98L378.323 343.02C378.251 343.152 378.167 343.296 378.047 343.476L377.628 344.171H377.64ZM366.598 313.361L377.723 343.344L377.759 343.284C377.867 343.104 377.951 342.972 378.023 342.841L380.265 338.8C381.668 336.271 383.07 333.753 384.485 331.224C385.324 329.725 386.259 329.354 387.83 329.929C390.443 330.876 393.045 331.847 395.646 332.806C397.241 333.394 398.823 333.981 400.418 334.569C400.549 334.616 400.693 334.64 400.861 334.676H400.873C400.837 334.533 400.813 334.413 400.777 334.293C400.238 332.83 399.686 331.356 399.147 329.893L390.827 307.487C390.527 306.695 390.239 305.904 389.94 305.113C389.328 303.459 388.705 301.816 388.105 300.162C387.986 299.814 387.866 299.754 387.506 299.826C387.098 299.91 386.679 299.958 386.271 299.994C386.055 300.018 385.84 300.042 385.624 300.066C382.351 300.485 379.977 302.236 378.563 305.281C376.441 309.86 372.844 312.534 367.881 313.241C367.545 313.289 367.21 313.325 366.85 313.361L366.598 313.385V313.361Z" fill="black"/>
<path d="M290.293 266.642H233.708V267.481H290.293V266.642Z" fill="black"/>
<path d="M289.933 282.827H233.348V283.666H289.933V282.827Z" fill="black"/>
<path d="M289.574 300.09H232.988V300.929H289.574V300.09Z" fill="black"/>
<path d="M228.134 331.571L227.774 330.816C227.894 330.756 239.787 325.026 242.436 316.526C242.676 315.771 243.311 315.243 244.103 315.147C244.894 315.063 245.649 315.411 246.069 316.106C249.605 321.969 253.19 325.349 256.151 325.649C257.65 325.805 259.076 325.17 260.371 323.767C260.958 323.12 261.893 322.928 262.673 323.287C266.473 325.002 285.762 333.346 293.195 328.802L293.639 329.521C286.038 334.161 267.756 326.512 262.325 324.055C261.87 323.851 261.33 323.959 260.982 324.342C259.508 325.949 257.853 326.68 256.067 326.488C251.919 326.069 247.951 320.842 245.349 316.538C245.062 316.058 244.57 315.939 244.211 315.987C243.743 316.046 243.383 316.346 243.251 316.79C240.494 325.637 228.65 331.344 228.158 331.583L228.134 331.571Z" fill="black"/>
<path d="M317.927 291.158C318.011 290.691 318.154 289.756 318.322 288.833C319.173 284.001 317.783 279.925 314.162 276.64C312.496 275.13 311.333 273.392 311.009 271.15C310.578 268.129 311.489 265.563 313.731 263.537C315.373 262.05 316.836 260.468 317.735 258.43C318.946 255.697 319.149 252.867 318.466 249.966C317.519 245.962 319.893 241.49 323.813 240.112C324.88 239.74 326.043 239.56 327.17 239.416C332.157 238.769 335.706 236.143 337.815 231.612C338.99 229.106 340.801 227.368 343.462 226.553C345.776 225.845 348.018 226.061 350.14 227.176C351.65 227.967 353.137 228.819 354.839 229.178C358.052 229.874 361.121 229.538 364.01 227.979C365.497 227.188 366.983 226.457 368.686 226.361C372.63 226.133 375.927 228.171 377.545 231.864C379.2 235.628 381.933 238.193 385.853 239.428C386.944 239.764 388.095 239.932 389.234 240.064C394.341 240.675 397.782 245.65 396.619 250.673C395.432 255.804 396.715 260.228 400.671 263.765C402.481 265.383 403.644 267.325 403.836 269.759C404.076 272.66 403.068 275.142 400.851 277.024C398.717 278.846 397.158 281.004 396.391 283.714C395.756 285.955 395.78 288.209 396.307 290.463C397.314 294.779 394.389 299.55 390.049 300.557C388.742 300.857 387.376 300.929 386.057 301.241C381.777 302.224 378.768 304.801 376.934 308.769C375.231 312.45 371.983 314.452 368.026 314.2C366.708 314.116 365.449 313.745 364.31 313.061C359.467 310.148 354.635 310.136 349.72 312.917C346.459 314.764 342.419 314.284 339.614 311.886C338.391 310.831 337.636 309.465 336.952 308.026C334.89 303.698 331.474 301.133 326.714 300.497C324.376 300.186 322.219 299.598 320.504 297.884C318.778 296.158 317.879 294.096 317.903 291.17L317.927 291.158ZM326.007 269.831C325.863 287.19 339.746 301.396 357.021 301.564C374.404 301.744 388.634 287.79 388.79 270.43C388.958 253.167 374.992 238.925 357.764 238.769C340.369 238.613 326.151 252.52 326.007 269.831Z" fill="#FBB03B"/>
<path d="M368.71 314.392C368.482 314.392 368.266 314.392 368.038 314.368C366.66 314.284 365.377 313.888 364.238 313.205C359.467 310.328 354.755 310.28 349.84 313.061C346.567 314.907 342.431 314.488 339.53 312.006C338.343 310.987 337.588 309.705 336.82 308.098C334.77 303.794 331.378 301.289 326.726 300.665C324.64 300.39 322.266 299.85 320.408 297.992C318.574 296.158 317.723 293.988 317.747 291.146V291.122L317.819 290.679C317.903 290.175 318.023 289.48 318.142 288.785C318.982 284.037 317.603 279.985 314.042 276.76C312.16 275.046 311.141 273.272 310.842 271.162C310.398 268.069 311.333 265.455 313.623 263.393C315.049 262.11 316.632 260.504 317.591 258.346C318.754 255.721 319.006 252.915 318.322 250.002C317.351 245.854 319.797 241.335 323.789 239.932C324.904 239.536 326.127 239.356 327.182 239.225C332.061 238.589 335.598 236 337.696 231.528C338.942 228.855 340.825 227.176 343.45 226.373C345.8 225.654 348.102 225.869 350.271 227.008L350.751 227.26C352.13 227.991 353.424 228.675 354.923 228.998C358.16 229.706 361.205 229.31 363.974 227.824C365.485 227.02 366.971 226.289 368.722 226.193C372.726 225.953 376.119 228.063 377.761 231.804C379.415 235.568 382.173 238.074 385.961 239.272C387.04 239.608 388.203 239.776 389.306 239.896C391.763 240.196 394.005 241.538 395.444 243.576C396.906 245.65 397.41 248.252 396.846 250.721C395.66 255.864 397.002 260.204 400.839 263.645C402.817 265.419 403.872 267.421 404.064 269.759C404.303 272.756 403.284 275.25 401.018 277.18C398.777 279.098 397.326 281.256 396.619 283.786C396.019 285.884 395.995 288.125 396.535 290.451C397.026 292.573 396.607 294.923 395.372 296.901C394.149 298.867 392.243 300.27 390.145 300.761C389.486 300.917 388.802 301.013 388.131 301.109C387.472 301.205 386.8 301.301 386.153 301.444C382.017 302.404 378.984 304.897 377.15 308.865C375.495 312.426 372.462 314.428 368.746 314.428L368.71 314.392ZM356.973 310.652C359.467 310.652 361.936 311.395 364.418 312.905C365.509 313.565 366.732 313.936 368.05 314.02C371.911 314.26 375.099 312.318 376.778 308.686C378.672 304.609 381.777 302.044 386.033 301.061C386.692 300.905 387.376 300.809 388.047 300.713C388.706 300.617 389.378 300.521 390.025 300.378C392.027 299.91 393.861 298.567 395.036 296.685C396.223 294.779 396.631 292.537 396.151 290.511C395.588 288.137 395.624 285.836 396.235 283.666C396.966 281.064 398.453 278.846 400.755 276.88C402.925 275.034 403.908 272.636 403.68 269.759C403.5 267.517 402.481 265.599 400.575 263.885C396.631 260.348 395.252 255.888 396.475 250.614C397.014 248.252 396.535 245.746 395.132 243.756C393.753 241.79 391.608 240.507 389.246 240.22C388.131 240.088 386.944 239.92 385.829 239.572C381.933 238.349 379.104 235.772 377.413 231.912C375.831 228.315 372.582 226.301 368.722 226.517C367.043 226.613 365.593 227.32 364.118 228.111C361.265 229.634 358.148 230.041 354.827 229.322C353.281 228.986 351.902 228.255 350.571 227.548L350.092 227.296C348.018 226.205 345.812 226.001 343.546 226.697C341.016 227.464 339.206 229.082 338.007 231.66C335.861 236.251 332.229 238.913 327.218 239.56C326.175 239.692 324.976 239.872 323.897 240.256C320.073 241.598 317.735 245.926 318.67 249.906C319.377 252.891 319.126 255.781 317.927 258.478C316.944 260.696 315.325 262.338 313.875 263.645C311.681 265.623 310.782 268.141 311.213 271.102C311.501 273.128 312.484 274.842 314.306 276.485C317.963 279.805 319.377 283.965 318.526 288.845C318.406 289.54 318.286 290.235 318.202 290.727L318.13 291.146C318.106 293.868 318.922 295.954 320.684 297.716C322.47 299.502 324.772 300.018 326.798 300.282C331.582 300.917 335.07 303.483 337.18 307.918C337.923 309.489 338.655 310.736 339.794 311.719C342.575 314.104 346.543 314.512 349.696 312.738C352.178 311.335 354.599 310.628 357.009 310.628L356.973 310.652ZM357.345 301.756C357.237 301.756 357.129 301.756 357.021 301.756C339.674 301.576 325.671 287.262 325.827 269.843C325.899 261.427 329.268 253.539 335.298 247.64C341.268 241.802 349.133 238.601 357.488 238.601C357.584 238.601 357.68 238.601 357.776 238.601C366.156 238.673 374.033 242.042 379.943 248.072C385.853 254.102 389.066 262.051 388.982 270.442C388.898 278.894 385.529 286.795 379.499 292.717C373.541 298.555 365.689 301.756 357.357 301.756H357.345ZM326.007 269.831H326.187C326.043 287.058 339.877 301.217 357.021 301.385C357.129 301.385 357.237 301.385 357.345 301.385C365.581 301.385 373.349 298.22 379.235 292.441C385.206 286.591 388.539 278.774 388.61 270.418C388.694 262.11 385.517 254.258 379.667 248.3C373.829 242.342 366.048 239.009 357.752 238.949C357.656 238.949 357.56 238.949 357.465 238.949C349.204 238.949 341.424 242.114 335.526 247.88C329.555 253.707 326.235 261.511 326.163 269.831H325.983H326.007Z" fill="black"/>
<path d="M325.443 270.071C325.695 251.944 340.105 237.858 358.268 238.253C375.627 238.637 389.569 252.891 389.354 270.682C389.138 288.185 374.56 302.379 357.093 302.14C339.242 301.888 325.431 287.466 325.443 270.071ZM371.587 287.082C371.587 287.082 371.587 286.926 371.563 286.818C370.963 283.138 370.376 279.458 369.741 275.777C369.621 275.082 369.741 274.602 370.28 274.099C372.906 271.641 375.483 269.124 378.097 266.654C378.948 265.851 379.307 264.916 378.96 263.789C378.612 262.698 377.725 262.254 376.67 262.086C373.121 261.523 369.561 260.959 366 260.456C365.305 260.36 364.921 260.108 364.634 259.497C363.123 256.296 361.553 253.119 360.03 249.918C359.538 248.875 358.783 248.18 357.608 248.156C356.397 248.132 355.618 248.827 355.091 249.894C353.508 253.083 351.878 256.26 350.295 259.461C350.032 259.976 349.72 260.24 349.109 260.312C345.512 260.756 341.927 261.259 338.331 261.751C337.528 261.859 336.784 262.098 336.269 262.794C335.502 263.849 335.658 265.191 336.712 266.234C339.326 268.824 341.927 271.425 344.565 273.991C344.973 274.387 345.092 274.782 344.996 275.334C344.337 278.918 343.714 282.515 343.03 286.099C342.815 287.226 343.006 288.149 343.93 288.857C344.865 289.576 345.824 289.456 346.831 288.94C350.116 287.238 353.4 285.548 356.709 283.893C357.021 283.737 357.548 283.737 357.86 283.893C359.263 284.577 360.617 285.344 361.996 286.075C364.07 287.178 366.12 288.341 368.242 289.348C369.801 290.079 371.551 288.845 371.587 287.058V287.082Z" fill="white"/>
<path d="M357.549 302.32C357.393 302.32 357.249 302.32 357.093 302.32C348.461 302.2 340.417 298.771 334.447 292.657C328.525 286.603 325.264 278.583 325.264 270.071C325.384 261.199 328.872 252.999 335.094 247.005C341.088 241.227 349.013 238.074 357.501 238.074C357.752 238.074 358.016 238.074 358.268 238.074C366.744 238.265 374.644 241.718 380.53 247.82C386.441 253.946 389.642 262.062 389.534 270.682C389.426 279.194 385.973 287.19 379.811 293.196C373.769 299.083 365.868 302.32 357.549 302.32ZM325.623 270.071C325.623 278.487 328.836 286.411 334.699 292.405C340.609 298.447 348.557 301.84 357.093 301.96C357.249 301.96 357.393 301.96 357.549 301.96C365.773 301.96 373.577 298.771 379.559 292.945C385.661 287.01 389.066 279.098 389.174 270.682C389.282 262.158 386.117 254.126 380.279 248.072C374.464 242.042 366.648 238.625 358.268 238.433C349.588 238.229 341.448 241.37 335.346 247.257C329.196 253.191 325.743 261.295 325.623 270.071ZM369.189 289.768C368.842 289.768 368.494 289.696 368.158 289.54C366.636 288.821 365.137 288.005 363.687 287.226C363.087 286.902 362.5 286.579 361.9 286.267C361.481 286.039 361.061 285.812 360.642 285.584C359.706 285.08 358.747 284.553 357.776 284.085C357.513 283.953 357.045 283.953 356.781 284.085C353.76 285.596 350.523 287.25 346.903 289.132C345.704 289.756 344.721 289.732 343.81 289.036C342.899 288.341 342.599 287.406 342.851 286.099C343.246 283.989 343.642 281.831 344.014 279.757C344.277 278.283 344.541 276.808 344.817 275.334C344.913 274.842 344.805 274.518 344.433 274.159C341.688 271.473 338.942 268.752 336.581 266.402C335.478 265.299 335.286 263.861 336.113 262.722C336.701 261.919 337.588 261.703 338.295 261.607L339.566 261.427C342.683 260.995 345.896 260.552 349.073 260.156C349.6 260.084 349.876 259.893 350.128 259.401C350.871 257.902 351.638 256.392 352.393 254.893C353.245 253.215 354.096 251.525 354.935 249.834C355.546 248.599 356.41 248 357.549 248H357.608C358.759 248.024 359.599 248.635 360.186 249.87C360.881 251.333 361.589 252.783 362.284 254.246C363.123 255.984 363.962 257.711 364.778 259.449C365.029 259.988 365.353 260.216 366.012 260.312C368.997 260.732 372.031 261.211 374.956 261.667L376.682 261.943C378.001 262.146 378.792 262.746 379.116 263.765C379.463 264.88 379.164 265.911 378.205 266.81C377.126 267.829 376.047 268.86 374.98 269.891C373.481 271.33 371.935 272.816 370.388 274.255C369.921 274.698 369.789 275.094 369.909 275.765C370.388 278.523 370.844 281.34 371.275 284.049L371.719 286.795C371.731 286.879 371.743 286.962 371.743 287.022V287.082C371.731 288.041 371.251 288.893 370.46 289.384C370.052 289.636 369.621 289.756 369.177 289.756L369.189 289.768ZM357.297 283.618C357.537 283.618 357.764 283.666 357.944 283.75C358.915 284.229 359.886 284.745 360.821 285.26C361.241 285.488 361.661 285.716 362.08 285.943C362.68 286.255 363.267 286.579 363.866 286.902C365.317 287.682 366.804 288.497 368.314 289.216C368.949 289.516 369.669 289.468 370.28 289.096C370.964 288.677 371.383 287.921 371.395 287.094V287.058C371.395 287.058 371.383 286.938 371.371 286.867L370.928 284.109C370.484 281.388 370.028 278.583 369.561 275.825C369.429 275.034 369.585 274.518 370.148 273.991C371.683 272.552 373.241 271.066 374.74 269.627C375.819 268.596 376.886 267.565 377.965 266.546C378.828 265.731 379.092 264.856 378.78 263.873C378.504 262.986 377.821 262.482 376.634 262.302L374.908 262.026C371.983 261.571 368.949 261.091 365.976 260.672C365.209 260.564 364.778 260.264 364.466 259.605C363.639 257.867 362.811 256.14 361.972 254.402C361.265 252.951 360.57 251.489 359.874 250.026C359.347 248.923 358.603 248.384 357.608 248.36C357.584 248.36 357.572 248.36 357.549 248.36C356.553 248.36 355.798 248.899 355.247 250.002C354.408 251.692 353.556 253.371 352.705 255.061C351.95 256.56 351.195 258.058 350.439 259.569C350.14 260.168 349.756 260.444 349.109 260.528C345.944 260.924 342.719 261.367 339.614 261.799L338.343 261.979C337.672 262.074 336.904 262.266 336.401 262.95C335.682 263.933 335.849 265.191 336.832 266.162C339.194 268.512 341.94 271.234 344.685 273.919C345.14 274.363 345.284 274.806 345.164 275.418C344.889 276.892 344.625 278.367 344.361 279.841C343.99 281.927 343.594 284.073 343.198 286.183C342.971 287.358 343.234 288.161 344.026 288.773C344.817 289.372 345.656 289.396 346.723 288.833C350.343 286.95 353.58 285.296 356.613 283.785C356.793 283.69 357.033 283.642 357.273 283.642L357.297 283.618Z" fill="black"/>
<path d="M378.659 266.594C379.535 265.767 379.906 264.808 379.547 263.657C379.187 262.53 378.276 262.074 377.197 261.907C373.54 261.331 369.896 260.744 366.239 260.228C365.532 260.132 365.137 259.869 364.837 259.245C363.278 255.96 361.672 252.687 360.113 249.403C359.598 248.336 358.831 247.616 357.632 247.592C356.385 247.568 355.594 248.288 355.042 249.379C353.412 252.663 351.745 255.924 350.115 259.209C349.851 259.737 349.528 260.012 348.892 260.084C345.2 260.552 341.507 261.055 337.827 261.571C337 261.679 336.232 261.931 335.705 262.65C334.914 263.729 335.082 265.107 336.16 266.186C338.846 268.848 341.519 271.521 344.229 274.159C344.648 274.566 344.78 274.962 344.672 275.537C343.989 279.23 343.354 282.922 342.658 286.603C342.442 287.754 342.634 288.713 343.581 289.444C344.54 290.175 345.523 290.055 346.554 289.528C349.923 287.778 353.304 286.039 356.709 284.349C357.032 284.193 357.572 284.193 357.895 284.349C359.334 285.056 360.725 285.847 362.139 286.591C364.273 287.718 366.371 288.928 368.553 289.959C370.16 290.715 371.958 289.432 371.994 287.61C371.994 287.562 371.994 287.454 371.97 287.346C371.358 283.57 370.747 279.781 370.1 276.005C369.98 275.286 370.1 274.794 370.651 274.279C373.349 271.749 375.998 269.172 378.683 266.63L378.659 266.594Z" fill="#C1272D"/>
<path d="M369.513 290.331C369.153 290.331 368.806 290.247 368.458 290.092C366.9 289.348 365.353 288.521 363.867 287.706C363.255 287.37 362.656 287.046 362.044 286.723C361.601 286.495 361.169 286.255 360.738 286.015C359.779 285.5 358.796 284.961 357.8 284.481C357.525 284.349 357.045 284.349 356.769 284.481C353.688 286.027 350.368 287.718 346.615 289.66C345.38 290.307 344.373 290.271 343.45 289.564C342.515 288.857 342.204 287.898 342.467 286.555C342.875 284.385 343.282 282.167 343.666 280.033C343.942 278.523 344.206 277.012 344.493 275.49C344.589 274.986 344.481 274.638 344.098 274.279C341.316 271.557 338.595 268.848 336.029 266.307C334.891 265.18 334.711 263.693 335.55 262.53C336.149 261.703 337.06 261.487 337.792 261.379L339.134 261.199C342.323 260.756 345.62 260.312 348.857 259.905C349.397 259.833 349.684 259.629 349.936 259.125C350.703 257.591 351.483 256.056 352.25 254.522C353.125 252.784 354 251.045 354.863 249.307C355.511 248.012 356.422 247.413 357.621 247.425C358.795 247.449 359.659 248.072 360.27 249.343C360.977 250.829 361.697 252.316 362.416 253.803C363.279 255.589 364.142 257.387 364.994 259.185C365.257 259.749 365.593 259.977 366.264 260.073C369.333 260.504 372.462 260.996 375.471 261.475L377.222 261.751C378.564 261.967 379.38 262.578 379.715 263.621C380.075 264.772 379.763 265.815 378.78 266.75C377.665 267.805 376.562 268.872 375.459 269.927C373.925 271.402 372.33 272.924 370.748 274.399C370.268 274.854 370.137 275.274 370.256 275.957C370.748 278.81 371.216 281.712 371.671 284.517L372.127 287.298C372.139 287.382 372.151 287.478 372.151 287.538V287.598C372.139 288.581 371.647 289.456 370.832 289.96C370.424 290.211 369.969 290.343 369.513 290.343V290.331ZM357.285 284.025C357.525 284.025 357.764 284.073 357.956 284.157C358.951 284.649 359.946 285.176 360.905 285.704C361.337 285.944 361.781 286.171 362.212 286.411C362.824 286.735 363.435 287.07 364.046 287.394C365.533 288.197 367.08 289.037 368.626 289.768C369.285 290.08 370.029 290.032 370.652 289.648C371.359 289.204 371.791 288.437 371.803 287.586V287.55C371.803 287.55 371.791 287.418 371.779 287.346L371.323 284.565C370.868 281.76 370.4 278.858 369.909 276.005C369.765 275.202 369.945 274.65 370.508 274.123C372.091 272.648 373.673 271.126 375.208 269.651C376.311 268.584 377.426 267.529 378.54 266.474C379.428 265.635 379.691 264.736 379.38 263.717C379.092 262.806 378.385 262.29 377.174 262.099L375.423 261.823C372.414 261.343 369.297 260.852 366.216 260.42C365.425 260.312 364.994 260.001 364.67 259.329C363.819 257.531 362.955 255.745 362.092 253.958C361.373 252.472 360.654 250.985 359.946 249.499C359.407 248.372 358.64 247.808 357.621 247.784C357.597 247.784 357.585 247.784 357.561 247.784C356.53 247.784 355.762 248.336 355.187 249.475C354.324 251.213 353.449 252.951 352.574 254.69C351.794 256.224 351.027 257.759 350.26 259.293C349.96 259.905 349.564 260.192 348.905 260.276C345.656 260.684 342.371 261.14 339.182 261.571L337.84 261.751C337.144 261.847 336.365 262.039 335.838 262.758C335.106 263.765 335.274 265.06 336.281 266.067C338.835 268.608 341.568 271.318 344.349 274.039C344.817 274.495 344.961 274.95 344.841 275.574C344.565 277.084 344.29 278.595 344.014 280.117C343.63 282.263 343.235 284.469 342.815 286.651C342.587 287.862 342.851 288.689 343.666 289.312C344.481 289.936 345.332 289.96 346.447 289.372C350.2 287.43 353.521 285.728 356.602 284.181C356.793 284.085 357.033 284.037 357.285 284.037V284.025Z" fill="black"/>
</svg>
