<svg width="600" height="600" viewBox="0 0 600 600" fill="none" xmlns="http://www.w3.org/2000/svg">
<path d="M259.814 374.768C257.678 377.16 245.835 390.052 233.751 387.545C218.401 384.358 212.92 358.455 214.573 341.781C217.052 316.786 237.179 296.15 258.822 289.569C265.28 287.606 270.967 287.169 274.889 287.129C288.687 286.79 302.486 286.447 316.28 286.108C319.495 286.512 323.987 287.35 329.028 289.273C354.348 298.936 373.468 328.315 372.685 358.299C372.104 380.516 360.774 396.49 355.372 403.132C355.372 403.132 321.902 400.834 319.856 391.889L337.742 363.528H253.936C254.531 352.966 255.127 342.405 255.726 331.843C253.994 333.449 251.298 336.375 249.563 340.756C246.344 348.864 248.664 356.246 249.678 359.479C252.2 367.511 257.209 372.512 259.814 374.771V374.768Z" fill="#27AAE1"/>
<path d="M355.534 403.5L355.347 403.486C353.968 403.392 321.584 401.064 319.506 391.964L319.473 391.82L337.089 363.885H253.557L255.314 332.738C252.922 335.116 251.1 337.854 249.898 340.885C246.726 348.874 249.036 356.228 250.024 359.367C252.319 366.677 256.743 371.628 260.052 374.493L260.33 374.735L260.084 375.009C256.84 378.643 245.344 390.315 233.679 387.898C218.311 384.708 212.502 359.046 214.216 341.744C215.399 329.801 220.595 318.316 229.241 308.53C237.302 299.408 247.769 292.552 258.717 289.222C263.895 287.645 269.336 286.822 274.886 286.768L316.298 285.747H316.323C320.751 286.306 325.07 287.378 329.154 288.937C354.95 298.78 373.818 328.603 373.042 358.31C372.515 378.513 363.292 393.96 355.65 403.359L355.531 403.504L355.534 403.5ZM320.245 391.946C322.446 400.076 352.543 402.551 355.213 402.753C362.762 393.426 371.808 378.184 372.327 358.285C373.096 328.87 354.427 299.347 328.902 289.604C324.878 288.067 320.628 287.014 316.265 286.465L274.9 287.486C269.415 287.537 264.043 288.352 258.93 289.907C248.108 293.198 237.76 299.978 229.785 309.003C221.241 318.673 216.106 330.017 214.937 341.809C214.061 350.667 215.284 361.316 218.131 369.597C222.518 382.352 229.089 386.202 233.827 387.183C244.839 389.467 255.823 378.628 259.301 374.793C255.956 371.834 251.616 366.847 249.335 359.58C248.325 356.365 245.961 348.842 249.227 340.615C250.58 337.209 252.684 334.167 255.48 331.572L256.137 330.963L254.318 363.156H338.395L320.242 391.939L320.245 391.946Z" fill="#231F20"/>
<path d="M233.261 412.806L260.998 392.228L297.387 388.948L331.684 411.615L309.912 432.193L260.998 436.967L233.261 412.806Z" fill="white"/>
<path d="M260.878 437.339L232.686 412.785L260.867 391.878L297.48 388.577L297.585 388.645L332.264 411.561L310.069 432.54L260.878 437.339ZM233.837 412.832L261.119 436.592L309.756 431.847L331.109 411.666L297.296 389.32L261.137 392.582L233.841 412.835L233.837 412.832Z" fill="#231F20"/>
<path d="M297.386 388.948L281.874 409.526L260.997 392.228L297.386 388.948Z" fill="#454E68"/>
<path d="M281.937 410.046L260.092 391.947L298.16 388.515L281.933 410.046H281.937ZM261.904 392.509L281.818 409.01L296.612 389.381L261.907 392.509H261.904Z" fill="#231F20"/>
<path d="M371.8 364.328V363.607C407.143 363.6 448.086 363.6 483.3 363.603V364.325C448.086 364.321 407.139 364.321 371.8 364.328Z" fill="#231F20"/>
<path d="M250.645 364.354V363.632C282.091 363.585 314.855 363.596 336.8 363.61V364.332C314.855 364.314 282.095 364.307 250.645 364.354Z" fill="#231F20"/>
<path d="M212.931 364.354C175.802 364.311 138.694 364.314 110.514 364.325V363.604C138.694 363.593 175.802 363.589 212.931 363.632V364.354Z" fill="#231F20"/>
<path d="M464.797 328.575L461.826 328.684L461.853 329.406L464.824 329.296L464.797 328.575Z" fill="#231F20"/>
<path d="M461.341 181.612C461.341 181.612 461.586 181.287 462.023 180.753C461.842 180.999 461.658 181.255 461.478 181.518C461.388 181.576 461.341 181.612 461.341 181.612Z" fill="#2C1B18"/>
<path d="M481.618 178.188C481.524 178.462 481.394 178.711 481.239 178.938C481.348 178.679 481.47 178.426 481.618 178.188Z" fill="#2C1B18"/>
<path d="M498.146 213.394C498.063 213.65 497.962 213.906 497.836 214.152C497.886 214.011 497.987 213.744 498.146 213.394Z" fill="#2C1B18"/>
<path d="M461.477 181.521C462.159 181.081 465.37 179.248 470.497 180.067C473.081 180.479 474.264 180.724 476.563 180.829C478.313 180.908 480.294 180.327 481.239 178.938C480.348 181.074 480.828 183.755 482.491 185.382C483.227 186.1 484.14 186.613 484.898 187.309C487.998 190.163 487.684 195.139 489.683 198.848C491.14 201.551 493.742 203.42 495.755 205.737C497.588 207.844 498.96 210.817 498.144 213.397C497.985 213.747 497.884 214.018 497.834 214.155C497.96 213.906 498.065 213.653 498.144 213.397C498.628 212.34 499.667 210.532 501.583 209.229C504.653 207.656 508.529 207.606 511.931 209.424C512.888 209.937 513.739 210.561 514.482 211.272C517.903 214.541 518.964 219.618 516.741 223.771C514.035 228.826 507.5 230.601 502.139 227.733C501.558 227.423 501.016 227.065 500.511 226.679L500.554 227.881C500.179 236.923 499.808 245.962 499.432 255.004C476.577 257.407 450.074 259.165 448.855 253.933C448.047 250.461 457.876 241.863 457.876 241.863L459.972 239.756C445.939 233.925 446.477 219.73 447.935 215.652C448.267 214.729 448.721 213.852 449.046 212.924C450.013 210.031 451.041 207.093 452.138 204.117C455.094 196.092 458.24 188.558 461.48 181.521H461.477Z" fill="#B76367"/>
<path d="M464.774 257.697C454.404 257.697 449.078 256.488 448.501 254.012C448.209 252.757 449.038 250.92 451.037 248.405C452.939 246.009 456.627 242.354 457.637 241.629L457.615 241.607L459.336 239.875C445.874 233.947 445.993 220.001 447.592 215.526C447.758 215.061 447.956 214.61 448.147 214.17C448.342 213.722 448.544 213.26 448.703 212.802C449.684 209.869 450.724 206.903 451.795 203.991C454.599 196.366 457.745 188.757 461.148 181.367L461.191 181.273L461.278 181.215C461.898 180.815 465.258 178.863 470.551 179.707C470.955 179.772 471.323 179.833 471.67 179.887C473.532 180.19 474.657 180.374 476.577 180.465C477.999 180.526 479.994 180.115 480.936 178.733L482.931 175.803L481.567 179.075C480.712 181.125 481.196 183.611 482.74 185.123C483.112 185.487 483.53 185.794 483.97 186.119C484.364 186.407 484.768 186.703 485.136 187.046C487.073 188.832 487.734 191.416 488.369 193.916C488.784 195.547 489.213 197.232 489.993 198.676C490.924 200.4 492.313 201.757 493.785 203.193C494.539 203.929 495.318 204.691 496.022 205.499C497.732 207.469 498.681 209.638 498.735 211.597C499.356 210.68 500.211 209.721 501.373 208.93L501.413 208.909C504.711 207.22 508.705 207.292 512.093 209.107C513.053 209.62 513.937 210.262 514.72 211.012C518.321 214.455 519.277 219.77 517.048 223.941C514.255 229.166 507.486 231.006 501.958 228.051C501.597 227.856 501.236 227.639 500.89 227.405L500.908 227.87L499.775 255.333L499.464 255.366C485.457 256.838 474.206 257.624 466.026 257.697C465.601 257.7 465.178 257.704 464.767 257.704L464.774 257.697ZM461.758 181.767C458.384 189.11 455.259 196.669 452.474 204.24C451.406 207.144 450.366 210.103 449.385 213.037C449.212 213.527 449.006 214 448.808 214.462C448.62 214.888 448.429 215.332 448.27 215.772C446.715 220.127 446.632 233.82 460.105 239.421L460.603 239.626L458.128 242.116C455.422 244.479 448.577 251.162 449.204 253.85C449.832 256.549 459.005 258.876 499.082 254.676L500.19 227.867L500.121 225.926L500.731 226.395C501.236 226.784 501.766 227.127 502.308 227.416C507.482 230.183 513.815 228.473 516.42 223.602C518.498 219.716 517.6 214.754 514.229 211.532C513.493 210.828 512.66 210.226 511.758 209.742C508.582 208.043 504.848 207.967 501.766 209.54C500.02 210.735 499.017 212.362 498.479 213.527C498.393 213.802 498.281 214.069 498.151 214.321L497.491 214.036C497.581 213.784 497.685 213.527 497.805 213.271C498.584 210.763 497.119 207.862 495.481 205.979C494.799 205.192 494.03 204.442 493.287 203.716C491.84 202.306 490.346 200.848 489.365 199.026C488.542 197.503 488.102 195.775 487.676 194.1C487.037 191.589 486.435 189.222 484.652 187.58C484.313 187.266 483.941 186.996 483.548 186.707C483.104 186.382 482.646 186.047 482.238 185.646C480.82 184.257 480.189 182.146 480.517 180.165C479.334 180.988 477.753 181.251 476.544 181.197C474.582 181.107 473.441 180.919 471.554 180.613C471.211 180.555 470.84 180.497 470.439 180.432C465.619 179.66 462.523 181.309 461.758 181.778V181.767Z" fill="#231F20"/>
<path d="M460.587 239.637C463.585 240.777 469.611 242.589 477.102 241.499C481.879 240.806 485.603 239.175 488.028 237.858C486.205 239.478 483.503 241.434 479.866 242.737C470.051 246.247 461.135 242.242 458.891 241.153C459.013 240.932 459.205 240.651 459.486 240.373C459.89 239.976 460.309 239.756 460.59 239.637H460.587Z" fill="#231F20"/>
<path d="M510.78 217.173L501.964 218.525L502.073 219.238L510.89 217.886L510.78 217.173Z" fill="#231F20"/>
<path d="M500.516 226.42C501.281 227.029 502.306 227.697 503.601 228.202C507.343 229.66 510.796 228.761 512.128 228.336C510.8 230.565 508.382 233.889 504.32 236.516C502.822 237.483 501.372 238.183 500.076 238.691L500.516 226.42Z" fill="#2C1B18"/>
<path d="M499.692 239.226L500.179 225.691L500.739 226.138C501.655 226.867 502.662 227.448 503.73 227.867C507.14 229.191 510.387 228.513 512.018 227.993L512.928 227.701L512.44 228.52C510.402 231.948 507.735 234.741 504.517 236.819C503.164 237.692 501.717 238.436 500.208 239.027L499.696 239.229L499.692 239.226ZM500.851 227.124L500.454 238.147C501.731 237.609 502.965 236.96 504.123 236.213C506.999 234.355 509.42 231.908 511.333 228.935C509.464 229.4 506.534 229.729 503.47 228.538C502.547 228.181 501.67 227.704 500.851 227.124Z" fill="#231F20"/>
<path d="M462.249 171.631C467.214 167.973 473.641 166.363 479.746 167.251C475.066 164.4 469.152 163.664 463.916 165.281C464.638 163.459 466.817 162.744 468.752 162.43C478.451 160.853 488.702 164.119 496.027 170.617C498.563 171.566 500.97 172.956 503.077 174.908C503.579 173.392 504.077 171.88 504.578 170.365C504.824 169.618 505.242 168.734 506.029 168.691C506.869 168.647 507.371 169.614 507.555 170.437C508.118 172.97 507.725 175.701 506.476 177.971C507.822 176.398 510.254 175.586 512.033 176.643C513.812 177.7 513.953 180.872 512.033 181.652C510.922 182.103 509.558 181.684 508.526 182.294C510.243 183.221 511.726 184.466 512.971 185.927C514.523 186.638 516.258 187.721 517.828 189.384C520.383 192.09 521.234 194.984 521.627 196.377C524.204 205.528 518.441 214.133 517.362 215.689C517.211 215.198 516.951 214.498 516.493 213.729C514.591 210.536 510.72 208.606 506.96 208.606C502.41 208.606 499.411 211.442 498.747 212.098C498.617 212.304 498.487 212.528 498.358 212.769C498.246 212.982 498.148 213.177 498.069 213.354C498.874 210.789 497.484 207.823 495.641 205.715C493.609 203.395 490.993 201.526 489.521 198.827C487.912 195.879 487.767 192.141 486.201 189.298C485.213 189.085 484.231 188.821 483.268 188.536C479.804 187.511 476.354 186.223 472.742 186.101C469.134 185.978 465.215 187.28 463.317 190.351C463.455 187.367 464.266 184.419 465.681 181.789C460.813 182.067 456.151 184.812 453.546 188.933C452.843 188.738 452.774 187.771 452.886 187.05C453.842 180.959 457.284 175.294 462.246 171.635L462.249 171.631Z" fill="#2C1B18"/>
<path d="M517.238 216.501L517.018 215.794C516.812 215.133 516.534 214.498 516.184 213.914C514.423 210.955 510.721 208.967 506.968 208.967H506.961C502.895 208.967 500.08 211.294 499.034 212.326C498.908 212.525 498.789 212.734 498.677 212.943C498.568 213.149 498.475 213.336 498.399 213.506L497.728 213.246C498.514 210.749 497.024 207.841 495.371 205.954C494.682 205.167 493.91 204.417 493.16 203.691C491.705 202.281 490.201 200.819 489.205 199.001C488.375 197.482 487.924 195.757 487.491 194.09C487.069 192.48 486.672 190.958 485.965 189.615C485.102 189.424 484.182 189.183 483.168 188.883C482.54 188.699 481.913 188.504 481.281 188.309C478.51 187.451 475.641 186.563 472.733 186.462C469.615 186.361 465.589 187.371 463.629 190.543L462.9 191.726L462.962 190.337C463.088 187.526 463.813 184.726 465.065 182.2C460.541 182.666 456.29 185.275 453.854 189.125L453.71 189.352L453.45 189.28C452.548 189.031 452.382 187.934 452.53 186.992C453.508 180.779 456.972 175.074 462.034 171.343C466.606 167.973 472.325 166.324 477.976 166.703C473.675 164.632 468.584 164.217 464.019 165.628L463.301 165.848L463.579 165.148C464.207 163.556 465.928 162.521 468.692 162.073C478.326 160.507 488.61 163.582 496.216 170.304C498.742 171.256 500.99 172.588 502.909 174.269L504.237 170.25C504.389 169.788 504.85 168.388 506.012 168.33C507.066 168.283 507.683 169.344 507.91 170.358C508.372 172.433 508.21 174.652 507.474 176.651C508.888 175.763 510.728 175.449 512.219 176.333C513.247 176.943 513.871 178.249 513.774 179.584C513.691 180.717 513.092 181.612 512.172 181.988C511.605 182.218 511.003 182.244 510.422 182.269C510.057 182.283 509.704 182.298 509.375 182.366C510.786 183.225 512.067 184.322 513.196 185.636C515.069 186.502 516.718 187.681 518.093 189.139C520.763 191.964 521.615 194.988 521.975 196.28C524.462 205.113 519.302 213.528 517.66 215.895L517.238 216.504V216.501ZM506.968 208.245C510.966 208.245 514.918 210.374 516.805 213.546C517.057 213.971 517.281 214.422 517.465 214.892C519.352 211.991 523.509 204.384 521.283 196.475C520.933 195.234 520.117 192.333 517.57 189.634C516.238 188.223 514.643 187.086 512.825 186.256L512.753 186.224L512.702 186.162C511.443 184.683 509.981 183.489 508.361 182.612L507.798 182.309L508.35 181.984C508.989 181.609 509.704 181.576 510.396 181.547C510.941 181.526 511.454 181.504 511.905 181.32C512.572 181.049 512.994 180.396 513.059 179.53C513.139 178.462 512.655 177.427 511.858 176.954C510.187 175.962 507.954 176.813 506.759 178.206L504.479 180.869L506.167 177.795C507.369 175.604 507.752 172.952 507.21 170.51C507.088 169.95 506.702 169.009 506.056 169.048C505.608 169.07 505.24 169.539 504.93 170.473L503.252 175.55L502.841 175.168C500.889 173.36 498.554 171.942 495.909 170.953L495.848 170.932L495.797 170.888C488.346 164.278 478.261 161.251 468.818 162.788C466.801 163.116 465.412 163.755 464.676 164.697C469.789 163.38 475.432 164.199 479.942 166.948L481.454 167.868L479.704 167.612C473.668 166.732 467.386 168.305 462.475 171.924C457.564 175.543 454.204 181.078 453.255 187.104C453.194 187.505 453.18 188.154 453.439 188.45C456.142 184.387 460.797 181.71 465.668 181.428L466.31 181.392L466.004 181.959C464.816 184.171 464.055 186.624 463.781 189.125C466.061 186.502 469.803 185.639 472.758 185.74C475.764 185.845 478.676 186.747 481.494 187.616C482.122 187.811 482.746 188.003 483.37 188.19C484.431 188.504 485.384 188.753 486.279 188.944L486.437 188.98L486.517 189.125C487.318 190.579 487.758 192.271 488.187 193.909C488.613 195.533 489.05 197.215 489.836 198.658C490.778 200.383 492.178 201.739 493.658 203.175C494.415 203.912 495.202 204.673 495.909 205.481C497.67 207.491 498.63 209.699 498.662 211.684C499.871 210.533 502.794 208.252 506.961 208.249H506.968V208.245Z" fill="#231F20"/>
<path d="M458.553 184.481L457.946 184.872L459.084 186.637L459.69 186.246L458.553 184.481Z" fill="#231F20"/>
<path d="M350.428 221.199C358.919 218.543 364.447 213.408 367.225 210.37C368.048 212.373 368.87 214.379 369.693 216.382C373.089 220.517 376.538 225.005 379.97 229.866C383.325 234.618 386.356 239.291 389.095 243.826C392.62 249.664 400.006 251.826 406.159 248.878C406.206 248.856 406.252 248.835 406.299 248.809C417.225 243.592 426.397 241.719 433.087 240.398C442.332 238.573 447.286 238.551 448.773 238.63C451.825 238.793 459.179 239.998 459.706 239.821C459.753 240.059 458.876 241.095 458.89 241.149C459.587 243.621 460.759 246.565 462.809 249.47C462.827 249.491 462.841 249.516 462.859 249.538C466.19 254.229 471.645 256.957 477.397 256.809C483.524 256.65 490.87 256.047 499.44 254.997C502.763 255.957 507.876 257.834 512.993 261.702C522.988 269.254 526.892 279.779 534.506 314.343C542.884 352.374 542.011 357.123 540.975 360.728C535.541 379.664 519.037 390.225 511.539 394.371C501.374 396.93 490.964 393.004 485.779 384.91C479.724 375.45 483.784 364.942 484.21 363.885C452.767 363.578 421.324 363.99 389.882 363.683C391.729 346.096 395.814 325.164 404.062 303.81C405.884 299.098 407.804 294.598 409.789 290.308C407.667 292.138 404.759 294.108 400.999 295.219C380.453 301.31 349.97 277.293 343.05 249.127C340.964 240.633 341.354 233.124 342.086 227.935L341.249 222.822C343.847 222.692 346.993 222.267 350.432 221.191L350.428 221.199Z" fill="#6AA393"/>
<path d="M505.235 395.522C497.185 395.522 489.705 391.723 485.469 385.109C479.876 376.373 482.788 366.714 483.683 364.246C468.131 364.098 452.33 364.123 437.042 364.148C421.584 364.174 405.599 364.202 389.874 364.047H389.477L389.517 363.65C391.74 342.502 396.517 322.325 403.719 303.688C405.289 299.621 406.999 295.555 408.807 291.575C406.397 293.426 403.81 294.768 401.093 295.573C393.45 297.839 383.986 296.067 374.438 290.59C359.175 281.832 346.712 265.595 342.692 249.221C341.018 242.412 340.69 235.253 341.714 227.946L340.823 222.49L341.227 222.469C344.331 222.314 347.39 221.769 350.32 220.852C356.573 218.897 362.325 215.187 366.962 210.125L367.344 209.706L370.007 216.197C373.572 220.542 377.022 225.07 380.262 229.664C383.459 234.192 386.533 238.897 389.402 243.646C392.837 249.336 399.974 251.447 406 248.557L406.144 248.488C417.333 243.148 426.773 241.282 433.019 240.048C442.693 238.136 447.538 238.208 448.791 238.273C450.32 238.356 452.904 238.695 455.188 238.991C457.115 239.244 459.298 239.525 459.612 239.475L459.998 239.348L460.059 239.752C460.113 240.023 459.94 240.312 459.399 241.048C459.356 241.109 459.312 241.163 459.28 241.207C460.131 244.169 461.42 246.879 463.101 249.264L463.148 249.332C466.417 253.937 471.739 256.596 477.383 256.452C483.47 256.293 490.878 255.687 499.39 254.644L499.462 254.633L499.534 254.655C504.607 256.12 509.204 258.396 513.202 261.417C522.963 268.792 527.008 278.668 534.852 314.267C543.461 353.349 542.321 357.325 541.314 360.829C536.382 378.015 522.49 388.728 511.705 394.689L511.618 394.721C509.482 395.259 507.339 395.519 505.235 395.519V395.522ZM454.928 363.409C464.663 363.409 474.485 363.434 484.206 363.531H484.736L484.538 364.029C484.072 365.177 480.168 375.493 486.075 384.723C491.242 392.795 501.41 396.533 511.394 394.039C522.057 388.14 535.761 377.564 540.618 360.637C541.553 357.383 542.714 353.334 534.145 314.43C526.351 279.043 522.353 269.243 512.766 262.001C508.858 259.046 504.362 256.82 499.4 255.376C490.892 256.416 483.492 257.022 477.397 257.18C471.512 257.325 465.966 254.557 462.556 249.758L462.506 249.686C460.745 247.193 459.41 244.357 458.537 241.257C458.482 241.069 458.551 240.976 458.811 240.626C458.887 240.525 459.013 240.355 459.121 240.193C458.464 240.149 457.274 239.998 455.087 239.713C452.817 239.417 450.248 239.078 448.747 238.998C447.87 238.951 442.992 238.814 433.152 240.759C426.942 241.986 417.557 243.841 406.447 249.141L406.307 249.206C399.942 252.255 392.407 250.025 388.777 244.017C385.92 239.283 382.853 234.593 379.667 230.079C376.426 225.485 372.973 220.957 369.408 216.612L369.354 216.522L367.102 211.03C362.451 215.977 356.732 219.607 350.53 221.545C347.668 222.44 344.688 222.985 341.66 223.169L342.44 227.939L342.433 227.993C341.411 235.228 341.733 242.311 343.389 249.047C347.365 265.238 359.695 281.298 374.795 289.962C384.17 295.342 393.436 297.085 400.887 294.876C403.965 293.963 406.877 292.336 409.543 290.038L410.806 288.948L410.106 290.463C408.064 294.876 406.141 299.412 404.391 303.944C397.257 322.408 392.508 342.387 390.275 363.329C405.866 363.481 421.71 363.452 437.038 363.427C442.938 363.416 448.917 363.409 454.928 363.409Z" fill="#231F20"/>
<path d="M458.886 241.153C454.762 242.239 450.457 243.751 446.084 245.833C420.137 258.195 408.356 282.883 403.874 294.195C406.057 292.661 408.244 291.124 410.427 289.59C412.772 283.24 416.846 274.573 424.037 265.862C436.428 250.852 451.186 244.05 458.882 241.156L458.886 241.153Z" fill="#231F20"/>
<path d="M490.3 313.824C490.867 315.592 493.548 323.826 499.04 333.799C499.069 333.853 499.097 333.904 499.126 333.954C501.244 337.804 500.811 342.546 498.037 345.952C492.354 352.927 484.202 363.885 484.202 363.885C483.145 361.976 498.25 341.994 497.268 339.948C487.389 319.402 484.996 298.708 485.545 281.255C485.368 295.609 488.053 306.78 490.3 313.816V313.824Z" fill="#231F20"/>
<path d="M483.293 383.099L433.491 381.981L391.729 434.463H477.707L483.293 383.099Z" fill="white"/>
<path d="M478.032 434.823H390.979L433.318 381.616H433.499L483.694 382.745L478.032 434.823ZM392.476 434.102H477.383L482.889 383.449L433.661 382.344L392.476 434.102Z" fill="#231F20"/>
<path d="M482.507 378.141C476.864 383.539 472.324 384.73 469.091 384.708C466.872 384.694 464.022 384.106 463.39 385.318C462.759 386.534 464.797 388.71 465.18 389.103C467.987 391.993 472.101 392.184 473.934 392.145C467.02 399.52 463.087 401.725 460.742 402.288C460.276 402.4 457.808 402.941 457.534 404.283C457.361 405.12 458.14 407.015 458.14 407.015C457.53 408.029 457.516 408.729 457.667 409.212C457.999 410.255 460.085 411.435 460.085 411.435C460.085 411.435 460.006 412.582 460.388 413.618C460.825 414.798 461.976 415.739 463.148 416.075C464.769 416.537 466.298 416.19 466.298 416.19C466.298 416.19 465.988 418.77 466.825 420.123C467.641 421.441 469.849 421.451 471.242 421.437C473.908 421.415 477.253 420.704 481.446 418.078C484.78 415.988 487.082 413.665 488.72 411.806C491.441 408.718 495.573 403.226 498.647 394.804C497.662 394.108 496.669 393.364 495.677 392.567C489.926 387.959 485.664 382.861 482.507 378.134V378.141Z" fill="#B76367"/>
<path d="M470.859 421.809C469.488 421.809 467.374 421.701 466.522 420.322C465.847 419.229 465.855 417.468 465.905 416.627C465.303 416.699 464.206 416.757 463.055 416.429C461.691 416.039 460.514 414.986 460.056 413.748C459.749 412.922 459.717 412.045 459.721 411.641C459.158 411.301 457.639 410.309 457.325 409.324C457.108 408.646 457.249 407.863 457.74 406.99C457.541 406.474 457.014 405.009 457.18 404.215C457.39 403.204 458.541 402.443 460.608 401.952L460.659 401.942C463.636 401.227 467.818 398.055 473.1 392.509C470.535 392.445 467.287 391.795 464.924 389.359C464.134 388.544 462.373 386.505 463.073 385.156C463.657 384.03 465.487 384.149 467.421 384.275C467.984 384.311 468.564 384.351 469.099 384.351C469.124 384.351 469.145 384.351 469.171 384.351C473.371 384.351 477.773 382.175 482.262 377.881L482.572 377.586L482.81 377.943C486.49 383.453 490.9 388.281 495.908 392.293C496.864 393.058 497.857 393.808 498.863 394.519L499.087 394.678L498.993 394.938C496.605 401.476 493.242 407.235 488.998 412.052C487.537 413.708 485.188 416.169 481.645 418.392C478.025 420.661 474.626 421.78 471.253 421.805C471.134 421.805 471.004 421.805 470.867 421.805L470.859 421.809ZM466.721 415.732L466.659 416.238C466.659 416.263 466.374 418.706 467.136 419.94C467.861 421.112 470.058 421.094 471.242 421.084C474.478 421.058 477.751 419.976 481.255 417.778C484.715 415.606 487.017 413.199 488.45 411.572C492.578 406.885 495.865 401.292 498.214 394.945C497.272 394.274 496.345 393.57 495.45 392.856C490.492 388.883 486.119 384.12 482.442 378.697C477.924 382.926 473.457 385.073 469.163 385.073C469.138 385.073 469.113 385.073 469.088 385.073C468.536 385.073 467.944 385.029 467.37 384.993C465.826 384.892 464.076 384.781 463.708 385.488C463.336 386.202 464.31 387.696 465.436 388.858C467.886 391.384 471.404 391.849 473.923 391.791L474.782 391.773L474.193 392.401C468.543 398.427 464.043 401.877 460.821 402.649L460.771 402.66C458.45 403.208 457.963 403.962 457.88 404.363C457.772 404.893 458.183 406.192 458.468 406.885L458.537 407.051L458.443 407.206C457.992 407.957 457.844 408.595 458.007 409.108C458.241 409.851 459.713 410.814 460.258 411.125L460.457 411.237L460.442 411.464C460.442 411.464 460.374 412.55 460.724 413.499C461.099 414.513 462.113 415.411 463.246 415.736C464.751 416.165 466.201 415.852 466.215 415.848L466.713 415.736L466.721 415.732Z" fill="#231F20"/>
<path d="M458.153 407.379H458.143V406.658H458.153C461.04 406.658 463.963 406.055 466.608 404.915C469.17 403.811 471.457 402.238 473.409 400.242L473.925 400.747C471.905 402.811 469.541 404.435 466.893 405.579C464.158 406.759 461.134 407.383 458.153 407.383V407.379Z" fill="#231F20"/>
<path d="M460.363 411.666C460.363 411.666 460.378 411.655 460.392 411.63L459.782 411.244C460.038 410.836 460.991 410.674 463.856 410.544C464.202 410.529 464.527 410.515 464.617 410.5C468.161 409.977 472.566 409.328 475.54 406.611L476.027 407.145C472.891 410.01 468.363 410.677 464.726 411.215C464.606 411.233 464.358 411.244 463.892 411.265C463.102 411.302 460.702 411.41 460.367 411.666H460.363Z" fill="#231F20"/>
<path d="M466.356 416.551L466.248 415.837C468.583 415.483 470.845 414.783 472.967 413.759C474.987 412.784 476.86 411.525 478.527 410.024L479.011 410.562C477.293 412.11 475.363 413.405 473.281 414.412C471.09 415.465 468.763 416.187 466.356 416.551Z" fill="#231F20"/>
<path d="M376.344 175.092L378.199 187.288L386.151 190.467L382.973 207.967L292.3 189.94L376.344 175.092Z" fill="#6D6E71"/>
<path d="M383.261 208.392L290.344 189.918L376.643 174.673L378.523 187.031L386.559 190.246L383.257 208.396L383.261 208.392ZM294.255 189.958L382.684 207.541L385.747 190.694L377.874 187.544L376.041 175.51L294.255 189.958Z" fill="#231F20"/>
<path d="M388.273 182.781L402.06 195.507L292.3 189.94L362.557 167.933L381.912 175.885L313.509 187.288L388.273 182.781Z" fill="white"/>
<path d="M403.038 195.915L290.268 190.196L362.574 167.551L362.693 167.601L383.217 176.037L320.343 186.516L388.402 182.413L403.034 195.919L403.038 195.915ZM294.331 189.68L401.082 195.096L388.143 183.149L313.53 187.649L313.451 186.934L380.605 175.741L362.542 168.319L294.334 189.684L294.331 189.68Z" fill="#231F20"/>
<path d="M329.855 197.68C329.855 197.68 332.5 213.022 340.983 215.671L341.247 222.83C341.247 222.83 360.071 222.299 367.23 210.37C367.23 210.37 364.047 201.62 365.639 198.972C367.23 196.319 371.47 187.836 371.47 187.836C371.47 187.836 372.263 182.799 368.024 185.184C366.66 185.953 365.101 187.324 363.614 188.832C360.179 192.321 357.394 196.399 355.297 200.826L329.852 197.68H329.855Z" fill="#B76367"/>
<path d="M340.9 223.201L340.629 215.938C337.158 214.74 334.145 211.247 331.901 205.82C330.183 201.663 329.501 197.781 329.498 197.741L329.415 197.261L355.084 200.433C357.234 195.959 360.016 191.971 363.358 188.576C365.093 186.811 366.605 185.563 367.846 184.863C369.196 184.105 370.242 183.975 370.96 184.473C372.213 185.343 371.844 187.782 371.826 187.887L371.794 187.991C371.751 188.078 367.529 196.518 365.949 199.152C364.718 201.205 366.699 207.855 367.569 210.244L367.626 210.406L367.536 210.554C360.359 222.516 341.445 223.183 341.253 223.19L340.896 223.201H340.9ZM330.302 198.098C330.836 200.7 333.748 213.033 341.087 215.328L341.329 215.404L341.589 222.451C344.198 222.295 360.334 220.917 366.825 210.327C366.382 209.067 363.769 201.375 365.324 198.78C366.825 196.28 370.758 188.435 371.119 187.721C371.206 187.1 371.256 185.559 370.545 185.069C369.957 184.661 368.943 185.076 368.2 185.494C367.017 186.158 365.559 187.367 363.87 189.081C360.529 192.477 357.75 196.478 355.622 200.974L355.51 201.209L330.299 198.091L330.302 198.098Z" fill="#231F20"/>
<path d="M466.833 420.019H414.646V420.741H466.833V420.019Z" fill="#231F20"/>
<path d="M460.16 412.012H419.325V412.734H460.16V412.012Z" fill="#231F20"/>
<path d="M457.549 404.684H423.396V405.405H457.549V404.684Z" fill="#231F20"/>
<path d="M468.157 397.359H427.466V398.081H468.157V397.359Z" fill="#231F20"/>
<path d="M466.617 390.031H433.164V390.753H466.617V390.031Z" fill="#231F20"/>
<path d="M258.882 270.005C258.882 270.005 262.447 276.579 264.23 277.138C266.012 277.697 267.683 273.905 267.683 273.905L264.561 266.216L258.878 270.005H258.882Z" fill="black"/>
<path d="M264.602 277.553C264.447 277.553 264.285 277.531 264.122 277.477C262.253 276.893 258.937 270.86 258.562 270.174L258.403 269.885L264.729 265.667L268.074 273.909L268.012 274.049C267.843 274.436 266.41 277.553 264.599 277.553H264.602ZM259.36 270.12C260.788 272.711 263.181 276.427 264.343 276.792C265.486 277.145 266.829 274.894 267.298 273.894L264.404 266.761L259.363 270.12H259.36Z" fill="#231F20"/>
<path d="M331.766 270.005C331.766 270.005 328.201 276.579 326.419 277.138C324.636 277.697 322.966 273.905 322.966 273.905L326.087 266.216L331.77 270.005H331.766Z" fill="black"/>
<path d="M326.044 277.553C324.232 277.553 322.8 274.432 322.63 274.049L322.569 273.909L325.914 265.667L332.239 269.885L332.08 270.174C331.709 270.86 328.389 276.896 326.52 277.477C326.358 277.528 326.199 277.553 326.04 277.553H326.044ZM323.355 273.894C323.825 274.89 325.163 277.145 326.311 276.792C327.473 276.427 329.861 272.711 331.294 270.12L326.253 266.761L323.359 273.894H323.355Z" fill="#231F20"/>
<path d="M295.959 301.948C306.052 301.948 314.235 295.771 314.235 288.15C314.235 280.53 306.052 274.352 295.959 274.352C285.865 274.352 277.683 280.53 277.683 288.15C277.683 295.771 285.865 301.948 295.959 301.948Z" fill="#231F20"/>
<path d="M295.724 299.585C305.818 299.585 314 293.408 314 285.787C314 278.167 305.818 271.989 295.724 271.989C285.631 271.989 277.448 278.167 277.448 285.787C277.448 293.408 285.631 299.585 295.724 299.585Z" fill="#E5AE9F"/>
<path d="M295.722 299.946C285.446 299.946 277.085 293.595 277.085 285.787C277.085 277.979 285.446 271.628 295.722 271.628C305.999 271.628 314.359 277.979 314.359 285.787C314.359 293.595 305.999 299.946 295.722 299.946ZM295.722 272.35C285.843 272.35 277.807 278.376 277.807 285.787C277.807 293.198 285.843 299.224 295.722 299.224C305.602 299.224 313.637 293.195 313.637 285.787C313.637 278.379 305.602 272.35 295.722 272.35Z" fill="#231F20"/>
<path d="M248.102 396.432C247.611 395.786 247.178 392.373 247.128 391.986L247.485 391.943C247.669 393.426 248.062 395.786 248.387 396.215L248.099 396.432H248.102Z" fill="#F3EDE3"/>
<path d="M264.682 379.162C264.682 379.162 281.555 372.678 278.231 378.498C274.908 384.315 272.162 386.393 272.162 386.393L264.682 379.162Z" fill="#E5AE9F"/>
<path d="M272.133 386.87L264.022 379.029L264.549 378.827C264.578 378.816 267.605 377.658 270.806 376.767C277.47 374.908 278.412 376.005 278.719 376.366C279.173 376.897 279.112 377.672 278.538 378.679C275.215 384.496 272.491 386.596 272.375 386.682L272.13 386.87H272.133ZM265.339 379.3L272.177 385.91C272.902 385.271 275.226 383.027 277.914 378.318C278.195 377.827 278.466 377.174 278.174 376.832C277.059 375.529 269.932 377.582 265.339 379.296V379.3Z" fill="#231F20"/>
<path d="M260.997 436.967L280.384 419.369L309.911 432.193L260.997 436.967Z" fill="#454E68"/>
<path d="M259.951 437.433L280.316 418.947L280.529 419.041L311.333 432.421L259.947 437.433H259.951ZM280.457 419.792L262.051 436.502L308.493 431.97L280.457 419.792Z" fill="#231F20"/>
<path d="M323.586 396.175C323.586 396.175 315.529 410.183 307.566 410.547C299.602 410.912 322.58 418.785 327.523 408.898L331.684 411.612L319.101 423.364C319.101 423.364 330.637 428.307 338.601 420.618C346.564 412.929 349.494 402.216 349.494 402.216C349.494 402.216 326.516 399.286 323.586 396.175Z" fill="#E5AE9F"/>
<path d="M327.365 425.266C322.718 425.266 319.026 423.725 318.961 423.696L318.453 423.479L331.103 411.666L327.657 409.418C326.16 412.059 323.179 413.679 319.012 414.109C315.256 414.495 311.268 413.834 308.793 413.084C306.556 412.406 305.466 411.716 305.549 411.031C305.632 410.36 306.664 410.23 307.552 410.186C315.23 409.833 323.197 396.132 323.277 395.995L323.519 395.573L323.851 395.926C326.099 398.315 341.639 400.852 349.542 401.859L349.953 401.913L349.845 402.313C349.816 402.421 346.796 413.207 338.854 420.878C335.303 424.306 331.038 425.266 327.369 425.266H327.365ZM319.773 423.234C322.101 424.06 331.608 426.871 338.352 420.358C345.291 413.658 348.409 404.525 349.029 402.519C345.901 402.107 327.473 399.578 323.677 396.731C322.295 399.03 315.007 410.565 307.584 410.908C306.704 410.948 306.39 411.078 306.289 411.135C306.653 411.702 310.089 413.095 314.808 413.434C318.431 413.694 324.854 413.434 327.203 408.74L327.383 408.379L332.269 411.565L319.773 423.234Z" fill="#231F20"/>
<path d="M331.763 248.794C329.933 248.794 328.216 249.292 326.729 250.158C322.327 237.179 310.041 227.838 295.575 227.838C281.109 227.838 268.441 237.472 264.223 250.768C262.48 249.365 260.289 248.524 257.908 248.524C252.214 248.524 247.599 253.308 247.599 259.212C247.599 265.115 252.214 269.899 257.908 269.899C259.983 269.899 261.913 269.261 263.53 268.167C266.903 282.745 279.969 293.613 295.575 293.613C311.181 293.613 323.651 283.232 327.371 269.152C328.703 269.806 330.193 270.17 331.763 270.17C337.456 270.17 342.071 265.385 342.071 259.482C342.071 253.579 337.456 248.794 331.763 248.794Z" fill="#E5AE9F"/>
<path d="M295.572 293.974C288.012 293.974 280.612 291.369 274.737 286.639C269.083 282.085 265.031 275.749 263.295 268.745C261.661 269.737 259.81 270.261 257.905 270.261C252.023 270.261 247.235 265.303 247.235 259.212C247.235 253.121 252.019 248.163 257.905 248.163C260.124 248.163 262.235 248.856 264.035 250.17C268.578 236.574 281.185 227.474 295.575 227.474C309.965 227.474 322.237 236.361 326.931 249.632C328.421 248.845 330.085 248.43 331.766 248.43C337.648 248.43 342.436 253.388 342.436 259.479C342.436 265.57 337.651 270.528 331.766 270.528C330.323 270.528 328.927 270.235 327.61 269.658C323.619 283.997 310.51 293.971 295.575 293.971L295.572 293.974ZM263.761 267.576L263.88 268.088C265.511 275.132 269.527 281.519 275.188 286.079C280.936 290.705 288.175 293.256 295.572 293.256C310.322 293.256 323.254 283.308 327.021 269.063L327.133 268.637L327.527 268.832C328.858 269.481 330.28 269.813 331.759 269.813C337.244 269.813 341.707 265.18 341.707 259.486C341.707 253.792 337.244 249.159 331.759 249.159C330.06 249.159 328.382 249.614 326.906 250.473L326.523 250.696L326.383 250.278C321.905 237.075 309.521 228.202 295.572 228.202C281.622 228.202 268.867 237.317 264.562 250.881L264.403 251.382L263.992 251.05C262.235 249.636 260.131 248.885 257.905 248.885C252.42 248.885 247.957 253.518 247.957 259.212C247.957 264.906 252.42 269.539 257.905 269.539C259.835 269.539 261.711 268.962 263.324 267.868L263.761 267.572V267.576Z" fill="#231F20"/>
<path d="M274.274 251.107L273.859 250.516C273.928 250.465 280.979 245.616 290.945 247.914L290.782 248.618C281.141 246.391 274.339 251.061 274.274 251.107Z" fill="#231F20"/>
<path d="M285.392 262.012C286.587 262.012 287.557 260.303 287.557 258.194C287.557 256.086 286.587 254.377 285.392 254.377C284.196 254.377 283.227 256.086 283.227 258.194C283.227 260.303 284.196 262.012 285.392 262.012Z" fill="#231F20"/>
<path d="M317.589 250.025C308.579 245.933 300.991 249.159 300.915 249.192L300.626 248.531C300.706 248.499 308.576 245.14 317.889 249.368L317.589 250.025Z" fill="#231F20"/>
<path d="M308.091 263.141C309.287 263.141 310.256 261.432 310.256 259.324C310.256 257.215 309.287 255.506 308.091 255.506C306.896 255.506 305.926 257.215 305.926 259.324C305.926 261.432 306.896 263.141 308.091 263.141Z" fill="#231F20"/>
<path d="M295.899 271.401C295.455 271.401 294.972 271.318 294.452 271.155L294.672 270.466C295.859 270.845 296.758 270.722 297.418 270.098C300.763 266.934 297.144 252.684 297.104 252.54L297.804 252.36C297.959 252.962 301.564 267.168 297.913 270.621C297.364 271.141 296.689 271.401 295.899 271.401Z" fill="#231F20"/>
<path d="M296.975 280.854C284.62 280.854 280.063 268.803 280.013 268.669L280.691 268.42C280.705 268.456 282.033 272.018 285.169 275.179C289.355 279.393 294.605 280.934 300.782 279.761L300.916 280.468C299.523 280.732 298.206 280.854 296.972 280.854H296.975Z" fill="#231F20"/>
<path d="M285.132 275.586C285.082 274.771 284.959 271.368 287.272 269.297C287.82 268.806 288.213 268.456 288.654 268.543C290.209 268.846 289.209 273.898 291.923 277.473C293.045 278.953 294.535 279.822 295.867 280.357C294.676 280.295 293.135 280.09 291.432 279.509C288.351 278.459 286.269 276.712 285.132 275.586Z" fill="#B76367"/>
<path d="M298.003 280.829L295.845 280.721C294.293 280.642 292.771 280.349 291.313 279.855C288.931 279.043 286.705 277.657 284.876 275.85L284.778 275.752L284.771 275.615C284.692 274.316 284.749 271.076 287.03 269.037C287.632 268.5 288.105 268.074 288.722 268.197C289.678 268.384 289.87 269.6 290.137 271.282C290.425 273.111 290.786 275.391 292.208 277.264C293.11 278.451 294.387 279.382 295.996 280.032L298.003 280.836V280.829ZM285.485 275.428C287.217 277.113 289.31 278.404 291.547 279.169C292.323 279.433 293.121 279.638 293.932 279.779C293.02 279.198 292.251 278.502 291.638 277.694C290.108 275.677 289.714 273.198 289.426 271.39C289.224 270.102 289.047 268.99 288.585 268.9C288.332 268.85 288.026 269.109 287.513 269.568C285.543 271.332 285.424 274.157 285.485 275.428Z" fill="#231F20"/>
<path d="M255.933 256.306L255.376 256.765L260.513 262.983L261.069 262.523L255.933 256.306Z" fill="#231F20"/>
<path d="M335.949 256.301L330.813 262.519L331.37 262.979L336.505 256.76L335.949 256.301Z" fill="#231F20"/>
<path d="M263.486 258.433C263.486 258.433 274.928 243.137 275.184 239.024C275.441 234.91 283.668 232.724 283.668 232.724C283.668 232.724 277.883 239.41 279.554 240.308C281.225 241.207 297.292 235.809 298.321 234.394C299.349 232.98 309.889 238.894 310.917 241.593C311.946 244.292 312.462 240.694 310.275 236.963C308.088 233.236 318.502 243.264 318.502 243.264C318.502 243.264 320.173 242.748 319.144 238.508C319.076 238.226 319.007 238.068 319.04 238.053C319.242 237.959 323.626 243.953 324.928 251.747C325.589 255.69 325.275 259.01 324.928 261.132C324.82 254.64 328.049 249.769 331.878 249.073C332.585 248.943 334.346 248.77 336.695 250.159C336.695 250.159 338.546 237.436 330.005 230.497L331.449 230.797C331.449 230.797 328.721 214.736 313.371 211.305C313.371 211.305 316.503 209.486 320.743 211.507C320.743 211.507 314.179 200.7 299.937 206.859C299.937 206.859 275.293 199.488 263.88 212.918C263.88 212.918 269.635 212.211 269.635 213.726C269.635 213.726 252.867 223.321 253.776 239.684C253.776 239.684 257.515 233.525 259.532 233.929C258.301 236.166 257.017 238.865 255.894 242.008C254.971 244.602 254.328 247.023 253.874 249.178C257.017 247.489 260.827 248.25 262.862 250.794C264.533 252.887 264.778 255.896 263.479 258.433H263.486Z" fill="black"/>
<path d="M325.289 261.193L324.571 261.139C324.549 259.746 324.679 258.404 324.95 257.144C324.997 255.351 324.871 253.569 324.578 251.808C323.655 246.276 321.093 241.546 319.714 239.464C320.292 242.975 318.801 243.552 318.614 243.61L318.412 243.671L318.26 243.523C315.269 240.644 311.906 237.634 310.575 236.75C310.582 236.761 310.585 236.772 310.593 236.783C312.097 239.348 312.426 241.964 311.989 242.639C311.873 242.819 311.697 242.906 311.498 242.892C311.155 242.856 310.885 242.506 310.585 241.723C309.766 239.568 302.045 234.939 299.226 234.564C298.797 234.506 298.638 234.578 298.617 234.607C297.92 235.567 292.428 237.544 289.293 238.562C286.716 239.399 280.593 241.272 279.384 240.626C279.132 240.489 278.966 240.258 278.912 239.958C278.648 238.526 281.221 235.13 282.603 233.434C280.38 234.196 275.726 236.133 275.545 239.042C275.285 243.216 264.248 258.018 263.775 258.645L263.165 258.263C264.406 255.849 264.179 253.002 262.588 251.014C260.639 248.578 256.97 247.922 254.051 249.491L253.369 249.859L253.527 249.101C254.04 246.659 254.725 244.23 255.559 241.885C256.475 239.309 257.594 236.783 258.886 234.365C257.486 234.935 255.295 237.876 254.087 239.872L253.484 240.867L253.419 239.706C252.943 231.129 257.334 224.432 261.101 220.325C264.594 216.519 268.217 214.173 269.198 213.567C269.195 213.563 269.191 213.56 269.184 213.556C268.516 212.964 265.601 213.073 263.923 213.275L263.006 213.387L263.605 212.683C268.343 207.105 276.155 204.268 286.197 204.489C293.15 204.64 298.988 206.213 299.912 206.473C304.047 204.709 310.127 203.319 315.857 206.553C319.321 208.508 320.981 211.2 321.049 211.312L321.677 212.344L320.588 211.824C317.957 210.572 315.756 210.864 314.551 211.218C328.998 215.169 331.777 230.569 331.806 230.728L331.896 231.248L331.264 231.118C338.69 238.255 337.074 250.079 337.056 250.202L336.98 250.736L336.518 250.462C334.516 249.278 332.928 249.242 331.95 249.419C328.952 249.964 326.566 253.074 325.675 257.199C325.639 258.523 325.513 259.854 325.296 261.178L325.289 261.193ZM257.432 247.929C259.636 247.929 261.776 248.853 263.151 250.57C264.439 252.179 264.922 254.29 264.562 256.351C267.593 252.158 274.625 242.119 274.82 239.002C275.091 234.679 283.224 232.467 283.57 232.377L284.703 232.078L283.938 232.962C282.159 235.018 279.41 238.702 279.619 239.832C279.637 239.929 279.673 239.965 279.724 239.994C280.254 240.283 283.631 239.644 289.065 237.88C294.142 236.231 297.671 234.679 298.028 234.185C298.256 233.875 298.678 233.763 299.317 233.849C300.728 234.037 303.362 235.22 306.024 236.869C307.392 237.714 310.636 239.853 311.253 241.47C311.325 241.661 311.39 241.802 311.444 241.907C311.484 241.109 311.163 239.197 309.961 237.151C309.748 236.79 309.395 236.184 309.784 235.877C310.062 235.661 310.632 235.21 318.549 242.816C318.866 242.527 319.505 241.546 318.791 238.598C318.765 238.497 318.74 238.414 318.722 238.345C318.679 238.194 318.585 237.872 318.881 237.732L319.043 237.656L319.227 237.743C319.866 238.078 324.019 244.136 325.282 251.692C325.455 252.724 325.571 253.767 325.628 254.81C326.877 251.548 329.118 249.21 331.809 248.723C332.827 248.539 334.422 248.553 336.392 249.585C336.616 247.131 337.077 236.718 329.774 230.782L328.623 229.848L330.976 230.335C330.334 227.56 326.657 214.65 313.284 211.658L312.386 211.456L313.183 210.994C313.306 210.926 315.94 209.436 319.671 210.688C317.593 208.212 311.199 202.381 300.074 207.195L299.955 207.245L299.829 207.209C299.591 207.137 276.141 200.31 264.76 212.474C266.196 212.358 268.805 212.268 269.66 213.022C269.88 213.217 269.996 213.462 269.996 213.733V213.942L269.815 214.047C269.772 214.072 265.612 216.479 261.617 220.838C258.124 224.652 254.076 230.746 254.105 238.511C255.31 236.703 257.872 233.225 259.607 233.582L260.091 233.68L259.853 234.113C258.438 236.682 257.222 239.381 256.241 242.141C255.498 244.23 254.873 246.381 254.39 248.549C255.371 248.138 256.407 247.94 257.432 247.94V247.929Z" fill="#231F20"/>
<path d="M237.24 387.458C237.24 387.458 238.921 394.335 248.245 396.324C248.245 396.324 250.078 407.174 252.983 407.022C255.887 406.871 258.179 404.273 258.179 404.273C258.179 404.273 260.928 406.871 265.363 402.743C265.363 402.743 267.654 405.647 272.395 400.755C272.395 400.755 275.607 401.671 277.591 397.085C279.579 392.499 275.3 379.051 263.681 379.051C263.035 379.065 262.108 379.007 261.065 378.668C259.449 378.145 258.388 377.218 257.85 376.676C256.039 378.419 253.676 380.379 250.702 382.193C245.568 385.329 240.689 386.758 237.24 387.458Z" fill="#E5AE9F"/>
<path d="M252.921 407.387C251.543 407.387 250.319 405.568 249.183 401.837C248.504 399.614 248.068 397.352 247.934 396.627C243.161 395.552 240.425 393.184 238.968 391.373C237.351 389.367 236.911 387.617 236.893 387.545L236.803 387.18L237.171 387.105C241.934 386.141 246.426 384.384 250.518 381.887C253.062 380.335 255.443 378.495 257.601 376.417L257.857 376.171L258.106 376.424C258.968 377.297 260.029 377.954 261.173 378.326C261.974 378.585 262.815 378.715 263.67 378.69C268.509 378.69 272.712 381.039 275.516 385.308C277.757 388.721 279.269 394.115 277.919 397.229C276.84 399.723 275.386 400.646 274.358 400.982C273.535 401.249 272.85 401.202 272.514 401.148C270.594 403.089 268.815 404.042 267.231 403.955C266.308 403.908 265.684 403.515 265.355 403.237C261.682 406.495 259.062 405.301 258.222 404.749C257.554 405.42 255.519 407.25 253 407.38C252.971 407.38 252.946 407.38 252.917 407.38L252.921 407.387ZM237.705 387.732C238.21 389.143 240.559 394.317 248.32 395.974L248.559 396.024L248.598 396.266C249.28 400.307 251.052 406.665 252.917 406.665C252.932 406.665 252.946 406.665 252.961 406.665C255.674 406.521 257.882 404.06 257.908 404.035L258.153 403.757L258.424 404.013C258.525 404.107 261.004 406.308 265.113 402.483L265.398 402.216L265.64 402.523C265.662 402.548 266.196 403.19 267.282 403.237C268.664 403.288 270.338 402.353 272.128 400.506L272.279 400.351L272.489 400.408C272.608 400.441 275.43 401.162 277.255 396.944C278.24 394.675 277.631 389.847 274.914 385.705C272.251 381.645 268.26 379.412 263.681 379.412C262.754 379.433 261.833 379.296 260.953 379.011C259.809 378.639 258.745 378.008 257.85 377.175C255.721 379.188 253.383 380.981 250.893 382.497C246.841 384.968 242.406 386.729 237.705 387.725V387.732Z" fill="#231F20"/>
<path d="M258.501 404.438L257.859 404.106C258.472 402.923 257.343 397.445 256.434 394.054L257.13 393.866C257.368 394.757 259.436 402.627 258.501 404.438Z" fill="#231F20"/>
<path d="M265.688 402.901L265.039 402.584C266.154 400.289 264.429 392.866 264.411 392.794L265.115 392.628C265.191 392.942 266.915 400.375 265.688 402.901Z" fill="#231F20"/>
<path d="M272.71 400.935L272.082 400.578C272.969 399.026 272.002 393.289 271.559 391.21L272.266 391.059C272.435 391.853 273.893 398.864 272.71 400.938V400.935Z" fill="#231F20"/>
<path d="M130.725 219.802C144.274 238.139 146.525 243.776 145.309 244.912C144.393 245.767 141.716 243.895 140.694 244.912C139.121 246.482 143.213 253.175 147.254 259.006C139.143 263.498 129.292 263.206 121.783 258.22C111.806 251.595 111.106 240.088 111.052 238.876L130.725 219.798V219.802Z" fill="#2A1C19"/>
<path d="M112.589 174.991C112.589 174.991 158.844 186.447 148.04 228.711C146.933 233.048 144.652 237.032 141.325 240.03C137.537 243.447 131.713 246.399 123.573 244.53L127.574 258.407C127.574 258.407 120.902 282.157 90.4845 264.278C93.0861 252.132 95.316 242.873 97.9176 230.728C96.2253 231.536 91.0257 231.078 87.2478 228.707C80.6194 224.547 82.3333 207.386 89.7412 204.802C93.7825 203.391 99.5269 203.236 103.752 207.88C106.801 195.854 109.543 187.021 112.589 174.994V174.991Z" fill="#FCD1C7"/>
<path d="M110.445 271.311C104.661 271.311 97.9169 269.063 90.2998 264.588L90.0761 264.455L90.1302 264.199C91.4328 258.126 92.6596 252.685 93.8468 247.424C94.9942 242.343 96.1777 237.093 97.4298 231.269C95.2504 231.789 90.621 231.251 87.0524 229.011C83.8518 227.004 82.2209 221.855 82.8956 215.891C83.5451 210.146 86.1828 205.658 89.6215 204.46C91.6132 203.767 98.3644 201.97 103.56 207.159C105.029 201.4 106.447 196.287 107.822 191.34C109.243 186.213 110.716 180.916 112.238 174.904L112.325 174.558L112.675 174.644C112.895 174.699 134.707 180.27 144.85 197.232C150.248 206.26 151.439 216.883 148.39 228.805C147.228 233.348 144.868 237.324 141.566 240.301C138.128 243.404 132.329 246.691 124.088 245.013L127.952 258.407L127.923 258.505C127.902 258.588 125.517 266.786 117.524 270.004C115.356 270.878 112.996 271.314 110.449 271.314L110.445 271.311ZM90.8916 264.094C101.554 270.315 110.42 272.076 117.243 269.333C124.449 266.436 126.91 259.306 127.198 258.4L123.056 244.039L123.655 244.176C130.283 245.699 136.147 244.212 141.087 239.76C144.283 236.877 146.568 233.023 147.693 228.621C150.692 216.894 149.526 206.459 144.237 197.604C134.949 182.067 115.677 176.221 112.852 175.435C111.358 181.305 109.918 186.501 108.522 191.531C107.1 196.659 105.628 201.959 104.105 207.967L103.939 208.617L103.488 208.119C98.5339 202.674 91.8081 204.463 89.8632 205.138C86.6879 206.246 84.2343 210.496 83.6173 215.97C82.8884 222.44 85.0137 226.871 87.442 228.397C91.0792 230.681 96.1344 231.176 97.7654 230.396L98.4257 230.079L98.2705 230.797C96.9679 236.873 95.7411 242.314 94.554 247.579C93.3849 252.764 92.1725 258.126 90.8952 264.094H90.8916Z" fill="#231F20"/>
<path d="M170.746 322.112C171.345 322.772 175.418 327.149 180.232 326.499C185.803 325.749 190.985 318.446 189.567 309.111C188.989 305.405 183.891 275.803 157.597 262.275C145.484 256.044 133.862 255.791 127.464 256.184C127.464 256.184 123.621 271.354 90.4793 264.274C88.7004 263.895 87.0297 263.614 84.457 263.83C76.1219 264.53 70.4135 270.564 68.5877 272.725C65.0083 276.961 63.0237 282.092 62.0387 289.381C59.3433 309.27 66.1954 329.541 69.7135 338.605C70.2439 339.002 70.9259 339.417 71.7739 339.727C74.6028 340.763 77.2079 339.868 78.1208 339.507C78.6693 347.42 79.2178 355.333 79.7698 363.246H183.389C179.51 346.561 170.749 322.112 170.749 322.112H170.746Z" fill="#AB78B4"/>
<path d="M183.844 363.607H79.4344L77.7962 340.012C76.4106 340.489 74.0941 340.961 71.6513 340.067C70.8863 339.785 70.1647 339.392 69.5008 338.894L69.4178 338.833L69.3817 338.735C64.5177 326.2 59.2316 307.455 61.6888 289.334C62.6919 281.93 64.7378 276.737 68.3208 272.494C70.4173 270.012 76.1833 264.163 84.4355 263.473C87.0984 263.25 88.852 263.56 90.5624 263.924C107.514 267.544 116.564 265.205 121.168 262.607C126.115 259.815 127.114 256.134 127.125 256.098L127.19 255.845L127.454 255.827C138.21 255.171 148.692 257.289 157.774 261.958C183.465 275.175 189.072 303.511 189.935 309.057C190.696 314.083 189.606 319.009 186.943 322.563C185.118 325.002 182.754 326.525 180.293 326.86C176.613 327.358 173.394 325.092 171.626 323.49C173.582 329.065 180.459 349.015 183.75 363.167L183.855 363.611L183.844 363.607ZM80.1055 362.885H182.931C179.049 346.421 170.493 322.476 170.407 322.234L169.793 320.524L171.013 321.87C171.756 322.689 175.689 326.748 180.185 326.142C182.455 325.835 184.645 324.41 186.355 322.13C188.906 318.727 189.946 314 189.213 309.165C188.362 303.681 182.819 275.655 157.438 262.597C148.544 258.021 138.278 255.921 127.742 256.527C127.428 257.451 126.061 260.648 121.586 263.196C113.053 268.059 99.9223 266.656 90.4108 264.624C88.6933 264.256 87.0623 263.971 84.4968 264.188C76.5153 264.855 70.9116 270.542 68.8729 272.956C65.3837 277.087 63.3883 282.168 62.4032 289.428C61.061 299.333 61.2955 315.859 70.0167 338.374C70.6013 338.804 71.2363 339.143 71.9003 339.385C74.4153 340.305 76.7931 339.644 77.9911 339.168L78.4493 338.984L80.1091 362.882L80.1055 362.885Z" fill="#231F20"/>
<path d="M127.469 256.184C127.469 256.184 156.281 260.94 170.104 321.426L175.069 324.453C175.069 324.453 163.335 265.137 127.469 256.184Z" fill="#231F20"/>
<path d="M111.052 238.875C111.052 238.875 118.842 243.974 123.259 244.136L124.796 249.347C124.796 249.347 114.53 242.635 111.048 238.875H111.052Z" fill="#231F20"/>
<path d="M136.45 179.245C125.441 164.851 104.474 167.507 102.381 167.807C84.1264 170.405 73.6768 185.141 70.4401 190.297C70.0649 190.9 69.7762 191.38 69.6175 191.65C63.054 202.879 65.0457 210.172 62.2096 224.987C60.3008 234.961 57.3493 242.347 58.3235 242.726C59.1245 243.036 61.5746 238.204 62.1158 238.475C62.6787 238.753 60.0122 243.887 59.0524 249.527C57.9771 255.838 59.2869 261.297 60.5101 264.834C61.6467 261.341 63.0973 257.39 63.9127 257.545C65.5329 257.855 60.8962 273.768 66.3411 277.224C71.6056 280.566 83.7439 270.654 88.9904 265.173C93.3853 260.583 94.8069 257.159 95.2832 255.899C96.8132 251.855 96.5425 249.112 96.9394 242.982C97.1632 239.493 97.6395 234.354 98.7797 228.04C98.2673 228.249 97.5565 228.487 96.6833 228.617C96.2286 228.686 95.7668 228.722 95.2977 228.722C89.7373 228.722 85.2269 223.742 85.2269 217.601C85.2269 211.46 89.7373 206.48 95.2977 206.48C98.6462 206.48 101.612 208.288 103.442 211.063C104.124 211.146 105.293 211.204 106.523 210.706C112.52 208.295 112.34 195.894 114.465 195.904C115.616 195.912 115.836 199.552 117.113 199.754C118.557 199.982 121.025 195.774 125.423 180.995C126.423 182.633 127.964 184.978 130.107 187.602C130.468 188.042 135.851 194.58 136.966 193.858C137.796 193.321 135.552 189.218 136.364 188.684C137.035 188.244 139.362 190.488 142.162 193.66C141.711 190.117 140.452 184.48 136.443 179.238L136.45 179.245Z" fill="#2C1B18"/>
<path d="M68.9134 278.271C67.8454 278.271 66.9217 278.026 66.1495 277.535C62.4113 275.161 63.1618 267.439 63.6598 262.33C63.8402 260.482 64.0422 258.4 63.8257 257.935C63.584 258.104 62.7577 259.1 60.8561 264.949L60.5242 265.974L60.1741 264.956C58.3484 259.667 57.8504 254.456 58.702 249.47C59.2432 246.294 60.3365 243.227 61.0618 241.199C61.3144 240.489 61.5742 239.767 61.7185 239.262C61.4407 239.623 61.0943 240.128 60.8092 240.543C59.5896 242.325 58.8643 243.321 58.1968 243.065C57.4102 242.758 57.7422 241.391 59.0267 236.685C59.8494 233.672 60.9752 229.545 61.8592 224.922C62.801 220.001 63.2123 215.869 63.5768 212.225C64.3129 204.849 64.8938 199.026 69.3103 191.47C69.415 191.289 69.7109 190.791 70.1403 190.106C73.8821 184.138 84.5157 169.982 102.337 167.449C104.697 167.114 125.697 164.588 136.742 179.025C139.878 183.124 141.823 188.035 142.533 193.62L142.681 194.782L141.906 193.905C137.597 189.034 136.699 188.966 136.562 188.998C136.425 189.215 136.814 190.478 137.024 191.156C137.467 192.606 137.821 193.75 137.175 194.165C136.01 194.916 132.546 191.138 129.843 187.833C128.292 185.938 126.852 183.936 125.553 181.872C120.577 198.419 118.408 200.317 117.07 200.115C116.218 199.982 115.807 198.903 115.406 197.86C115.15 197.189 114.8 196.272 114.475 196.272C113.938 196.272 113.389 198.387 112.909 200.252C111.903 204.157 110.521 209.5 106.671 211.048C105.682 211.445 104.585 211.572 103.409 211.427L103.243 211.406L103.153 211.269C101.327 208.501 98.3968 206.848 95.3081 206.848C89.9534 206.848 85.5982 211.676 85.5982 217.608C85.5982 223.54 89.9534 228.368 95.3081 228.368C95.7555 228.368 96.2029 228.336 96.6396 228.267C97.3287 228.163 98.0035 227.975 98.653 227.712L99.2592 227.463L99.1437 228.108C98.2416 233.11 97.621 238.125 97.3071 243.007C97.2169 244.393 97.1628 245.623 97.1122 246.706C96.9426 250.404 96.8308 252.847 95.6292 256.029C94.2148 259.775 91.3823 263.206 89.2606 265.425C86.6843 268.117 82.3399 271.996 77.8728 274.818C74.2321 277.116 71.2336 278.271 68.9206 278.271H68.9134ZM63.8402 257.18C63.8871 257.18 63.934 257.188 63.9809 257.195C64.8325 257.357 64.7278 258.819 64.3778 262.398C63.8979 267.334 63.1726 274.789 66.5356 276.925C71.5691 280.118 83.6641 270.221 88.7302 264.927C90.8085 262.755 93.5725 259.407 94.9473 255.777C96.1091 252.703 96.2138 250.433 96.3834 246.677C96.4339 245.591 96.488 244.36 96.5782 242.967C96.8813 238.259 97.4658 233.431 98.3138 228.606C97.7978 228.776 97.271 228.906 96.737 228.985C96.2643 229.057 95.7772 229.094 95.2973 229.094C89.5457 229.094 84.8657 223.941 84.8657 217.612C84.8657 211.283 89.5457 206.13 95.2973 206.13C98.5736 206.13 101.684 207.848 103.647 210.735C104.639 210.836 105.559 210.716 106.389 210.385C109.9 208.974 111.228 203.832 112.199 200.079C112.902 197.359 113.364 195.558 114.465 195.558H114.468C115.284 195.562 115.666 196.558 116.067 197.611C116.362 198.383 116.731 199.343 117.167 199.412C117.856 199.527 120.007 197.936 125.077 180.908L125.307 180.129L125.73 180.822C127.119 183.099 128.685 185.307 130.384 187.385C133.314 190.965 136.183 193.75 136.775 193.563C136.923 193.346 136.529 192.062 136.316 191.372C135.876 189.94 135.53 188.807 136.161 188.392C136.72 188.024 137.785 188.302 141.631 192.538C140.827 187.562 138.986 183.171 136.154 179.465C125.362 165.353 104.74 167.836 102.424 168.164C84.9018 170.657 74.4269 184.607 70.7392 190.492C70.3135 191.17 70.0284 191.657 69.9238 191.834C65.5866 199.253 65.0129 205.008 64.2876 212.297C63.9232 215.956 63.5082 220.105 62.5592 225.059C61.668 229.711 60.5386 233.853 59.7123 236.877C59.0375 239.352 58.3953 241.697 58.4855 242.332C58.8788 242.069 59.6978 240.875 60.203 240.135C61.2963 238.536 61.7618 237.898 62.2706 238.154C62.8082 238.421 62.534 239.182 61.7293 241.441C60.9716 243.566 59.9324 246.475 59.402 249.589C58.6298 254.128 58.9978 258.866 60.5061 263.683C62.4221 257.978 63.2556 257.177 63.833 257.177L63.8402 257.18Z" fill="#231F20"/>
<path d="M91.6371 214.73L91.1846 215.292L96.7417 219.765L97.1942 219.203L91.6371 214.73Z" fill="#231F20"/>
<path d="M109.269 328.39C110.02 323.356 111.329 309.948 104.156 295.558C98.6606 284.535 90.7693 278.119 86.562 275.157C90.1487 278.404 94.7817 283.413 98.5415 290.503C105.805 304.211 105.361 317.338 104.784 323.194C105.477 324.002 106.173 324.814 106.873 325.626C107.671 326.553 108.472 327.473 109.269 328.39Z" fill="#231F20"/>
<path d="M109.387 328.805L109.131 328.509C108.333 327.592 107.536 326.672 106.735 325.745C106.035 324.933 105.338 324.121 104.645 323.313L104.595 323.255L104.602 323.179C105.389 315.158 104.949 302.991 98.3778 290.589C95.3433 284.863 91.3272 279.714 86.438 275.29L86.6617 275.009C91.8937 278.693 99.2041 285.231 104.313 295.475C111.039 308.966 110.415 321.906 109.444 328.415L109.387 328.801V328.805ZM104.97 323.136C105.645 323.926 106.327 324.717 107.009 325.51C107.723 326.337 108.434 327.159 109.145 327.975C110.076 321.39 110.545 308.779 103.992 295.637C99.6588 286.945 93.7267 280.937 88.8483 277.087C92.7994 281.053 96.1046 285.523 98.699 290.416C105.288 302.854 105.75 315.061 104.97 323.132V323.136Z" fill="#231F20"/>
<path d="M178.967 305.954C178.967 305.954 169.434 296.709 164.916 288.389C164.112 286.906 164.141 285.827 164.169 285.426C164.234 284.596 164.559 284.214 164.808 283.261C165.017 282.468 165.212 281.374 165.313 279.563C165.728 272.126 163.235 266.039 158.144 253.861C157.916 253.316 157.408 252.143 156.372 251.862C155.791 251.703 155.235 251.876 154.846 252.053C154.748 251.996 153.774 251.454 152.746 251.927C152.031 252.255 151.724 252.869 151.645 253.049C150.573 252.984 150.083 253.28 149.834 253.554C149.422 254.009 149.044 255.864 149.202 255.275C149.018 255.294 148.708 255.348 148.401 255.542C145.28 257.505 149.913 269.128 148.156 269.922C147.174 270.362 145.576 266.858 141.719 266.284C140.622 266.122 138.911 266.158 138.569 266.93C138.146 267.868 139.951 269.474 141.055 270.553C143.097 272.552 145.699 275.644 148.116 280.44C149.314 290.871 152.37 306.059 160.72 322.476C164.169 329.253 167.929 335.08 171.581 339.995C176.192 346.201 185.495 346.612 190.456 340.68C190.582 340.532 190.705 340.377 190.824 340.222C195.533 334.113 195.251 324.717 189.662 317.681C185.466 312.499 181.699 308.613 178.974 305.972L178.967 305.954Z" fill="#FCD1C7"/>
<path d="M181.362 345.244C181.24 345.244 181.121 345.244 180.998 345.241C177.126 345.129 173.586 343.292 171.284 340.196C167.175 334.665 163.508 328.751 160.395 322.627C153.719 309.504 149.469 295.341 147.762 280.533C145.821 276.694 143.479 273.421 140.802 270.801L140.48 270.491C139.203 269.257 137.752 267.857 138.24 266.775C138.802 265.515 141.473 265.876 141.772 265.919C144.193 266.28 145.77 267.749 146.817 268.719C147.271 269.142 147.834 269.668 148.011 269.585C148.502 269.365 148 266.536 147.668 264.667C146.986 260.835 146.214 256.491 148.213 255.232C148.419 255.102 148.642 255.012 148.888 254.957C149.028 254.366 149.353 253.543 149.57 253.308C149.959 252.879 150.584 252.673 151.432 252.677C151.626 252.334 151.987 251.876 152.601 251.595C153.564 251.154 154.488 251.479 154.863 251.652C155.433 251.425 155.974 251.378 156.469 251.512C157.696 251.847 158.266 253.207 158.482 253.72C163.397 265.479 166.106 271.956 165.677 279.58C165.59 281.143 165.424 282.341 165.161 283.351C165.053 283.759 164.934 284.066 164.829 284.336C164.681 284.715 164.566 285.011 164.533 285.451C164.468 286.288 164.71 287.244 165.237 288.211C169.686 296.406 179.129 305.596 179.223 305.69C182.95 309.306 186.555 313.253 189.939 317.431C195.496 324.424 195.987 334.087 191.108 340.42C190.986 340.582 190.859 340.737 190.729 340.893C188.409 343.671 185.014 345.241 181.366 345.241L181.362 345.244ZM140.646 266.555C139.806 266.555 139.055 266.713 138.896 267.067C138.618 267.688 140.156 269.171 140.982 269.968L141.307 270.282C144.056 272.97 146.456 276.329 148.437 280.262L148.466 280.32L148.473 280.385C150.165 295.132 154.394 309.233 161.04 322.299C164.136 328.386 167.781 334.264 171.869 339.763C174.037 342.679 177.372 344.414 181.023 344.515C184.585 344.616 187.922 343.13 190.177 340.431C190.3 340.286 190.419 340.135 190.538 339.983C195.215 333.914 194.727 324.619 189.38 317.89C186.017 313.74 182.43 309.811 178.725 306.217C178.53 306.055 178.137 305.65 177.151 304.633C176.267 303.72 174.896 302.269 173.37 300.534C170.667 297.463 166.954 292.891 164.602 288.565C164.01 287.475 163.736 286.382 163.812 285.404C163.855 284.859 163.999 284.481 164.154 284.084C164.259 283.817 164.364 283.542 164.461 283.174C164.714 282.211 164.872 281.06 164.955 279.548C165.356 272.389 163.057 266.544 157.815 254.005C157.62 253.539 157.165 252.457 156.277 252.215C155.902 252.114 155.469 252.172 154.997 252.385L154.827 252.461L154.665 252.367C154.574 252.313 153.752 251.865 152.896 252.255C152.334 252.515 152.063 253.002 151.973 253.197L151.872 253.42L151.626 253.406C150.89 253.363 150.378 253.493 150.104 253.792C149.959 253.951 149.786 254.449 149.663 254.86H149.689L149.552 255.365C149.516 255.499 149.454 255.719 149.202 255.744L148.956 255.769L148.917 255.694C148.801 255.73 148.693 255.78 148.592 255.841C147.004 256.841 147.762 261.11 148.372 264.537C148.985 267.987 149.259 269.809 148.3 270.242C147.686 270.52 147.112 269.986 146.319 269.246C145.279 268.283 143.858 266.959 141.66 266.63C141.328 266.58 140.978 266.555 140.639 266.555H140.646Z" fill="#231F20"/>
<path d="M88.3546 363.127C85.3633 361.041 82.1339 358.187 78.7782 354.294C78.6122 352.295 78.8972 349.78 78.7313 347.781C80.3442 350.198 90.8118 365.444 104.693 364.873C107.504 364.758 109.864 364.018 111.105 363.621C115.189 362.312 120.735 359.519 130.077 347.781C134.072 342.762 139.228 335.527 144.153 326.012C144.153 326.012 137.518 351.559 121.403 363.163" fill="#231F20"/>
<path d="M154.184 308.295C159.712 332.579 170.544 343.985 179.381 349.758C179.687 349.96 179.998 350.155 180.308 350.347C180.023 349.693 179.742 349.008 179.475 348.283C178.973 346.933 178.576 345.645 178.266 344.44C177.66 344.281 176.768 344.007 175.758 343.52C171.775 341.593 169.873 338.241 167.585 334.333C161.675 324.244 162.804 326.875 160.758 322.956C158.871 319.337 156.504 314.397 154.184 308.292V308.295Z" fill="#231F20"/>
<path d="M73.2765 339.587C73.2765 339.587 73.2656 339.587 73.262 339.587C73.0022 339.854 86.3637 362.023 101.082 364.682C122.23 368.504 141.802 331.255 152.81 310.302C158.497 299.481 159.85 290.651 158.18 281.659C156.819 274.334 152.955 269.016 145.118 258.389C144.768 257.913 143.995 256.895 142.92 256.867C142.321 256.852 141.82 257.148 141.484 257.411C141.376 257.379 140.3 257.083 139.413 257.787C138.796 258.274 138.644 258.945 138.608 259.136C137.551 259.331 137.147 259.732 136.97 260.056C136.678 260.594 136.75 262.488 136.764 261.879C136.591 261.94 136.303 262.066 136.05 262.33C133.484 264.978 140.744 275.168 139.222 276.355C138.374 277.019 135.989 273.992 132.102 274.349C130.998 274.45 129.346 274.894 129.194 275.724C129.007 276.737 131.139 277.867 132.467 278.653C133.069 279.011 133.723 279.426 134.412 279.906C138.814 282.969 139.785 289.085 136.555 293.368C129.061 303.316 121.563 313.261 114.068 323.209C111.82 326.193 107.404 326.377 104.914 323.588C104.575 324.338 104.044 325.395 103.265 326.575C102.702 327.427 99.7974 331.674 93.6705 334.679C85.79 338.544 73.9476 339.681 73.2692 339.594L73.2765 339.587Z" fill="#FCD1C7"/>
<path d="M104.073 365.314C103.044 365.314 102.027 365.224 101.017 365.04C86.569 362.427 73.3337 341.052 72.9224 339.76C72.8538 339.543 72.9296 339.41 73.0018 339.334L73.1317 339.201L73.3157 339.226C73.8245 339.28 85.5334 338.259 93.5113 334.347C99.0825 331.616 101.976 327.856 102.961 326.369C103.575 325.442 104.12 324.453 104.582 323.436L104.809 322.931L105.177 323.346C106.292 324.594 107.89 325.269 109.561 325.2C111.232 325.132 112.769 324.327 113.775 322.988L136.262 293.148C137.767 291.153 138.377 288.692 137.984 286.224C137.59 283.759 136.248 281.619 134.202 280.198C133.578 279.761 132.928 279.346 132.279 278.96L131.896 278.736C130.439 277.885 128.62 276.824 128.836 275.659C129.085 274.302 131.763 274.017 132.066 273.991C134.502 273.768 136.385 274.818 137.63 275.514C138.171 275.814 138.842 276.189 138.994 276.073C139.42 275.741 138.261 273.115 137.493 271.375C135.923 267.814 134.141 263.776 135.786 262.081C135.952 261.907 136.151 261.763 136.378 261.655C136.374 261.049 136.497 260.172 136.648 259.89C136.926 259.378 137.482 259.024 138.308 258.837C138.417 258.458 138.658 257.927 139.185 257.509C140.019 256.852 140.989 256.95 141.397 257.029C141.899 256.672 142.411 256.506 142.923 256.513C144.197 256.545 145.07 257.736 145.402 258.18C152.965 268.438 157.133 274.085 158.529 281.598C160.294 291.098 158.627 300.007 153.124 310.475C147.567 321.047 139.957 335.531 131.027 347.009C121.562 359.172 112.509 365.314 104.069 365.314H104.073ZM73.7956 339.937C75.441 343.061 87.6334 361.889 101.146 364.332C110.16 365.963 120.021 359.984 130.464 346.565C139.358 335.138 146.947 320.69 152.492 310.139C157.912 299.823 159.558 291.059 157.826 281.728C156.462 274.381 152.33 268.778 144.828 258.606C144.529 258.202 143.833 257.253 142.912 257.231C142.523 257.224 142.115 257.379 141.707 257.7L141.559 257.816L141.379 257.761C141.278 257.733 140.376 257.487 139.636 258.072C139.149 258.458 139.001 258.992 138.961 259.205L138.914 259.446L138.669 259.49C137.944 259.623 137.475 259.869 137.284 260.226C137.182 260.413 137.128 260.94 137.11 261.366L137.136 261.359L137.121 261.886C137.121 262.023 137.11 262.25 136.872 262.337L136.638 262.42L136.584 262.355C136.479 262.42 136.385 262.492 136.302 262.575C134.996 263.921 136.746 267.89 138.153 271.076C139.568 274.284 140.268 275.987 139.438 276.633C138.907 277.048 138.225 276.665 137.276 276.135C136.039 275.442 134.343 274.497 132.131 274.699C130.962 274.807 129.641 275.251 129.544 275.778C129.421 276.449 131.265 277.524 132.257 278.105L132.643 278.332C133.311 278.726 133.971 279.155 134.613 279.599C136.822 281.136 138.272 283.445 138.694 286.105C139.12 288.767 138.46 291.423 136.836 293.577L114.349 323.418C113.213 324.926 111.477 325.839 109.59 325.915C107.883 325.987 106.241 325.366 105.015 324.204C104.589 325.092 104.102 325.947 103.56 326.763C102.543 328.3 99.5552 332.179 93.8252 334.99C86.7169 338.475 76.3791 339.774 73.7848 339.926L73.7956 339.937Z" fill="#231F20"/>
<path d="M136.763 261.882C136.763 261.882 141.151 272.956 142.244 273.894L136.763 261.882Z" fill="#FCD1C7"/>
<path d="M142.009 274.168C140.88 273.198 136.878 263.156 136.427 262.015L137.098 261.748C138.783 265.999 141.731 272.977 142.478 273.62L142.009 274.168Z" fill="#231F20"/>
<path d="M138.607 259.143C138.607 259.143 143.496 270.531 144.748 271.942L138.607 259.143Z" fill="#FCD1C7"/>
<path d="M144.481 272.18C143.204 270.744 138.477 259.753 138.279 259.284L138.943 258.999C140.296 262.152 144.027 270.578 145.023 271.7L144.485 272.18H144.481Z" fill="#231F20"/>
<path d="M141.483 257.419C141.483 257.419 146.314 269.045 147.801 269.983L141.483 257.419Z" fill="#FCD1C7"/>
<path d="M147.61 270.289C146.073 269.318 141.649 258.757 141.151 257.555L141.818 257.278C143.669 261.73 146.985 269.037 147.996 269.676L147.61 270.285V270.289Z" fill="#231F20"/>
<path d="M149.249 255.369C149.249 255.369 152.381 267.565 153.719 268.705L149.249 255.369Z" fill="#FCD1C7"/>
<path d="M153.488 268.98C152.102 267.8 149.226 256.719 148.901 255.459L149.601 255.279C150.803 259.952 153.044 267.652 153.957 268.431L153.488 268.98Z" fill="#231F20"/>
<path d="M151.583 253.16C151.583 253.16 154.715 265.356 156.053 266.497L151.583 253.16Z" fill="#FCD1C7"/>
<path d="M155.82 266.771C154.434 265.591 151.558 254.51 151.233 253.251L151.933 253.071C153.135 257.743 155.376 265.443 156.289 266.223L155.82 266.771Z" fill="#231F20"/>
<path d="M154.531 251.808C154.531 251.808 157.663 264.004 159.002 265.144L154.531 251.808Z" fill="#FCD1C7"/>
<path d="M158.766 265.418C157.381 264.238 154.505 253.157 154.18 251.898L154.88 251.717C156.082 256.39 158.322 264.09 159.235 264.87L158.766 265.418Z" fill="#231F20"/>
<path d="M157.284 413.583H108.862L81.021 380.292H129.442L157.284 413.583Z" fill="#F3EDE3"/>
<path d="M157.91 413.875H108.724L80.3916 380H129.577L157.91 413.875ZM109 413.29H156.657L129.305 380.585H81.6471L109 413.29Z" fill="#231F20"/>
<path d="M105.245 422.38L181.554 421.499L170.986 388.914L133.089 389.09L105.245 422.38Z" fill="#F3EDE3"/>
<path d="M104.613 422.679L132.949 388.797H133.083L171.194 388.621L181.949 421.786L104.607 422.679H104.613ZM133.227 389.382L105.88 422.079L181.153 421.21L170.775 389.207L133.227 389.379V389.382Z" fill="#231F20"/>
<path d="M336.317 366.591L338.14 361.236L338.605 361.395L340.882 357.61L341.502 357.985L336.317 366.591Z" fill="#231F20"/>
<path d="M333.702 363.924L328.831 329.689C328.831 329.689 335.625 354.817 338.483 361.355C338.476 361.453 338.342 363.152 336.801 363.975C335.271 364.794 333.792 363.975 333.702 363.924Z" fill="#231F20"/>
<path d="M158.767 222.473L158.861 245.468L154.459 222.895L158.767 222.473Z" fill="#F47B20"/>
<path d="M186.98 234.69L168.639 248.564L184.057 231.5L186.98 234.69Z" fill="#F47B20"/>
<path d="M174.001 222.137L164.843 243.234L169.884 220.794L174.001 222.137Z" fill="#F47B20"/>
<path d="M474.035 210.917C474.024 210.834 472.819 202.704 458.79 199.226L458.963 198.526C473.508 202.13 474.706 210.473 474.75 210.826L474.035 210.917Z" fill="#231F20"/>
<path d="M451.252 196.119C449.751 194.784 448.055 193.745 446.204 193.034C442.769 191.717 439.601 191.84 437.548 192.175L437.433 191.464C439.572 191.114 442.881 190.984 446.464 192.359C448.398 193.099 450.17 194.185 451.736 195.578L451.256 196.115L451.252 196.119Z" fill="#231F20"/>
<path d="M451.318 221.98C448.623 221.889 445.364 221.045 445.159 217.538C444.812 211.703 453.443 201.817 454.367 201.676L454.475 202.39C454.504 202.387 454.522 202.376 454.522 202.376C453.689 202.765 444.87 212.833 445.96 218.133C446.364 220.1 448.175 221.15 451.343 221.258L451.318 221.98Z" fill="#231F20"/>
<path d="M446.94 203.426C446.799 203.426 446.659 203.375 446.543 203.278C445.233 202.177 443.13 200.997 440.55 201.643L440.377 200.943C443.021 200.283 445.204 201.38 446.5 202.325C445.948 201.593 445.277 200.99 444.497 200.532C441.809 198.952 439.002 199.832 438.464 200.023L438.219 199.345C438.807 199.136 441.892 198.165 444.862 199.908C445.922 200.532 446.799 201.394 447.474 202.47C447.64 202.733 447.589 203.061 447.351 203.267C447.232 203.372 447.088 203.422 446.944 203.422L446.94 203.426Z" fill="#2A1C19"/>
<path d="M465.726 210.873C465.491 210.354 464.178 207.723 461.172 206.89C460.302 206.648 459.4 206.583 458.491 206.695C460.071 206.969 462.377 207.777 463.741 210.137L463.117 210.498C461.789 208.192 459.48 207.5 457.776 207.323C457.466 207.29 457.239 207.048 457.221 206.738C457.203 206.424 457.405 206.161 457.712 206.096C458.953 205.833 460.183 205.865 461.367 206.193C464.683 207.117 466.13 210.007 466.386 210.577L465.729 210.873H465.726Z" fill="#2A1C19"/>
<path d="M445.486 232.422C454.514 235.709 464.372 226.501 464.372 226.501C464.372 226.501 449.924 227.915 445.01 224.458L446.937 228.716L445.486 232.425V232.422Z" fill="white"/>
<path d="M449.593 233.483C448.106 233.483 446.688 233.241 445.364 232.761L445.017 232.635L446.547 228.727L444.141 223.401L445.223 224.163C449.972 227.504 464.199 226.158 464.34 226.144L465.397 226.039L464.621 226.764C464.52 226.858 462.081 229.12 458.487 231.015C455.37 232.657 452.36 233.486 449.596 233.486L449.593 233.483ZM445.959 232.205C453.086 234.533 460.782 228.994 463.286 226.955C460.013 227.194 450.52 227.648 445.804 225.343L447.327 228.709L445.959 232.209V232.205Z" fill="#231F20"/>
<path d="M448.416 225.801L449.152 228.756L447.907 232.96L445.486 232.422L446.937 228.716L445.461 224.783L448.416 225.801Z" fill="#231F20"/>
<path d="M453.966 229.474C450.368 229.474 447.168 229.106 446.894 229.074L446.98 228.356C447.016 228.359 450.48 228.77 454.244 228.749C459.136 228.727 462.297 228.02 463.38 226.707L463.936 227.165C462.402 229.023 457.942 229.474 453.966 229.474Z" fill="#231F20"/>
<path d="M113.089 207.809C113.118 207.74 116.013 200.868 123.869 199.349L123.728 198.627C115.471 200.224 112.436 207.459 112.407 207.533L113.089 207.811V207.809Z" fill="#2A1C19"/>
<path d="M130.267 198.006C130.338 197.973 137.545 194.695 143.102 197.476L143.433 196.818C140.35 195.278 136.846 195.504 134.45 195.965C131.871 196.461 130.034 197.305 129.958 197.341L130.267 198.009V198.006Z" fill="#2A1C19"/>
<path d="M123.316 211.316C122.945 209.716 123.24 208.281 123.974 208.111C124.709 207.941 125.604 209.101 125.974 210.701C126.344 212.301 126.049 213.735 125.315 213.905C124.581 214.075 123.686 212.916 123.316 211.316Z" fill="#2A1C19"/>
<path d="M137.649 206.1C137.278 204.5 137.573 203.066 138.308 202.896C139.042 202.726 139.937 203.885 140.307 205.485C140.677 207.085 140.382 208.52 139.648 208.69C138.914 208.86 138.019 207.7 137.649 206.1Z" fill="#2A1C19"/>
<path d="M135.808 223.354C137.41 222.988 138.779 221.909 139.765 220.238C142.437 215.717 131.275 207.15 130.797 206.789L130.35 207.376C133.45 209.737 141.073 216.577 139.128 219.865C138.246 221.36 137.039 222.317 135.641 222.638L135.805 223.356L135.808 223.354Z" fill="#2A1C19"/>
<path d="M135.548 226.094L130.217 234.459C129.979 234.829 129.651 235.136 129.259 235.338C127.84 236.068 124.263 237.356 120.921 234.09C120.921 234.09 118.092 231.067 121.895 226.874L135.546 226.094H135.548Z" fill="#231F20"/>
</svg>
