<svg width="600" height="600" viewBox="0 0 600 600" fill="none" xmlns="http://www.w3.org/2000/svg">
<path d="M157.791 394.075C213.593 394.075 258.83 348.838 258.83 293.036C258.83 237.234 213.593 191.998 157.791 191.998C101.989 191.998 56.7529 237.234 56.7529 293.036C56.7529 348.838 101.989 394.075 157.791 394.075Z" fill="#FFCD74"/>
<path d="M431.381 395.445C492.638 395.445 542.296 345.786 542.296 284.53C542.296 223.273 492.638 173.614 431.381 173.614C370.124 173.614 320.466 223.273 320.466 284.53C320.466 345.786 370.124 395.445 431.381 395.445Z" fill="#FFCD74"/>
<path d="M387.33 210.225C387.751 209.548 389.875 206.205 394.027 203.226C402.866 196.881 412.441 197.553 414.911 197.745C420.029 198.144 422.615 199.616 423.495 200.161C425.93 201.666 427.457 203.539 428.321 204.797C431.584 205.773 437.801 208.131 443.312 213.84C444.473 215.042 448.861 219.766 451.431 227.794C455.918 241.811 448.652 245.82 452.232 256.786C455.805 267.728 464.642 266.658 468.909 279.198C473.056 291.38 463.754 296.47 467.228 316.023C467.894 319.77 468.744 322.441 467.88 326.381C466.161 334.244 459.305 339.488 453.637 342.729C448.427 292.032 440.941 278.934 434.475 277.872C433.047 277.638 429.41 277.616 426.563 274.958C423.743 272.325 423.597 268.875 422.111 259.301C421.627 256.187 420.953 252.104 420.045 247.3C421.187 247.639 422.851 248.007 424.89 248.021C425.399 248.024 425.861 248.01 426.062 247.988C430.725 247.509 434.076 242.964 433.551 237.839C433.078 233.241 428.821 228.611 424.155 229.423C420.848 229.998 418.064 233.181 417.572 237.277C417.902 229.83 415.759 226.256 413.83 224.374C408.639 219.307 400.195 221.799 396.982 216.511C395.57 214.189 395.837 211.471 396.178 209.771C394.17 211.964 392.101 214.176 389.969 216.407C387.886 218.583 385.817 220.699 383.768 222.754C383.787 220.336 384.164 215.315 387.328 210.222L387.33 210.225Z" fill="#2C1B18"/>
<path d="M396.289 239.891C391.653 251.286 387.017 262.685 382.379 274.08C394.267 275.783 400.141 273.07 403.31 270.061L411.737 254.871L396.289 239.891Z" fill="#2C1B18"/>
<path d="M383.829 221.967C383.67 223.103 383.433 224.872 383.177 227.04C381.969 237.275 381.557 242.436 382.693 246.885C383.565 250.291 385.356 253.419 387.967 255.774C390.944 258.459 395.516 260.776 401.907 259.309L398.765 270.207C400.884 275.024 403.861 277.39 405.511 278.463C413.028 283.358 424.39 281.886 433.83 274.581C431.574 272.127 428.704 268.465 426.319 263.513C423.447 257.548 422.437 252.115 422.057 248.469C422.918 248.489 428.203 248.527 431.326 244.667C435.436 239.588 433.538 230.567 428.476 228.11C426.217 227.015 422.987 227.073 420.338 228.361C419.331 228.85 418.36 229.555 417.474 230.529C416.89 228.113 415.683 224.952 412.876 223.092C410.901 221.78 409.839 222.088 404.21 220.203C398.405 218.258 397.448 217.174 396.988 216.511C395.401 214.222 395.83 211.303 396.185 209.771C393.868 211.889 391.508 214.134 389.125 216.511C387.282 218.349 385.518 220.17 383.829 221.967Z" fill="#E5AE9F"/>
<path d="M415.728 281.589C411.92 281.589 408.346 280.639 405.356 278.692C402.456 276.804 400.087 273.907 398.511 270.314L398.47 270.223L401.512 259.675C395.036 260.999 390.48 258.415 387.778 255.978C385.187 253.639 383.335 250.519 382.422 246.954C381.264 242.422 381.701 237.151 382.898 227.01C383.099 225.304 383.319 223.596 383.553 221.929L383.564 221.843L383.624 221.78C385.352 219.939 387.137 218.102 388.926 216.319C391.223 214.03 393.6 211.76 395.994 209.57L396.648 208.97L396.447 209.834C396.016 211.686 395.798 214.321 397.207 216.355C397.562 216.869 398.305 217.937 404.288 219.942C406.654 220.735 408.223 221.142 409.367 221.439C410.96 221.851 411.838 222.08 413.018 222.864C415.189 224.303 416.729 226.696 417.607 229.981C418.386 229.203 419.258 228.575 420.207 228.116C422.906 226.804 426.196 226.707 428.587 227.866C430.942 229.007 432.78 231.629 433.504 234.881C434.326 238.573 433.589 242.299 431.528 244.843C428.681 248.359 424.114 248.742 422.35 248.75C422.92 253.859 424.334 258.784 426.554 263.398C428.485 267.409 430.997 271.112 434.021 274.4L434.224 274.62L433.988 274.804C428.216 279.269 421.682 281.594 415.723 281.594L415.728 281.589ZM399.053 270.185C400.588 273.638 402.872 276.419 405.656 278.232C413.062 283.055 424.188 281.567 433.418 274.546C430.45 271.272 427.976 267.601 426.064 263.631C423.773 258.869 422.328 253.777 421.778 248.497L421.745 248.186L422.059 248.194C423.451 248.225 428.23 248.051 431.107 244.497C433.063 242.081 433.759 238.532 432.973 235.002C432.285 231.913 430.557 229.431 428.353 228.361C426.144 227.288 422.969 227.39 420.455 228.611C419.426 229.112 418.49 229.819 417.676 230.716L417.326 231.101L417.205 230.598C416.388 227.203 414.878 224.757 412.724 223.326C411.62 222.594 410.823 222.388 409.238 221.975C408.085 221.675 406.506 221.268 404.123 220.468C398.712 218.655 397.388 217.573 396.764 216.674C395.677 215.108 395.33 213.004 395.749 210.552C393.572 212.558 391.413 214.627 389.319 216.712C387.553 218.47 385.795 220.283 384.089 222.099C383.861 223.733 383.646 225.409 383.448 227.082C382.259 237.154 381.822 242.384 382.958 246.824C383.844 250.285 385.638 253.312 388.15 255.576C392.029 259.073 396.635 260.242 401.845 259.045L402.302 258.941L399.058 270.19L399.053 270.185Z" fill="#231F20"/>
<path d="M398.845 268.46C398.845 268.46 376.219 272.196 365.363 319.693L361.464 322.07C361.464 322.07 370.678 275.489 398.842 268.462L398.845 268.46Z" fill="#231F20"/>
<path d="M396.315 226.073C396.272 226.047 391.819 223.516 388.076 224.984L387.903 224.54C389.978 223.727 392.222 224.076 393.741 224.512C395.374 224.981 396.508 225.633 396.555 225.66L396.315 226.073Z" fill="#2A1C19"/>
<path d="M394.027 230.763C393.777 230.431 392.419 228.78 390.148 228.667C388.57 228.592 387.395 229.284 386.835 229.702L386.55 229.32C387.161 228.863 388.443 228.108 390.171 228.19C392.658 228.313 394.136 230.113 394.408 230.474L394.027 230.761L394.027 230.763Z" fill="#2A1C19"/>
<path d="M405.51 233.628C405.26 233.297 403.9 231.644 401.63 231.533C400.052 231.458 398.878 232.149 398.318 232.568L398.032 232.186C398.643 231.729 399.926 230.973 401.653 231.056C404.137 231.176 405.619 232.979 405.89 233.339L405.51 233.627L405.51 233.628Z" fill="#2A1C19"/>
<path d="M407.655 230.169C407.618 230.134 403.805 226.716 399.836 227.353L399.76 226.881C401.961 226.528 404.081 227.347 405.47 228.095C406.966 228.901 407.936 229.779 407.975 229.815L407.654 230.167L407.655 230.169Z" fill="#2A1C19"/>
<path d="M391.272 242.082C390.261 241.752 389.443 240.979 388.902 239.843C387.444 236.775 395.134 231.905 395.463 231.7L395.716 232.103C393.582 233.442 388.274 237.408 389.333 239.638C389.816 240.652 390.537 241.34 391.419 241.628L391.272 242.08L391.272 242.082Z" fill="#2A1C19"/>
<path d="M391.279 243.862L394.227 249.561C394.359 249.814 394.551 250.03 394.793 250.183C395.664 250.736 397.896 251.774 400.237 249.864C400.237 249.864 402.235 248.082 400.029 245.158L391.279 243.862Z" fill="#231F20"/>
<path d="M411.737 254.871C411.737 254.871 405.618 258.874 402.149 259.001L400.941 263.092C400.941 263.092 409.002 257.821 411.737 254.869V254.871Z" fill="#231F20"/>
<path d="M426.98 235.887L422.616 239.399L422.961 239.827L427.325 236.316L426.98 235.887Z" fill="#231F20"/>
<path d="M437.219 333.889L437.021 337.526C434.696 335.636 425.928 328.056 423.897 314.999C421.182 297.543 432.82 285.184 434.201 283.767C430.33 287.674 427.515 292.945 426.445 295.812C419.35 314.804 436.438 332.563 437.596 333.886" fill="#231F20"/>
<path d="M437.267 338.082L436.849 337.741C433.515 335.028 425.547 327.388 423.627 315.043C421.973 304.415 425.542 295.708 429.005 290.098C430.389 287.831 432.109 285.49 434.004 283.575L434.398 283.96C433.583 284.796 431.561 287.014 429.495 290.348C428.249 292.384 427.28 294.362 426.7 295.911C424.67 301.345 421.665 315.885 437.584 333.468C437.68 333.575 437.754 333.655 437.801 333.71L437.49 333.983L437.267 338.082ZM424.65 301.936C423.753 305.813 423.426 310.19 424.169 314.958C425.985 326.626 433.286 334.029 436.775 336.968L436.943 333.875L437.223 333.889C437.21 333.873 437.193 333.856 437.177 333.837C432.546 328.722 429.77 323.897 428.257 320.747C425.11 314.199 423.905 307.898 424.65 301.934V301.936Z" fill="#231F20"/>
<path d="M417.823 365.558C417.814 365.495 417.9 365.418 418.084 365.33C422.533 363.198 425.598 363.113 427.466 362.502C431.235 361.272 435.403 356.204 437.249 339.46C437.122 331.793 436.999 324.125 436.872 316.457C439.07 349.893 433.359 359.841 427.466 362.499C424.376 363.891 420.618 363.561 415.399 366.978C410.735 370.032 403.879 376.745 405.076 381.639C407.437 391.293 442.22 398.328 463.215 383.084C463.828 382.638 464.753 381.958 465.856 381.031C469.163 378.25 474.068 373.251 476.938 365.751C480.292 356.986 479.257 349.018 478.382 342.278C477.975 339.136 477.675 338.561 472.707 320.515C468.756 306.173 468.5 306.641 468.052 303.755C466.827 295.859 463.955 287 457.718 279.718C452.799 273.973 446.336 266.424 438.812 266.196C437.271 266.149 433.279 266.336 429.174 264.039C426.932 262.781 425.399 261.202 424.456 260.06C423.229 261.342 419.292 265.136 412.84 266.209C406.62 267.246 401.813 265.128 400.198 264.33C399.747 265.706 399.296 267.081 398.842 268.457C392.795 268.625 384.406 269.615 375.179 273.241C356.55 280.562 346.142 294.054 341.991 300.192C324.521 296.745 316.872 291.311 313.15 286.841C313.15 286.841 304.701 276.694 299.383 276.576C299.02 276.568 297.154 276.59 295.151 275.585C294.128 275.071 293.399 274.455 292.959 274.036C291.966 274.193 287.781 274.969 284.768 278.791C281.106 283.44 282.157 288.827 282.32 289.586C282.611 289.947 283.096 290.588 283.547 291.465C284.617 293.537 284.735 295.411 284.76 295.62C285.261 300.209 328.568 348.608 351.604 335.254C355.332 333.091 358.03 329.603 360.322 326.637C366.834 318.213 368.956 309.544 369.751 304.765C366.887 313.497 364.1 322.675 361.456 332.291C358.476 343.122 355.934 353.58 353.761 363.597C360.773 370.945 371.858 380.525 387.603 387.337C425.133 403.572 460.593 391.722 470.228 388.143L467.017 380.173" fill="#F47B20"/>
<path d="M428.602 395.959C414.142 395.959 400.358 393.158 387.493 387.595C374.819 382.112 363.401 374.103 353.56 363.792L353.458 363.687L353.488 363.544C355.761 353.079 358.353 342.541 361.189 332.224C362.224 328.461 363.302 324.689 364.419 320.922C363.269 322.986 361.973 324.956 360.54 326.81C358.185 329.858 355.516 333.308 351.741 335.496C345.172 339.303 336.456 338.511 325.839 333.135C314.132 327.209 303.174 317.214 297.683 311.78C289.762 303.945 284.667 297.306 284.485 295.65L284.48 295.592C284.353 294.238 283.935 292.819 283.302 291.592C282.967 290.945 282.565 290.326 282.105 289.759L282.064 289.707L282.05 289.644C281.83 288.612 280.92 283.234 284.554 278.62C287.424 274.974 291.358 274.011 292.918 273.764L293.053 273.742L293.152 273.835C293.793 274.446 294.508 274.952 295.278 275.338C296.503 275.954 297.864 276.276 299.325 276.298H299.391C304.77 276.416 313.015 286.243 313.365 286.662C318.369 292.67 327.957 297.119 341.87 299.884C347.763 291.223 358.284 279.583 375.083 272.983C382.552 270.047 390.479 268.432 398.644 268.184L400.039 263.942L400.322 264.082C402.543 265.18 407.118 266.883 412.796 265.937C418.654 264.96 422.494 261.716 424.261 259.867L424.475 259.645L424.673 259.884C426.016 261.51 427.579 262.825 429.312 263.796C432.957 265.838 436.57 265.887 438.303 265.909C438.498 265.909 438.672 265.915 438.823 265.917C446.469 266.148 453.093 273.885 457.93 279.536C463.317 285.828 466.814 293.961 468.327 303.711C468.555 305.177 468.731 305.763 469.389 307.942C470.013 310.014 471.059 313.478 472.977 320.441C474.121 324.595 475.018 327.822 475.725 330.37C478.097 338.91 478.344 339.801 478.66 342.239C479.516 348.823 480.581 357.016 477.2 365.844C475.169 371.149 471.763 376.057 467.301 380.129L470.594 388.3L470.33 388.399C460.563 392.028 449.869 394.465 439.409 395.442C435.772 395.783 432.168 395.951 428.608 395.951L428.602 395.959ZM354.061 363.517C363.828 373.724 375.149 381.656 387.714 387.089C403.657 393.986 421.031 396.614 439.351 394.9C449.671 393.934 460.216 391.546 469.868 387.986L466.861 380.525C466.588 380.767 466.313 381.003 466.032 381.24C464.981 382.123 464.101 382.781 463.378 383.306C454.799 389.535 444.793 391.491 437.91 392.036C429.562 392.696 420.97 391.681 414.337 389.249C408.895 387.254 405.511 384.575 404.81 381.705C404.111 378.849 406.064 375.639 407.825 373.446C409.778 371.017 412.552 368.513 415.248 366.749C416.059 366.218 416.835 365.775 417.578 365.404C417.658 365.228 417.872 365.126 417.966 365.079C421.1 363.577 423.576 363.077 425.383 362.711C426.154 362.554 426.819 362.419 427.367 362.243C430.47 360.837 432.834 357.599 434.451 352.559C434.649 351.934 434.839 351.279 435.021 350.597C436.019 346.767 436.655 342.057 436.927 336.481L436.6 316.463L437.15 316.441C437.648 324.007 437.755 330.698 437.48 336.475L437.53 339.471V339.488C437.147 342.943 436.649 346.022 436.041 348.723C435.868 349.549 435.678 350.336 435.475 351.09C435.084 352.537 434.638 353.863 434.135 355.062C432.435 359.302 430.242 361.877 427.57 362.755C426.451 363.258 425.235 363.542 423.947 363.844C421.57 364.4 418.877 365.033 415.556 367.206C410.645 370.42 404.232 377 405.349 381.57C405.995 384.217 409.344 386.825 414.53 388.729C421.091 391.136 429.598 392.14 437.871 391.486C444.683 390.946 454.585 389.012 463.058 382.858C463.774 382.338 464.646 381.689 465.683 380.816C470.696 376.599 474.501 371.355 476.685 365.649C480.014 356.95 479.004 349.172 478.113 342.31C477.802 339.911 477.555 339.023 475.194 330.519C474.487 327.971 473.59 324.744 472.446 320.587C470.531 313.632 469.485 310.171 468.863 308.102C468.198 305.893 468.019 305.301 467.785 303.796C466.288 294.148 462.833 286.106 457.515 279.894C452.744 274.322 446.21 266.693 438.809 266.468C438.661 266.462 438.49 266.459 438.297 266.459C436.517 266.435 432.812 266.385 429.045 264.275C427.334 263.317 425.79 262.038 424.448 260.467C422.549 262.393 418.681 265.513 412.89 266.479C407.294 267.414 402.741 265.838 400.366 264.712L399.049 268.724L398.856 268.729C390.685 268.955 382.756 270.559 375.286 273.494C358.52 280.083 348.052 291.732 342.225 300.343L342.123 300.495L341.944 300.459C327.809 297.669 318.053 293.146 312.944 287.011C312.861 286.909 304.514 276.958 299.383 276.845H299.32C297.776 276.82 296.335 276.479 295.033 275.825C294.255 275.434 293.531 274.93 292.876 274.322C291.303 274.592 287.666 275.56 284.991 278.953C281.58 283.286 282.353 288.329 282.581 289.457C283.046 290.04 283.456 290.67 283.797 291.33C284.463 292.618 284.901 294.112 285.033 295.534L285.038 295.584C285.374 298.662 305.97 322.455 326.092 332.637C336.536 337.922 345.073 338.72 351.472 335.011C355.153 332.876 357.786 329.47 360.111 326.466C362.111 323.88 363.839 321.066 365.272 318.083C366.628 313.588 368.04 309.109 369.495 304.677L370.029 304.809C369.245 309.524 367.809 314.069 365.789 318.284C364.375 322.972 363.016 327.677 361.728 332.365C358.908 342.624 356.33 353.103 354.066 363.514L354.061 363.517Z" fill="#231F20"/>
<path d="M282.323 289.586C282.16 288.827 281.109 283.44 284.771 278.79C287.781 274.969 291.968 274.193 292.961 274.036C293.022 261.568 292.857 252.351 292.662 249.281C292.598 248.29 292.436 246.442 291.099 245.333C290.304 244.675 289.379 244.513 288.865 244.461C288.909 243.985 288.914 243.236 288.609 242.414C288.513 242.15 287.679 239.894 286.185 239.968C285.253 240.015 284.339 240.953 284.045 242.271C281.709 240.372 280.54 244.607 280.54 244.607C279.659 244.268 278.903 244.84 278.347 245.553C277.681 246.406 277.324 247.46 277.274 248.541L276.597 263.593C276.597 263.593 276.16 258.335 274.553 255.559C274.085 254.75 273.607 254.217 273.183 254.285C271.565 254.544 270.869 263.48 272.071 270.311C272.776 274.32 274.861 281.74 282.325 289.583L282.323 289.586Z" fill="#E5AE9F"/>
<path d="M282.792 290.483L282.121 289.779C276.574 283.949 273.003 277.236 271.795 270.363C270.753 264.435 271.094 256.426 272.472 254.492C272.667 254.217 272.893 254.057 273.135 254.016C273.652 253.933 274.192 254.393 274.789 255.424C275.619 256.86 276.142 258.913 276.456 260.602L277.001 248.533C277.053 247.352 277.444 246.266 278.131 245.385C278.979 244.298 279.774 244.147 280.36 244.268C280.58 243.611 281.246 241.952 282.401 241.58C282.883 241.426 283.381 241.506 283.884 241.817C284.283 240.609 285.199 239.74 286.17 239.693C286.198 239.693 286.228 239.693 286.256 239.693C287.777 239.693 288.635 241.696 288.867 242.32C289.089 242.923 289.186 243.561 289.155 244.221C289.986 244.345 290.699 244.645 291.271 245.121C292.749 246.345 292.878 248.389 292.933 249.264C293.12 252.222 293.296 261.238 293.233 274.039V274.273L293.002 274.309C291.508 274.545 287.736 275.47 284.985 278.961C281.504 283.379 282.376 288.541 282.588 289.528L282.792 290.48V290.483ZM273.248 254.558C273.248 254.558 273.229 254.558 273.22 254.558C273.13 254.571 273.025 254.659 272.918 254.808C271.751 256.445 271.242 264.052 272.335 270.264C273.479 276.771 276.78 283.137 281.898 288.731C281.65 286.755 281.551 282.425 284.55 278.617C287.287 275.142 290.993 274.102 292.68 273.802C292.738 261.139 292.564 252.23 292.38 249.297C292.33 248.494 292.209 246.615 290.916 245.545C290.369 245.091 289.667 244.818 288.831 244.736L288.558 244.708L288.583 244.436C288.646 243.762 288.567 243.113 288.344 242.51C288.204 242.128 287.444 240.243 286.247 240.243C286.228 240.243 286.212 240.243 286.192 240.243C285.362 240.284 284.569 241.162 284.308 242.331L284.211 242.766L283.865 242.485C283.392 242.1 282.965 241.976 282.561 242.106C281.614 242.408 280.968 244.067 280.797 244.681L280.717 244.972L280.434 244.865C279.818 244.626 279.185 244.917 278.555 245.724C277.939 246.51 277.589 247.49 277.543 248.555L276.866 263.606L276.316 263.617C276.31 263.565 275.864 258.39 274.307 255.699C273.71 254.67 273.366 254.555 273.245 254.555L273.248 254.558Z" fill="#231F20"/>
<path d="M289.141 244.464H288.59V257.953H289.141V244.464Z" fill="#231F20"/>
<path d="M284.321 242.274H283.771V257.317H284.321V242.274Z" fill="#231F20"/>
<path d="M280.816 244.609H280.266V259.067H280.816V244.609Z" fill="#231F20"/>
<path d="M398.844 268.46C394.775 279.627 390.868 292.205 387.602 306.094C382.614 327.294 373.285 362.686 372.333 379.298C375.882 381.281 381.12 384.132 387.602 387.342C401.845 394.397 408.349 393.494 408.349 393.494C408.349 393.494 399.457 381.24 405.227 378.462C406.382 377.903 409.103 373.573 410.27 372.236C411.224 371.143 411.934 370.145 412.421 369.405C411.981 352.523 412.894 331.779 417.214 308.517C420.361 291.562 424.686 276.656 429.173 264.041C428.645 263.736 427.839 263.172 426.865 262.451C425.704 261.59 424.524 260.594 424.455 260.066C424.317 259.004 407.538 268.592 400.197 264.336C400.197 264.336 398.016 264.922 398.841 268.462L398.844 268.46Z" fill="white"/>
<path d="M407.478 393.813C405.236 393.813 398.82 393.205 387.479 387.59C382.307 385.028 377.165 382.319 372.196 379.54L372.045 379.455L372.056 379.284C372.829 365.792 379.088 340.049 384.12 319.368C385.286 314.573 386.387 310.044 387.331 306.033C390.316 293.347 394.09 280.702 398.556 268.443C397.898 265.496 399.29 264.294 400.127 264.069L400.237 264.038L400.336 264.096C405.486 267.084 415.476 263.064 420.843 260.905C423.561 259.812 424.23 259.576 424.555 259.766C424.651 259.823 424.714 259.917 424.728 260.027C424.744 260.156 424.959 260.693 427.031 262.228C428.087 263.009 428.833 263.524 429.311 263.802L429.51 263.917L429.433 264.135C424.296 278.576 420.276 293.526 417.484 308.569C413.775 328.552 412.163 349.018 412.697 369.399V369.484L412.653 369.556C411.995 370.554 411.266 371.515 410.479 372.417C410.086 372.865 409.494 373.688 408.87 374.56C407.291 376.758 406.113 378.34 405.348 378.709C404.468 379.133 403.926 379.796 403.689 380.734C402.605 385.037 408.515 393.252 408.576 393.334L408.845 393.706L408.391 393.769C408.336 393.777 408.036 393.813 407.481 393.813H407.478ZM372.617 379.144C377.531 381.889 382.612 384.564 387.724 387.097C398.223 392.297 405.192 393.403 407.849 393.266C406.65 391.532 402.132 384.643 403.153 380.602C403.428 379.51 404.086 378.706 405.106 378.214C405.802 377.878 407.255 375.861 408.419 374.238C409.054 373.355 409.651 372.524 410.061 372.054C410.812 371.195 411.511 370.276 412.141 369.325C411.613 348.935 413.228 328.461 416.939 308.468C419.723 293.468 423.726 278.562 428.835 264.162C428.34 263.859 427.639 263.367 426.701 262.671C424.838 261.29 424.348 260.63 424.219 260.258C423.792 260.31 422.455 260.847 421.047 261.416C415.63 263.595 405.582 267.64 400.171 264.635C399.785 264.798 398.451 265.573 399.111 268.396L399.131 268.476L399.103 268.553C394.635 280.815 390.855 293.465 387.87 306.157C386.926 310.168 385.823 314.699 384.656 319.495C379.652 340.068 373.429 365.652 372.617 379.141V379.144Z" fill="#231F20"/>
<path d="M399.774 379.069C403.07 375.187 407.45 372.004 411.723 369.303C415.772 366.741 420.097 364.76 424.494 362.895C423.798 363.189 423.102 363.484 422.405 363.778C425.602 362.394 428.72 360.845 431.985 359.615C432.038 359.596 432.09 359.58 432.142 359.56L426.499 337.796L393.716 346.396C395.688 357.343 397.658 368.293 399.631 379.24C399.678 379.185 399.724 379.127 399.771 379.069H399.774Z" fill="#231F20"/>
<path d="M411.723 369.303C415.773 366.741 420.097 364.76 424.494 362.895C424.538 362.876 422.364 363.652 422.406 363.778C422.441 363.891 425.531 363.316 428.736 361.635C429.644 361.159 430.321 360.799 431.08 360.1C432.516 358.782 433.188 357.25 433.507 356.298C431.743 349.387 429.98 342.476 428.219 335.564L395.436 344.165C397.425 355.208 399.414 366.254 401.403 377.298C404.446 374.205 408.121 371.583 411.723 369.305V369.303Z" fill="#FDB956"/>
<path d="M401.228 377.867L395.12 343.961L428.418 335.226L433.797 356.306L433.772 356.383C433.246 357.94 432.405 359.258 431.271 360.298C430.468 361.035 429.725 361.426 428.866 361.874C426.146 363.302 423.295 364.018 422.5 364.051C418.979 365.591 415.336 367.341 411.872 369.531C407.454 372.326 404.188 374.855 401.602 377.485L401.231 377.864L401.228 377.867ZM395.753 344.366L401.583 376.731C404.139 374.203 407.333 371.759 411.578 369.072C415.036 366.884 418.665 365.137 422.176 363.597C422.33 363.429 422.836 363.2 424.275 362.683C424.305 362.672 424.338 362.661 424.371 362.65C424.377 362.65 424.382 362.645 424.388 362.645C424.52 362.612 424.676 362.606 424.751 362.796L424.817 362.961C425.892 362.623 427.23 362.116 428.608 361.39C429.466 360.939 430.143 360.584 430.894 359.893C431.94 358.933 432.724 357.72 433.219 356.284L428.019 335.897L395.75 344.363L395.753 344.366Z" fill="#231F20"/>
<path d="M411.724 369.303C415.774 366.741 420.099 364.76 424.496 362.895C423.799 363.189 423.103 363.484 422.407 363.778C422.402 363.778 422.399 363.784 422.399 363.786C422.413 363.839 426.941 363.737 430.193 360.826C430.851 360.237 431.896 359.142 432.7 357.349C430.755 350.143 428.807 342.938 426.862 335.735L394.078 344.335C396.331 355.522 398.582 366.705 400.835 377.892C403.98 374.541 407.895 371.729 411.724 369.305V369.303Z" fill="#F3EDE3"/>
<path d="M400.669 378.467L393.755 344.135L427.053 335.4L432.987 357.374L432.946 357.464C432.316 358.867 431.449 360.07 430.371 361.033C427.424 363.671 423.435 364.064 422.508 364.064C422.497 364.064 422.486 364.064 422.475 364.064C418.959 365.605 415.322 367.352 411.863 369.537C407.129 372.533 403.684 375.245 401.026 378.079L400.66 378.467H400.669ZM394.399 344.534L400.999 377.317C403.637 374.588 407.013 371.958 411.577 369.072C415.008 366.901 418.609 365.165 422.092 363.633V363.616L422.299 363.525L424.387 362.645L424.602 363.151C424.45 363.214 424.296 363.28 424.145 363.346C425.732 363.052 428.112 362.32 430.008 360.623C431.004 359.731 431.812 358.623 432.407 357.327L426.665 336.071L394.396 344.534H394.399Z" fill="#231F20"/>
<path d="M411.722 369.302C416.526 367.14 421.607 366.543 428.494 361.957C429.627 361.203 430.519 360.532 431.083 360.097C428.736 352.173 426.389 344.25 424.042 336.326L391.259 344.927L399.994 378.819C404.313 373.347 408.608 370.706 411.725 369.302H411.722Z" fill="#FDB956"/>
<path d="M399.865 379.427L390.924 344.732L391.188 344.663L424.23 335.996L431.4 360.202L431.251 360.317C430.412 360.966 429.537 361.596 428.648 362.188C423.999 365.283 420.122 366.59 416.7 367.74C415.005 368.309 413.407 368.849 411.839 369.553C407.541 371.487 403.629 374.662 400.212 378.99L399.868 379.424L399.865 379.427ZM391.592 345.125L400.121 378.219C403.511 374.043 407.373 370.959 411.61 369.052C413.203 368.334 414.815 367.792 416.524 367.217C419.913 366.078 423.754 364.785 428.343 361.729C429.168 361.178 429.983 360.595 430.767 359.995L423.856 336.662L391.595 345.125H391.592Z" fill="#231F20"/>
<path d="M398.361 348.423L419.892 342.866L422.902 355.37L402.296 361.156L398.361 348.423Z" fill="#F3EDE3"/>
<path d="M402.11 361.495L398.011 348.228L398.289 348.157L420.092 342.531L423.228 355.563L402.11 361.495ZM398.707 348.619L402.479 360.821L422.571 355.178L419.688 343.205L398.707 348.619Z" fill="#231F20"/>
<path d="M418.19 359.756L403.602 363.917L403.752 364.446L418.341 360.285L418.19 359.756Z" fill="#231F20"/>
<path d="M423.079 358.788L420.068 359.482L420.192 360.018L423.203 359.325L423.079 358.788Z" fill="#231F20"/>
<path d="M403.569 367.481C400.768 366.257 398.218 364.532 395.544 363.047C395.321 362.923 395.073 362.796 394.823 362.84C394.435 362.909 394.231 363.335 394.118 363.712C393.675 365.168 393.596 366.733 393.885 368.227C393.986 368.755 394.135 369.295 394.047 369.826C393.984 370.219 393.794 370.579 393.662 370.956C393.296 372.002 393.389 373.201 393.915 374.175C394.069 374.461 394.262 374.736 394.322 375.053C394.391 375.413 394.284 375.782 394.19 376.14C393.846 377.466 393.725 378.896 394.176 380.192C394.903 382.286 397.018 383.65 399.186 384.104C401.357 384.556 403.605 384.253 405.8 383.947C404.191 382.74 404.237 380.209 405.231 378.459C406.224 376.709 407.897 375.476 409.311 374.046C410.606 372.734 412.535 370.486 410.637 369.072C409.327 368.098 405.346 368.252 403.572 367.476L403.569 367.481Z" fill="#E5AE9F"/>
<path d="M401.596 384.608C400.77 384.608 399.939 384.542 399.131 384.374C397.152 383.961 394.745 382.671 393.914 380.283C393.502 379.1 393.504 377.68 393.922 376.071L393.942 375.997C394.024 375.68 394.101 375.383 394.049 375.108C394.011 374.904 393.898 374.709 393.779 374.503C393.744 374.439 393.705 374.373 393.669 374.31C393.108 373.27 393.006 371.983 393.4 370.868C393.444 370.744 393.491 370.623 393.54 370.502C393.639 370.255 393.735 370.024 393.774 369.784C393.84 369.388 393.755 368.975 393.664 368.538C393.647 368.453 393.628 368.367 393.612 368.282C393.314 366.741 393.397 365.135 393.854 363.635C394.046 363.003 394.357 362.645 394.775 362.571C395.111 362.513 395.405 362.656 395.678 362.807C396.553 363.291 397.425 363.811 398.269 364.312C400.008 365.344 401.805 366.411 403.678 367.231C404.443 367.564 405.698 367.726 406.911 367.88C408.512 368.087 410.025 368.279 410.798 368.857C411.351 369.267 411.654 369.779 411.698 370.373C411.803 371.746 410.496 373.24 409.503 374.244C409.106 374.643 408.688 375.034 408.281 375.408C407.238 376.371 406.163 377.369 405.467 378.596C404.537 380.236 404.465 382.605 405.962 383.727L406.496 384.129L405.835 384.22C404.501 384.404 403.051 384.608 401.596 384.608ZM394.927 363.107C394.907 363.107 394.888 363.107 394.869 363.113C394.671 363.148 394.506 363.377 394.379 363.795C393.95 365.209 393.87 366.725 394.151 368.178C394.167 368.26 394.184 368.343 394.2 368.425C394.297 368.893 394.396 369.374 394.316 369.872C394.266 370.172 394.156 370.445 394.049 370.709C394.002 370.822 393.958 370.934 393.917 371.05C393.576 372.021 393.664 373.141 394.154 374.049C394.187 374.109 394.222 374.17 394.255 374.23C394.39 374.467 394.531 374.714 394.588 375.006C394.665 375.402 394.561 375.793 394.473 376.14L394.453 376.214C394.066 377.716 394.057 379.028 394.434 380.107C395.188 382.278 397.411 383.458 399.241 383.84C401.197 384.247 403.213 384.03 405.18 383.76C403.912 382.36 404.041 380 404.988 378.33C405.728 377.028 406.837 375.999 407.907 375.009C408.309 374.637 408.724 374.252 409.112 373.862C409.64 373.328 411.247 371.702 411.151 370.42C411.118 369.985 410.895 369.619 410.471 369.303C409.811 368.81 408.303 368.618 406.842 368.431C405.59 368.271 404.297 368.106 403.461 367.74C401.554 366.907 399.744 365.831 397.992 364.791C397.15 364.29 396.28 363.776 395.414 363.294C395.243 363.198 395.075 363.113 394.929 363.113L394.927 363.107Z" fill="#231F20"/>
<path d="M397.221 370.796C396.121 370.796 395.023 370.436 394.143 369.765L394.475 369.327C395.518 370.125 396.908 370.428 398.19 370.139L398.311 370.675C397.953 370.755 397.584 370.796 397.218 370.796H397.221Z" fill="#231F20"/>
<path d="M397.136 376.522C396.171 376.522 395.205 376.294 394.347 375.853L394.597 375.364C395.629 375.892 396.828 376.087 397.976 375.909L398.061 376.453C397.755 376.5 397.447 376.525 397.139 376.525L397.136 376.522Z" fill="#231F20"/>
<path d="M396.294 380.74C395.482 380.74 394.671 380.522 393.975 380.093L394.264 379.625C395.416 380.338 396.932 380.382 398.123 379.735L398.385 380.22C397.741 380.569 397.017 380.742 396.291 380.742L396.294 380.74Z" fill="#231F20"/>
<path d="M399.451 366.186C400.543 365.998 401.471 365.289 402.279 364.529C404.013 362.898 405.424 360.925 406.412 358.76C407.014 357.437 407.501 355.984 408.599 355.032C409.592 354.171 411.031 353.855 412.294 354.215C411.969 356.251 411.645 358.317 411.843 360.369C411.933 361.316 412.137 362.249 412.261 363.192C412.618 365.924 412.308 368.739 411.356 371.325" fill="#E5AE9F"/>
<path d="M411.613 371.418L411.096 371.229C412.031 368.684 412.34 365.916 411.987 363.228C411.935 362.843 411.872 362.447 411.806 362.067C411.715 361.522 411.621 360.958 411.566 360.397C411.371 358.38 411.671 356.372 411.979 354.424C410.868 354.19 409.635 354.498 408.774 355.241C407.913 355.987 407.429 357.101 406.964 358.18C406.862 358.413 406.763 358.647 406.658 358.876C405.662 361.06 404.212 363.085 402.465 364.733C401.728 365.426 400.724 366.252 399.494 366.461L399.403 365.919C400.487 365.734 401.406 364.975 402.089 364.334C403.786 362.736 405.192 360.771 406.158 358.65C406.259 358.424 406.361 358.193 406.46 357.962C406.95 356.829 407.459 355.657 408.416 354.826C409.473 353.91 411.024 353.569 412.367 353.954L412.601 354.02L412.562 354.262C412.246 356.254 411.916 358.314 412.114 360.345C412.166 360.89 412.26 361.443 412.348 361.979C412.411 362.364 412.48 362.763 412.532 363.159C412.898 365.938 412.579 368.794 411.613 371.424V371.418Z" fill="#231F20"/>
<path d="M279.117 294.668C279.279 293.908 280.33 288.521 276.668 283.872C273.659 280.05 269.471 279.274 268.478 279.118C268.418 266.649 268.583 257.433 268.778 254.362C268.841 253.372 269.004 251.523 270.341 250.414C271.136 249.757 272.06 249.594 272.575 249.542C272.531 249.066 272.525 248.318 272.83 247.495C272.927 247.231 273.76 244.975 275.254 245.049C276.187 245.096 277.1 246.034 277.395 247.352C279.731 245.454 280.9 249.688 280.9 249.688C281.78 249.349 282.537 249.922 283.092 250.634C283.758 251.487 284.116 252.541 284.165 253.622L284.842 268.674C284.842 268.674 285.28 263.416 286.886 260.64C287.354 259.832 287.833 259.298 288.257 259.367C289.874 259.625 290.57 268.561 289.368 275.392C288.664 279.401 286.578 286.821 279.114 294.665L279.117 294.668Z" fill="#FCD1C7"/>
<path d="M278.645 295.565L278.848 294.613C279.06 293.622 279.932 288.464 276.452 284.045C273.703 280.554 269.929 279.629 268.435 279.393L268.204 279.357V279.123C268.14 266.319 268.314 257.306 268.504 254.349C268.559 253.474 268.691 251.427 270.165 250.205C270.74 249.729 271.45 249.427 272.281 249.306C272.251 248.643 272.35 248.004 272.57 247.405C272.804 246.769 273.684 244.711 275.266 244.78C276.237 244.827 277.156 245.699 277.552 246.904C278.059 246.593 278.557 246.513 279.035 246.667C280.193 247.039 280.857 248.698 281.077 249.352C281.663 249.231 282.458 249.385 283.305 250.469C283.99 251.347 284.381 252.434 284.436 253.614L284.981 265.684C285.294 263.997 285.814 261.945 286.648 260.509C287.245 259.477 287.784 259.017 288.301 259.1C288.543 259.138 288.769 259.298 288.964 259.576C290.34 261.51 290.684 269.519 289.641 275.448C288.433 282.317 284.862 289.033 279.316 294.863L278.645 295.567V295.565ZM268.751 278.887C270.44 279.189 274.146 280.226 276.881 283.701C279.88 287.509 279.784 291.839 279.533 293.815C284.653 288.222 287.955 281.852 289.096 275.349C290.189 269.136 289.68 261.529 288.513 259.892C288.406 259.744 288.301 259.656 288.211 259.642C288.117 259.625 287.768 259.667 287.121 260.784C285.564 263.472 285.118 268.649 285.113 268.702L284.562 268.691L283.886 253.639C283.839 252.574 283.487 251.595 282.873 250.808C282.243 250.002 281.613 249.713 280.994 249.947L280.711 250.057L280.631 249.765C280.46 249.152 279.814 247.493 278.867 247.19C278.463 247.061 278.037 247.184 277.563 247.57L277.217 247.85L277.12 247.416C276.859 246.246 276.067 245.369 275.236 245.327C274.02 245.267 273.225 247.204 273.082 247.594C272.859 248.197 272.779 248.846 272.842 249.52L272.867 249.793L272.595 249.82C271.761 249.903 271.059 250.175 270.509 250.629C269.216 251.699 269.095 253.581 269.046 254.384C268.858 257.314 268.688 266.22 268.746 278.889L268.751 278.887Z" fill="#231F20"/>
<path d="M272.851 249.545H272.3V263.034H272.851V249.545Z" fill="#231F20"/>
<path d="M277.671 247.355H277.121V262.399H277.671V247.355Z" fill="#231F20"/>
<path d="M281.176 249.691H280.625V264.149H281.176V249.691Z" fill="#231F20"/>
<path d="M189.53 358.916L189.509 359.466L191.775 359.549L191.795 359L189.53 358.916Z" fill="#231F20"/>
<path d="M291.204 259.986C293.006 257.306 294.965 254.492 297.925 253.196C298.542 252.926 299.301 252.745 299.851 253.13C300.08 253.29 300.236 253.529 300.36 253.776C301.067 255.221 300.622 256.973 299.851 258.385C299.081 259.796 298.005 261.034 297.361 262.509C296.121 265.345 296.616 268.688 295.488 271.571C294.973 272.886 293.867 274.204 292.459 274.113" fill="#E5AE9F"/>
<path d="M292.596 274.394C292.544 274.394 292.492 274.394 292.439 274.389L292.475 273.838C293.793 273.926 294.783 272.617 295.229 271.472C295.76 270.113 295.925 268.608 296.087 267.156C296.263 265.557 296.448 263.907 297.108 262.399C297.493 261.518 298.032 260.715 298.552 259.937C298.916 259.392 299.293 258.831 299.609 258.253C300.129 257.301 300.885 255.471 300.112 253.898C299.986 253.642 299.848 253.466 299.691 253.353C299.232 253.031 298.539 253.226 298.035 253.446C295.056 254.75 293.047 257.738 291.432 260.137L290.976 259.829C292.629 257.37 294.69 254.31 297.812 252.94C298.731 252.536 299.469 252.525 300.005 252.902C300.239 253.067 300.437 253.314 300.602 253.653C301.482 255.449 300.657 257.469 300.088 258.514C299.76 259.114 299.378 259.686 299.006 260.239C298.5 260.996 297.975 261.78 297.609 262.616C296.981 264.044 296.805 265.656 296.632 267.213C296.467 268.705 296.296 270.245 295.741 271.67C295.243 272.944 294.128 274.391 292.596 274.391V274.394Z" fill="#231F20"/>
<path d="M192.177 246.876C192.177 246.876 191.99 246.629 191.657 246.222C191.794 246.409 191.935 246.604 192.072 246.805C192.141 246.849 192.177 246.876 192.177 246.876Z" fill="#2C1B18"/>
<path d="M176.711 244.263C176.783 244.472 176.882 244.662 177 244.835C176.918 244.637 176.824 244.444 176.711 244.263Z" fill="#2C1B18"/>
<path d="M164.114 271.109C164.178 271.304 164.255 271.5 164.351 271.687C164.312 271.58 164.235 271.376 164.114 271.109Z" fill="#2C1B18"/>
<path d="M192.071 246.805C191.551 246.469 189.103 245.071 185.193 245.696C183.224 246.01 182.321 246.197 180.569 246.276C179.234 246.337 177.724 245.894 177.003 244.835C177.683 246.463 177.317 248.508 176.048 249.748C175.487 250.296 174.791 250.687 174.213 251.218C171.85 253.394 172.089 257.188 170.565 260.016C169.454 262.077 167.47 263.502 165.935 265.268C164.537 266.875 163.492 269.142 164.114 271.109C164.235 271.376 164.312 271.582 164.35 271.687C164.254 271.497 164.174 271.304 164.114 271.109C163.745 270.303 162.953 268.924 161.492 267.931C159.15 266.732 156.196 266.693 153.601 268.08C152.872 268.47 152.223 268.946 151.656 269.488C149.048 271.981 148.239 275.852 149.934 279.019C151.997 282.873 156.98 284.227 161.068 282.039C161.511 281.803 161.924 281.53 162.309 281.236L162.276 282.152C162.562 289.047 162.845 295.939 163.131 302.833C180.558 304.665 200.765 306.005 201.695 302.016C202.311 299.369 194.817 292.813 194.817 292.813L193.219 291.207C203.918 286.761 203.508 275.937 202.397 272.828C202.144 272.124 201.797 271.456 201.549 270.748C200.812 268.542 200.028 266.303 199.192 264.033C196.938 257.914 194.539 252.17 192.069 246.805H192.071Z" fill="#FCD1C7"/>
<path d="M189.557 304.888C189.243 304.888 188.924 304.888 188.597 304.883C182.36 304.828 173.782 304.231 163.101 303.106L162.865 303.081L162.001 282.163L162.015 281.786C161.748 281.968 161.475 282.133 161.2 282.279C156.985 284.535 151.824 283.126 149.695 279.145C147.994 275.965 148.724 271.91 151.469 269.288C152.069 268.715 152.743 268.229 153.472 267.835C156.058 266.451 159.104 266.396 161.618 267.684L161.649 267.7C162.532 268.303 163.184 269.037 163.66 269.733C163.704 268.24 164.425 266.586 165.729 265.084C166.265 264.468 166.86 263.887 167.435 263.326C168.557 262.231 169.616 261.196 170.326 259.881C170.92 258.781 171.248 257.496 171.564 256.252C172.051 254.346 172.552 252.373 174.029 251.014C174.313 250.756 174.621 250.527 174.918 250.307C175.256 250.059 175.573 249.826 175.856 249.548C177.034 248.395 177.402 246.499 176.75 244.937L175.71 242.441L177.232 244.675C177.95 245.729 179.474 246.048 180.555 245.996C182.019 245.93 182.877 245.79 184.297 245.556C184.561 245.512 184.841 245.468 185.15 245.418C189.186 244.774 191.747 246.263 192.22 246.568L192.289 246.612L192.322 246.684C194.914 252.318 197.313 258.123 199.453 263.934C200.27 266.154 201.063 268.416 201.814 270.655C201.935 271.004 202.089 271.357 202.237 271.695C202.383 272.028 202.535 272.375 202.661 272.727C203.88 276.138 203.971 286.772 193.706 291.292L195.018 292.613C195.783 293.281 202.603 299.345 201.968 302.071C201.528 303.959 197.467 304.88 189.56 304.88L189.557 304.888ZM163.396 302.586C193.953 305.788 200.947 304.011 201.426 301.956C201.899 299.917 196.685 294.816 194.636 293.022L192.735 291.11L193.114 290.954C203.387 286.684 203.324 276.243 202.138 272.922C202.017 272.586 201.871 272.251 201.728 271.923C201.577 271.574 201.418 271.214 201.288 270.842C200.54 268.603 199.748 266.347 198.933 264.132C196.809 258.36 194.427 252.596 191.854 246.997C191.271 246.64 188.913 245.382 185.235 245.971C184.927 246.021 184.646 246.067 184.385 246.109C182.943 246.345 182.074 246.486 180.58 246.554C179.661 246.596 178.453 246.395 177.554 245.768C177.804 247.278 177.322 248.887 176.241 249.947C175.93 250.252 175.581 250.508 175.242 250.756C174.943 250.976 174.659 251.182 174.401 251.421C173.044 252.67 172.582 254.478 172.095 256.393C171.77 257.669 171.435 258.987 170.808 260.148C170.059 261.538 168.917 262.649 167.817 263.725C167.25 264.278 166.664 264.85 166.144 265.45C164.895 266.886 163.778 269.098 164.372 271.01C164.463 271.205 164.543 271.403 164.612 271.593L164.108 271.811C164.009 271.618 163.927 271.414 163.858 271.205C163.448 270.317 162.686 269.076 161.352 268.165C159.002 266.968 156.155 267.026 153.733 268.319C153.046 268.688 152.413 269.145 151.849 269.684C149.282 272.138 148.594 275.921 150.179 278.887C152.165 282.601 156.994 283.905 160.939 281.795C161.352 281.575 161.756 281.311 162.141 281.016L162.606 280.658L162.551 282.161L163.396 302.583V302.586Z" fill="#231F20"/>
<path d="M170.778 268.834L170.233 268.765C170.266 268.495 171.179 262.135 182.269 259.386L182.402 259.92C176.803 261.306 173.939 263.662 172.525 265.389C170.998 267.255 170.78 268.815 170.78 268.831L170.778 268.834Z" fill="#231F20"/>
<path d="M188.145 257.551L187.779 257.141C188.973 256.076 190.324 255.251 191.799 254.687C194.534 253.639 197.054 253.738 198.685 254.004L198.597 254.546C197.032 254.291 194.613 254.197 191.997 255.201C190.586 255.743 189.29 256.533 188.148 257.554L188.145 257.551Z" fill="#231F20"/>
<path d="M188.099 277.269L188.08 276.718C190.496 276.636 191.877 275.835 192.185 274.336C193.016 270.294 186.292 262.621 185.656 262.321C185.656 262.321 185.67 262.327 185.692 262.332L185.775 261.788C186.479 261.895 193.06 269.433 192.796 273.882C192.636 276.553 190.154 277.2 188.099 277.269Z" fill="#231F20"/>
<path d="M187.835 285.525C186.245 285.525 184.514 285.049 182.726 284.106C180.665 283.022 179.265 281.723 179.207 281.668L179.584 281.266C179.639 281.319 185.155 286.389 190.088 284.593L190.275 285.11C189.51 285.388 188.693 285.528 187.835 285.528V285.525Z" fill="#231F20"/>
<path d="M193.004 291.185C193.004 291.185 188.291 293.996 181.336 292.816C174.381 291.636 172.266 290.068 172.266 290.068C172.266 290.068 181.259 298.115 191.579 293.234C191.827 293.058 192.19 292.753 192.509 292.277C192.79 291.859 192.93 291.463 193.004 291.185Z" fill="#231F20"/>
<path d="M154.467 273.961L154.384 274.505L161.106 275.536L161.19 274.992L154.467 273.961Z" fill="#231F20"/>
<path d="M162.306 281.038C161.723 281.503 160.941 282.012 159.954 282.397C157.101 283.509 154.468 282.824 153.453 282.499C154.465 284.199 156.308 286.733 159.406 288.736C160.548 289.474 161.654 290.007 162.642 290.395L162.306 281.038Z" fill="#2C1B18"/>
<path d="M162.93 290.805L162.54 290.651C161.39 290.2 160.284 289.633 159.255 288.967C156.801 287.383 154.768 285.253 153.213 282.64L152.842 282.015L153.532 282.238C154.776 282.637 157.252 283.154 159.852 282.142C160.666 281.825 161.434 281.382 162.133 280.824L162.559 280.483L162.93 290.802V290.805ZM154.058 282.956C155.516 285.223 157.362 287.088 159.555 288.505C160.438 289.075 161.376 289.57 162.353 289.98L162.05 281.575C161.426 282.018 160.757 282.378 160.053 282.653C157.717 283.561 155.486 283.311 154.058 282.956Z" fill="#231F20"/>
<path d="M191.483 239.264C187.697 236.474 182.798 235.247 178.143 235.924C181.711 233.75 186.22 233.189 190.212 234.422C189.662 233.032 188 232.488 186.525 232.248C179.13 231.046 171.314 233.536 165.729 238.491C163.795 239.214 161.96 240.273 160.353 241.762C159.971 240.606 159.591 239.454 159.209 238.298C159.022 237.729 158.702 237.055 158.103 237.022C157.462 236.989 157.079 237.726 156.939 238.353C156.51 240.284 156.81 242.367 157.762 244.098C156.735 242.898 154.881 242.279 153.525 243.085C152.168 243.891 152.061 246.31 153.525 246.904C154.372 247.248 155.412 246.929 156.199 247.394C154.889 248.101 153.758 249.05 152.809 250.164C151.626 250.706 150.303 251.531 149.106 252.8C147.158 254.863 146.509 257.07 146.209 258.132C144.245 265.109 148.638 271.67 149.461 272.856C149.577 272.482 149.775 271.948 150.124 271.362C151.574 268.927 154.526 267.455 157.393 267.455C160.862 267.455 163.148 269.618 163.655 270.119C163.754 270.275 163.853 270.446 163.952 270.63C164.037 270.793 164.111 270.941 164.172 271.076C163.558 269.12 164.618 266.858 166.023 265.252C167.572 263.483 169.567 262.058 170.689 260C171.917 257.752 172.027 254.902 173.221 252.734C173.974 252.571 174.723 252.371 175.457 252.153C178.098 251.372 180.729 250.39 183.483 250.296C186.237 250.203 189.222 251.196 190.669 253.537C190.564 251.262 189.945 249.014 188.867 247.008C192.578 247.22 196.133 249.314 198.119 252.456C198.656 252.307 198.708 251.57 198.623 251.02C197.893 246.376 195.269 242.056 191.486 239.267L191.483 239.264Z" fill="#2C1B18"/>
<path d="M149.557 273.478L149.235 273.013C147.984 271.208 144.049 264.793 145.945 258.058C146.223 257.073 146.869 254.767 148.905 252.613C149.956 251.501 151.211 250.602 152.639 249.941C153.5 248.94 154.477 248.104 155.552 247.449C155.302 247.399 155.032 247.388 154.754 247.375C154.311 247.355 153.852 247.336 153.42 247.16C152.721 246.874 152.265 246.192 152.199 245.328C152.122 244.31 152.597 243.314 153.384 242.849C154.521 242.175 155.924 242.414 157.002 243.091C156.444 241.567 156.32 239.875 156.669 238.293C156.84 237.52 157.302 236.708 158.116 236.747C159 236.791 159.354 237.861 159.47 238.21L160.482 241.275C161.946 239.993 163.66 238.978 165.586 238.252C171.386 233.129 179.229 230.782 186.572 231.976C188.68 232.32 189.992 233.107 190.471 234.32L190.683 234.854L190.135 234.686C186.655 233.613 182.77 233.929 179.493 235.506C183.799 235.217 188.162 236.474 191.648 239.044C195.508 241.889 198.149 246.238 198.895 250.976C199.008 251.694 198.884 252.53 198.193 252.72L197.995 252.775L197.885 252.602C196.028 249.666 192.787 247.674 189.337 247.322C190.292 249.248 190.845 251.38 190.941 253.526L190.988 254.585L190.432 253.683C188.938 251.265 185.86 250.489 183.491 250.571C181.273 250.649 179.089 251.325 176.973 251.98C176.495 252.129 176.016 252.277 175.534 252.418C174.759 252.646 174.06 252.83 173.402 252.976C172.863 253.999 172.56 255.161 172.238 256.388C171.905 257.659 171.564 258.974 170.932 260.132C170.175 261.519 169.028 262.633 167.916 263.709C167.344 264.262 166.755 264.834 166.23 265.434C164.97 266.872 163.833 269.09 164.433 270.994L163.921 271.189C163.864 271.06 163.792 270.914 163.71 270.76C163.624 270.6 163.534 270.441 163.437 270.289C162.637 269.503 160.493 267.731 157.393 267.728H157.387C154.526 267.728 151.703 269.244 150.361 271.5C150.094 271.948 149.879 272.43 149.725 272.933L149.557 273.473V273.478ZM154.9 242.992C154.471 242.992 154.05 243.094 153.665 243.319C153.057 243.68 152.688 244.469 152.749 245.284C152.798 245.944 153.117 246.439 153.629 246.648C153.973 246.789 154.364 246.805 154.779 246.822C155.307 246.844 155.852 246.868 156.339 247.154L156.76 247.402L156.331 247.633C155.096 248.302 153.981 249.212 153.021 250.34L152.983 250.387L152.928 250.412C151.541 251.045 150.325 251.911 149.31 252.987C147.367 255.045 146.746 257.26 146.479 258.203C144.781 264.234 147.948 270.034 149.39 272.246C149.53 271.891 149.698 271.547 149.893 271.219C151.332 268.801 154.344 267.178 157.393 267.178H157.398C160.573 267.178 162.804 268.919 163.726 269.797C163.751 268.284 164.483 266.6 165.825 265.068C166.365 264.451 166.964 263.871 167.542 263.31C168.673 262.215 169.74 261.177 170.456 259.865C171.055 258.765 171.391 257.483 171.716 256.244C172.04 254.995 172.379 253.705 172.987 252.599L173.047 252.489L173.171 252.462C173.853 252.313 174.577 252.126 175.389 251.887C175.864 251.746 176.343 251.598 176.819 251.449C178.968 250.783 181.191 250.096 183.48 250.018C185.736 249.941 188.589 250.602 190.325 252.599C190.116 250.695 189.535 248.822 188.63 247.135L188.396 246.703L188.886 246.731C192.603 246.943 196.152 248.987 198.21 252.085C198.408 251.859 198.4 251.364 198.35 251.058C197.629 246.461 195.065 242.244 191.321 239.484C187.576 236.725 182.787 235.525 178.184 236.196L176.849 236.392L178.002 235.69C181.441 233.596 185.744 232.969 189.643 233.973C189.079 233.258 188.022 232.768 186.484 232.518C179.284 231.346 171.595 233.657 165.913 238.694L165.875 238.728L165.828 238.747C163.809 239.501 162.031 240.582 160.543 241.96L160.229 242.252L158.953 238.381C158.716 237.668 158.436 237.311 158.094 237.294C158.086 237.294 158.078 237.294 158.07 237.294C157.591 237.294 157.308 237.993 157.214 238.411C156.801 240.271 157.09 242.296 158.009 243.966L159.297 246.31L157.558 244.279C156.922 243.537 155.899 242.995 154.906 242.995L154.9 242.992Z" fill="#231F20"/>
<path d="M180.86 274.851C178.282 274.851 175.776 273.453 174.469 271.007C172.587 267.489 173.889 263.109 177.372 261.243C180.855 259.381 185.221 260.729 187.106 264.248C188.987 267.766 187.686 272.146 184.203 274.012C183.141 274.581 181.994 274.851 180.863 274.851H180.86ZM180.712 260.954C179.666 260.954 178.61 261.202 177.63 261.727C174.414 263.447 173.215 267.494 174.953 270.746C176.692 273.998 180.725 275.244 183.942 273.525C187.158 271.805 188.357 267.758 186.619 264.506C185.408 262.245 183.091 260.954 180.712 260.954Z" fill="#231F20"/>
<path d="M195.337 269.035C192.76 269.035 190.253 267.637 188.946 265.191C188.036 263.486 187.835 261.532 188.382 259.689C188.93 257.843 190.162 256.33 191.849 255.427C193.535 254.525 195.478 254.341 197.318 254.907C199.156 255.474 200.669 256.726 201.583 258.432C202.493 260.137 202.694 262.091 202.147 263.934C201.599 265.78 200.367 267.293 198.68 268.196C197.618 268.765 196.471 269.035 195.34 269.035H195.337ZM195.192 255.136C194.124 255.136 193.07 255.397 192.108 255.914C190.55 256.748 189.414 258.143 188.908 259.846C188.402 261.549 188.586 263.356 189.431 264.933C191.169 268.185 195.203 269.431 198.419 267.711C199.976 266.878 201.112 265.483 201.619 263.78C202.125 262.077 201.94 260.269 201.096 258.693C200.254 257.116 198.854 255.961 197.156 255.435C196.509 255.235 195.849 255.138 195.194 255.138L195.192 255.136Z" fill="#231F20"/>
<path d="M173.716 268.87L164.284 271.417L164.428 271.948L173.859 269.402L173.716 268.87Z" fill="#231F20"/>
<path d="M188.706 263.78L186.818 264.104L186.911 264.646L188.799 264.323L188.706 263.78Z" fill="#231F20"/>
<path d="M201.43 258.165L197.477 259.765L197.683 260.275L201.636 258.675L201.43 258.165Z" fill="#231F20"/>
<path d="M194.303 249.098L193.435 250.443L193.898 250.741L194.765 249.396L194.303 249.098Z" fill="#231F20"/>
<path d="M176.992 269.857L176.475 269.67C176.75 268.914 177.449 267.505 179.023 266.581C181.284 265.252 183.639 265.989 184.088 266.152L183.901 266.669C183.491 266.523 181.353 265.849 179.301 267.057C177.875 267.893 177.243 269.172 176.992 269.86V269.857Z" fill="#2C1B18"/>
<path d="M190.991 263.717L190.474 263.53C190.749 262.773 191.445 261.364 193.022 260.44C195.286 259.111 197.636 259.848 198.087 260.011L197.9 260.528C197.492 260.382 195.352 259.711 193.302 260.916C191.877 261.755 191.244 263.032 190.994 263.719L190.991 263.717Z" fill="#2C1B18"/>
<path d="M278.156 282.133C273.149 277.745 269.295 278.787 268.48 279.12C267.806 280.438 267.113 281.693 266.411 282.892C262.799 284.661 258.813 291.869 258.813 291.869C257.071 295.02 253.418 299.05 245.065 303.174C243.497 303.719 242.124 303.964 241.032 303.945C233.133 303.815 227.652 294.981 213.723 291.699C207.833 290.312 202.253 290.326 201.763 290.351C199.436 290.475 197.26 290.697 195.686 290.882C195.284 290.75 194.883 290.618 194.484 290.483C194.448 290.664 194.407 290.854 194.363 291.047C193.645 291.14 193.226 291.206 193.226 291.206C193.532 291.526 193.815 291.839 194.088 292.147C193.559 294.057 192.662 296.354 191.064 298.618C189.223 301.229 187.188 302.75 184.213 304.225C178.821 304.357 171.797 303.895 163.136 302.836L157.873 307.428C155.128 310.228 151.342 314.685 148.371 320.911C143.372 331.385 143.872 340.17 143.284 345.51C142.23 355.054 136.073 368.301 112.61 383.545C113.326 385.207 117.997 395.587 129.789 399.497C144.081 404.235 155.873 395.167 156.748 394.468C166.452 394.691 180.32 393.585 195.246 387.315C210.98 380.706 221.19 371.176 227.919 364.782C233.325 359.646 237.403 354.881 240.214 351.337C236.971 344.704 233.658 338.035 230.283 331.333C228.835 328.461 227.386 325.602 225.933 322.76C229.196 326.455 231.653 331.765 238.195 333.501C256.383 338.329 280.971 308.875 281.395 292.461C281.414 291.759 281.439 290.791 281.362 289.699C281.384 289.655 281.406 289.616 281.425 289.578C281.436 289.008 281.447 284.978 278.165 282.133H278.156Z" fill="#F3EDE3"/>
<path d="M138.222 401.145C135.336 401.145 132.489 400.683 129.696 399.756C118.424 396.02 113.571 386.487 112.353 383.653L112.262 383.441L112.457 383.315C131.311 371.066 141.59 358.336 143.007 345.48C143.119 344.445 143.196 343.254 143.273 341.991C143.609 336.624 144.071 329.272 148.118 320.793C150.471 315.866 153.687 311.304 157.673 307.235L163.044 302.547L163.165 302.561C171.735 303.609 178.792 304.077 184.143 303.95C187.268 302.393 189.15 300.852 190.836 298.459C192.138 296.613 193.128 294.514 193.777 292.216C193.513 291.919 193.266 291.65 193.021 291.394L192.658 291.011L193.178 290.932C193.178 290.932 193.524 290.879 194.13 290.797C194.157 290.67 194.185 290.546 194.207 290.428L194.267 290.123L195.709 290.599C197.167 290.428 199.379 290.2 201.745 290.073C201.797 290.073 207.487 289.944 213.782 291.427C221.031 293.135 225.903 296.272 230.204 299.039C234.168 301.59 237.296 303.606 241.032 303.667C242.125 303.681 243.486 303.425 244.956 302.916C251.743 299.562 256.324 295.801 258.571 291.732C258.734 291.438 262.585 284.521 266.214 282.678C266.916 281.478 267.595 280.238 268.236 278.991L268.283 278.9L268.377 278.862C268.828 278.678 272.949 277.197 278.339 281.921L278.364 281.943C281.624 284.785 281.712 288.802 281.695 289.581V289.647L281.638 289.754C281.706 290.827 281.684 291.771 281.665 292.464C281.398 302.825 271.491 318.507 259.581 327.426C254.167 331.479 246.051 335.867 238.119 333.762C232.991 332.401 230.283 328.821 227.893 325.666C227.714 325.432 227.54 325.198 227.364 324.97C228.424 327.052 229.483 329.14 230.52 331.204C233.849 337.809 237.192 344.542 240.455 351.211L240.532 351.367L240.424 351.502C236.652 356.259 232.509 360.79 228.104 364.975C221.876 370.893 211.449 380.8 195.348 387.562C183.306 392.619 170.351 395.038 156.834 394.738C156.215 395.219 153.062 397.571 148.385 399.272C144.965 400.515 141.568 401.14 138.219 401.14L138.222 401.145ZM112.95 383.647C114.287 386.663 119.079 395.657 129.867 399.233C144.143 403.965 156.069 394.65 156.57 394.251L156.647 394.187H156.746C170.222 394.498 183.133 392.099 195.134 387.059C211.143 380.335 221.523 370.472 227.725 364.579C232.069 360.452 236.16 355.984 239.885 351.299C236.647 344.682 233.332 338.005 230.03 331.454C228.6 328.618 227.139 325.734 225.681 322.881L224.69 320.942L226.132 322.573C226.888 323.432 227.59 324.356 228.33 325.333C230.781 328.571 233.312 331.916 238.259 333.231C242.518 334.362 249.619 334.197 259.248 326.986C271.04 318.158 280.848 302.665 281.112 292.45C281.131 291.751 281.153 290.794 281.079 289.713L281.074 289.636L281.142 289.504C281.151 288.632 280.991 284.95 277.976 282.337L277.934 282.301C273.076 278.07 269.4 279.074 268.674 279.335C268.033 280.584 267.35 281.825 266.643 283.027L266.602 283.099L266.528 283.135C263.034 284.846 259.089 291.927 259.05 291.999C256.747 296.17 252.081 300.011 245.181 303.417L245.151 303.43C243.616 303.964 242.188 304.236 241.021 304.217C237.128 304.154 233.78 301.997 229.904 299.502C225.642 296.759 220.811 293.65 213.652 291.963C208.07 290.648 202.554 290.579 201.773 290.623C199.387 290.75 197.161 290.981 195.712 291.152L195.651 291.16L194.683 290.838C194.663 290.926 194.644 291.014 194.625 291.105L194.584 291.292L194.394 291.317C194.154 291.347 193.951 291.377 193.783 291.399C193.945 291.575 194.113 291.762 194.289 291.96L194.388 292.073L194.35 292.216C193.684 294.629 192.652 296.836 191.288 298.773C189.532 301.26 187.584 302.858 184.335 304.468L184.28 304.495H184.22C178.863 304.627 171.798 304.165 163.222 303.119L158.053 307.631C154.124 311.643 150.944 316.152 148.616 321.027C144.613 329.41 144.157 336.701 143.824 342.024C143.744 343.293 143.67 344.489 143.554 345.538C142.123 358.521 131.828 371.341 112.952 383.647H112.95Z" fill="#231F20"/>
<path d="M134.068 400.925C131.317 406.205 131.413 409.784 132.115 412.145C132.596 413.765 133.636 415.73 132.882 416.45C132.126 417.171 130.098 416.142 129.729 415.947C127.017 414.508 125.999 411.537 125.638 410.186C121.712 416.819 120.934 420.167 121.022 422.005C121.038 422.368 121.168 424.291 120.246 424.778C119.668 425.084 119.143 424.583 118.117 424.916C117.22 425.207 117.203 425.722 116.609 425.727C115.74 425.736 115.577 424.632 114.468 424.429C113.748 424.297 113.646 424.731 112.804 424.671C111.847 424.602 110.911 423.961 110.416 423.174C109.731 422.088 110.234 421.273 109.659 420.894C108.906 420.393 107.838 421.669 106.666 421.345C105.527 421.028 105.051 419.413 104.762 418.393C104.212 416.437 104.017 413.834 105.048 410.208C105.868 407.322 107.079 405.143 108.091 403.547C109.772 400.898 112.914 396.702 118.425 392.658C119.146 393.23 119.902 393.8 120.697 394.358C125.294 397.588 129.936 399.621 134.068 400.928V400.925Z" fill="#FCD1C7"/>
<path d="M116.597 426C116.055 426 115.742 425.672 115.436 425.353C115.156 425.059 114.889 424.784 114.416 424.696C114.127 424.643 113.976 424.701 113.766 424.781C113.541 424.869 113.26 424.976 112.781 424.94C111.777 424.869 110.757 424.231 110.182 423.314C109.796 422.701 109.752 422.156 109.719 421.757C109.686 421.364 109.662 421.218 109.508 421.116C109.265 420.957 108.941 421.08 108.429 421.301C107.887 421.532 107.274 421.793 106.594 421.606C105.284 421.243 104.773 419.435 104.5 418.464C103.802 415.988 103.895 413.261 104.786 410.128C105.659 407.063 106.96 404.818 107.862 403.396C110.487 399.261 113.987 395.574 118.265 392.432L118.435 392.308L118.6 392.44C119.332 393.021 120.091 393.59 120.859 394.13C124.865 396.941 129.338 399.139 134.156 400.664L134.469 400.763L134.318 401.054C132.117 405.277 131.468 408.983 132.384 412.067C132.499 412.455 132.651 412.874 132.797 413.278C133.3 414.667 133.776 415.982 133.077 416.648C132.238 417.449 130.37 416.593 129.605 416.189C127.319 414.978 126.152 412.739 125.558 410.873C122.623 415.922 121.189 419.661 121.302 421.991V422.03C121.385 423.647 121.074 424.654 120.378 425.02C120.025 425.205 119.69 425.16 119.368 425.114C119.032 425.067 118.686 425.02 118.204 425.174C117.813 425.301 117.624 425.466 117.439 425.628C117.23 425.81 117.016 425.997 116.614 426H116.603H116.597ZM114.207 424.126C114.3 424.126 114.399 424.134 114.512 424.156C115.159 424.275 115.533 424.663 115.83 424.973C116.121 425.276 116.3 425.449 116.595 425.449H116.6C116.793 425.449 116.878 425.381 117.071 425.213C117.266 425.042 117.53 424.811 118.025 424.651C118.625 424.456 119.074 424.519 119.434 424.569C119.742 424.61 119.926 424.632 120.113 424.533C120.389 424.387 120.837 423.873 120.746 422.057V422.016C120.625 419.493 122.191 415.465 125.399 410.045L125.731 409.481L125.899 410.114C126.395 411.971 127.484 414.447 129.853 415.702C130.942 416.28 132.244 416.676 132.687 416.252C133.127 415.831 132.67 414.574 132.268 413.465C132.12 413.052 131.966 412.629 131.845 412.224C130.907 409.069 131.52 405.324 133.669 401.09C128.915 399.555 124.499 397.365 120.532 394.581C119.814 394.075 119.101 393.546 118.413 393.002C114.267 396.075 110.872 399.67 108.319 403.69C107.436 405.082 106.159 407.283 105.309 410.279C104.448 413.311 104.352 415.941 105.023 418.315C105.268 419.182 105.722 420.797 106.734 421.078C107.227 421.215 107.725 421.003 108.206 420.797C108.745 420.566 109.304 420.329 109.805 420.662C110.195 420.921 110.228 421.325 110.261 421.719C110.292 422.098 110.327 422.528 110.641 423.026C111.12 423.785 111.992 424.335 112.815 424.396C113.164 424.42 113.359 424.349 113.563 424.269C113.739 424.2 113.932 424.129 114.201 424.129L114.207 424.126Z" fill="#231F20"/>
<path d="M117.844 424.957C117.142 420.635 117.406 416.126 118.603 411.916L119.131 412.067C117.957 416.203 117.701 420.629 118.386 424.872L117.844 424.96V424.957Z" fill="#231F20"/>
<path d="M114.671 424.61L114.258 424.244C114.448 424.03 114.487 423.661 114.36 423.259C114.297 423.059 114.206 422.863 114.11 422.657C114.019 422.464 113.925 422.264 113.854 422.049C113.736 421.7 113.686 421.339 113.639 420.99C113.257 418.208 112.781 414.75 114.212 411.845L114.704 412.087C113.348 414.841 113.81 418.205 114.181 420.91C114.228 421.248 114.272 421.57 114.374 421.87C114.434 422.054 114.52 422.231 114.608 422.42C114.707 422.635 114.811 422.855 114.886 423.092C115.067 423.68 114.987 424.247 114.668 424.605L114.671 424.61Z" fill="#231F20"/>
<path d="M110.127 423.887L109.61 422.165C109.015 420.189 109.156 418.04 109.277 416.145C109.423 413.903 109.673 411.77 111.128 410.312L111.519 410.7C110.198 412.024 109.967 414.048 109.827 416.181C109.712 417.983 109.59 419.84 110.025 421.603H110.152L110.127 423.89V423.887Z" fill="#231F20"/>
<path d="M194.477 290.483C194.477 290.483 211.306 290.043 225.714 322.785L231.486 329.754C231.486 329.754 215.76 291.649 194.48 290.483H194.477Z" fill="#231F20"/>
<path d="M169.413 369.883C168.981 371.231 166.937 377.509 162.749 385.114C160.532 389.147 158.336 392.415 156.564 394.85C157.904 395.065 161.759 394.325 161.759 394.325C162.565 392.869 163.346 391.364 164.097 389.805C171.63 374.139 173.454 358.361 173.036 345.053C173.171 355.998 171.124 364.515 169.41 369.88L169.413 369.883Z" fill="#231F20"/>
<path d="M398.844 268.46C393.773 284.103 388.928 301.837 384.997 321.478C380.719 342.852 378.303 362.595 377.032 380.162V382.126L372.333 379.298C374.465 361.965 377.742 342.718 382.735 322.042C387.52 302.228 393.107 284.318 398.846 268.457L398.844 268.46Z" fill="#231F20"/>
<path d="M403.911 271.291C402.467 271.291 401.017 271.04 399.773 270.231L400.073 269.769C401.903 270.96 404.277 270.831 406.36 270.545C412.955 269.645 419.376 267.23 424.928 263.562L425.23 264.022C419.61 267.736 413.109 270.179 406.434 271.093C405.623 271.203 404.764 271.291 403.909 271.291H403.911Z" fill="#231F20"/>
<path d="M464.126 381.43C457.49 377.771 453.366 370.797 453.366 363.226C453.366 351.772 462.685 342.451 474.141 342.451C475.549 342.451 476.958 342.594 478.328 342.872L478.218 343.411C476.886 343.139 475.513 343.001 474.141 343.001C462.99 343.001 453.916 352.072 453.916 363.226C453.916 370.596 457.93 377.386 464.393 380.949L464.129 381.43H464.126Z" fill="#BC84B2"/>
<path d="M326.955 332.722L326.418 332.601C328.097 325.126 335.448 319.701 343.902 319.701C350.189 319.701 355.892 322.6 359.161 327.462L358.704 327.77C355.54 323.063 350.007 320.254 343.905 320.254C335.707 320.254 328.578 325.498 326.958 332.725L326.955 332.722Z" fill="#BC84B2"/>
<path d="M373.577 273.516L373.043 273.382C373.491 271.604 374.196 269.948 375.142 268.46C376.446 266.404 377.8 265.29 379.109 264.212C379.786 263.656 380.424 263.131 381.032 262.492C383.28 260.143 384.587 256.745 384.923 252.395L385.47 252.437C385.126 256.916 383.764 260.426 381.429 262.872C380.799 263.532 380.147 264.069 379.459 264.635C378.182 265.686 376.864 266.77 375.607 268.754C374.694 270.193 374.011 271.794 373.577 273.514V273.516Z" fill="#2C1B18"/>
<path d="M379.713 271.563L379.271 271.236C380.668 269.34 381.931 267.323 383.026 265.246C384.726 262.022 386.052 258.586 386.968 255.039L387.502 255.177C386.575 258.767 385.232 262.239 383.513 265.502C382.404 267.604 381.128 269.643 379.713 271.563Z" fill="#2C1B18"/>
<path d="M472.022 303.975L471.513 303.766C472.636 301.048 473.552 298.217 474.231 295.353C474.374 294.753 474.531 294.126 474.694 293.485C475.75 289.281 476.949 284.516 475.739 280.686C474.116 275.55 469.483 272.124 465.004 268.812C460.324 265.351 455.487 261.774 454.013 256.225C453.207 253.193 453.567 250.01 453.916 246.932C453.985 246.321 454.054 245.713 454.114 245.107C455.113 234.994 454.395 232.933 454.051 231.943C453.993 231.772 453.941 231.627 453.911 231.472C452.285 223.348 446.612 218.159 444.191 215.945C437.791 210.09 430.649 207.944 425.785 207.174L425.87 206.632C430.809 207.413 438.061 209.592 444.562 215.54C447.025 217.791 452.788 223.065 454.453 231.368C454.478 231.486 454.519 231.61 454.574 231.767C454.932 232.793 455.674 234.931 454.665 245.168C454.604 245.776 454.535 246.387 454.467 247C454.125 250.027 453.771 253.16 454.549 256.093C455.972 261.455 460.731 264.977 465.334 268.38C469.884 271.745 474.592 275.225 476.267 280.532C477.525 284.508 476.306 289.355 475.23 293.628C475.068 294.269 474.911 294.891 474.771 295.49C474.083 298.382 473.158 301.24 472.025 303.986L472.022 303.975Z" fill="#2C1B18"/>
</svg>
