<svg width="600" height="600" viewBox="0 0 600 600" fill="none" xmlns="http://www.w3.org/2000/svg">
<path d="M527.441 197.218H438.474C431.175 197.218 425.204 203.191 425.204 210.487V268.068L417.369 285.697L438.474 281.341H527.441C534.74 281.341 540.711 275.367 540.711 268.071V210.49C540.711 203.191 534.737 197.221 527.441 197.221V197.218Z" fill="#FFCD74"/>
<path d="M416.882 286.088L424.917 268.008V210.49C424.917 203.014 430.998 196.936 438.471 196.936H527.438C534.914 196.936 540.993 203.017 540.993 210.49V268.071C540.993 275.547 534.911 281.626 527.438 281.626H438.5L416.879 286.088H416.882ZM438.474 197.503C431.315 197.503 425.49 203.328 425.49 210.487V268.128L425.464 268.182L417.857 285.304L438.446 281.053H527.441C534.601 281.053 540.426 275.228 540.426 268.068V210.487C540.426 203.328 534.601 197.503 527.441 197.503H438.474Z" fill="#231F20"/>
<path d="M528.55 217.906H437.881V218.476H528.55V217.906Z" fill="white"/>
<path d="M528.55 231.792H437.881V232.362H528.55V231.792Z" fill="white"/>
<path d="M528.55 245.677H437.881V246.247H528.55V245.677Z" fill="white"/>
<path d="M528.55 259.563H437.881V260.133H528.55V259.563Z" fill="white"/>
<path d="M89.8399 168.709H202.598C211.85 168.709 219.417 176.279 219.417 185.528V258.505L229.345 280.848L202.598 275.325H89.8399C80.5877 275.325 73.0205 267.755 73.0205 258.505V185.528C73.0205 176.276 80.5905 168.709 89.8399 168.709Z" fill="#FEDEBD"/>
<path d="M229.832 281.238L202.569 275.61H89.8399C80.408 275.61 72.7354 267.937 72.7354 258.505V185.528C72.7354 176.096 80.408 168.424 89.8399 168.424H202.598C212.029 168.424 219.702 176.096 219.702 185.528V258.446L229.832 281.238ZM89.8399 168.994C80.7217 168.994 73.3056 176.413 73.3056 185.528V258.505C73.3056 267.624 80.7245 275.04 89.8399 275.04H202.629L202.657 275.045L228.863 280.454L219.135 258.565V185.528C219.135 176.41 211.719 168.994 202.6 168.994H89.8427H89.8399Z" fill="#231F20"/>
<path d="M196.382 251.126H100.495V185.531H101.065V250.556H196.382V251.126Z" fill="#2A1C19"/>
<path d="M100.356 192.046C102.154 192.046 103.612 190.588 103.612 188.79C103.612 186.992 102.154 185.534 100.356 185.534C98.5574 185.534 97.0996 186.992 97.0996 188.79C97.0996 190.588 98.5574 192.046 100.356 192.046Z" fill="#2A1C19"/>
<path d="M100.356 253.886C102.154 253.886 103.612 252.429 103.612 250.63C103.612 248.832 102.154 247.374 100.356 247.374C98.5574 247.374 97.0996 248.832 97.0996 250.63C97.0996 252.429 98.5574 253.886 100.356 253.886Z" fill="#2A1C19"/>
<path d="M195.825 254.431C197.624 254.431 199.082 252.973 199.082 251.175C199.082 249.377 197.624 247.919 195.825 247.919C194.027 247.919 192.569 249.377 192.569 251.175C192.569 252.973 194.027 254.431 195.825 254.431Z" fill="#2A1C19"/>
<path d="M183.736 241.621C172.893 241.621 162.535 239.439 152.883 235.117C144.133 231.199 135.941 225.522 128.54 218.246C115.94 205.86 109.912 192.947 109.853 192.819L110.371 192.579C110.431 192.708 116.425 205.541 128.956 217.853C136.309 225.078 144.444 230.712 153.129 234.601C163.983 239.459 175.742 241.589 188.076 240.933L188.107 241.504C186.645 241.581 185.188 241.621 183.739 241.621H183.736Z" fill="#2A1C19"/>
<path d="M120.867 213.174C123.1 213.174 124.91 211.364 124.91 209.131C124.91 206.898 123.1 205.088 120.867 205.088C118.634 205.088 116.824 206.898 116.824 209.131C116.824 211.364 118.634 213.174 120.867 213.174Z" fill="#F47B20"/>
<path d="M120.867 213.459C118.481 213.459 116.539 211.517 116.539 209.131C116.539 206.744 118.481 204.802 120.867 204.802C123.254 204.802 125.195 206.744 125.195 209.131C125.195 211.517 123.254 213.459 120.867 213.459ZM120.867 205.373C118.794 205.373 117.109 207.058 117.109 209.131C117.109 211.204 118.794 212.889 120.867 212.889C122.94 212.889 124.625 211.204 124.625 209.131C124.625 207.058 122.94 205.373 120.867 205.373Z" fill="#231F20"/>
<path d="M177.691 245.264C179.924 245.264 181.735 243.454 181.735 241.221C181.735 238.988 179.924 237.178 177.691 237.178C175.459 237.178 173.648 238.988 173.648 241.221C173.648 243.454 175.459 245.264 177.691 245.264Z" fill="#F47B20"/>
<path d="M177.691 245.549C175.305 245.549 173.363 243.608 173.363 241.221C173.363 238.835 175.305 236.893 177.691 236.893C180.078 236.893 182.02 238.835 182.02 241.221C182.02 243.608 180.078 245.549 177.691 245.549ZM177.691 237.463C175.619 237.463 173.934 239.148 173.934 241.221C173.934 243.294 175.619 244.979 177.691 244.979C179.764 244.979 181.449 243.294 181.449 241.221C181.449 239.148 179.764 237.463 177.691 237.463Z" fill="#231F20"/>
<path d="M148.809 236.021C151.042 236.021 152.852 234.211 152.852 231.978C152.852 229.745 151.042 227.935 148.809 227.935C146.576 227.935 144.766 229.745 144.766 231.978C144.766 234.211 146.576 236.021 148.809 236.021Z" fill="#F47B20"/>
<path d="M148.809 236.306C146.422 236.306 144.48 234.364 144.48 231.978C144.48 229.591 146.422 227.649 148.809 227.649C151.195 227.649 153.137 229.591 153.137 231.978C153.137 234.364 151.195 236.306 148.809 236.306ZM148.809 228.22C146.736 228.22 145.051 229.905 145.051 231.978C145.051 234.05 146.736 235.736 148.809 235.736C150.881 235.736 152.567 234.05 152.567 231.978C152.567 229.905 150.881 228.22 148.809 228.22Z" fill="#231F20"/>
<path d="M367.273 219.164C367.273 219.164 367.19 218.634 367.014 217.738C367.071 218.137 367.125 218.551 367.173 218.97C367.242 219.093 367.276 219.164 367.276 219.164H367.273Z" fill="#2A1C19"/>
<path d="M345.809 202.555C345.749 202.932 345.746 203.302 345.783 203.665C345.817 203.297 345.832 202.926 345.809 202.555Z" fill="#2A1C19"/>
<path d="M304.673 233.232C304.607 233.582 304.57 233.942 304.562 234.309C304.59 234.116 304.641 233.739 304.673 233.232Z" fill="#2A1C19"/>
<path d="M292.56 248.586L293.358 247.211C292.531 247.348 291.682 247.425 290.809 247.425C282.789 247.425 276.285 241.292 276.285 233.728C276.285 227.512 280.676 222.266 286.692 220.592C286.703 220.552 286.712 220.51 286.721 220.47C283.553 221.405 281.414 223.147 280.59 223.874C281.372 219.877 285.515 200.919 302.582 190.871C303.5 190.329 304.43 189.83 305.365 189.366C301.844 185.802 297.544 183.033 292.645 182.275C288.565 181.644 284.374 182.463 280.502 183.888C274.654 186.038 268.92 190.152 267.48 196.214C266.731 199.373 267.235 202.681 267.101 205.925C266.967 209.17 265.938 212.723 263.152 214.391C261.752 215.229 260.087 215.48 258.582 216.104C252.948 218.442 250.764 225.417 251.006 231.512C251.248 237.608 253.202 243.596 252.882 249.686C252.78 251.628 252.435 253.598 251.491 255.297C249.743 258.448 246.287 260.173 243.596 262.571C239.499 266.22 237.118 271.723 237.263 277.209C237.409 282.695 240.074 288.064 244.36 291.494C246.957 293.575 256.786 296.31 253.068 300.712C258.043 302.234 263.768 299.041 268.028 296.754C275.661 292.654 283.547 288.32 289.318 281.999C287.787 280.753 286.236 279.39 284.673 277.896L292.563 248.591L292.56 248.586Z" fill="#2C1B18"/>
<path d="M255.805 301.385C254.847 301.385 253.9 301.262 252.982 300.98L252.569 300.854L252.848 300.524C253.478 299.78 253.715 299.075 253.569 298.371C253.176 296.441 249.948 294.818 247.357 293.515C246.028 292.848 244.879 292.269 244.177 291.711C239.815 288.218 237.121 282.798 236.975 277.212C236.827 271.627 239.231 266.072 243.405 262.354C244.263 261.59 245.207 260.886 246.119 260.207C248.152 258.693 250.071 257.262 251.24 255.158C252.035 253.726 252.477 251.93 252.597 249.669C252.777 246.231 252.215 242.746 251.67 239.382C251.257 236.816 250.826 234.164 250.721 231.524C250.496 225.867 252.392 218.366 258.473 215.842C259.069 215.594 259.694 215.403 260.298 215.221C261.268 214.924 262.18 214.645 263.007 214.149C266.101 212.295 266.722 208.195 266.819 205.917C266.865 204.828 266.836 203.71 266.81 202.63C266.756 200.491 266.702 198.279 267.207 196.154C269.009 188.567 277.041 184.866 280.408 183.626C284.887 181.978 289.022 181.431 292.694 181.998C297.227 182.699 301.561 185.112 305.57 189.169L305.847 189.448L305.493 189.625C304.541 190.098 303.611 190.603 302.73 191.122C287.57 200.046 282.572 215.916 281.038 223.136C282.324 222.112 284.209 220.92 286.647 220.202L287.126 220.059L286.934 220.826L286.775 220.872C280.77 222.543 276.576 227.832 276.576 233.734C276.576 241.13 282.963 247.146 290.815 247.146C291.639 247.146 292.48 247.075 293.316 246.935L293.914 246.835L292.828 248.7L284.993 277.805C286.458 279.202 287.972 280.537 289.498 281.777L289.732 281.968L289.529 282.19C283.544 288.745 275.016 293.324 268.165 297.005L267.823 297.188C264.427 299.013 260.01 301.388 255.81 301.388L255.805 301.385ZM253.549 300.547C258.191 301.713 263.583 298.816 267.546 296.683L267.888 296.501C274.626 292.882 282.988 288.392 288.899 282.025C287.399 280.796 285.911 279.476 284.474 278.099L284.351 277.982L292.315 248.443L292.817 247.582C292.147 247.668 291.474 247.713 290.812 247.713C282.646 247.713 276.003 241.441 276.003 233.731C276.003 229.981 277.62 226.472 280.297 223.905L280.314 223.82C281.654 216.966 286.495 200.012 302.439 190.626C303.224 190.164 304.045 189.716 304.886 189.289C301.042 185.488 296.911 183.224 292.606 182.557C289.027 182.004 284.99 182.543 280.602 184.156C277.32 185.363 269.496 188.964 267.757 196.28C267.27 198.336 267.324 200.508 267.375 202.61C267.404 203.702 267.429 204.828 267.384 205.937C267.284 208.332 266.619 212.646 263.295 214.636C262.408 215.166 261.419 215.472 260.458 215.762C259.868 215.942 259.258 216.13 258.687 216.367C255.055 217.872 250.938 222.739 251.286 231.498C251.388 234.104 251.816 236.739 252.226 239.288C252.777 242.684 253.344 246.196 253.162 249.698C253.039 252.047 252.571 253.923 251.733 255.432C250.507 257.641 248.446 259.178 246.456 260.664C245.552 261.336 244.619 262.032 243.781 262.779C239.732 266.386 237.4 271.775 237.543 277.198C237.685 282.618 240.3 287.879 244.531 291.266C245.184 291.788 246.361 292.381 247.607 293.008C250.45 294.436 253.672 296.056 254.123 298.257C254.276 299.015 254.083 299.782 253.544 300.547H253.549Z" fill="#231F20"/>
<path d="M247.206 299.953C245.915 299.953 244.652 299.757 243.454 299.281L243.052 299.121L243.357 298.816C244.044 298.126 244.338 297.442 244.253 296.732C244.016 294.776 240.934 292.897 238.459 291.386C237.187 290.61 236.089 289.94 235.439 289.327C231.376 285.489 229.138 279.867 229.446 274.287C229.757 268.707 232.605 263.366 237.067 260.005C237.985 259.315 238.983 258.69 239.947 258.086C242.097 256.743 244.127 255.474 245.464 253.473C246.374 252.11 246.964 250.356 247.266 248.115C247.728 244.702 247.452 241.187 247.184 237.785C246.981 235.193 246.77 232.513 246.881 229.876C247.021 226.597 247.856 223.372 249.239 220.8C250.847 217.81 253.145 215.762 255.891 214.881C256.504 214.685 257.143 214.545 257.759 214.411C258.748 214.194 259.683 213.992 260.547 213.564C263.781 211.97 264.739 207.936 265.021 205.672C265.4 202.638 266.136 199.428 267.208 196.132L267.75 196.308C266.686 199.57 265.959 202.744 265.585 205.74C265.289 208.118 264.274 212.364 260.798 214.074C259.872 214.531 258.859 214.753 257.879 214.967C257.274 215.098 256.653 215.235 256.062 215.423C252.319 216.626 247.819 221.143 247.449 229.899C247.338 232.505 247.549 235.165 247.751 237.74C248.019 241.17 248.298 244.717 247.831 248.189C247.517 250.519 246.898 252.352 245.938 253.786C244.535 255.891 242.356 257.251 240.249 258.568C239.294 259.164 238.308 259.782 237.41 260.458C233.079 263.723 230.313 268.904 230.013 274.318C229.711 279.733 231.887 285.187 235.827 288.911C236.434 289.484 237.561 290.171 238.752 290.898C241.47 292.555 244.546 294.433 244.817 296.663C244.908 297.43 244.652 298.18 244.053 298.896C248.584 300.438 254.192 297.992 258.32 296.19L258.677 296.036C265.768 292.948 274.592 289.102 281.022 283.125L281.41 283.542C274.909 289.586 266.036 293.453 258.905 296.558L258.549 296.712C255.287 298.134 251.118 299.953 247.204 299.953H247.206Z" fill="#231F20"/>
<path d="M367.171 218.97C366.652 218.035 364.055 213.9 357.583 211.662C354.318 210.533 352.79 210.08 350.05 208.771C347.963 207.776 346.024 205.866 345.787 203.662C345.494 206.698 343.267 209.518 340.319 210.376C339.016 210.755 337.633 210.781 336.318 211.123C330.938 212.515 328.204 218.499 323.57 221.57C320.192 223.808 316.003 224.362 312.217 225.804C308.773 227.116 305.325 229.722 304.672 233.229C304.641 233.736 304.59 234.113 304.561 234.307C304.567 233.939 304.607 233.58 304.672 233.229C304.767 231.698 304.684 228.949 303.267 226.241C300.675 222.5 296.199 220.028 291.106 220.028C289.675 220.028 288.295 220.224 286.992 220.589C280.976 222.263 276.585 227.509 276.585 233.725C276.585 241.289 283.086 247.422 291.109 247.422C291.979 247.422 292.828 247.345 293.658 247.208L292.86 248.583L284.97 277.888C286.533 279.385 288.081 280.745 289.615 281.991C313.871 301.713 333.815 291.414 333.815 291.414L332.689 287.656C352.644 289.603 360.853 272.755 361.697 267.104C361.888 265.824 361.902 264.521 362.099 263.241L365.375 242.196C367.565 232.285 367.844 224.712 367.18 218.967L367.171 218.97Z" fill="#B76367"/>
<path d="M320.294 294.391C312.921 294.391 301.735 292.224 289.427 282.216C287.847 280.933 286.279 279.547 284.765 278.099L284.642 277.982L292.606 248.443L293.108 247.582C292.438 247.667 291.765 247.713 291.103 247.713C282.937 247.713 276.294 241.44 276.294 233.731C276.294 227.575 280.659 222.058 286.909 220.318C288.272 219.939 289.683 219.745 291.1 219.745C296.113 219.745 300.746 222.115 303.495 226.081L303.512 226.112C304.49 227.98 304.858 229.864 304.952 231.441C306.104 228.989 308.658 226.856 312.108 225.539C313.423 225.04 314.797 224.641 316.129 224.253C318.635 223.526 321.224 222.776 323.405 221.333C325.23 220.125 326.786 218.422 328.292 216.774C330.57 214.282 332.928 211.702 336.238 210.847C336.871 210.684 337.521 210.59 338.151 210.499C338.841 210.399 339.557 210.296 340.23 210.102C343.041 209.284 345.205 206.624 345.493 203.633L345.761 200.844L346.061 203.63C346.303 205.905 348.422 207.682 350.164 208.511C352.462 209.609 353.89 210.097 356.254 210.906C356.69 211.055 357.158 211.214 357.665 211.391C358.826 211.793 364.756 214.04 367.411 218.83L367.439 218.879L367.445 218.936C368.206 225.528 367.596 233.374 365.634 242.259L362.361 263.286C362.261 263.931 362.207 264.595 362.156 265.24C362.105 265.864 362.053 266.511 361.959 267.147C361.035 273.328 352.482 289.632 333.065 287.978L334.14 291.556L333.929 291.665C333.877 291.69 328.791 294.271 320.799 294.382C320.631 294.382 320.46 294.385 320.286 294.385L320.294 294.391ZM285.281 277.802C286.747 279.199 288.261 280.534 289.786 281.774C302.249 291.907 313.528 293.912 320.799 293.817C327.747 293.723 332.435 291.742 333.464 291.266L332.284 287.334L332.706 287.376C352.011 289.261 360.497 273.149 361.403 267.067C361.494 266.451 361.546 265.813 361.597 265.197C361.648 264.544 361.705 263.865 361.808 263.201L365.084 242.156C367.032 233.343 367.639 225.579 366.895 219.061C366.376 218.146 363.793 214.114 357.488 211.933C356.981 211.756 356.513 211.596 356.077 211.448C353.693 210.633 352.254 210.142 349.924 209.03C348.39 208.298 346.58 206.866 345.83 204.993C345.106 207.659 343.01 209.891 340.395 210.653C339.685 210.858 338.95 210.963 338.24 211.066C337.624 211.155 336.991 211.246 336.386 211.4C333.239 212.212 331.043 214.616 328.72 217.159C327.191 218.833 325.609 220.561 323.727 221.81C321.475 223.304 318.84 224.065 316.294 224.803C314.974 225.185 313.608 225.582 312.316 226.075C309.189 227.267 305.613 229.782 304.952 233.269C304.929 233.642 304.892 233.999 304.84 234.352L304.273 234.307C304.279 233.939 304.319 233.568 304.384 233.2C304.49 231.487 304.333 228.921 303.016 226.394C300.373 222.591 295.919 220.318 291.1 220.318C289.735 220.318 288.375 220.504 287.06 220.869C281.055 222.539 276.861 227.829 276.861 233.731C276.861 241.127 283.248 247.143 291.1 247.143C291.924 247.143 292.766 247.071 293.601 246.932L294.2 246.832L293.113 248.697L285.278 277.802H285.281Z" fill="#231F20"/>
<path d="M367.114 217.585C366.791 215.971 366.475 213.419 365.471 210.391C364.459 207.332 363.068 204.056 361.24 201.569C350.813 187.407 326.543 179.449 305.778 189.657C304.84 190.119 303.908 190.615 302.984 191.151C285.834 201.13 281.671 219.963 280.887 223.931C281.714 223.21 283.863 221.479 287.048 220.55C289.443 220.025 291.416 220.071 292.691 220.191C298.328 220.721 301.572 223.738 302.043 224.299C302.337 224.653 302.607 225.032 302.607 225.032C302.898 225.445 303.155 225.865 303.377 226.284C304.803 228.975 304.886 231.704 304.791 233.227C305.45 229.742 308.914 227.153 312.373 225.85C316.179 224.416 320.385 223.866 323.781 221.645C328.437 218.597 331.182 212.649 336.588 211.269C337.909 210.933 339.297 210.904 340.609 210.528C343.571 209.675 345.809 206.875 346.103 203.856C346.063 203.497 346.066 203.129 346.129 202.753C346.151 203.12 346.14 203.488 346.103 203.856C346.34 206.043 348.29 207.942 350.385 208.931C353.14 210.231 354.674 210.682 357.955 211.802C364.462 214.026 366.652 218.038 367.174 218.965C367.125 218.548 367.174 217.978 367.117 217.579L367.114 217.585Z" fill="#2C1B18"/>
<path d="M305.066 233.286L304.501 233.215C304.609 231.51 304.456 228.947 303.121 226.426C302.899 226.004 302.645 225.594 302.371 225.206C302.371 225.203 302.106 224.832 301.821 224.493C301.792 224.459 298.693 221.052 292.663 220.484C290.829 220.31 288.962 220.43 287.109 220.838C284.343 221.647 282.299 223.09 281.075 224.157L280.445 224.704L280.608 223.886C281.956 217.077 286.821 200.235 302.842 190.914C303.74 190.392 304.686 189.885 305.656 189.409C326.963 178.933 351.219 187.481 361.474 201.407C363.071 203.576 364.511 206.57 365.746 210.305C366.533 212.678 366.903 214.787 367.174 216.327C367.254 216.772 367.322 217.174 367.396 217.533V217.547C367.434 217.776 367.434 218.046 367.434 218.309C367.434 218.531 367.434 218.759 367.456 218.942L367.622 220.359L366.906 219.084C364.668 215.087 360.753 213.071 357.862 212.082C357.352 211.908 356.881 211.748 356.442 211.6C354.047 210.79 352.601 210.302 350.263 209.199C348.721 208.472 346.899 207.046 346.146 205.184C345.419 207.833 343.312 210.057 340.686 210.813C339.973 211.018 339.235 211.124 338.519 211.223C337.9 211.312 337.262 211.4 336.657 211.557C333.495 212.364 331.288 214.75 328.95 217.279C327.414 218.942 325.826 220.658 323.932 221.898C321.668 223.381 319.022 224.139 316.465 224.872C315.139 225.251 313.765 225.645 312.468 226.135C307.666 227.943 305.493 231.022 305.066 233.298V233.286ZM291.029 219.834C291.594 219.834 292.155 219.86 292.717 219.914C298.052 220.416 301.482 223.193 302.26 224.125C302.559 224.482 302.827 224.861 302.836 224.875C303.124 225.283 303.389 225.716 303.623 226.158C304.607 228.014 304.977 229.89 305.071 231.459C306.229 229.018 308.795 226.897 312.265 225.591C313.585 225.095 314.968 224.698 316.305 224.313C318.823 223.592 321.426 222.848 323.619 221.411C325.452 220.21 327.017 218.52 328.528 216.883C330.818 214.408 333.187 211.845 336.512 210.995C337.148 210.833 337.804 210.742 338.434 210.65C339.129 210.553 339.848 210.451 340.521 210.257C343.338 209.447 345.508 206.818 345.807 203.861C345.767 203.459 345.776 203.083 345.838 202.712L346.243 200.249L346.403 202.741C346.426 203.092 346.417 203.457 346.38 203.859C346.64 206.103 348.758 207.856 350.5 208.677C352.81 209.766 354.244 210.251 356.619 211.055C357.058 211.203 357.528 211.363 358.039 211.537C360.802 212.481 364.471 214.34 366.849 217.907C366.846 217.81 366.838 217.716 366.826 217.636C366.755 217.277 366.684 216.872 366.604 216.424C366.336 214.901 365.968 212.817 365.195 210.482C363.978 206.804 362.566 203.864 361.004 201.74C350.885 187.997 326.94 179.569 305.898 189.913C304.94 190.384 304.005 190.883 303.121 191.399C287.89 200.26 282.866 216.028 281.323 223.196C282.615 222.178 284.511 220.995 286.96 220.279C288.32 219.98 289.678 219.831 291.023 219.831L291.029 219.834Z" fill="#231F20"/>
<path d="M282.136 272.334C282.136 272.334 318.207 298.431 332.68 287.662C332.68 287.662 359 296.943 363.556 305.146C368.112 313.349 383.606 348.895 383.606 348.895L349.579 363.782L330.137 423.934H213.852C198.005 423.934 187.21 407.876 193.195 393.201L223.247 319.496C230.643 301.357 246.405 287.947 265.497 283.551L277.275 280.839L282.136 272.334Z" fill="#F3EDE3"/>
<path d="M330.343 424.219H213.853C206.317 424.219 199.306 420.484 195.101 414.228C190.895 407.973 190.085 400.072 192.931 393.092L222.983 319.388C230.405 301.185 246.275 287.685 265.432 283.274L277.088 280.591L282.043 271.917L282.3 272.103C282.391 272.168 291.427 278.675 302.107 283.781C319.871 292.275 328.444 290.456 332.507 287.431L332.63 287.34L332.772 287.391C332.838 287.414 339.447 289.755 346.527 293.068C356.07 297.533 361.883 301.55 363.802 305.006C368.313 313.126 383.71 348.425 383.866 348.778L383.98 349.04L349.811 363.989L330.343 424.219ZM282.226 272.747L277.459 281.09L265.557 283.83C246.58 288.198 230.861 301.573 223.51 319.604L193.458 393.309C190.684 400.112 191.474 407.813 195.574 413.912C199.674 420.01 206.506 423.649 213.853 423.649H329.93L349.349 363.57L349.466 363.519L383.231 348.747C381.808 345.488 367.597 313.012 363.306 305.285C359.024 297.579 334.811 288.731 332.724 287.981C326.614 292.409 316.23 291.169 301.856 284.295C292.139 279.647 283.783 273.851 282.226 272.75V272.747Z" fill="#231F20"/>
<path d="M294.036 424.273H213.905C198.058 424.273 187.263 408.215 193.248 393.539L223.3 319.835C230.696 301.696 246.457 288.286 265.546 283.89L277.325 281.178C285.103 296.053 295.841 321.098 299.222 353.902C302.313 383.902 298.031 408.585 294.036 424.273Z" fill="#FDB956"/>
<path d="M294.259 424.558H213.906C206.37 424.558 199.359 420.823 195.153 414.567C190.948 408.312 190.138 400.411 192.984 393.431L223.036 319.727C230.457 301.525 246.327 288.024 265.485 283.613L277.477 280.853L277.58 281.047C289.501 303.845 296.877 328.346 299.508 353.873C301.946 377.533 300.198 401.244 294.314 424.341L294.259 424.555V424.558ZM277.178 281.509L265.613 284.172C246.635 288.54 230.916 301.915 223.566 319.946L193.514 393.651C190.74 400.454 191.53 408.155 195.63 414.254C199.727 420.352 206.561 423.991 213.909 423.991H293.817C299.64 401.024 301.365 377.456 298.941 353.936C296.327 328.554 289.005 304.188 277.178 281.512V281.509Z" fill="#231F20"/>
<path d="M259.328 382.95L258.76 382.884C260.622 366.458 260.212 351.469 257.543 338.336C255.199 326.797 251.772 320.154 250.409 317.836C249.713 316.653 249.26 316.088 249.16 316.011L249.479 315.538C249.722 315.698 250.278 316.487 250.899 317.545C252.277 319.889 255.738 326.598 258.102 338.222C260.782 351.415 261.195 366.464 259.325 382.95H259.328Z" fill="#231F20"/>
<path d="M266.052 423.649C265.103 409.566 270.99 401.15 276.097 396.568C280.496 392.622 285.093 390.765 286.818 390.164C263.07 379.483 237.782 384.062 237.528 384.108L237.423 383.546C237.682 383.498 263.614 378.799 287.724 389.947L288.429 390.272L287.679 390.48C287.622 390.497 281.891 392.123 276.459 397.004C271.455 401.5 265.69 409.763 266.622 423.606L266.052 423.643V423.649Z" fill="#231F20"/>
<path d="M287.604 390.209C287.604 390.209 309.174 390.514 314.642 409.652L315.555 424.236C311.098 424.182 307.42 424.11 303.742 424.042C297.772 423.928 292.964 425.719 291.929 423.848C291.499 423.07 292.249 422.702 292.149 420.806C291.961 417.216 289.035 414.071 288.833 414.18C288.822 414.185 288.819 414.205 288.819 414.211C288.776 414.573 285.782 420.877 278.725 423.532C272.923 425.713 267.808 424.139 266.337 423.629C266.052 421.08 265.353 412.007 271.198 402.969C276.886 394.175 285.129 391.045 287.604 390.209Z" fill="#B76367"/>
<path d="M294.27 424.988C293.004 424.988 292.1 424.749 291.678 423.985C291.405 423.491 291.513 423.106 291.641 422.659C291.761 422.237 291.909 421.715 291.864 420.82C291.71 417.874 289.671 415.297 288.967 414.613C288.3 416.115 285.155 421.416 278.825 423.796C273.451 425.818 268.635 424.726 266.243 423.896L266.072 423.836L266.052 423.657C265.581 419.434 265.59 411.108 270.956 402.811C276.196 394.708 283.578 391.267 287.51 389.935L287.556 389.918H287.604C287.658 389.918 293.121 390.024 299.177 392.484C304.78 394.759 312.059 399.572 314.913 409.569L314.925 409.629L315.854 424.518H315.546C311.11 424.458 307.386 424.389 303.785 424.321H303.733C301.444 424.275 299.365 424.512 297.529 424.717C296.283 424.857 295.183 424.983 294.27 424.983V424.988ZM288.844 413.891C288.901 413.891 288.967 413.906 289.044 413.948C289.663 414.293 292.252 417.336 292.434 420.788C292.485 421.778 292.317 422.377 292.192 422.813C292.075 423.229 292.021 423.417 292.18 423.705C292.722 424.686 294.712 424.464 297.469 424.153C299.323 423.945 301.427 423.708 303.748 423.751H303.799C307.315 423.819 310.95 423.888 315.25 423.942L314.36 409.697C311.563 399.949 304.455 395.247 298.983 393.02C293.324 390.716 288.194 390.505 287.647 390.491C283.772 391.808 276.564 395.193 271.438 403.119C266.243 411.151 266.16 419.212 266.602 423.412C268.974 424.207 273.542 425.171 278.625 423.26C285.825 420.555 288.525 414.216 288.539 414.159C288.548 414.065 288.608 413.974 288.702 413.925C288.739 413.906 288.787 413.888 288.847 413.888L288.844 413.891ZM289.101 414.239C289.101 414.239 289.098 414.262 289.092 414.276C289.095 414.265 289.098 414.251 289.101 414.239Z" fill="#231F20"/>
<path d="M309.5 419.716C308.727 414 306.338 410.402 304.467 408.389C302.44 406.207 300.573 405.366 300.553 405.358L300.784 404.836C300.861 404.87 308.542 408.371 310.064 419.642L309.5 419.719V419.716Z" fill="#231F20"/>
<path d="M300.946 421.861L300.387 421.75C301.85 414.436 294.209 409.335 294.132 409.284L294.443 408.808C294.522 408.859 302.486 414.168 300.946 421.864V421.861Z" fill="#231F20"/>
<path d="M278.813 423.802L278.634 423.261C279.635 422.927 287.37 419.121 288.542 414.145L288.647 413.703L289.001 413.991C289.052 414.031 293.993 418.128 292.129 423.72L291.587 423.54C293.047 419.163 290.01 415.742 288.972 414.735C288.157 417.333 285.756 419.52 283.829 420.925C281.511 422.616 279.25 423.66 278.819 423.802H278.813Z" fill="#231F20"/>
<path d="M332.368 287.451C332.368 287.451 322.882 287.895 313.234 280.414C303.585 272.935 301.635 268.815 301.635 268.815C301.635 268.815 308.788 288.437 328.519 289.412C329.041 289.347 329.845 289.178 330.72 288.711C331.49 288.3 332.029 287.81 332.368 287.451Z" fill="#231F20"/>
<path d="M285.931 274.954L286.806 271.843C286.806 271.843 283.105 271.273 282.136 272.336" fill="#F3EDE3"/>
<path d="M286.204 275.031L285.654 274.877L286.441 272.08C285.283 271.937 282.988 271.82 282.344 272.527L281.922 272.142C282.965 270.999 286.452 271.501 286.846 271.561L287.165 271.609L286.202 275.031H286.204Z" fill="#231F20"/>
<path d="M287.596 229.785L287.083 230.469L296.501 237.533L297.014 236.849L287.596 229.785Z" fill="#231F20"/>
<path d="M280.664 222.867C281.93 217.413 285.035 208.32 293.589 199.074C297.783 194.54 302.131 191.444 305.658 189.365C303.437 189.497 300.141 189.95 296.494 191.484C293.863 192.59 287.137 195.903 282.934 203.59C277.87 212.851 280.131 220.877 280.664 222.865V222.867Z" fill="#FDB956"/>
<path d="M280.685 224.045L280.369 222.862C278.555 216.116 279.336 209.589 282.687 203.459C286.684 196.146 292.985 192.656 296.387 191.224C299.309 189.995 302.426 189.274 305.645 189.083L306.825 189.012L305.807 189.613C301.328 192.254 297.288 195.501 293.801 199.268C287.277 206.319 282.952 214.279 280.945 222.933L280.688 224.045H280.685ZM304.476 189.747C301.747 190.027 299.104 190.697 296.604 191.749C293.27 193.149 287.098 196.57 283.183 203.73C280.075 209.412 279.228 215.445 280.659 221.681C282.795 213.364 287.069 205.697 293.379 198.88C296.632 195.364 300.359 192.296 304.476 189.747Z" fill="white"/>
<path d="M323.511 301.362C314.849 301.362 304.325 297.131 296.552 293.284C286.872 288.497 279.254 283.262 279.177 283.208L279.502 282.738C279.804 282.946 309.87 303.518 327.22 300.49L327.317 301.051C326.102 301.262 324.828 301.362 323.513 301.362H323.511Z" fill="#231F20"/>
<path d="M330.402 299.252L330.131 298.75C332.135 297.669 337.433 294.536 337.869 293.016L338.417 293.173C337.838 295.2 331.16 298.844 330.402 299.252Z" fill="#231F20"/>
<path d="M259.047 382.919L265.708 383.825C266.392 376.649 266.543 367.554 264.961 357.226C262.255 339.543 255.669 326.065 250.659 317.691C254.026 325.178 258.007 336.193 259.74 350.016C261.434 363.513 260.393 374.924 259.047 382.916V382.919Z" fill="#231F20"/>
<path d="M265.96 384.147L258.715 383.161L258.764 382.87C260.594 372.012 260.828 360.97 259.457 350.052C258.057 338.907 255.009 328.058 250.398 317.808L250.903 317.545C258.279 329.871 263.104 343.206 265.242 357.183C266.585 365.971 266.839 374.941 265.989 383.851L265.96 384.147ZM259.374 382.676L265.447 383.503C266.257 374.735 265.998 365.914 264.675 357.269C262.79 344.957 258.81 333.142 252.828 322.085C256.4 331.037 258.815 340.401 260.018 349.981C261.384 360.858 261.168 371.856 259.371 382.676H259.374Z" fill="#231F20"/>
<path d="M332.369 287.451C338.821 300.439 345.787 318.567 348.501 340.935C349.516 349.306 349.796 357.087 349.636 364.118C360.978 359.157 372.321 354.193 383.663 349.232C383.663 349.232 368.169 313.685 363.613 305.482C359.057 297.279 332.737 287.999 332.737 287.999" fill="#FDB956"/>
<path d="M349.339 364.56L349.35 364.112C349.527 356.391 349.145 348.604 348.218 340.969C345.983 322.547 340.562 304.584 332.114 287.577L332.625 287.323C332.693 287.46 332.759 287.597 332.827 287.733C333.908 288.113 359.318 297.171 363.857 305.345C368.368 313.466 383.764 348.761 383.921 349.118L384.035 349.38L383.773 349.494L349.339 364.56ZM333.186 288.469C341.344 305.197 346.59 322.829 348.783 340.903C349.695 348.416 350.08 356.077 349.926 363.682L383.282 349.089C381.86 345.83 367.649 313.355 363.358 305.628C361.53 302.335 355.671 298.303 346.413 293.963C340.466 291.175 334.92 289.102 333.183 288.472L333.186 288.469Z" fill="#231F20"/>
<path d="M353.71 343.321L353.16 343.17C355.056 336.293 349.752 326.302 347.486 322.034C346.71 320.574 346.465 320.1 346.465 319.852H347.035H346.75L347.035 319.841C347.061 320.018 347.511 320.867 347.99 321.768C350.288 326.094 355.666 336.227 353.71 343.324V343.321Z" fill="#231F20"/>
<path d="M377.296 387.136C371.933 387.136 367.57 382.548 367.57 376.908C367.57 371.269 371.933 366.681 377.296 366.681C382.659 366.681 387.021 371.269 387.021 376.908C387.021 382.548 382.659 387.136 377.296 387.136ZM377.296 367.254C372.249 367.254 368.141 371.585 368.141 376.911C368.141 382.237 372.246 386.568 377.296 386.568C382.345 386.568 386.451 382.237 386.451 376.911C386.451 371.585 382.345 367.254 377.296 367.254Z" fill="#231F20"/>
<path d="M308.768 234.401L308.218 234.253C308.238 234.176 308.757 232.314 310.67 230.181C312.426 228.228 315.742 225.673 321.581 224.601C323.888 224.176 326.089 223.19 327.948 221.741C329.987 220.156 331.481 218.508 332.388 216.846C334.141 213.633 338.216 212.566 340.488 212.216C342.84 211.853 344.773 210.302 345.532 208.164C345.865 207.226 345.957 206.234 345.808 205.216L346.373 205.133C346.535 206.245 346.436 207.329 346.071 208.355C345.241 210.69 343.137 212.387 340.576 212.78C338.407 213.114 334.523 214.12 332.889 217.12C331.946 218.85 330.4 220.558 328.302 222.192C326.372 223.695 324.085 224.721 321.687 225.16C316.024 226.201 312.814 228.659 311.117 230.535C309.281 232.568 308.774 234.381 308.768 234.398V234.401Z" fill="#231F20"/>
<path d="M364.115 221.642C362.013 220.008 360.471 218.3 359.527 216.569C357.893 213.573 354.01 212.563 351.84 212.23C349.28 211.836 347.173 210.14 346.346 207.805C345.981 206.778 345.878 205.695 346.043 204.583L346.608 204.665C346.46 205.683 346.551 206.676 346.885 207.614C347.643 209.752 349.576 211.303 351.928 211.665C354.201 212.016 358.278 213.082 360.029 216.296C360.935 217.958 362.43 219.606 364.468 221.191L364.117 221.642H364.115Z" fill="#231F20"/>
<path d="M287.604 390.209C284.724 391.441 279.216 394.284 274.839 400.226C267.249 410.533 268.971 422.135 269.379 424.515L266.3 424.669C265.892 422.098 264.826 413.353 269.995 404.343C275.8 394.224 285.363 390.919 287.607 390.209H287.604Z" fill="#231F20"/>
<path d="M266.054 424.969L266.014 424.715C265.364 420.618 264.982 412.506 269.743 404.2C275.206 394.674 283.991 391.053 287.515 389.936L287.712 390.469C284.156 391.988 279.078 394.942 275.064 400.394C268.09 409.863 268.956 420.384 269.655 424.467L269.709 424.783L266.054 424.966V424.969ZM281.941 392.995C278.123 395.133 273.555 398.7 270.24 404.485C265.66 412.469 265.926 420.276 266.539 424.373L269.042 424.247C268.346 419.885 267.676 409.466 274.608 400.057C276.869 396.987 279.463 394.694 281.941 392.995Z" fill="#231F20"/>
<path d="M267.136 415.981H330.913V424.942H258.175C258.175 419.998 262.189 415.981 267.136 415.981Z" fill="#454E68"/>
<path d="M331.201 425.227H257.893V424.942C257.893 419.844 262.041 415.696 267.139 415.696H331.201V425.227ZM258.466 424.657H330.627V416.266H267.136C262.449 416.266 258.617 420.004 258.466 424.657Z" fill="#231F20"/>
<path d="M416.991 425.213H313.332L337.071 342.128C338.52 337.062 343.15 333.569 348.419 333.569H440.106C445.467 333.569 449.336 338.698 447.865 343.853L426.714 417.886C425.474 422.225 421.508 425.216 416.994 425.216L416.991 425.213Z" fill="#7D8FC7"/>
<path d="M416.992 425.498H312.953L336.795 342.049C338.269 336.888 343.051 333.281 348.42 333.281H440.107C442.753 333.281 445.182 334.493 446.776 336.603C448.37 338.715 448.866 341.384 448.139 343.927L426.988 417.96C425.719 422.399 421.611 425.498 416.995 425.498H416.992ZM313.712 424.928H416.992C421.354 424.928 425.24 421.997 426.438 417.803L447.588 343.771C448.267 341.401 447.802 338.915 446.319 336.948C444.837 334.98 442.57 333.851 440.107 333.851H348.42C343.304 333.851 338.751 337.287 337.345 342.205L313.712 424.928Z" fill="#231F20"/>
<path d="M384.941 384.669C390.168 384.669 394.449 380.788 394.449 375.949C394.449 371.111 390.168 367.23 384.941 367.23C379.713 367.23 375.432 371.111 375.432 375.949C375.432 380.788 379.713 384.669 384.941 384.669Z" fill="#F3EDE3" stroke="#231F20" stroke-width="0.570246"/>
<path d="M210.039 431.98H116.927C121.397 429.26 123.87 424.302 123.211 419.412C122.424 413.575 117.551 410.633 116.927 410.271H210.039C216.033 410.271 220.894 415.129 220.894 421.126C220.894 427.122 216.036 431.98 210.039 431.98Z" fill="#F0DDC0"/>
<path d="M133.849 410.393H226.961C222.491 407.673 220.019 402.715 220.677 397.825C221.464 391.989 226.337 389.046 226.961 388.684H133.849C127.855 388.684 122.994 393.543 122.994 399.539C122.994 405.535 127.853 410.393 133.849 410.393Z" fill="#F47B20"/>
<path d="M223.7 407.893H135.223C130.772 407.893 127.063 404.372 126.952 400.043C126.946 399.872 126.949 399.701 126.952 399.53C126.963 399.194 126.991 398.852 127.04 398.518C127.602 394.575 131.114 391.598 135.209 391.598H223.146V392.168H135.209C131.397 392.168 128.126 394.931 127.602 398.598C127.556 398.912 127.53 399.228 127.519 399.547C127.513 399.707 127.513 399.867 127.519 400.026C127.622 404.049 131.077 407.32 135.22 407.32H223.697V407.89L223.7 407.893Z" fill="#231F20"/>
<path d="M221.41 394.096H129.572V394.666H221.41V394.096Z" fill="#231F20"/>
<path d="M220.389 400.086H127.077V400.656H220.389V400.086Z" fill="#231F20"/>
<path d="M221.086 402.829H128.343V403.399H221.322L221.086 402.829Z" fill="#231F20"/>
<path d="M221.855 404.933L129.672 404.911V405.481H222.271L221.855 404.933Z" fill="#231F20"/>
<path d="M220.68 397.09H127.576V397.66H220.68V397.09Z" fill="#231F20"/>
<path d="M208.628 429.605H120.151V429.035H208.628C212.774 429.035 216.226 425.762 216.329 421.741C216.332 421.582 216.332 421.422 216.329 421.262C216.321 420.946 216.292 420.626 216.246 420.313C215.722 416.646 212.454 413.883 208.639 413.883H120.699V413.313H208.639C212.734 413.313 216.246 416.287 216.808 420.233C216.857 420.567 216.885 420.906 216.896 421.245C216.902 421.416 216.902 421.587 216.896 421.758C216.785 426.087 213.076 429.608 208.625 429.608L208.628 429.605Z" fill="#231F20"/>
<path d="M214.279 415.811L122.062 415.91L122.441 416.381H214.279V415.811Z" fill="#231F20"/>
<path d="M216.774 421.798H123.462V422.369H216.774V421.798Z" fill="#231F20"/>
<path d="M215.505 424.544L122.774 424.464L122.489 425.114H215.505V424.544Z" fill="#231F20"/>
<path d="M214.182 426.625H121.583V427.196H214.182V426.625Z" fill="#231F20"/>
<path d="M216.275 418.805H123.171V419.375H216.275V418.805Z" fill="#231F20"/>
<path d="M192.416 388.439H115.789C119.47 386.201 121.503 382.121 120.961 378.097C120.314 373.293 116.302 370.872 115.789 370.576H192.416C197.349 370.576 201.349 374.576 201.349 379.509C201.349 384.441 197.349 388.442 192.416 388.442V388.439Z" fill="#6AA393"/>
<path d="M134.019 410.49H227.803L226.937 409.971C222.57 407.344 220.164 402.593 220.809 397.864C221.553 392.408 226.039 389.575 226.931 389.061L227.843 388.539H134.016C127.897 388.539 122.917 393.461 122.917 399.516C122.917 405.571 127.897 410.493 134.016 410.493L134.019 410.49ZM225.84 409.928H134.022C128.215 409.928 123.491 405.256 123.491 399.513C123.491 393.77 128.215 389.098 134.022 389.098H225.829C224.161 390.258 220.889 393.093 220.249 397.785C219.616 402.435 221.792 407.105 225.84 409.926V409.928Z" fill="#231F20"/>
<path d="M192.277 388.677H114.966L115.681 388.244C119.28 386.055 121.263 382.095 120.732 378.154C120.118 373.606 116.421 371.245 115.685 370.817L114.934 370.381H192.279C197.323 370.381 201.429 374.484 201.429 379.531C201.429 384.577 197.323 388.68 192.279 388.68L192.277 388.677ZM116.585 388.209H192.275C197.061 388.209 200.956 384.315 200.956 379.528C200.956 374.742 197.061 370.847 192.275 370.847H116.594C117.969 371.814 120.666 374.177 121.193 378.088C121.715 381.964 119.922 385.856 116.585 388.207V388.209Z" fill="#231F20"/>
<path d="M210.123 432.445H115.829L116.7 431.912C121.09 429.216 123.509 424.342 122.861 419.49C122.113 413.892 117.603 410.987 116.706 410.459L115.789 409.923H210.126C216.278 409.923 221.285 414.973 221.285 421.185C221.285 427.397 216.278 432.448 210.126 432.448L210.123 432.445ZM117.803 431.868H210.12C215.958 431.868 220.708 427.075 220.708 421.182C220.708 415.29 215.958 410.497 210.12 410.497H117.814C119.491 411.687 122.781 414.596 123.424 419.41C124.061 424.18 121.873 428.971 117.803 431.865V431.868Z" fill="#231F20"/>
<path d="M191.255 386.249H118.527L118.818 385.679H191.255C194.64 385.679 197.46 383.007 197.542 379.726C197.545 379.594 197.545 379.463 197.542 379.332C197.534 379.076 197.511 378.813 197.477 378.557C197.049 375.566 194.38 373.31 191.267 373.31H118.9L118.45 372.74H191.267C194.663 372.74 197.574 375.206 198.041 378.477C198.081 378.753 198.104 379.036 198.113 379.315C198.118 379.458 198.118 379.597 198.113 379.74C198.021 383.33 194.945 386.249 191.255 386.249Z" fill="#231F20"/>
<path d="M195.903 374.796L119.924 374.71L120.261 375.366H195.903V374.796Z" fill="#231F20"/>
<path d="M197.958 379.726H121.169V380.296H197.958V379.726Z" fill="#231F20"/>
<path d="M196.915 381.984H120.722L120.493 382.551L196.915 382.554V381.984Z" fill="#231F20"/>
<path d="M195.824 383.695H120.066L119.781 384.264H195.824V383.695Z" fill="#231F20"/>
<path d="M197.548 377.259H120.93V377.83H197.548V377.259Z" fill="#231F20"/>
<path d="M322.862 232.1L322.447 231.376C322.534 231.325 331.348 226.38 341.007 231.298L340.627 232.043C331.368 227.328 322.947 232.055 322.864 232.101L322.862 232.1Z" fill="#231F20"/>
<path d="M351.281 235.921L351.217 235.088C362.02 234.249 368.265 242.196 368.328 242.277L367.667 242.786C367.609 242.709 361.625 235.118 351.285 235.92L351.281 235.921Z" fill="#231F20"/>
<path d="M332.761 249.734C334.002 249.978 335.438 247.987 335.97 245.286C336.501 242.585 335.926 240.198 334.685 239.954C333.444 239.71 332.008 241.701 331.477 244.402C330.945 247.103 331.52 249.49 332.761 249.734Z" fill="#231F20"/>
<path d="M353.652 254.601C354.892 254.845 356.329 252.853 356.86 250.153C357.391 247.452 356.816 245.065 355.576 244.821C354.335 244.577 352.898 246.568 352.367 249.269C351.836 251.97 352.411 254.357 353.652 254.601Z" fill="#231F20"/>
<path d="M340.132 263.982L340.297 263.162C342.131 263.528 344.077 263.031 345.922 261.728C348.426 259.959 347.314 254.822 345.943 250.826C344.415 246.378 342.218 242.324 342.194 242.284L342.928 241.883C343.297 242.562 351.905 258.522 346.407 262.409C344.372 263.849 342.201 264.393 340.136 263.981L340.132 263.982Z" fill="#231F20"/>
<path d="M329.058 249.523L328.718 248.761C328.792 248.728 330.577 247.956 333.181 248.887L332.902 249.673C330.61 248.855 329.076 249.518 329.061 249.525L329.058 249.523Z" fill="#231F20"/>
<path d="M350.189 254.405L349.849 253.643C349.923 253.61 351.707 252.838 354.312 253.769L354.033 254.555C351.741 253.737 350.207 254.4 350.191 254.407L350.189 254.405Z" fill="#231F20"/>
<path d="M339.514 278.319C326.492 277.375 319.39 260.471 319.39 260.471C319.39 260.471 336.522 270.26 344.536 268.706L339.778 272.915L339.514 278.319Z" fill="white"/>
<path d="M330.79 275.551C323.178 270.371 319.059 260.759 319.004 260.632L318.528 259.498L319.596 260.107C319.764 260.205 336.685 269.803 344.453 268.295L345.955 268.004L340.187 273.11L339.911 278.765L339.484 278.733C336.217 278.496 333.312 277.267 330.79 275.551ZM320.312 261.453C322.16 265.188 328.713 276.814 339.118 277.863L339.369 272.716L343.26 269.273C339.86 269.449 335.005 268.201 328.793 265.552C325.141 263.995 321.935 262.33 320.312 261.453Z" fill="#231F20"/>
<path d="M339.567 268.477L337.007 271.732L336.216 277.637L339.515 278.319L339.778 272.915L343.799 268.857L339.567 268.477Z" fill="#231F20"/>
<path d="M323.875 266.22C321.714 264.749 320.076 263.148 319.626 261.518L320.432 261.297C321.049 263.552 324.592 266.201 330.668 268.96C335.326 271.075 339.856 272.502 339.901 272.516L339.652 273.312C339.107 273.141 329.636 270.141 323.875 266.22Z" fill="#231F20"/>
<g clip-path="url(#clip0_669_18799)">
<path d="M285.601 229.774C285.601 229.774 311.083 179.851 340.727 192.853C340.727 192.853 343.846 189.212 337.608 187.133C331.369 185.055 304.987 177.331 279.693 222.794L285.604 229.774H285.601Z" fill="#AB78B4"/>
<path d="M285.661 230.287L279.346 222.828L279.443 222.657C290.203 203.314 302.401 191.273 315.705 186.863C323.024 184.436 330.423 184.436 337.696 186.863C339.977 187.624 341.32 188.684 341.691 190.022C342.136 191.627 340.992 192.984 340.944 193.041L340.807 193.201L340.613 193.115C333.93 190.184 326.901 190.278 319.728 193.398C313.963 195.904 308.089 200.355 302.267 206.624C292.33 217.325 285.921 229.779 285.858 229.905L285.664 230.287H285.661ZM280.036 222.76L285.544 229.266C286.702 227.093 292.823 215.954 301.836 206.242C307.713 199.91 313.652 195.413 319.491 192.873C326.745 189.719 333.856 189.591 340.63 192.499C340.884 192.129 341.423 191.188 341.138 190.164C340.818 189.024 339.601 188.094 337.514 187.399C330.36 185.015 323.081 185.015 315.881 187.399C302.76 191.747 290.699 203.642 280.036 222.754V222.76Z" fill="#221F20"/>
<path d="M281.684 256.809C292.455 256.809 301.186 248.077 301.186 237.306C301.186 226.535 292.455 217.804 281.684 217.804C270.913 217.804 262.182 226.535 262.182 237.306C262.182 248.077 270.913 256.809 281.684 256.809Z" fill="#221F20"/>
<path d="M281.684 257.094C270.772 257.094 261.896 248.218 261.896 237.307C261.896 226.395 270.772 217.519 281.684 217.519C292.596 217.519 301.472 226.395 301.472 237.307C301.472 248.218 292.596 257.094 281.684 257.094ZM281.684 218.092C271.089 218.092 262.467 226.711 262.467 237.309C262.467 247.907 271.086 256.527 281.684 256.527C292.282 256.527 300.901 247.907 300.901 237.309C300.901 226.711 292.282 218.092 281.684 218.092Z" fill="#221F20"/>
<path d="M279.101 256.036C289.872 256.036 298.603 247.305 298.603 236.534C298.603 225.763 289.872 217.031 279.101 217.031C268.33 217.031 259.599 225.763 259.599 236.534C259.599 247.305 268.33 256.036 279.101 256.036Z" fill="#AB78B4"/>
<path d="M279.101 256.318C268.189 256.318 259.313 247.443 259.313 236.531C259.313 225.619 268.189 216.743 279.101 216.743C290.013 216.743 298.889 225.619 298.889 236.531C298.889 247.443 290.013 256.318 279.101 256.318ZM279.101 217.317C268.506 217.317 259.884 225.936 259.884 236.534C259.884 247.132 268.503 255.751 279.101 255.751C289.699 255.751 298.318 247.132 298.318 236.534C298.318 225.936 289.699 217.317 279.101 217.317Z" fill="#221F20"/>
<path d="M278.584 249.065C285.847 249.065 291.734 243.177 291.734 235.915C291.734 228.653 285.847 222.765 278.584 222.765C271.322 222.765 265.435 228.653 265.435 235.915C265.435 243.177 271.322 249.065 278.584 249.065Z" fill="#BC84B2"/>
<path d="M278.584 249.35C271.177 249.35 265.149 243.322 265.149 235.915C265.149 228.507 271.177 222.48 278.584 222.48C285.992 222.48 292.019 228.507 292.019 235.915C292.019 243.322 285.992 249.35 278.584 249.35ZM278.584 223.047C271.491 223.047 265.72 228.818 265.72 235.912C265.72 243.006 271.491 248.777 278.584 248.777C285.678 248.777 291.449 243.006 291.449 235.912C291.449 228.818 285.678 223.047 278.584 223.047Z" fill="#221F20"/>
<path d="M250.939 204.555L250.536 204.958L263.05 217.473L263.453 217.069L250.939 204.555Z" fill="#221F20"/>
<path d="M239.09 221.819L238.879 222.348L255.318 228.903L255.529 228.374L239.09 221.819Z" fill="#221F20"/>
<path d="M254.574 240.07L237.145 243.137L237.243 243.699L254.673 240.632L254.574 240.07Z" fill="#221F20"/>
</g>
<defs>
<clipPath id="clip0_669_18799">
<rect width="104.643" height="72.0506" fill="white" transform="translate(237.148 185.043)"/>
</clipPath>
</defs>
</svg>
