<svg width="600" height="600" viewBox="0 0 600 600" fill="none" xmlns="http://www.w3.org/2000/svg">
<path d="M371.613 227.397C375.24 222.585 374.273 215.75 369.462 212.135L361.061 205.809C356.249 202.181 349.414 203.149 345.799 207.96L334.395 223.107L360.208 242.556L371.613 227.409V227.397Z" fill="#C1272D"/>
<path d="M360.247 242.811L360.094 242.696L334.128 223.133L334.242 222.98L345.647 207.833C349.326 202.945 356.288 201.965 361.176 205.644L369.577 211.982C371.944 213.764 373.472 216.361 373.892 219.289C374.299 222.216 373.548 225.144 371.766 227.511L360.247 242.811ZM334.65 223.056L360.158 242.276L371.448 227.282C373.166 225.004 373.892 222.178 373.497 219.352C373.103 216.526 371.626 214.019 369.335 212.288L360.934 205.949C356.212 202.398 349.491 203.34 345.94 208.062L334.65 223.056Z" fill="black"/>
<path d="M252.97 384.925L345.214 262.451L319.388 243.002L226.89 365.807L252.525 385.116L252.97 384.925Z" fill="#FBB03B"/>
<path d="M252.487 385.332L252.398 385.269L226.623 365.858L226.738 365.705L319.35 242.747L319.503 242.862L345.469 262.426L345.355 262.578L253.073 385.09L252.475 385.345L252.487 385.332ZM227.158 365.768L252.538 384.887L252.831 384.759L344.935 262.489L319.427 243.269L227.158 365.768Z" fill="black"/>
<path d="M226.942 395.553L252.45 385.001L226.878 365.667L225.656 394.65C225.631 395.337 226.318 395.808 226.942 395.553Z" fill="#FFCCD0"/>
<path d="M226.586 395.808C226.356 395.808 226.14 395.744 225.949 395.604C225.631 395.388 225.453 395.019 225.465 394.637L226.7 365.298L226.993 365.514L252.832 385.039L252.526 385.167L227.018 395.719C226.878 395.77 226.738 395.808 226.586 395.808ZM227.044 366.036L225.847 394.65C225.847 394.904 225.949 395.146 226.166 395.286C226.382 395.426 226.637 395.464 226.878 395.362L252.081 384.938L227.057 366.023L227.044 366.036Z" fill="black"/>
<path d="M226.432 395.591L234.68 392.18L226.012 385.625L225.617 395.019C225.605 395.451 226.038 395.744 226.432 395.579V395.591Z" fill="#4D4D4D"/>
<path d="M226.216 395.833C226.063 395.833 225.91 395.782 225.77 395.693C225.554 395.541 225.427 395.286 225.439 395.019L225.847 385.256L235.075 392.231L226.509 395.77C226.407 395.808 226.318 395.833 226.216 395.833ZM226.203 386.007L225.821 395.044C225.821 395.184 225.872 395.311 225.987 395.388C226.101 395.464 226.241 395.49 226.369 395.426L234.311 392.142L226.203 386.007Z" fill="black"/>
<path d="M360.22 242.566L345.225 262.473L345.306 262.534L360.301 242.628L360.22 242.566Z" fill="black"/>
<path d="M334.386 223.124L319.391 243.03L345.204 262.475L360.199 242.568L334.386 223.124Z" fill="#4D4D4D"/>
<path d="M345.252 262.718L345.099 262.604L319.133 243.04L319.247 242.887L334.356 222.827L334.509 222.942L360.475 242.505L360.361 242.658L345.252 262.718ZM319.655 242.976L345.163 262.196L359.928 242.594L334.42 223.374L319.655 242.976Z" fill="black"/>
</svg>
