<svg width="600" height="600" viewBox="0 0 600 600" fill="none" xmlns="http://www.w3.org/2000/svg">
<path d="M412.991 298.793C411.873 300.653 410.263 301.145 408.108 301.1C401.015 300.957 393.923 301.056 386.83 301.047C384.514 301.047 382.949 299.678 382.931 297.702C382.913 295.734 384.478 294.321 386.848 294.312C394.093 294.285 401.337 294.339 408.582 294.276C410.702 294.258 412.052 295.233 413 296.986V298.784L412.991 298.793Z" fill="#FBB03B" stroke="black" stroke-width="0.268317" stroke-miterlimit="10"/>
<path d="M363.209 284.107C361.223 264.6 352.11 249.029 336.279 237.5C325.859 229.916 314.089 226.043 301.174 225.721C296.228 225.363 291.336 225.766 286.497 226.812C271.462 230.041 259.191 237.804 249.577 249.709C237.458 264.708 233.129 281.952 235.892 300.895C238.03 315.536 244.783 327.95 255.274 338.397C261.168 344.264 266.159 350.712 267.044 359.424C269.62 359.388 274.727 359.451 274.727 359.451C294.09 359.451 313.302 359.951 332.666 359.951C333.005 357.134 333.524 353.861 334.624 351.204C336.896 345.695 340.751 341.348 344.758 337.1C358.818 322.199 365.293 304.58 363.209 284.107Z" fill="#F9D447" stroke="#221F20" stroke-width="0.268317" stroke-miterlimit="10"/>
<path d="M331.117 284.858C326.055 291.2 321.091 297.621 316.127 304.025C311.289 310.259 306.539 316.556 301.665 322.754C300.019 324.847 298.043 326.609 295.377 326.197C292.363 326.242 290.467 325.106 288.732 323.031C285.441 319.087 281.81 315.42 278.366 311.601C274.771 307.621 271.193 303.623 267.669 299.58C265.093 296.62 265.952 291.772 268.626 289.447C271.739 286.746 276.157 286.844 279.126 289.983C283.992 295.135 288.732 300.394 293.392 305.724C294.403 306.878 294.841 306.923 295.708 305.787C303.159 296.119 310.636 286.477 318.095 276.818C320.456 273.759 323.327 271.872 327.343 272.865C332.307 274.09 334.337 280.834 331.126 284.849L331.117 284.858Z" fill="white" stroke="black" stroke-width="0.268317" stroke-miterlimit="10"/>
<path d="M303.007 199.596C303.007 203.03 303.025 206.456 303.007 209.89C302.989 212.243 301.353 214.309 299.51 214.362C297.605 214.425 295.87 212.296 295.861 209.81C295.843 202.798 295.843 195.786 295.861 188.774C295.861 186.967 296.335 185.322 298.169 184.552C300.583 183.542 302.927 185.384 302.989 188.407C303.07 192.137 303.007 195.866 303.007 199.596Z" fill="#FBB03B" stroke="black" stroke-width="0.268317" stroke-miterlimit="10"/>
<path d="M218.192 375.639C218.13 374.423 218.693 373.492 219.516 372.67C224.703 367.491 229.873 362.295 235.078 357.134C236.715 355.506 238.987 355.363 240.284 356.669C241.929 358.324 241.894 360.13 240.06 361.973C234.792 367.276 229.497 372.562 224.194 377.839C223.201 378.832 222.119 379.485 220.589 378.796C219.176 378.152 218.192 377.302 218.192 375.639Z" fill="#FBB03B" stroke="black" stroke-width="0.268317" stroke-miterlimit="10"/>
<path d="M360.983 355.801C362.199 355.783 363.093 356.401 363.907 357.223C369.032 362.357 374.175 367.473 379.282 372.616C380.928 374.279 381.142 376.48 379.881 377.821C378.334 379.476 376.25 379.404 374.39 377.562C369.139 372.339 363.916 367.106 358.693 361.865C357.629 360.801 356.976 359.674 357.736 358.073C358.416 356.651 359.337 355.766 360.983 355.801Z" fill="#FBB03B" stroke="black" stroke-width="0.268317" stroke-miterlimit="10"/>
<path d="M238.04 239.522C236.904 239.718 236.063 239.262 235.267 238.457C230.062 233.207 224.803 227.993 219.598 222.743C217.818 220.945 217.746 219.255 219.231 217.627C220.573 216.169 222.755 216.124 224.409 217.752C229.677 222.94 234.919 228.163 240.079 233.467C241.081 234.495 242.029 235.837 241.17 237.5C240.517 238.77 239.659 239.745 238.031 239.522H238.04Z" fill="#FBB03B" stroke="black" stroke-width="0.268317" stroke-miterlimit="10"/>
<path d="M361.054 239.548C358.192 239.539 356.698 237.205 357.888 234.826C358.183 234.236 358.55 233.645 359.015 233.18C364.068 228.091 369.148 223.029 374.219 217.949C374.872 217.296 375.597 216.804 376.518 216.661C378.065 216.419 379.308 216.867 380.14 218.271C380.972 219.675 380.874 221.07 379.773 222.188C374.264 227.778 368.692 233.297 363.165 238.86C362.503 239.522 361.725 239.566 361.054 239.539V239.548Z" fill="#FBB03B" stroke="black" stroke-width="0.268317" stroke-miterlimit="10"/>
<path d="M200.958 301.047C197.148 301.047 193.338 301.065 189.528 301.047C187.533 301.038 185.905 299.598 185.905 297.898C185.905 296.047 187.506 294.339 189.483 294.33C197.103 294.285 204.723 294.285 212.343 294.33C214.508 294.339 216.01 295.904 215.939 297.8C215.867 299.687 214.329 301.038 212.174 301.047C208.435 301.065 204.705 301.047 200.967 301.047H200.958Z" fill="#FBB03B" stroke="black" stroke-width="0.268317" stroke-miterlimit="10"/>
<path d="M332.62 359.925C332.048 359.925 293.294 359.442 274.503 359.433C274.503 359.433 269.548 359.37 267.044 359.406C267.088 366.865 266.927 374.333 267.24 381.783C267.437 386.434 269.834 390.209 273.877 392.632C274.512 393.017 274.95 393.41 275.218 393.876V398.276C275.218 399.412 275.344 400.512 275.558 401.585C276.882 409.125 283.438 414.858 291.362 414.858H308.382C317.255 414.858 324.437 407.667 324.437 398.804V394.403C324.705 393.938 325.143 393.545 325.778 393.16C329.83 390.727 332.218 386.962 332.415 382.311C332.728 374.861 332.576 367.393 332.612 359.933L332.62 359.925Z" fill="#53A6DB" stroke="#221F20" stroke-width="0.268317" stroke-miterlimit="10"/>
<path d="M275.219 393.876H324.437" stroke="black" stroke-width="0.268317" stroke-miterlimit="10"/>
<path d="M317.014 370.979H332.352" stroke="black" stroke-width="0.626074" stroke-miterlimit="10"/>
<path d="M267.349 370.979H302.4" stroke="black" stroke-width="0.626074" stroke-miterlimit="10"/>
<path d="M267.645 378.805H282.983" stroke="black" stroke-width="0.626074" stroke-miterlimit="10"/>
</svg>
