<svg width="600" height="600" viewBox="0 0 600 600" fill="none" xmlns="http://www.w3.org/2000/svg">
<path d="M320.757 275.307H199.686C193.208 275.307 187.953 280.561 187.953 287.039V359.265C187.953 365.743 193.208 370.997 199.686 370.997V385.29C199.686 389.663 204.513 392.309 208.203 389.966L235.149 372.866C237.074 371.642 239.303 370.997 241.579 370.997H320.766C327.244 370.997 332.499 365.743 332.499 359.265V287.039C332.499 280.561 327.244 275.307 320.766 275.307H320.757Z" fill="#AED86C"/>
<path d="M205.235 390.991C204.296 390.991 203.357 390.753 202.494 390.279C200.644 389.264 199.544 387.405 199.544 385.3V371.149C193.057 371.073 187.812 365.771 187.812 359.274V287.049C187.812 280.495 193.142 275.174 199.686 275.174H320.757C327.311 275.174 332.632 280.504 332.632 287.049V359.274C332.632 365.828 327.302 371.149 320.757 371.149H241.57C239.313 371.149 237.122 371.784 235.216 372.998L208.27 390.099C207.331 390.697 206.278 391 205.225 391L205.235 390.991ZM199.686 275.449C193.294 275.449 188.096 280.647 188.096 287.039V359.264C188.096 365.657 193.294 370.855 199.686 370.855H199.829V385.29C199.829 387.292 200.872 389.056 202.626 390.023C204.381 390.991 206.43 390.924 208.118 389.852L235.064 372.752C237.008 371.519 239.266 370.864 241.57 370.864H320.757C327.15 370.864 332.348 365.667 332.348 359.274V287.049C332.348 280.656 327.15 275.458 320.757 275.458H199.686V275.449Z" fill="black"/>
<path d="M279.451 207.112H400.522C407 207.112 412.255 212.367 412.255 218.845V291.07C412.255 297.548 407 302.803 400.522 302.803V317.096C400.522 321.468 395.694 324.115 392.005 321.772L365.059 304.671C363.134 303.448 360.905 302.803 358.629 302.803H279.441C272.963 302.803 267.709 297.548 267.709 291.07V218.845C267.709 212.367 272.963 207.112 279.441 207.112H279.451Z" fill="#F28564"/>
<path d="M394.973 322.796C393.92 322.796 392.877 322.493 391.929 321.895L364.983 304.794C363.076 303.59 360.886 302.945 358.628 302.945H279.441C272.887 302.945 267.566 297.615 267.566 291.07V218.845C267.566 212.291 272.897 206.97 279.441 206.97H400.512C407.066 206.97 412.387 212.3 412.387 218.845V291.07C412.387 297.577 407.133 302.869 400.655 302.945V317.096C400.655 319.202 399.554 321.061 397.705 322.075C396.832 322.55 395.893 322.787 394.964 322.787L394.973 322.796ZM279.451 207.255C273.058 207.255 267.86 212.452 267.86 218.845V291.07C267.86 297.463 273.058 302.66 279.451 302.66H358.638C360.942 302.66 363.19 303.315 365.144 304.548L392.09 321.649C393.778 322.72 395.836 322.787 397.582 321.819C399.336 320.852 400.379 319.088 400.379 317.086V302.651H400.522C406.914 302.651 412.112 297.453 412.112 291.061V218.835C412.112 212.443 406.914 207.245 400.522 207.245H279.451V207.255Z" fill="black"/>
<path d="M239.171 345.578C238.886 345.294 238.744 344.962 238.744 344.582C238.744 344.203 238.773 343.947 238.82 343.805L256.404 297.918C256.784 296.875 257.543 296.363 258.671 296.363H263.49C264.628 296.363 265.377 296.884 265.756 297.918L283.274 343.805L283.417 344.582C283.417 344.962 283.274 345.294 282.99 345.578C282.705 345.863 282.373 346.005 281.994 346.005H278.38C277.859 346.005 277.46 345.872 277.176 345.616C276.891 345.36 276.702 345.085 276.607 344.801L272.709 334.728H249.443L245.545 344.801C245.45 345.085 245.251 345.36 244.938 345.616C244.625 345.872 244.236 346.005 243.771 346.005H240.157C239.778 346.005 239.446 345.863 239.161 345.578H239.171ZM270.66 328.629L261.09 303.448L251.52 328.629H270.669H270.66Z" fill="#DEF3FF"/>
<path d="M282.013 346.147H278.4C277.84 346.147 277.404 346.005 277.1 345.721C276.797 345.445 276.597 345.151 276.493 344.848L272.633 334.88H249.566L245.697 344.857C245.592 345.161 245.384 345.455 245.052 345.73C244.72 346.015 244.293 346.157 243.79 346.157H240.177C239.759 346.157 239.389 345.996 239.086 345.692C238.773 345.379 238.621 345.009 238.621 344.601C238.621 344.193 238.65 343.937 238.697 343.776L256.291 297.88C256.689 296.789 257.495 296.23 258.691 296.23H263.509C264.704 296.23 265.51 296.789 265.908 297.88L283.426 343.767L283.578 344.573C283.578 345.009 283.426 345.379 283.113 345.692C282.8 346.005 282.431 346.157 282.023 346.157L282.013 346.147ZM249.358 334.586H272.813L272.851 334.68L276.749 344.753C276.835 345.019 277.015 345.275 277.28 345.512C277.536 345.749 277.906 345.863 278.39 345.863H282.004C282.345 345.863 282.639 345.739 282.895 345.483C283.151 345.227 283.275 344.933 283.275 344.592L283.132 343.833L265.624 297.975C265.263 296.989 264.562 296.505 263.49 296.505H258.672C257.59 296.505 256.898 296.979 256.538 297.965L238.944 343.852C238.915 343.937 238.877 344.127 238.877 344.582C238.877 344.924 239 345.218 239.266 345.474C239.522 345.73 239.816 345.853 240.158 345.853H243.771C244.217 345.853 244.568 345.739 244.852 345.493C245.137 345.256 245.327 345 245.412 344.744L249.348 334.576L249.358 334.586ZM270.869 328.772H251.312L251.387 328.582L261.09 303.059L270.869 328.781V328.772ZM251.719 328.487H270.451L261.081 303.855L251.71 328.487H251.719Z" fill="black"/>
<path d="M365.049 275.582C364.092 275.553 363.143 275.468 362.195 275.354C360.374 275.088 358.581 274.662 356.845 274.045C356.437 273.903 356.039 273.742 355.631 273.58C353.99 272.869 352.425 272.006 350.955 270.991C350.604 270.745 350.253 270.488 349.912 270.232C348.214 268.895 346.659 267.387 345.265 265.746C344.923 265.348 344.601 264.94 344.278 264.532C343.311 263.261 342.41 261.933 341.585 260.558C341.547 260.492 341.509 260.416 341.461 260.349C341.528 260.226 341.604 260.093 341.66 259.97C342.666 258.035 343.538 256.043 344.335 254.023C344.99 252.344 345.578 250.647 346.099 248.92C346.526 247.498 346.915 246.066 347.247 244.614C347.484 243.59 347.702 242.566 347.882 241.522C347.901 241.409 347.92 241.304 347.939 241.19H363.238C363.883 241.19 364.537 241.19 365.182 241.19C365.211 241.19 365.239 241.19 365.268 241.19C365.799 241.19 366.349 240.963 366.719 240.583C367.079 240.223 367.345 239.644 367.326 239.132C367.278 238.013 366.425 237.074 365.268 237.074H341.679V224.564C341.679 224.374 341.679 224.185 341.679 223.995V223.966C341.689 223.682 341.632 223.416 341.499 223.17C341.414 222.914 341.272 222.695 341.072 222.506C340.883 222.307 340.665 222.164 340.408 222.079C340.162 221.946 339.896 221.889 339.612 221.899L339.062 221.975C338.711 222.069 338.407 222.25 338.151 222.506L337.829 222.923C337.639 223.246 337.544 223.587 337.544 223.957V237.055H317.285C316.64 237.055 315.986 237.055 315.341 237.055C315.312 237.055 315.284 237.055 315.255 237.055C314.724 237.055 314.174 237.283 313.804 237.662C313.444 238.023 313.178 238.601 313.197 239.113C313.244 240.233 314.098 241.172 315.255 241.172H330.25C330.393 242.016 330.563 242.869 330.744 243.704C331.038 245.06 331.379 246.407 331.758 247.744C332.233 249.414 332.764 251.064 333.361 252.695C334.092 254.697 334.926 256.669 335.846 258.595C336.131 259.183 336.425 259.761 336.728 260.33C336.321 261.023 335.894 261.706 335.439 262.379C334.964 263.09 334.462 263.783 333.949 264.466C332.622 266.154 331.161 267.747 329.549 269.161C329.131 269.531 328.695 269.881 328.259 270.223C326.855 271.285 325.366 272.224 323.782 273.002C323.374 273.201 322.957 273.391 322.539 273.571C320.88 274.254 319.144 274.766 317.38 275.107C316.915 275.193 316.45 275.269 315.986 275.335C315.047 275.449 314.098 275.534 313.14 275.563C312.6 275.582 312.068 275.781 311.689 276.17C311.329 276.53 311.063 277.109 311.082 277.621C311.101 278.152 311.281 278.702 311.689 279.072C312.087 279.432 312.59 279.689 313.14 279.679C315.891 279.594 318.66 279.186 321.287 278.38C323.687 277.649 326.011 276.606 328.145 275.278C330.184 274.017 332.09 272.499 333.798 270.811C335.476 269.161 336.975 267.321 338.331 265.405C338.587 265.044 338.834 264.674 339.071 264.314C340.314 266.192 341.689 267.994 343.225 269.654C344.847 271.418 346.659 272.992 348.622 274.368C350.652 275.8 352.871 276.929 355.195 277.811C357.708 278.769 360.355 279.3 363.029 279.556C363.693 279.622 364.357 279.66 365.021 279.679C365.543 279.698 366.112 279.442 366.472 279.072C366.833 278.712 367.098 278.133 367.079 277.621C367.06 277.09 366.88 276.54 366.472 276.17C366.064 275.79 365.581 275.582 365.021 275.563L365.049 275.582ZM335.533 245.914C335.239 244.814 334.964 243.713 334.727 242.594C334.623 242.12 334.537 241.646 334.443 241.172H343.766C343.7 241.522 343.633 241.883 343.557 242.234C343.33 243.315 343.074 244.377 342.789 245.449C342.438 246.767 342.059 248.076 341.632 249.376C341.148 250.855 340.608 252.325 340.02 253.777C339.991 253.833 339.972 253.9 339.944 253.957C339.678 254.592 339.394 255.218 339.1 255.844C338.825 255.266 338.559 254.678 338.312 254.08C337.743 252.705 337.212 251.32 336.738 249.907C336.292 248.588 335.894 247.251 335.524 245.904L335.533 245.914Z" fill="#4D4D4D"/>
<path d="M313.113 279.84C312.601 279.84 312.07 279.613 311.615 279.205C311.226 278.844 310.998 278.294 310.97 277.649C310.951 277.128 311.207 276.492 311.615 276.084C312.013 275.686 312.563 275.458 313.161 275.439C314.071 275.411 315.029 275.335 315.987 275.212C316.423 275.145 316.898 275.079 317.372 274.984C319.117 274.643 320.843 274.131 322.503 273.448C322.873 273.286 323.3 273.097 323.736 272.888C325.254 272.139 326.752 271.209 328.184 270.119C328.687 269.72 329.095 269.388 329.465 269.066C331.001 267.719 332.471 266.145 333.847 264.39C334.378 263.688 334.88 262.986 335.336 262.313C335.753 261.687 336.17 261.023 336.578 260.34C336.256 259.723 335.971 259.173 335.725 258.671C334.824 256.802 333.979 254.81 333.23 252.762C332.642 251.168 332.101 249.499 331.627 247.801C331.248 246.445 330.906 245.079 330.612 243.751C330.432 242.945 330.28 242.129 330.138 241.333H315.266C314.09 241.333 313.123 240.365 313.066 239.142C313.047 238.62 313.303 237.985 313.711 237.577C314.109 237.179 314.707 236.932 315.266 236.932H315.342C315.778 236.932 316.215 236.932 316.642 236.932H337.403V223.976C337.403 223.578 337.508 223.208 337.707 222.866L338.039 222.43C338.323 222.145 338.655 221.956 339.025 221.851L339.594 221.775C339.917 221.766 340.211 221.832 340.476 221.965C340.732 222.041 340.97 222.202 341.178 222.42C341.387 222.62 341.548 222.857 341.634 223.132C341.766 223.378 341.833 223.663 341.814 223.976C341.814 224.118 341.814 224.251 341.814 224.374V236.932H365.26C366.436 236.932 367.403 237.899 367.46 239.123C367.479 239.645 367.223 240.28 366.815 240.688C366.407 241.096 365.819 241.333 365.26 241.333H365.174C364.738 241.333 364.311 241.333 363.875 241.333H348.055V241.352C348.045 241.418 348.036 241.485 348.026 241.551C347.846 242.547 347.637 243.59 347.391 244.643C347.059 246.085 346.67 247.536 346.243 248.958C345.721 250.694 345.124 252.42 344.479 254.071C343.616 256.271 342.743 258.225 341.795 260.036C341.757 260.112 341.719 260.188 341.671 260.264L341.624 260.349L341.643 260.378C341.643 260.378 341.681 260.454 341.709 260.492C342.535 261.867 343.436 263.195 344.394 264.456C344.659 264.798 345.01 265.234 345.37 265.661C346.793 267.33 348.349 268.829 349.999 270.128C350.321 270.375 350.672 270.64 351.033 270.887C352.484 271.892 354.049 272.755 355.68 273.467C356.164 273.666 356.534 273.808 356.885 273.931C358.554 274.529 360.347 274.965 362.206 275.231C363.173 275.354 364.131 275.43 365.051 275.458C365.639 275.477 366.161 275.696 366.597 276.103C366.986 276.464 367.214 277.014 367.242 277.659C367.261 278.181 367.005 278.816 366.597 279.224C366.189 279.632 365.592 279.869 365.032 279.869C364.359 279.85 363.695 279.802 363.031 279.745C360.166 279.47 357.511 278.882 355.159 277.991C352.73 277.071 350.511 275.904 348.557 274.529C346.566 273.125 344.744 271.532 343.142 269.796C341.728 268.26 340.363 266.514 339.101 264.618C338.892 264.93 338.684 265.234 338.475 265.538C336.996 267.634 335.506 269.407 333.923 270.963C332.168 272.698 330.252 274.206 328.241 275.449C326.117 276.767 323.793 277.82 321.346 278.56C318.814 279.338 316.053 279.774 313.161 279.869H313.104L313.113 279.84ZM315.304 237.207C314.792 237.207 314.27 237.425 313.919 237.767C313.569 238.117 313.341 238.668 313.36 239.113C313.407 240.195 314.251 241.039 315.276 241.039H330.394L330.413 241.153C330.555 241.987 330.726 242.841 330.906 243.685C331.2 245.013 331.532 246.369 331.921 247.716C332.395 249.404 332.936 251.064 333.524 252.657C334.273 254.697 335.108 256.679 336.009 258.538C336.265 259.06 336.55 259.629 336.891 260.274L336.929 260.34L336.891 260.406C336.464 261.127 336.028 261.82 335.601 262.464C335.146 263.147 334.643 263.859 334.103 264.561C332.718 266.334 331.229 267.928 329.683 269.284C329.313 269.616 328.896 269.948 328.383 270.356C326.932 271.456 325.424 272.395 323.888 273.154C323.451 273.372 323.015 273.561 322.636 273.723C320.948 274.415 319.202 274.927 317.448 275.269C316.974 275.364 316.49 275.43 316.044 275.496C315.067 275.62 314.109 275.696 313.189 275.724C312.658 275.743 312.174 275.942 311.833 276.284C311.482 276.635 311.254 277.185 311.273 277.63C311.302 278.199 311.501 278.683 311.833 278.987C312.25 279.366 312.715 279.565 313.189 279.546C316.063 279.451 318.795 279.015 321.298 278.247C323.727 277.507 326.022 276.464 328.127 275.164C330.119 273.931 332.016 272.433 333.761 270.716C335.326 269.17 336.806 267.406 338.276 265.329C338.532 264.968 338.779 264.608 339.016 264.238L339.13 264.058L339.243 264.238C340.533 266.192 341.928 267.985 343.379 269.559C344.972 271.285 346.774 272.869 348.747 274.254C350.682 275.62 352.882 276.777 355.291 277.687C357.625 278.569 360.252 279.157 363.088 279.423C363.742 279.489 364.406 279.527 365.07 279.546C365.079 279.546 365.098 279.546 365.108 279.546C365.554 279.546 366.075 279.328 366.417 278.987C366.768 278.636 366.995 278.086 366.976 277.64C366.948 277.071 366.758 276.587 366.417 276.284C366.018 275.923 365.573 275.733 365.051 275.714C364.122 275.686 363.154 275.61 362.177 275.487C360.299 275.212 358.488 274.776 356.799 274.178C356.448 274.055 356.069 273.903 355.585 273.704C353.926 272.983 352.351 272.11 350.881 271.095C350.521 270.849 350.16 270.583 349.838 270.327C348.168 269.018 346.603 267.501 345.162 265.822C344.792 265.386 344.441 264.94 344.175 264.608C343.208 263.337 342.297 261.99 341.472 260.615C341.444 260.577 341.425 260.53 341.406 260.492L341.311 260.33L341.434 260.103C341.472 260.027 341.51 259.951 341.548 259.885C342.487 258.073 343.36 256.138 344.213 253.947C344.858 252.297 345.446 250.59 345.968 248.854C346.395 247.431 346.784 245.99 347.116 244.558C347.362 243.505 347.571 242.471 347.751 241.475C347.761 241.409 347.77 241.352 347.78 241.285L347.817 241.029H363.884C364.321 241.029 364.748 241.029 365.184 241.029H365.269C365.762 241.029 366.275 240.811 366.625 240.47C366.976 240.119 367.204 239.569 367.185 239.123C367.138 238.042 366.294 237.197 365.269 237.197H341.539V224.355C341.539 224.232 341.539 224.099 341.539 223.976C341.548 223.682 341.501 223.445 341.377 223.227C341.292 222.971 341.159 222.771 340.979 222.601C340.799 222.411 340.6 222.278 340.372 222.202C340.125 222.079 339.888 222.022 339.632 222.032L339.101 222.107C338.798 222.193 338.513 222.364 338.276 222.601L337.963 222.999C337.802 223.284 337.716 223.606 337.707 223.947V237.188H316.661C316.224 237.188 315.797 237.188 315.371 237.188H315.314L315.304 237.207ZM339.111 256.186L338.978 255.911C338.684 255.275 338.428 254.697 338.191 254.146C337.612 252.752 337.081 251.339 336.616 249.964C336.17 248.655 335.763 247.308 335.402 245.952C335.108 244.842 334.833 243.732 334.596 242.632C334.52 242.281 334.454 241.93 334.387 241.579L334.283 241.039H343.948L343.843 241.589C343.805 241.816 343.758 242.054 343.711 242.281C343.483 243.344 343.227 244.425 342.942 245.497C342.591 246.815 342.203 248.143 341.785 249.433C341.292 250.941 340.751 252.42 340.163 253.843L340.088 254.023C339.822 254.64 339.537 255.285 339.243 255.92L339.111 256.195V256.186ZM334.624 241.323L334.662 241.532C334.729 241.883 334.795 242.224 334.871 242.575C335.108 243.675 335.383 244.785 335.677 245.885C336.038 247.232 336.445 248.57 336.891 249.878C337.356 251.254 337.878 252.657 338.456 254.042C338.655 254.507 338.873 255 339.111 255.522C339.357 254.981 339.594 254.441 339.822 253.919L339.898 253.739C340.476 252.325 341.017 250.855 341.51 249.357C341.928 248.076 342.316 246.758 342.667 245.44C342.952 244.368 343.208 243.287 343.426 242.234C343.474 242.006 343.521 241.779 343.559 241.551L343.597 241.342H334.615L334.624 241.323Z" fill="black"/>
</svg>
