<svg width="600" height="600" viewBox="0 0 600 600" fill="none" xmlns="http://www.w3.org/2000/svg">
<path d="M371.888 249.776V358.964C371.888 372.654 360.793 383.748 347.104 383.748H251.605C237.915 383.748 226.821 372.654 226.821 358.964V240.557C226.821 226.867 237.915 215.773 251.605 215.773H338.631C342.329 215.773 345.88 217.232 348.51 219.836L367.061 238.222C370.143 241.278 371.879 245.436 371.879 249.776H371.888Z" fill="#E6F7FF"/>
<path d="M347.103 383.887H251.605C237.871 383.887 226.69 372.715 226.69 358.973V240.557C226.69 226.824 237.863 215.643 251.605 215.643H338.63C342.389 215.643 345.931 217.101 348.596 219.749L367.147 238.135C370.229 241.191 372 245.436 372 249.785V358.973C372 372.706 360.827 383.887 347.086 383.887H347.103ZM251.613 215.912C238.019 215.912 226.96 226.972 226.96 240.566V358.982C226.96 372.576 238.019 383.635 251.613 383.635H347.112C360.706 383.635 371.765 372.576 371.765 358.982V249.794C371.765 245.523 370.02 241.338 366.991 238.335L348.44 219.949C345.818 217.353 342.346 215.921 338.656 215.921H251.631L251.613 215.912Z" fill="black"/>
<path d="M339.742 220.452L339.403 237.606C339.308 242.519 343.223 246.573 348.136 246.651L366.974 246.938C369.56 246.981 371.01 242.719 369.196 240.87L345.653 218.108C343.509 215.921 339.794 217.397 339.733 220.461L339.742 220.452Z" fill="#FBB03B"/>
<path d="M367.008 247.068H366.974L348.136 246.781C345.723 246.747 343.475 245.766 341.799 244.03C340.124 242.293 339.23 240.01 339.273 237.597L339.612 220.444C339.638 218.977 340.506 217.726 341.869 217.18C343.231 216.641 344.725 216.954 345.749 218.004L369.283 240.766C370.359 241.868 370.29 243.648 369.743 244.932C369.17 246.269 368.146 247.059 367.008 247.059V247.068ZM343.214 217.188C342.797 217.188 342.381 217.266 341.964 217.431C340.697 217.935 339.898 219.089 339.863 220.452L339.525 237.606C339.481 239.95 340.349 242.163 341.973 243.847C343.596 245.531 345.784 246.478 348.128 246.512L366.965 246.799C366.965 246.799 366.991 246.799 367 246.799C368.033 246.799 368.97 246.061 369.5 244.828C370.012 243.63 370.09 241.964 369.101 240.948L345.567 218.187C344.916 217.527 344.082 217.18 343.214 217.18V217.188Z" fill="black"/>
<path d="M272.751 269.169H274.782C276.614 269.169 278.445 269.169 280.268 269.169C282.994 269.169 285.72 269.169 288.437 269.169H298.342C301.979 269.169 305.625 269.169 309.263 269.169C312.909 269.169 316.563 269.169 320.209 269.169C323.638 269.169 327.058 269.169 330.487 269.169H339.116C341.2 269.169 343.283 269.169 345.358 269.169C346.339 269.169 347.32 269.161 348.301 269.169C348.344 269.169 348.387 269.169 348.431 269.169C349.481 269.169 350.479 270.089 350.436 271.175C350.384 272.26 349.559 273.18 348.431 273.18H346.399C344.568 273.18 342.736 273.18 340.913 273.18C338.187 273.18 335.461 273.18 332.744 273.18C329.446 273.18 326.147 273.18 322.839 273.18C319.202 273.18 315.556 273.18 311.919 273.18H300.972C297.543 273.18 294.123 273.18 290.694 273.18C287.821 273.18 284.947 273.18 282.065 273.18H275.824C274.843 273.18 273.862 273.189 272.881 273.18C272.838 273.18 272.794 273.18 272.751 273.18C271.7 273.18 270.702 272.26 270.746 271.175C270.798 270.089 271.622 269.169 272.751 269.169Z" fill="#4D4D4D"/>
<path d="M273.853 273.31C273.523 273.31 273.202 273.31 272.872 273.31H272.742C272.169 273.31 271.605 273.058 271.18 272.616C270.789 272.208 270.581 271.696 270.607 271.166C270.659 269.977 271.596 269.039 272.742 269.039H345.358C345.688 269.039 346.009 269.039 346.339 269.039C346.99 269.039 347.65 269.039 348.301 269.039H348.431C349.004 269.039 349.568 269.291 349.993 269.734C350.384 270.142 350.592 270.654 350.566 271.183C350.514 272.373 349.577 273.31 348.431 273.31H275.815C275.485 273.31 275.164 273.31 274.834 273.31C274.504 273.31 274.183 273.31 273.853 273.31ZM272.751 269.3C271.744 269.3 270.928 270.124 270.876 271.175C270.858 271.626 271.032 272.069 271.379 272.433C271.744 272.815 272.256 273.041 272.751 273.041H272.881C273.532 273.041 274.183 273.041 274.843 273.041C275.173 273.041 275.494 273.041 275.824 273.041H348.439C349.446 273.041 350.262 272.216 350.315 271.166C350.332 270.715 350.158 270.272 349.811 269.907C349.446 269.525 348.934 269.3 348.439 269.3H348.309C347.658 269.291 346.998 269.3 346.347 269.3C346.018 269.3 345.696 269.3 345.366 269.3H272.751Z" fill="black"/>
<path d="M272.751 299.639H274.782C276.614 299.639 278.445 299.639 280.268 299.639C282.994 299.639 285.72 299.639 288.437 299.639C291.736 299.639 295.035 299.639 298.342 299.639C301.979 299.639 305.625 299.639 309.263 299.639H320.209C323.638 299.639 327.058 299.639 330.487 299.639C333.361 299.639 336.234 299.639 339.116 299.639H345.358C346.339 299.639 347.32 299.631 348.301 299.639C348.344 299.639 348.387 299.639 348.431 299.639C349.481 299.639 350.479 300.559 350.436 301.645C350.384 302.73 349.559 303.65 348.431 303.65H346.399C344.568 303.65 342.736 303.65 340.913 303.65C338.187 303.65 335.461 303.65 332.744 303.65H322.839C319.202 303.65 315.556 303.65 311.919 303.65H300.972C297.543 303.65 294.123 303.65 290.694 303.65C287.821 303.65 284.947 303.65 282.065 303.65C279.982 303.65 277.899 303.65 275.824 303.65C274.843 303.65 273.862 303.658 272.881 303.65C272.838 303.65 272.794 303.65 272.751 303.65C271.7 303.65 270.702 302.73 270.746 301.645C270.798 300.559 271.622 299.639 272.751 299.639Z" fill="#4D4D4D"/>
<path d="M273.853 303.78C273.523 303.78 273.202 303.78 272.872 303.78H272.786H272.742C272.169 303.78 271.605 303.528 271.18 303.085C270.789 302.677 270.581 302.157 270.607 301.636C270.659 300.447 271.596 299.509 272.742 299.509H345.358C345.688 299.509 346.009 299.509 346.339 299.509C346.99 299.509 347.65 299.509 348.301 299.509H348.387H348.431C349.004 299.509 349.568 299.761 349.993 300.203C350.384 300.611 350.592 301.124 350.566 301.653C350.514 302.842 349.577 303.78 348.431 303.78H275.815C275.485 303.78 275.164 303.78 274.834 303.78C274.504 303.78 274.183 303.78 273.853 303.78ZM272.794 303.52H272.881C273.532 303.528 274.183 303.52 274.834 303.52C275.164 303.52 275.485 303.52 275.815 303.52H348.431C349.438 303.52 350.254 302.695 350.306 301.644C350.323 301.193 350.15 300.75 349.802 300.386C349.438 300.004 348.926 299.778 348.431 299.778H348.301C347.65 299.778 346.998 299.778 346.347 299.778C346.018 299.778 345.696 299.778 345.366 299.778H272.751C271.744 299.778 270.928 300.603 270.876 301.653C270.858 302.105 271.032 302.547 271.379 302.912C271.744 303.294 272.256 303.52 272.751 303.52H272.794Z" fill="black"/>
<path d="M272.751 330.109H274.782C276.614 330.109 278.445 330.109 280.268 330.109C282.994 330.109 285.72 330.109 288.437 330.109H298.342C301.979 330.109 305.625 330.109 309.263 330.109C312.909 330.109 316.563 330.109 320.209 330.109C323.638 330.109 327.058 330.109 330.487 330.109H339.116C341.2 330.109 343.283 330.109 345.358 330.109C346.339 330.109 347.32 330.1 348.301 330.109C348.344 330.109 348.387 330.109 348.431 330.109C349.481 330.109 350.479 331.029 350.436 332.114C350.384 333.199 349.559 334.12 348.431 334.12H346.399C344.568 334.12 342.736 334.12 340.913 334.12C338.187 334.12 335.461 334.12 332.744 334.12C329.446 334.12 326.147 334.12 322.839 334.12C319.202 334.12 315.556 334.12 311.919 334.12H300.972C297.543 334.12 294.123 334.12 290.694 334.12C287.821 334.12 284.947 334.12 282.065 334.12H275.824C274.843 334.12 273.862 334.128 272.881 334.12C272.838 334.12 272.794 334.12 272.751 334.12C271.7 334.12 270.702 333.199 270.746 332.114C270.798 331.029 271.622 330.109 272.751 330.109Z" fill="#4D4D4D"/>
<path d="M273.853 334.25C273.523 334.25 273.202 334.25 272.872 334.25H272.786H272.742C272.169 334.25 271.605 333.998 271.18 333.555C270.789 333.147 270.581 332.635 270.607 332.106C270.659 330.916 271.596 329.979 272.742 329.979H345.358C345.688 329.979 346.009 329.979 346.339 329.979C346.99 329.979 347.65 329.979 348.301 329.979H348.431C349.004 329.979 349.568 330.231 349.993 330.673C350.384 331.081 350.592 331.594 350.566 332.123C350.514 333.312 349.577 334.25 348.431 334.25H275.815C275.485 334.25 275.164 334.25 274.834 334.25C274.504 334.25 274.183 334.25 273.853 334.25ZM272.794 333.989H272.881C273.532 333.989 274.183 333.989 274.834 333.989C275.164 333.989 275.485 333.989 275.815 333.989H348.431C349.438 333.989 350.254 333.165 350.306 332.114C350.323 331.663 350.15 331.22 349.802 330.856C349.438 330.474 348.926 330.248 348.431 330.248H348.301C347.65 330.239 346.99 330.248 346.339 330.248C346.009 330.248 345.688 330.248 345.358 330.248H272.742C271.735 330.248 270.919 331.073 270.867 332.123C270.85 332.574 271.023 333.017 271.371 333.382C271.735 333.764 272.247 333.989 272.742 333.989H272.786H272.794Z" fill="black"/>
<path d="M257.924 258.405H243.826C241.199 258.405 239.069 260.535 239.069 263.162V277.26C239.069 279.887 241.199 282.017 243.826 282.017H257.924C260.552 282.017 262.681 279.887 262.681 277.26V263.162C262.681 260.535 260.552 258.405 257.924 258.405Z" fill="#00A99D"/>
<path d="M257.925 282.147H243.827C241.136 282.147 238.939 279.951 238.939 277.26V263.162C238.939 260.471 241.127 258.275 243.827 258.275H257.925C260.616 258.275 262.812 260.471 262.812 263.162V277.26C262.812 279.951 260.624 282.147 257.925 282.147ZM243.827 258.535C241.275 258.535 239.2 260.61 239.2 263.162V277.26C239.2 279.812 241.275 281.887 243.827 281.887H257.925C260.477 281.887 262.551 279.812 262.551 277.26V263.162C262.551 260.61 260.477 258.535 257.925 258.535H243.827Z" fill="black"/>
<path d="M257.924 288.528H243.826C241.199 288.528 239.069 290.657 239.069 293.285V307.383C239.069 310.01 241.199 312.14 243.826 312.14H257.924C260.552 312.14 262.681 310.01 262.681 307.383V293.285C262.681 290.657 260.552 288.528 257.924 288.528Z" fill="#00A99D"/>
<path d="M257.925 312.27H243.827C241.136 312.27 238.939 310.074 238.939 307.383V293.285C238.939 290.594 241.127 288.397 243.827 288.397H257.925C260.616 288.397 262.812 290.594 262.812 293.285V307.383C262.812 310.074 260.624 312.27 257.925 312.27ZM243.827 288.658C241.275 288.658 239.2 290.733 239.2 293.285V307.383C239.2 309.935 241.275 312.009 243.827 312.009H257.925C260.477 312.009 262.551 309.935 262.551 307.383V293.285C262.551 290.733 260.477 288.658 257.925 288.658H243.827Z" fill="black"/>
<path d="M257.924 318.65H243.826C241.199 318.65 239.069 320.78 239.069 323.407V337.505C239.069 340.132 241.199 342.262 243.826 342.262H257.924C260.552 342.262 262.681 340.132 262.681 337.505V323.407C262.681 320.78 260.552 318.65 257.924 318.65Z" fill="#00A99D"/>
<path d="M257.925 342.393H243.827C241.136 342.393 238.939 340.196 238.939 337.505V323.407C238.939 320.716 241.127 318.52 243.827 318.52H257.925C260.616 318.52 262.812 320.716 262.812 323.407V337.505C262.812 340.196 260.624 342.393 257.925 342.393ZM243.827 318.781C241.275 318.781 239.2 320.855 239.2 323.407V337.505C239.2 340.057 241.275 342.132 243.827 342.132H257.925C260.477 342.132 262.551 340.057 262.551 337.505V323.407C262.551 320.855 260.477 318.781 257.925 318.781H243.827Z" fill="black"/>
<path d="M269.61 258.813C269.505 258.492 269.323 258.214 269.071 257.971C268.898 257.832 268.724 257.702 268.542 257.563C268.134 257.328 267.7 257.207 267.231 257.207C266.997 257.242 266.771 257.268 266.537 257.302C266.094 257.424 265.712 257.65 265.391 257.971C265.252 258.084 265.113 258.197 264.983 258.309C264.609 258.613 264.236 258.917 263.863 259.221C263.316 259.672 262.76 260.124 262.213 260.575C261.545 261.122 260.868 261.678 260.2 262.225C259.462 262.824 258.724 263.431 257.995 264.03C257.248 264.638 256.51 265.245 255.764 265.853C255.069 266.417 254.375 266.99 253.68 267.555C253.142 267.997 252.595 268.44 252.057 268.883C251.97 268.796 251.892 268.718 251.805 268.631C251.267 268.093 250.72 267.546 250.182 267.008L248.767 265.593C248.541 265.367 248.315 265.133 248.081 264.907C248.081 264.907 248.081 264.907 248.072 264.898C247.838 264.646 247.56 264.464 247.23 264.36C246.918 264.195 246.588 264.126 246.223 264.134C245.867 264.117 245.529 264.195 245.216 264.36C244.895 264.464 244.617 264.646 244.374 264.898C244.235 265.072 244.105 265.245 243.966 265.428C243.732 265.836 243.61 266.27 243.61 266.739C243.645 266.973 243.671 267.199 243.706 267.433C243.827 267.876 244.053 268.258 244.374 268.579L244.939 269.143L246.284 270.489C246.822 271.027 247.369 271.574 247.907 272.112C248.376 272.581 248.845 273.058 249.322 273.527C249.548 273.753 249.774 273.987 250.008 274.213C250.008 274.213 250.008 274.213 250.017 274.221C250.251 274.473 250.529 274.656 250.859 274.76C251.171 274.925 251.501 274.994 251.866 274.985C252.1 274.951 252.326 274.925 252.56 274.89C253.003 274.768 253.385 274.543 253.706 274.221C253.845 274.109 253.984 273.996 254.114 273.883C254.488 273.579 254.861 273.275 255.234 272.971C255.781 272.52 256.337 272.069 256.883 271.617C257.552 271.07 258.229 270.515 258.897 269.968C259.635 269.369 260.373 268.761 261.102 268.162C261.849 267.555 262.587 266.947 263.333 266.339C264.028 265.775 264.722 265.202 265.417 264.638C266.007 264.16 266.589 263.674 267.179 263.197C267.604 262.85 268.021 262.502 268.446 262.164C268.646 261.999 268.846 261.834 269.045 261.669C269.045 261.669 269.063 261.652 269.071 261.652C269.323 261.417 269.505 261.139 269.61 260.81C269.775 260.497 269.844 260.167 269.835 259.803C269.853 259.447 269.775 259.108 269.61 258.796V258.813Z" fill="#4D4D4D"/>
<path d="M251.787 275.133C251.431 275.133 251.101 275.055 250.798 274.89C250.476 274.786 250.173 274.595 249.921 274.326C249.765 274.169 249.608 274.013 249.461 273.866L244.287 268.692C243.948 268.353 243.714 267.945 243.584 267.485L243.488 266.773C243.488 266.261 243.618 265.801 243.862 265.376L244.278 264.838C244.539 264.56 244.834 264.369 245.181 264.256C245.494 264.091 245.849 264.004 246.231 264.03C246.605 264.004 246.961 264.1 247.291 264.265C247.612 264.369 247.916 264.56 248.167 264.829C248.315 264.976 248.454 265.115 248.601 265.263L252.065 268.727L265.312 257.875C265.642 257.546 266.05 257.311 266.51 257.181L267.222 257.086C267.734 257.086 268.194 257.207 268.619 257.459L269.158 257.875C269.435 258.127 269.626 258.431 269.739 258.77C269.913 259.099 269.991 259.455 269.974 259.829C269.991 260.202 269.904 260.558 269.731 260.888C269.626 261.209 269.435 261.513 269.166 261.765L269.132 261.791C269.01 261.895 268.88 261.999 268.758 262.094L253.792 274.352C253.463 274.682 253.055 274.916 252.595 275.046L251.883 275.142C251.883 275.142 251.822 275.142 251.787 275.142V275.133ZM246.153 264.282C245.841 264.282 245.554 264.351 245.285 264.49C244.964 264.594 244.704 264.768 244.487 265.002L244.087 265.523C243.87 265.897 243.757 266.313 243.757 266.756L243.853 267.433C243.966 267.832 244.183 268.197 244.487 268.51L249.66 273.683C249.808 273.84 249.964 273.987 250.112 274.135C250.346 274.387 250.607 274.551 250.91 274.656C251.223 274.821 251.535 274.881 251.865 274.873L252.542 274.777C252.942 274.664 253.306 274.447 253.619 274.143L268.593 261.877C268.715 261.773 268.845 261.678 268.967 261.574C268.967 261.574 268.984 261.556 268.993 261.547C269.218 261.33 269.392 261.07 269.488 260.766C269.644 260.462 269.722 260.141 269.705 259.811C269.713 259.464 269.644 259.152 269.496 258.865V258.848C269.392 258.544 269.218 258.283 268.984 258.066L268.463 257.667C268.09 257.45 267.673 257.337 267.23 257.337L266.553 257.433C266.154 257.546 265.789 257.763 265.477 258.066L252.039 269.074L248.402 265.437C248.263 265.298 248.124 265.15 247.976 265.011C247.742 264.759 247.481 264.594 247.178 264.49C246.865 264.334 246.553 264.256 246.223 264.273C246.197 264.273 246.171 264.273 246.145 264.273L246.153 264.282Z" fill="black"/>
</svg>
