<svg width="600" height="600" viewBox="0 0 600 600" fill="none" xmlns="http://www.w3.org/2000/svg">
<path d="M378.221 349.577C378.221 351.964 377.306 354.264 375.66 355.987C366.787 365.322 339.434 390.249 297.26 390.865C253.46 391.5 224.741 365.467 215.684 355.987C214.029 354.254 213.114 351.954 213.114 349.557V260.349H378.221V349.567V349.577Z" fill="#333333"/>
<path d="M295.671 391C277.404 391 259.821 386.4 243.382 377.324C229.61 369.721 220.062 360.741 215.596 356.073C213.912 354.312 212.988 352.002 212.988 349.558V260.234H378.345V349.577C378.345 352.012 377.421 354.322 375.756 356.073C365.958 366.371 338.712 390.384 297.269 390.991C296.74 390.991 296.21 391 295.681 391H295.671ZM213.239 260.484V349.567C213.239 351.944 214.143 354.206 215.779 355.91C225.866 366.458 253.68 390.76 295.671 390.76C296.201 390.76 296.73 390.76 297.259 390.75C338.606 390.144 365.804 366.179 375.573 355.91C377.2 354.197 378.095 351.954 378.095 349.577V260.484H213.239Z" fill="black"/>
<path d="M419.672 274.17L305.209 331.579C302.207 333.09 298.675 333.128 295.633 331.694L179.159 276.72C175.136 274.824 175.069 269.117 179.043 267.115L293.506 209.705C296.509 208.194 300.041 208.156 303.082 209.59L419.557 264.564C423.58 266.46 423.647 272.168 419.672 274.17Z" fill="#333333"/>
<path d="M300.301 332.878C298.694 332.878 297.086 332.522 295.575 331.81L179.101 276.836C177.195 275.94 175.992 274.064 175.973 271.966C175.944 269.858 177.099 267.962 178.986 267.019L293.448 209.609C296.509 208.069 300.032 208.031 303.131 209.494L419.605 264.468C421.51 265.363 422.714 267.24 422.733 269.338C422.762 271.446 421.607 273.342 419.72 274.285L305.258 331.695C303.689 332.484 301.995 332.878 300.301 332.878ZM298.415 208.666C296.759 208.666 295.104 209.051 293.564 209.821L179.101 267.23C177.301 268.135 176.204 269.944 176.223 271.956C176.243 273.967 177.388 275.748 179.217 276.614L295.691 331.589C298.713 333.013 302.168 332.975 305.161 331.473L419.624 274.064C421.424 273.159 422.521 271.35 422.502 269.338C422.483 267.327 421.328 265.546 419.509 264.68L303.034 209.705C301.562 209.013 299.983 208.666 298.415 208.666Z" fill="black"/>
<path d="M300.069 266.865C299.53 266.364 298.722 265.893 297.952 265.989C297.018 266.104 296.085 266.22 295.151 266.335C292.62 266.643 290.089 266.961 287.558 267.269C283.814 267.731 280.07 268.193 276.335 268.655C271.774 269.223 267.212 269.781 262.64 270.349C257.645 270.965 252.64 271.581 247.645 272.197C242.583 272.822 237.52 273.448 232.458 274.073C227.771 274.651 223.084 275.228 218.387 275.806C214.393 276.297 210.408 276.787 206.414 277.288C203.556 277.644 200.697 277.991 197.839 278.347C196.482 278.51 195.135 278.683 193.777 278.847C193.72 278.847 193.662 278.857 193.604 278.866C192.815 278.963 192.055 279.126 191.487 279.742C190.948 280.329 190.611 281.051 190.611 281.86V357.199C190.611 358.219 190.592 359.24 190.611 360.25C190.611 360.298 190.611 360.337 190.611 360.385C190.611 360.433 190.621 360.471 190.621 360.52L181.41 385.793H205.635L196.164 361.877C196.424 361.444 196.588 360.943 196.588 360.385V291.522C196.588 289.367 196.559 284.189 196.559 284.189C196.559 284.189 201.458 283.881 203.999 283.563C207.742 283.101 211.486 282.639 215.221 282.177C219.783 281.609 224.345 281.051 228.916 280.483C233.911 279.867 238.916 279.251 243.911 278.635C248.973 278.01 254.036 277.384 259.098 276.759C263.785 276.181 268.472 275.604 273.169 275.026C277.163 274.535 281.148 274.045 285.142 273.544C288 273.188 290.859 272.841 293.717 272.485C295.074 272.322 296.422 272.149 297.779 271.985C297.836 271.985 297.894 271.975 297.952 271.966C298.77 271.86 299.453 271.696 300.069 271.09C300.589 270.57 300.974 269.723 300.945 268.972C300.907 268.203 300.656 267.394 300.069 266.855V266.865Z" fill="#FBB03B"/>
<path d="M205.818 385.909H181.237L181.295 385.745L190.496 360.5C190.496 360.5 190.496 360.481 190.496 360.472C190.496 360.443 190.496 360.414 190.496 360.385V360.337V360.25C190.486 359.567 190.496 358.893 190.496 358.21C190.496 357.873 190.496 357.536 190.496 357.19V281.85C190.496 281.061 190.814 280.3 191.401 279.656C192.017 278.982 192.854 278.828 193.595 278.741L193.768 278.722C194.788 278.597 195.809 278.472 196.838 278.347L232.449 273.948L297.952 265.864C298.924 265.729 299.819 266.461 300.166 266.768C300.714 267.269 301.042 268.058 301.08 268.972C301.109 269.714 300.743 270.599 300.166 271.176C299.559 271.783 298.876 271.975 297.981 272.091L293.746 272.61L204.028 283.688C201.737 283.967 197.454 284.256 196.704 284.304C196.704 285.084 196.733 289.559 196.733 291.522V360.385C196.733 360.914 196.598 361.415 196.328 361.886L205.837 385.909H205.818ZM181.584 385.659H205.452L196.03 361.857L196.059 361.809C196.328 361.367 196.463 360.885 196.463 360.385V291.522C196.463 289.367 196.434 284.189 196.434 284.189V284.073H196.55C196.598 284.073 201.477 283.756 203.98 283.448L297.933 271.85C298.799 271.744 299.415 271.571 299.973 271.013C300.493 270.493 300.84 269.656 300.811 268.992C300.772 268.145 300.474 267.423 299.973 266.961C299.319 266.355 298.559 266.047 297.952 266.114L196.838 278.597C195.818 278.722 194.798 278.847 193.768 278.972L193.595 278.991C192.902 279.078 192.113 279.222 191.555 279.829C191.006 280.425 190.708 281.128 190.708 281.86V357.199C190.708 357.536 190.708 357.883 190.708 358.219C190.708 358.893 190.708 359.576 190.708 360.25V360.337V360.385C190.708 360.404 190.708 360.423 190.708 360.443C190.708 360.472 190.708 360.491 190.708 360.52V360.549V360.568L181.555 385.668L181.584 385.659Z" fill="black"/>
<path d="M193.018 365.745C199.545 365.745 204.837 360.454 204.837 353.927C204.837 347.399 199.545 342.108 193.018 342.108C186.491 342.108 181.199 347.399 181.199 353.927C181.199 360.454 186.491 365.745 193.018 365.745Z" fill="#FBB03B"/>
<path d="M193.018 365.871C186.435 365.871 181.084 360.52 181.084 353.936C181.084 347.353 186.435 342.002 193.018 342.002C199.601 342.002 204.952 347.353 204.952 353.936C204.952 360.52 199.601 365.871 193.018 365.871ZM193.018 342.243C186.57 342.243 181.325 347.488 181.325 353.936C181.325 360.385 186.57 365.63 193.018 365.63C199.467 365.63 204.712 360.385 204.712 353.936C204.712 347.488 199.467 342.243 193.018 342.243Z" fill="black"/>
</svg>
