<svg width="600" height="600" viewBox="0 0 600 600" fill="none" xmlns="http://www.w3.org/2000/svg">
<path d="M162.954 410.124C164.749 411.951 160.129 435.558 160.129 435.558L231.184 430.714L214.738 409.484L162.956 410.124H162.954Z" fill="white"/>
<path d="M159.807 435.842L159.872 435.505C163.245 418.285 163.453 411 162.768 410.305L162.337 409.866L214.866 409.215L231.697 430.94L231.204 430.974L159.807 435.842ZM163.382 410.382C164.519 413.836 161.115 431.851 160.452 435.271L230.673 430.482L214.608 409.747L163.382 410.382Z" fill="#231F20"/>
<path d="M355.6 368.983C356.893 373.969 357.051 381.101 355.227 381.704C353.794 382.178 351.217 378.598 350.904 378.161C349.469 376.165 349.329 374.867 348.126 372.3C347.126 370.168 346.218 368.92 344.535 366.519C335.255 353.264 330.614 346.637 331.103 346.087C332.586 344.426 351.543 353.316 355.6 368.981V368.983Z" fill="#231F20"/>
<path d="M329.165 224.487C336.357 234.073 337.247 241.262 336.518 246.251C335.528 253.03 331.587 255.518 332.988 260.662C334.649 266.754 341.196 267.015 344.753 274.192C346.993 278.712 346.791 283.443 346.225 286.839C349.439 285.415 367.22 277.174 373.465 257.532C376.471 248.073 375.61 239.722 374.705 234.957C359.525 231.466 344.345 227.978 329.165 224.487Z" fill="#2A1C19"/>
<path d="M344.792 176.894C344.792 176.894 307.367 208.062 336.152 242.105C339.109 245.601 342.981 248.245 347.375 249.519C352.385 250.972 359.056 251.088 365.706 245.738L368.215 260.284C368.215 260.284 384.943 279.147 404.943 249.137C397.132 239.128 390.953 231.609 383.142 221.599C385.056 221.586 389.634 218.848 392.054 214.981C396.295 208.199 387.062 193.182 379.099 194.112C374.752 194.617 369.4 197.037 367.589 203.192C359.422 193.491 352.959 186.59 344.792 176.892V176.894Z" fill="#FCD1C7"/>
<path d="M381.476 266.399C373.386 266.399 368.076 260.52 368.02 260.46L367.97 260.405L367.957 260.331L365.525 246.222C358.682 251.527 351.856 251.095 347.304 249.774C342.96 248.513 339.032 245.922 335.952 242.279C327.851 232.698 324.216 222.423 325.15 211.745C326.069 201.249 331.316 192.277 335.555 186.601C340.143 180.453 344.579 176.733 344.624 176.697L344.824 176.528L344.993 176.728C349.076 181.578 352.793 185.795 356.389 189.876C359.896 193.854 363.516 197.963 367.481 202.662C369.871 195.475 376.927 194.109 379.07 193.859C382.724 193.43 387.115 196.363 390.253 201.322C393.51 206.472 394.305 211.89 392.28 215.128C389.953 218.851 385.815 221.433 383.645 221.82C387.436 226.672 390.901 231.014 394.255 235.215C397.693 239.522 401.247 243.979 405.154 248.981L405.27 249.132L405.165 249.289C397.97 260.083 390.388 265.83 382.629 266.365C382.239 266.391 381.855 266.404 381.476 266.404V266.399ZM368.465 260.162C369.039 260.776 374.549 266.386 382.6 265.833C386.02 265.596 389.463 264.282 392.841 261.929C396.851 259.136 400.813 254.837 404.622 249.15C400.765 244.208 397.248 239.801 393.844 235.536C390.403 231.227 386.847 226.77 382.94 221.762L382.611 221.341H383.145C385.017 221.325 389.49 218.595 391.836 214.844C393.755 211.777 392.96 206.577 389.808 201.599C386.778 196.807 382.59 193.972 379.133 194.377C377.027 194.622 369.987 195.989 367.844 203.271L367.705 203.742L367.389 203.368C363.308 198.521 359.591 194.304 355.997 190.226C352.451 186.2 348.784 182.041 344.764 177.273C342.821 178.974 327.309 193.093 325.677 211.798C324.755 222.331 328.349 232.475 336.355 241.942C339.369 245.506 343.205 248.042 347.452 249.271C351.961 250.579 358.761 250.993 365.546 245.538L365.893 245.259L368.465 260.168V260.162Z" fill="#231F20"/>
<path d="M362.675 211.991C362.631 211.932 358.239 206.007 345.672 209.192L345.521 208.598C358.527 205.301 362.991 211.377 363.175 211.636L362.675 211.989V211.991Z" fill="#231F20"/>
<path d="M325.903 212.603L325.53 212.116C327.072 210.936 329.628 209.438 333.037 209.01C334.875 208.78 336.733 208.885 338.556 209.326L338.414 209.921C336.661 209.497 334.877 209.396 333.114 209.618C329.841 210.028 327.386 211.467 325.903 212.603Z" fill="#231F20"/>
<path d="M354.353 219.656C355.662 219.656 356.724 218.227 356.724 216.464C356.724 214.701 355.662 213.272 354.353 213.272C353.043 213.272 351.981 214.701 351.981 216.464C351.981 218.227 353.043 219.656 354.353 219.656Z" fill="#231F20"/>
<path d="M335.384 221.389C336.694 221.389 337.755 219.96 337.755 218.197C337.755 216.434 336.694 215.005 335.384 215.005C334.074 215.005 333.013 216.434 333.013 218.197C333.013 219.96 334.074 221.389 335.384 221.389Z" fill="#231F20"/>
<path d="M345.9 231.3C344.507 231.3 343.424 230.677 342.658 229.429C341.186 227.029 341.302 222.837 341.658 219.742C342.011 216.681 342.787 213.354 343.224 213.027L343.592 213.516C343.612 213.501 343.621 213.49 343.621 213.49C343.125 214.143 340.39 225.787 343.505 229.567C344.661 230.969 346.545 231.039 349.109 229.778L349.379 230.328C348.063 230.975 346.9 231.3 345.898 231.3H345.9Z" fill="#231F20"/>
<path d="M351.478 239.66L351.391 239.052C357.517 238.177 360.417 229.856 360.446 229.773L361.025 229.97C360.994 230.06 360.264 232.179 358.733 234.443C356.684 237.47 354.177 239.274 351.478 239.66Z" fill="#231F20"/>
<path d="M374.705 234.957C374.705 234.957 369.814 243.121 365.825 245.24L366.733 250.719C366.733 250.719 373.181 239.967 374.705 234.957Z" fill="#231F20"/>
<path d="M324.746 191.45C324.944 190.5 325.971 185.795 329.459 180.664C336.886 169.741 348.077 166.54 350.973 165.734C356.973 164.068 360.532 164.684 361.764 164.939C365.168 165.65 367.69 167.161 369.199 168.243C373.324 168.009 381.396 168.127 390.06 172.374C391.884 173.269 398.858 176.852 405.137 184.974C416.1 199.153 409.492 206.754 418.151 217.814C426.788 228.85 436.416 223.963 446.515 236.542C456.324 248.763 447.847 258.443 459.968 279.373C462.29 283.383 464.372 286.089 465.036 290.954C466.357 300.666 460.731 309.506 455.626 315.564C427.036 266.91 413.42 251.596 406.72 249.298C405.69 248.945 401.046 247.599 396.797 243.577C393.588 240.539 392.611 237.898 389.512 232.438C387.749 229.329 385.019 224.816 381.154 219.52C381.717 219.483 382.478 219.383 383.339 219.117C383.786 218.977 384.229 218.803 384.661 218.595C389.776 216.116 391.7 209.526 388.96 203.876C386.503 198.811 379.719 195.278 374.738 198.142C371.208 200.172 369.362 204.969 370.513 209.86C366.24 202.599 361.933 200.275 358.639 199.577C354.158 198.629 351.052 200.591 348.059 198.632C344.849 196.534 344.318 191.603 344.405 187.612C338.439 189.597 334.819 192.611 332.973 194.422C331.57 195.799 330.649 197.013 330.343 197.426C327.571 201.162 326.434 204.892 325.923 207.262C324.936 204.487 323.27 198.587 324.749 191.448L324.746 191.45Z" fill="#2A1C19"/>
<path d="M381.86 204.114L378.743 210.704L379.219 210.929L382.336 204.339L381.86 204.114Z" fill="#231F20"/>
<path d="M358.195 378.176H362.704L414.426 378.553C427.365 378.598 437.582 381.457 450.022 375.852C459.318 371.663 465.304 364.8 468.808 359.903C462.495 344.205 455.24 308.185 447.497 273.526C447.497 273.526 432.267 227.844 404.945 249.137C377.624 270.427 367.325 258.193 367.325 258.193C362.818 259.075 355.854 261.084 349.225 266.241C344.658 269.795 341.327 274.002 334.748 286.123C330.831 293.342 325.8 303.293 320.658 315.656C310.451 310.649 288.171 292.723 283.975 289.24C283.277 291.317 277.938 306.523 266.125 308.658C264.827 308.893 263.34 308.99 261.671 308.822C264.046 312.665 267.618 318.091 272.457 324.207C280.273 334.09 287.129 343.381 298.668 349.852C309.722 356.054 319.995 361.817 332.626 358.697C347.569 355.006 355.151 341.517 356.936 338.123C356.936 338.123 359.427 361.198 362.918 378.153" fill="#6AA393"/>
<path d="M432.583 379.579C429.718 379.579 426.859 379.4 423.948 379.216C420.902 379.024 417.75 378.827 414.428 378.813L362.707 378.437H358.199V377.91H362.601C359.553 362.986 357.252 343.272 356.77 338.994C353.779 344.42 346.134 355.635 332.692 358.955C330.235 359.561 327.863 359.835 325.56 359.835C315.922 359.835 307.431 355.072 298.541 350.086C287.728 344.02 280.968 335.438 273.812 326.35C273.296 325.694 272.778 325.036 272.254 324.375C268.365 319.46 264.73 314.274 261.452 308.964L261.173 308.511L261.702 308.564C263.192 308.714 264.666 308.658 266.083 308.403C277.408 306.355 282.769 292.012 283.729 289.158L283.851 288.795L284.145 289.04C289.334 293.347 310.572 310.304 320.526 315.298C324.723 305.233 329.432 295.377 334.521 286.002C340.748 274.531 344.146 269.866 349.067 266.038C354.237 262.015 360.364 259.293 367.28 257.94L367.432 257.911L367.532 258.03C367.559 258.059 370.136 261.026 375.967 261.397C381.377 261.739 390.776 259.857 404.79 248.936C411.419 243.769 417.921 242.099 424.113 243.969C432.061 246.37 438.066 254.268 441.707 260.47C445.638 267.17 447.731 273.389 447.752 273.449L447.76 273.475C449.176 279.81 450.587 286.254 451.954 292.486C458.101 320.521 463.906 347.003 469.058 359.811L469.113 359.945L469.029 360.064C463.761 367.43 457.403 372.824 450.137 376.099C443.958 378.882 438.264 379.587 432.588 379.587L432.583 379.579ZM363.136 377.916L414.428 378.289C417.766 378.3 420.925 378.5 423.979 378.692C432.596 379.235 440.736 379.745 449.913 375.612C457.056 372.395 463.311 367.098 468.511 359.869C463.356 346.969 457.564 320.555 451.435 292.594C450.069 286.368 448.658 279.928 447.244 273.599C447.017 272.933 438.743 248.936 423.955 244.469C417.937 242.65 411.598 244.292 405.108 249.347C397.624 255.181 386.845 261.958 377.186 261.958C376.747 261.958 376.31 261.944 375.875 261.915C370.439 261.555 367.785 259.067 367.232 258.485C360.458 259.83 354.456 262.51 349.388 266.454C345.094 269.792 341.845 273.607 334.982 286.254C329.859 295.695 325.12 305.623 320.903 315.761L320.795 316.019L320.542 315.895C310.827 311.128 289.811 294.405 284.101 289.69C282.845 293.276 277.372 306.897 266.175 308.924C264.877 309.158 263.532 309.23 262.173 309.135C265.369 314.271 268.897 319.289 272.664 324.051C273.188 324.712 273.707 325.37 274.223 326.026C281.347 335.072 288.076 343.615 298.796 349.628C309.716 355.754 320.031 361.54 332.563 358.447C346.447 355.017 354.069 343.009 356.701 338.007L357.104 337.244L357.196 338.102C357.22 338.331 359.708 361.185 363.136 377.918V377.916Z" fill="#231F20"/>
<path d="M274.279 284.459C274.279 284.459 274.305 284.446 274.318 284.441C273.742 283.195 271.449 278.014 271.415 274.363C271.38 270.782 273.034 269.782 280.031 282.011C288.824 278.52 296.833 276.345 296.833 276.345C290.557 274.252 271.201 222.468 271.201 222.468C253.939 220.375 233.538 242.344 233.538 242.344C215.231 241.299 191.692 268.5 191.692 268.5L225.169 315.056C227.175 304.027 255.116 298.286 257.443 297.825C258.475 295.89 260.176 293.265 262.885 290.748C267.173 286.77 271.752 285.146 274.279 284.459Z" fill="#FDB956"/>
<path d="M225.32 315.711L191.358 268.484L191.495 268.326C191.553 268.258 197.487 261.431 205.585 254.826C213.046 248.737 223.927 241.605 233.434 242.076C234.134 241.339 239.054 236.231 245.746 231.408C252.407 226.609 262.237 221.115 271.236 222.207L271.394 222.226L271.449 222.376C271.641 222.892 290.831 274.068 296.917 276.095L297.744 276.372L296.904 276.601C296.825 276.622 288.809 278.812 280.129 282.258L279.916 282.342L279.803 282.145C274.466 272.82 272.737 272.128 272.236 272.262C271.87 272.362 271.665 273.128 271.678 274.363C271.712 277.999 274.082 283.306 274.558 284.333L274.669 284.575L274.348 284.717C270.117 285.87 266.215 288.024 263.064 290.946C260.897 292.957 259.084 295.314 257.675 297.951L257.617 298.062L257.496 298.086C256.093 298.362 248.711 299.892 241.282 302.725C234.616 305.268 226.454 309.48 225.43 315.103L225.32 315.714V315.711ZM192.03 268.518L225.043 314.427C226.228 309.946 231.622 305.847 241.095 302.232C248.369 299.457 255.598 297.928 257.272 297.591C258.699 294.945 260.529 292.578 262.709 290.556C265.857 287.634 269.741 285.467 273.955 284.277C273.166 282.529 271.186 277.817 271.154 274.368C271.138 272.786 271.449 271.93 272.102 271.754C272.973 271.514 274.758 272.296 280.147 281.684C287.369 278.831 294.09 276.851 296.136 276.272C289.42 271.556 272.344 226.262 271.015 222.713C254.121 220.804 233.939 242.308 233.736 242.526L233.652 242.616L233.528 242.608C216.282 241.628 193.991 266.304 192.032 268.516L192.03 268.518Z" fill="#231F20"/>
<path d="M293.303 277.422C287.026 275.329 267.671 223.545 267.671 223.545C250.409 221.452 233.541 242.347 233.541 242.347C215.234 241.302 188.162 269.577 188.162 269.577L221.639 316.133C223.645 305.105 255.119 298.286 257.446 297.828C261.329 293.094 265.144 290.012 267.961 288.053C279.278 280.186 293.295 277.398 293.303 277.425V277.422Z" fill="white"/>
<path d="M221.787 316.788L187.82 269.553L187.97 269.395C188.039 269.324 194.857 262.232 203.824 255.36C212.083 249.034 223.904 241.61 233.421 242.076C234.055 241.31 238.138 236.492 243.97 231.953C249.825 227.396 258.699 222.194 267.7 223.284L267.858 223.303L267.914 223.453C268.106 223.969 287.287 275.124 293.377 277.172L293.292 277.422L293.319 277.683C293.195 277.699 279.374 280.429 268.101 288.266C264.265 290.933 260.745 294.205 257.641 297.991L257.58 298.065L257.488 298.083C257.154 298.149 223.919 305.018 221.89 316.177L221.779 316.788H221.787ZM188.505 269.601L221.513 315.504C222.743 311.007 228.732 306.726 239.331 302.769C247.863 299.584 256.325 297.788 257.301 297.586C260.424 293.792 263.957 290.512 267.811 287.834C277.344 281.208 289.312 277.988 292.55 277.309C285.797 272.399 268.809 227.328 267.482 223.79C250.617 221.889 233.916 242.308 233.747 242.513L233.663 242.618L233.529 242.61C216.245 241.621 190.721 267.336 188.507 269.603L188.505 269.601Z" fill="#231F20"/>
<path d="M280.032 282.013C273.034 269.784 271.381 270.785 271.415 274.365C271.449 278.014 273.742 283.198 274.319 284.443C274.4 284.622 274.448 284.72 274.448 284.72L274.279 284.462C266.173 288.168 258.731 292.836 257.601 297.796C257.601 297.796 257.543 297.806 257.443 297.828C258.13 299.352 259.12 301.187 260.555 303.098C262.474 305.657 264.517 307.46 266.126 308.666C266.916 308.466 267.666 308.227 268.374 307.955C277.82 304.341 282.198 294.355 283.973 289.245C283.083 287.45 281.719 284.967 280.032 282.016V282.013Z" fill="#FCD1C7"/>
<path d="M266.067 308.948L265.967 308.872C263.83 307.269 261.939 305.376 260.344 303.251C259.109 301.603 258.051 299.816 257.203 297.931L257.066 297.628L257.385 297.565C258.464 293.331 264.04 288.874 273.968 284.309C273.189 282.59 271.183 277.836 271.151 274.366C271.135 272.784 271.446 271.928 272.099 271.752C272.976 271.512 274.779 272.304 280.257 281.879C282.071 285.049 283.361 287.418 284.206 289.124L284.256 289.224L284.22 289.33C279.965 301.572 273.305 306.347 268.466 308.198C267.726 308.482 266.96 308.725 266.186 308.917L266.065 308.948H266.067ZM257.822 298.018C258.63 299.755 259.62 301.408 260.765 302.938C262.305 304.989 264.127 306.819 266.183 308.377C266.894 308.193 267.6 307.969 268.282 307.708C273.002 305.902 279.502 301.237 283.69 289.261C282.851 287.574 281.579 285.244 279.805 282.145C274.468 272.82 272.739 272.128 272.238 272.262C271.872 272.362 271.667 273.128 271.68 274.363C271.715 277.999 274.084 283.306 274.56 284.333C274.642 284.507 274.687 284.604 274.689 284.604L274.231 284.862L274.187 284.794C264.288 289.346 258.799 293.739 257.864 297.852L257.827 298.018H257.822Z" fill="#231F20"/>
<path d="M269.482 293.352L268.964 293.255C269.019 292.952 270.385 285.841 274.174 284.217L274.382 284.701C270.851 286.215 269.493 293.281 269.48 293.352H269.482Z" fill="#231F20"/>
<path d="M261.572 249.629C261.572 249.629 261.506 249.213 261.366 248.513C261.411 248.826 261.453 249.15 261.49 249.476C261.543 249.574 261.569 249.629 261.569 249.629H261.572Z" fill="#2C1B18"/>
<path d="M244.763 236.621C244.716 236.916 244.713 237.206 244.745 237.49C244.774 237.203 244.781 236.911 244.763 236.621Z" fill="#2C1B18"/>
<path d="M212.541 260.649C212.491 260.923 212.459 261.205 212.454 261.492C212.475 261.339 212.517 261.047 212.541 260.649Z" fill="#2C1B18"/>
<path d="M261.492 249.479C261.086 248.747 259.051 245.509 253.981 243.756C251.425 242.871 250.227 242.516 248.081 241.492C246.446 240.712 244.927 239.214 244.743 237.49C244.514 239.87 242.768 242.079 240.46 242.75C239.438 243.048 238.356 243.069 237.327 243.334C233.112 244.424 230.971 249.113 227.344 251.517C224.698 253.27 221.418 253.705 218.451 254.834C215.752 255.861 213.054 257.904 212.54 260.649C212.517 261.047 212.477 261.342 212.453 261.492C212.459 261.205 212.49 260.923 212.54 260.649C212.614 259.449 212.548 257.298 211.437 255.176C209.407 252.246 205.901 250.311 201.912 250.311C200.793 250.311 199.711 250.466 198.69 250.751C193.977 252.062 190.539 256.171 190.539 261.039C190.539 266.965 195.631 271.767 201.915 271.767C202.597 271.767 203.263 271.707 203.91 271.599L203.284 272.675C199.216 281.097 195.149 289.517 191.081 297.938C210.737 311.273 234.033 325.795 237.695 321.619C240.123 318.852 235.36 306.223 235.36 306.223L234.478 303.28C250.108 304.807 256.537 291.61 257.198 287.184C257.348 286.181 257.359 285.16 257.514 284.156C258.043 281.047 258.538 277.87 258.991 274.624C260.212 265.87 261.015 257.469 261.494 249.479H261.492Z" fill="#FCD1C7"/>
<path d="M235.602 322.593C229.797 322.593 215.085 314.538 190.933 298.154L190.746 298.028L203.046 272.562L203.407 271.938C202.907 271.999 202.404 272.031 201.911 272.031C195.493 272.031 190.272 267.1 190.272 261.039C190.272 256.2 193.703 251.864 198.618 250.495C199.689 250.198 200.798 250.045 201.911 250.045C205.85 250.045 209.491 251.907 211.652 255.024L211.668 255.053C212.405 256.461 212.703 257.883 212.792 259.091C213.729 257.219 215.707 255.595 218.355 254.584C219.384 254.192 220.464 253.878 221.506 253.576C223.465 253.007 225.492 252.42 227.195 251.293C228.62 250.351 229.839 249.019 231.015 247.729C232.806 245.772 234.654 243.748 237.26 243.074C237.758 242.945 238.268 242.871 238.763 242.8C239.303 242.724 239.861 242.642 240.385 242.492C242.573 241.855 244.255 239.786 244.479 237.459L244.726 234.884L245.003 237.456C245.192 239.22 246.84 240.602 248.194 241.247C249.992 242.105 251.111 242.487 252.961 243.121C253.301 243.237 253.667 243.364 254.064 243.5C259.261 245.299 261.354 248.684 261.72 249.345L261.757 249.411L261.752 249.487C261.249 257.877 260.404 266.344 259.245 274.653C258.803 277.822 258.306 281.032 257.769 284.193C257.692 284.694 257.65 285.215 257.608 285.718C257.568 286.207 257.526 286.716 257.453 287.216C256.729 292.06 250.031 304.826 234.835 303.572L235.607 306.142C236.094 307.435 240.338 318.995 237.889 321.785C237.421 322.32 236.657 322.588 235.599 322.588L235.602 322.593ZM191.42 297.846C210.57 310.828 234.03 325.4 237.5 321.443C238.429 320.385 238.324 317.465 237.2 313C236.333 309.567 235.167 306.445 235.117 306.313L235.101 306.258L234.117 302.975L234.506 303.012C249.594 304.483 256.231 291.891 256.939 287.137C257.01 286.655 257.05 286.157 257.089 285.676C257.131 285.162 257.174 284.63 257.255 284.109C257.792 280.95 258.29 277.746 258.732 274.582C259.885 266.312 260.728 257.885 261.231 249.535C260.791 248.771 258.761 245.68 253.901 243.998C253.504 243.861 253.14 243.735 252.801 243.619C250.932 242.979 249.802 242.595 247.975 241.721C246.796 241.157 245.408 240.07 244.792 238.643C244.192 240.694 242.565 242.405 240.54 242.992C239.982 243.156 239.406 243.237 238.848 243.316C238.366 243.385 237.871 243.456 237.4 243.577C234.946 244.211 233.23 246.088 231.413 248.076C230.215 249.387 228.975 250.743 227.496 251.722C225.726 252.894 223.66 253.494 221.662 254.073C220.63 254.373 219.561 254.681 218.55 255.066C216.109 255.995 213.324 257.954 212.808 260.668C212.79 260.96 212.761 261.245 212.721 261.518L212.197 261.476C212.203 261.187 212.231 260.894 212.284 260.605C212.366 259.267 212.245 257.269 211.218 255.3C209.154 252.333 205.679 250.561 201.919 250.561C200.853 250.561 199.792 250.706 198.768 250.99C194.082 252.294 190.81 256.422 190.81 261.026C190.81 266.797 195.793 271.491 201.922 271.491C202.564 271.491 203.22 271.436 203.873 271.328L204.426 271.236L203.517 272.797L191.426 297.836L191.42 297.846Z" fill="#231F20"/>
<path d="M226.235 261.577C226.279 261.518 230.671 255.593 243.238 258.778L243.39 258.183C230.384 254.886 225.919 260.963 225.735 261.222L226.235 261.575V261.577Z" fill="#231F20"/>
<path d="M263.007 262.189L263.38 261.702C261.838 260.522 259.282 259.024 255.873 258.596C254.035 258.366 252.177 258.471 250.354 258.912L250.497 259.506C252.249 259.083 254.033 258.982 255.796 259.203C259.069 259.614 261.524 261.053 263.007 262.189Z" fill="#231F20"/>
<path d="M234.557 269.242C233.248 269.242 232.186 267.813 232.186 266.05C232.186 264.287 233.248 262.858 234.557 262.858C235.867 262.858 236.929 264.287 236.929 266.05C236.929 267.813 235.867 269.242 234.557 269.242Z" fill="#231F20"/>
<path d="M253.526 270.975C252.216 270.975 251.155 269.546 251.155 267.783C251.155 266.02 252.216 264.591 253.526 264.591C254.836 264.591 255.897 266.02 255.897 267.783C255.897 269.546 254.836 270.975 253.526 270.975Z" fill="#231F20"/>
<path d="M243.01 280.886C244.403 280.886 245.487 280.263 246.252 279.014C247.724 276.615 247.608 272.423 247.253 269.327C246.899 266.267 246.123 262.939 245.686 262.613L245.318 263.102C245.298 263.086 245.289 263.075 245.289 263.075C245.785 263.729 248.52 275.373 245.405 279.153C244.249 280.554 242.365 280.625 239.801 279.363L239.531 279.914C240.847 280.561 242.01 280.886 243.012 280.886H243.01Z" fill="#231F20"/>
<path d="M237.432 289.245L237.52 288.638C231.393 287.762 228.493 279.442 228.464 279.359L227.885 279.556C227.916 279.646 228.646 281.765 230.177 284.029C232.226 287.056 234.734 288.859 237.432 289.245Z" fill="#231F20"/>
<path d="M233.823 316.338C236.108 314.295 236.324 309.941 234.476 303.277C234.476 303.277 255.09 310.546 258.66 316.972C262.23 323.396 287.153 378.15 287.153 378.15L182.02 378.598L182.515 409.774L141.406 410.011C128.993 410.011 120.54 397.432 125.226 385.94L148.765 328.211C154.559 314.003 166.901 303.501 181.855 300.058L191.079 297.933C214.708 314.556 228.955 320.687 233.821 316.335L233.823 316.338Z" fill="#FDF1DE"/>
<path d="M141.409 410.276C135.491 410.276 129.989 407.344 126.687 402.434C123.386 397.524 122.749 391.321 124.984 385.843L148.523 328.114C154.341 313.845 166.78 303.262 181.797 299.802L191.137 297.651L191.235 297.72C209.877 310.833 222.724 317.433 229.577 317.436C231.328 317.436 232.686 317.007 233.65 316.143C235.843 314.182 236.035 309.877 234.224 303.348L234.089 302.861L234.566 303.03C235.411 303.327 255.316 310.407 258.892 316.843C262.425 323.204 287.145 377.492 287.395 378.04L287.564 378.411H287.156L182.289 378.858L182.784 410.034L141.409 410.274V410.276ZM191.027 298.22L181.915 300.318C167.064 303.738 154.762 314.203 149.01 328.314L125.471 386.043C123.304 391.358 123.92 397.376 127.124 402.142C130.328 406.907 135.667 409.75 141.407 409.75L182.247 409.513L181.752 378.337H182.018L286.742 377.89C284.547 373.066 261.798 323.167 258.428 317.101C255.248 311.375 237.962 304.836 234.861 303.699C236.582 310.164 236.293 314.482 233.997 316.535C228.987 321.016 214.931 315.027 191.024 298.22H191.027Z" fill="#231F20"/>
<path d="M177.066 377.918L176.542 377.861C178 364.997 177.679 353.264 175.589 342.98C173.754 333.948 171.074 328.751 170.005 326.934C169.41 325.923 169.091 325.56 169.036 325.518L169.334 325.084C169.528 325.213 169.968 325.834 170.46 326.668C171.54 328.506 174.254 333.766 176.105 342.875C178.206 353.211 178.527 365.003 177.063 377.918H177.066Z" fill="#231F20"/>
<path d="M234.235 303.114C234.235 303.114 226.803 303.462 219.247 297.604C211.692 291.746 210.162 288.519 210.162 288.519C210.162 288.519 215.767 303.888 231.218 304.652C231.626 304.599 232.258 304.467 232.943 304.102C233.545 303.78 233.967 303.396 234.233 303.114H234.235Z" fill="#231F20"/>
<path d="M199.123 258.005L198.807 258.426L206.182 263.958L206.498 263.537L199.123 258.005Z" fill="#231F20"/>
<path d="M176.805 377.89L182.021 378.6C182.555 372.977 182.674 365.856 181.436 357.768C179.317 343.918 174.16 333.361 170.234 326.803C172.872 332.666 175.989 341.296 177.348 352.121C178.675 362.691 177.859 371.629 176.803 377.892L176.805 377.89Z" fill="#231F20"/>
<path d="M182.257 378.895L176.499 378.111L176.544 377.842C177.976 369.341 178.161 360.698 177.087 352.15C175.991 343.423 173.604 334.93 169.994 326.905L170.46 326.663C176.241 336.322 180.022 346.771 181.696 357.723C182.749 364.608 182.947 371.639 182.283 378.621L182.257 378.895ZM177.108 377.666L181.783 378.303C182.412 371.453 182.21 364.558 181.175 357.807C179.735 348.393 176.728 339.352 172.224 330.867C174.886 337.689 176.692 344.807 177.608 352.089C178.677 360.601 178.508 369.204 177.108 377.668V377.666Z" fill="#231F20"/>
<path d="M218.864 405.409L218.385 405.19C219.794 402.089 215.034 396.842 214.986 396.79L215.373 396.434C215.581 396.661 220.417 401.994 218.864 405.409Z" fill="#231F20"/>
<path d="M250.166 337.647C253.352 352.263 256.337 363.939 259.522 378.556L250.166 337.647Z" fill="#FCD1C7"/>
<path d="M259.266 378.614C257.673 371.308 256.107 364.626 254.59 358.166C253.074 351.7 251.505 345.016 249.912 337.705L250.428 337.592C252.021 344.897 253.59 351.582 255.106 358.045C256.623 364.508 258.192 371.192 259.785 378.503L259.269 378.616L259.266 378.614Z" fill="#231F20"/>
<path d="M204.029 271.359C203.034 271.541 201.775 271.652 200.348 271.478C196.228 270.98 193.519 268.479 192.514 267.442C192.635 270.122 193.219 274.329 195.641 278.704C196.534 280.318 197.516 281.661 198.448 282.756L204.026 271.359H204.029Z" fill="#2C1B18"/>
<path d="M198.511 283.233L198.25 282.927C197.168 281.656 196.215 280.279 195.412 278.833C193.501 275.385 192.437 271.557 192.25 267.455L192.219 266.76L192.703 267.26C193.946 268.542 196.594 270.762 200.38 271.22C201.567 271.362 202.778 271.325 203.981 271.104L204.495 271.009L198.508 283.235L198.511 283.233ZM192.816 268.108C193.08 271.87 194.109 275.39 195.873 278.575C196.592 279.876 197.439 281.119 198.392 282.274L203.571 271.699C202.483 271.854 201.391 271.867 200.319 271.738C196.815 271.315 194.254 269.451 192.819 268.108H192.816Z" fill="#231F20"/>
<path d="M265.613 240.088C262.873 234.333 257.799 229.734 251.805 227.568C257.46 227.252 263.21 229.463 267.193 233.488C267.424 231.474 265.787 229.763 264.176 228.531C256.107 222.365 245.171 220.346 235.33 222.694C232.558 222.321 229.685 222.415 226.813 223.166C227.095 221.541 227.379 219.917 227.661 218.295C227.8 217.495 227.853 216.484 227.155 216.065C226.41 215.615 225.481 216.25 224.915 216.913C223.17 218.946 222.193 221.626 222.224 224.306C221.766 222.215 219.945 220.291 217.809 220.386C215.672 220.48 214 223.305 215.366 224.951C216.159 225.904 217.604 226.185 218.249 227.244C216.232 227.252 214.274 227.662 212.426 228.389C210.664 228.278 208.556 228.421 206.313 229.171C202.664 230.392 200.479 232.612 199.444 233.691C192.636 240.776 193.692 251.425 193.915 253.37C194.292 252.996 194.871 252.486 195.661 252.009C198.949 250.024 203.419 250.153 206.847 251.988C210.991 254.21 212.344 258.251 212.628 259.175C212.647 259.425 212.657 259.694 212.657 259.978C212.657 260.226 212.649 260.452 212.636 260.65C213.152 257.919 215.864 255.892 218.576 254.873C221.556 253.752 224.852 253.32 227.511 251.577C230.415 249.677 232.368 246.341 235.182 244.511C236.188 244.798 237.212 245.038 238.226 245.248C241.882 246.004 245.652 246.512 249.004 248.16C252.355 249.808 255.288 252.904 255.52 256.629C256.849 253.844 257.547 250.761 257.542 247.676C261.841 250.303 264.752 255.076 265.116 260.102C265.853 260.268 266.385 259.42 266.635 258.707C268.733 252.688 268.359 245.849 265.619 240.096L265.613 240.088Z" fill="#2C1B18"/>
<path d="M212.889 260.697L212.368 260.631C212.381 260.418 212.389 260.196 212.389 259.975C212.389 259.725 212.381 259.47 212.363 259.22C211.91 257.761 210.467 254.226 206.718 252.217C203.264 250.366 198.873 250.371 195.793 252.23C195.182 252.599 194.611 253.044 194.095 253.554L193.71 253.933L193.647 253.396C193.307 250.45 192.707 240.309 199.247 233.504C200.202 232.511 202.437 230.184 206.223 228.918C208.182 228.262 210.254 227.994 212.378 228.118C214.132 227.436 215.922 227.057 217.709 226.988C217.401 226.68 217.004 226.446 216.588 226.198C216.077 225.898 215.551 225.585 215.158 225.114C214.532 224.358 214.429 223.292 214.887 222.257C215.43 221.03 216.598 220.17 217.794 220.117C219.658 220.041 221.227 221.359 222.024 222.965C222.274 220.686 223.222 218.471 224.712 216.734C225.384 215.952 226.413 215.307 227.29 215.834C228.253 216.415 228.001 217.861 227.919 218.335L227.14 222.807C229.749 222.181 232.497 222.052 235.314 222.423C245.497 220.006 256.341 222.21 264.334 228.318C266.601 230.05 267.648 231.798 267.454 233.514L267.39 234.059L267.003 233.67C263.378 230.008 258.271 227.867 253.121 227.799C258.66 230.15 263.254 234.525 265.848 239.97C268.63 245.814 269.004 252.67 266.874 258.78C266.566 259.667 265.921 260.544 265.05 260.347L264.86 260.304L264.847 260.11C264.5 255.316 261.809 250.772 257.794 248.142C257.731 251.103 257.028 254.065 255.751 256.735L255.314 257.651L255.251 256.64C255.009 252.749 251.802 249.826 248.883 248.392C246.171 247.059 243.12 246.47 240.169 245.898C239.5 245.769 238.831 245.64 238.168 245.504C237.073 245.277 236.106 245.045 235.222 244.795C233.895 245.683 232.774 246.894 231.589 248.173C230.383 249.476 229.138 250.822 227.65 251.796C225.871 252.959 223.796 253.554 221.79 254.128C220.753 254.426 219.679 254.734 218.662 255.115C216.206 256.039 213.4 257.993 212.889 260.694V260.697ZM257.27 247.202L257.671 247.446C261.983 250.082 264.91 254.818 265.353 259.849C265.808 259.794 266.182 259.18 266.379 258.614C268.464 252.633 268.099 245.922 265.374 240.201C262.652 234.483 257.673 229.968 251.716 227.815L250.502 227.375L251.789 227.304C257.31 226.993 262.928 229.071 266.94 232.875C266.835 231.535 265.856 230.147 264.015 228.741C256.133 222.721 245.434 220.557 235.39 222.952L235.343 222.963L235.296 222.957C232.387 222.565 229.556 222.723 226.882 223.421L226.487 223.524L227.406 218.248C227.59 217.195 227.463 216.552 227.024 216.286C226.426 215.926 225.623 216.489 225.118 217.079C223.417 219.059 222.461 221.689 222.49 224.298L222.519 226.854L221.969 224.355C221.553 222.457 219.897 220.554 217.823 220.643C216.822 220.688 215.84 221.423 215.377 222.47C214.998 223.329 215.069 224.171 215.572 224.777C215.906 225.177 216.372 225.453 216.864 225.745C217.47 226.104 218.094 226.472 218.478 227.101L218.72 227.499H218.254C216.338 227.509 214.411 227.886 212.528 228.628L212.473 228.649H212.415C210.338 228.518 208.316 228.776 206.402 229.415C202.74 230.642 200.566 232.904 199.639 233.867C198.051 235.521 193.023 241.715 194.126 252.812C194.566 252.422 195.034 252.077 195.532 251.777C198.765 249.826 203.367 249.816 206.979 251.751C210.925 253.865 212.426 257.59 212.886 259.091L212.892 259.109C213.829 257.243 215.819 255.624 218.486 254.62C219.521 254.231 220.605 253.92 221.653 253.62C223.622 253.057 225.657 252.472 227.369 251.351C228.801 250.413 230.025 249.092 231.207 247.812C232.389 246.533 233.613 245.211 235.04 244.285L235.14 244.219L235.256 244.25C236.162 244.508 237.152 244.748 238.281 244.982C238.942 245.119 239.608 245.248 240.274 245.377C243.259 245.954 246.348 246.551 249.12 247.915C251.931 249.297 255.001 252.014 255.664 255.652C256.725 253.136 257.281 250.395 257.276 247.665V247.194L257.27 247.202Z" fill="#231F20"/>
<path d="M234.691 276.854C229.397 276.854 225.09 272.499 225.09 267.15C225.09 261.8 229.397 257.446 234.691 257.446C239.985 257.446 244.292 261.8 244.292 267.15C244.292 272.499 239.985 276.854 234.691 276.854ZM234.691 257.972C229.686 257.972 225.616 262.09 225.616 267.15C225.616 272.209 229.686 276.327 234.691 276.327C239.696 276.327 243.766 272.209 243.766 267.15C243.766 262.09 239.696 257.972 234.691 257.972Z" fill="#231F20"/>
<path d="M256.037 279.11C250.743 279.11 246.436 274.755 246.436 269.406C246.436 264.056 250.743 259.702 256.037 259.702C261.331 259.702 265.638 264.056 265.638 269.406C265.638 274.755 261.331 279.11 256.037 279.11ZM256.037 260.228C251.032 260.228 246.962 264.346 246.962 269.406C246.962 274.466 251.032 278.583 256.037 278.583C261.042 278.583 265.112 274.466 265.112 269.406C265.112 264.346 261.042 260.228 256.037 260.228Z" fill="#231F20"/>
<path d="M212.508 261.229L212.39 261.741L225.29 264.729L225.409 264.216L212.508 261.229Z" fill="#231F20"/>
<path d="M244.104 266.88L243.938 267.379L246.4 268.2L246.567 267.7L244.104 266.88Z" fill="#231F20"/>
<path d="M259.671 268.542L259.615 269.066L265.361 269.682L265.417 269.158L259.671 268.542Z" fill="#231F20"/>
<path d="M182.516 409.773C185.078 409.773 213.25 431.564 213.25 431.564L254.872 405.951L203.643 383.539L182.514 409.773H182.516Z" fill="white"/>
<path d="M213.234 431.885L213.089 431.775C201.792 423.037 184.33 410.037 182.516 410.037H181.966L203.564 383.215L203.748 383.297L255.438 405.911L213.231 431.885H213.234ZM182.979 409.621C187.197 411.161 209.922 428.663 213.268 431.248L254.309 405.993L203.725 383.863L182.979 409.621Z" fill="#231F20"/>
<path d="M182.514 409.774C181.087 388.596 199.171 383.6 199.171 383.6C180.134 374.796 159.907 378.603 159.907 378.603" fill="#F3EDE3"/>
<path d="M182.253 409.792C181.508 398.746 186.128 392.143 190.132 388.549C193.505 385.524 197.027 384.066 198.449 383.56C179.886 375.252 160.157 378.824 159.957 378.861L159.859 378.345C160.062 378.306 180.386 374.622 199.281 383.363L199.931 383.663L199.239 383.855C199.194 383.868 194.71 385.14 190.464 388.957C186.555 392.472 182.045 398.935 182.774 409.758L182.248 409.792H182.253Z" fill="#231F20"/>
<path d="M203.044 373.541L210.834 414.436L213.68 416.685L214.878 414.139L206.638 372.195C206.051 371.477 205.064 371.234 204.242 371.595C203.492 371.924 203.013 372.701 203.044 373.543V373.541Z" fill="#231F20"/>
<path d="M213.78 417.095L210.597 414.581L210.578 414.484L202.786 373.57V373.548C202.751 372.606 203.294 371.724 204.139 371.35C205.073 370.94 206.187 371.216 206.845 372.024L206.887 372.074L206.901 372.14L215.157 414.168L213.78 417.093V417.095ZM211.076 414.292L213.585 416.271L214.606 414.102L206.398 372.309C205.884 371.721 205.052 371.524 204.352 371.832C203.707 372.116 203.291 372.788 203.31 373.509L211.076 414.289V414.292Z" fill="#231F20"/>
<path d="M199.005 384.097C201.543 384.337 204.631 384.887 207.988 386.09C213.882 388.204 218.2 391.469 221.069 394.18C222.715 395.736 223.878 397.75 224.287 399.978C224.476 401.012 224.439 401.792 224.023 402.068C222.402 403.15 215.754 396.058 215.175 396.61C214.701 397.063 219.666 401.299 218.621 405.298C218.129 407.183 216.436 408.497 216.059 408.792C215.312 409.374 215.307 409.553 211.645 410.595C206.363 412.098 206.621 410.914 206.621 410.914C206.192 410.532 205.466 409.134 205.466 409.134C205.479 409.05 203.907 406.607 203.81 406.317C203.546 405.543 200.261 407.702 198.673 407.312C195.933 406.638 195.633 403.824 193.869 403.005C192.255 402.257 189.275 402.547 182.512 409.774C182.288 407.778 181.574 401.168 186.152 394.091C190.607 387.204 197.065 384.753 199.002 384.097H199.005Z" fill="#FCD1C7"/>
<path d="M207.671 411.616C207.12 411.616 206.741 411.519 206.539 411.327C206.439 411.235 206.389 411.127 206.37 411.032C205.92 410.561 205.309 409.395 205.238 409.258L205.199 409.181V409.171C205.107 408.994 204.783 408.468 204.517 408.033C203.98 407.159 203.643 406.607 203.572 406.422C203.366 406.349 202.505 406.67 201.932 406.886C200.799 407.309 199.515 407.791 198.62 407.57C196.935 407.157 196.119 405.98 195.4 404.94C194.908 404.229 194.444 403.561 193.768 403.247C191.527 402.207 187.91 404.403 182.713 409.955L182.323 410.371L182.26 409.803C181.618 404.053 182.858 398.716 185.943 393.946C190.056 387.588 195.845 384.89 198.93 383.845L198.983 383.826L199.038 383.831C202.142 384.124 205.185 384.798 208.084 385.838C212.954 387.583 217.385 390.324 221.258 393.986C223.006 395.639 224.146 397.692 224.551 399.928C224.783 401.191 224.659 401.963 224.175 402.284C223.117 402.992 220.787 401.189 217.854 398.756C217.035 398.077 216.056 397.266 215.548 396.961C215.698 397.197 215.945 397.532 216.177 397.837C217.469 399.572 219.634 402.476 218.881 405.359C218.544 406.646 217.625 407.904 216.224 408.992C216.161 409.042 216.103 409.087 216.048 409.131C215.429 409.626 215.119 409.874 211.72 410.843C209.922 411.353 208.568 411.611 207.671 411.611V411.616ZM206.889 410.935C206.947 411.003 207.544 411.49 211.575 410.342C214.874 409.405 215.155 409.179 215.719 408.728C215.774 408.684 215.835 408.636 215.9 408.586C217.209 407.57 218.062 406.409 218.37 405.235C219.06 402.597 216.99 399.82 215.753 398.161C215.018 397.174 214.681 396.724 214.997 396.423C215.379 396.06 216.066 396.6 218.188 398.358C220.01 399.87 223.059 402.397 223.88 401.852C224.041 401.744 224.272 401.365 224.03 400.028C223.643 397.903 222.558 395.95 220.892 394.375C217.072 390.766 212.702 388.062 207.9 386.34C205.059 385.322 202.076 384.658 199.038 384.366C196.005 385.401 190.379 388.049 186.378 394.236C183.463 398.743 182.231 403.769 182.718 409.176C186.122 405.588 190.814 401.302 193.984 402.771C194.789 403.145 195.292 403.871 195.826 404.643C196.524 405.651 197.248 406.693 198.738 407.062C199.475 407.244 200.731 406.772 201.739 406.396C202.808 405.996 203.43 405.78 203.803 405.954C203.927 406.012 204.014 406.112 204.059 406.238C204.109 406.375 204.622 407.209 204.959 407.76C205.493 408.628 205.665 408.913 205.715 409.044C205.923 409.442 206.481 410.44 206.797 410.719L206.913 410.821L206.889 410.935Z" fill="#231F20"/>
<path d="M235.313 402.544L208.902 420.019L209.193 420.458L235.604 402.983L235.313 402.544Z" fill="#231F20"/>
<path d="M205.451 425.517H168.841V426.043H205.451V425.517Z" fill="#231F20"/>
<path d="M195.269 418.503L169.938 418.676L169.942 419.202L195.273 419.03L195.269 418.503Z" fill="#231F20"/>
<path d="M170.896 412.966L170.865 413.491L189.725 414.602L189.755 414.076L170.896 412.966Z" fill="#231F20"/>
<path d="M214.976 409.592L214.497 409.373C215.908 406.267 210.985 400.436 210.935 400.375L211.335 400.033C211.548 400.283 216.526 406.18 214.976 409.589V409.592Z" fill="#231F20"/>
<path d="M210.174 410.951L209.694 410.732C211.103 407.633 206.343 402.384 206.293 402.331L206.68 401.976C206.888 402.202 211.724 407.536 210.171 410.951H210.174Z" fill="#231F20"/>
<path d="M257.604 297.794C257.446 297.825 255.087 292.713 255.087 292.713L257.604 297.794Z" fill="#FDB956"/>
<path d="M257.584 298.062C257.352 298.062 257.068 297.633 254.849 292.823L255.328 292.602C256.157 294.397 257.552 297.343 257.774 297.599C257.745 297.564 257.66 297.517 257.558 297.536L257.658 298.052C257.634 298.057 257.61 298.062 257.587 298.062H257.584Z" fill="#231F20"/>
<path d="M259.866 284.296L259.579 283.856C260.645 283.161 270.054 277.072 272.205 277.498L272.103 278.014C270.463 277.685 262.715 282.437 259.869 284.296H259.866Z" fill="#231F20"/>
<path d="M283.432 273.295L276.479 276.031L276.672 276.521L283.625 273.785L283.432 273.295Z" fill="#231F20"/>
<path d="M279.839 266.569L265.513 272.468L265.713 272.955L280.039 267.056L279.839 266.569Z" fill="#231F20"/>
<path d="M274.988 258.361L261.292 264.678L261.513 265.156L275.208 258.839L274.988 258.361Z" fill="#231F20"/>
<path d="M273.105 249.261L268.259 251.367L268.469 251.85L273.315 249.744L273.105 249.261Z" fill="#231F20"/>
<path d="M262.753 253.736L260.856 254.789L261.112 255.249L263.009 254.196L262.753 253.736Z" fill="#231F20"/>
<path d="M270.982 243.577L267.612 245.262L267.848 245.733L271.217 244.048L270.982 243.577Z" fill="#231F20"/>
<path d="M268.706 237.465L265.336 238.518L265.493 239.02L268.863 237.968L268.706 237.465Z" fill="#231F20"/>
<path d="M367.324 258.196C367.324 258.196 342.951 275.421 357.217 337.21L354.003 342.207C354.003 342.207 338.333 282.424 367.324 258.196Z" fill="#231F20"/>
<path d="M449.263 302.103C443.226 337.463 418.79 347.525 392.916 356.439C367.042 365.35 355.853 380.715 355.853 380.715C356.451 360.14 331.106 346.09 331.106 346.09C332.831 344.939 402.401 309.867 402.401 309.867C402.401 309.867 402.688 259.844 416.202 251.796" fill="#6AA393"/>
<path d="M355.564 381.554L355.588 380.704C355.893 370.176 349.198 361.396 343.528 355.883C337.362 349.891 331.038 346.353 330.975 346.319L330.599 346.108L330.959 345.869C332.655 344.739 397.716 311.931 402.138 309.701C402.154 308.19 402.336 296.364 403.971 283.812C406.319 265.796 410.387 254.947 416.063 251.564L416.331 252.017C403.102 259.899 402.662 309.364 402.66 309.864V310.025L402.515 310.099C401.844 310.438 337.404 342.925 331.628 346.087C333.121 346.966 338.56 350.323 343.883 355.494C349.493 360.946 356.093 369.56 356.122 379.933C357.17 378.643 359.919 375.481 364.51 371.708C370.028 367.175 379.421 360.801 392.824 356.183C405.769 351.724 418.227 347.053 428.357 338.976C439.522 330.075 446.275 317.997 448.997 302.053L449.516 302.143C446.77 318.22 439.957 330.404 428.686 339.39C418.49 347.519 405.985 352.208 392.995 356.681C379.677 361.267 370.344 367.599 364.86 372.1C358.918 376.979 356.088 380.822 356.062 380.862L355.562 381.549L355.564 381.554Z" fill="#231F20"/>
<path d="M408.914 306.716L402.301 309.59L402.511 310.073L409.124 307.199L408.914 306.716Z" fill="#231F20"/>
<path d="M549 377.913H507.075V378.44H549V377.913Z" fill="#231F20"/>
<path d="M351.439 377.913H344.202V378.44H351.439V377.913Z" fill="#231F20"/>
<path d="M314.885 377.913H312.231V378.44H314.885V377.913Z" fill="#231F20"/>
<path d="M303.237 377.913H298.348V378.44H303.237V377.913Z" fill="#231F20"/>
<path d="M412.144 349.125C412.144 349.125 405.789 355.48 397.314 358.129C388.84 360.777 362.874 377.371 362.874 377.371L362.068 373.941C362.068 373.941 372.357 364.192 392.915 356.439C405.971 351.516 412.144 349.125 412.144 349.125Z" fill="#231F20"/>
<path d="M330.716 345.974C330.574 346.156 330.061 346.861 330.103 347.885C330.143 348.899 330.698 349.554 330.853 349.728C332.043 349.125 333.236 348.522 334.426 347.919C333.189 347.272 331.954 346.622 330.716 345.974Z" fill="#231F20"/>
<path d="M389.984 231.801C384.434 231.801 379.919 227.286 379.919 221.736C379.919 218.719 381.256 215.886 383.589 213.964L383.923 214.37C381.714 216.192 380.445 218.874 380.445 221.736C380.445 226.996 384.724 231.274 389.984 231.274C395.244 231.274 399.522 226.996 399.522 221.736C399.522 216.476 395.244 212.198 389.984 212.198V211.671C395.533 211.671 400.048 216.186 400.048 221.736C400.048 227.286 395.533 231.801 389.984 231.801Z" fill="#F47B20"/>
<path d="M334.651 248.118C329.101 248.118 324.586 243.603 324.586 238.054C324.586 235.037 325.923 232.204 328.256 230.282L328.59 230.687C326.381 232.509 325.112 235.192 325.112 238.054C325.112 243.314 329.391 247.592 334.651 247.592C336.562 247.592 338.405 247.028 339.984 245.962L340.279 246.399C338.615 247.523 336.667 248.118 334.651 248.118Z" fill="#F47B20"/>
<path d="M282 420.704L324.394 404.05L298.346 378.177L256.166 385.572L282 420.704Z" fill="white"/>
<path d="M281.908 421.023L281.787 420.86L255.7 385.385L256.119 385.311L298.434 377.892L298.531 377.99L324.865 404.148L281.908 421.023ZM256.63 385.759L282.093 420.386L323.923 403.953L298.257 378.458L256.63 385.759Z" fill="#231F20"/>
<path d="M273.479 383.694C274.097 385.5 274.882 385.927 275.106 386.035C276.543 386.732 278.346 385.695 279.405 384.787C280.568 383.786 281.205 382.146 280.829 380.659C280.597 382.062 280.729 383.602 281.577 384.745C282.424 385.887 284.117 386.459 285.344 385.737C286.876 384.832 286.91 382.665 286.755 380.893C287.137 382.754 287.698 384.858 289.39 385.719C290.578 386.322 292.139 386.072 293.076 385.129C294.016 384.187 294.258 382.623 293.65 381.441C293.366 382.697 293.629 384.147 294.6 384.99C295.572 385.835 297.301 385.771 297.983 384.682C298.41 384.002 298.36 383.141 298.357 382.341C298.349 380.446 298.66 378.474 297.965 376.71C297.352 375.151 295.943 373.93 294.311 373.545C292.681 373.161 290.875 373.622 289.627 374.741C287.239 373.243 283.846 373.595 281.819 375.554C281.079 374.591 279.965 373.969 278.773 373.743C278.546 373.701 276.806 373.395 275.277 374.319C272.36 376.083 272.528 380.93 273.476 383.692L273.479 383.694Z" fill="#FCD1C7"/>
<path d="M276.145 386.53C275.758 386.53 275.368 386.454 274.992 386.272C274.497 386.032 273.789 385.403 273.23 383.781C272.225 380.849 272.154 375.907 275.144 374.099C276.711 373.151 278.485 373.425 278.825 373.488C280.036 373.717 281.097 374.312 281.847 375.173C283.943 373.332 287.191 373.011 289.603 374.417C290.909 373.33 292.717 372.898 294.373 373.29C296.092 373.696 297.564 374.97 298.212 376.615C298.759 378.005 298.704 379.514 298.654 380.972C298.638 381.423 298.622 381.891 298.622 382.341V382.547C298.63 383.329 298.638 384.137 298.209 384.824C297.877 385.353 297.314 385.701 296.627 385.803C295.829 385.922 295.008 385.693 294.429 385.19C294.205 384.995 294.013 384.766 293.849 384.508C293.697 384.803 293.499 385.077 293.262 385.316C292.241 386.343 290.561 386.612 289.269 385.956C288.108 385.366 287.457 384.263 287.033 383.031C286.915 384.213 286.515 385.351 285.475 385.964C284.048 386.806 282.229 386.069 281.363 384.903C281.07 384.511 280.849 384.055 280.699 383.555C280.425 384.092 280.046 384.584 279.575 384.99C279.088 385.409 277.637 386.535 276.145 386.535V386.53ZM277.811 373.925C277.15 373.925 276.247 374.043 275.416 374.546C272.675 376.205 272.78 380.843 273.728 383.608C274.252 385.135 274.889 385.635 275.221 385.795C276.448 386.39 278.096 385.559 279.233 384.584C279.846 384.055 280.286 383.363 280.51 382.626C280.433 381.999 280.454 381.323 280.57 380.614L280.776 379.372L281.084 380.593C281.252 381.262 281.231 381.975 281.044 382.663C281.134 383.313 281.347 383.995 281.787 384.587C282.518 385.574 284.069 386.18 285.209 385.509C286.646 384.661 286.628 382.481 286.491 380.915L287.012 380.838C287.386 382.663 287.921 384.674 289.511 385.482C290.585 386.03 292.041 385.798 292.891 384.943C293.186 384.648 293.404 384.282 293.544 383.884C293.26 383.136 293.199 382.257 293.397 381.381L293.557 380.675L293.889 381.32C294.292 382.104 294.352 383.034 294.107 383.874C294.271 384.234 294.494 384.548 294.776 384.792C295.232 385.19 295.911 385.377 296.55 385.282C297.085 385.203 297.517 384.94 297.764 384.545C298.114 383.989 298.106 383.26 298.099 382.552V382.344C298.096 381.881 298.112 381.409 298.127 380.954C298.177 379.548 298.23 378.095 297.722 376.808C297.138 375.32 295.808 374.17 294.252 373.804C292.699 373.438 290.996 373.872 289.806 374.938L289.658 375.07L289.49 374.965C287.22 373.54 283.932 373.885 282.002 375.747L281.789 375.952L281.61 375.718C280.934 374.838 279.909 374.23 278.725 374.006C278.601 373.983 278.261 373.927 277.811 373.927V373.925Z" fill="#231F20"/>
<path d="M354.574 371.358C354.574 371.358 346.926 377.729 340.884 379.743C340.884 379.743 344.049 383.197 342.611 385.211C341.174 387.225 335.419 388.088 335.129 387.225C334.84 386.361 333.263 388.68 329.122 386.859C329.122 386.859 325.641 387.025 324.151 386.361C324.151 386.361 319.347 388.183 317.027 383.71C314.708 379.237 314.044 375.259 314.044 375.259L306.557 386.635C305.573 388.133 303.78 388.954 302.024 388.594C300.326 388.243 299.033 386.822 301.121 382.386C303.674 376.96 307.663 369.004 310.19 364.005C311.717 360.985 314.15 358.518 317.148 356.952L333.618 347.851C333.618 347.851 344.804 353.59 354.577 371.36L354.574 371.358Z" fill="#FCD1C7"/>
<path d="M302.841 388.939C302.549 388.939 302.257 388.91 301.967 388.849C301.048 388.66 300.409 388.215 300.064 387.525C299.498 386.393 299.771 384.626 300.88 382.27C303.37 376.976 307.188 369.349 309.952 363.884C311.513 360.796 313.959 358.318 317.023 356.715L333.612 347.548L333.735 347.611C333.849 347.669 345.106 353.59 354.805 371.229L354.91 371.418L354.744 371.558C354.668 371.621 347.296 377.729 341.338 379.864C342.091 380.777 344.129 383.539 342.826 385.361C341.546 387.151 337.313 388.023 335.681 387.778C335.225 387.709 334.965 387.554 334.881 387.304C334.873 387.28 334.867 387.272 334.867 387.272C334.828 387.264 334.575 387.354 334.378 387.422C333.48 387.733 331.819 388.312 329.073 387.12C328.591 387.141 325.616 387.233 324.142 386.638C323.41 386.875 319 388.083 316.794 383.826C315.022 380.409 314.204 377.242 313.914 375.933L306.777 386.775C305.884 388.131 304.379 388.933 302.844 388.933L302.841 388.939ZM333.62 348.148L317.276 357.181C314.304 358.734 311.937 361.133 310.426 364.123C307.664 369.586 303.847 377.208 301.359 382.497C300.324 384.698 300.048 386.311 300.538 387.291C300.806 387.83 301.325 388.181 302.075 388.336C303.676 388.665 305.392 387.925 306.335 386.49L314.191 374.554L314.301 375.215C314.309 375.254 314.986 379.206 317.258 383.587C319.44 387.796 323.868 386.182 324.055 386.111L324.155 386.074L324.255 386.119C325.672 386.748 329.073 386.596 329.107 386.593H329.17L329.226 386.614C331.814 387.754 333.367 387.214 334.201 386.925C334.588 386.791 334.87 386.693 335.11 386.812C335.233 386.872 335.325 386.983 335.376 387.138C335.378 387.138 335.526 387.291 336.297 387.291C336.305 387.291 336.313 387.291 336.321 387.291C338.15 387.283 341.425 386.409 342.394 385.053C343.692 383.236 340.717 379.951 340.688 379.917L340.414 379.617L340.799 379.488C346.235 377.676 353.083 372.224 354.236 371.287C345.182 354.92 334.849 348.828 333.617 348.143L333.62 348.148Z" fill="#231F20"/>
<path d="M314.262 375.41L313.827 375.112C315.33 372.922 317.608 369.584 317.726 369.368L318.195 369.605C318.071 369.852 314.896 374.483 314.262 375.41Z" fill="#231F20"/>
<path d="M323.91 386.464C322.451 383.089 321.043 378.245 322.615 374.333C323.568 371.956 325.155 371.063 325.224 371.026L325.476 371.487C325.416 371.521 319.513 374.962 324.392 386.256L323.907 386.464H323.91Z" fill="#231F20"/>
<path d="M328.867 386.927C326.087 376.66 332.771 372.211 332.839 372.166L333.124 372.608C333.058 372.651 326.697 376.908 329.375 386.791L328.867 386.927Z" fill="#231F20"/>
<path d="M334.899 387.349C330.713 379.509 337.253 372.938 337.319 372.872L337.687 373.248C337.624 373.312 331.364 379.612 335.363 387.101L334.899 387.349Z" fill="#231F20"/>
<path d="M306.181 385.95C305.826 384.437 305.191 383.51 304.296 383.197C302.719 382.644 300.784 384.137 300.766 384.152L300.439 383.739C300.526 383.671 302.617 382.051 304.467 382.699C305.544 383.076 306.292 384.129 306.692 385.829L306.179 385.95H306.181Z" fill="#231F20"/>
<path d="M273.979 397.477L301.559 389.302L311.605 399.741L285.8 410.182L273.979 397.477Z" fill="#FDB956"/>
<path d="M285.73 410.495L285.606 410.364L273.496 397.348L301.637 389.005L312.065 399.841L285.727 410.495H285.73ZM274.462 397.608L285.87 409.871L311.148 399.646L301.481 389.6L274.462 397.608Z" fill="#231F20"/>
<path d="M296.086 386.57L272.149 393.065L272.287 393.573L296.224 387.078L296.086 386.57Z" fill="#231F20"/>
<path d="M282.181 385.49L270.658 389.138L270.817 389.64L282.34 385.992L282.181 385.49Z" fill="#231F20"/>
<g clip-path="url(#clip0_669_18983)">
<path d="M144.102 342.294H57.0244V343.153H144.102V342.294Z" fill="#231F20"/>
<path d="M75.4145 350.566C79.482 350.566 82.7793 347.269 82.7793 343.202C82.7793 339.134 79.482 335.837 75.4145 335.837C71.3471 335.837 68.0498 339.134 68.0498 343.202C68.0498 347.269 71.3471 350.566 75.4145 350.566Z" fill="#9BCDEE"/>
<path d="M75.4142 350.996C71.1179 350.996 67.6201 347.501 67.6201 343.202C67.6201 338.902 71.115 335.407 75.4142 335.407C79.7134 335.407 83.2083 338.902 83.2083 343.202C83.2083 347.501 79.7134 350.996 75.4142 350.996ZM75.4142 336.269C71.5901 336.269 68.4788 339.38 68.4788 343.204C68.4788 347.028 71.5901 350.14 75.4142 350.14C79.2382 350.14 82.3496 347.028 82.3496 343.204C82.3496 339.38 79.2382 336.269 75.4142 336.269Z" fill="#231F20"/>
<path d="M92.2593 350.566C96.3267 350.566 99.624 347.269 99.624 343.202C99.624 339.134 96.3267 335.837 92.2593 335.837C88.1918 335.837 84.8945 339.134 84.8945 343.202C84.8945 347.269 88.1918 350.566 92.2593 350.566Z" fill="#27AAE1"/>
<path d="M92.2594 350.853C88.0403 350.853 84.6084 347.421 84.6084 343.202C84.6084 338.983 88.0403 335.551 92.2594 335.551C96.4784 335.551 99.9103 338.983 99.9103 343.202C99.9103 347.421 96.4784 350.853 92.2594 350.853ZM92.2594 336.126C88.3552 336.126 85.1809 339.3 85.1809 343.204C85.1809 347.109 88.3552 350.283 92.2594 350.283C96.1635 350.283 99.3378 347.109 99.3378 343.204C99.3378 339.3 96.1635 336.126 92.2594 336.126Z" fill="#231F20"/>
<path d="M109.104 350.566C113.171 350.566 116.469 347.269 116.469 343.202C116.469 339.134 113.171 335.837 109.104 335.837C105.037 335.837 101.739 339.134 101.739 343.202C101.739 347.269 105.037 350.566 109.104 350.566Z" fill="#7D8FC7"/>
<path d="M109.104 350.996C104.807 350.996 101.31 347.501 101.31 343.202C101.31 338.902 104.804 335.407 109.104 335.407C113.403 335.407 116.898 338.902 116.898 343.202C116.898 347.501 113.403 350.996 109.104 350.996ZM109.104 336.269C105.28 336.269 102.168 339.38 102.168 343.204C102.168 347.028 105.28 350.14 109.104 350.14C112.928 350.14 116.039 347.028 116.039 343.204C116.039 339.38 112.928 336.269 109.104 336.269Z" fill="#231F20"/>
<path d="M144.102 363.501H57.0244V364.36H144.102V363.501Z" fill="#231F20"/>
<path d="M99.6235 371.773C103.691 371.773 106.988 368.476 106.988 364.408C106.988 360.341 103.691 357.044 99.6235 357.044C95.5561 357.044 92.2588 360.341 92.2588 364.408C92.2588 368.476 95.5561 371.773 99.6235 371.773Z" fill="#FDB956"/>
<path d="M99.6236 372.059C95.4046 372.059 91.9727 368.627 91.9727 364.408C91.9727 360.189 95.4046 356.757 99.6236 356.757C103.843 356.757 107.275 360.189 107.275 364.408C107.275 368.627 103.843 372.059 99.6236 372.059ZM99.6236 357.33C95.7194 357.33 92.5451 360.504 92.5451 364.408C92.5451 368.313 95.7194 371.487 99.6236 371.487C103.528 371.487 106.702 368.313 106.702 364.408C106.702 360.504 103.528 357.33 99.6236 357.33Z" fill="#231F20"/>
<path d="M125.756 371.773C129.824 371.773 133.121 368.476 133.121 364.408C133.121 360.341 129.824 357.044 125.756 357.044C121.689 357.044 118.392 360.341 118.392 364.408C118.392 368.476 121.689 371.773 125.756 371.773Z" fill="#F47B20"/>
<path d="M125.756 372.059C121.537 372.059 118.105 368.627 118.105 364.408C118.105 360.189 121.537 356.757 125.756 356.757C129.975 356.757 133.407 360.189 133.407 364.408C133.407 368.627 129.975 372.059 125.756 372.059ZM125.756 357.33C121.852 357.33 118.678 360.504 118.678 364.408C118.678 368.313 121.852 371.487 125.756 371.487C129.661 371.487 132.835 368.313 132.835 364.408C132.835 360.504 129.661 357.33 125.756 357.33Z" fill="#231F20"/>
<path d="M144.102 384.705H57.0244V385.564H144.102V384.705Z" fill="#231F20"/>
<path d="M75.4145 392.98C79.482 392.98 82.7793 389.683 82.7793 385.615C82.7793 381.548 79.482 378.251 75.4145 378.251C71.3471 378.251 68.0498 381.548 68.0498 385.615C68.0498 389.683 71.3471 392.98 75.4145 392.98Z" fill="#6AA393"/>
<path d="M75.4146 393.266C71.1956 393.266 67.7637 389.834 67.7637 385.615C67.7637 381.396 71.1956 377.964 75.4146 377.964C79.6337 377.964 83.0656 381.396 83.0656 385.615C83.0656 389.834 79.6337 393.266 75.4146 393.266ZM75.4146 378.537C71.5104 378.537 68.3361 381.711 68.3361 385.615C68.3361 389.52 71.5104 392.694 75.4146 392.694C79.3188 392.694 82.4931 389.52 82.4931 385.615C82.4931 381.711 79.3188 378.537 75.4146 378.537Z" fill="#231F20"/>
<path d="M92.2593 392.98C96.3267 392.98 99.624 389.683 99.624 385.615C99.624 381.548 96.3267 378.251 92.2593 378.251C88.1918 378.251 84.8945 381.548 84.8945 385.615C84.8945 389.683 88.1918 392.98 92.2593 392.98Z" fill="#6AA393"/>
<path d="M92.2594 393.266C88.0403 393.266 84.6084 389.834 84.6084 385.615C84.6084 381.396 88.0403 377.964 92.2594 377.964C96.4784 377.964 99.9103 381.396 99.9103 385.615C99.9103 389.834 96.4784 393.266 92.2594 393.266ZM92.2594 378.537C88.3552 378.537 85.1809 381.711 85.1809 385.615C85.1809 389.52 88.3552 392.694 92.2594 392.694C96.1635 392.694 99.3378 389.52 99.3378 385.615C99.3378 381.711 96.1635 378.537 92.2594 378.537Z" fill="#231F20"/>
<path d="M144.102 405.912H57.0244V406.771H144.102V405.912Z" fill="#231F20"/>
<path d="M86.0102 414.184C90.0777 414.184 93.375 410.887 93.375 406.819C93.375 402.752 90.0777 399.454 86.0102 399.454C81.9428 399.454 78.6455 402.752 78.6455 406.819C78.6455 410.887 81.9428 414.184 86.0102 414.184Z" fill="#FDB956"/>
<path d="M86.0103 414.47C81.7913 414.47 78.3594 411.038 78.3594 406.819C78.3594 402.6 81.7913 399.168 86.0103 399.168C90.2294 399.168 93.6613 402.6 93.6613 406.819C93.6613 411.038 90.2294 414.47 86.0103 414.47ZM86.0103 399.741C82.1061 399.741 78.9318 402.915 78.9318 406.819C78.9318 410.723 82.1061 413.898 86.0103 413.898C89.9145 413.898 93.0888 410.723 93.0888 406.819C93.0888 402.915 89.9145 399.741 86.0103 399.741Z" fill="#231F20"/>
<path d="M102.332 414.184C106.399 414.184 109.696 410.887 109.696 406.819C109.696 402.752 106.399 399.454 102.332 399.454C98.2641 399.454 94.9668 402.752 94.9668 406.819C94.9668 410.887 98.2641 414.184 102.332 414.184Z" fill="#F47B20"/>
<path d="M102.332 414.47C98.1126 414.47 94.6807 411.038 94.6807 406.819C94.6807 402.6 98.1126 399.168 102.332 399.168C106.551 399.168 109.983 402.6 109.983 406.819C109.983 411.038 106.551 414.47 102.332 414.47ZM102.332 399.741C98.4274 399.741 95.2531 402.915 95.2531 406.819C95.2531 410.723 98.4274 413.898 102.332 413.898C106.236 413.898 109.41 410.723 109.41 406.819C109.41 402.915 106.236 399.741 102.332 399.741Z" fill="#231F20"/>
<path d="M129.246 414.184C133.313 414.184 136.61 410.887 136.61 406.819C136.61 402.752 133.313 399.454 129.246 399.454C125.178 399.454 121.881 402.752 121.881 406.819C121.881 410.887 125.178 414.184 129.246 414.184Z" fill="#7D8FC7"/>
<path d="M129.246 414.613C124.95 414.613 121.452 411.119 121.452 406.819C121.452 402.52 124.947 399.025 129.246 399.025C133.545 399.025 137.04 402.52 137.04 406.819C137.04 411.119 133.545 414.613 129.246 414.613ZM129.246 399.884C125.422 399.884 122.311 402.995 122.311 406.819C122.311 410.643 125.422 413.755 129.246 413.755C133.07 413.755 136.182 410.643 136.182 406.819C136.182 402.995 133.07 399.884 129.246 399.884Z" fill="#231F20"/>
<path d="M61.8843 331.266C61.8843 327.995 59.2336 325.344 55.9637 325.344C52.6938 325.344 50.043 327.995 50.043 331.266V420.47C50.043 423.74 52.6938 426.392 55.9637 426.392C59.2336 426.392 61.8843 423.74 61.8843 420.47V331.266Z" fill="#FDB956"/>
<path d="M55.9652 426.678C52.5419 426.678 49.7568 423.893 49.7568 420.47V331.266C49.7568 327.842 52.5419 325.057 55.9652 325.057C59.3885 325.057 62.1735 327.842 62.1735 331.266V420.473C62.1735 423.896 59.3885 426.681 55.9652 426.681V426.678ZM55.9652 325.63C52.8567 325.63 50.3293 328.157 50.3293 331.266V420.473C50.3293 423.578 52.8567 426.108 55.9652 426.108C59.0737 426.108 61.6011 423.581 61.6011 420.473V331.266C61.6011 328.16 59.0737 325.63 55.9652 325.63Z" fill="#231F20"/>
<path d="M150.748 331.266C150.748 327.995 148.097 325.344 144.827 325.344C141.557 325.344 138.906 327.995 138.906 331.266V420.47C138.906 423.74 141.557 426.392 144.827 426.392C148.097 426.392 150.748 423.74 150.748 420.47V331.266Z" fill="#FDB956"/>
<path d="M144.828 426.678C141.405 426.678 138.62 423.893 138.62 420.47V331.266C138.62 327.842 141.405 325.057 144.828 325.057C148.252 325.057 151.037 327.842 151.037 331.266V420.473C151.037 423.896 148.252 426.681 144.828 426.681V426.678ZM144.828 325.63C141.723 325.63 139.193 328.157 139.193 331.266V420.473C139.193 423.578 141.72 426.108 144.828 426.108C147.937 426.108 150.464 423.581 150.464 420.473V331.266C150.464 328.16 147.937 325.63 144.828 325.63Z" fill="#231F20"/>
</g>
<path d="M357.376 408.675H416.263V416.95H349.102C349.102 412.384 352.808 408.675 357.376 408.675Z" fill="#454E68"/>
<path d="M416.529 417.213H348.841V416.949C348.841 412.242 352.671 408.412 357.379 408.412H416.529V417.213ZM349.37 416.686H416V408.938H357.376C353.048 408.938 349.51 412.39 349.37 416.686Z" fill="#231F20"/>
<path d="M495.743 417.2H400.03L421.95 340.484C423.287 335.806 427.563 332.581 432.428 332.581H517.086C522.036 332.581 525.608 337.317 524.25 342.077L504.721 410.434C503.575 414.441 499.913 417.202 495.746 417.202L495.743 417.2Z" fill="#7D8FC7"/>
<path d="M495.744 417.463H399.681L421.695 340.41C423.056 335.645 427.471 332.315 432.428 332.315H517.087C519.53 332.315 521.773 333.434 523.244 335.382C524.716 337.333 525.174 339.797 524.503 342.145L504.974 410.502C503.802 414.601 500.009 417.463 495.746 417.463H495.744ZM400.381 416.936H495.744C499.772 416.936 503.36 414.23 504.466 410.357L523.995 342C524.621 339.813 524.192 337.517 522.823 335.7C521.454 333.884 519.361 332.841 517.087 332.841H432.428C427.705 332.841 423.501 336.014 422.203 340.555L400.381 416.936Z" fill="#231F20"/>
<path d="M466.149 379.763C470.976 379.763 474.929 376.18 474.929 371.712C474.929 367.244 470.976 363.662 466.149 363.662C461.323 363.662 457.37 367.244 457.37 371.712C457.37 376.18 461.323 379.763 466.149 379.763Z" fill="#F3EDE3" stroke="#231F20" stroke-width="0.526532"/>
<defs>
<clipPath id="clip0_669_18983">
<rect width="101.277" height="101.621" fill="white" transform="translate(49.7568 325.057)"/>
</clipPath>
</defs>
</svg>
