<svg width="600" height="600" viewBox="0 0 600 600" fill="none" xmlns="http://www.w3.org/2000/svg">
<path d="M159.152 377.375C159.152 377.375 146.776 425.784 136.948 460H220.664L228.308 369.368L159.149 377.375H159.152Z" fill="#231F20"/>
<path d="M125.992 382.465C121.217 389.39 120.732 394.422 121.306 397.856C121.702 400.213 122.818 403.145 121.635 404.025C120.449 404.905 117.786 403.107 117.301 402.77C113.746 400.283 112.838 395.94 112.566 393.984C105.91 402.6 104.236 407.159 104.04 409.75C104.002 410.263 103.846 412.981 102.47 413.504C101.607 413.83 100.955 413.039 99.4605 413.325C98.1534 413.576 98.0409 414.297 97.2041 414.202C95.9836 414.061 95.9461 412.488 94.4283 412.009C93.4415 411.697 93.2222 412.292 92.0536 412.058C90.7234 411.795 89.523 410.734 88.9661 409.545C88.1957 407.9 89.0411 406.85 88.3025 406.218C87.3301 405.384 85.6132 406.991 84.0291 406.33C82.4883 405.69 82.1016 403.341 81.8737 401.861C81.4409 399.022 81.6226 395.343 83.6973 390.434C85.3478 386.533 87.4253 383.685 89.1219 381.625C91.941 378.203 97.0743 372.868 105.5 368.156C106.409 369.085 107.372 370.011 108.388 370.932C114.274 376.258 120.423 379.917 125.992 382.465Z" fill="#FCD1C7"/>
<path d="M97.3496 414.496C97.2919 414.496 97.2313 414.494 97.1678 414.485C96.4406 414.401 96.0655 413.899 95.7048 413.417C95.3672 412.964 95.0181 412.497 94.3371 412.283C93.913 412.151 93.6677 412.211 93.359 412.286C93.0185 412.37 92.6318 412.465 91.9941 412.341C90.6495 412.075 89.328 410.999 88.7018 409.666C88.2777 408.763 88.3094 408.004 88.3325 407.45C88.3556 406.911 88.3556 406.642 88.1103 406.434C87.7439 406.12 87.1552 406.287 86.4714 406.483C85.6865 406.709 84.7978 406.962 83.912 406.596C82.1894 405.88 81.7941 403.292 81.5834 401.904C81.0381 398.332 81.6411 394.543 83.4272 390.322C85.1758 386.19 87.3832 383.276 88.8923 381.441C93.2811 376.111 98.8183 371.555 105.351 367.902L105.544 367.795L105.7 367.954C106.629 368.9 107.596 369.83 108.577 370.718C113.71 375.364 119.608 379.227 126.109 382.202L126.421 382.347L126.224 382.629C122.392 388.19 120.831 393.297 121.585 397.81C121.68 398.375 121.818 398.99 121.954 399.584C122.413 401.59 122.843 403.48 121.798 404.259C120.5 405.225 117.894 403.546 117.126 403.009C115.384 401.789 113.188 399.368 112.374 394.696C107.281 401.368 104.569 406.44 104.318 409.776V409.831C104.151 412.07 103.562 413.4 102.561 413.778C102.067 413.965 101.64 413.853 101.19 413.732C100.737 413.611 100.226 413.475 99.505 413.613C98.9164 413.726 98.599 413.942 98.3162 414.13C98.0334 414.32 97.7622 414.502 97.3438 414.502L97.3496 414.496ZM93.8726 411.625C94.0572 411.625 94.265 411.654 94.5103 411.732C95.3672 412 95.7914 412.569 96.1665 413.071C96.4955 413.51 96.7523 413.856 97.2341 413.914C97.5487 413.951 97.7189 413.836 98.0017 413.645C98.3133 413.435 98.7 413.175 99.404 413.039C100.255 412.875 100.861 413.039 101.346 413.166C101.753 413.276 102.044 413.351 102.364 413.23C102.797 413.065 103.553 412.399 103.747 409.779V409.724C104.021 406.186 106.909 400.828 112.337 393.802L112.758 393.259L112.853 393.94C113.228 396.65 114.333 400.337 117.467 402.53C118.817 403.477 120.676 404.374 121.463 403.791C122.205 403.24 121.795 401.445 121.4 399.711C121.261 399.111 121.12 398.488 121.022 397.905C120.254 393.317 121.781 388.167 125.564 382.586C119.132 379.605 113.292 375.759 108.196 371.148C107.261 370.303 106.338 369.417 105.449 368.517C99.0606 372.118 93.6446 376.587 89.3453 381.81C87.8593 383.616 85.6837 386.484 83.9639 390.547C82.2211 394.665 81.6296 398.352 82.1576 401.818C82.3538 403.096 82.7145 405.474 84.137 406.065C84.8382 406.357 85.5884 406.14 86.3156 405.932C87.0889 405.71 87.8853 405.482 88.4883 405.999C88.9558 406.4 88.9327 406.922 88.9096 407.476C88.8865 408.024 88.8605 408.645 89.2241 409.424C89.7752 410.598 90.9323 411.545 92.1067 411.778C92.6174 411.879 92.9117 411.807 93.2205 411.729C93.4196 411.68 93.6244 411.628 93.8726 411.628V411.625Z" fill="#231F20"/>
<path d="M99.1667 413.334C98.9359 407.167 100.084 400.906 102.488 395.224L103.019 395.45C100.65 401.053 99.5159 407.231 99.7438 413.313L99.1667 413.334Z" fill="#231F20"/>
<path d="M94.5348 411.859L94.1943 411.395C94.5492 411.135 94.7281 410.604 94.6733 409.975C94.6473 409.672 94.5781 409.372 94.506 409.057C94.4396 408.766 94.3703 408.463 94.3357 408.151C94.2809 407.638 94.3184 407.13 94.3559 406.639C94.6618 402.704 95.0427 397.801 97.8704 394.246L98.3205 394.604C95.6024 398.02 95.2302 402.825 94.9301 406.683C94.8955 407.147 94.858 407.626 94.907 408.085C94.9388 408.362 94.9994 408.636 95.0657 408.925C95.1379 409.245 95.2129 409.577 95.2446 409.92C95.3168 410.754 95.0513 411.475 94.5319 411.856L94.5348 411.859Z" fill="#231F20"/>
<path d="M88.5908 408.924L88.4436 407.034C88.2186 404.149 89.0525 401.232 89.7912 398.661C90.6597 395.628 91.6379 392.78 94.0559 391.219L94.3675 391.704C92.1197 393.152 91.1819 395.896 90.3452 398.817C89.644 401.266 88.9197 403.794 88.9861 406.365L89.165 406.405L88.5908 408.921V408.924Z" fill="#231F20"/>
<path d="M225.008 204.669C240.555 219.399 243.562 224.241 242.624 225.493C241.917 226.434 239.133 225.141 238.354 226.252C237.156 227.963 242.041 233.48 246.739 238.206C239.975 243.694 230.817 245.045 223.055 241.669C212.739 237.182 210.2 226.656 209.952 225.545L225.008 204.669Z" fill="#2C1B18"/>
<path d="M200.87 166.209C200.87 166.209 245.531 169.201 242.487 210.059C242.175 214.254 240.721 218.308 238.138 221.629C235.195 225.412 230.296 229.1 222.462 228.71L228.443 240.884C228.443 240.884 226.178 263.945 195.108 252.412C195.517 240.751 196.057 231.824 196.467 220.161C195.035 221.185 190.153 221.618 186.267 220.045C179.454 217.29 178.216 201.137 184.645 197.53C188.151 195.562 193.437 194.472 198.108 198.073C198.948 186.45 200.033 177.828 200.876 166.206L200.87 166.209Z" fill="#E5AE9F"/>
<path d="M210.518 255.94C206.034 255.94 200.852 254.855 195.003 252.683L194.807 252.611L194.816 252.403C195.021 246.571 195.263 241.337 195.494 236.276C195.719 231.365 195.953 226.292 196.155 220.669C194.279 221.531 189.858 221.817 186.154 220.319C182.884 218.998 180.538 214.52 180.184 208.913C179.84 203.512 181.534 198.947 184.5 197.282C186.229 196.312 192.196 193.531 197.854 197.533C198.267 191.932 198.74 186.946 199.199 182.119C199.672 177.144 200.162 171.997 200.581 166.188L200.601 165.903L200.887 165.923C201.097 165.937 222.167 167.501 234.32 181.504C240.787 188.955 243.632 198.569 242.772 210.082C242.446 214.465 240.922 218.519 238.363 221.808C235.691 225.245 230.855 229.247 222.932 229.019L228.737 240.832L228.728 240.913C228.72 240.994 227.866 248.943 221.024 253.219C218.124 255.031 214.613 255.938 210.518 255.938V255.94ZM195.401 252.215C206.323 256.235 214.841 256.408 220.721 252.732C226.963 248.831 228.042 241.764 228.148 240.936L221.988 228.399L222.479 228.422C228.878 228.745 234.069 226.396 237.913 221.453C240.4 218.253 241.883 214.306 242.204 210.039C243.049 198.687 240.253 189.214 233.893 181.885C222.669 168.947 203.697 166.76 201.141 166.52C200.725 172.219 200.243 177.277 199.779 182.174C199.305 187.148 198.818 192.29 198.397 198.096L198.359 198.632L197.935 198.303C192.432 194.062 186.482 196.835 184.789 197.784C182.016 199.339 180.437 203.693 180.766 208.876C181.11 214.26 183.311 218.542 186.379 219.783C190.133 221.3 194.914 220.925 196.302 219.93L196.778 219.589L196.758 220.175C196.553 226.007 196.31 231.241 196.08 236.302C195.849 241.302 195.612 246.47 195.407 252.215H195.401Z" fill="#231F20"/>
<path d="M209.95 225.545C209.95 225.545 217.995 228.979 222.107 228.402L224.386 232.966C224.386 232.966 213.788 228.448 209.95 225.542V225.545Z" fill="#231F20"/>
<path d="M188.001 206.441L187.724 206.947L193.598 210.17L193.875 209.664L188.001 206.441Z" fill="#231F20"/>
<path d="M209.735 196.652L209.217 196.4C209.246 196.337 212.36 190.083 219.793 189.137L219.865 189.711C212.741 190.617 209.767 196.593 209.737 196.652H209.735Z" fill="#231F20"/>
<path d="M227.461 187.783L227.101 187.332C232.948 182.651 239.608 184.764 239.675 184.785L239.495 185.333C239.432 185.312 233.061 183.301 227.463 187.781L227.461 187.783Z" fill="#231F20"/>
<path d="M222.251 202.879C223.055 202.536 223.101 200.839 222.354 199.089C221.607 197.339 220.35 196.199 219.546 196.542C218.743 196.885 218.696 198.582 219.443 200.332C220.19 202.082 221.447 203.222 222.251 202.879Z" fill="#231F20"/>
<path d="M236.081 197.536C236.885 197.193 236.931 195.496 236.184 193.746C235.438 191.996 234.18 190.855 233.377 191.198C232.573 191.542 232.526 193.238 233.273 194.988C234.02 196.738 235.277 197.879 236.081 197.536Z" fill="#231F20"/>
<path d="M232.004 208.154L231.779 207.622C232.97 207.117 233.888 206.077 234.436 204.614C235.179 202.63 232.546 200.127 230.208 198.377C227.605 196.429 224.773 194.967 224.743 194.953L225.007 194.439C225.482 194.683 236.608 200.456 234.978 204.815C234.375 206.43 233.346 207.584 232.006 208.152L232.004 208.154Z" fill="#231F20"/>
<path d="M220.052 204.199L219.562 203.895C219.591 203.848 220.31 202.712 222.161 202.232L222.307 202.789C220.679 203.213 220.06 204.189 220.054 204.199H220.052Z" fill="#231F20"/>
<path d="M234.026 198.771L233.535 198.467C233.565 198.42 234.284 197.285 236.135 196.804L236.281 197.362C234.653 197.785 234.034 198.761 234.028 198.771H234.026Z" fill="#231F20"/>
<path d="M237.227 216.587C229.418 221.113 218.785 214.214 218.785 214.214C218.785 214.214 232.382 213.146 236.357 209.141L235.275 213.397L237.227 216.587Z" fill="white"/>
<path d="M231.164 218.399C224.8 218.399 218.708 214.508 218.628 214.457L217.914 213.994L218.762 213.927C218.896 213.917 232.298 212.821 236.151 208.938L236.896 208.188L235.585 213.349L237.627 216.688L237.371 216.836C235.411 217.971 233.273 218.399 231.164 218.399ZM219.694 214.418C222.203 215.833 230.469 219.928 236.823 216.481L234.964 213.442L235.849 209.961C233.975 211.384 230.715 212.559 226.135 213.462C223.442 213.992 220.963 214.287 219.694 214.418Z" fill="#231F20"/>
<path d="M233.429 210.943L233.231 213.799L235.076 217.48L237.226 216.587L235.275 213.397L235.995 209.514L233.429 210.943Z" fill="#231F20"/>
<path d="M223.584 215.756C221.777 215.756 220.218 215.478 219.327 214.721L219.702 214.281C220.931 215.33 223.986 215.466 228.531 214.68C232.016 214.077 235.159 213.13 235.191 213.121L235.358 213.672C234.98 213.787 228.401 215.756 223.584 215.756Z" fill="#231F20"/>
<path d="M211.036 333.312L210.943 333.881L214.105 334.393L214.197 333.823L211.036 333.312Z" fill="#231F20"/>
<path d="M348.631 240.953C342.373 233.93 336.789 234.723 335.586 235.05C334.412 236.781 333.223 238.42 332.028 239.978C326.656 241.83 319.817 251.246 319.817 251.246C316.831 255.36 311.005 260.375 298.577 264.706C296.283 265.197 294.318 265.301 292.789 265.087C281.738 263.535 275.589 250.195 256.628 243.175C248.613 240.206 240.787 239.257 240.098 239.207C236.814 238.977 233.724 238.91 231.484 238.896C230.945 238.639 230.405 238.385 229.866 238.128C229.782 238.376 229.693 238.633 229.597 238.896C228.573 238.904 227.976 238.922 227.976 238.922C228.348 239.424 228.691 239.912 229.02 240.39C227.95 242.976 226.291 246.04 223.659 248.937C220.624 252.279 217.504 254.059 213.081 255.608C205.498 254.858 195.731 252.988 183.771 249.996L175.596 255.519C171.262 258.967 165.177 264.559 159.931 272.771C151.104 286.587 150.279 298.991 148.528 306.372C145.394 319.57 134.461 337.073 98.915 354.369C99.6306 356.824 104.377 372.187 120.227 379.715C139.441 388.839 157.548 378.174 158.898 377.349C172.462 379.345 192.098 380.205 214.114 374.01C237.319 367.48 253.29 355.89 263.836 348.096C272.305 341.835 278.852 335.865 283.408 331.383C280.012 321.518 276.529 311.595 272.957 301.614C271.428 297.338 269.89 293.079 268.349 288.837C272.282 294.585 274.804 302.457 283.674 306.026C308.333 315.955 347.921 278.932 351.367 255.995C351.514 255.014 351.716 253.661 351.802 252.114C351.84 252.056 351.877 252.004 351.912 251.958C352.027 251.162 352.743 245.515 348.634 240.956L348.631 240.953Z" fill="#6AA393"/>
<path d="M136.566 383.685C130.818 383.685 125.31 382.447 120.104 379.974C104.99 372.795 99.8543 358.622 98.6396 354.45L98.5703 354.216L98.7896 354.109C114.864 346.287 127.272 337.717 135.663 328.636C142.164 321.604 146.397 314.091 148.246 306.303C148.587 304.872 148.898 303.213 149.227 301.455C150.63 293.996 152.549 283.782 159.687 272.612C163.834 266.123 169.126 260.294 175.416 255.288L183.717 249.679L183.841 249.71C195.692 252.674 205.517 254.558 213.045 255.308C217.728 253.663 220.645 251.817 223.444 248.738C225.611 246.355 227.374 243.556 228.693 240.419C228.352 239.926 228.049 239.499 227.744 239.089L227.415 238.645L227.969 238.627C227.969 238.627 228.491 238.613 229.394 238.604C229.463 238.408 229.53 238.218 229.59 238.03L229.694 237.721L231.549 238.601C233.624 238.613 236.775 238.679 240.119 238.913C240.191 238.919 248.181 239.732 256.731 242.898C266.582 246.545 272.861 251.782 278.404 256.405C283.326 260.511 287.576 264.057 292.831 264.796C294.377 265.012 296.34 264.885 298.501 264.423C308.623 260.894 315.715 256.402 319.585 251.072C319.865 250.686 326.469 241.654 331.854 239.73C333.054 238.16 334.231 236.53 335.348 234.885L335.409 234.795L335.513 234.767C336.173 234.588 342.149 233.24 348.846 240.757L348.855 240.768C352.923 245.29 352.352 250.914 352.196 251.996L352.185 252.065L352.144 252.123C352.124 252.152 352.104 252.18 352.084 252.209C351.997 253.736 351.798 255.063 351.651 256.035C349.481 270.489 332.89 290.721 314.668 301.141C306.395 305.873 294.282 310.605 283.566 306.291C276.646 303.504 273.478 298.033 270.685 293.206C270.29 292.525 269.906 291.861 269.519 291.218C270.757 294.631 272.001 298.082 273.227 301.513C276.753 311.367 280.27 321.385 283.678 331.285L283.739 331.458L283.609 331.585C277.498 337.596 270.901 343.228 264.005 348.324C254.249 355.535 237.921 367.607 214.191 374.284C196.431 379.282 177.848 380.413 158.957 377.646C158.089 378.165 153.241 380.955 146.325 382.542C143.006 383.304 139.749 383.685 136.563 383.685H136.566ZM99.2628 354.522C100.579 358.908 105.723 372.507 120.353 379.455C128.322 383.238 137.016 384.089 146.198 381.983C153.322 380.347 158.213 377.429 158.747 377.103L158.836 377.049L158.94 377.063C177.785 379.836 196.324 378.716 214.038 373.73C237.667 367.079 253.941 355.05 263.665 347.862C270.492 342.815 277.021 337.247 283.075 331.302C279.685 321.46 276.19 311.502 272.685 301.709C271.158 297.447 269.609 293.148 268.077 288.935L267.297 286.789L268.587 288.673C269.499 290.006 270.319 291.42 271.184 292.917C274.064 297.895 277.044 303.042 283.779 305.758C294.282 309.988 306.216 305.31 314.379 300.642C332.468 290.297 348.933 270.249 351.08 255.952C351.227 254.973 351.429 253.632 351.512 252.1V252.019L351.561 251.952C351.585 251.915 351.611 251.88 351.634 251.849C351.792 250.663 352.242 245.394 348.416 241.146L348.399 241.126C342.195 234.181 336.745 235.064 335.761 235.298C334.638 236.945 333.461 238.578 332.255 240.148L332.203 240.217L332.122 240.246C326.897 242.047 320.119 251.318 320.049 251.41C316.108 256.84 308.914 261.402 298.671 264.972L298.636 264.98C296.4 265.459 294.366 265.592 292.747 265.364C287.331 264.602 283.02 261.007 278.031 256.846C272.526 252.255 266.288 247.05 256.529 243.437C248.929 240.624 241.187 239.565 240.079 239.487C236.717 239.254 233.549 239.187 231.483 239.176H231.42L230.038 238.521C229.986 238.674 229.928 238.829 229.873 238.988L229.804 239.178H229.602C229.166 239.184 228.805 239.19 228.537 239.193C228.765 239.51 229.002 239.845 229.258 240.22L229.348 240.35L229.287 240.494C227.94 243.752 226.116 246.655 223.874 249.125C220.994 252.296 217.994 254.186 213.178 255.874L213.117 255.894L213.054 255.888C205.514 255.141 195.683 253.262 183.827 250.302L175.759 255.755C169.538 260.707 164.287 266.489 160.175 272.924C153.097 283.998 151.19 294.152 149.796 301.562C149.464 303.325 149.152 304.99 148.809 306.436C146.936 314.319 142.657 321.919 136.09 329.026C127.687 338.118 115.297 346.694 99.2657 354.519L99.2628 354.522Z" fill="#231F20"/>
<path d="M229.865 238.126C229.865 238.126 253.538 240.431 268.046 288.838L274.927 299.609C274.927 299.609 259.499 243.455 229.865 238.126Z" fill="#231F20"/>
<path d="M180.933 345.087C180.096 346.901 176.134 355.347 168.947 365.285C165.135 370.554 161.491 374.755 158.585 377.862C160.426 378.396 165.96 378.027 165.96 378.027C167.345 376.128 168.701 374.152 170.023 372.097C183.308 351.443 188.602 329.638 190.328 310.911C188.617 326.279 184.266 337.864 180.93 345.089L180.933 345.087Z" fill="#231F20"/>
<path d="M175.598 255.516C175.598 255.516 229.002 337.325 202.906 398.217L176.81 459.111H292.796C289.12 429.873 283.866 390.466 276.164 339.102C270.798 303.305 265.257 269.519 238.244 244.927C234.871 241.857 231.873 239.577 229.862 238.126C233.754 242.327 237.762 247.697 242.029 253.872C248.167 262.753 254.411 273.651 254.835 281.713L210.699 297.416C210.699 297.416 191.635 249.676 183.769 249.994L175.595 255.516H175.598Z" fill="#FDB956"/>
<path d="M293.125 459.4H176.374L176.547 458.999L202.643 398.104C208.575 384.259 210.838 368.164 209.363 350.26C208.183 335.925 204.619 320.407 198.773 304.139C188.813 276.427 175.491 255.877 175.358 255.672L175.202 255.435L183.68 249.708H183.76C183.789 249.702 183.818 249.702 183.847 249.702C187.243 249.702 192.829 257.692 200.45 273.458C205.675 284.27 210.139 295.243 210.869 297.049L254.541 281.514C254.004 273.27 247.33 262.037 241.799 254.036C236.965 247.044 233.108 242.05 229.656 238.322L230.037 237.892C232.952 239.995 235.779 242.289 238.443 244.713C250.839 255.998 259.466 269.663 265.601 287.721C270.838 303.141 273.51 319.403 276.456 339.062C282.893 382.015 288.335 421.274 293.088 459.076L293.128 459.4H293.125ZM177.248 458.823H292.47C287.726 421.124 282.302 381.971 275.882 339.145C270.797 305.233 265.54 270.166 238.053 245.14C236.103 243.365 234.065 241.66 231.968 240.05C234.957 243.521 238.284 247.939 242.272 253.707C250.449 265.537 254.774 274.955 255.129 281.696L255.141 281.912L210.54 297.779L210.436 297.523C210.387 297.404 205.609 285.458 199.928 273.709C190.608 254.425 186.051 250.293 183.864 250.279L175.993 255.597C177.511 257.977 189.904 277.772 199.31 303.934C205.176 320.251 208.751 335.821 209.937 350.208C211.42 368.208 209.144 384.398 203.171 398.332L177.245 458.823H177.248Z" fill="#231F20"/>
<path d="M223.636 166.22C219.856 159.373 200.079 153.521 190.248 161.242C183.909 166.22 185.874 174.031 175.172 183.642C172.37 186.155 172.511 185.376 170.688 187.229C165.537 192.466 164.755 198.361 162.499 220.729C161.581 229.838 160.831 237.577 161.821 237.771C162.611 237.926 164.083 233.056 164.631 233.217C165.197 233.382 163.575 238.567 163.612 243.943C163.656 249.956 165.765 254.789 167.476 257.859C167.952 254.443 168.645 250.547 169.424 250.559C170.973 250.579 169.3 266.057 174.906 268.359C180.325 270.584 189.919 259.423 193.872 253.491C197.182 248.522 197.935 245.123 198.166 243.879C198.916 239.888 198.215 237.395 197.574 231.662C197.208 228.399 196.804 223.568 196.821 217.543C196.383 217.82 195.762 218.158 194.977 218.424C194.57 218.562 194.146 218.672 193.713 218.75C188.569 219.664 183.583 215.801 182.573 210.119C181.563 204.438 184.913 199.094 190.058 198.179C193.154 197.628 196.195 198.811 198.345 201.079C198.988 201.044 200.079 200.903 201.138 200.242C204.468 198.162 203.51 193.473 206.049 185.249C207.122 181.77 208.363 179.158 209.041 177.741C210.72 174.236 212.457 171.503 213.73 169.662C217.181 174.487 218.554 175.274 219.149 175C219.89 174.657 219.322 172.709 220.26 172.222C221.229 171.717 222.819 173.298 225.113 174.974C226.507 175.993 228.553 177.335 231.294 178.622C230.512 177.568 229.375 175.987 228.097 174.002C225.488 169.959 224.057 166.987 223.636 166.223V166.22Z" fill="#2C1B18"/>
<path d="M176.44 268.94C175.866 268.94 175.317 268.841 174.801 268.628C170.983 267.061 170.409 259.813 170.031 255.017C169.887 253.196 169.725 251.133 169.42 250.856C169.255 250.957 168.626 251.754 167.769 257.9L167.651 258.751L167.232 258.001C164.676 253.419 163.366 248.689 163.331 243.946C163.311 240.925 163.816 237.912 164.154 235.918C164.292 235.099 164.433 234.256 164.465 233.777C164.246 234.152 163.952 234.807 163.718 235.324C162.893 237.15 162.393 238.175 161.773 238.056C160.674 237.84 160.905 233.746 162.22 220.703C164.471 198.39 165.273 192.334 170.49 187.03C171.413 186.089 171.849 185.809 172.397 185.455C172.928 185.111 173.589 184.684 174.988 183.429C180.892 178.128 182.874 173.463 184.623 169.348C186.008 166.087 187.205 163.274 190.079 161.018C194.535 157.518 201.526 156.412 209.259 157.985C216.109 159.376 221.99 162.631 223.897 166.085C223.975 166.223 224.085 166.437 224.229 166.714C224.875 167.957 226.22 170.543 228.349 173.846C229.362 175.416 230.433 176.963 231.538 178.452L232.222 179.372L231.186 178.884C228.958 177.84 226.86 176.602 224.956 175.208C224.451 174.839 223.992 174.484 223.548 174.141C222.125 173.038 221.003 172.17 220.408 172.479C220.051 172.666 219.984 173.243 219.921 173.8C219.852 174.406 219.782 175.035 219.283 175.266C218.637 175.563 217.422 175.243 213.749 170.167C212.084 172.609 210.592 175.197 209.314 177.869C208.702 179.15 207.427 181.81 206.336 185.339C205.384 188.421 204.919 191.041 204.547 193.144C203.909 196.748 203.485 199.129 201.301 200.491C200.461 201.016 199.474 201.31 198.372 201.371L198.239 201.377L198.147 201.281C195.992 199.008 192.994 197.957 190.123 198.468C187.716 198.895 185.636 200.335 184.268 202.519C182.892 204.715 182.395 207.396 182.872 210.073C183.348 212.751 184.736 215.097 186.784 216.684C188.824 218.262 191.274 218.897 193.678 218.47C194.093 218.395 194.503 218.291 194.901 218.155C195.524 217.945 196.124 217.659 196.684 217.304L197.129 217.024V217.55C197.114 222.325 197.368 227.066 197.879 231.636C198.023 232.935 198.173 234.077 198.306 235.087C198.756 238.533 199.056 240.806 198.467 243.94C197.775 247.628 195.726 251.26 194.128 253.658C191.288 257.92 182.511 268.945 176.451 268.945L176.44 268.94ZM169.422 250.271H169.431C170.201 250.282 170.34 251.635 170.605 254.971C170.975 259.625 171.532 266.66 175.02 268.094C180.234 270.235 189.811 259.071 193.637 253.332C195.204 250.98 197.215 247.42 197.887 243.827C198.459 240.786 198.182 238.668 197.72 235.157C197.587 234.144 197.437 232.998 197.29 231.694C196.794 227.262 196.54 222.674 196.534 218.049C196.067 218.308 195.576 218.525 195.071 218.695C194.647 218.839 194.208 218.952 193.764 219.03C191.196 219.486 188.585 218.813 186.415 217.131C184.254 215.458 182.788 212.985 182.286 210.166C181.784 207.347 182.309 204.522 183.76 202.205C185.217 199.879 187.436 198.347 190.004 197.891C193.025 197.354 196.173 198.433 198.456 200.779C199.408 200.71 200.256 200.447 200.981 199.994C202.949 198.768 203.353 196.486 203.961 193.035C204.336 190.914 204.804 188.277 205.768 185.16C206.87 181.591 208.157 178.905 208.777 177.612C210.13 174.79 211.715 172.057 213.489 169.492L213.723 169.155L213.962 169.489C217.745 174.778 218.793 174.839 219.023 174.732C219.225 174.64 219.277 174.175 219.329 173.725C219.404 173.05 219.491 172.285 220.123 171.956C221.046 171.477 222.235 172.398 223.883 173.673C224.324 174.017 224.78 174.369 225.279 174.732C226.855 175.884 228.563 176.928 230.369 177.843C229.501 176.64 228.655 175.402 227.85 174.149C225.706 170.822 224.353 168.22 223.704 166.97C223.562 166.699 223.455 166.491 223.378 166.353C221.548 163.04 215.823 159.901 209.132 158.539C201.564 157.001 194.745 158.066 190.423 161.462C187.667 163.626 186.496 166.379 185.142 169.564C183.457 173.529 181.36 178.463 175.361 183.85C173.929 185.137 173.246 185.576 172.697 185.931C172.178 186.265 171.768 186.531 170.888 187.425C165.81 192.59 165.016 198.598 162.783 220.752C162.108 227.461 161.184 236.62 161.874 237.465C162.189 237.272 162.829 235.855 163.181 235.079C163.917 233.451 164.234 232.799 164.708 232.935C165.204 233.079 165.08 233.818 164.71 236.008C164.358 238.1 163.877 240.962 163.897 243.934C163.929 248.317 165.077 252.689 167.31 256.948C168.17 251.113 168.831 250.265 169.414 250.265L169.422 250.271Z" fill="#231F20"/>
<path d="M220.28 326.801L220.193 326.23C220.519 326.181 252.819 321.172 262.696 311.378L263.103 311.788C258.896 315.961 250.404 319.755 237.87 323.067C228.553 325.529 220.361 326.787 220.28 326.798V326.801Z" fill="#231F20"/>
<path d="M230.636 352.716C230.105 349.804 229.825 346.521 231.603 344.155C233.38 341.788 237.965 341.754 238.713 344.616C239.027 345.825 238.58 347.167 239.042 348.33C239.994 350.73 243.765 350.191 245.528 348.304C247.291 346.417 248.125 343.745 250.101 342.086C252.73 339.878 256.548 340.069 259.967 340.377C260.573 340.432 261.216 340.502 261.687 340.891C262.321 341.419 262.419 342.342 262.431 343.168C262.486 347.536 261.412 351.914 259.338 355.757C262.91 357.39 266.482 359.02 270.054 360.654C275.141 362.979 281.054 366.56 280.843 372.149C280.658 377.017 274.417 380.474 270.193 378.05C268.055 376.821 266.716 374.599 264.964 372.859C263.213 371.122 260.469 369.832 258.328 371.056C255.292 372.787 256.389 377.542 258.651 380.205C260.913 382.869 264.102 385.255 264.37 388.741C264.471 390.048 264.11 391.387 263.366 392.463C261.476 395.198 257.361 395.761 254.407 394.232C251.455 392.702 249.614 389.546 248.892 386.299C248.171 383.053 248.422 379.677 248.705 376.365C248.973 373.228 249.213 369.841 247.554 367.166C245.892 364.494 241.494 363.401 239.653 365.954C239.321 366.416 239.102 366.947 238.811 367.437C237.377 369.85 234.029 370.9 231.473 369.74C228.916 368.58 227.503 365.368 228.374 362.702C228.853 361.236 229.895 360.025 230.561 358.634C231.228 357.243 231.441 355.408 230.376 354.291" fill="#F47B20"/>
<path d="M257.908 395.363C256.676 395.363 255.418 395.08 254.272 394.486C251.502 393.049 249.436 390.088 248.611 386.357C247.852 382.938 248.167 379.276 248.418 376.333C248.66 373.5 248.963 369.974 247.307 367.313C246.409 365.868 244.62 364.855 242.857 364.794C241.594 364.754 240.532 365.221 239.885 366.119C239.692 366.384 239.542 366.679 239.38 366.987C239.28 367.184 239.173 367.385 239.057 367.579C237.557 370.104 234.028 371.212 231.353 369.997C228.678 368.782 227.189 365.397 228.098 362.607C228.396 361.698 228.901 360.882 229.388 360.094C229.708 359.58 230.037 359.047 230.3 358.501C230.871 357.312 231.18 355.544 230.167 354.482L230.586 354.084C231.8 355.359 231.471 357.393 230.822 358.749C230.548 359.324 230.208 359.869 229.882 360.397C229.388 361.19 228.924 361.941 228.649 362.783C227.824 365.308 229.175 368.372 231.593 369.469C234.014 370.568 237.205 369.564 238.564 367.282C238.674 367.097 238.772 366.906 238.87 366.716C239.034 366.402 239.202 366.075 239.421 365.775C240.186 364.716 241.412 364.157 242.883 364.212C244.831 364.278 246.805 365.4 247.803 367.002C249.56 369.827 249.249 373.459 248.998 376.377C248.75 379.279 248.441 382.892 249.18 386.225C249.97 389.785 251.924 392.607 254.544 393.963C257.562 395.527 261.414 394.774 263.131 392.287C263.843 391.257 264.181 389.999 264.086 388.749C263.887 386.173 261.968 384.159 260.115 382.214C259.55 381.619 258.961 381.002 258.433 380.382C256.794 378.451 255.903 375.67 256.266 373.615C256.488 372.36 257.152 371.385 258.188 370.793C260.433 369.512 263.312 370.799 265.171 372.643C265.765 373.231 266.316 373.881 266.847 374.51C267.932 375.788 268.956 376.994 270.339 377.788C272.234 378.875 274.684 378.795 276.894 377.571C279.105 376.348 280.472 374.311 280.556 372.126C280.767 366.514 274.595 363.034 269.935 360.902L258.938 355.875L259.085 355.604C261.14 351.792 262.199 347.487 262.144 343.156C262.135 342.392 262.052 341.552 261.503 341.099C261.12 340.782 260.568 340.707 259.942 340.652C256.425 340.334 252.783 340.199 250.29 342.294C249.229 343.185 248.516 344.365 247.76 345.618C247.163 346.604 246.545 347.629 245.743 348.489C244.566 349.747 242.552 350.439 240.95 350.136C239.909 349.94 239.135 349.331 238.775 348.422C238.503 347.736 238.521 347.008 238.541 346.307C238.555 345.733 238.57 345.191 238.437 344.677C238.088 343.335 236.893 342.911 236.212 342.778C234.588 342.458 232.747 343.104 231.838 344.316C230.112 346.613 230.407 349.822 230.926 352.652L230.358 352.756C229.818 349.802 229.518 346.446 231.376 343.967C232.429 342.565 234.464 341.843 236.325 342.21C237.71 342.481 238.682 343.329 238.997 344.53C239.153 345.121 239.135 345.73 239.121 346.322C239.103 346.997 239.086 347.635 239.314 348.209C239.678 349.126 240.465 349.455 241.06 349.568C242.456 349.833 244.289 349.198 245.325 348.093C246.089 347.277 246.689 346.281 247.269 345.317C248.017 344.083 248.787 342.804 249.924 341.849C252.587 339.613 256.361 339.749 260 340.075C260.56 340.124 261.324 340.193 261.876 340.652C262.603 341.255 262.712 342.25 262.724 343.148C262.779 347.476 261.749 351.775 259.743 355.607L270.183 360.377C274.993 362.575 281.364 366.188 281.142 372.147C281.052 374.533 279.572 376.749 277.183 378.073C274.794 379.398 272.13 379.476 270.059 378.287C268.59 377.444 267.485 376.14 266.414 374.882C265.889 374.264 265.347 373.624 264.77 373.053C263.067 371.362 260.462 370.161 258.479 371.292C257.585 371.803 257.034 372.617 256.84 373.713C256.506 375.609 257.345 378.197 258.88 380.004C259.397 380.612 259.977 381.224 260.54 381.813C262.464 383.833 264.452 385.922 264.669 388.703C264.775 390.085 264.4 391.473 263.613 392.613C262.392 394.379 260.202 395.348 257.92 395.348L257.908 395.363Z" fill="#231F20"/>
<path d="M417.224 164.376L424.657 141.875H436.109L430.684 165.383L417.224 164.376Z" fill="#231F20"/>
<path d="M430.911 165.689L416.833 164.639L424.448 141.587H436.471L430.908 165.689H430.911ZM417.612 164.117L430.458 165.075L435.747 142.161H424.866L417.615 164.114L417.612 164.117Z" fill="#231F20"/>
<path d="M425.26 164.376L432.696 141.875H444.148L438.723 165.383L425.26 164.376Z" fill="#F3EDE3"/>
<path d="M438.947 165.689L424.869 164.639L432.484 141.587H444.508L438.944 165.689H438.947ZM425.648 164.117L438.494 165.075L443.783 142.161H432.902L425.651 164.114L425.648 164.117Z" fill="#231F20"/>
<path d="M371.541 393.225L324.513 459.059H314.556L359.921 392.117L371.541 393.225Z" fill="#231F20"/>
<path d="M324.664 459.348H314.014L359.78 391.814L372.066 392.982L324.664 459.345V459.348ZM315.101 458.771H324.367L371.016 393.464L360.066 392.422L315.101 458.771Z" fill="#231F20"/>
<path d="M361.028 393.225L314.001 459.059H304.043L349.408 392.117L361.028 393.225Z" fill="#F3EDE3"/>
<path d="M314.153 459.348H303.503L349.269 391.814L361.555 392.982L314.153 459.345V459.348ZM304.591 458.771H313.856L360.505 393.464L349.555 392.422L304.591 458.771Z" fill="#231F20"/>
<path d="M308.471 393.225L261.447 459.059H251.489L296.854 392.117L308.471 393.225Z" fill="#231F20"/>
<path d="M261.593 459.348H250.942L296.709 391.814L308.995 392.982L261.593 459.345V459.348ZM252.03 458.771H261.295L307.945 393.464L296.994 392.422L252.03 458.771Z" fill="#231F20"/>
<path d="M297.959 393.225L250.934 459.059H240.977L286.342 392.117L297.959 393.225Z" fill="#F3EDE3"/>
<path d="M251.082 459.348H240.432L286.198 391.814L298.484 392.982L251.082 459.345V459.348ZM241.519 458.771H250.785L297.434 393.464L286.484 392.422L241.519 458.771Z" fill="#231F20"/>
<path d="M289.66 393.225L336.684 459.059H346.645L301.277 392.117L289.66 393.225Z" fill="#231F20"/>
<path d="M347.187 459.348H336.537L336.451 459.226L289.135 392.985L301.421 391.816L347.187 459.351V459.348ZM336.834 458.771H346.099L301.135 392.422L290.185 393.464L336.834 458.771Z" fill="#231F20"/>
<path d="M300.172 393.225L347.196 459.059H357.154L311.789 392.117L300.172 393.225Z" fill="#F3EDE3"/>
<path d="M357.699 459.348H347.049L346.962 459.226L299.646 392.985L311.933 391.816L357.699 459.351V459.348ZM347.346 458.771H356.611L311.647 392.422L300.697 393.464L347.343 458.771H347.346Z" fill="#231F20"/>
<path d="M385.37 393.225L432.394 459.059H442.352L396.987 392.117L385.37 393.225Z" fill="#231F20"/>
<path d="M442.897 459.348H432.247L432.16 459.226L384.845 392.985L397.131 391.816L442.897 459.351V459.348ZM432.544 458.771H441.809L396.845 392.422L385.895 393.464L432.544 458.771Z" fill="#231F20"/>
<path d="M395.883 393.225L442.907 459.059H452.865L407.5 392.117L395.883 393.225Z" fill="#F3EDE3"/>
<path d="M453.41 459.348H442.76L442.673 459.226L395.357 392.985L407.644 391.816L453.41 459.351V459.348ZM443.054 458.771H452.319L407.355 392.422L396.405 393.464L443.054 458.771Z" fill="#231F20"/>
<path d="M431.489 386.519H260.11V396.618H431.489V386.519Z" fill="#231F20"/>
<path d="M431.781 396.906H259.825V386.23H431.781V396.906ZM260.399 396.329H431.201V386.807H260.399V396.329Z" fill="#231F20"/>
<path d="M447.359 386.519H275.98V396.618H447.359V386.519Z" fill="#F3EDE3"/>
<path d="M447.647 396.906H275.691V386.23H447.647V396.906ZM276.268 396.329H447.07V386.807H276.268V396.329Z" fill="#231F20"/>
<path d="M429.017 388.896H279.66L352.085 161.898H501.442L429.017 388.896Z" fill="#231F20"/>
<path d="M429.228 389.185H279.268L351.877 161.609H501.837L429.228 389.185ZM280.055 388.608H428.804L501.044 162.186H352.296L280.055 388.608Z" fill="#231F20"/>
<path d="M445.544 388.896H296.189L368.614 161.898H517.969L445.544 388.896Z" fill="#F3EDE3"/>
<path d="M445.756 389.185H295.796L368.406 161.609H518.366L445.756 389.185ZM296.587 388.608H445.335L517.575 162.186H368.827L296.587 388.608Z" fill="#231F20"/>
<path d="M198.482 153.23C193.6 154.923 189.996 156.505 186.58 158.458C184.199 159.817 181.914 161.364 179.698 162.977C177.788 164.368 176.056 165.998 174.533 167.819C174.019 168.433 173.771 168.427 172.992 168.225C171.783 167.914 170.557 167.668 169.328 167.455C168.329 167.282 167.311 167.213 166.304 167.074C165.582 166.976 165.066 167.158 164.841 167.645C164.497 168.381 164.587 169.446 165.129 169.737C165.536 169.957 166.058 169.988 166.534 170.066C168.133 170.32 169.737 170.542 171.336 170.805C171.728 170.868 171.803 171.244 171.581 171.694C170.816 173.237 169.962 174.744 169.316 176.334C168.295 178.841 167.305 181.372 166.5 183.954C165.66 186.646 164.996 189.399 164.37 192.149C163.854 194.425 163.531 196.742 163.069 199.033C162.55 201.607 162.042 204.187 161.401 206.732C160.463 210.448 160.033 212.338 159.448 213.158C158.897 213.931 157.705 215.336 156.629 217.619C156.3 218.317 156.086 218.877 156.202 219.54C156.427 220.813 157.76 221.808 158.995 222.085C160.974 222.533 163.092 221.11 164.388 219.904C165.256 219.093 166.027 218.181 166.855 217.327C167.013 217.163 167.218 217.03 167.426 216.92C167.804 216.721 168.072 216.848 168.202 217.246C168.323 217.616 168.421 217.997 168.554 218.363C168.851 219.185 169.394 219.465 170.268 219.477C172.074 219.503 173.442 218.626 174.723 217.495C177.929 214.664 179.75 211.418 179.836 211.262C182.503 206.42 181.663 204.718 184.47 201.249C185.674 199.763 187.015 198.606 187.676 198.044C189.632 196.376 190.244 196.31 193.173 194.169C195.955 192.134 195.952 191.771 197.873 190.573C199.481 189.572 201.252 188.816 202.992 188.04C208.648 185.521 214.341 183.083 219.979 180.529C221.958 179.632 223.848 178.524 225.741 177.447C226.359 177.095 226.921 176.596 227.4 176.065C228.272 175.099 228.295 174.158 227.677 173.007C227.291 172.285 226.976 171.526 226.633 170.785C225.958 169.319 226.183 167.793 226.465 166.301C227.037 163.288 227.016 160.365 225.49 157.61C224.541 155.896 223.251 154.491 221.589 153.423C219.832 152.298 217.875 151.646 215.841 151.328C214.211 151.074 212.529 151.022 210.875 151.077C208.942 151.141 206.986 151.27 205.09 151.631C202.47 152.133 199.896 152.881 198.488 153.227L198.482 153.23Z" fill="black"/>
<g clip-path="url(#clip0_669_20195)">
<path d="M181.768 202.639C181.768 202.639 190.406 151.554 220.151 154.806C220.151 154.806 221.892 150.731 215.815 150.626C209.738 150.522 184.332 151.02 174.624 198.12L181.77 202.638L181.768 202.639Z" fill="#AB78B4"/>
<path d="M181.963 203.075L174.327 198.247L174.365 198.069C178.495 178.03 185.915 164.032 196.425 156.456C202.207 152.289 208.732 150.239 215.818 150.363C218.041 150.402 219.519 150.966 220.216 152.042C221.053 153.334 220.421 154.848 220.394 154.912L220.318 155.091L220.123 155.069C213.417 154.336 207.245 156.366 201.783 161.105C197.394 164.912 193.447 170.464 190.05 177.607C184.253 189.796 182.051 202.555 182.03 202.683L181.965 203.074L181.963 203.075ZM174.916 197.995L181.577 202.207C181.996 199.97 184.308 188.45 189.565 177.389C192.992 170.176 196.984 164.566 201.429 160.707C206.952 155.917 213.187 153.833 219.967 154.521C220.088 154.124 220.303 153.145 219.768 152.321C219.17 151.404 217.839 150.921 215.806 150.886C208.837 150.766 202.418 152.783 196.729 156.88C186.363 164.35 179.023 178.182 174.915 197.99L174.916 197.995Z" fill="#221F20"/>
<path d="M185.804 227.565C195.302 224.581 200.582 214.462 197.598 204.963C194.614 195.465 184.494 190.184 174.996 193.169C165.498 196.153 160.217 206.272 163.202 215.771C166.186 225.269 176.305 230.55 185.804 227.565Z" fill="#221F20"/>
<path d="M185.883 227.817C176.26 230.84 165.974 225.472 162.95 215.85C159.927 206.227 165.295 195.941 174.917 192.917C184.54 189.894 194.827 195.262 197.85 204.884C200.873 214.507 195.505 224.793 185.883 227.817ZM175.076 193.423C165.733 196.358 160.518 206.348 163.454 215.694C166.391 225.04 176.38 230.253 185.726 227.316C195.072 224.38 200.284 214.391 197.348 205.045C194.411 195.699 184.422 190.486 175.076 193.423Z" fill="#221F20"/>
<path d="M183.311 227.6C192.81 224.615 198.09 214.496 195.106 204.998C192.122 195.499 182.002 190.219 172.504 193.203C163.006 196.187 157.725 206.307 160.709 215.805C163.694 225.303 173.813 230.584 183.311 227.6Z" fill="#AB78B4"/>
<path d="M183.39 227.849C173.767 230.872 163.481 225.504 160.457 215.882C157.434 206.259 162.802 195.973 172.424 192.949C182.047 189.926 192.333 195.294 195.357 204.916C198.38 214.539 193.012 224.825 183.39 227.849ZM172.583 193.455C163.24 196.39 158.024 206.38 160.961 215.726C163.897 225.072 173.887 230.285 183.232 227.348C192.578 224.412 197.791 214.423 194.855 205.077C191.918 195.731 181.929 190.518 172.583 193.455Z" fill="#221F20"/>
<path d="M180.925 221.595C187.33 219.583 190.89 212.76 188.878 206.355C186.866 199.951 180.043 196.39 173.638 198.402C167.234 200.415 163.673 207.238 165.686 213.642C167.698 220.047 174.521 223.607 180.925 221.595Z" fill="#BC84B2"/>
<path d="M181.004 221.846C174.471 223.899 167.486 220.254 165.433 213.721C163.381 207.189 167.026 200.204 173.559 198.151C180.091 196.099 187.076 199.744 189.129 206.276C191.181 212.809 187.536 219.794 181.004 221.846ZM173.716 198.651C167.46 200.617 163.97 207.305 165.936 213.561C167.901 219.817 174.589 223.307 180.845 221.341C187.101 219.376 190.591 212.687 188.625 206.432C186.66 200.176 179.972 196.686 173.716 198.651Z" fill="#221F20"/>
<path d="M144.214 190.004L143.97 190.471L158.473 198.039L158.717 197.572L144.214 190.004Z" fill="#221F20"/>
<path d="M138.547 208.511L138.508 209.036L154.821 210.262L154.86 209.737L138.547 208.511Z" fill="#221F20"/>
<path d="M157.259 220.316L142.738 227.85L142.981 228.318L157.502 220.784L157.259 220.316Z" fill="#221F20"/>
</g>
<defs>
<clipPath id="clip0_669_20195">
<rect width="96.7277" height="66.6006" fill="white" transform="translate(126.645 176.619) rotate(-17.4427)"/>
</clipPath>
</defs>
</svg>
