<svg width="600" height="600" viewBox="0 0 600 600" fill="none" xmlns="http://www.w3.org/2000/svg">
<path d="M360.81 230.131C336.901 229.925 317.785 235.979 305.685 241.114C301.812 242.755 297.424 242.755 293.551 241.114C281.451 235.987 262.334 229.933 238.426 230.131C217.756 230.302 200.812 235.103 189.038 239.723C183.044 242.076 179.137 247.899 179.137 254.339V351.741C179.137 362.441 189.571 369.998 199.747 366.692C210.439 363.214 223.956 360.355 239.646 360.363C258.573 360.363 279.252 367.182 290.708 371.57C296.453 373.768 302.791 373.768 308.536 371.57C319.992 367.182 340.663 360.372 359.599 360.363C375.288 360.363 388.805 363.214 399.497 366.692C409.674 369.998 420.108 362.441 420.108 351.741V254.339C420.108 247.899 416.192 242.085 410.206 239.723C398.432 235.094 381.489 230.302 360.818 230.131H360.81Z" fill="#C1272D"/>
<path d="M299.614 373.348C296.574 373.348 293.543 372.798 290.657 371.69C266.517 362.441 249.591 360.492 239.646 360.492H239.595C226.095 360.492 212.698 362.622 199.782 366.821C194.887 368.418 189.692 367.594 185.535 364.571C181.387 361.557 179 356.885 179 351.75V254.348C179 247.778 182.916 241.999 188.987 239.611C204.84 233.385 221.466 230.156 238.418 230.01C257.44 229.839 276.007 233.548 293.594 241.003C297.416 242.626 301.804 242.626 305.626 241.003C323.213 233.548 341.78 229.839 360.802 230.01C377.754 230.156 394.388 233.385 410.232 239.611C416.295 241.999 420.22 247.778 420.22 254.348V351.75C420.22 356.885 417.841 361.557 413.685 364.571C409.528 367.594 404.333 368.41 399.438 366.821C386.522 362.622 373.125 360.492 359.625 360.492H359.574C349.629 360.492 332.703 362.441 308.563 371.69C305.677 372.798 302.637 373.348 299.606 373.348H299.614ZM239.595 360.226H239.646C249.617 360.226 266.577 362.175 290.752 371.441C296.471 373.631 302.766 373.631 308.485 371.441C332.66 362.175 349.62 360.226 359.591 360.226H359.642C373.176 360.226 386.59 362.355 399.532 366.563C404.35 368.126 409.46 367.319 413.556 364.348C417.635 361.385 419.979 356.782 419.979 351.732V254.331C419.979 247.873 416.124 242.179 410.155 239.835C394.337 233.617 377.737 230.397 360.81 230.251C341.823 230.088 323.291 233.78 305.737 241.217C301.847 242.866 297.39 242.866 293.5 241.217C275.947 233.772 257.414 230.079 238.427 230.251C221.509 230.397 204.909 233.617 189.082 239.835C183.114 242.179 179.258 247.864 179.258 254.331V351.732C179.258 356.782 181.602 361.385 185.681 364.348C189.778 367.319 194.887 368.126 199.705 366.563C212.647 362.355 226.069 360.226 239.595 360.226Z" fill="black"/>
<path d="M355.579 226.129C333.715 225.94 316.23 231.479 305.161 236.168C301.614 237.671 297.604 237.671 294.057 236.168C282.987 231.479 265.503 225.94 243.639 226.129C224.728 226.292 209.236 230.672 198.467 234.906C192.988 237.061 189.407 242.385 189.407 248.268V337.357C189.407 347.147 198.957 354.06 208.257 351.028C218.039 347.851 230.405 345.232 244.755 345.24C270.372 345.249 299.476 358.878 299.613 358.809C299.751 358.878 328.854 345.249 354.471 345.24C368.821 345.24 381.179 347.851 390.969 351.028C400.278 354.051 409.819 347.138 409.819 337.357V248.268C409.819 242.377 406.238 237.053 400.759 234.906C389.99 230.672 374.498 226.292 355.588 226.129H355.579Z" fill="white"/>
<path d="M299.605 358.938C299.605 358.938 299.571 358.938 299.562 358.92C299.459 358.886 299.244 358.8 298.729 358.577C287.196 353.648 264.85 345.378 244.772 345.369H244.73C232.38 345.369 220.126 347.318 208.318 351.157C203.835 352.617 199.086 351.861 195.273 349.096C191.477 346.339 189.296 342.054 189.296 337.357V248.268C189.296 242.257 192.886 236.966 198.442 234.785C212.938 229.092 228.155 226.129 243.656 226C244.017 226 244.386 226 244.747 226C261.768 226 278.376 229.384 294.126 236.056C297.621 237.542 301.632 237.542 305.127 236.056C320.877 229.384 337.485 226 354.506 226C354.867 226 355.236 226 355.597 226C371.098 226.129 386.315 229.083 400.811 234.785C406.367 236.966 409.957 242.257 409.957 248.268V337.357C409.957 342.054 407.776 346.331 403.98 349.096C400.175 351.861 395.418 352.608 390.935 351.157C379.127 347.318 366.872 345.369 354.523 345.369H354.48C334.402 345.369 312.057 353.648 300.524 358.577C300.009 358.8 299.785 358.895 299.682 358.92C299.665 358.929 299.648 358.938 299.622 358.938H299.613H299.605ZM299.613 358.663H299.631C299.734 358.628 300.026 358.508 300.412 358.345C311.963 353.407 334.342 345.12 354.472 345.111H354.515C366.89 345.111 379.17 347.061 391.004 350.908C395.409 352.342 400.072 351.604 403.817 348.881C407.552 346.168 409.691 341.968 409.691 337.348V248.259C409.691 242.351 406.17 237.155 400.716 235.017C386.246 229.332 371.063 226.378 355.588 226.249C355.227 226.249 354.858 226.249 354.497 226.249C337.511 226.249 320.937 229.624 305.221 236.288C301.666 237.8 297.578 237.8 294.023 236.288C277.972 229.487 261.02 226.112 243.656 226.258C228.181 226.386 212.998 229.341 198.528 235.026C193.074 237.173 189.554 242.368 189.554 248.268V337.357C189.554 341.977 191.692 346.176 195.428 348.89C199.172 351.604 203.835 352.342 208.24 350.917C220.074 347.069 232.355 345.12 244.73 345.12H244.772C264.902 345.12 287.282 353.416 298.832 358.354C299.218 358.517 299.51 358.637 299.613 358.68H299.631L299.613 358.663Z" fill="#221F20"/>
<path d="M285.461 258.874C281.305 257.869 277.105 257.036 272.88 256.383C267.788 255.593 262.67 255.035 257.525 254.743C252.055 254.434 246.568 254.417 241.089 254.692C235.61 254.966 230.526 255.516 225.287 256.306C220.925 256.967 216.588 257.817 212.294 258.857C211.813 258.968 211.341 259.088 210.869 259.209C209.563 259.535 208.644 261.072 209.065 262.378C209.486 263.683 210.834 264.533 212.234 264.181C216.468 263.116 220.744 262.232 225.047 261.536C226.412 261.313 227.778 261.115 229.143 260.926L228.456 261.021C233.686 260.316 238.95 259.887 244.215 259.724C249.479 259.561 255.207 259.69 260.686 260.119C263.503 260.342 266.302 260.634 269.102 261.012L268.415 260.918C272.605 261.484 276.771 262.214 280.901 263.116C281.966 263.348 283.022 263.597 284.079 263.846C285.384 264.164 286.93 263.434 287.248 262.043C287.565 260.651 286.852 259.209 285.444 258.874H285.461Z" fill="#4D4D4D"/>
<path d="M211.591 264.387C210.406 264.387 209.341 263.623 208.946 262.42C208.74 261.785 208.826 261.055 209.186 260.411C209.556 259.741 210.157 259.26 210.835 259.088C211.307 258.968 211.788 258.848 212.261 258.736C216.529 257.706 220.908 256.847 225.262 256.186C230.638 255.37 235.954 254.829 241.072 254.571C246.534 254.296 252.065 254.314 257.526 254.623C262.516 254.906 267.686 255.464 272.89 256.263C277.081 256.916 281.323 257.749 285.479 258.753C287.034 259.131 287.669 260.771 287.377 262.077C287.231 262.704 286.836 263.253 286.252 263.614C285.6 264.018 284.784 264.155 284.054 263.975C282.98 263.717 281.907 263.468 280.876 263.245C276.883 262.369 272.787 261.639 268.69 261.081C266.011 260.729 263.323 260.445 260.678 260.239C255.225 259.81 249.694 259.681 244.224 259.844C239.114 259.999 233.936 260.419 228.826 261.089C227.547 261.261 226.284 261.45 225.065 261.656C220.797 262.352 216.486 263.236 212.261 264.301C212.029 264.361 211.806 264.387 211.582 264.387H211.591ZM248.844 254.623C246.259 254.623 243.674 254.691 241.107 254.82C235.997 255.078 230.681 255.627 225.323 256.435C220.969 257.096 216.606 257.955 212.338 258.977C211.866 259.088 211.385 259.209 210.912 259.329C210.303 259.483 209.762 259.921 209.418 260.522C209.092 261.106 209.015 261.759 209.203 262.334C209.633 263.657 210.904 264.387 212.218 264.052C216.451 262.987 220.762 262.094 225.039 261.398C226.147 261.218 227.298 261.046 228.457 260.883L229.135 260.789C234.151 260.145 239.217 259.732 244.224 259.586C249.703 259.423 255.251 259.552 260.712 259.981C263.263 260.179 265.857 260.445 268.45 260.78L269.137 260.866C273.105 261.416 277.072 262.128 280.945 262.979C281.976 263.202 283.049 263.451 284.123 263.708C284.784 263.872 285.54 263.743 286.123 263.382C286.647 263.056 287.008 262.566 287.128 262.008C287.394 260.823 286.828 259.329 285.428 258.994C281.271 257.989 277.046 257.156 272.855 256.503C267.66 255.696 262.499 255.147 257.509 254.863C254.632 254.7 251.73 254.614 248.827 254.614L248.844 254.623Z" fill="black"/>
<path d="M285.461 284.809C281.305 283.804 277.105 282.971 272.88 282.318C267.788 281.528 262.67 280.97 257.525 280.678C252.055 280.369 246.568 280.352 241.089 280.626C235.61 280.901 230.526 281.451 225.287 282.241C220.925 282.902 216.588 283.752 212.294 284.792C211.813 284.903 211.341 285.023 210.869 285.144C209.563 285.47 208.644 287.007 209.065 288.312C209.486 289.618 210.834 290.468 212.234 290.116C216.468 289.051 220.744 288.166 225.047 287.471C226.412 287.248 227.778 287.05 229.143 286.861L228.456 286.956C233.686 286.251 238.95 285.822 244.215 285.659C249.479 285.496 255.207 285.625 260.686 286.054C263.503 286.277 266.302 286.569 269.102 286.947L268.415 286.853C272.605 287.419 276.771 288.149 280.901 289.051C281.966 289.283 283.022 289.532 284.079 289.781C285.384 290.099 286.93 289.369 287.248 287.978C287.565 286.586 286.852 285.144 285.444 284.809H285.461Z" fill="#4D4D4D"/>
<path d="M211.591 290.322C210.406 290.322 209.341 289.558 208.946 288.355C208.74 287.72 208.826 286.99 209.186 286.346C209.556 285.676 210.157 285.195 210.835 285.023C211.307 284.903 211.788 284.783 212.261 284.671C216.537 283.641 220.917 282.782 225.262 282.121C230.638 281.305 235.954 280.764 241.072 280.506C246.534 280.231 252.065 280.248 257.526 280.558C262.516 280.841 267.686 281.399 272.89 282.198C277.089 282.851 281.332 283.684 285.479 284.688C287.034 285.066 287.669 286.706 287.377 288.012C287.231 288.639 286.836 289.188 286.252 289.549C285.6 289.953 284.784 290.081 284.054 289.91C282.98 289.652 281.907 289.403 280.876 289.18C276.926 288.312 272.881 287.591 268.828 287.033C266.106 286.672 263.366 286.389 260.678 286.174C255.225 285.745 249.694 285.616 244.224 285.779C239.114 285.934 233.936 286.354 228.826 287.024C227.547 287.196 226.284 287.385 225.065 287.591C220.797 288.287 216.486 289.171 212.261 290.236C212.029 290.296 211.806 290.322 211.582 290.322H211.591ZM248.844 280.558C246.259 280.558 243.674 280.626 241.107 280.755C235.997 281.013 230.681 281.562 225.323 282.37C220.977 283.031 216.615 283.881 212.338 284.912C211.866 285.023 211.385 285.143 210.912 285.264C210.303 285.418 209.762 285.856 209.418 286.466C209.1 287.05 209.015 287.703 209.203 288.269C209.633 289.592 210.904 290.313 212.218 289.987C216.451 288.922 220.762 288.029 225.039 287.333C226.147 287.153 227.298 286.981 228.457 286.818L229.135 286.724C234.151 286.08 239.217 285.667 244.224 285.521C249.703 285.358 255.251 285.487 260.712 285.916C263.263 286.114 265.865 286.38 268.45 286.715C268.45 286.715 268.493 286.715 268.519 286.715L269.137 286.801C273.105 287.351 277.072 288.063 280.945 288.913C281.976 289.137 283.049 289.386 284.123 289.643C284.784 289.807 285.531 289.678 286.123 289.317C286.647 288.991 287.008 288.51 287.128 287.943C287.394 286.758 286.828 285.264 285.428 284.929C281.28 283.924 277.055 283.091 272.855 282.438C267.66 281.631 262.499 281.081 257.509 280.798C254.632 280.635 251.73 280.549 248.827 280.549L248.844 280.558Z" fill="black"/>
<path d="M285.461 310.743C281.305 309.739 277.105 308.906 272.88 308.253C267.788 307.463 262.67 306.905 257.525 306.613C252.055 306.304 246.568 306.286 241.089 306.561C235.61 306.836 230.526 307.386 225.287 308.176C220.925 308.837 216.588 309.687 212.294 310.726C211.813 310.838 211.341 310.958 210.869 311.078C209.563 311.405 208.644 312.942 209.065 314.247C209.486 315.552 210.834 316.403 212.234 316.051C216.468 314.986 220.744 314.101 225.047 313.406C226.412 313.182 227.778 312.985 229.143 312.796L228.456 312.89C233.686 312.186 238.95 311.757 244.215 311.594C249.702 311.43 255.207 311.559 260.686 311.989C263.503 312.212 266.302 312.504 269.102 312.882L268.415 312.787C272.605 313.354 276.771 314.084 280.901 314.986C281.966 315.218 283.022 315.467 284.079 315.716C285.384 316.033 286.93 315.303 287.248 313.912C287.565 312.521 286.852 311.078 285.444 310.743H285.461Z" fill="#4D4D4D"/>
<path d="M211.591 316.257C210.406 316.257 209.341 315.492 208.946 314.29C208.74 313.655 208.826 312.925 209.186 312.281C209.556 311.611 210.157 311.13 210.835 310.958C211.307 310.838 211.788 310.718 212.261 310.606C216.546 309.576 220.917 308.717 225.262 308.056C230.638 307.24 235.954 306.699 241.072 306.441C246.534 306.166 252.065 306.183 257.526 306.493C262.507 306.776 267.677 307.326 272.89 308.133C277.089 308.785 281.323 309.619 285.479 310.623C287.034 311.001 287.669 312.641 287.377 313.947C287.231 314.574 286.836 315.123 286.252 315.484C285.6 315.888 284.784 316.016 284.054 315.845C282.98 315.587 281.907 315.338 280.876 315.115C276.926 314.247 272.881 313.526 268.845 312.976C266.123 312.616 263.375 312.332 260.678 312.118C255.225 311.697 249.686 311.559 244.224 311.722C239.106 311.877 233.919 312.298 228.792 312.976C227.547 313.148 226.293 313.337 225.065 313.535C220.797 314.23 216.486 315.115 212.261 316.18C212.029 316.24 211.806 316.265 211.582 316.265L211.591 316.257ZM248.844 306.493C246.259 306.493 243.674 306.561 241.107 306.69C235.997 306.948 230.681 307.497 225.323 308.305C220.986 308.957 216.615 309.816 212.338 310.847C211.866 310.958 211.385 311.078 210.912 311.199C210.303 311.353 209.762 311.791 209.418 312.401C209.1 312.985 209.015 313.638 209.203 314.204C209.633 315.527 210.904 316.248 212.218 315.922C216.451 314.857 220.762 313.964 225.039 313.268C226.173 313.088 227.315 312.908 228.457 312.753L229.127 312.667C229.127 312.667 229.127 312.667 229.135 312.667C234.151 312.023 239.217 311.611 244.224 311.465C249.703 311.302 255.242 311.431 260.704 311.86C263.254 312.057 265.857 312.332 268.441 312.659C268.441 312.659 268.519 312.659 268.553 312.667L269.128 312.744C273.087 313.294 277.055 314.007 280.937 314.857C281.967 315.08 283.04 315.329 284.114 315.587C284.775 315.75 285.522 315.621 286.115 315.261C286.639 314.934 286.999 314.445 287.128 313.887C287.394 312.701 286.828 311.207 285.428 310.872C281.28 309.868 277.046 309.035 272.855 308.382C267.651 307.575 262.49 307.025 257.509 306.742C254.632 306.578 251.73 306.493 248.827 306.493H248.844Z" fill="black"/>
<path d="M388.771 258.874C384.614 257.869 380.415 257.036 376.19 256.383C371.097 255.593 365.979 255.035 360.835 254.743C355.365 254.434 349.877 254.417 344.398 254.692C338.919 254.966 333.835 255.516 328.597 256.306C324.234 256.967 319.897 257.817 315.604 258.857C315.123 258.968 314.65 259.088 314.178 259.209C312.873 259.535 311.954 261.072 312.375 262.378C312.795 263.683 314.144 264.533 315.544 264.181C319.777 263.116 324.054 262.232 328.356 261.536C329.722 261.313 331.087 261.115 332.453 260.926L331.766 261.021C336.996 260.316 342.26 259.887 347.524 259.724C352.788 259.561 358.516 259.69 363.995 260.119C366.812 260.342 369.612 260.634 372.411 261.012L371.724 260.918C375.915 261.484 380.08 262.214 384.211 263.116C385.276 263.348 386.332 263.597 387.388 263.846C388.694 264.164 390.239 263.434 390.557 262.043C390.875 260.651 390.162 259.209 388.754 258.874H388.771Z" fill="#4D4D4D"/>
<path d="M314.9 264.387C313.715 264.387 312.65 263.623 312.255 262.42C312.049 261.785 312.135 261.055 312.496 260.411C312.865 259.741 313.466 259.26 314.145 259.088C314.617 258.968 315.098 258.848 315.57 258.736C319.838 257.706 324.218 256.847 328.572 256.186C333.948 255.37 339.264 254.829 344.382 254.571C349.844 254.296 355.374 254.314 360.836 254.623C365.825 254.906 370.995 255.464 376.199 256.263C380.39 256.916 384.633 257.749 388.789 258.753C390.343 259.131 390.979 260.771 390.687 262.077C390.541 262.704 390.146 263.253 389.562 263.614C388.909 264.018 388.093 264.155 387.363 263.975C386.29 263.717 385.216 263.468 384.186 263.245C380.193 262.369 376.088 261.639 372 261.081C369.321 260.729 366.633 260.445 363.988 260.248C358.535 259.818 353.004 259.689 347.534 259.853C342.424 260.007 337.246 260.428 332.136 261.098C330.856 261.278 329.594 261.467 328.375 261.665C324.106 262.36 319.795 263.245 315.57 264.31C315.338 264.37 315.115 264.396 314.892 264.396L314.9 264.387ZM352.154 254.623C349.569 254.623 346.984 254.691 344.416 254.82C339.307 255.078 333.991 255.627 328.632 256.435C324.278 257.096 319.916 257.955 315.648 258.977C315.175 259.088 314.694 259.209 314.222 259.329C313.612 259.483 313.071 259.921 312.728 260.522C312.401 261.106 312.324 261.759 312.513 262.334C312.942 263.657 314.213 264.387 315.527 264.052C319.761 262.987 324.072 262.094 328.349 261.398C329.457 261.218 330.607 261.046 331.767 260.883L332.445 260.789C337.46 260.145 342.527 259.732 347.534 259.586C353.013 259.423 358.56 259.552 364.022 259.981C366.573 260.179 369.166 260.445 371.76 260.78L372.429 260.866C372.429 260.866 372.429 260.866 372.438 260.866C376.406 261.416 380.373 262.128 384.246 262.979C385.277 263.202 386.35 263.451 387.424 263.708C388.085 263.872 388.841 263.743 389.424 263.382C389.948 263.056 390.309 262.566 390.429 262.008C390.695 260.823 390.129 259.329 388.729 258.994C384.572 257.989 380.347 257.156 376.156 256.503C370.961 255.696 365.8 255.147 360.81 254.863C357.933 254.7 355.031 254.614 352.128 254.614L352.154 254.623Z" fill="black"/>
<path d="M388.771 284.809C384.614 283.804 380.415 282.971 376.19 282.318C371.097 281.528 365.979 280.97 360.835 280.678C355.365 280.369 349.877 280.352 344.398 280.626C338.919 280.901 333.835 281.451 328.597 282.241C324.234 282.902 319.897 283.752 315.604 284.792C315.123 284.903 314.65 285.023 314.178 285.144C312.873 285.47 311.954 287.007 312.375 288.312C312.795 289.618 314.144 290.468 315.544 290.116C319.777 289.051 324.054 288.166 328.356 287.471C329.722 287.248 331.087 287.05 332.453 286.861L331.766 286.956C336.996 286.251 342.26 285.822 347.524 285.659C352.788 285.496 358.516 285.625 363.995 286.054C366.812 286.277 369.612 286.569 372.411 286.947L371.724 286.853C375.915 287.419 380.08 288.149 384.211 289.051C385.276 289.283 386.332 289.532 387.388 289.781C388.694 290.099 390.239 289.369 390.557 287.978C390.875 286.586 390.162 285.144 388.754 284.809H388.771Z" fill="#4D4D4D"/>
<path d="M314.9 290.322C313.715 290.322 312.65 289.558 312.255 288.355C312.049 287.72 312.135 286.99 312.496 286.346C312.865 285.676 313.466 285.195 314.145 285.023C314.617 284.903 315.098 284.783 315.57 284.671C319.847 283.641 324.227 282.782 328.572 282.121C333.948 281.305 339.264 280.764 344.382 280.506C349.844 280.231 355.374 280.248 360.836 280.558C365.825 280.841 370.995 281.399 376.199 282.198C380.399 282.851 384.641 283.684 388.789 284.688C390.343 285.066 390.979 286.706 390.687 288.012C390.541 288.639 390.146 289.188 389.562 289.549C388.909 289.953 388.093 290.081 387.363 289.91C386.29 289.652 385.216 289.403 384.186 289.18C380.236 288.312 376.191 287.591 372.137 287.033C369.415 286.672 366.676 286.389 363.988 286.174C358.535 285.745 353.004 285.616 347.534 285.779C342.424 285.934 337.246 286.354 332.136 287.024C330.856 287.205 329.594 287.393 328.375 287.591C324.106 288.287 319.795 289.171 315.57 290.236C315.338 290.296 315.115 290.322 314.892 290.322H314.9ZM352.154 280.558C349.569 280.558 346.984 280.626 344.416 280.755C339.307 281.013 333.991 281.562 328.632 282.37C324.287 283.031 319.924 283.881 315.648 284.912C315.175 285.023 314.694 285.143 314.222 285.264C313.612 285.418 313.071 285.856 312.728 286.466C312.41 287.05 312.324 287.703 312.513 288.269C312.942 289.592 314.213 290.313 315.527 289.987C319.761 288.922 324.072 288.029 328.349 287.333C329.457 287.153 330.607 286.981 331.767 286.818L332.445 286.724C337.46 286.08 342.527 285.667 347.534 285.521C353.013 285.358 358.56 285.487 364.022 285.916C366.573 286.114 369.175 286.38 371.76 286.715C371.76 286.715 371.802 286.715 371.828 286.715L372.447 286.801C376.414 287.351 380.382 288.063 384.255 288.913C385.285 289.137 386.359 289.386 387.432 289.643C388.093 289.798 388.84 289.678 389.433 289.317C389.957 288.991 390.318 288.51 390.438 287.943C390.704 286.758 390.137 285.264 388.737 284.929C384.59 283.924 380.364 283.091 376.165 282.438C370.969 281.631 365.808 281.081 360.819 280.798C357.942 280.635 355.039 280.549 352.137 280.549L352.154 280.558Z" fill="black"/>
<path d="M388.771 310.743C384.614 309.739 380.415 308.906 376.19 308.253C371.097 307.463 365.979 306.905 360.835 306.613C355.365 306.304 349.877 306.286 344.398 306.561C338.919 306.836 333.835 307.386 328.597 308.176C324.234 308.837 319.897 309.687 315.604 310.726C315.123 310.838 314.65 310.958 314.178 311.078C312.873 311.405 311.954 312.942 312.375 314.247C312.795 315.552 314.144 316.403 315.544 316.051C319.777 314.986 324.054 314.101 328.356 313.406C329.722 313.182 331.087 312.985 332.453 312.796L331.766 312.89C336.996 312.186 342.26 311.757 347.524 311.594C353.012 311.43 358.516 311.559 363.995 311.989C366.812 312.212 369.612 312.504 372.411 312.882L371.724 312.787C375.915 313.354 380.08 314.084 384.211 314.986C385.276 315.218 386.332 315.467 387.388 315.716C388.694 316.033 390.239 315.303 390.557 313.912C390.875 312.521 390.162 311.078 388.754 310.743H388.771Z" fill="#4D4D4D"/>
<path d="M314.9 316.257C313.715 316.257 312.65 315.492 312.255 314.29C312.049 313.655 312.135 312.925 312.496 312.281C312.865 311.611 313.466 311.13 314.145 310.958C314.617 310.838 315.098 310.718 315.57 310.606C319.856 309.576 324.227 308.717 328.572 308.056C333.948 307.24 339.264 306.699 344.382 306.441C349.844 306.166 355.374 306.183 360.836 306.493C365.817 306.776 370.987 307.326 376.199 308.133C380.399 308.785 384.633 309.619 388.789 310.623C390.343 311.001 390.979 312.641 390.687 313.947C390.541 314.574 390.146 315.123 389.562 315.484C388.909 315.888 388.093 316.025 387.363 315.845C386.29 315.587 385.216 315.338 384.186 315.115C380.236 314.247 376.191 313.526 372.155 312.976C369.432 312.616 366.684 312.332 363.988 312.118C358.535 311.688 352.995 311.559 347.534 311.722C342.415 311.877 337.228 312.298 332.102 312.976C330.856 313.148 329.603 313.337 328.375 313.535C324.106 314.23 319.795 315.115 315.57 316.18C315.338 316.24 315.115 316.265 314.892 316.265L314.9 316.257ZM352.154 306.493C349.569 306.493 346.984 306.561 344.416 306.69C339.307 306.948 333.991 307.497 328.632 308.305C324.295 308.957 319.924 309.816 315.648 310.847C315.175 310.958 314.694 311.078 314.222 311.199C313.612 311.353 313.071 311.791 312.728 312.401C312.41 312.985 312.324 313.638 312.513 314.204C312.942 315.527 314.213 316.248 315.527 315.922C319.761 314.857 324.072 313.964 328.349 313.268C329.482 313.088 330.624 312.908 331.767 312.753L332.436 312.667C332.436 312.667 332.436 312.667 332.445 312.667C337.46 312.023 342.527 311.611 347.534 311.465C353.013 311.302 358.552 311.431 364.013 311.86C366.564 312.057 369.166 312.332 371.751 312.659C371.751 312.659 371.828 312.659 371.863 312.667L372.438 312.744C376.397 313.294 380.364 314.007 384.246 314.857C385.277 315.08 386.35 315.329 387.424 315.587C388.085 315.75 388.832 315.621 389.424 315.261C389.948 314.934 390.309 314.445 390.438 313.887C390.704 312.701 390.137 311.207 388.737 310.872C384.59 309.868 380.356 309.035 376.165 308.382C370.961 307.575 365.8 307.025 360.819 306.742C357.942 306.578 355.039 306.493 352.137 306.493H352.154Z" fill="black"/>
<path d="M299.288 237.482H299.03V358.818H299.288V237.482Z" fill="black"/>
</svg>
