<svg width="600" height="600" viewBox="0 0 600 600" fill="none" xmlns="http://www.w3.org/2000/svg">
<path d="M287.206 208.901L208.391 280.963L299.92 384.101L389.663 279.959L312.332 208.901C305.188 202.472 294.35 202.472 287.206 208.901Z" fill="#29ABE2"/>
<path d="M299.92 384.358L299.797 384.213L208.156 280.952L208.279 280.841L287.095 208.778C294.316 202.271 305.222 202.271 312.444 208.778L389.898 279.948L389.797 280.07L299.931 384.358H299.92ZM208.625 280.986L299.92 383.856L389.429 279.981L312.22 209.035C305.121 202.639 294.417 202.639 287.318 209.035L208.625 280.986Z" fill="black"/>
<path d="M369.773 256.887V363.797C369.773 377.203 358.912 388.064 345.506 388.064H252.012C238.607 388.064 227.746 377.203 227.746 363.797V247.856C227.746 234.451 238.607 223.59 252.012 223.59H337.224C340.852 223.59 344.323 225.019 346.89 227.575L365.051 245.579C368.065 248.571 369.761 252.645 369.761 256.887H369.773Z" fill="#DEF3FF"/>
<path d="M345.506 388.231H252.012C238.539 388.231 227.578 377.27 227.578 363.797V247.857C227.578 234.384 238.539 223.423 252.012 223.423H337.223C340.918 223.423 344.389 224.851 347.013 227.452L365.173 245.446C368.198 248.448 369.94 252.612 369.94 256.876V363.786C369.94 377.259 358.978 388.22 345.506 388.22V388.231ZM252.012 223.769C238.729 223.769 227.913 234.574 227.913 247.868V363.808C227.913 377.091 238.718 387.907 252.012 387.907H345.506C358.789 387.907 369.605 377.102 369.605 363.808V256.898C369.605 252.723 367.908 248.649 364.939 245.702L346.778 227.709C344.222 225.175 340.829 223.78 337.223 223.78H252.012V223.769Z" fill="black"/>
<path d="M338.697 227.921L338.138 244.709C337.982 249.52 341.755 253.538 346.566 253.683L365.006 254.219C367.539 254.297 369.013 250.134 367.26 248.303L344.512 225.711C342.447 223.545 338.786 224.941 338.685 227.932L338.697 227.921Z" fill="#FFE98D"/>
<path d="M365.072 254.375H365.005L346.566 253.84C344.199 253.773 341.989 252.779 340.371 251.049C338.741 249.319 337.893 247.064 337.971 244.698L338.529 227.91C338.574 226.459 339.455 225.231 340.806 224.706C342.168 224.193 343.63 224.517 344.635 225.577L367.372 248.169C368.432 249.274 368.332 251.038 367.774 252.299C367.204 253.583 366.166 254.364 365.061 254.364L365.072 254.375ZM338.864 227.921L338.306 244.709C338.228 246.986 339.054 249.163 340.616 250.826C342.179 252.489 344.3 253.438 346.577 253.505L365.017 254.04C365.017 254.04 365.061 254.04 365.072 254.04C366.055 254.04 366.959 253.348 367.483 252.165C367.997 251.004 368.097 249.397 367.148 248.404L344.411 225.812C343.496 224.852 342.168 224.55 340.94 225.019C339.712 225.488 338.92 226.604 338.875 227.921H338.864Z" fill="black"/>
<path d="M386.817 395.832H212.688C209.697 395.832 207.274 393.41 207.274 390.419V283.341C207.274 278.798 212.543 276.275 216.081 279.122L296.326 343.705C298.301 345.302 301.125 345.302 303.112 343.705L383.435 279.122C386.973 276.275 392.242 278.798 392.242 283.341V390.419C392.242 393.41 389.819 395.832 386.828 395.832H386.817Z" fill="white"/>
<path d="M386.816 396H212.687C209.607 396 207.106 393.5 207.106 390.419V283.341C207.106 281.175 208.323 279.244 210.276 278.307C212.23 277.369 214.496 277.637 216.181 278.988L296.426 343.572C298.334 345.101 301.091 345.112 303 343.572L383.322 278.988C385.008 277.626 387.274 277.369 389.227 278.307C391.181 279.244 392.397 281.175 392.397 283.341V390.419C392.397 393.5 389.897 396 386.816 396ZM212.687 278.095C211.917 278.095 211.147 278.262 210.41 278.619C208.569 279.501 207.43 281.309 207.43 283.352V390.43C207.43 393.321 209.785 395.676 212.676 395.676H386.805C389.696 395.676 392.051 393.321 392.051 390.43V283.352C392.051 281.309 390.913 279.501 389.071 278.619C387.229 277.737 385.108 277.983 383.523 279.267L303.201 343.851C301.169 345.48 298.234 345.48 296.202 343.851L215.958 279.267C214.998 278.496 213.848 278.106 212.676 278.106L212.687 278.095Z" fill="black"/>
<path d="M389.138 393.131L313.336 332.175C305.411 325.802 294.126 325.802 286.201 332.175L210.466 393.12C209.417 393.957 210.02 395.643 211.359 395.643H388.256C389.596 395.643 390.187 393.957 389.149 393.12L389.138 393.131Z" fill="#FFE98D"/>
<path d="M388.245 395.833H211.359C210.678 395.833 210.087 395.42 209.863 394.772C209.64 394.125 209.83 393.433 210.366 393.009L286.1 332.052C294.026 325.679 305.523 325.679 313.448 332.052L389.249 393.009C389.785 393.433 389.975 394.125 389.752 394.772C389.528 395.42 388.937 395.833 388.256 395.833H388.245ZM299.774 327.61C294.986 327.61 290.208 329.184 286.313 332.32L210.578 393.276C210.064 393.689 210.042 394.259 210.187 394.672C210.332 395.074 210.712 395.509 211.37 395.509H388.267C388.926 395.509 389.305 395.074 389.45 394.672C389.595 394.27 389.562 393.689 389.06 393.276L313.258 332.32C309.362 329.184 304.574 327.621 299.796 327.621L299.774 327.61Z" fill="black"/>
<path d="M299.619 311.994C294.306 311.994 289.763 311.001 285.99 309.025C282.206 307.049 279.315 304.203 277.317 300.486C275.319 296.769 274.314 292.304 274.314 287.091C274.314 282.906 274.962 279.032 276.268 275.449C277.574 271.866 279.46 268.763 281.938 266.14C284.416 263.506 287.419 261.463 290.946 260.001C294.473 258.539 298.469 257.813 302.923 257.813C307.6 257.813 311.763 258.784 315.402 260.715C319.041 262.646 321.91 265.415 324.008 269.02C326.095 272.625 327.145 276.912 327.145 281.912C327.145 283.977 326.91 286.009 326.441 287.984C325.973 289.96 325.236 291.757 324.254 293.353C323.26 294.95 322.044 296.233 320.615 297.204C319.175 298.175 317.467 298.655 315.491 298.655C313.516 298.655 311.786 298.064 310.602 296.869C309.408 295.675 308.683 294.313 308.415 292.784H308.08C307.265 294.447 306.082 295.843 304.508 296.97C302.934 298.097 300.958 298.655 298.57 298.655C295.154 298.655 292.509 297.506 290.645 295.217C288.781 292.918 287.843 289.882 287.843 286.109C287.843 283.14 288.423 280.517 289.595 278.251C290.767 275.974 292.419 274.188 294.551 272.882C296.683 271.576 299.217 270.929 302.142 270.929C304.117 270.929 306.071 271.096 307.979 271.431C308.203 271.476 308.426 271.509 308.638 271.554C310.837 271.978 312.388 273.942 312.288 276.175L311.797 286.243C311.752 287.047 311.73 287.627 311.73 287.962V288.665C311.73 291.009 312.143 292.561 312.98 293.32C313.817 294.09 314.788 294.47 315.916 294.47C317.311 294.47 318.494 293.9 319.454 292.751C320.425 291.601 321.162 290.072 321.675 288.163C322.189 286.254 322.457 284.145 322.457 281.856C322.457 277.671 321.619 274.132 319.923 271.23C318.226 268.328 315.916 266.118 312.969 264.589C310.022 263.059 306.685 262.289 302.945 262.289C297.822 262.289 293.491 263.35 289.953 265.459C286.414 267.58 283.746 270.482 281.927 274.199C280.108 277.916 279.192 282.147 279.192 286.924C279.192 293.577 280.945 298.689 284.45 302.238C287.955 305.788 293.022 307.574 299.63 307.574C302.376 307.574 304.999 307.272 307.488 306.659C308.839 306.335 310.111 305.989 311.294 305.621C312.712 305.185 314.13 306.257 314.13 307.741C314.13 308.679 313.538 309.516 312.645 309.829C311.105 310.387 309.419 310.856 307.611 311.246C305.2 311.76 302.543 312.028 299.619 312.028V311.994ZM299.418 294.447C301.941 294.447 303.749 293.498 304.854 291.612C305.959 289.726 306.595 287.27 306.774 284.256L307.075 277.95C307.131 276.677 306.238 275.55 304.977 275.36H304.954C304.05 275.226 303.135 275.159 302.186 275.159C299.976 275.159 298.201 275.695 296.851 276.778C295.5 277.86 294.529 279.244 293.949 280.93C293.368 282.615 293.067 284.379 293.067 286.232C293.067 289.112 293.636 291.199 294.786 292.505C295.935 293.811 297.476 294.458 299.407 294.458L299.418 294.447Z" fill="#4D4D4D"/>
<path d="M299.617 312.161C294.304 312.161 289.694 311.157 285.91 309.17C282.115 307.183 279.18 304.292 277.17 300.564C275.161 296.847 274.146 292.315 274.146 287.091C274.146 282.906 274.804 278.965 276.11 275.393C277.416 271.81 279.336 268.663 281.814 266.028C284.292 263.394 287.339 261.318 290.877 259.845C294.416 258.382 298.468 257.635 302.921 257.635C307.609 257.635 311.829 258.617 315.479 260.559C319.129 262.501 322.053 265.314 324.152 268.919C326.25 272.525 327.311 276.889 327.311 281.89C327.311 283.966 327.076 286.02 326.596 288.007C326.116 289.993 325.38 291.813 324.386 293.42C323.393 295.028 322.143 296.345 320.691 297.316C319.229 298.298 317.477 298.8 315.468 298.8C313.358 298.8 311.672 298.186 310.456 296.959C309.284 295.787 308.536 294.425 308.246 292.929H308.156C307.342 294.57 306.136 295.965 304.573 297.081C302.977 298.22 300.946 298.8 298.535 298.8C295.074 298.8 292.362 297.617 290.476 295.295C288.589 292.985 287.64 289.882 287.64 286.076C287.64 283.095 288.232 280.416 289.415 278.139C290.598 275.851 292.284 274.02 294.438 272.703C296.592 271.386 299.171 270.717 302.118 270.717C304.093 270.717 306.069 270.884 307.978 271.23C308.201 271.275 308.424 271.308 308.648 271.353C310.913 271.788 312.543 273.842 312.432 276.152L311.94 286.221C311.896 287.047 311.873 287.605 311.873 287.928V288.632C311.873 290.909 312.275 292.438 313.068 293.163C313.86 293.9 314.809 294.269 315.892 294.269C317.231 294.269 318.381 293.71 319.307 292.605C320.256 291.489 320.993 289.96 321.495 288.085C322.009 286.198 322.265 284.089 322.265 281.823C322.265 277.682 321.417 274.143 319.754 271.275C318.091 268.417 315.78 266.207 312.867 264.689C309.954 263.182 306.616 262.412 302.921 262.412C297.843 262.412 293.512 263.472 290.018 265.56C286.524 267.647 283.845 270.56 282.048 274.233C280.251 277.905 279.336 282.158 279.336 286.879C279.336 293.465 281.088 298.577 284.549 302.082C288.009 305.587 293.076 307.362 299.617 307.362C302.33 307.362 304.964 307.06 307.442 306.458C308.793 306.123 310.076 305.777 311.237 305.419C311.963 305.196 312.722 305.33 313.324 305.777C313.938 306.234 314.284 306.926 314.284 307.697C314.284 308.701 313.648 309.605 312.699 309.951C311.159 310.509 309.462 310.978 307.643 311.369C305.232 311.882 302.531 312.15 299.606 312.15L299.617 312.161ZM302.921 257.969C298.512 257.969 294.505 258.706 291.011 260.146C287.518 261.597 284.504 263.651 282.059 266.24C279.615 268.841 277.717 271.955 276.423 275.494C275.128 279.032 274.469 282.928 274.469 287.08C274.469 292.248 275.474 296.724 277.449 300.397C279.425 304.058 282.316 306.904 286.055 308.869C289.795 310.822 294.36 311.815 299.606 311.815C302.497 311.815 305.176 311.559 307.565 311.045C309.362 310.654 311.047 310.186 312.577 309.639C313.391 309.349 313.95 308.567 313.95 307.708C313.95 307.049 313.648 306.446 313.124 306.067C312.599 305.687 311.952 305.565 311.326 305.754C310.154 306.112 308.871 306.458 307.509 306.792C305.009 307.395 302.352 307.708 299.606 307.708C292.976 307.708 287.83 305.899 284.303 302.328C280.776 298.756 278.99 293.565 278.99 286.89C278.99 282.113 279.916 277.816 281.736 274.099C283.566 270.382 286.29 267.413 289.828 265.292C293.367 263.171 297.765 262.099 302.899 262.099C306.638 262.099 310.043 262.881 313.001 264.41C315.959 265.95 318.325 268.205 320.022 271.118C321.718 274.032 322.578 277.637 322.578 281.834C322.578 284.133 322.31 286.265 321.797 288.185C321.272 290.116 320.513 291.679 319.542 292.84C318.548 294.023 317.309 294.626 315.869 294.626C314.709 294.626 313.682 294.224 312.822 293.431C311.94 292.628 311.516 291.065 311.516 288.654V287.951C311.516 287.616 311.539 287.047 311.583 286.221L312.074 276.152C312.175 274.02 310.668 272.101 308.569 271.699C308.357 271.654 308.134 271.621 307.911 271.576C306.013 271.241 304.06 271.074 302.107 271.074C299.227 271.074 296.704 271.721 294.606 273.005C292.507 274.288 290.855 276.074 289.705 278.307C288.556 280.539 287.975 283.162 287.975 286.087C287.975 289.804 288.902 292.84 290.744 295.095C292.563 297.338 295.186 298.477 298.546 298.477C300.879 298.477 302.843 297.919 304.384 296.825C305.924 295.72 307.118 294.335 307.911 292.706L307.956 292.617H308.536L308.558 292.75C308.815 294.235 309.541 295.586 310.701 296.747C311.851 297.896 313.458 298.488 315.479 298.488C317.499 298.488 319.106 298.008 320.513 297.07C321.93 296.121 323.136 294.838 324.107 293.275C325.078 291.701 325.815 289.915 326.284 287.962C326.752 286.009 326.987 283.977 326.987 281.923C326.987 276.99 325.938 272.681 323.873 269.12C321.808 265.571 318.939 262.791 315.334 260.883C311.728 258.974 307.554 258.003 302.933 258.003L302.921 257.969ZM299.417 294.615C297.441 294.615 295.845 293.934 294.673 292.605C293.501 291.277 292.909 289.123 292.909 286.221C292.909 284.368 293.21 282.559 293.791 280.874C294.382 279.166 295.376 277.749 296.749 276.644C298.122 275.55 299.952 274.992 302.185 274.992C303.133 274.992 304.071 275.059 304.975 275.192H305.02C306.348 275.393 307.308 276.588 307.241 277.961L306.94 284.267C306.761 287.292 306.103 289.793 304.998 291.701C303.87 293.632 301.995 294.615 299.417 294.615ZM302.185 275.315C300.03 275.315 298.267 275.851 296.961 276.9C295.644 277.961 294.684 279.322 294.115 280.974C293.534 282.638 293.244 284.401 293.244 286.221C293.244 289.045 293.813 291.121 294.918 292.382C296.023 293.643 297.541 294.28 299.417 294.28C301.861 294.28 303.636 293.353 304.707 291.534C305.79 289.681 306.426 287.225 306.605 284.256L306.906 277.95C306.962 276.744 306.125 275.706 304.953 275.527C304.038 275.393 303.111 275.326 302.185 275.326V275.315Z" fill="black"/>
</svg>
