<svg width="600" height="600" viewBox="0 0 600 600" fill="none" xmlns="http://www.w3.org/2000/svg">
<path d="M366.642 207.578H247.435C237.939 207.578 230.24 215.277 230.24 224.773V389.425C230.24 398.922 237.939 406.62 247.435 406.62H366.642C376.138 406.62 383.837 398.922 383.837 389.425V224.773C383.837 215.277 376.138 207.578 366.642 207.578Z" fill="#8C6239"/>
<path d="M366.641 406.784H247.446C237.876 406.784 230.087 398.995 230.087 389.425V224.773C230.087 215.203 237.876 207.414 247.446 207.414H366.641C376.211 207.414 384 215.203 384 224.773V389.414C384 398.984 376.211 406.773 366.641 406.773V406.784ZM247.435 207.742C238.04 207.742 230.404 215.378 230.404 224.773V389.414C230.404 398.809 238.051 406.445 247.435 406.445H366.631C376.025 406.445 383.662 398.798 383.662 389.414V224.773C383.662 215.378 376.015 207.742 366.631 207.742H247.435Z" fill="black"/>
<path d="M366.642 201.024H247.435C237.939 201.024 230.24 208.722 230.24 218.219V382.871C230.24 392.367 237.939 400.066 247.435 400.066H366.642C376.138 400.066 383.837 392.367 383.837 382.871V218.219C383.837 208.722 376.138 201.024 366.642 201.024Z" fill="#DEF3FF"/>
<path d="M366.641 400.229H247.446C237.876 400.229 230.087 392.44 230.087 382.871V218.219C230.087 208.649 237.876 200.86 247.446 200.86H366.641C376.211 200.86 384 208.649 384 218.219V382.86C384 392.429 376.211 400.218 366.641 400.218V400.229ZM247.435 201.187C238.04 201.187 230.404 208.824 230.404 218.219V382.86C230.404 392.255 238.051 399.891 247.435 399.891H366.631C376.025 399.891 383.662 392.244 383.662 382.86V218.219C383.662 208.824 376.015 201.187 366.631 201.187H247.435Z" fill="black"/>
<path d="M366.642 191.192H247.435C237.939 191.192 230.24 198.89 230.24 208.387V373.039C230.24 382.535 237.939 390.234 247.435 390.234H366.642C376.138 390.234 383.837 382.535 383.837 373.039V208.387C383.837 198.89 376.138 191.192 366.642 191.192Z" fill="#8C6239"/>
<path d="M366.641 390.397H247.446C237.876 390.397 230.087 382.608 230.087 373.039V208.387C230.087 198.817 237.876 191.028 247.446 191.028H366.641C376.211 191.028 384 198.817 384 208.387V373.028C384 382.597 376.211 390.386 366.641 390.386V390.397ZM247.435 191.356C238.04 191.356 230.404 198.992 230.404 208.387V373.028C230.404 382.423 238.051 390.059 247.435 390.059H366.631C376.025 390.059 383.662 382.412 383.662 373.028V208.387C383.662 198.992 376.015 191.356 366.631 191.356H247.435Z" fill="black"/>
<path d="M246.845 248.217C252.275 248.217 256.677 243.815 256.677 238.385C256.677 232.955 252.275 228.553 246.845 228.553C241.415 228.553 237.013 232.955 237.013 238.385C237.013 243.815 241.415 248.217 246.845 248.217Z" fill="white"/>
<path d="M246.844 248.381C241.328 248.381 236.849 243.891 236.849 238.385C236.849 232.879 241.328 228.389 246.844 228.389C252.361 228.389 256.84 232.879 256.84 238.385C256.84 243.891 252.361 248.381 246.844 248.381ZM246.844 228.717C241.513 228.717 237.176 233.054 237.176 238.385C237.176 243.716 241.513 248.053 246.844 248.053C252.176 248.053 256.512 243.716 256.512 238.385C256.512 233.054 252.176 228.717 246.844 228.717Z" fill="black"/>
<path d="M219.425 241.225H245.731C246.091 241.225 246.441 241.225 246.801 241.225C246.812 241.225 246.834 241.225 246.845 241.225C247.293 241.247 247.719 241.149 248.112 240.941C248.516 240.81 248.866 240.581 249.172 240.264C249.489 239.969 249.718 239.619 249.849 239.204C250.057 238.811 250.144 238.396 250.133 237.937L250.013 237.063C249.86 236.506 249.576 236.025 249.172 235.621L248.505 235.108C247.992 234.813 247.446 234.66 246.856 234.66H220.55C220.189 234.66 219.84 234.66 219.479 234.66C219.468 234.66 219.447 234.66 219.436 234.66C218.988 234.638 218.562 234.736 218.168 234.944C217.764 235.075 217.415 235.304 217.109 235.621C216.792 235.916 216.563 236.266 216.431 236.681C216.224 237.074 216.136 237.489 216.147 237.948L216.268 238.822C216.421 239.379 216.705 239.86 217.109 240.264L217.775 240.777C218.289 241.072 218.835 241.225 219.425 241.225Z" fill="#4D4D4D"/>
<path d="M246.954 241.389C246.954 241.389 246.877 241.389 246.844 241.389H245.741H219.435C218.812 241.389 218.233 241.225 217.698 240.919L217.021 240.395C216.584 239.958 216.278 239.445 216.125 238.866L216.005 237.97C215.983 237.478 216.081 237.019 216.3 236.604C216.431 236.2 216.671 235.818 217.01 235.501C217.316 235.173 217.698 234.933 218.124 234.791C218.507 234.583 218.955 234.474 219.446 234.496H220.549H246.855C247.478 234.496 248.057 234.66 248.592 234.966L249.27 235.49C249.707 235.927 250.012 236.44 250.165 237.019L250.286 237.915C250.307 238.407 250.209 238.866 249.991 239.281C249.86 239.685 249.619 240.067 249.281 240.384C248.975 240.712 248.592 240.952 248.166 241.094C247.806 241.28 247.391 241.389 246.954 241.389ZM246.801 241.061H246.844C247.27 241.083 247.664 240.985 248.035 240.799C248.439 240.668 248.767 240.45 249.051 240.155C249.357 239.871 249.575 239.543 249.696 239.161C249.892 238.767 249.991 238.374 249.969 237.959L249.849 237.107C249.707 236.604 249.433 236.145 249.051 235.752L248.407 235.25C247.937 234.977 247.412 234.835 246.855 234.835H219.435C219.02 234.802 218.616 234.911 218.244 235.097C217.84 235.228 217.512 235.446 217.228 235.741C216.923 236.025 216.715 236.353 216.584 236.735C216.387 237.118 216.289 237.522 216.311 237.937L216.431 238.789C216.573 239.292 216.846 239.75 217.228 240.144L217.873 240.646C218.332 240.919 218.867 241.061 219.424 241.061H246.801Z" fill="black"/>
<path d="M246.845 286.234C252.275 286.234 256.677 281.832 256.677 276.402C256.677 270.972 252.275 266.57 246.845 266.57C241.415 266.57 237.013 270.972 237.013 276.402C237.013 281.832 241.415 286.234 246.845 286.234Z" fill="white"/>
<path d="M246.844 286.398C241.328 286.398 236.849 281.908 236.849 276.402C236.849 270.896 241.328 266.406 246.844 266.406C252.361 266.406 256.84 270.896 256.84 276.402C256.84 281.908 252.361 286.398 246.844 286.398ZM246.844 266.734C241.513 266.734 237.176 271.071 237.176 276.402C237.176 281.733 241.513 286.07 246.844 286.07C252.176 286.07 256.512 281.733 256.512 276.402C256.512 271.071 252.176 266.734 246.844 266.734Z" fill="black"/>
<path d="M219.425 279.242H245.731C246.091 279.242 246.441 279.242 246.801 279.242C246.812 279.242 246.834 279.242 246.845 279.242C247.293 279.264 247.719 279.166 248.112 278.958C248.516 278.827 248.866 278.598 249.172 278.281C249.489 277.986 249.718 277.636 249.849 277.221C250.057 276.828 250.144 276.413 250.133 275.954L250.013 275.08C249.86 274.523 249.576 274.042 249.172 273.638L248.505 273.124C247.992 272.829 247.446 272.677 246.856 272.677H220.55C220.189 272.677 219.84 272.677 219.479 272.677C219.468 272.677 219.447 272.677 219.436 272.677C218.988 272.655 218.562 272.753 218.168 272.961C217.764 273.092 217.415 273.321 217.109 273.638C216.792 273.933 216.563 274.282 216.431 274.698C216.224 275.091 216.136 275.506 216.147 275.965L216.268 276.839C216.421 277.396 216.705 277.877 217.109 278.281L217.775 278.794C218.289 279.089 218.835 279.242 219.425 279.242Z" fill="#4D4D4D"/>
<path d="M246.954 279.406C246.954 279.406 246.877 279.406 246.845 279.406H246.801C246.561 279.406 246.331 279.406 246.091 279.406H219.424C218.813 279.406 218.223 279.242 217.687 278.936L217.01 278.412C216.573 277.964 216.267 277.461 216.114 276.882L215.994 275.987C215.972 275.495 216.071 275.036 216.289 274.621C216.42 274.217 216.661 273.835 216.999 273.518C217.305 273.19 217.687 272.95 218.114 272.808C218.507 272.6 218.955 272.491 219.435 272.513H220.539H246.845C247.467 272.513 248.046 272.677 248.582 272.982L249.259 273.507C249.696 273.944 250.002 274.457 250.155 275.036L250.275 275.932C250.297 276.424 250.198 276.882 249.98 277.298C249.849 277.702 249.608 278.084 249.27 278.401C248.964 278.729 248.582 278.969 248.156 279.111C247.795 279.297 247.38 279.406 246.943 279.406H246.954ZM246.801 279.078H246.845C247.271 279.111 247.664 279.002 248.035 278.816C248.44 278.685 248.767 278.466 249.051 278.172C249.357 277.887 249.576 277.549 249.696 277.177C249.892 276.784 249.991 276.391 249.969 275.976L249.849 275.124C249.707 274.621 249.434 274.162 249.051 273.769L248.407 273.266C247.937 272.993 247.413 272.851 246.856 272.851H219.435C219.009 272.819 218.616 272.928 218.245 273.114C217.84 273.245 217.513 273.463 217.229 273.758C216.923 274.042 216.715 274.37 216.584 274.752C216.387 275.135 216.289 275.539 216.311 275.954L216.431 276.806C216.573 277.308 216.846 277.767 217.229 278.161L217.873 278.663C218.343 278.936 218.867 279.078 219.424 279.078H246.091C246.331 279.078 246.561 279.078 246.801 279.078Z" fill="black"/>
<path d="M246.845 324.25C252.275 324.25 256.677 319.849 256.677 314.419C256.677 308.989 252.275 304.587 246.845 304.587C241.415 304.587 237.013 308.989 237.013 314.419C237.013 319.849 241.415 324.25 246.845 324.25Z" fill="white"/>
<path d="M246.844 324.414C241.328 324.414 236.849 319.924 236.849 314.419C236.849 308.913 241.328 304.423 246.844 304.423C252.361 304.423 256.84 308.913 256.84 314.419C256.84 319.924 252.361 324.414 246.844 324.414ZM246.844 304.75C241.513 304.75 237.176 309.087 237.176 314.419C237.176 319.75 241.513 324.087 246.844 324.087C252.176 324.087 256.512 319.75 256.512 314.419C256.512 309.087 252.176 304.75 246.844 304.75Z" fill="black"/>
<path d="M219.425 317.259H245.731C246.091 317.259 246.441 317.259 246.801 317.259C246.812 317.259 246.834 317.259 246.845 317.259C247.293 317.281 247.719 317.182 248.112 316.975C248.516 316.844 248.866 316.614 249.172 316.297C249.489 316.002 249.718 315.653 249.849 315.238C250.057 314.845 250.144 314.429 250.133 313.971L250.013 313.097C249.86 312.539 249.576 312.059 249.172 311.655L248.505 311.141C247.992 310.846 247.446 310.693 246.856 310.693H220.55C220.189 310.693 219.84 310.693 219.479 310.693C219.468 310.693 219.447 310.693 219.436 310.693C218.988 310.671 218.562 310.77 218.168 310.977C217.764 311.108 217.415 311.338 217.109 311.655C216.792 311.95 216.563 312.299 216.431 312.714C216.224 313.108 216.136 313.523 216.147 313.981L216.268 314.855C216.421 315.413 216.705 315.893 217.109 316.297L217.775 316.811C218.289 317.106 218.835 317.259 219.425 317.259Z" fill="#4D4D4D"/>
<path d="M246.954 317.423C246.954 317.423 246.877 317.423 246.844 317.423H245.741H219.435C218.812 317.423 218.233 317.259 217.698 316.953L217.021 316.429C216.584 315.992 216.278 315.478 216.125 314.899L216.005 314.003C215.983 313.512 216.081 313.053 216.3 312.638C216.431 312.234 216.671 311.851 217.01 311.534C217.316 311.207 217.698 310.955 218.124 310.824C218.518 310.617 218.965 310.508 219.446 310.54H219.49C219.73 310.54 219.96 310.54 220.2 310.54H246.866C247.478 310.54 248.068 310.704 248.603 311.01L249.281 311.534C249.718 311.971 250.023 312.485 250.176 313.064L250.297 313.96C250.318 314.451 250.22 314.91 250.002 315.325C249.87 315.729 249.63 316.112 249.291 316.429C248.986 316.756 248.603 316.997 248.177 317.139C247.817 317.335 247.402 317.434 246.965 317.434L246.954 317.423ZM246.801 317.095H246.844C247.27 317.117 247.664 317.019 248.035 316.833C248.439 316.702 248.767 316.483 249.051 316.188C249.357 315.904 249.575 315.576 249.696 315.194C249.892 314.801 249.991 314.408 249.969 313.992L249.849 313.14C249.707 312.638 249.433 312.179 249.051 311.786L248.407 311.283C247.937 311.01 247.412 310.868 246.855 310.868H220.189C219.949 310.868 219.719 310.868 219.479 310.868H219.435C219.009 310.846 218.616 310.945 218.244 311.13C217.84 311.261 217.512 311.48 217.228 311.775C216.923 312.059 216.704 312.387 216.584 312.769C216.387 313.151 216.289 313.555 216.311 313.971L216.431 314.823C216.573 315.325 216.846 315.784 217.228 316.177L217.873 316.68C218.343 316.953 218.867 317.095 219.424 317.095H246.801Z" fill="black"/>
<path d="M246.845 362.267C252.275 362.267 256.677 357.865 256.677 352.435C256.677 347.005 252.275 342.603 246.845 342.603C241.415 342.603 237.013 347.005 237.013 352.435C237.013 357.865 241.415 362.267 246.845 362.267Z" fill="white"/>
<path d="M246.844 362.431C241.328 362.431 236.849 357.941 236.849 352.435C236.849 346.929 241.328 342.439 246.844 342.439C252.361 342.439 256.84 346.929 256.84 352.435C256.84 357.941 252.361 362.431 246.844 362.431ZM246.844 342.767C241.513 342.767 237.176 347.104 237.176 352.435C237.176 357.766 241.513 362.103 246.844 362.103C252.176 362.103 256.512 357.766 256.512 352.435C256.512 347.104 252.176 342.767 246.844 342.767Z" fill="black"/>
<path d="M219.425 355.276H245.731C246.091 355.276 246.441 355.276 246.801 355.276C246.812 355.276 246.834 355.276 246.845 355.276C247.293 355.297 247.719 355.199 248.112 354.992C248.516 354.86 248.866 354.631 249.172 354.314C249.489 354.019 249.718 353.67 249.849 353.255C250.057 352.861 250.144 352.446 250.133 351.987L250.013 351.113C249.86 350.556 249.576 350.076 249.172 349.671L248.505 349.158C247.992 348.863 247.446 348.71 246.856 348.71H220.55C220.189 348.71 219.84 348.71 219.479 348.71C219.468 348.71 219.447 348.71 219.436 348.71C218.988 348.688 218.562 348.787 218.168 348.994C217.764 349.125 217.415 349.355 217.109 349.671C216.792 349.966 216.563 350.316 216.431 350.731C216.224 351.124 216.136 351.539 216.147 351.998L216.268 352.872C216.421 353.429 216.705 353.91 217.109 354.314L217.775 354.828C218.289 355.123 218.835 355.276 219.425 355.276Z" fill="#4D4D4D"/>
<path d="M246.954 355.439C246.954 355.439 246.877 355.439 246.844 355.439H245.741H219.435C218.812 355.439 218.233 355.276 217.698 354.97L217.021 354.445C216.584 354.008 216.278 353.495 216.125 352.916L216.005 352.02C215.983 351.529 216.081 351.07 216.3 350.655C216.431 350.25 216.671 349.868 217.01 349.551C217.316 349.224 217.698 348.972 218.124 348.841C218.518 348.634 218.965 348.524 219.446 348.557H220.549H246.855C247.467 348.557 248.057 348.721 248.592 349.027L249.27 349.551C249.707 349.988 250.002 350.502 250.165 351.081L250.286 351.976C250.307 352.468 250.209 352.927 249.991 353.342C249.86 353.746 249.619 354.129 249.281 354.445C248.975 354.773 248.603 355.013 248.166 355.155C247.806 355.352 247.391 355.45 246.954 355.45V355.439ZM246.801 355.112H246.844C247.27 355.145 247.664 355.035 248.035 354.85C248.439 354.718 248.767 354.5 249.051 354.205C249.357 353.921 249.575 353.593 249.696 353.211C249.892 352.818 249.991 352.424 249.969 352.009L249.849 351.157C249.707 350.655 249.433 350.196 249.051 349.803L248.407 349.3C247.937 349.027 247.412 348.885 246.855 348.885H219.435C219.009 348.863 218.616 348.961 218.244 349.147C217.84 349.278 217.512 349.497 217.228 349.792C216.923 350.076 216.704 350.403 216.584 350.786C216.387 351.168 216.289 351.572 216.311 351.987L216.431 352.839C216.573 353.342 216.846 353.801 217.228 354.194L217.873 354.697C218.343 354.97 218.867 355.112 219.424 355.112H246.801Z" fill="black"/>
<path d="M357.726 189.335H342.979V410.225H357.726V189.335Z" fill="#FFB85A"/>
<path d="M357.89 410.389H342.814V189.171H357.89V410.389ZM343.142 410.061H357.562V189.498H343.142V410.061Z" fill="black"/>
</svg>
