<svg width="600" height="600" viewBox="0 0 600 600" fill="none" xmlns="http://www.w3.org/2000/svg">
<path d="M235.283 422.261V421.392C280.39 421.383 332.641 421.383 377.583 421.388V422.256C332.641 422.256 280.386 422.256 235.283 422.261Z" fill="#231F20"/>
<path d="M354.018 376.623L350.225 376.764L350.257 377.632L354.05 377.491L354.018 376.623Z" fill="#231F20"/>
<path d="M349.557 189.105C349.557 189.105 349.869 188.692 350.43 188.01C350.199 188.323 349.965 188.653 349.735 188.987C349.622 189.061 349.561 189.105 349.561 189.105H349.557Z" fill="#2C1B18"/>
<path d="M375.436 184.731C375.314 185.078 375.149 185.395 374.949 185.686C375.088 185.356 375.245 185.035 375.436 184.731Z" fill="#2C1B18"/>
<path d="M396.526 229.664C396.422 229.994 396.292 230.315 396.131 230.632C396.196 230.454 396.322 230.111 396.526 229.664Z" fill="#2C1B18"/>
<path d="M349.731 188.983C350.599 188.422 354.699 186.082 361.244 187.128C364.545 187.654 366.052 187.966 368.988 188.101C371.22 188.205 373.748 187.458 374.955 185.691C373.817 188.414 374.429 191.836 376.553 193.912C377.491 194.828 378.66 195.484 379.624 196.375C383.58 200.014 383.176 206.368 385.73 211.097C387.589 214.546 390.907 216.93 393.482 219.888C395.819 222.576 397.573 226.372 396.531 229.664C396.327 230.111 396.197 230.454 396.136 230.632C396.297 230.315 396.427 229.994 396.531 229.664C397.148 228.313 398.472 226.011 400.918 224.348C404.835 222.342 409.782 222.276 414.125 224.6C415.345 225.251 416.431 226.051 417.378 226.958C421.743 231.132 423.098 237.607 420.262 242.91C416.809 249.364 408.466 251.627 401.626 247.966C400.883 247.57 400.192 247.114 399.55 246.619L399.606 248.157C399.128 259.696 398.651 271.231 398.177 282.771C369.009 285.841 335.186 288.082 333.626 281.403C332.597 276.973 345.136 265.998 345.136 265.998L347.811 263.31C329.904 255.866 330.591 237.755 332.45 232.548C332.871 231.366 333.453 230.25 333.87 229.069C335.103 225.377 336.419 221.629 337.813 217.829C341.583 207.588 345.6 197.973 349.735 188.991L349.731 188.983Z" fill="#E5AE9F"/>
<path d="M353.96 286.176C348.153 286.176 343.524 285.876 340.184 285.286C335.901 284.526 333.613 283.288 333.196 281.494C332.145 276.973 343.537 266.811 344.839 265.668L347.046 263.453C329.847 255.905 329.995 238.103 332.036 232.396C332.249 231.806 332.501 231.228 332.744 230.668C332.992 230.099 333.248 229.508 333.456 228.917C334.707 225.174 336.036 221.391 337.404 217.673C340.983 207.945 345 198.234 349.339 188.805L349.391 188.692L349.495 188.623C350.286 188.115 354.564 185.626 361.313 186.703C361.825 186.786 362.298 186.864 362.737 186.933C365.117 187.324 366.555 187.559 369.009 187.672C370.833 187.754 373.386 187.224 374.594 185.448L376.995 181.921L375.354 185.861C374.259 188.484 374.876 191.672 376.856 193.604C377.334 194.069 377.864 194.46 378.433 194.877C378.932 195.241 379.449 195.624 379.918 196.058C382.385 198.329 383.223 201.626 384.035 204.814C384.565 206.894 385.113 209.048 386.111 210.894C387.301 213.1 389.16 214.911 390.954 216.666C391.914 217.604 392.908 218.577 393.807 219.606C396.014 222.142 397.221 224.935 397.264 227.454C398.059 226.268 399.162 225.013 400.669 223.988L400.717 223.962C404.917 221.808 410.007 221.903 414.324 224.214C415.544 224.865 416.673 225.682 417.672 226.637C422.259 231.019 423.479 237.795 420.639 243.106C417.077 249.76 408.456 252.109 401.416 248.34C400.939 248.083 400.47 247.797 400.014 247.488L400.035 248.131L398.589 283.153L398.215 283.192C380.34 285.073 365.986 286.072 355.545 286.167C355.007 286.172 354.477 286.176 353.96 286.176ZM345.491 266.25L345.482 266.263L345.417 266.32C345.287 266.433 342.186 269.164 339.25 272.391C335.511 276.5 333.66 279.666 334.043 281.295C334.846 284.747 346.568 287.731 397.751 282.367L399.167 248.127L399.08 245.699L399.814 246.264C400.456 246.759 401.134 247.197 401.829 247.571C408.448 251.11 416.543 248.922 419.874 242.694C422.532 237.721 421.381 231.376 417.073 227.263C416.131 226.359 415.067 225.591 413.916 224.974C409.855 222.802 405.082 222.707 401.138 224.713C398.902 226.242 397.621 228.327 396.934 229.816C396.821 230.168 396.682 230.507 396.517 230.824L395.723 230.481C395.836 230.164 395.97 229.834 396.122 229.504C397.125 226.294 395.249 222.577 393.151 220.171C392.279 219.167 391.297 218.208 390.35 217.282C388.509 215.484 386.602 213.621 385.347 211.302C384.3 209.361 383.74 207.154 383.197 205.022C382.381 201.817 381.608 198.785 379.332 196.688C378.898 196.288 378.42 195.936 377.92 195.572C377.356 195.155 376.77 194.729 376.253 194.221C374.433 192.44 373.634 189.726 374.073 187.185C372.565 188.262 370.524 188.61 368.969 188.531C366.468 188.419 365.009 188.18 362.598 187.784C362.16 187.711 361.69 187.637 361.178 187.554C355.002 186.573 351.041 188.684 350.077 189.279C345.769 198.651 341.782 208.301 338.225 217.969C336.861 221.678 335.537 225.456 334.286 229.195C334.069 229.821 333.804 230.424 333.548 231.011C333.309 231.558 333.065 232.118 332.861 232.683C330.872 238.246 330.764 255.74 347.979 262.897L348.579 263.145L345.495 266.246L345.491 266.25Z" fill="#231F20"/>
<path d="M385.4 225.851C385.387 225.747 383.85 215.354 365.926 210.911L366.134 210.068C384.679 214.663 386.208 225.295 386.26 225.742L385.4 225.851Z" fill="#231F20"/>
<path d="M356.32 206.95C354.405 205.243 352.233 203.914 349.871 203.011C345.48 201.326 341.432 201.487 338.809 201.916L338.67 201.061C341.402 200.614 345.614 200.449 350.183 202.203C352.646 203.15 354.909 204.527 356.902 206.307L356.324 206.954L356.32 206.95Z" fill="#231F20"/>
<path d="M356.383 239.944C351.392 239.775 348.756 237.877 348.548 234.298C348.309 230.294 351.275 225.108 353.798 221.465C356.3 217.86 359.505 214.203 360.274 214.086L360.404 214.946C360.439 214.941 360.456 214.933 360.456 214.933C359.397 215.419 348.135 228.196 349.508 235.045C350.016 237.582 352.339 238.941 356.404 239.08L356.374 239.949L356.383 239.944Z" fill="#231F20"/>
<path d="M350.617 254.636C361.484 258.593 373.349 247.509 373.349 247.509C373.349 247.509 355.959 249.212 350.044 245.051L352.363 250.176L350.617 254.641V254.636Z" fill="white"/>
<path d="M355.558 255.914C353.769 255.914 352.062 255.623 350.468 255.045L350.051 254.893L351.893 250.189L348.996 243.779L350.299 244.695C356.014 248.717 373.139 247.093 373.308 247.08L374.581 246.954L373.647 247.827C373.526 247.94 370.59 250.663 366.264 252.943C362.512 254.919 358.89 255.918 355.563 255.918L355.558 255.914ZM351.185 254.372C359.762 257.173 369.026 250.506 372.04 248.053C368.101 248.339 356.675 248.886 350.998 246.111L352.831 250.163L351.185 254.376V254.372Z" fill="#231F20"/>
<path d="M348.593 263.153C352.419 264.608 360.111 266.919 369.67 265.533C375.767 264.647 380.519 262.567 383.615 260.886C381.292 262.954 377.843 265.451 373.196 267.114C360.671 271.592 349.292 266.484 346.426 265.095C346.582 264.812 346.825 264.452 347.186 264.1C347.703 263.592 348.237 263.31 348.593 263.162V263.153Z" fill="#231F20"/>
<path d="M412.684 234.444L401.429 236.174L401.561 237.033L412.816 235.303L412.684 234.444Z" fill="#231F20"/>
<path d="M399.555 246.285C400.533 247.062 401.84 247.913 403.495 248.556C408.272 250.415 412.676 249.268 414.378 248.725C412.684 251.574 409.596 255.813 404.411 259.166C402.5 260.404 400.65 261.294 398.995 261.941L399.56 246.28L399.555 246.285Z" fill="#2C1B18"/>
<path d="M398.533 262.589L399.15 245.408L399.823 245.946C400.996 246.88 402.281 247.623 403.649 248.153C408.01 249.847 412.157 248.982 414.242 248.313L415.336 247.962L414.75 248.948C412.149 253.317 408.748 256.878 404.644 259.532C402.924 260.643 401.074 261.59 399.15 262.346L398.533 262.589ZM399.958 247.132L399.45 261.29C401.1 260.6 402.685 259.766 404.175 258.802C407.866 256.418 410.972 253.273 413.421 249.451C411.041 250.051 407.276 250.494 403.341 248.961C402.151 248.496 401.017 247.883 399.966 247.132H399.958Z" fill="#231F20"/>
<path d="M350.717 176.362C357.053 171.693 365.257 169.639 373.045 170.773C367.073 167.133 359.525 166.195 352.841 168.258C353.761 165.93 356.541 165.023 359.012 164.619C371.39 162.603 384.471 166.777 393.822 175.068C397.057 176.28 400.132 178.052 402.82 180.54C403.459 178.608 404.097 176.675 404.736 174.742C405.053 173.787 405.583 172.658 406.586 172.606C407.659 172.549 408.301 173.782 408.532 174.833C409.248 178.065 408.749 181.548 407.155 184.449C408.87 182.443 411.976 181.405 414.247 182.755C416.518 184.102 416.696 188.154 414.247 189.148C412.831 189.726 411.09 189.187 409.774 189.965C411.963 191.146 413.856 192.736 415.446 194.603C417.426 195.511 419.641 196.892 421.648 199.016C424.909 202.468 425.995 206.16 426.494 207.94C429.782 219.619 422.429 230.603 421.053 232.587C420.861 231.962 420.527 231.067 419.945 230.086C417.522 226.008 412.579 223.545 407.776 223.549C401.969 223.549 398.143 227.167 397.296 228.005C397.131 228.27 396.962 228.557 396.797 228.865C396.653 229.135 396.532 229.386 396.427 229.608C397.457 226.338 395.685 222.551 393.327 219.858C390.734 216.9 387.398 214.512 385.518 211.063C383.464 207.302 383.277 202.529 381.283 198.898C380.019 198.625 378.769 198.29 377.54 197.925C373.118 196.618 368.715 194.977 364.111 194.816C359.503 194.659 354.508 196.319 352.085 200.24C352.259 196.436 353.297 192.67 355.099 189.313C348.889 189.669 342.939 193.17 339.612 198.429C338.713 198.182 338.626 196.948 338.769 196.023C339.99 188.249 344.38 181.018 350.717 176.349V176.362Z" fill="#2C1B18"/>
<path d="M420.899 233.569L420.635 232.717C420.374 231.871 420.013 231.063 419.566 230.311C417.316 226.529 412.583 223.988 407.783 223.988H407.775C402.572 223.988 398.976 226.967 397.634 228.283C397.473 228.539 397.321 228.804 397.178 229.074C397.039 229.334 396.922 229.577 396.822 229.795L396.014 229.482C397.017 226.285 395.115 222.563 393 220.149C392.122 219.145 391.132 218.186 390.177 217.256C388.322 215.454 386.403 213.595 385.134 211.276C384.075 209.339 383.501 207.141 382.946 205.013C382.407 202.955 381.899 201.005 380.991 199.285C379.892 199.041 378.72 198.733 377.413 198.347C376.609 198.108 375.81 197.86 375.006 197.613C371.467 196.518 367.806 195.385 364.088 195.254C360.106 195.111 354.95 196.418 352.444 200.475L351.567 201.899L351.641 200.227C351.806 196.627 352.735 193.044 354.347 189.813C348.544 190.39 343.094 193.734 339.971 198.668L339.797 198.942L339.485 198.855C338.347 198.542 338.143 197.157 338.329 195.967C339.576 188.045 343.993 180.77 350.447 176.01C356.314 171.685 363.662 169.587 370.911 170.104C365.391 167.407 358.833 166.855 352.957 168.671L352.093 168.936L352.427 168.093C353.226 166.073 355.415 164.757 358.933 164.184C371.219 162.186 384.335 166.113 394.042 174.686C397.278 175.906 400.157 177.613 402.611 179.767L404.318 174.603C404.509 174.021 405.095 172.245 406.559 172.171C407.883 172.097 408.665 173.452 408.952 174.738C409.542 177.404 409.325 180.262 408.37 182.829C410.176 181.669 412.548 181.248 414.463 182.382C415.77 183.155 416.561 184.814 416.435 186.507C416.326 187.941 415.571 189.079 414.407 189.552C413.686 189.843 412.921 189.878 412.183 189.908C411.692 189.93 411.214 189.947 410.78 190.043C412.6 191.142 414.255 192.553 415.71 194.247C418.098 195.354 420.2 196.857 421.955 198.716C425.355 202.32 426.441 206.173 426.906 207.819C430.076 219.08 423.492 229.812 421.403 232.83L420.895 233.564L420.899 233.569ZM407.788 223.115C412.882 223.115 417.916 225.825 420.317 229.864C420.652 230.424 420.939 231.011 421.177 231.623C423.575 227.953 428.934 218.199 426.081 208.053C425.633 206.468 424.591 202.759 421.334 199.311C419.631 197.508 417.594 196.058 415.271 194.994L415.184 194.955L415.123 194.881C413.512 192.987 411.644 191.463 409.573 190.342L408.895 189.978L409.56 189.587C410.368 189.109 411.275 189.07 412.157 189.035C412.852 189.005 413.512 188.979 414.09 188.74C414.954 188.388 415.497 187.55 415.579 186.438C415.683 185.066 415.058 183.737 414.033 183.124C411.888 181.852 409.021 182.942 407.492 184.727L404.752 187.932L406.785 184.236C408.322 181.435 408.808 178.043 408.118 174.92C407.957 174.199 407.458 172.983 406.615 173.031C406.033 173.061 405.555 173.661 405.156 174.868L403.028 181.309L402.533 180.848C400.04 178.538 397.06 176.727 393.677 175.463L393.603 175.437L393.543 175.385C384.027 166.946 371.146 163.077 359.089 165.04C356.466 165.465 354.672 166.308 353.739 167.546C360.275 165.843 367.506 166.881 373.278 170.395L375.098 171.502L372.991 171.194C365.282 170.069 357.256 172.08 350.985 176.705C344.709 181.331 340.418 188.397 339.211 196.097C339.129 196.622 339.116 197.487 339.476 197.86C342.916 192.666 348.857 189.239 355.081 188.883L355.854 188.84L355.484 189.522C353.951 192.371 352.979 195.537 352.635 198.759C355.532 195.372 360.336 194.255 364.127 194.386C367.958 194.516 371.675 195.667 375.271 196.783C376.071 197.031 376.87 197.278 377.669 197.513C379.032 197.917 380.249 198.229 381.382 198.477L381.577 198.52L381.673 198.694C382.694 200.549 383.254 202.707 383.801 204.792C384.344 206.868 384.904 209.013 385.912 210.859C387.115 213.061 388.987 214.876 390.793 216.631C391.762 217.569 392.765 218.542 393.664 219.571C395.923 222.151 397.152 224.991 397.169 227.532C398.68 226.081 402.428 223.119 407.783 223.115H407.796H407.788Z" fill="#231F20"/>
<path d="M345.984 192.824L345.254 193.294L346.705 195.547L347.436 195.076L345.984 192.824Z" fill="#231F20"/>
<path d="M207.9 239.282L207.9 239.283C203.545 240.644 199.559 241.183 196.271 241.346L195.872 241.366L195.936 241.761L196.992 248.23C196.059 254.877 195.566 264.488 198.235 275.356L198.235 275.356C202.674 293.419 214.66 310.132 228.82 321.357C242.966 332.572 259.369 338.371 272.641 334.435L272.642 334.435C276.818 333.194 280.181 331.141 282.781 329.091C280.474 334.145 278.242 339.421 276.115 344.926C265.574 372.214 260.357 398.96 257.996 421.429L257.955 421.82L258.348 421.823C278.412 422.021 298.477 421.987 318.539 421.954H318.542C338.434 421.92 358.324 421.887 378.212 422.079C377.153 424.921 373.175 437.408 380.433 448.751L380.734 448.558L380.433 448.751C387.137 459.223 400.585 464.278 413.693 460.978L413.738 460.967L413.779 460.944C423.365 455.647 444.539 442.11 451.517 417.795C452.193 415.441 452.802 412.727 451.906 404.535C451.011 396.357 448.613 382.692 443.266 358.424C433.554 314.345 428.556 300.764 415.676 291.033C409.102 286.064 402.534 283.651 398.266 282.419L398.196 282.399L398.123 282.408C387.199 283.745 377.835 284.512 370.028 284.716C362.809 284.904 355.961 281.479 351.778 275.593C351.767 275.577 351.755 275.56 351.743 275.543C351.733 275.529 351.723 275.514 351.713 275.502C349.169 271.896 347.696 268.233 346.809 265.14C346.828 265.114 346.85 265.083 346.876 265.048C346.908 265.004 346.946 264.953 346.986 264.899C347.067 264.789 347.161 264.663 347.252 264.536C347.388 264.345 347.531 264.137 347.636 263.953C347.689 263.862 347.738 263.767 347.772 263.676C347.8 263.602 347.845 263.466 347.816 263.322L347.737 262.927L347.36 263.051C347.359 263.05 347.327 263.056 347.238 263.057C347.144 263.058 347.016 263.053 346.856 263.043C346.536 263.022 346.105 262.98 345.589 262.923C344.558 262.807 343.204 262.63 341.744 262.439L341.669 262.43C338.777 262.051 335.48 261.62 333.531 261.516C331.597 261.409 325.242 261.439 313.425 263.776C304.881 265.462 293.135 267.862 279.152 274.54L279.145 274.544L279.137 274.548C279.107 274.564 279.088 274.573 279.062 274.585C279.04 274.595 279.013 274.607 278.971 274.628C271.288 278.313 262.061 275.612 257.658 268.319L257.658 268.319C254.158 262.523 250.283 256.557 245.996 250.483C241.624 244.285 237.227 238.564 232.903 233.292C232.384 232.03 231.866 230.767 231.349 229.505L231.343 229.491C230.821 228.217 230.298 226.942 229.774 225.668L229.56 225.147L229.18 225.562C225.655 229.416 218.653 235.92 207.9 239.282ZM347.114 263.393C347.114 263.393 347.113 263.394 347.113 263.397C347.113 263.394 347.114 263.393 347.114 263.393Z" fill="#F47B20" stroke="#231F20" stroke-width="0.714528"/>
<path d="M346.426 265.091C341.162 266.476 335.668 268.404 330.087 271.062C296.972 286.841 281.936 318.345 276.221 332.781C279.009 330.823 281.797 328.864 284.585 326.905C287.578 318.801 292.776 307.739 301.953 296.621C317.766 277.464 336.602 268.787 346.426 265.091Z" fill="#231F20"/>
<path d="M386.52 357.832C387.241 360.09 390.668 370.596 397.673 383.326C397.713 383.395 397.747 383.46 397.782 383.525C400.488 388.437 399.936 394.492 396.392 398.839C389.139 407.738 378.738 421.727 378.738 421.727C377.387 419.29 396.666 393.788 395.411 391.178C382.799 364.955 379.75 338.545 380.449 316.273C380.223 334.592 383.65 348.851 386.52 357.828V357.832Z" fill="#231F20"/>
<path d="M354.144 246.663L355.03 250.224L353.532 255.284L350.617 254.637L352.363 250.172L350.587 245.438L354.144 246.663Z" fill="#231F20"/>
<path d="M379.714 445.566L317.86 444.141L265.991 511.007H372.778L379.714 445.566Z" fill="white"/>
<path d="M373.17 511.441H265.106L317.653 443.702L380.197 445.14L373.17 511.441ZM266.883 510.572H372.393L379.237 445.987L318.074 444.58L266.883 510.572Z" fill="#231F20"/>
<path d="M181.749 209.604C181.749 209.604 185.124 229.182 195.951 232.566L196.29 241.699C196.29 241.699 220.311 241.021 229.449 225.795C229.449 225.795 225.388 214.629 227.42 211.246C229.453 207.862 234.864 197.035 234.864 197.035C234.864 197.035 235.881 190.607 230.465 193.652C228.723 194.633 226.734 196.384 224.836 198.308C220.45 202.764 216.897 207.962 214.222 213.612L181.749 209.6V209.604Z" fill="#E5AE9F"/>
<path d="M195.874 242.15L195.531 232.886C191.101 231.366 187.253 226.91 184.391 219.983C182.202 214.68 181.333 209.729 181.324 209.677L181.225 209.099L213.967 213.147C216.712 207.432 220.264 202.342 224.529 198.007C226.744 195.758 228.668 194.168 230.253 193.278C231.964 192.318 233.293 192.149 234.197 192.778C235.782 193.881 235.313 196.978 235.291 197.108L235.252 197.234C235.2 197.343 229.806 208.114 227.791 211.475C226.214 214.103 228.746 222.602 229.858 225.651L229.928 225.846L229.819 226.024C220.668 241.277 196.543 242.128 196.299 242.137L195.869 242.15H195.874ZM182.289 210.107C182.953 213.351 186.662 229.208 196.078 232.152L196.369 232.243L196.703 241.247C199.952 241.056 220.655 239.323 228.968 225.751C228.412 224.183 225.059 214.333 227.044 211.028C228.963 207.831 233.997 197.794 234.44 196.908C234.553 196.114 234.618 194.129 233.697 193.49C232.937 192.965 231.634 193.495 230.675 194.033C229.163 194.885 227.3 196.426 225.146 198.615C220.877 202.95 217.333 208.061 214.614 213.803L214.479 214.085L182.289 210.107Z" fill="#231F20"/>
<path d="M348.128 213.502C348.874 211.385 348.621 209.366 347.562 208.993C346.504 208.62 345.04 210.034 344.294 212.151C343.548 214.269 343.802 216.288 344.86 216.661C345.919 217.034 347.382 215.62 348.128 213.502Z" fill="#231F20"/>
<path d="M369.813 222.721C370.559 220.604 370.306 218.585 369.247 218.212C368.188 217.839 366.725 219.253 365.979 221.371C365.233 223.488 365.486 225.507 366.545 225.88C367.604 226.253 369.067 224.839 369.813 222.721Z" fill="#231F20"/>
<path d="M260.5 439.653L229.884 393.887C226.188 388.365 224.216 381.867 224.216 375.219V347.755H194.659V375.55C194.659 382.11 192.737 388.524 189.133 394.004L159.028 439.758C151.735 450.84 159.685 465.581 172.948 465.581H246.647C259.969 465.581 267.906 450.723 260.496 439.653H260.5Z" fill="white"/>
<path d="M246.651 466.004H172.952C166.568 466.004 160.945 462.646 157.914 457.028C154.883 451.405 155.172 444.866 158.68 439.532L188.786 393.778C192.357 388.352 194.245 382.051 194.245 375.554V347.341H224.639V375.223C224.639 381.809 226.573 388.185 230.236 393.656L260.852 439.423C264.419 444.753 264.741 451.313 261.723 456.969C258.7 462.625 253.069 466.004 246.656 466.004H246.651ZM195.082 348.178V375.554C195.082 382.215 193.148 388.675 189.485 394.238L159.38 439.993C156.043 445.067 155.771 451.284 158.651 456.63C161.531 461.976 166.878 465.166 172.952 465.166H246.651C252.751 465.166 258.106 461.955 260.982 456.575C263.858 451.196 263.548 444.958 260.157 439.888L229.541 394.121C225.786 388.511 223.801 381.976 223.801 375.223V348.178H195.082Z" fill="#231F20"/>
<mask id="mask0_669_19341" style="mask-type:luminance" maskUnits="userSpaceOnUse" x="156" y="347" width="108" height="119">
<mask id="mask1_669_19341" style="mask-type:luminance" maskUnits="userSpaceOnUse" x="156" y="347" width="108" height="119">
<path d="M260.5 439.653L229.884 393.887C226.188 388.365 224.216 381.867 224.216 375.219V347.755H194.659V375.55C194.659 382.11 192.737 388.524 189.133 394.004L159.028 439.758C151.735 450.84 159.685 465.581 172.948 465.581H246.647C259.969 465.581 267.906 450.723 260.496 439.653H260.5Z" fill="white"/>
</mask>
<g mask="url(#mask1_669_19341)">
<path d="M246.651 466.004H172.952C166.568 466.004 160.945 462.646 157.914 457.028C154.883 451.405 155.172 444.866 158.68 439.532L188.786 393.778C192.357 388.352 194.245 382.051 194.245 375.554V347.341H224.639V375.223C224.639 381.809 226.573 388.185 230.236 393.656L260.852 439.423C264.419 444.753 264.741 451.313 261.723 456.969C258.7 462.625 253.069 466.004 246.656 466.004H246.651ZM195.082 348.178V375.554C195.082 382.215 193.148 388.675 189.485 394.238L159.38 439.993C156.043 445.067 155.771 451.284 158.651 456.63C161.531 461.976 166.878 465.166 172.952 465.166H246.651C252.751 465.166 258.106 461.955 260.982 456.575C263.858 451.196 263.548 444.958 260.157 439.888L229.541 394.121C225.786 388.511 223.801 381.976 223.801 375.223V348.178H195.082Z" fill="white"/>
</g>
</mask>
<g mask="url(#mask0_669_19341)">
<path d="M191.946 515.182C189.66 515.182 187.433 515.12 185.243 514.994C170.566 514.161 158.458 510.548 148.231 503.942C143.077 500.613 139.28 497.03 136.626 492.981C131.639 485.379 130.191 475.163 132.552 464.22C134.7 454.264 139.548 445.062 143.826 436.945C149.955 425.315 173.5 411.269 186.763 411.269C186.851 411.269 186.939 411.269 187.027 411.269C195.325 411.386 202.923 415.313 210.266 419.11C211.551 419.776 212.883 420.463 214.185 421.112C225.543 426.78 234.51 428.069 241.606 425.051C245.069 423.582 248.024 421.074 250.888 418.65C252.307 417.448 253.772 416.209 255.292 415.096C261.082 410.855 267.19 409.678 271.628 411.947L271.728 411.997L271.791 412.094C285.628 433.818 290.785 460.787 285.933 486.082C285.427 488.715 284.727 491.713 282.793 493.932C280.955 496.037 278.318 497.13 275.551 498.156C260.32 503.787 243.779 508.22 224.982 511.699C212.339 514.039 201.659 515.17 191.954 515.17L191.946 515.182ZM186.751 412.111C173.722 412.111 150.583 425.913 144.563 437.338C140.31 445.41 135.491 454.553 133.368 464.4C131.058 475.122 132.46 485.111 137.325 492.525C139.916 496.473 143.63 499.977 148.683 503.238C172.148 518.385 203.375 514.856 224.818 510.887C243.57 507.416 260.065 503 275.249 497.381C277.912 496.397 280.445 495.351 282.153 493.391C283.949 491.328 284.619 488.46 285.104 485.931C289.906 460.879 284.815 434.178 271.138 412.646C266.993 410.595 261.262 411.759 255.778 415.774C254.283 416.871 252.826 418.101 251.42 419.29C248.51 421.752 245.5 424.302 241.925 425.821C234.59 428.94 225.392 427.647 213.804 421.861C212.493 421.208 211.162 420.521 209.877 419.856C202.617 416.104 195.111 412.224 187.01 412.106C186.926 412.106 186.839 412.106 186.751 412.106V412.111Z" fill="#231F20"/>
<path d="M181.874 447.252C184.667 447.252 186.931 444.988 186.931 442.195C186.931 439.402 184.667 437.137 181.874 437.137C179.081 437.137 176.816 439.402 176.816 442.195C176.816 444.988 179.081 447.252 181.874 447.252Z" fill="white"/>
<path d="M181.873 447.671C178.855 447.671 176.397 445.213 176.397 442.195C176.397 439.176 178.855 436.719 181.873 436.719C184.892 436.719 187.349 439.176 187.349 442.195C187.349 445.213 184.892 447.671 181.873 447.671ZM181.873 437.552C179.315 437.552 177.235 439.632 177.235 442.19C177.235 444.748 179.315 446.829 181.873 446.829C184.431 446.829 186.512 444.748 186.512 442.19C186.512 439.632 184.431 437.552 181.873 437.552Z" fill="#231F20"/>
<path d="M202.258 395.98C205.051 395.98 207.315 393.716 207.315 390.923C207.315 388.129 205.051 385.865 202.258 385.865C199.464 385.865 197.2 388.129 197.2 390.923C197.2 393.716 199.464 395.98 202.258 395.98Z" fill="#8B5989"/>
<path d="M202.257 396.399C199.239 396.399 196.781 393.941 196.781 390.923C196.781 387.904 199.239 385.447 202.257 385.447C205.276 385.447 207.733 387.904 207.733 390.923C207.733 393.941 205.276 396.399 202.257 396.399ZM202.257 386.28C199.699 386.28 197.619 388.36 197.619 390.918C197.619 393.476 199.699 395.557 202.257 395.557C204.815 395.557 206.896 393.476 206.896 390.918C206.896 388.36 204.815 386.28 202.257 386.28Z" fill="#231F20"/>
<path d="M202.952 431.674C204.957 431.674 206.582 430.049 206.582 428.044C206.582 426.04 204.957 424.415 202.952 424.415C200.947 424.415 199.322 426.04 199.322 428.044C199.322 430.049 200.947 431.674 202.952 431.674Z" fill="white"/>
<path d="M202.953 432.093C200.721 432.093 198.904 430.276 198.904 428.044C198.904 425.813 200.721 423.996 202.953 423.996C205.184 423.996 207.001 425.813 207.001 428.044C207.001 430.276 205.184 432.093 202.953 432.093ZM202.953 424.829C201.182 424.829 199.742 426.269 199.742 428.04C199.742 429.811 201.182 431.251 202.953 431.251C204.724 431.251 206.164 429.811 206.164 428.04C206.164 426.269 204.724 424.829 202.953 424.829Z" fill="#231F20"/>
<path d="M212.975 374.051C214.98 374.051 216.605 372.426 216.605 370.421C216.605 368.417 214.98 366.792 212.975 366.792C210.971 366.792 209.346 368.417 209.346 370.421C209.346 372.426 210.971 374.051 212.975 374.051Z" fill="#8B5989"/>
<path d="M212.975 374.47C210.744 374.47 208.927 372.653 208.927 370.421C208.927 368.19 210.744 366.373 212.975 366.373C215.207 366.373 217.023 368.19 217.023 370.421C217.023 372.653 215.207 374.47 212.975 374.47ZM212.975 367.206C211.204 367.206 209.764 368.646 209.764 370.417C209.764 372.188 211.204 373.628 212.975 373.628C214.746 373.628 216.186 372.188 216.186 370.417C216.186 368.646 214.746 367.206 212.975 367.206Z" fill="#231F20"/>
<path d="M235.402 455.144C237.407 455.144 239.032 453.519 239.032 451.514C239.032 449.509 237.407 447.884 235.402 447.884C233.398 447.884 231.772 449.509 231.772 451.514C231.772 453.519 233.398 455.144 235.402 455.144Z" fill="white"/>
<path d="M235.402 455.562C233.17 455.562 231.354 453.745 231.354 451.514C231.354 449.283 233.17 447.466 235.402 447.466C237.633 447.466 239.45 449.283 239.45 451.514C239.45 453.745 237.633 455.562 235.402 455.562ZM235.402 448.299C233.631 448.299 232.191 449.739 232.191 451.51C232.191 453.281 233.631 454.721 235.402 454.721C237.173 454.721 238.613 453.281 238.613 451.51C238.613 449.739 237.173 448.299 235.402 448.299Z" fill="#231F20"/>
</g>
<path d="M226.757 343.665H190.239C188.359 343.665 186.835 345.189 186.835 347.069V347.483C186.835 349.363 188.359 350.887 190.239 350.887H226.757C228.637 350.887 230.161 349.363 230.161 347.483V347.069C230.161 345.189 228.637 343.665 226.757 343.665Z" fill="#231F20"/>
<path d="M230.847 161.313C240.063 161.313 247.533 153.843 247.533 144.627C247.533 135.412 240.063 127.941 230.847 127.941C221.632 127.941 214.161 135.412 214.161 144.627C214.161 153.843 221.632 161.313 230.847 161.313Z" fill="#9BCDEE"/>
<path d="M248.741 149.044C255.524 149.044 261.023 143.545 261.023 136.762C261.023 129.979 255.524 124.48 248.741 124.48C241.958 124.48 236.459 129.979 236.459 136.762C236.459 143.545 241.958 149.044 248.741 149.044Z" fill="#9BCDEE"/>
<path d="M235.96 119.39C240.913 119.39 244.928 115.374 244.928 110.421C244.928 105.468 240.913 101.453 235.96 101.453C231.006 101.453 226.991 105.468 226.991 110.421C226.991 115.374 231.006 119.39 235.96 119.39Z" fill="#9BCDEE"/>
<path d="M269.589 107.308C274.543 107.308 278.558 103.292 278.558 98.3392C278.558 93.3861 274.543 89.3708 269.589 89.3708C264.636 89.3708 260.621 93.3861 260.621 98.3392C260.621 103.292 264.636 107.308 269.589 107.308Z" fill="#9BCDEE"/>
<path d="M211.891 144.558L244.048 164.637L188.62 253.408C183.394 261.778 172.359 264.329 163.99 259.103L162.159 257.96C153.789 252.734 151.237 241.699 156.463 233.33L211.891 144.558Z" fill="white"/>
<path d="M173.404 262.25C170.094 262.25 166.746 261.356 163.736 259.475L161.908 258.333C153.343 252.986 150.729 241.664 156.075 233.104L211.736 143.967L244.625 164.506L244.395 164.875L188.965 253.642C185.495 259.197 179.514 262.25 173.404 262.25ZM164.197 258.737C172.353 263.831 183.137 261.338 188.231 253.182L243.431 164.784L212.013 145.166L156.813 233.564C151.719 241.721 154.212 252.504 162.368 257.599L164.197 258.741V258.737Z" fill="#231F20"/>
<path d="M162.81 258.919C153.933 253.373 151.228 241.682 156.774 232.8L190.341 179.046C186.871 189.487 187.865 192.892 189.438 194.06C193.429 197.026 202.558 186.581 212.156 189.274C217.372 190.738 222.497 199.128 222.497 199.128C222.497 199.128 206.141 225.321 188.93 252.882C183.383 261.764 171.692 264.465 162.81 258.919Z" fill="#FDB956"/>
<path d="M172.812 262.237C169.224 262.237 165.698 261.234 162.58 259.288C158.189 256.543 155.127 252.257 153.959 247.21C152.79 242.164 153.659 236.965 156.404 232.574L191.899 175.732L190.753 179.189C188.082 187.224 187.717 192.249 189.693 193.717C191.274 194.894 194.075 193.535 197.315 191.958C201.554 189.899 206.826 187.337 212.268 188.861C217.589 190.355 222.648 198.559 222.861 198.907L223 199.137L222.857 199.363L189.289 253.117C186.544 257.512 182.258 260.574 177.211 261.738C175.748 262.076 174.271 262.242 172.807 262.242L172.812 262.237ZM188.937 182.117L157.142 233.035C154.523 237.23 153.694 242.194 154.805 247.015C155.922 251.836 158.845 255.931 163.04 258.554C167.235 261.177 172.199 262.007 177.02 260.891C181.841 259.775 185.936 256.852 188.56 252.656L221.984 199.133C221.128 197.799 216.559 190.968 212.038 189.695C206.913 188.253 201.806 190.738 197.697 192.735C194.201 194.434 191.183 195.902 189.176 194.412C187.113 192.879 187.031 188.844 188.937 182.117Z" fill="#231F20"/>
<path d="M251.935 162.497L209.187 135.806C207.478 134.739 205.228 135.259 204.161 136.968L203.931 137.337C202.864 139.046 203.384 141.296 205.093 142.363L247.841 169.054C249.55 170.122 251.801 169.601 252.868 167.892L253.098 167.524C254.165 165.815 253.644 163.564 251.935 162.497Z" fill="#231F20"/>
<path d="M249.745 170.051C249.006 170.051 248.259 169.852 247.59 169.435L204.842 142.738C202.935 141.548 202.349 139.025 203.543 137.114L203.778 136.74C204.355 135.815 205.259 135.173 206.318 134.925C207.378 134.677 208.473 134.864 209.398 135.437L252.146 162.134C253.071 162.712 253.714 163.615 253.962 164.675C254.205 165.735 254.022 166.829 253.445 167.754L253.21 168.128C252.437 169.365 251.104 170.047 249.745 170.047V170.051ZM248.051 168.696C249.553 169.635 251.538 169.174 252.476 167.672L252.711 167.298C253.167 166.568 253.31 165.708 253.115 164.875C252.919 164.041 252.415 163.328 251.686 162.872L208.937 136.176C208.208 135.72 207.348 135.576 206.514 135.772C205.68 135.967 204.968 136.471 204.512 137.201L204.277 137.574C203.339 139.077 203.799 141.062 205.302 142L248.051 168.696Z" fill="#231F20"/>
<path d="M211.571 169.686C213.561 169.686 215.175 168.073 215.175 166.082C215.175 164.091 213.561 162.477 211.571 162.477C209.58 162.477 207.966 164.091 207.966 166.082C207.966 168.073 209.58 169.686 211.571 169.686Z" fill="#FDB956"/>
<path d="M211.564 170.121C210.817 170.121 210.084 169.912 209.432 169.509C208.516 168.935 207.882 168.045 207.638 166.994C207.395 165.943 207.578 164.861 208.146 163.945C208.715 163.029 209.61 162.395 210.661 162.151C211.712 161.908 212.794 162.091 213.71 162.66C214.626 163.233 215.26 164.123 215.504 165.174C215.747 166.225 215.564 167.307 214.995 168.223C214.427 169.139 213.532 169.773 212.481 170.017C212.177 170.086 211.868 170.121 211.564 170.121ZM211.578 162.911C211.339 162.911 211.095 162.938 210.857 162.994C210.031 163.185 209.332 163.685 208.885 164.401C208.437 165.118 208.294 165.969 208.485 166.794C208.676 167.619 209.176 168.319 209.892 168.766C210.609 169.213 211.46 169.357 212.285 169.165C213.111 168.974 213.81 168.475 214.257 167.758C214.704 167.042 214.848 166.19 214.657 165.365C214.466 164.54 213.966 163.841 213.25 163.394C212.741 163.076 212.164 162.911 211.578 162.911Z" fill="#231F20"/>
<path d="M185.294 212.739C187.285 212.739 188.899 211.126 188.899 209.135C188.899 207.144 187.285 205.53 185.294 205.53C183.303 205.53 181.689 207.144 181.689 209.135C181.689 211.126 183.303 212.739 185.294 212.739Z" fill="white"/>
<path d="M185.286 213.169C184.557 213.169 183.818 212.974 183.154 212.557C182.237 211.983 181.603 211.093 181.36 210.042C181.117 208.991 181.299 207.91 181.868 206.993C182.437 206.077 183.332 205.443 184.383 205.2C185.434 204.956 186.515 205.139 187.432 205.708C189.321 206.889 189.898 209.382 188.717 211.271C187.953 212.496 186.632 213.169 185.286 213.169ZM185.299 205.964C185.06 205.964 184.817 205.99 184.578 206.047C183.753 206.238 183.054 206.737 182.606 207.454C182.159 208.17 182.016 209.022 182.207 209.847C182.398 210.672 182.897 211.371 183.614 211.818C185.095 212.744 187.054 212.292 187.979 210.811C188.904 209.33 188.452 207.371 186.971 206.446C186.463 206.129 185.886 205.964 185.299 205.964Z" fill="#231F20"/>
<path d="M183.623 240.096C185.976 240.096 187.883 238.189 187.883 235.835C187.883 233.482 185.976 231.575 183.623 231.575C181.27 231.575 179.362 233.482 179.362 235.835C179.362 238.189 181.27 240.096 183.623 240.096Z" fill="white"/>
<path d="M183.613 240.531C182.744 240.531 181.893 240.287 181.137 239.818C180.073 239.154 179.335 238.116 179.052 236.895C178.77 235.675 178.978 234.415 179.643 233.351C180.307 232.287 181.345 231.545 182.566 231.267C183.786 230.984 185.046 231.193 186.11 231.857C187.174 232.522 187.912 233.56 188.194 234.78C188.477 236.001 188.268 237.26 187.604 238.324C186.939 239.388 185.901 240.131 184.681 240.409C184.329 240.491 183.969 240.531 183.617 240.531H183.613ZM183.63 232.009C183.339 232.009 183.048 232.044 182.761 232.109C181.767 232.34 180.92 232.943 180.377 233.812C179.834 234.68 179.665 235.705 179.895 236.7C180.125 237.695 180.729 238.541 181.597 239.084C182.466 239.627 183.491 239.797 184.485 239.566C185.48 239.336 186.327 238.732 186.87 237.864C187.413 236.995 187.582 235.97 187.352 234.976C187.122 233.981 186.518 233.134 185.649 232.591C185.033 232.205 184.338 232.009 183.63 232.009Z" fill="#231F20"/>
<path d="M217.962 187.632C219.953 187.632 221.567 186.018 221.567 184.027C221.567 182.036 219.953 180.423 217.962 180.423C215.971 180.423 214.357 182.036 214.357 184.027C214.357 186.018 215.971 187.632 217.962 187.632Z" fill="#FDB956"/>
<path d="M217.954 188.066C217.207 188.066 216.473 187.858 215.822 187.454C214.905 186.881 214.271 185.991 214.028 184.939C213.785 183.888 213.967 182.807 214.536 181.891C215.105 180.974 216 180.34 217.051 180.097C218.102 179.854 219.183 180.036 220.1 180.605C221.016 181.178 221.65 182.069 221.893 183.12C222.136 184.171 221.954 185.252 221.385 186.169C220.816 187.085 219.922 187.719 218.871 187.962C218.567 188.032 218.258 188.066 217.954 188.066ZM217.967 180.857C217.728 180.857 217.485 180.883 217.246 180.94C216.421 181.131 215.722 181.63 215.274 182.347C214.827 183.063 214.684 183.915 214.875 184.74C215.066 185.565 215.565 186.264 216.282 186.711C216.999 187.159 217.85 187.302 218.675 187.111C219.5 186.92 220.199 186.42 220.647 185.704C221.094 184.987 221.237 184.136 221.046 183.311C220.855 182.486 220.356 181.786 219.639 181.339C219.131 181.022 218.553 180.857 217.967 180.857Z" fill="#231F20"/>
<path d="M310.01 487.567L309.506 486.859L329.844 472.362L330.083 472.775C330.791 473.995 337.002 484.77 336.793 487.224L335.929 487.15C336.064 485.543 332.289 478.338 329.571 473.622L310.01 487.567Z" fill="#231F20"/>
<path d="M348.716 471.163L329.871 467.607L335.96 452.519L336.764 452.845L331.074 466.946L348.876 470.312L348.716 471.163Z" fill="#231F20"/>
<path d="M309.758 495.524C315.498 495.524 320.151 490.871 320.151 485.131C320.151 479.391 315.498 474.738 309.758 474.738C304.018 474.738 299.365 479.391 299.365 485.131C299.365 490.871 304.018 495.524 309.758 495.524Z" fill="#27AAE1"/>
<path d="M309.758 495.958C303.786 495.958 298.931 491.102 298.931 485.131C298.931 479.159 303.786 474.304 309.758 474.304C315.73 474.304 320.585 479.159 320.585 485.131C320.585 491.102 315.73 495.958 309.758 495.958ZM309.758 475.172C304.268 475.172 299.799 479.641 299.799 485.131C299.799 490.62 304.268 495.089 309.758 495.089C315.247 495.089 319.716 490.62 319.716 485.131C319.716 479.641 315.247 475.172 309.758 475.172Z" fill="#231F20"/>
<path d="M329.296 478.898C333.887 478.898 337.609 475.176 337.609 470.586C337.609 465.995 333.887 462.273 329.296 462.273C324.705 462.273 320.983 465.995 320.983 470.586C320.983 475.176 324.705 478.898 329.296 478.898Z" fill="#FDB956"/>
<path d="M329.296 479.333C324.471 479.333 320.549 475.406 320.549 470.586C320.549 465.765 324.475 461.839 329.296 461.839C334.117 461.839 338.043 465.765 338.043 470.586C338.043 475.406 334.117 479.333 329.296 479.333ZM329.296 462.703C324.953 462.703 321.417 466.238 321.417 470.581C321.417 474.924 324.953 478.46 329.296 478.46C333.639 478.46 337.174 474.924 337.174 470.581C337.174 466.238 333.639 462.703 329.296 462.703Z" fill="#231F20"/>
<path d="M336.363 493.448C339.822 493.448 342.626 490.644 342.626 487.185C342.626 483.726 339.822 480.922 336.363 480.922C332.904 480.922 330.101 483.726 330.101 487.185C330.101 490.644 332.904 493.448 336.363 493.448Z" fill="#F47B20"/>
<path d="M336.363 493.882C332.671 493.882 329.666 490.876 329.666 487.185C329.666 483.493 332.671 480.488 336.363 480.488C340.055 480.488 343.06 483.493 343.06 487.185C343.06 490.876 340.055 493.882 336.363 493.882ZM336.363 481.356C333.149 481.356 330.535 483.971 330.535 487.185C330.535 490.398 333.149 493.013 336.363 493.013C339.577 493.013 342.191 490.398 342.191 487.185C342.191 483.971 339.577 481.356 336.363 481.356Z" fill="#231F20"/>
<path d="M350.495 478.898C353.954 478.898 356.758 476.094 356.758 472.635C356.758 469.177 353.954 466.373 350.495 466.373C347.036 466.373 344.232 469.177 344.232 472.635C344.232 476.094 347.036 478.898 350.495 478.898Z" fill="#27AAE1"/>
<path d="M350.495 479.333C346.803 479.333 343.798 476.327 343.798 472.636C343.798 468.944 346.803 465.939 350.495 465.939C354.186 465.939 357.192 468.944 357.192 472.636C357.192 476.327 354.186 479.333 350.495 479.333ZM350.495 466.807C347.281 466.807 344.666 469.422 344.666 472.636C344.666 475.85 347.281 478.464 350.495 478.464C353.709 478.464 356.323 475.85 356.323 472.636C356.323 469.422 353.709 466.807 350.495 466.807Z" fill="#231F20"/>
<path d="M336.363 458.946C339.822 458.946 342.626 456.142 342.626 452.684C342.626 449.225 339.822 446.421 336.363 446.421C332.904 446.421 330.101 449.225 330.101 452.684C330.101 456.142 332.904 458.946 336.363 458.946Z" fill="#7D8FC7"/>
<path d="M336.363 459.381C332.671 459.381 329.666 456.375 329.666 452.684C329.666 448.992 332.671 445.987 336.363 445.987C340.055 445.987 343.06 448.992 343.06 452.684C343.06 456.375 340.055 459.381 336.363 459.381ZM336.363 446.855C333.149 446.855 330.535 449.47 330.535 452.684C330.535 455.898 333.149 458.512 336.363 458.512C339.577 458.512 342.191 455.898 342.191 452.684C342.191 449.47 339.577 446.855 336.363 446.855Z" fill="#231F20"/>
<path d="M376.571 439.916C369.37 446.804 363.576 448.324 359.451 448.298C356.619 448.28 352.979 447.529 352.176 449.075C351.368 450.625 353.974 453.405 354.46 453.909C358.039 457.596 363.29 457.844 365.631 457.792C356.806 467.203 351.789 470.017 348.793 470.738C348.202 470.881 345.049 471.572 344.697 473.283C344.476 474.352 345.47 476.771 345.47 476.771C344.693 478.065 344.676 478.959 344.871 479.576C345.292 480.909 347.959 482.412 347.959 482.412C347.959 482.412 347.855 483.876 348.35 485.2C348.91 486.707 350.374 487.91 351.872 488.336C353.939 488.927 355.889 488.484 355.889 488.484C355.889 488.484 355.494 491.776 356.562 493.504C357.6 495.185 360.423 495.198 362.195 495.181C365.596 495.155 369.87 494.247 375.216 490.894C379.468 488.228 382.408 485.261 384.497 482.89C387.967 478.951 393.244 471.937 397.166 461.192C395.91 460.302 394.642 459.351 393.374 458.334C386.034 452.454 380.597 445.948 376.566 439.916H376.571Z" fill="#E5AE9F"/>
<path d="M361.709 495.619C359.963 495.619 357.275 495.48 356.194 493.734C355.325 492.331 355.347 490.06 355.412 489.005C354.652 489.1 353.24 489.178 351.755 488.753C350.048 488.266 348.52 486.898 347.946 485.348C347.551 484.288 347.516 483.163 347.521 482.655C346.813 482.23 344.863 480.961 344.463 479.706C344.189 478.846 344.372 477.847 344.997 476.736C344.745 476.088 344.072 474.208 344.281 473.196C344.546 471.915 346.009 470.951 348.637 470.33L348.698 470.317C352.506 469.404 357.866 465.335 364.628 458.23C361.349 458.156 357.18 457.335 354.152 454.217C353.149 453.183 350.908 450.59 351.794 448.884C352.532 447.459 354.86 447.611 357.319 447.772C358.035 447.82 358.778 447.867 359.46 447.872C359.49 447.872 359.52 447.872 359.551 447.872C364.919 447.872 370.543 445.092 376.276 439.607L376.649 439.251L376.936 439.681C381.635 446.712 387.259 452.879 393.657 458.004C394.877 458.981 396.145 459.937 397.427 460.844L397.696 461.035L397.583 461.348C394.538 469.691 390.247 477.035 384.832 483.185C382.969 485.3 379.967 488.44 375.455 491.272C370.838 494.164 366.508 495.589 362.209 495.623C362.057 495.623 361.892 495.623 361.714 495.623L361.709 495.619ZM356.393 487.923L356.32 488.531C356.32 488.562 355.955 491.693 356.932 493.274C357.866 494.781 360.68 494.759 362.191 494.746C366.326 494.711 370.508 493.33 374.986 490.525C379.407 487.754 382.347 484.675 384.172 482.603C389.448 476.614 393.644 469.465 396.645 461.357C395.442 460.497 394.252 459.598 393.105 458.677C386.773 453.6 381.184 447.516 376.493 440.588C370.721 445.996 365.023 448.736 359.542 448.736C359.507 448.736 359.477 448.736 359.442 448.736C358.739 448.736 357.983 448.684 357.253 448.636C355.277 448.51 353.032 448.362 352.554 449.283C352.076 450.208 353.319 452.124 354.765 453.613C357.896 456.84 362.391 457.431 365.614 457.366L366.647 457.344L365.939 458.1C358.73 465.787 352.993 470.186 348.889 471.172L348.824 471.189C345.849 471.893 345.223 472.866 345.119 473.383C344.98 474.065 345.505 475.728 345.87 476.618L345.953 476.818L345.84 477.005C345.258 477.969 345.071 478.794 345.28 479.454C345.584 480.41 347.469 481.648 348.168 482.043L348.407 482.177L348.389 482.451C348.389 482.451 348.302 483.841 348.754 485.057C349.236 486.36 350.539 487.511 351.99 487.928C353.918 488.479 355.777 488.075 355.794 488.071L356.393 487.936V487.923Z" fill="#231F20"/>
<path d="M345.488 477.205H345.475V476.336H345.488C349.175 476.336 352.91 475.567 356.289 474.108C359.559 472.697 362.482 470.69 364.979 468.141L365.6 468.749C363.025 471.381 360.011 473.452 356.636 474.907C353.149 476.41 349.297 477.205 345.492 477.205H345.488Z" fill="#231F20"/>
<path d="M348.296 482.681C348.296 482.681 348.314 482.668 348.327 482.642L347.593 482.177C347.914 481.669 349.126 481.461 352.77 481.296C353.213 481.274 353.63 481.257 353.743 481.239C358.268 480.575 363.897 479.745 367.692 476.271L368.279 476.914C364.283 480.566 358.507 481.417 353.869 482.104C353.716 482.125 353.399 482.143 352.804 482.169C351.792 482.217 348.713 482.351 348.292 482.686L348.296 482.681Z" fill="#231F20"/>
<path d="M355.954 488.909L355.824 488.049C358.808 487.597 361.696 486.703 364.41 485.396C366.995 484.149 369.383 482.547 371.516 480.623L372.098 481.27C369.904 483.246 367.446 484.896 364.788 486.177C361.996 487.524 359.025 488.44 355.959 488.909H355.954Z" fill="#231F20"/>
<path d="M342.674 228.774C335.212 228.774 329.141 222.703 329.141 215.241C329.141 207.78 335.212 201.708 342.674 201.708C350.135 201.708 356.206 207.78 356.206 215.241C356.206 222.703 350.135 228.774 342.674 228.774ZM342.674 202.577C335.69 202.577 330.009 208.258 330.009 215.241C330.009 222.225 335.69 227.905 342.674 227.905C349.657 227.905 355.338 222.225 355.338 215.241C355.338 208.258 349.657 202.577 342.674 202.577Z" fill="#231F20"/>
<path d="M370.802 240.956C363.341 240.956 357.27 234.885 357.27 227.423C357.27 219.962 363.341 213.89 370.802 213.89C378.264 213.89 384.335 219.962 384.335 227.423C384.335 234.885 378.264 240.956 370.802 240.956ZM370.802 214.755C363.819 214.755 358.138 220.435 358.138 227.419C358.138 234.402 363.819 240.083 370.802 240.083C377.786 240.083 383.467 234.402 383.467 227.419C383.467 220.435 377.786 214.755 370.802 214.755Z" fill="#231F20"/>
<path d="M360.822 251.089C356.492 251.089 352.64 250.646 352.31 250.606L352.414 249.742C352.453 249.747 356.466 250.216 360.887 250.216C360.978 250.216 361.065 250.216 361.156 250.216C367.046 250.19 370.85 249.338 372.153 247.757L372.822 248.309C370.976 250.546 365.608 251.089 360.822 251.089Z" fill="#231F20"/>
</svg>
