<svg width="600" height="600" viewBox="0 0 600 600" fill="none" xmlns="http://www.w3.org/2000/svg">
<path d="M303.027 234.837V205.99C303.027 205.602 303.027 205.213 303.027 204.824C303.027 204.807 303.027 204.789 303.027 204.772C303.044 204.418 302.966 204.081 302.802 203.77C302.698 203.45 302.517 203.174 302.266 202.932C302.033 202.681 301.757 202.5 301.428 202.396C301.117 202.232 300.789 202.163 300.426 202.172C299.752 202.198 299.061 202.422 298.595 202.932C298.128 203.442 297.834 204.064 297.834 204.764V233.611C297.834 233.999 297.834 234.388 297.834 234.777C297.834 234.794 297.834 234.812 297.834 234.829C297.817 235.183 297.895 235.52 298.059 235.831C298.163 236.151 298.344 236.427 298.595 236.669C298.828 236.92 299.104 237.101 299.433 237.205C299.744 237.369 300.072 237.438 300.435 237.429C301.109 237.403 301.8 237.179 302.266 236.669C302.733 236.159 303.027 235.537 303.027 234.837Z" fill="#4D4D4D"/>
<path d="M300.348 237.559C300.003 237.559 299.675 237.481 299.372 237.317C299.053 237.213 298.75 237.023 298.5 236.755C298.24 236.514 298.05 236.22 297.938 235.874C297.774 235.563 297.696 235.209 297.705 234.829V234.786C297.705 234.526 297.705 234.267 297.705 234.008V204.772C297.705 204.081 297.981 203.416 298.5 202.854C298.94 202.37 299.623 202.085 300.426 202.051C300.806 202.033 301.161 202.12 301.489 202.284C301.808 202.388 302.111 202.578 302.361 202.846C302.621 203.087 302.811 203.39 302.923 203.727C303.087 204.038 303.165 204.392 303.156 204.772V204.815C303.156 205.075 303.156 205.334 303.156 205.593V234.829C303.156 235.52 302.88 236.185 302.361 236.747C301.921 237.231 301.238 237.516 300.443 237.55C300.418 237.55 300.383 237.55 300.357 237.55L300.348 237.559ZM300.513 202.301C300.513 202.301 300.461 202.301 300.435 202.301C299.709 202.336 299.087 202.586 298.69 203.018C298.214 203.537 297.964 204.142 297.964 204.764V233.999C297.964 234.259 297.964 234.518 297.964 234.777V234.812C297.955 235.166 298.024 235.477 298.171 235.771C298.275 236.09 298.448 236.349 298.681 236.565C298.906 236.807 299.165 236.98 299.467 237.075C299.778 237.231 300.089 237.3 300.418 237.291C301.143 237.256 301.765 237.006 302.163 236.574C302.638 236.056 302.888 235.451 302.888 234.829V205.593C302.888 205.334 302.888 205.075 302.888 204.815V204.781C302.897 204.427 302.828 204.116 302.681 203.822C302.577 203.502 302.405 203.243 302.171 203.027C301.947 202.785 301.688 202.612 301.385 202.517C301.1 202.37 300.815 202.301 300.504 202.301H300.513Z" fill="black"/>
<path d="M401.689 249.179H199.871V386.546H401.689V249.179Z" fill="#754C24"/>
<path d="M401.818 386.676H199.741V249.049H401.818V386.676ZM200 386.416H401.559V249.308H200V386.416Z" fill="black"/>
<path d="M401.344 283.996H199.829C194.507 283.996 190.499 279.158 191.483 273.931L194.404 258.432C196.114 249.352 204.045 242.786 213.281 242.786H387.547C396.636 242.786 404.48 249.162 406.346 258.052L409.638 273.758C410.744 279.037 406.718 283.987 401.327 283.987L401.344 283.996Z" fill="#FBB03B"/>
<path d="M401.344 284.125H199.829C197.255 284.125 194.835 282.985 193.194 281.007C191.552 279.028 190.879 276.436 191.362 273.905L194.283 258.406C196.002 249.274 204.002 242.648 213.289 242.648H387.556C396.653 242.648 404.618 249.11 406.485 258.017L409.776 273.724C410.312 276.281 409.673 278.899 408.031 280.929C406.39 282.951 403.945 284.117 401.344 284.117V284.125ZM213.289 242.915C204.123 242.915 196.235 249.455 194.542 258.458L191.622 273.957C191.155 276.41 191.803 278.925 193.401 280.843C194.991 282.76 197.341 283.866 199.838 283.866H401.353C403.884 283.866 406.251 282.743 407.841 280.773C409.439 278.812 410.053 276.264 409.534 273.793L406.243 258.086C404.402 249.3 396.549 242.924 387.564 242.924H213.289V242.915Z" fill="black"/>
<path d="M337.585 386.892H262.249V271.123L299.286 234.837L337.585 270.259V386.892Z" fill="#754C24"/>
<path d="M337.714 387.021H262.119V271.063L262.162 271.028L299.295 234.656L299.381 234.742L337.714 270.199V387.021ZM262.378 386.762H337.455V270.311L299.295 235.01L262.378 271.175V386.762Z" fill="black"/>
<path d="M347.598 278.441L346.449 277.309C345.403 276.281 344.367 275.253 343.321 274.225C341.783 272.704 340.237 271.184 338.699 269.672C336.816 267.823 334.941 265.965 333.058 264.117C331.001 262.086 328.937 260.056 326.88 258.026C324.798 255.978 322.725 253.931 320.643 251.883L314.828 246.155C313.196 244.548 311.571 242.941 309.938 241.334C308.755 240.168 307.58 239.01 306.396 237.844C305.835 237.291 305.282 236.738 304.72 236.185C304.694 236.159 304.668 236.133 304.651 236.116C304.064 235.485 303.372 235.036 302.569 234.777C301.8 234.371 300.962 234.19 300.072 234.215C298.37 234.293 296.703 234.863 295.493 236.116L294.353 237.291C293.325 238.354 292.297 239.416 291.269 240.479L286.716 245.188C284.858 247.114 282.992 249.041 281.135 250.959C279.104 253.058 277.074 255.157 275.052 257.257C272.996 259.382 270.94 261.516 268.875 263.641C266.966 265.62 265.057 267.59 263.147 269.568C261.523 271.244 259.907 272.92 258.283 274.605C257.126 275.806 255.959 277.007 254.802 278.207C254.249 278.778 253.696 279.348 253.143 279.927C253.117 279.953 253.1 279.979 253.074 279.996C251.907 281.205 251.173 282.89 251.173 284.575C251.138 285.465 251.328 286.303 251.735 287.072C251.994 287.875 252.443 288.566 253.074 289.154C254.309 290.285 255.933 291.132 257.653 291.054C259.354 290.977 261.022 290.406 262.231 289.154L263.372 287.979C264.4 286.916 265.428 285.853 266.456 284.791L271.009 280.082C272.867 278.156 274.733 276.229 276.59 274.311C278.62 272.212 280.651 270.112 282.672 268.013C284.729 265.888 286.785 263.754 288.85 261.628C290.759 259.65 292.668 257.68 294.577 255.702C296.202 254.026 297.817 252.35 299.442 250.665L300.185 249.896C301.584 251.278 302.984 252.661 304.383 254.043C306.267 255.892 308.141 257.749 310.025 259.598C312.081 261.628 314.146 263.659 316.202 265.689C318.284 267.736 320.358 269.784 322.44 271.832C324.375 273.741 326.31 275.65 328.254 277.56L333.144 282.38C334.328 283.547 335.503 284.704 336.686 285.871C337.248 286.424 337.801 286.977 338.362 287.529C338.388 287.555 338.414 287.581 338.431 287.599C339.624 288.774 341.343 289.499 343.01 289.499C343.9 289.534 344.738 289.344 345.507 288.938C346.31 288.678 347.002 288.229 347.589 287.599C348.721 286.363 349.568 284.739 349.49 283.02C349.412 281.309 348.842 279.668 347.589 278.441H347.598Z" fill="#FBB03B"/>
<path d="M257.444 291.193C255.932 291.193 254.36 290.51 252.995 289.257C252.347 288.661 251.889 287.936 251.621 287.115C251.215 286.346 251.025 285.482 251.06 284.575C251.06 282.907 251.785 281.162 252.995 279.909L253.064 279.84C253.436 279.452 253.816 279.054 254.196 278.665L295.415 236.021C296.857 234.526 298.749 234.146 300.08 234.086C300.996 234.043 301.851 234.241 302.646 234.656C303.449 234.915 304.166 235.373 304.762 236.021L304.832 236.09C305.203 236.453 305.566 236.816 305.937 237.179L347.7 278.354C348.884 279.521 349.549 281.136 349.636 283.02C349.705 284.601 349.022 286.259 347.7 287.694C347.104 288.342 346.379 288.799 345.558 289.067C344.789 289.473 343.925 289.672 343.018 289.629C341.325 289.629 339.579 288.903 338.353 287.694L338.283 287.625C337.912 287.262 337.54 286.899 337.169 286.527L300.201 250.077L262.343 289.249C260.9 290.743 259.008 291.123 257.677 291.184C257.6 291.184 257.531 291.184 257.453 291.184L257.444 291.193ZM300.279 234.336C300.209 234.336 300.149 234.336 300.08 234.336C298.793 234.397 296.97 234.76 295.587 236.194L254.369 278.838C253.988 279.227 253.617 279.616 253.237 280.005L253.168 280.082C252.001 281.283 251.31 282.968 251.31 284.575C251.276 285.447 251.457 286.259 251.854 287.011C252.114 287.806 252.554 288.488 253.168 289.059C254.49 290.268 255.993 290.925 257.444 290.925C257.513 290.925 257.582 290.925 257.66 290.925C258.947 290.864 260.77 290.501 262.153 289.067L300.192 249.715L337.35 286.346C337.722 286.709 338.085 287.072 338.456 287.434L338.525 287.504C339.709 288.67 341.385 289.37 343.018 289.37C343.89 289.404 344.703 289.223 345.454 288.825C346.249 288.566 346.932 288.126 347.502 287.512C348.772 286.13 349.437 284.54 349.368 283.028C349.29 281.205 348.642 279.65 347.51 278.536L305.747 237.36C305.384 236.997 305.013 236.635 304.65 236.28L304.59 236.22C304.002 235.589 303.32 235.149 302.542 234.898C301.834 234.526 301.082 234.345 300.287 234.345L300.279 234.336Z" fill="black"/>
<path d="M229.462 301.016C236.062 301.016 241.427 306.381 241.427 312.981V328.835H217.496V312.981C217.496 306.381 222.861 301.016 229.462 301.016Z" fill="#53A6DB"/>
<path d="M241.504 328.921H217.4V312.981C217.4 306.338 222.809 300.929 229.452 300.929C236.096 300.929 241.504 306.338 241.504 312.981V328.921ZM217.582 328.748H241.34V312.981C241.34 306.433 236.01 301.102 229.461 301.102C222.912 301.102 217.582 306.433 217.582 312.981V328.748Z" fill="#221F20"/>
<path d="M247.043 328.878H211.708V329.137H247.043V328.878Z" fill="black"/>
<path d="M229.462 339.375C236.062 339.375 241.427 344.74 241.427 351.34V367.194H217.496V351.34C217.496 344.74 222.861 339.375 229.462 339.375Z" fill="#53A6DB"/>
<path d="M241.504 367.28H217.4V351.34C217.4 344.696 222.809 339.288 229.452 339.288C236.096 339.288 241.504 344.696 241.504 351.34V367.28ZM217.582 367.107H241.34V351.34C241.34 344.792 236.01 339.461 229.461 339.461C222.912 339.461 217.582 344.792 217.582 351.34V367.107Z" fill="#221F20"/>
<path d="M247.043 367.237H211.708V367.496H247.043V367.237Z" fill="black"/>
<path d="M371.753 301.016C378.353 301.016 383.718 306.381 383.718 312.981V328.835H359.787V312.981C359.787 306.381 365.152 301.016 371.753 301.016Z" fill="#53A6DB"/>
<path d="M383.805 328.921H359.701V312.981C359.701 306.338 365.109 300.929 371.753 300.929C378.397 300.929 383.805 306.338 383.805 312.981V328.921ZM359.865 328.748H383.624V312.981C383.624 306.433 378.293 301.102 371.745 301.102C365.196 301.102 359.865 306.433 359.865 312.981V328.748Z" fill="#221F20"/>
<path d="M389.335 328.878H354V329.137H389.335V328.878Z" fill="black"/>
<path d="M371.753 339.375C378.353 339.375 383.718 344.74 383.718 351.34V367.194H359.787V351.34C359.787 344.74 365.152 339.375 371.753 339.375Z" fill="#53A6DB"/>
<path d="M383.805 367.28H359.701V351.34C359.701 344.696 365.109 339.288 371.753 339.288C378.397 339.288 383.805 344.696 383.805 351.34V367.28ZM359.865 367.107H383.624V351.34C383.624 344.792 378.293 339.461 371.745 339.461C365.196 339.461 359.865 344.792 359.865 351.34V367.107Z" fill="#221F20"/>
<path d="M389.335 367.237H354V367.496H389.335V367.237Z" fill="black"/>
<path d="M299.615 323.392C309.659 323.392 317.801 315.25 317.801 305.206C317.801 295.162 309.659 287.02 299.615 287.02C289.571 287.02 281.429 295.162 281.429 305.206C281.429 315.25 289.571 323.392 299.615 323.392Z" fill="#FFC06E"/>
<path d="M299.614 323.521C289.515 323.521 281.299 315.305 281.299 305.206C281.299 295.106 289.515 286.89 299.614 286.89C309.714 286.89 317.93 295.106 317.93 305.206C317.93 315.305 309.714 323.521 299.614 323.521ZM299.614 287.149C289.662 287.149 281.558 295.253 281.558 305.206C281.558 315.158 289.662 323.262 299.614 323.262C309.567 323.262 317.671 315.158 317.671 305.206C317.671 295.253 309.567 287.149 299.614 287.149Z" fill="black"/>
<path d="M306.413 314.381L298.923 306.882V295.4H299.528V306.631L306.845 313.949L306.413 314.381Z" fill="black"/>
<path d="M406.959 384.127H193.911C190.093 384.127 186.999 387.221 186.999 391.039C186.999 394.856 190.093 397.95 193.911 397.95H406.959C410.776 397.95 413.871 394.856 413.871 391.039C413.871 387.221 410.776 384.127 406.959 384.127Z" fill="#4D4D4D"/>
<path d="M406.959 398.08H193.91C190.031 398.08 186.869 394.918 186.869 391.039C186.869 387.159 190.031 383.997 193.91 383.997H406.959C410.838 383.997 414 387.159 414 391.039C414 394.918 410.838 398.08 406.959 398.08ZM193.91 384.257C190.169 384.257 187.128 387.298 187.128 391.039C187.128 394.779 190.169 397.82 193.91 397.82H406.959C410.7 397.82 413.741 394.779 413.741 391.039C413.741 387.298 410.7 384.257 406.959 384.257H193.91Z" fill="black"/>
<path d="M300.607 348.273C311.001 348.273 319.441 356.714 319.441 367.107V397.518H281.773V367.107C281.773 356.714 290.214 348.273 300.607 348.273Z" fill="#4D4D4D"/>
<path d="M319.571 397.648H281.644V367.107C281.644 356.654 290.153 348.144 300.607 348.144C311.061 348.144 319.571 356.654 319.571 367.107V397.648ZM281.903 397.389H319.312V367.107C319.312 356.792 310.923 348.403 300.607 348.403C290.292 348.403 281.903 356.792 281.903 367.107V397.389Z" fill="black"/>
<path d="M300.728 348.273H300.469V398.037H300.728V348.273Z" fill="black"/>
<path d="M328.375 220.375C327.01 219.978 324.669 219.451 321.809 219.684C315.649 220.176 312.876 223.718 308.072 222.88C306.811 222.656 305.04 222.068 303.062 220.375V204.133C303.943 204.573 305.437 205.23 307.381 205.515C312.202 206.232 314.898 203.977 320.168 203.442C321.982 203.252 324.79 203.2 328.375 204.133C328.375 204.167 323.623 211.943 323.623 211.943C323.623 211.943 328.375 220.323 328.375 220.375Z" fill="#00A99D"/>
<path d="M309.55 223.14C309.074 223.14 308.582 223.096 308.055 223.01C306.293 222.699 304.582 221.852 302.984 220.479L302.94 220.444V203.934L303.13 204.029C304.504 204.72 305.938 205.178 307.407 205.403C310.232 205.817 312.288 205.221 314.664 204.53C316.306 204.046 318.008 203.554 320.159 203.329C322.811 203.062 325.593 203.295 328.41 204.02L328.505 204.046V204.15C328.505 204.202 328.505 204.219 323.77 211.96C328.505 220.306 328.505 220.349 328.505 220.392V220.565L328.34 220.522C326.172 219.891 323.977 219.667 321.818 219.831C319.01 220.055 316.867 220.937 314.984 221.714C313.135 222.474 311.485 223.157 309.541 223.157L309.55 223.14ZM303.2 220.314C304.755 221.636 306.396 222.457 308.107 222.751C310.664 223.2 312.625 222.388 314.897 221.455C316.798 220.669 318.958 219.779 321.809 219.554C323.9 219.381 326.025 219.589 328.124 220.168C327.502 219.036 324.936 214.509 323.52 212.003L323.485 211.934L323.528 211.865C324.997 209.455 327.684 205.057 328.194 204.211C325.455 203.519 322.768 203.303 320.193 203.563C318.059 203.779 316.375 204.271 314.742 204.755C312.435 205.429 310.258 206.068 307.372 205.636C305.938 205.42 304.539 204.988 303.2 204.332V220.306V220.314Z" fill="black"/>
</svg>
